<svg aria-label="JustWatch" width="80" height="12.11" id="prefix__Layer_1" xmlns="http://www.w3.org/2000/svg" xmlns:xlink="http://www.w3.org/1999/xlink" x="0" y="0" viewBox="0 0 66 10" xml:space="preserve"><style>.prefix__st0{clip-path:url(#prefix__SVGID_2_)}</style><defs><path fill="currentColor" id="prefix__SVGID_1_" d="M0 0h66v10H0z"/></defs><clipPath id="prefix__SVGID_2_"><use xlink:href="#prefix__SVGID_1_" overflow="visible"/></clipPath><path fill="currentColor" class="prefix__st0" d="M.167 2.548l.002-1.52S.21.332.899.691c.69.36 1.399.72 1.399.72s.198.115 0 .22C2.099 1.738.344 2.654.344 2.654s-.177.074-.177-.105zM.16 7.82l.002 1.52s.044.696.732.336c.688-.36 1.397-.72 1.397-.72s.198-.117 0-.222L.337 7.714S.159 7.641.16 7.82zm2.646-4.018c.34-.165 1.47-.763 1.722-.894.343-.178.007-.342.007-.342l-1.724-.9s-.307-.167-.293.184c.014.352-.002 1.745-.002 1.745s-.049.373.29.207zM.451 5.052c.34-.166 1.469-.763 1.722-.895.343-.178.006-.341.006-.341l-1.723-.9S.149 2.747.162 3.1C.176 3.45.16 4.844.16 4.844s-.048.373.29.208zm4.708-.048c.34-.165 1.47-.763 1.722-.894.343-.178.006-.342.006-.342l-1.723-.9s-.307-.167-.293.184c.013.352-.003 1.745-.003 1.745s-.049.372.291.207zm-2.35 1.26c.34-.166 1.47-.764 1.722-.895.343-.178.006-.342.006-.342l-1.723-.9s-.307-.167-.294.185c.014.351-.002 1.744-.002 1.744s-.049.373.291.207zM.449 7.457c.34-.165 1.469-.762 1.722-.894.342-.178.006-.341.006-.341L.454 5.322s-.308-.167-.294.185C.174 5.858.158 7.25.158 7.25s-.05.373.29.207zm2.357 1.243c.34-.165 1.47-.763 1.722-.894.343-.178.006-.341.006-.341l-1.723-.901s-.307-.167-.293.184c.014.352-.002 1.745-.002 1.745s-.05.373.29.207zm2.352-1.197c.34-.165 1.47-.762 1.722-.894.343-.178.006-.341.006-.341l-1.723-.901s-.307-.167-.293.185c.014.351-.002 1.744-.002 1.744s-.049.373.29.207zm2.067-3.238l-.002 1.857s-.026.274.222.147L8.88 5.53c.666-.344.002-.678.002-.678l-1.441-.747c-.24-.125-.217.162-.217.162z"/><g class="prefix__st0"><path fill="currentColor" d="M11.299 7.726c.068.327.217.599.448.814.23.215.515.323.856.323.273 0 .496-.052.671-.155.174-.103.313-.244.415-.42.102-.177.175-.383.217-.62.043-.237.064-.489.064-.756V.62h1.266v6.344c0 .318-.034.654-.103 1.007-.068.354-.195.681-.383.982-.187.302-.45.552-.786.75-.337.197-.77.297-1.297.297-.69 0-1.253-.181-1.688-.543a2.531 2.531 0 01-.856-1.395l1.176-.336zM20.774 9.768a11.504 11.504 0 01-.051-1.008h-.026c-.153.327-.41.605-.773.833a2.218 2.218 0 01-1.208.342c-.392 0-.73-.065-1.016-.194a1.872 1.872 0 01-.703-.536 2.295 2.295 0 01-.41-.794 3.403 3.403 0 01-.134-.97V3.643h1.202v3.385c0 .25.02.49.057.717.039.228.109.428.211.6.103.173.243.311.422.414.179.104.409.156.69.156.486 0 .878-.183 1.176-.55.299-.366.448-.854.448-1.466V3.643h1.201V8.45a19.357 19.357 0 00.051 1.319h-1.137zM26.583 5.194a1.636 1.636 0 00-1.406-.762c-.136 0-.272.015-.409.044a1.21 1.21 0 00-.364.143.784.784 0 00-.256.245.666.666 0 00-.096.369c0 .258.115.45.345.574.23.125.576.24 1.036.343.29.069.558.15.805.245s.462.213.646.355c.183.143.326.313.428.51.102.2.153.431.153.699 0 .361-.068.667-.204.916-.137.25-.318.455-.544.614-.225.16-.483.274-.773.343-.29.068-.588.103-.895.103-.46 0-.91-.09-1.348-.271a2.638 2.638 0 01-1.093-.827l.856-.737c.162.242.386.444.671.608.286.163.6.245.94.245.153 0 .3-.015.44-.045.142-.03.27-.08.384-.149a.792.792 0 00.275-.271.807.807 0 00.102-.426c0-.284-.134-.495-.402-.633-.269-.138-.663-.267-1.183-.388a7.193 7.193 0 01-.62-.187 2.064 2.064 0 01-.568-.304c-.17-.129-.31-.29-.416-.484-.107-.194-.16-.433-.16-.717 0-.328.066-.61.199-.847.132-.236.304-.43.517-.581a2.27 2.27 0 01.729-.336 3.249 3.249 0 012.103.149c.404.172.717.422.939.749l-.83.71zM31.788 4.638h-1.61V7.82c0 .37.068.634.204.792.137.16.354.24.652.24.11 0 .23-.013.358-.037.128-.023.243-.059.345-.106l.038.995a2.99 2.99 0 01-.479.123 3.21 3.21 0 01-.543.044c-.571 0-1.008-.159-1.31-.478-.303-.318-.454-.796-.454-1.433v-3.32h-1.163v-.996h1.163V1.886h1.189v1.757h1.61v.995zM35.163 7.906h.026L37.31.62h1.393l2.11 7.286h.025L42.832.62h1.342l-2.659 9.148H40.2L38 2.416h-.025l-2.199 7.352H34.46L31.8.62h1.368l1.994 7.286zM47.963 5.8c0-.455-.136-.794-.41-1.013-.272-.22-.634-.33-1.085-.33-.342 0-.663.067-.965.2a2.44 2.44 0 00-.76.51l-.64-.774a3.215 3.215 0 011.093-.672c.43-.164.892-.246 1.386-.246.435 0 .812.063 1.132.188.32.125.582.295.786.51.205.215.358.47.46.762.102.293.153.608.153.943v2.675c0 .206.007.424.02.652.012.228.036.416.07.563h-1.087a3.84 3.84 0 01-.102-.879h-.038c-.222.327-.5.581-.837.762-.337.18-.735.271-1.196.271-.238 0-.488-.032-.747-.096a2.162 2.162 0 01-.71-.317 1.784 1.784 0 01-.53-.581c-.141-.242-.211-.538-.211-.892 0-.465.123-.833.37-1.105.248-.271.571-.478.972-.62.4-.142.852-.234 1.355-.278.502-.043 1.01-.064 1.52-.064V5.8zm-.294 1.048c-.298 0-.607.012-.927.038-.32.026-.61.078-.869.155-.26.078-.475.194-.645.35-.17.154-.256.36-.256.619 0 .181.036.332.109.452.072.121.168.22.287.297.12.078.252.132.397.162.144.03.294.045.447.045.562 0 .995-.17 1.297-.51.303-.34.454-.769.454-1.286v-.322h-.294zM53.638 4.638h-1.61V7.82c0 .37.068.634.204.792.137.16.354.24.652.24.11 0 .23-.013.358-.037.128-.023.243-.059.345-.106l.038.995a2.99 2.99 0 01-.479.123 3.21 3.21 0 01-.543.044c-.571 0-1.008-.159-1.31-.478-.303-.318-.454-.796-.454-1.433v-3.32h-1.163v-.996h1.163V1.886h1.189v1.757h1.61v.995zM58.802 5.194a1.475 1.475 0 00-.575-.498 1.746 1.746 0 00-.818-.2c-.316 0-.595.06-.837.18-.243.122-.45.283-.62.485-.17.203-.3.438-.39.704-.09.267-.134.547-.134.84 0 .293.044.573.134.84.09.267.22.502.39.704.17.203.379.364.626.485.247.12.528.18.844.18.306 0 .585-.06.837-.18a1.72 1.72 0 00.62-.491l.805.736a2.609 2.609 0 01-.959.704 3.22 3.22 0 01-1.303.252c-.47 0-.902-.077-1.298-.232a3.081 3.081 0 01-1.029-.653 3.008 3.008 0 01-.684-1.014 3.413 3.413 0 01-.249-1.33c0-.483.081-.922.243-1.319.162-.396.388-.736.678-1.02.29-.284.632-.504 1.028-.66a3.498 3.498 0 011.285-.232c.426 0 .85.087 1.272.259.421.172.756.422 1.003.749l-.87.71zM61.806 4.573c.144-.3.391-.56.741-.775.35-.215.741-.323 1.176-.323.392 0 .729.067 1.01.2A2.055 2.055 0 0165.85 5c.09.302.134.625.134.969v3.799h-1.201V6.374c0-.25-.02-.488-.058-.712a1.736 1.736 0 00-.21-.596 1.17 1.17 0 00-.416-.415c-.175-.103-.402-.155-.684-.155-.477 0-.869.183-1.176.55-.307.367-.46.857-.46 1.47v3.252H60.58V0h1.201v4.573h.026z"/></g></svg>
