<svg version="1.0" xmlns="http://www.w3.org/2000/svg" width="493.333" height="173.333" viewBox="0 0 370 130" class="fill-foreground" fill="#9b9b9b"><path d="M55.7 1.4c-7.8 2.9-11.5 9-10.3 17.3 1.3 9.6 8.2 14 20.7 13.1C77 31 82.3 26.1 82.3 16.7c0-6.8-2.4-11.3-7.5-13.9-5-2.6-14.2-3.3-19.1-1.4zM15.3 8.2L0 14.4v15.5c0 8.6.3 34.2.7 56.8l.6 41.3H33V65c0-49.8-.3-63-1.2-62.9-.7 0-8.2 2.8-16.5 6.1zM200.5 7.9l-14 5.8-.3 11.6-.3 11.7H172v26h12.8l.4 24.7c.5 25.5 1 28.7 5 34.6 1.1 1.5 3.8 3.7 6.1 5 3.6 1.9 5.7 2.2 15.2 2.1 8.4 0 12.3-.5 16.5-2l5.5-2 2-13.7c1-7.5 1.6-13.9 1.2-14.3-.4-.4-2.8.2-5.2 1.4-5 2.4-10.4 2.9-12.3 1-.8-.8-1.2-6.5-1.2-19V63h19V37h-20V19.5c0-13.4-.3-17.5-1.2-17.5-.7.1-7.6 2.7-15.3 5.9zM352.3 8.2L337 14.4v35c0 19.3.3 44.9.7 56.8l.6 21.8H370V65c0-49.8-.3-63-1.2-62.9-.7 0-8.2 2.8-16.5 6.1zM117 36c-16.7 3.5-25.4 16-23.6 34 1.4 13.2 7.3 18.7 26.6 24.6 13.6 4.2 16.5 5.5 16.5 7.4 0 4.2-13 3.4-26.9-1.6-12.1-4.4-10.7-5.2-14.9 8.5-2 6.6-3.7 12.4-3.7 13 0 1.4 11.5 4.8 22.5 6.8 12.2 2.1 27.8 1.3 35.9-1.7 3.3-1.3 7.9-4 10.2-6.2 5.9-5.5 7.9-11.1 7.9-22.3-.1-13.1-3.4-18.5-15-24.2-3.9-2-7.5-3.2-20-6.8-7.4-2.2-10-4.2-8.3-6.3 2.1-2.5 15.7-1 25.7 2.8 5.8 2.2 8.5 2.9 9 2.1 1.1-1.8 7.4-24.1 7-24.6-.3-.2-4.5-1.6-9.4-3-7.2-2.1-11.6-2.8-22-3-7.1-.2-15 0-17.5.5zM274 35.6c-14.3 2.5-25 6.4-25 9.1 0 1 1.7 6 3.7 11.1 4.2 10.5 3.3 10.1 13.8 6.1 4.4-1.6 8.3-2.2 14.3-2.3 8-.1 8.5 0 10.8 2.7 1.3 1.5 2.4 3.9 2.4 5.3 0 2.4-.2 2.5-3.2 1.7-1.8-.4-8.5-.8-14.8-.8-9.9 0-12.2.4-16.7 2.4-2.9 1.3-6.9 4.1-8.9 6.3-5.7 6.3-6.8 9.9-6.8 21.3 0 12.1 2.3 18.3 8.9 24.4 8.4 7.7 23.8 9.3 35.8 3.8 5.4-2.5 5.7-2.5 5.7-.6 0 1.8.8 1.9 15.6 1.9h15.5l-.3-35.2-.3-35.3-2.8-5.7c-3.3-6.7-9-12-15.6-14.4-4.5-1.6-26.1-2.8-32.1-1.8zm18.2 55.5c1.4.7 1.8 2.1 1.8 5.9 0 4.5-.3 5.1-3 6.5-1.6.8-5 1.8-7.4 2.1-3.9.6-4.8.3-7-1.9-4.1-4.1-3.2-11.7 1.7-13.7 2.5-1.1 11.1-.4 13.9 1.1zM47.3 67.1c.4 16.6.7 37.1.7 45.6V128h32l-.2-45.3-.3-45.2-16.4-.3-16.4-.3.6 30.2z"/></svg>
