<svg version="1.0" xmlns="http://www.w3.org/2000/svg" width="200" height="38.28" viewBox="0 0 1447 277"><path fill="currentColor" d="M107.3 2.1C80 4.2 62.8 10.9 50.1 24.6 39.3 36.1 34.7 48.5 32.9 71.5c-.6 7.1-1.4 13.1-1.8 13.3-5 1.8-6.1 8.2-2 11.3 1.9 1.5 2.1 1.9.7 1.9-1 0-3.2 1.3-4.9 2.8-2.4 2.2-3.2 3.8-3.6 7.7-.4 3.3-1.3 5.8-2.9 7.5-3.3 3.5-4 8-1.9 11.9.9 1.8 2.3 3.5 3.1 3.8 1 .4 1.4 2.2 1.4 6.2.1 3.1.7 6.7 1.4 8.1 1.4 2.3 1.2 2.5-6.1 7.3-8.7 5.7-12.6 11.1-14.4 19.5-1.4 7 .1 17.5 3.6 24.7 3.2 6.6 11.1 15.4 17.9 19.9 4.7 3.1 5.6 4.2 6.1 7.4 1.4 9.7 2.9 14.3 6.7 22.2 5.7 11.4 14.8 20.8 23.3 23.9 15.4 5.8 29.7 6.4 39.8 1.8 4.3-1.9 6.2-3.6 9.3-8.3 5.7-8.5 10.8-11.7 19.2-12.2 10.9-.6 16.6 2.8 23.2 13.8 6.8 11.3 28.7 13.1 49.9 4 11.3-4.9 24.6-24.7 27.1-40.2 1.3-8.7 1.5-9.1 5.1-11.2 7-4.2 15.9-13.8 19.6-21.3 3.2-6.5 3.7-8.6 4.1-16.2.4-7.4.1-9.5-1.8-13.9-2.4-5.6-7.2-10.5-14.9-15.2l-4.9-3 1.4-3.8c.7-2 1.3-5.6 1.4-7.9 0-3 .7-4.9 2.4-6.8 1.3-1.4 2.6-3.6 2.8-4.8.6-3.2-1-8.4-3.1-9.9-1.1-.8-2-3.2-2.4-6.1-.8-5.8-2.9-9.1-6.7-10.7-2.8-1.2-2.8-1.2-.9-3.1 3-3 2.5-7.7-1-9.6-2.8-1.7-2.8-1.8-3.4-13.2-1.3-31-12.3-50.4-34.8-61.5C179.5 6 168.3 3.4 149.3 2c-15.5-1.1-27-1.1-42 .1zm47.2 8c36.7 3.7 56.3 18.5 62.1 46.9 1.5 7.4 1.5 9.6.4 18.2l-1.2 9.8H43.2L42 75.1c-1.1-8.7-1.1-11 .3-18.3 1.8-9.1 6.8-20.1 11.7-26.1 8.8-10.5 27.3-18.3 49.1-20.6 12.3-1.2 38.9-1.3 51.4 0zM45.6 98.8c.6.4 1.4 3.5 1.7 7 .6 7.1 4.2 15.4 8.3 19.3 2.2 2.1 3.5 2.4 8.7 2.2 11.6-.3 27.7-7.6 44.6-20.3l7.9-6H142l5.8 4.7c15.2 12.4 36.7 22.2 48.9 22.3 3.1 0 8-4.5 10.7-9.9 2.6-5 5.1-15.4 4.2-17.6-.4-1.2 1.3-2.5 3.5-2.5.5 0 .9 5.7.9 12.8 0 11.8-.2 13.1-2.6 17.7-3.9 7.3-10.3 15.4-12.8 16.1-4.2 1-22.2-6.4-34.5-14.3-2.9-1.9-5.5-3.2-5.8-3-.2.3 1.5 2.9 3.9 5.8 4.9 6 14.3 12.8 21.4 15.4 6.7 2.5 13.2 7.4 17.4 13l3.5 4.6 1.9-2.3c4.4-5.3 7.1-13.1 7.2-20.6.1-4.1.7-7.9 1.3-8.5.8-.8 1.1-.7 1.1.3 0 .8.9 7.2 1.9 14.2 2.6 17.2 1.1 22.8-10 37.8-7.7 10.6-7 10.3-17.1 6.9-12.6-4.1-18.1-7.9-42.7-29.4-11.6-10.1-17.7-14.5-20.5-14.5-3 0-8.2 3.7-23.4 16.7-22.8 19.6-29.5 24.1-42 27.9l-7.7 2.4-3.3-3.8c-5.3-6.1-12.3-17-14.3-22.3-2.3-6-2.3-9.9-.1-25.2 1.5-10 2-11.7 3.1-10.3.9 1 1.1 2.8.6 5.5-.8 5.1 1.6 14 5.7 20.3l3 4.7 7.1-7.3c5.9-6.1 8.3-7.8 13.6-9.7 9.5-3.4 22.1-13.5 26-20.8.9-1.6-.2-1.2-5.2 1.8C80 137.6 63.3 145 58.5 145c-2.3 0-7-5.4-12.1-14l-4.4-7.5v-12.7c0-12.9.4-14.2 3.6-12zm-10.9 11.4c-.4 2.9-.9 10.6-1.3 17-.3 6.4-.9 13.2-1.3 14.9-.6 3-.7 3.1-2.4 1.5-1.5-1.5-1.7-3.9-1.7-18.2 0-9.5.4-17.4 1-18.5.6-1.1 2.1-1.9 3.7-1.9 2.5 0 2.5.1 2 5.2zm194.2-3.8c.8.9 1.1 6.9.9 19.2-.3 15.5-.5 17.9-1.9 18.2-1.9.3-2.4-3.7-3.5-25.1-.7-13.3-.6-13.7 1.3-13.7 1.1 0 2.6.6 3.2 1.4zM30 157.5c-1.7 11.4 4.2 25.9 15.9 38.8 4 4.4 3.9 4.6-5.3 10.1-10 6-17 4.5-24-5.1-4.5-6.2-6.7-13.2-6.8-21.9-.2-7.9 1.3-11.4 7-17 3.5-3.5 11.8-9.4 13.2-9.4.4 0 .4 2 0 4.5zm201.3-3.4c4.7 2.4 12.8 9.3 14.8 12.6 1.2 1.9 2.5 5 2.9 6.9 1.2 5.2-.6 16.7-3.4 22.2-7.3 14.3-15.6 17.6-27.2 10.6-9.3-5.6-9.3-5.6-5-10.4 5.3-5.9 11.2-15.3 13.6-21.8 2-5.4 3-17.8 1.5-20.2-.8-1.3.1-1.3 2.8.1zm-84.1 23.1c4 1.9 12.7 6.9 19.3 11 15.5 9.7 18.2 11 28.6 14.2 13.3 4.1 19.4 8.9 24.9 19.5 1.6 3.1 2.1 5.5 1.7 8.1-.6 4.9-8.8 21.6-12.6 26l-3.1 3.5.7-4c1.3-6.8.8-14-1.3-17.6-1.2-2.2-3.9-4.4-7.4-6.2-5-2.6-6.2-2.8-14-2.5-9.6.4-17.3 3.4-28.2 10.8-3.2 2.2-6 4-6.3 4-.3 0-.5-5.4-.5-12.1 0-6.6-.5-12.9-1-14-1.2-2.1-4-2.5-5.8-.7-.9.9-1.2.5-1.2-1.9 0-3.8-2.4-6.1-4.8-4.6-1.3.8-1.9.5-2.7-1.1-1.5-2.9-5.1-3.3-6.5-.6-.7 1.3-1.7 1.9-2.6 1.6-2.5-1-5.4 1.2-5.4 4 0 2-.4 2.5-1.6 2-.9-.4-2.5-.4-3.5-.1-1.7.6-1.9 1.9-1.9 14.2 0 15.4.6 14.8-9.1 8.2-10-6.7-16.3-9.1-25.7-9.7-9.9-.6-15.6 1.2-20.1 6.4-4.5 5.1-5.6 10.2-3.8 18.3l1.5 6.6-3-3.5c-3.6-4.3-10.3-17.9-11.9-24.3-1.1-4.5-1-5.1 2-11.2 5-10.1 10.7-14.6 24.5-19 8.2-2.6 14.2-5.4 21.3-9.7 5.4-3.4 13.2-8.2 17.3-10.7 16.5-10.1 28.3-11.5 42.2-4.9zm-69 57.8c6 1.7 13.8 11.9 13.8 18.2 0 3.7-3.8 6.8-8.4 6.8-8.1-.1-19-7.3-20.2-13.5-.8-4.4 1.8-9.3 5.9-11 3.9-1.7 4.3-1.7 8.9-.5zm114.7 3.7c2.9 3 3.2 4 2.8 7.1-.8 4.4-4.7 8.6-11.2 11.9-6.6 3.4-11.6 3.5-14.9.4-3.2-3-3.3-6.7-.6-12.1 6.1-11.9 16.5-15.1 23.9-7.3zM629 123.8c0 83.1-.2 81.1 6.9 87.5 2.2 2 5.7 4.1 7.8 4.7 2.1.7 12.2 1.4 22.6 1.7l18.7.5v-17.5c0-19.6.3-18.7-7.5-18.7-2.7 0-5.1-.7-6.6-1.9l-2.4-1.9-.3-64.1L668 50h-39v73.8zM701.2 125.2l.3 75.3 2.4 4.8c2.5 5.1 6.5 8.7 12.1 10.7 2.1.8 10.8 1.5 22.3 1.8l18.7.4-.2-17.8-.3-17.9-6.3-.5c-4.8-.4-6.7-1-7.8-2.4-1.2-1.7-1.4-12.3-1.4-65.8V50h-40.1l.3 75.2zM914 134v84h39v-34.7l6.1-5.1c3.4-2.9 6.5-5 6.9-4.7.4.3 7 10.4 14.6 22.5l13.8 22h44.6l-2.4-3.8c-1.3-2-11.2-17.3-22-34S995 149.5 995 148.9c0-.5 9.7-13 21.7-27.7 11.9-14.7 22-27.3 22.6-28 .7-.9-4-1.2-23.1-1.2h-23.9l-18.9 23.4c-10.4 12.9-19.2 23.5-19.6 23.5-.5.1-.8-19.9-.8-44.4V50h-39v84zM1052 64.5V79h41V50h-41v14.5zM521.5 90.9c-22 3.6-32.5 12-37.9 30.1-2.8 9.2-4 32-2.8 48.3 1.7 21.4 5.2 30.9 14.2 39 10.4 9.4 23.7 12.1 55.5 11.4 23.2-.5 28.5-1.3 39.2-6.1 6-2.8 12.3-9 15.2-14.9 1.2-2.4 3-7.9 4.2-12.2 1.9-7 2.2-10.7 2.2-30.5.1-25-1-32.4-6.2-43.5-4.9-10.6-12.1-16-26.6-20.1-4.6-1.3-11.3-1.7-29-2-12.6-.1-25.2.1-28 .5zm40.1 32c3.4 1.6 4.5 2.8 6 6.7 1.6 4.2 1.9 7.8 1.9 25.9 0 19.3-.2 21.4-2.1 25.6-3.2 6.8-7.5 8.2-23.3 7.8-13.6-.4-16.1-1.5-19.6-8.5-1.7-3.4-2-6.3-2.3-22-.4-20.5.6-27.8 4.5-32.4 3.3-4 6.7-4.8 19.8-4.9 8.7 0 11.9.3 15.1 1.8zM809.5 90.9c-23.3 3.8-34.2 14.1-38 35.8-1.9 10.6-1.9 46.1 0 56.8 1.7 9.5 7.2 21.2 11.8 25.1 5 4.2 14.9 8.4 23.4 9.9 11.1 2 45.4 2 56.9 0 21.4-3.8 30.2-12.7 32-32.9l.7-7.6h-41.2l-1.1 4c-2 7.3-6 9-21 9-10.4 0-14.9-1.5-18.2-6-1.8-2.5-4.3-16.4-3.2-18.1.3-.5 18.3-.9 43.1-.9h42.6l-.6-19.3c-.3-13.2-1-21.1-2.1-25.2-3.6-13-9.9-21.5-19-25.6-10-4.4-15.3-5.1-38.6-5.5-12.4-.1-24.7.1-27.5.5zm40.3 30.1c3.7 2.3 4.8 4.6 5.3 11l.4 4.5-21.7.3-21.8.2v-3.2c0-1.8.9-5.1 1.9-7.4 2.8-6.1 6.2-7.4 20.6-7.4 10.3 0 12.5.3 15.3 2zM1175.2 91.5c-9.8 2.8-15.9 7.4-19.3 15l-1.9 4V92h-40v126h40v-38.6c0-25.5.4-40 1.1-43 1.5-5.7 6.2-10.8 11.4-12.3 5.6-1.5 16.9-1.4 20.9.3 5.9 2.4 6 3.5 6.4 50.8l.3 42.8h39l-.4-50.8c-.3-41.6-.6-51.6-1.9-55.7-3.1-10.2-6.9-14.8-15.3-18.7-4.4-1.9-6.9-2.3-20-2.5-10.9-.2-16.5.1-20.3 1.2zM1288.5 90.9c-12.9 2.1-23.1 6.7-28.8 13-4.5 5-5.9 7.7-8.8 17.1-2.3 7.1-2.4 9-2.4 33.5 0 28.3.5 32.3 5.6 43.2 5.5 11.5 16.7 18.6 33.9 21.3 10.3 1.6 42.3 1.2 52.6-.5 17.6-3.1 28.4-10.8 33.2-23.7 4.1-11 4.7-16.4 4.6-40.8-.1-20.9-.3-24.4-2.3-31.5-3.7-13.7-10-21.9-20.3-26.5-10.3-4.5-15.4-5.2-39.3-5.6-12.6-.1-25.2.1-28 .5zm40.5 32.3c6.9 3.5 7.9 7.5 7.9 31.8s-1 28.3-7.9 31.7c-3.7 2-6 2.3-15 2.3-5.8 0-12.2-.5-14.2-1-8.3-2.3-10.8-10-10.8-33 0-22.5 2.6-30.7 10.3-32.9 1.8-.5 8.2-1 14.2-1 9.6-.1 11.7.2 15.5 2.1zM380 155v63h40v-38.8c0-35.9.2-39 1.9-42.9 1.4-3 3.2-4.8 6.3-6.5 3.9-2.1 5.8-2.3 23.1-2.6l18.7-.4V92h-9.8c-21.7 0-31.8 4.5-37.8 16.7l-2.3 4.8-.1-10.8V92h-40v63zM1053 155v63h39V92h-39v63zM1398 198v20h48v-40h-48v20z"/></svg>
