<svg width="50" height="50" class="prefix__stormtrooper" xmlns="http://www.w3.org/2000/svg" viewBox="0 0 90 112.5" fill="currentColor"><circle cx="31.5" cy="79.1" r="1.2"/><path d="M81.1 50.9c-.3-.4-2.6-2.2-4.6-3.1.6-.6.9-1.4.9-2.3V43c.8-.3 1.8-1.5 1.8-2.8 0-1.4-1-2.5-1.8-2.8v-1.6c0-1.8-1.5-3.3-3.3-3.3.1 0 .2 0 .3-.1.9-.2 1.5-1.1 1.4-2-.1-1-.9-1.7-1.8-1.8 0-5.9-.4-13.4-5.6-18.5C63.8 5.4 57.2 3.5 45 3.5S26.2 5.4 21.5 10c-5.2 5.1-5.6 12.6-5.6 18.5-1 .1-1.7.8-1.8 1.8-.1.9.5 1.8 1.4 2 .1 0 .2 0 .3.1-1.8 0-3.3 1.5-3.3 3.3v1.6c-.8.3-1.8 1.4-1.8 2.8 0 1.3 1 2.5 1.8 2.8v2.5c0 .9.3 1.7.9 2.3-1.9.9-4.2 2.7-4.6 3.1-.5.5-3.3 3.2-1.8 9.6.9 3.5 4 6.8 7.3 8.7.8.5.9 2.4.9 2.6 0 2.6 3.4 10.6 8.2 12.5 8.5 3.5 14.1 1 15.1-1.4.9-2 3.2-4.1 6.4-4.2 3.2 0 5.6 2.1 6.4 4.2 1 2.4 6.6 4.9 15.1 1.4 4.8-2 8.2-9.9 8.2-12.5 0-.3.1-2.2.9-2.6 3.3-2 6.4-5.2 7.3-8.7 1.7-6.3-1.2-9-1.7-9.5zm-7-16.3c.6 0 1.1.5 1.1 1.1v9.7c0 .6-.6 1.1-1.2 1.1 0 0-.7-7.8-.8-12h.9zm-51-23C27.3 7.5 33.9 5.8 45 5.8s17.7 1.7 21.9 5.9c3.3 3.3 4.4 7.5 4.8 12.4-.7.9-.6 4.6-.6 4.6H18.9s.1-3.7-.6-4.6c.4-5 1.5-9.2 4.8-12.5zm42.1 28.1c-.7 0-1.5-.1-2.3-.2 1.1-.8 3.9-3.2 3.8-6.7.4 0 .8 0 1.2-.1.2 3.4-1.6 5.8-2.7 7zm-38.1-.2c-.8.2-1.6.3-2.3.2-1.1-1.2-2.9-3.6-2.6-7 .4 0 .8 0 1.2.1-.2 3.5 2.6 5.9 3.7 6.7zM17.2 51c.4-2.8.8-5.1 1.1-8 .2.4.5.9.8 1.4-1.2 4.6 2.6 8.6 2.6 8.6s2.8-4.2 5.5-5c4.8-1.3 8.4-6.1 8.7-7.1-2.9 2-9.9 5.8-12.4 5.7-1.1 0-4.6-5.5-4.7-6.8-.1-2.5-.1-4.2 0-7.2.4 0 1 .1 1.5.1 0 .4-.1.7-.1 1.1 0 4.3 2.7 7.5 3.9 7.6 5.6.6 13.5-4.8 17.1-8.1h7.4c3.5 3.3 11.5 8.6 17.1 8.1 1.2-.1 3.9-3.3 3.9-7.6 0-.4 0-.7-.1-1.1.5 0 1.1-.1 1.5-.1.1 3 .2 4.8 0 7.2-.1 1.3-3.6 6.7-4.7 6.8-2.5.1-9.5-3.6-12.4-5.7.3 1 3.9 5.8 8.7 7.1 2.8.8 5.5 5 5.5 5s3.8-4 2.6-8.6c.3-.5.5-1 .8-1.4.3 3 .7 5.3 1.1 8 .6 3.4-3.7 8.9-5.9 11.2-.5-.2-4.3-1.2-5.7-2-5.8-3.2-13.6-12.1-16-12.1-2.4 0-10.2 8.9-16.2 12.1-1.4.9-5.1 1.8-5.7 2-2.2-2.3-6.5-7.8-5.9-11.2zm-2.5-15.3c0-.6.5-1.1 1.1-1.1h.8c-.1 4.2-.8 12-.8 12-.6 0-1.2-.5-1.2-1.1v-9.8zM13 65.5c-2.2-1.7-4.4-4.7-4-10.1.2-2.3 3.2-4.9 6.5-6.6-2.2 6.4 3.8 12.6 5.5 14.5-2.1 1.4-5.2 4.3-8 2.2zm20.1 15.1c-2.2 2.1-6.6-1.3-7.2-1.9-.5-.6-1.6-2.6.1-4.3 1.7-1.7 4-.7 4.5-.5.8.3 4.8 4.5 2.6 6.7zm31-1.9c-.5.6-4.9 4.1-7.2 1.9-2.3-2.2 1.8-6.4 2.5-6.7.5-.2 2.8-1.2 4.5.5 1.8 1.7.7 3.7.2 4.3zm3.6 2.6c.6-1.8 1.2-4.1.4-6.1-.6-1.6-2-2.7-4-3.2-6.6-1.7-12.7 4.7-13.4 4.5V69c0-.6-.5-1.1-1.1-1.1-.6 0-1.1.5-1.1 1.1v-1.7c0-.6-.5-1.1-1.1-1.1-.6 0-1.1.5-1.1 1.1v-1c0-.6-.5-1.1-1.1-1.1-.6 0-1.1.5-1.1 1.1v1c0-.6-.5-1.1-1.1-1.1-.6 0-1.1.5-1.1 1.1V69c0-.6-.5-1.1-1.1-1.1-.6 0-1.1.5-1.1 1.1v7.5c-.8.1-6.8-6.2-13.4-4.5-2 .5-3.4 1.6-4 3.2-.8 2-.3 4.3.4 6.1-2.7-2.3-4.8-8.2-4.8-9.3 0-1.3 1.9-6.8 7.8-8 3.3-.7 6.4-2.7 9.3-4.6 3.5-2.3 6.9-4.4 10.4-4.4s6.8 2.2 10.4 4.4c3 1.9 6 3.9 9.3 4.6 5.8 1.3 7.8 6.7 7.8 8-.4 1.1-2.5 7-5.2 9.3zM77 65.5c-2.8 2.1-5.9-.8-8-2.2 1.7-1.9 7.7-8.1 5.5-14.5 3.3 1.7 6.3 4.2 6.5 6.6.4 5.4-1.8 8.3-4 10.1z"/><path d="M49.2 39s-2.1-2.1-4.2-2.1-4.2 2.1-4.2 2.1 2.5-.8 4.2-.8c1.7 0 4.2.8 4.2.8z"/><circle cx="58.5" cy="79.1" r="1.2"/></svg>
