<svg xmlns="http://www.w3.org/2000/svg" viewBox="0 0 242 60" width="242pt" height="80"><path class="fill-foreground" d="M20.12 1.86c5.5 1.22 7.91 5.28 10.54 9.78 3.02-4.88 6.17-9.2 12.3-10.01 4.64-.53 8.1 1.63 11.35 4.63-3.56 4.22-7.63 7.86-12.45 10.6-12.3 7.01-25.47 9.17-39.37 10.39-1.05-4.43-1.85-8.6-.32-13.05C4.51 6.66 11.83.2 20.12 1.86z" fill="#ffcb06"/><path fill="#fff" class="fill-foreground" d="M85.33 4.34c1.75-.25 3.56-.29 5.33-.37.2 3.14.31 6.3.54 9.44 3.21-.02 6.43-.03 9.64.01-.07 1.48-.13 2.96-.31 4.44-3.09.75-6.53.27-9.7.4.12 6.99-.03 13.98.06 20.97.21 2.32.02 4.52 2.19 5.99 2.57 1.68 6.35 1.32 9.3 1.53.03 1.61.05 3.22.08 4.83-3.79-.14-8.31.29-11.85-1.21-2.14-.86-3.44-2.41-5.06-3.97-.67-9.36-.19-18.8-.33-28.19-1.87.01-3.75.03-5.62.04-.09-1.54-.17-3.08-.24-4.62 1.96-.1 3.91-.19 5.87-.28-.01-2.99-.15-6.02.1-9.01zM187.48 4.16c1.94-.13 3.84-.02 5.78.06-.04 3.06-.05 6.13-.06 9.19 3.23-.03 6.45-.03 9.68.02-.03 1.58-.07 3.17-.13 4.75-3.19.07-6.38.04-9.57.02.1 7.29 0 14.58.03 21.88.12 1.56-.14 3.14 1.1 4.31 2.68 2.62 6.79 2.15 10.22 2.34 0 1.62-.01 3.24-.01 4.87-3.21-.06-6.43-.19-9.64-.3-1.82-.87-3.92-1.62-5.49-2.91-2.07-2.2-2.02-5.49-2.08-8.32.02-7.27-.01-14.54.04-21.81-1.89 0-3.77 0-5.66.02-.09-1.55-.18-3.1-.26-4.66 1.96-.08 3.91-.16 5.87-.25.04-3.06-.08-6.15.18-9.21z"/><path d="M57.31 9.75c1.69 3.66 2.84 7.2 2.54 11.29-.01 7.63-5.03 13.59-10.45 18.36-6.94 5.94-14.07 10.27-18.77 18.46-4.35-8.14-11.38-12.4-18.19-18.16 8.75-1.55 17.1-3.96 24.79-8.51 7.55-4.66 14.11-10.61 18.39-18.47.56-.99 1.13-1.98 1.69-2.97z" class="fill-foreground" fill="#ffcb06"/><path fill="#fff" class="fill-foreground" d="M124.98 12.55c3.69.03 7.45.63 10.44 2.92 2.15 1.67 2.78 4.78 2.82 7.35.05 9.58-.09 19.15.05 28.73-1.89-.02-3.78-.04-5.67-.07.04-1.17.08-2.34.13-3.52-4.94 2.96-9.86 5.13-15.75 4.07-2.85-.69-5.97-2.12-7.06-5.05-1.19-3.37-.97-7.36-.43-10.83.64-3.81 4.78-5.95 8.28-6.34 4.93-.24 9.9-.04 14.84-.09-.04-3.67.11-7.19-1.14-10.7-4.43-1.93-9.79-2.5-14.21-.26-2.33 1.47-1.73 4.12-2.15 6.53h-5.53c.3-3.59.08-7.35 3.12-9.87 3.27-2.55 8.27-3.01 12.26-2.87zM161.99 12.55c4.04-.12 8.82.65 11.76 3.67 2.37 2.54 1.77 5.45 1.94 8.64-1.66.03-3.33.04-4.99.05-.49-2.66.19-5.37-2.63-6.82-3.1-1.38-7.32-1.05-10.64-.58-4.79.57-5.2 8.13-.93 9.63 4.89 1.97 10.18 3.02 15.02 5.11 2.01.85 3.41 2.77 4.82 4.37-.04 2.94-.03 5.88.04 8.82-2.9 5.54-8.57 6.77-14.39 6.83-5.79-.21-11.6-.95-14.32-6.78.02-1.9.03-3.79.04-5.68 1.78.09 3.56.2 5.34.31.47 2.64-.53 4.92 2.34 6.27 4.74 2.2 11.33 1.91 15.43-1.59-.04-2.14.07-4.38-.35-6.48-3.76-2.86-9.17-3.76-13.61-5.2-3.49-1.34-7.42-2.85-8.22-6.98-.3-3.16-.75-7.28 1.63-9.75 2.8-3.3 7.68-3.78 11.72-3.84zM230.23 12.76c3.94.67 8.13 2.1 9.24 6.41.83 4.65.4 9.58.37 14.29-7.69-.08-15.39-.07-23.07.03.07 3.66.31 7.32.47 10.98 4.27 4.37 11.4 3.55 16.45 1.08.46-2.07.83-4.16 1.14-6.26 1.71 0 3.41.01 5.12.04-.17 3.93.31 7.67-3.32 10.24-5.09 3.36-12.65 3.19-18.36 1.79-2.95-.69-4.69-2.66-6.64-4.79-.51-6.55-.24-13-.33-19.56.02-2.48-.11-5.12.38-7.55.49-2.38 2.32-4.2 4.48-5.2 4.26-2.04 9.46-1.86 14.07-1.5z"/><path d="M233.21 19.25c1.85 2.6 1.22 6.43 1.4 9.52-5.97 0-11.94.06-17.92-.06.44-2.83-.47-8.45 2.57-10.06 3.87-2.03 10.35-1.99 13.95.6zM119.25 34.49c4.43-.2 8.89-.02 13.32-.05-.01 2.97-.04 5.93-.05 8.9-5.56 3.38-11.12 5.83-17.27 2.14-.47-2.77-1.19-5.63-.02-8.34.43-1.64 2.51-2.44 4.02-2.65z" class="fill-background" fill="#12171f"/></svg>
