<?xml version="1.0" standalone="no"?>
<!DOCTYPE svg PUBLIC "-//W3C//DTD SVG 1.1//EN" "http://www.w3.org/Graphics/SVG/1.1/DTD/svg11.dtd" >
<svg xmlns="http://www.w3.org/2000/svg" xmlns:xlink="http://www.w3.org/1999/xlink" version="1.1">
<metadata>
Created by FontForge 20170731 at Thu Sep  2 18:54:25 2021
 By Aleksey,,,
Copyright (c) 2021 Basement Studio. All rights reserved.
</metadata>
<defs>
<font id="BasementGrotesque-Black" horiz-adv-x="0" >
  <font-face 
    font-family="Basement Grotesque Roman"
    font-weight="800"
    font-stretch="normal"
    units-per-em="2048"
    panose-1="0 0 0 0 0 0 0 0 0 0"
    ascent="1638"
    descent="-410"
    x-height="1229"
    cap-height="1597"
    bbox="-164 -436 11934 2050"
    underline-thickness="102"
    underline-position="-358"
    unicode-range="U+0020-FB02"
  />
<missing-glyph horiz-adv-x="1024" 
d="M840 1638v-2048h-650v2048h650zM342 -268h340v67h-209l143 97h66v67h-340v-67h143l-143 -97v-67zM342 10h340v232h-340v-232zM342 365h340v231h-205v-115h70v47h67v-96h-204v164h-68v-231zM342 641h340v205h-68v-135h-272v-70zM342 758h205v143h135v68h-340v-68h135v-76
h-135v-67zM342 1024h340v70h-135v143h-205v-213zM342 1290h340v68h-135v76h135v67h-338v-67h133v-76h-135v-68zM410 78v96h204v-96h-204zM410 1094v73h67v-73h-67z" />
    <glyph glyph-name="fi" unicode="fi" horiz-adv-x="1495" 
d="M993 1229h389v-1229h-389v1229zM61 901v328h123q0 127 21 203t79 124t149 65t243 17h717v-286h-699q-82 0 -101.5 -18t-19.5 -93v-12h267v-328h-267v-901h-389v901h-123z" />
    <glyph glyph-name="fl" unicode="fl" horiz-adv-x="1595" 
d="M1534 348v-348h-223q-102 0 -163.5 14.5t-100 54t-52 101.5t-12.5 166v1016h-289q-82 0 -101.5 -18t-19.5 -93v-12h267v-328h-267v-901h-389v901h-123v328h123q0 127 21 203t79 124t149 65t243 17h696v-1185q0 -38 4 -56.5t23 -31t48 -15t87 -2.5z" />
    <glyph glyph-name="b_a_s_e_m_e_n_t.liga" unicode="basement" horiz-adv-x="12056" 
d="M514 1008q33 139 126 191t284 52q96 0 160.5 -8.5t117.5 -32.5t83.5 -61t51 -101t28 -145.5t7.5 -200.5v-178q0 -88 -4 -155t-15.5 -123.5t-28 -96t-44 -71t-61 -50.5t-82 -31.5t-104 -17t-130.5 -4.5q-340 0 -399 320v-295h-381v1638h391v-630zM516 432
q18 -119 221 -119q140 0 182 42t42 177v158q0 138 -42 180.5t-182 42.5q-105 0 -159.5 -40t-61.5 -123v-318zM1503 354q0 83 7 138t27.5 99t51.5 69t86.5 41.5t124.5 22t172 5.5l389 2v70q0 106 -37.5 136t-166.5 30q-145 0 -186 -30t-38 -136h-389v49q0 89 8.5 147.5
t33.5 106t62.5 74t105 44t151 23.5t209.5 6h94q89 0 154.5 -3.5t122.5 -13t95.5 -23.5t69.5 -38t49 -54t30 -75t16.5 -96t4.5 -121v-827h-389v217q-77 -239 -383 -242q-105 -3 -175 0.5t-126 19t-87.5 40.5t-52 71t-27.5 103.5t-7 144.5zM1913 350q0 -62 35 -80t155 -18h21
q129 3 183 34t54 103v53l-321 -2q-80 0 -103.5 -16.5t-23.5 -73.5zM2882 383v27h368v-27q0 -71 50 -96t192 -25q132 0 177.5 19t45.5 75q0 39 -47 65t-176 50q-1 0 -69 12.5t-106.5 20.5t-100.5 24.5t-105 32.5q-122 48 -166.5 121t-44.5 201q0 61 4.5 106t17 83.5t31 64.5
t51 47t71.5 33t97.5 20t125 11t157.5 3h94q120 0 199.5 -6t144 -24t100 -45t59.5 -76t32 -109.5t8 -152.5v-37h-389v37q0 75 -41.5 102t-159.5 27q-114 0 -153 -20t-39 -77q0 -39 36 -60t134 -36q228 -37 401 -88q139 -41 190.5 -124.5t51.5 -233.5q0 -58 -5 -100
t-18.5 -79.5t-33.5 -62t-55 -45t-78.5 -32.5t-107.5 -20t-138 -11t-175 -3h-94q-118 0 -197 6t-142 24t-98.5 45t-59 75.5t-31.5 108t-8 149.5zM4241 612q0 142 8.5 236t35 169.5t65.5 117.5t110 70t158 37t219 9h95q99 0 171.5 -4.5t135.5 -17.5t105.5 -32t77 -52t54.5 -74
t33.5 -101.5t18 -130.5t4.5 -165v-193h-881v-6q0 -70 8.5 -109t35.5 -64t70.5 -32.5t121.5 -7.5q98 0 144 10.5t63.5 36.5t17.5 80h409q0 -91 -8.5 -152t-34 -110t-64.5 -76t-108.5 -45.5t-156.5 -24.5t-217 -6h-95q-132 0 -219.5 9t-158 37t-109.5 70.5t-65.5 117.5
t-35 168.5t-8.5 234.5zM4651 770h471q-1 124 -45.5 160.5t-189.5 36.5q-78 0 -121.5 -7t-70.5 -29t-35.5 -57t-8.5 -98v-6zM5704 0v1227h389v-234q32 136 111.5 197t218.5 61q97 0 159.5 -7.5t108.5 -24.5t71 -50.5t38 -80t18 -119.5q33 145 126.5 213.5t250.5 68.5
q98 0 163.5 -6.5t118 -26.5t81.5 -50t48.5 -84t26 -121t6.5 -168l2 -795h-389v735q0 121 -33 156t-149 35q-197 0 -203 -203l2 -723h-387v735q0 120 -34.5 155.5t-151.5 35.5q-203 0 -203 -215v-711h-389zM7793 612q0 142 8.5 236t35 169.5t66 117.5t110.5 70t158.5 37
t219.5 9h94q98 0 170 -4.5t134.5 -17.5t105 -32t76.5 -52t54 -74t33.5 -101.5t18 -130.5t4.5 -165v-193h-881v-6q0 -70 8.5 -109t36 -64t71.5 -32.5t124 -7.5q140 0 181.5 24t41.5 103h408q0 -91 -8.5 -152t-34 -110t-64.5 -76t-108 -45.5t-155.5 -24.5t-215.5 -6h-94
q-99 0 -171 5t-135 19.5t-105 35.5t-76.5 57.5t-54.5 81.5t-33.5 112t-18 144t-4.5 182zM8200 770h473q-1 124 -45.5 160.5t-187.5 36.5q-80 0 -124 -7t-71.5 -29t-36 -57t-8.5 -98v-6zM9251 0v1227h389v-248q35 147 127 209.5t264 62.5q93 0 155.5 -6.5t112.5 -26.5t78 -50
t47 -84t25 -121t6 -168l2 -795h-389v702q0 141 -39 182.5t-174 41.5q-212 0 -215 -195v-731h-389zM10557 901v326h142v264h368v-264h351v-326h-351v-430q0 -77 27 -100t117 -23h225v-348h-266q-108 0 -180 6t-130 24t-91 45.5t-54.5 76t-29 109.5t-7.5 151v489h-121z
M11583 0v348h351v-348h-351z" />
    <glyph glyph-name="f_f.liga" unicode="ff" horiz-adv-x="1730" 
d="M694 1352q-82 0 -101.5 -18t-19.5 -93v-12h390q0 84 9 144t32 107.5t57.5 76.5t91.5 47.5t128.5 26t172.5 7.5h266v-286h-247q-82 0 -101.5 -18t-19.5 -93v-12h327v-328h-327v-901h-389v901h-390v-901h-389v901h-123v328h123q0 127 21 203t79 124t149 65t243 17h205v-286
h-187z" />
    <glyph glyph-name="f_f_f.liga" unicode="fff" horiz-adv-x="2570" 
d="M2312 1352q-82 0 -101.5 -18t-19.5 -93v-12h328v-328h-328v-901h-389v901h-389v-901h-389v901h-451v-901h-389v901h-123v328h123q0 127 21 203t79 124t149 65t243 17h205v-286h-187q-82 0 -101.5 -18t-19.5 -93v-12h451q0 127 21 203t79 124t149 65t243 17h204v-286h-186
q-82 0 -101.5 -18t-19.5 -93v-12h389q0 127 21 203t79 124t149 65t243 17h266v-286h-248z" />
    <glyph glyph-name="f_f_i.liga" unicode="ffi" horiz-adv-x="2334" 
d="M694 1352q-82 0 -101.5 -18t-19.5 -93v-12h451q0 127 21 203t79 124t149 65t243 17h716v-286h-698q-82 0 -101.5 -18t-19.5 -93v-12h266v-328h-266v-901h-389v901h-451v-901h-389v901h-123v328h123q0 127 21 203t79 124t149 65t243 17h205v-286h-187zM1833 0v1229h389
v-1229h-389z" />
    <glyph glyph-name="f_j.liga" unicode="fj" horiz-adv-x="1495" 
d="M694 1352q-82 0 -101.5 -18t-19.5 -93v-12h267v-328h-267v-901h-389v901h-123v328h123q0 127 21 203t79 124t149 65t243 17h717v-286h-699zM852 -410v349q89 0 115 23t26 101v1166h389v-1225q0 -86 -9 -146.5t-31.5 -108t-57 -77t-91 -48.5t-128 -26.5t-172.5 -7.5h-41z
" />
    <glyph glyph-name="f_t.liga" unicode="ft" horiz-adv-x="1863" 
d="M1761 348v-348h-245q-122 0 -202.5 11.5t-139.5 38t-90.5 76t-45.5 117.5t-14 171v487h-451v-901h-389v901h-123v328h123q0 127 21 203t79 124t149 65t243 17h205v-286h-187q-82 0 -101.5 -18t-19.5 -93v-12h471v262h369v-262h328v-328h-328v-387q0 -61 3.5 -90t20 -48.5
t41.5 -23.5t76 -4h207z" />
    <glyph glyph-name="t_t.liga" unicode="tt" horiz-adv-x="1884" 
d="M860 348v-348h-164q-101 0 -173 7.5t-128.5 26.5t-91.5 48.5t-57.5 77t-31.5 108t-9 146.5v487h-123v328h143v262h369v-262h471v262h369v-262h327v-328h-327v-387q0 -61 3.5 -90t20 -48.5t41.5 -23.5t76 -4h207v-348h-246q-122 0 -202.5 11.5t-139.5 38t-90.5 76
t-45.5 117.5t-14 171v487h-450v-387q0 -61 3.5 -90t20 -48.5t41.5 -23.5t76 -4h125z" />
    <glyph glyph-name="t_t_y.liga" unicode="tty" horiz-adv-x="3043" 
d="M860 348v-348h-164q-101 0 -173 7.5t-128.5 26.5t-91.5 48.5t-57.5 77t-31.5 108t-9 146.5v487h-123v328h143v262h369v-262h471v262h369v-262h723l247 -910h13l235 910h381l-356 -1325q-21 -77 -47 -129t-63 -89.5t-92.5 -57.5t-125.5 -29t-172 -9h-281v328h232
q117 0 149.5 14t49.5 74l10 35h-246l-246 860h-411v-387q0 -61 3.5 -90t20 -48.5t41.5 -23.5t76 -4h125v-348h-164q-122 0 -202.5 11.5t-139.5 38t-90.5 76t-45.5 117.5t-14 171v487h-450v-387q0 -61 3.5 -90t20 -48.5t41.5 -23.5t76 -4h125z" />
    <glyph glyph-name="t_y.liga" unicode="ty" horiz-adv-x="2203" 
d="M860 348v-348h-164q-101 0 -173 7.5t-128.5 26.5t-91.5 48.5t-57.5 77t-31.5 108t-9 146.5v487h-123v328h143v262h369v-262h723l248 -910h12l235 910h381l-356 -1325q-21 -77 -47 -129t-63 -89.5t-92.5 -57.5t-125.5 -29t-172 -9h-280v328h231q117 0 149.5 14t49.5 74
l10 35h-246l-245 860h-412v-387q0 -61 3.5 -90t20 -48.5t41.5 -23.5t76 -4h125z" />
    <glyph glyph-name="w_w_w.liga" unicode="www" horiz-adv-x="5801" 
d="M1333 1229l150 -881h12l174 881h602l178 -881h13l125 881h630l150 -881h12l174 881h602l179 -881h12l125 881h631l149 -881h12l174 881h355l-242 -1229h-614l-150 881h-12l-127 -881h-619l-178 881h-12l-172 -881h-614l-150 881h-12l-127 -881h-619l-178 881h-12
l-172 -881h-615l-149 881h-12l-127 -881h-621l-248 1229h377l178 -881h13l124 881h631z" />
    <glyph glyph-name=".notdef" horiz-adv-x="1024" 
d="M840 1638v-2048h-650v2048h650zM342 -268h340v67h-209l143 97h66v67h-340v-67h143l-143 -97v-67zM342 10h340v232h-340v-232zM342 365h340v231h-205v-115h70v47h67v-96h-204v164h-68v-231zM342 641h340v205h-68v-135h-272v-70zM342 758h205v143h135v68h-340v-68h135v-76
h-135v-67zM342 1024h340v70h-135v143h-205v-213zM342 1290h340v68h-135v76h135v67h-338v-67h133v-76h-135v-68zM410 78v96h204v-96h-204zM410 1094v73h67v-73h-67z" />
    <glyph glyph-name=".null" 
 />
    <glyph glyph-name="nonmarkingreturn" horiz-adv-x="682" 
 />
    <glyph glyph-name="space" unicode=" " horiz-adv-x="614" 
 />
    <glyph glyph-name="exclam" unicode="!" horiz-adv-x="716" 
d="M123 389h471v-389h-471v389zM133 1638h451l-23 -528l-39 -537h-327l-43 527z" />
    <glyph glyph-name="quotedbl" unicode="&#x22;" horiz-adv-x="1249" 
d="M225 1640l-102 -575h246l266 575h-410zM614 1065h246l266 575h-409z" />
    <glyph glyph-name="numbersign" unicode="#" horiz-adv-x="1966" 
d="M324 0l82 348h-283l61 287h289l78 328h-285l62 286h290l82 348h287l-82 -348h328l82 348h287l-82 -348h323l-61 -286h-330l-78 -328h326l-62 -287h-331l-82 -348h-287l82 348h-328l-82 -348h-286zM760 635h327l78 328h-327z" />
    <glyph glyph-name="dollar" unicode="$" horiz-adv-x="1374" 
d="M451 532q0 -40 2.5 -63.5t12 -43.5t23 -29.5t42 -16.5t62 -8.5t89.5 -1.5q79 0 118.5 3t65 16t31.5 33.5t6 61.5q0 56 -44.5 85t-176.5 53q-1 0 -69 12.5t-106.5 20.5t-100.5 24.5t-105 32.5q-121 46 -166 118t-45 201q0 89 14 150.5t45.5 107.5t88.5 72.5t136 40.5
t195 18v244h287v-248q127 -9 208 -34.5t130 -77.5t68.5 -127t19.5 -191v-37h-389v37q0 41 -2 66t-11 46t-20.5 31t-36.5 17t-54 8.5t-77 1.5q-70 0 -103.5 -2.5t-56 -15t-27.5 -32t-5 -58.5q0 -57 39.5 -83t130.5 -42q231 -38 399 -88q141 -41 192.5 -124.5t51.5 -234.5
q0 -101 -20.5 -165.5t-74 -109t-140 -66t-222.5 -28.5v-286h-287v284q-203 6 -311 47.5t-152.5 129.5t-44.5 251v27h390v-27z" />
    <glyph glyph-name="percent" unicode="%" horiz-adv-x="1976" 
d="M371 0l958 1597h287l-959 -1597h-286zM61 1210q0 85 7 144.5t26 107t47.5 76.5t74.5 48t104.5 26.5t140.5 7.5t140.5 -7.5t104.5 -26.5t74.5 -48t47 -76.5t25.5 -107t7 -144.5t-7 -144.5t-25.5 -107t-47 -76.5t-74.5 -47.5t-104.5 -26t-140.5 -7.5q-124 0 -198 17
t-121 65t-64 124t-17 203zM301 1210q0 -52 1.5 -83t8.5 -57.5t16 -39t29 -21t43 -10.5t62 -2t62 2t43 10.5t29 21t16 39t8.5 57.5t1.5 83t-1.5 83t-8.5 57.5t-16 39t-29 21t-43 10.5t-62 2t-62 -2t-43 -10.5t-29 -21t-16 -39t-8.5 -57.5t-1.5 -83zM1116 385q0 85 7 144.5
t26 107t47.5 76.5t74.5 48t104.5 26.5t140.5 7.5t140.5 -7.5t104.5 -26.5t74.5 -48t47 -76.5t25.5 -107t7 -144.5t-7 -144.5t-25.5 -107t-47 -76.5t-74.5 -48t-104.5 -26.5t-140.5 -7.5t-140.5 7.5t-104.5 26.5t-74.5 48t-47.5 76.5t-26 107t-7 144.5zM1356 385
q0 -52 1.5 -83t8.5 -57.5t16 -39t29 -21t43 -10.5t62 -2t62 2t42.5 10.5t29 21t16 39t8 57.5t1.5 83t-1.5 83t-8 57.5t-16 39t-29 21t-42.5 10.5t-62 2t-62 -2t-43 -10.5t-29 -21t-16 -39t-8.5 -57.5t-1.5 -83z" />
    <glyph glyph-name="ampersand" unicode="&#x26;" horiz-adv-x="1669" 
d="M1587 348v-348h-102q-288 0 -402 225q-51 -128 -157.5 -189t-274.5 -61q-165 0 -268.5 18.5t-174 68.5t-98.5 132.5t-28 213.5q0 199 73 301t232 122q-127 20 -185.5 104t-58.5 243q0 92 11 157t40 116t73 82.5t116 52t162.5 28.5t218.5 8q155 0 257 -11.5t176.5 -37
t114 -73.5t57 -114.5t17.5 -166.5h-430q0 36 -13 50.5t-50 19.5t-129 5q-47 0 -74.5 -1.5t-51 -7.5t-34.5 -14t-19 -26t-10 -39.5t-2 -56.5q0 -82 30.5 -115t98.5 -39h250v82h410v-82h166v-305h-148v-178q1 -48 4 -74t10.5 -46.5t25 -28.5t40.5 -11.5t64 -3.5h63zM532 506
q0 -43 3 -70.5t13.5 -49.5t24.5 -33t43 -18t61.5 -9t86.5 -2q98 0 143 43.5t45 138.5v182h-250q-93 0 -131.5 -38.5t-38.5 -143.5z" />
    <glyph glyph-name="quotesingle" unicode="'" horiz-adv-x="757" 
d="M225 1640l-102 -575h246l266 575h-410z" />
    <glyph glyph-name="parenleft" unicode="(" horiz-adv-x="835" 
d="M713 -434q-310 0 -450 249t-140 799t140 799.5t450 249.5v-184q-38 0 -65 -3t-53 -13t-43 -23.5t-33 -41.5t-25.5 -59.5t-18 -84.5t-12.5 -109.5t-7 -142t-4 -174.5t-1 -214q0 -157 1.5 -261.5t6.5 -201t12.5 -153.5t22.5 -107t32 -73.5t46.5 -41t61 -22t79.5 -4.5v-184z
" />
    <glyph glyph-name="parenright" unicode=")" horiz-adv-x="835" 
d="M123 -250q48 0 79.5 4.5t61 22t46.5 41t32 73.5t22.5 107t12.5 153.5t6.5 201t1.5 261.5q0 125 -1 214t-4 174.5t-7 142t-12.5 109.5t-18 84.5t-25.5 59.5t-33 41.5t-43 23.5t-53 13t-65 3v184q310 0 450 -249.5t140 -799.5t-140 -799t-450 -249v184z" />
    <glyph glyph-name="asterisk" unicode="*" horiz-adv-x="1052" 
d="M606 1417l180 160l144 -223l-244 -62l244 -61l-144 -223l-180 159l64 -221h-287l63 221l-182 -159l-141 223l244 61l-244 62l141 223l182 -160l-63 221h287z" />
    <glyph glyph-name="plus" unicode="+" horiz-adv-x="1447" 
d="M123 815h428v428h348v-428h426v-348h-426v-426h-348v426h-428v348z" />
    <glyph glyph-name="comma" unicode="," horiz-adv-x="716" 
d="M123 389h471v-250q0 -198 -68 -267t-262 -69h-139v115q160 0 215.5 16t62.5 66h-280v389z" />
    <glyph glyph-name="hyphen" unicode="-" horiz-adv-x="1064" 
d="M123 815h819v-348h-819v348z" />
    <glyph glyph-name="period" unicode="." horiz-adv-x="716" 
d="M123 389h471v-389h-471v389z" />
    <glyph glyph-name="slash" unicode="/" horiz-adv-x="1146" 
d="M123 -410l655 2048h246l-655 -2048h-246z" />
    <glyph glyph-name="zero" unicode="0" horiz-adv-x="1531" 
d="M766 1294q-46 0 -77 -2.5t-59.5 -12.5t-45 -23.5t-31 -42t-21.5 -61t-12 -88.5t-6.5 -115.5t-1.5 -149.5q0 -80 1.5 -135t4 -107t9.5 -85t15.5 -63t23.5 -46.5t32 -30t44 -19t55 -8t69 -2.5t69 2.5t55 8t44 19t32 30t23.5 46.5t15.5 63t9.5 85t4 107t1.5 135
q0 90 -1.5 149.5t-6.5 115.5t-12 88.5t-21.5 61t-31 42t-45 23.5t-59.5 12.5t-77 2.5zM61 799q0 170 12.5 290.5t45.5 215.5t83 153t131.5 96.5t184.5 53t248 14.5t248 -14.5t184.5 -53t131 -96.5t82.5 -153t45.5 -215.5t12.5 -290.5t-12.5 -290.5t-45 -215.5t-82.5 -153.5
t-131.5 -96.5t-184.5 -53t-248 -15t-248 15t-184.5 53t-131.5 96.5t-83 153.5t-45.5 215.5t-12.5 290.5z" />
    <glyph glyph-name="one" unicode="1" horiz-adv-x="942" 
d="M451 0v1063h-390v287h187q71 0 111 9t67 36.5t36 74t9 127.5h369v-1597h-389z" />
    <glyph glyph-name="two" unicode="2" horiz-adv-x="1480" 
d="M1399 0h-1325v287l706 596q101 84 134.5 135t33.5 117q0 40 -4.5 62t-16 39.5t-39.5 24.5t-66 10t-105 3q-49 0 -79 -2t-55.5 -11t-37.5 -21t-20.5 -37.5t-10.5 -55t-2 -78.5h-451q0 113 13 194.5t45 145t79.5 103t123.5 65t170.5 35.5t226.5 10q137 0 233.5 -7.5
t172 -26.5t121.5 -48t75 -76.5t38.5 -107t6.5 -144.5q-1 -32 -1 -79t-0.5 -70.5t-3 -59t-8 -55.5t-15.5 -48.5t-25.5 -50t-38 -47t-53.5 -52.5l-445 -381h623v-369z" />
    <glyph glyph-name="three" unicode="3" horiz-adv-x="1585" 
d="M758 303q138 0 202 14t88.5 49.5t24.5 112.5q0 57 -11 88.5t-47.5 51.5t-94 26t-162.5 6h-248v328h260q91 0 141 5.5t82 24t41.5 48t9.5 82.5q0 41 -7 66.5t-22.5 44.5t-48.5 27.5t-78 12.5t-118 4q-174 0 -222 -22.5t-48 -110.5h-389q0 95 11.5 162.5t42 121t77.5 86
t123 54t172.5 29.5t232.5 8q137 0 234 -7.5t173.5 -27.5t123.5 -50.5t78 -80.5t43 -112.5t12 -151.5q0 -174 -56.5 -264.5t-179.5 -112.5q148 -20 216.5 -116.5t68.5 -284.5q0 -90 -13 -154t-46 -115t-83.5 -82t-133 -51.5t-186.5 -28.5t-251 -8q-142 0 -242.5 9t-180 31.5
t-128.5 57.5t-80.5 92t-44 129t-12.5 173h410q0 -48 5.5 -74t18.5 -46.5t45.5 -28.5t75.5 -11.5t121 -3.5z" />
    <glyph glyph-name="four" unicode="4" horiz-adv-x="1511" 
d="M881 0v281h-871v254l10 6l936 1079h62v2h252v-993h180v-348h-180v-281h-389zM463 629h418v483z" />
    <glyph glyph-name="five" unicode="5" horiz-adv-x="1595" 
d="M1372 1597v-348h-807l-22 -317q35 88 137 128t287 40q109 0 186 -10t137.5 -36t98 -66t61.5 -104.5t33.5 -146t9.5 -196.5q0 -117 -12 -199.5t-43.5 -148t-79.5 -105.5t-126.5 -66.5t-177.5 -36.5t-239 -10q-150 0 -257 9t-191.5 32.5t-137 59t-86.5 93.5t-47.5 131.5
t-13.5 176.5h450q-2 -22 -2 -38t2.5 -31t6 -25.5t12 -19.5t18 -14.5t26.5 -10.5t35 -7.5t45.5 -4t55.5 -2t68 -0.5q59 0 94.5 2t65.5 10.5t44 20.5t24 37.5t12.5 55.5t2.5 80v2q0 59 -2.5 94.5t-13.5 65.5t-26.5 44.5t-49 24.5t-72.5 12.5t-104 2.5q-140 0 -193 -26.5
t-75 -108.5h-375l70 956h1171z" />
    <glyph glyph-name="six" unicode="6" horiz-adv-x="1525" 
d="M1464 551q0 -119 -12.5 -203t-44.5 -150.5t-81.5 -107.5t-129.5 -67.5t-181.5 -37t-244.5 -10.5q-146 0 -249.5 14.5t-185.5 51t-132.5 93t-83.5 148.5t-45.5 208t-12.5 280q0 171 15.5 292t55.5 216.5t101.5 154t161.5 96.5t226 53t305 15h407v-348h-569q-63 0 -99.5 -7
t-66 -25.5t-43.5 -59t-21.5 -99.5t-9.5 -155q31 112 130.5 164.5t281.5 52.5q109 0 186 -10t138 -36.5t98.5 -67t62 -106t34 -149t9.5 -200.5zM524 547q0 -59 2.5 -94.5t12.5 -65.5t24.5 -44.5t45 -24.5t66 -12.5t95.5 -2.5q59 0 94.5 2.5t65.5 12.5t44.5 24.5t24.5 45
t12.5 66t2.5 95.5q0 57 -2.5 91t-12.5 63t-24 42t-44.5 23t-66 12t-94.5 2q-129 0 -187.5 -55.5t-58.5 -179.5z" />
    <glyph glyph-name="seven" unicode="7" horiz-adv-x="1366" 
d="M10 1597h1346v-286l-608 -1311h-474l578 1249l-494 2v-268h-348v614z" />
    <glyph glyph-name="eight" unicode="8" horiz-adv-x="1570" 
d="M786 995q67 0 104.5 3t66.5 10.5t41 26t17 43t5 67.5q0 54 -6.5 81t-34 44t-68.5 20.5t-125 3.5q-56 0 -89.5 -1.5t-62.5 -7.5t-42.5 -14.5t-23.5 -27t-12.5 -40.5t-2.5 -58t2.5 -58t12.5 -40.5t23.5 -27.5t42.5 -15t62.5 -7.5t89.5 -1.5zM61 420q0 194 79 292.5
t251 118.5q-118 23 -172.5 107t-54.5 240q0 110 18.5 183.5t59 126t115 81t176 41t253.5 12.5q126 0 216 -8t162.5 -28.5t117 -52t74 -82.5t41.5 -116.5t12 -156.5q0 -156 -54 -240t-171 -107q169 -20 247 -119t78 -292q0 -91 -13.5 -156.5t-48 -116.5t-86.5 -83
t-135.5 -52.5t-188 -28.5t-251.5 -8t-252 8t-189 28.5t-136 52.5t-86.5 83t-48 116.5t-13.5 156.5zM512 485q0 -44 3 -70.5t14.5 -49t27.5 -33t50 -18t73.5 -9.5t105.5 -2t105.5 2t73.5 9t50.5 18t28 33.5t14.5 49t3 70.5t-3 71t-14.5 49t-28 33t-50.5 18.5t-73.5 9.5
t-105.5 2t-105.5 -2t-73.5 -9.5t-50 -18t-27.5 -33t-14.5 -49.5t-3 -71z" />
    <glyph glyph-name="nine" unicode="9" horiz-adv-x="1513" 
d="M61 1059q0 116 12.5 198.5t45 147.5t81.5 105t129.5 66t182 36t244.5 10t244 -15t181 -53.5t129.5 -97.5t82 -155.5t45.5 -218.5t14 -294q0 -124 -7 -219.5t-24 -177t-42.5 -140.5t-66 -106t-91.5 -76.5t-122 -49t-154 -27.5t-191 -8q-133 0 -227.5 7.5t-169 27.5
t-120 50.5t-75.5 80.5t-41.5 112.5t-11.5 151.5h450q0 -32 2 -51t11.5 -35.5t22 -24t40 -13t59.5 -6.5t86 -1t86 1.5t59.5 8.5t40 16t22 29.5t11.5 44t2 63.5v293q-28 -99 -111 -145.5t-233 -46.5q-123 0 -210 9t-156 33t-111 60t-70 95.5t-38.5 134t-10.5 180.5zM512 1069
q0 -36 2.5 -59.5t7.5 -44t17.5 -31.5t28 -20t44.5 -12.5t61 -5t83 -1.5q129 0 187 43.5t58 138.5q0 53 -2.5 84.5t-12.5 58t-24 39.5t-44.5 22t-66 11t-95.5 2q-59 0 -94.5 -2t-65.5 -11.5t-44.5 -22.5t-24.5 -40.5t-12.5 -60t-2.5 -86.5v-2z" />
    <glyph glyph-name="colon" unicode=":" horiz-adv-x="716" 
d="M123 1208h471v-389h-471v389zM123 0v389h471v-389h-471z" />
    <glyph glyph-name="semicolon" unicode=";" horiz-adv-x="737" 
d="M123 1208h471v-389h-471v389zM143 0v389h471v-250q0 -198 -67.5 -267t-261.5 -69h-140v115q160 0 216 16t63 66h-281z" />
    <glyph glyph-name="less" unicode="&#x3c;" horiz-adv-x="942" 
d="M123 479v266l696 379v-266l-465 -237v-13l465 -241v-267z" />
    <glyph glyph-name="equal" unicode="=" horiz-adv-x="1447" 
d="M123 569h1202v-348h-1202v348zM123 774v348h1202v-348h-1202z" />
    <glyph glyph-name="greater" unicode="&#x3e;" horiz-adv-x="942" 
d="M819 479l-696 -379v267l465 241v13l-465 237v266l696 -379v-266z" />
    <glyph glyph-name="question" unicode="?" horiz-adv-x="1609" 
d="M539 389h471v-389h-471v389zM123 1085q0 107 11 182.5t40 135.5t73.5 97t117 61t164.5 33.5t221 9.5h94q133 0 226.5 -7t168 -25.5t120 -46.5t75.5 -73.5t41.5 -103t11.5 -138.5q0 -140 -25 -216t-84 -117.5t-176 -65.5q-54 -11 -86.5 -19.5t-60 -22.5t-40.5 -27.5
t-22.5 -39.5t-11.5 -54t-2 -75h-410q0 142 17.5 219.5t59.5 121.5t124 71q160 51 213 94.5t53 122.5q0 33 -5 51.5t-17 33t-41.5 20t-68.5 8t-109 2.5q-54 0 -86 -2.5t-59.5 -12t-40.5 -23t-22.5 -42t-11.5 -62.5t-2 -90h-450z" />
    <glyph glyph-name="at" unicode="@" horiz-adv-x="1714" 
d="M1001 1092h230v-549h96q72 1 88.5 34.5t11.5 170.5q-4 102 -9 170t-18 130.5t-28.5 99.5t-47 69.5t-66 48t-93.5 26.5t-122 14t-158 3q-106 0 -176.5 -3t-136.5 -15t-104.5 -27.5t-72.5 -49.5t-50 -72t-28 -103.5t-15 -135.5t-3 -176q0 -99 2.5 -164.5t12.5 -126
t23.5 -96.5t42 -67.5t61 -46t87.5 -25.5t114.5 -14t148.5 -3h354v-184h-354q-151 0 -257.5 13.5t-191 48t-136 87.5t-85.5 139.5t-47 196t-13 263.5t14.5 262.5t53 195t97 139t153.5 87t215.5 48t290.5 13.5q158 0 270.5 -13.5t201 -48t143 -87t90 -139t49.5 -195t14 -262.5
q0 -204 -79.5 -297t-254.5 -93h-309v189q-15 -105 -73 -153t-169 -48q-69 0 -115 11.5t-79.5 37t-51 73.5t-25.5 114t-8 166q0 148 23 223.5t78.5 106t165.5 30.5t168 -36t77 -116v136zM733 748q0 -72 3 -107t18.5 -58.5t39 -28.5t72.5 -5q70 0 102.5 21t32.5 65v153
q0 61 -32 89t-103 28q-49 0 -72.5 -4t-39 -22.5t-18.5 -46t-3 -84.5z" />
    <glyph glyph-name="A" unicode="A" horiz-adv-x="1771" 
d="M1249 1597l512 -1597h-491l-86 311h-615l-96 -311h-463l527 1597h712zM680 659h397l-190 590h-13z" />
    <glyph glyph-name="B" unicode="B" horiz-adv-x="1656" 
d="M102 1597h965q135 0 217.5 -17.5t137 -65.5t75.5 -126.5t21 -205.5q0 -170 -73 -261.5t-222 -113.5q180 -19 266 -113t86 -274q0 -86 -10 -148t-35 -110t-62 -78t-96 -49.5t-131.5 -27t-173.5 -7.5h-965v1597zM532 328h404q56 0 86.5 3.5t54 11t32.5 27t13 44.5t4 71
q0 85 -45 123.5t-145 38.5h-404v-319zM532 975h363q92 0 133 34t41 111q0 55 -4 81t-24.5 44t-51 21.5t-94.5 3.5h-363v-295z" />
    <glyph glyph-name="C" unicode="C" horiz-adv-x="1751" 
d="M1690 678q1 -145 -13 -247.5t-51 -183.5t-94.5 -131t-151.5 -83t-213.5 -45.5t-287.5 -12.5t-287.5 15t-214 53t-152.5 96.5t-96.5 153.5t-53 215.5t-14.5 290.5t14.5 290.5t53 215.5t96.5 153.5t152.5 96.5t214 52.5t287.5 14.5q126 0 223 -7t179.5 -24t142 -42.5
t107 -66t77 -91.5t49 -122t27 -154t6.5 -191h-451q1 85 -2 136t-17.5 94t-35.5 63.5t-66 35t-97.5 18t-141.5 3.5t-142.5 -4.5t-99 -24.5t-66.5 -47.5t-36.5 -86t-19 -127.5t-3.5 -185t3.5 -185t19 -127.5t36.5 -86t66.5 -47.5t99 -24.5t142.5 -4.5t141.5 3.5t97.5 18t66 35
t35.5 64.5t17.5 95.5t2 137.5h451z" />
    <glyph glyph-name="D" unicode="D" horiz-adv-x="1718" 
d="M532 1229l-2 -430l2 -430h351q59 0 98 2t75 11t57.5 20.5t40 36.5t27.5 53.5t15.5 76.5t8 100t1.5 130t-1.5 130t-8 100t-15.5 76.5t-27.5 53.5t-40 36.5t-57.5 20.5t-75 11t-98 2h-351zM102 0v1597h826q151 0 257.5 -14t190.5 -51t136 -93.5t85.5 -149t46.5 -209
t13 -281.5t-13 -281.5t-46.5 -209t-85.5 -149t-136 -93.5t-190.5 -51.5t-257.5 -14.5h-826z" />
    <glyph glyph-name="E" unicode="E" horiz-adv-x="1499" 
d="M102 1597h1311v-368h-881v-246h799v-348h-799v-266h885v-369h-1315v1597z" />
    <glyph glyph-name="F" unicode="F" horiz-adv-x="1495" 
d="M102 1597h1311v-368h-881v-287h799v-369h-799v-573h-430v1597z" />
    <glyph glyph-name="G" unicode="G" horiz-adv-x="1753" 
d="M905 856h766v-856h-389v256q-38 -145 -139 -213t-275 -68q-166 0 -284 15t-211.5 53t-150.5 96.5t-94.5 153.5t-52 215.5t-14.5 290.5t14.5 290.5t52 215.5t94.5 153t150.5 96.5t211.5 53t284 14.5q167 0 285 -10.5t211 -38t150 -70t94 -111t50.5 -155t12.5 -209.5h-450
q1 45 -0.5 74.5t-8 57t-16 43.5t-30 30.5t-44 21t-63.5 11.5t-83 6.5t-108 1.5t-108 -2.5t-83 -12t-63.5 -22.5t-44 -40.5t-30 -58.5t-16.5 -84.5t-9 -110.5t-2 -144t2 -144t9 -110.5t16.5 -84.5t30 -58.5t44 -40.5t63.5 -22.5t83 -12t108 -2.5q185 0 272 48.5t93 155.5
h-328v328z" />
    <glyph glyph-name="H" unicode="H" horiz-adv-x="1679" 
d="M102 0v1597h430v-598h615v598h430v-1597h-430v631h-615v-631h-430z" />
    <glyph glyph-name="I" unicode="I" horiz-adv-x="634" 
d="M102 0v1597h430v-1597h-430z" />
    <glyph glyph-name="J" unicode="J" horiz-adv-x="1396" 
d="M492 537q0 -51 2 -81t10 -56t19.5 -38.5t36 -21t53.5 -10.5t77 -2t76 2t52.5 10.5t35.5 20.5t19 38t10 56t2 80v1062h430v-1062q0 -115 -11 -196.5t-40 -146.5t-73.5 -104.5t-116.5 -66t-163.5 -36.5t-220.5 -10q-130 0 -222 10t-164.5 36t-117 66t-74 105t-40.5 147
t-11 198v163h431v-163z" />
    <glyph glyph-name="K" unicode="K" horiz-adv-x="1611" 
d="M102 0v1597h430v-778l531 778h498l-484 -704l525 -893h-476l-348 610l-246 -274v-336h-430z" />
    <glyph glyph-name="L" unicode="L" horiz-adv-x="1320" 
d="M102 1597h430v-1228h779v-369h-1209v1597z" />
    <glyph glyph-name="M" unicode="M" horiz-adv-x="2236" 
d="M532 0h-430v1597h779l239 -1187h17l241 1187h756v-1597h-430v1188h-12l-242 -1188h-666l-239 1188h-13v-1188z" />
    <glyph glyph-name="N" unicode="N" horiz-adv-x="1761" 
d="M102 0v1597h408l707 -872h12v872h430v-1597h-406l-708 870h-13v-870h-430z" />
    <glyph glyph-name="O" unicode="O" horiz-adv-x="1781" 
d="M891 1274q-69 0 -115 -2.5t-88.5 -12t-67 -22.5t-46.5 -40.5t-32.5 -58.5t-18 -84.5t-9.5 -110.5t-2 -144t2 -144t9.5 -110.5t18 -84.5t32.5 -58.5t46.5 -40.5t67 -22.5t88.5 -12t115 -2.5t115 2.5t88.5 12t67 22.5t46.5 40.5t32.5 58.5t18 84.5t9.5 110.5t2 144t-2 144
t-9.5 110.5t-18 84.5t-32.5 58.5t-46.5 40.5t-67 22.5t-88.5 12t-115 2.5zM61 799q0 170 15 290.5t53.5 215.5t97 153t154.5 96.5t217.5 53t292.5 14.5t292.5 -14.5t217 -53t154.5 -96.5t97 -153t53 -215.5t15 -290.5t-15 -290.5t-53 -215.5t-97 -153.5t-154.5 -97t-217 -53
t-292.5 -14.5t-292.5 14.5t-217.5 53t-154.5 97t-97 153.5t-53.5 215.5t-15 290.5z" />
    <glyph glyph-name="P" unicode="P" horiz-adv-x="1609" 
d="M102 1597h914q110 0 187.5 -9.5t139 -34t99.5 -62.5t62.5 -99.5t34 -139t9.5 -187.5q0 -107 -9 -183t-31.5 -137t-57.5 -99.5t-92.5 -65.5t-130 -40t-174.5 -18h-521v-522h-430v1597zM532 891h373q52 0 83 1.5t57.5 8.5t38.5 17t21 31.5t11 46.5t2 67q0 46 -2 72.5
t-11 50t-21 34t-38.5 18.5t-57.5 9.5t-83 1.5h-373v-358z" />
    <glyph glyph-name="Q" unicode="Q" horiz-adv-x="1847" 
d="M954 348q58 0 96.5 2.5t74.5 11.5t57 21.5t39.5 38.5t27.5 55.5t15.5 80t8 105t1.5 136.5q0 116 -4 185t-19.5 127.5t-38 86t-69.5 47.5t-102 24.5t-148 4.5t-148 -4.5t-102 -24.5t-69.5 -47.5t-38 -86t-19.5 -127.5t-4 -185q0 -110 3.5 -175.5t19 -121t36.5 -82
t66.5 -45t98 -23t141.5 -4.5h77zM61 799q0 170 15 290.5t53.5 215.5t97.5 153t155 96.5t217.5 53t293.5 14.5t293.5 -14.5t217.5 -53t155 -96.5t97 -153t53 -215.5t15 -290.5q0 -202 -75.5 -311t-239.5 -140h377v-348h-893q-172 0 -293.5 14.5t-217.5 51.5t-155 93.5
t-97.5 149t-53.5 209t-15 281.5z" />
    <glyph glyph-name="R" unicode="R" horiz-adv-x="1630" 
d="M1016 1597q110 0 187.5 -8t139 -29.5t99.5 -54t62.5 -86t34 -121t9.5 -163.5q0 -197 -76.5 -297t-244.5 -123q163 -18 242 -94.5t79 -227.5v-393h-450v369q0 48 -2 76t-12.5 52t-24.5 35t-44.5 19t-66 10t-96.5 2h-320v-563h-430v1597h914zM532 891h373q52 0 83 1.5
t57.5 9.5t38.5 18.5t21 33t11 48.5t2 71q0 43 -2 68.5t-10.5 47t-21 32t-39 18t-57.5 9t-83 1.5h-373v-358z" />
    <glyph glyph-name="S" unicode="S" horiz-adv-x="1642" 
d="M819 324q76 0 120.5 1t83.5 6.5t57 13t31 23.5t16 34.5t3 50.5q0 69 -77 107.5t-303 82.5q-162 32 -269 64t-185.5 71t-120.5 91.5t-60.5 117t-18.5 156.5q0 99 13.5 169t48 125t86.5 89t137 56.5t192 31t258 8.5q152 0 259.5 -10.5t193 -37.5t138.5 -68.5t87.5 -109
t48 -153t13.5 -205.5h-451q0 43 -1.5 71.5t-7.5 55t-14 42t-25 29t-36 20t-51.5 11.5t-67 6t-86.5 1q-82 0 -128 -3t-81 -9.5t-49 -23t-20 -38.5t-6 -61q0 -62 55.5 -94t220.5 -66q186 -36 309.5 -71.5t214.5 -79t140 -100.5t71.5 -128t22.5 -170q0 -94 -13.5 -160.5
t-49 -119t-88.5 -85t-140 -53.5t-196 -29t-263 -8q-158 0 -270 10t-201 36t-144 66t-91 105t-50 147t-14 198h451q0 -39 1.5 -65t8 -49.5t15 -38t26.5 -26.5t38 -17.5t54.5 -10t71 -5.5t92.5 -1z" />
    <glyph glyph-name="T" unicode="T" horiz-adv-x="1433" 
d="M500 0v1229h-490v368h1413v-368h-493v-1229h-430z" />
    <glyph glyph-name="U" unicode="U" horiz-adv-x="1581" 
d="M1499 655q0 -141 -12.5 -240t-45.5 -178t-83 -127t-132 -79.5t-185.5 -43.5t-249.5 -12t-249.5 12t-185.5 43.5t-132.5 79.5t-83.5 126.5t-45.5 178t-12.5 240.5v942h430v-942q0 -81 3 -129t14.5 -89t27.5 -60t51 -33t75 -17t108 -3t108 3t74.5 17t50.5 33t28 60t14.5 89
t2.5 129v942h430v-942z" />
    <glyph glyph-name="V" unicode="V" horiz-adv-x="1703" 
d="M1694 1597l-523 -1597h-679l-482 1597h471l359 -1187h12l389 1187h453z" />
    <glyph glyph-name="W" unicode="W" horiz-adv-x="2465" 
d="M1602 1597l194 -1228h16l226 1228h418l-304 -1597h-725l-194 1229h-16l-164 -1229h-731l-312 1597h439l231 -1228h16l162 1228h744z" />
    <glyph glyph-name="X" unicode="X" horiz-adv-x="1675" 
d="M553 1597l274 -577h13l293 577h493l-444 -794l483 -803h-526l-320 586h-16l-303 -586h-490l451 803l-412 794h504z" />
    <glyph glyph-name="Y" unicode="Y" horiz-adv-x="1562" 
d="M1552 1597l-479 -983h-61v-614h-430v614h-76l-496 983h484l299 -657h12l291 657h456z" />
    <glyph glyph-name="Z" unicode="Z" horiz-adv-x="1744" 
d="M129 1597h1491v-354l-954 -874h997v-369h-1581v395l911 834h-864v368z" />
    <glyph glyph-name="bracketleft" unicode="[" horiz-adv-x="696" 
d="M573 1638v-184h-143v-1679h143v-185h-450v2048h450z" />
    <glyph glyph-name="backslash" unicode="\" horiz-adv-x="1146" 
d="M1024 -410h-246l-655 2048h246z" />
    <glyph glyph-name="bracketright" unicode="]" horiz-adv-x="696" 
d="M573 1638v-2048h-450v185h143v1679h-143v184h450z" />
    <glyph glyph-name="asciicircum" unicode="^" horiz-adv-x="1064" 
d="M403 1407h259l280 -471h-227l-174 301h-13l-178 -301h-227z" />
    <glyph glyph-name="underscore" unicode="_" horiz-adv-x="1447" 
d="M123 -61h1202v-287h-1202v287z" />
    <glyph glyph-name="grave" unicode="`" horiz-adv-x="798" 
d="M799 1352h-246l-307 288h409z" />
    <glyph glyph-name="a" unicode="a" horiz-adv-x="1349" 
d="M698 1253q117 0 200.5 -7.5t149 -27.5t106.5 -50.5t67 -79.5t36.5 -111t10.5 -150v-827h-389v168q-31 -98 -113.5 -145t-228.5 -48q-98 -3 -167.5 2t-124.5 21.5t-89 43t-56 71.5t-30.5 102.5t-8.5 138.5q0 77 8.5 132t30 98t55 70t87.5 44t122.5 24t165.5 7l349 2v70
q0 49 -4 75.5t-13 47t-32 28.5t-52.5 11.5t-83.5 3.5q-50 0 -80 -1.5t-55.5 -8.5t-37 -16t-19.5 -29t-9.5 -43t-0.5 -62h-390v43q0 84 10.5 143t38.5 105.5t70 75t111 47t156 25.5t210 7zM471 350q0 -29 4 -45t16.5 -29t37 -16t65 -6.5t100.5 0.5q97 2 141 34.5t44 102.5v53
l-185 -2q-66 0 -101 -2t-63.5 -6t-39 -15.5t-15 -26.5t-4.5 -42z" />
    <glyph glyph-name="b" unicode="b" horiz-adv-x="1421" 
d="M102 1638h390v-575q33 99 133 144.5t276 45.5q95 0 162 -11.5t120 -41t85.5 -74.5t54 -119t29.5 -167.5t8 -225.5t-8.5 -225.5t-31 -167.5t-56.5 -119t-89 -74.5t-125 -41t-169 -11.5q-180 0 -277 67.5t-123 213.5v-256h-379v1638zM492 434q0 -131 225 -131q57 0 91 3
t63 16t42 30.5t23 56.5t12 84t2 121t-2 121t-11 84t-21 57t-38 31t-57 16t-82 3q-130 0 -188.5 -55.5t-58.5 -178.5v-258z" />
    <glyph glyph-name="c" unicode="c" horiz-adv-x="1386" 
d="M705 -25q-133 0 -227 11.5t-168 41t-120 74.5t-76 119t-41.5 167.5t-11.5 225.5t11.5 225.5t41.5 167.5t76 119t120 74.5t168 41t227 11.5q125 0 213.5 -9.5t159 -34.5t114.5 -63.5t74 -101t43 -141.5t16 -190h-410q-2 57 -5 91t-12.5 63t-21.5 42t-37.5 23t-55 12
t-78.5 2q-57 0 -91 -3t-63 -17t-42.5 -33t-23.5 -60.5t-12 -89.5t-2 -129t2 -129t12 -89t23.5 -60t42.5 -33t63 -17t91 -3q49 0 78 2.5t54 12.5t37 23.5t21.5 43t13 63.5t6.5 92h410q-3 -112 -15.5 -192t-42 -143t-74 -101.5t-115 -63.5t-159.5 -35t-214 -10z" />
    <glyph glyph-name="d" unicode="d" horiz-adv-x="1421" 
d="M1319 1638v-1638h-379v256q-26 -146 -122.5 -213.5t-276.5 -67.5q-99 0 -169 11.5t-125.5 41t-89.5 74.5t-56.5 119t-31 167.5t-8.5 225.5t8 225.5t29.5 167.5t54 119t85.5 74.5t120 41t162 11.5q176 0 276.5 -45.5t133.5 -144.5v575h389zM471 614q0 -76 2 -121t12 -84
t23.5 -56.5t42.5 -30.5t63 -16t91 -3q225 0 225 131v258q0 123 -59 178.5t-189 55.5q-51 0 -82 -3t-57 -16t-38 -31t-21 -57t-11 -84t-2 -121z" />
    <glyph glyph-name="e" unicode="e" horiz-adv-x="1372" 
d="M1300 391q-2 -86 -14.5 -146.5t-41.5 -108.5t-72.5 -77.5t-113.5 -49t-159 -27t-213 -7.5q-129 0 -220.5 11.5t-163.5 41t-116.5 74.5t-73.5 119t-40 167.5t-11 225.5t11 225.5t40 167.5t73.5 119t116.5 74.5t163.5 41t220.5 11.5q125 0 214.5 -10t160.5 -36t116 -66
t75 -104.5t43 -146t16 -196.5v-190h-838q3 -83 12.5 -129t36 -72.5t62.5 -33.5t104 -7q121 0 162 26t41 103h409zM475 791h426q-2 62 -9 94.5t-32.5 52.5t-62 24.5t-109.5 4.5q-62 0 -96.5 -5.5t-61 -24t-38.5 -53t-17 -93.5z" />
    <glyph glyph-name="f" unicode="f" horiz-adv-x="952" 
d="M694 1352q-82 0 -101.5 -18t-19.5 -93v-12h328v-328h-328v-901h-389v901h-123v328h123q0 127 21 203t79 124t149 65t243 17h266v-286h-248z" />
    <glyph glyph-name="g" unicode="g" horiz-adv-x="1400" 
d="M668 -434q-117 0 -200.5 7.5t-149.5 26.5t-106 48.5t-66.5 77t-37 108t-10.5 146.5h369q0 -66 40.5 -88.5t160.5 -22.5q59 0 94 1t64.5 5.5t43.5 11t24 20.5t12.5 30t2.5 43v311q-29 -127 -128 -185.5t-281 -58.5q-90 0 -154 11t-115 39t-82 70.5t-51.5 112.5
t-28.5 158.5t-8 212.5t8 212t29.5 157.5t54 112t85.5 70.5t120 39t162 11q181 0 277.5 -61.5t122.5 -194.5v232h378v-1307q0 -74 -11.5 -126t-40.5 -93t-73.5 -66t-117.5 -41.5t-165 -23t-222 -6.5zM440 651q0 -68 2 -108t12 -74t23.5 -50t42.5 -27.5t63 -14t91 -2.5
q109 0 167 33.5t58 99.5v182q0 124 -59 180t-187 56q-52 0 -83 -2.5t-57.5 -14t-38.5 -27.5t-21 -50t-11 -74t-2 -107z" />
    <glyph glyph-name="h" unicode="h" horiz-adv-x="1349" 
d="M102 1638h390v-604q29 113 119 166t251 53q124 0 198.5 -19.5t122.5 -72.5t65.5 -138.5t17.5 -227.5l2 -795h-389v702q0 55 -1.5 87t-8.5 60t-17 41t-31 22.5t-45.5 11.5t-66.5 2q-114 0 -165.5 -58t-51.5 -186v-682h-390v1638z" />
    <glyph glyph-name="i" unicode="i" horiz-adv-x="614" 
d="M113 1229h389v-1229h-389v1229zM102 1352v286h410v-286h-410z" />
    <glyph glyph-name="j" unicode="j" horiz-adv-x="653" 
d="M10 -61q89 0 115.5 23t26.5 101v1166h389v-1225q0 -86 -9 -146.5t-31.5 -108t-57.5 -77t-91.5 -48.5t-128 -26.5t-172.5 -7.5h-41v349zM141 1352v286h410v-286h-410z" />
    <glyph glyph-name="k" unicode="k" horiz-adv-x="1353" 
d="M102 0v1638h390v-874l376 465h475l-450 -555l436 -674h-440l-277 442l-120 -104v-338h-390z" />
    <glyph glyph-name="l" unicode="l" horiz-adv-x="714" 
d="M653 348v-348h-223q-102 0 -163.5 14.5t-100 54t-52 101.5t-12.5 166v1302h390v-1185q0 -71 26 -88t135 -17z" />
    <glyph glyph-name="m" unicode="m" horiz-adv-x="2088" 
d="M102 1229h390v-142q31 86 101.5 126t186.5 40q214 0 307 -53.5t117 -198.5q28 130 108.5 191t225.5 61q97 0 165.5 -9.5t122.5 -34.5t87.5 -63.5t55 -101t30 -141.5t8.5 -190v-713h-389v662q0 64 -1.5 102.5t-9.5 71t-18 48t-32.5 26.5t-48.5 13.5t-70 2.5
q-101 0 -147 -59.5t-44 -190.5v-676h-385v662q0 64 -2 102.5t-9.5 71.5t-18 48t-33 26t-49 13.5t-70.5 2.5q-98 0 -143 -59.5t-45 -190.5v-676h-390v1229z" />
    <glyph glyph-name="n" unicode="n" horiz-adv-x="1349" 
d="M102 1229h390v-193q29 112 118.5 164.5t251.5 52.5q84 0 143 -8t105.5 -29.5t75 -53.5t47.5 -85t26 -120t7 -162l2 -795h-389v696q0 56 -1.5 89t-8.5 62t-17 42t-31.5 23t-46.5 12t-67 2q-112 0 -162.5 -55t-50.5 -175l-2 -696h-390v1229z" />
    <glyph glyph-name="o" unicode="o" horiz-adv-x="1409" 
d="M705 946q-57 0 -91 -3t-63 -17t-42.5 -33t-23.5 -60.5t-12 -89.5t-2 -129t2 -129t12 -89t23.5 -60t42.5 -33t63 -17t91 -3t91 3t63 17t42 33t23 60t12 89t2 129t-2 129t-12 89.5t-23 60.5t-42 33t-63 17t-91 3zM61 614q0 132 11.5 225.5t41.5 167.5t76 119t120 74.5
t168 41t227 11.5t226.5 -11.5t168 -41t120 -74.5t75.5 -119t41.5 -167.5t11.5 -225.5t-11.5 -225.5t-41.5 -167.5t-75.5 -119t-120 -74.5t-168 -41t-226.5 -11.5t-227 11.5t-168 41t-120 74.5t-76 119t-41.5 167.5t-11.5 225.5z" />
    <glyph glyph-name="p" unicode="p" horiz-adv-x="1421" 
d="M102 -410v1639h379v-232q26 133 122.5 194.5t277.5 61.5q99 0 169 -11.5t125 -41t89 -74.5t56.5 -119t31 -167.5t8.5 -225.5t-8 -225.5t-29.5 -167.5t-54 -119t-85.5 -74.5t-120 -41t-162 -11.5q-182 0 -281 58.5t-128 185.5v-629h-390zM492 436q0 -66 58 -99.5
t167 -33.5q57 0 91 3t63 16t42 30.5t23 56.5t12 84t2 121q0 65 -2 106t-6 78t-15 57t-24.5 36t-39 22.5t-53.5 9.5t-73 3q-128 0 -186.5 -56t-58.5 -180v-254z" />
    <glyph glyph-name="q" unicode="q" horiz-adv-x="1421" 
d="M1319 -410h-389v629q-29 -127 -128.5 -185.5t-281.5 -58.5q-95 0 -162 11.5t-120 41t-85.5 74.5t-54 119t-29.5 167.5t-8 225.5t8.5 225.5t31 167.5t56.5 119t89.5 74.5t125.5 41t169 11.5q180 0 276.5 -61.5t122.5 -194.5v232h379v-1639zM471 614q0 -76 2 -121t12 -84
t23.5 -56.5t42.5 -30.5t63 -16t91 -3q109 0 167 33.5t58 99.5v254q0 124 -59 180t-187 56q-52 0 -83 -3t-57.5 -16t-39 -31t-21 -57t-10.5 -84t-2 -121z" />
    <glyph glyph-name="r" unicode="r" horiz-adv-x="1024" 
d="M102 1229h390v-228q26 118 111 173t239 55h141v-348l-276 4q-113 1 -164 -45.5t-51 -149.5v-690h-390v1229z" />
    <glyph glyph-name="s" unicode="s" horiz-adv-x="1374" 
d="M451 385q0 -36 4.5 -55.5t15.5 -35t40 -21.5t66 -8.5t105 -2.5q105 0 148 6.5t58 24.5t15 63q0 46 -58.5 72.5t-232.5 58.5q-130 25 -215.5 50.5t-148 56t-95.5 72t-48 93t-15 124.5q0 92 17 153t55.5 105t110.5 67.5t171 34t248 10.5q121 0 207.5 -7.5t154.5 -26.5
t110 -48.5t69.5 -77.5t38 -108.5t10.5 -146.5v-37h-389v37q0 32 -2 50.5t-10.5 34.5t-20 23.5t-36.5 13t-54 6.5t-78 1q-70 0 -104.5 -2.5t-56 -14t-26.5 -28.5t-5 -52q0 -43 34 -62t136 -34q132 -22 226.5 -43.5t168.5 -49.5t119.5 -59.5t75.5 -76t41.5 -96t11.5 -121.5
q0 -88 -17.5 -146t-57.5 -100t-114 -64.5t-176 -32.5t-256 -10q-130 0 -222 7.5t-165 26.5t-118 48t-74 76.5t-40.5 107t-11.5 144.5v27h390v-27z" />
    <glyph glyph-name="t" unicode="t" horiz-adv-x="1044" 
d="M942 348v-348h-246q-101 0 -173 7.5t-128.5 26.5t-91.5 48.5t-57.5 77t-31.5 108t-9 146.5v487h-123v328h143v262h369v-262h328v-328h-328v-387q0 -61 3.5 -90t20 -48.5t41.5 -23.5t76 -4h207z" />
    <glyph glyph-name="u" unicode="u" horiz-adv-x="1329" 
d="M1227 0h-389v193q-28 -112 -113 -165t-238 -53q-84 0 -143 8t-105.5 29.5t-75 54t-47 85.5t-25.5 120t-7 162l-2 795h389v-703q0 -81 4.5 -120.5t25.5 -65.5t53.5 -31.5t98.5 -5.5q96 0 139.5 51t43.5 164l2 711h389v-1229z" />
    <glyph glyph-name="v" unicode="v" horiz-adv-x="1335" 
d="M1325 1229l-375 -1229h-600l-340 1229h404l243 -942h13l268 942h387z" />
    <glyph glyph-name="w" unicode="w" horiz-adv-x="2033" 
d="M1333 1229l150 -963h12l174 963h354l-241 -1229h-615l-149 942h-12l-127 -942h-619l-250 1229h377l178 -963h13l124 963h631z" />
    <glyph glyph-name="x" unicode="x" horiz-adv-x="1347" 
d="M29 1229h424l192 -395h12l199 395h408l-365 -594l438 -635h-438l-246 436h-12l-221 -436h-410l387 631z" />
    <glyph glyph-name="y" unicode="y" horiz-adv-x="1302" 
d="M936 -96q-21 -77 -47 -129t-63 -89.5t-92.5 -57.5t-125.5 -29t-172 -9h-280v328h231q117 0 149.5 14t49.5 74l10 35h-246l-340 1188h406l248 -910h12l235 910h381z" />
    <glyph glyph-name="z" unicode="z" horiz-adv-x="1404" 
d="M119 1229h1171v-301l-614 -580h647v-348h-1241v297l620 584h-583v348z" />
    <glyph glyph-name="braceleft" unicode="{" horiz-adv-x="921" 
d="M799 -434q-110 0 -188.5 14.5t-141 52t-101 94.5t-65 150t-37.5 210.5t-14 283.5q-1 43 -2 68t-7 47t-13 31.5t-23 17t-34.5 9t-49.5 1.5v184q30 0 48 1.5t33.5 9t22.5 17t12.5 31.5t7.5 47t3 68q4 157 16 268t38.5 199t65.5 141.5t101 89t140 49t188 13.5v-184
q-46 0 -77 -3t-59.5 -13.5t-45.5 -25t-32 -45t-22.5 -65.5t-13 -93.5t-7.5 -122.5t-3 -159q-2 -132 -40.5 -192t-123.5 -60v-122q85 0 123.5 -60t40.5 -194q1 -139 4 -222.5t14.5 -154.5t26.5 -104.5t47 -57.5t69 -29.5t99 -5.5v-184z" />
    <glyph glyph-name="bar" unicode="|" horiz-adv-x="532" 
d="M123 -410v1966h287v-1966h-287z" />
    <glyph glyph-name="braceright" unicode="}" horiz-adv-x="921" 
d="M123 -250q62 0 99 5.5t69 29.5t47 57.5t26.5 104.5t14.5 154.5t4 222.5q2 134 40.5 194t123.5 60v122q-85 0 -123.5 60t-40.5 192q-1 95 -3 159t-7.5 122.5t-13 93.5t-22.5 65.5t-32 45t-45.5 25t-59.5 13.5t-77 3v184q110 0 188 -13.5t140 -49t101 -89t65.5 -141.5
t38.5 -199t16 -268q1 -43 3 -68t7.5 -47t12.5 -31.5t22.5 -17t33.5 -9t48 -1.5v-184q-31 0 -49.5 -1.5t-34.5 -9t-23 -17t-13 -31.5t-7 -47t-2 -68q-3 -166 -14 -283.5t-37.5 -210.5t-65 -150t-101 -94.5t-141 -52t-188.5 -14.5v184z" />
    <glyph glyph-name="asciitilde" unicode="~" horiz-adv-x="1064" 
d="M705 594q40 0 61 19t33 65h143q0 -154 -61 -217.5t-209 -63.5q-62 0 -112.5 18.5t-77.5 40t-59.5 40t-62.5 18.5q-40 0 -61 -19t-33 -65h-143q0 154 61 217.5t209 63.5q62 0 112.5 -18.5t77.5 -40t59.5 -40t62.5 -18.5z" />
    <glyph glyph-name="uni00A0" unicode="&#xa0;" horiz-adv-x="614" 
 />
    <glyph glyph-name="exclamdown" unicode="&#xa1;" horiz-adv-x="716" 
d="M123 840v389h471v-389h-471zM133 -410l19 539l43 526h327l39 -536l23 -529h-451z" />
    <glyph glyph-name="cent" unicode="&#xa2;" horiz-adv-x="1386" 
d="M1325 483q-4 -124 -27 -201.5t-79.5 -130.5t-147 -77t-235.5 -31v-330h-287v332q-147 10 -239 41.5t-149 100t-78.5 169t-21.5 258.5t21.5 258.5t78.5 169.5t149 100.5t239 41.5v372h287v-370q144 -7 234.5 -30.5t147.5 -75.5t80 -129t27 -199h-389q-3 45 -7 71.5
t-14.5 49.5t-24 33.5t-41 18.5t-59.5 9.5t-85 1.5q-61 0 -98 -3t-68 -16.5t-45.5 -32.5t-25 -59t-13 -86.5t-2.5 -124.5t2.5 -124.5t13 -86.5t25 -58.5t46 -32t68 -16.5t97.5 -3q79 0 117.5 4.5t65 26.5t34.5 55.5t14 103.5h389z" />
    <glyph glyph-name="sterling" unicode="&#xa3;" horiz-adv-x="1417" 
d="M799 1358q-94 0 -117 -21t-23 -108v-146h480v-184h-480v-164h480v-184h-480v-137l-2 -66h699v-348h-1233v287h47q63 0 81.5 15t18.5 69v180h-188v184h188v164h-188v184h188v148q0 103 14 171t45.5 117.5t90.5 76t139.5 38t202.5 11.5h573v-287h-536z" />
    <glyph glyph-name="currency" unicode="&#xa4;" horiz-adv-x="1519" 
d="M762 1053q-143 0 -203.5 -66.5t-60.5 -228.5t60.5 -228.5t203.5 -66.5t203.5 66.5t60.5 228.5t-60.5 228.5t-203.5 66.5zM123 324l153 153q-45 105 -45 281q0 175 45 280l-153 154l203 203l161 -162q110 37 275 37q168 0 272 -35l160 160l203 -203l-150 -150
q45 -107 45 -284q0 -178 -45 -285l150 -149l-203 -203l-160 160q-104 -35 -272 -35q-165 0 -275 37l-161 -162z" />
    <glyph glyph-name="yen" unicode="&#xa5;" horiz-adv-x="1759" 
d="M279 737h387l-584 860h510l299 -493h12l291 493h483l-555 -860h336v-184h-348v-164h348v-184h-348v-205h-430v205h-401v184h401v164h-401v184z" />
    <glyph glyph-name="brokenbar" unicode="&#xa6;" horiz-adv-x="532" 
d="M123 666v890h287v-890h-287zM123 -410v891h287v-891h-287z" />
    <glyph glyph-name="section" unicode="&#xa7;" horiz-adv-x="1427" 
d="M936 680q0 59 -47.5 88t-194.5 55l-86 15q-55 -14 -86.5 -49t-29.5 -70q0 -40 18.5 -64t70 -43t152.5 -37l86 -14q55 14 87 49t30 70zM82 657q0 122 63 176.5t217 55.5q-35 8 -69 22q-121 46 -166 118.5t-45 201.5q0 81 11 138t39 102t70.5 73t112.5 46t158 25t213 7
q131 0 222 -8t164.5 -29.5t117.5 -54.5t73.5 -87.5t40.5 -124.5t11 -169h-389q0 51 -2 81.5t-11.5 56t-22 37.5t-40.5 20t-59 10t-86 2q-63 0 -97 -2.5t-60.5 -7.5t-36.5 -18.5t-14.5 -31t-4.5 -49.5q0 -58 42.5 -83.5t147.5 -41.5q250 -37 420 -88q137 -40 190.5 -114
t53.5 -179q0 -121 -65 -175.5t-216 -55.5q31 -8 70 -23q121 -46 166 -118t45 -201q0 -97 -17.5 -161.5t-56 -111t-111 -71.5t-171.5 -36t-249 -11q-131 0 -222 8t-164 29.5t-117.5 54.5t-73.5 87.5t-40 124.5t-11 169h389q0 -51 2 -81.5t11.5 -56t22 -37.5t40.5 -20t59 -10
t86 -2q63 0 97 2.5t60.5 7.5t36.5 18.5t14.5 31t4.5 49.5q0 57 -42.5 82.5t-148.5 41.5q-241 36 -419 89q-137 40 -190.5 113.5t-53.5 178.5z" />
    <glyph glyph-name="dieresis" unicode="&#xa8;" horiz-adv-x="1024" 
d="M123 1638h328v-286h-328v286zM573 1352v286h328v-286h-328z" />
    <glyph glyph-name="copyright" unicode="&#xa9;" horiz-adv-x="1863" 
d="M932 1376q-112 0 -186 -3.5t-143 -16.5t-109.5 -30t-76 -54t-52.5 -79.5t-29.5 -114t-15.5 -148.5t-3 -193t3 -193t15.5 -148.5t29.5 -114t52.5 -79.5t76 -54t109.5 -30t143 -16.5t186 -3.5q89 0 152 2t124 9.5t101 17.5t77.5 30.5t60 44t42.5 62.5t29.5 81t16.5 105
t9 129t2 158t-2 158t-9 129t-16.5 105t-29.5 81t-42.5 62.5t-60 44t-77.5 30.5t-101 17.5t-124 9.5t-152 2zM61 737q0 170 15.5 290.5t56 215.5t102.5 153.5t162.5 96.5t227.5 53t307 15t307 -14.5t227.5 -53t162 -97t102 -153.5t56 -215.5t15.5 -290.5t-15.5 -290.5
t-56 -215.5t-102 -153t-162 -96.5t-227.5 -53t-307 -14.5t-307 14.5t-227.5 53t-162.5 96.5t-102.5 153t-56 215.5t-15.5 290.5zM473 743q0 92 8.5 157t29.5 117t54 83.5t87 52.5t122 29t164 8q138 0 220.5 -14.5t135 -55t71.5 -104.5t19 -170v-51l-235 2v53q-3 56 -10 83.5
t-31.5 46t-61 22.5t-108.5 4q-55 0 -88 -2.5t-61.5 -13.5t-41.5 -26.5t-22.5 -48t-11.5 -70.5t-2 -102t2 -102t11.5 -70.5t22.5 -47.5t41.5 -26t61.5 -13.5t88 -2.5q73 0 109 4t60.5 23t31.5 47.5t10 85.5v51l235 2v-49q0 -86 -13 -143.5t-41 -99t-81.5 -63.5t-127 -32
t-183.5 -10q-96 0 -164 8t-122 29t-87 52.5t-54 83t-29.5 116.5t-8.5 157z" />
    <glyph glyph-name="ordfeminine" unicode="&#xaa;" horiz-adv-x="811" 
d="M420 1663q154 0 206 -39t52 -154v-372h-176v84q-28 -94 -154 -97q-129 -2 -172 32.5t-43 139.5q0 101 43 135.5t170 34.5h156v31q0 52 -14 67t-68 15q-63 0 -79 -14.5t-13 -65.5h-176v23q0 108 53.5 144t214.5 36zM102 852v123h607v-123h-607zM317 1255q0 -30 16.5 -36.5
t86.5 -6.5q43 1 62.5 16t19.5 46v31h-82q-66 0 -84.5 -10.5t-18.5 -39.5z" />
    <glyph glyph-name="guillemotleft" unicode="&#xab;" horiz-adv-x="1187" 
d="M123 500v225l450 336v-266l-239 -174v-13l239 -178v-266zM614 500v225l451 336v-266l-240 -174v-13l240 -178v-266z" />
    <glyph glyph-name="registered" unicode="&#xae;" horiz-adv-x="1576" 
d="M788 1499q-100 0 -166 -3t-127.5 -14.5t-97.5 -27t-67.5 -48.5t-46.5 -70.5t-26 -102t-14 -133t-3 -172.5q0 -83 1.5 -141.5t8 -115t15 -94t26.5 -72.5t37.5 -56t53.5 -39.5t69.5 -27.5t90 -15.5t111 -8.5t135.5 -2t135.5 2t111 8.5t90.5 15.5t69.5 27.5t53.5 39.5t38 56
t26.5 72.5t14.5 94t8 115.5t2 141q0 104 -3 173t-14 133t-26 101.5t-47 70.5t-68 48.5t-97.5 27t-127.5 14.5t-166 3zM10 928q0 152 14 259t50 192t91 137.5t145 86.5t203.5 47t274.5 13t274.5 -13t203.5 -47t145.5 -86.5t91.5 -137t50 -192t14 -259.5t-14 -260t-50 -193
t-91.5 -137.5t-145.5 -87t-203.5 -47.5t-274.5 -13t-274.5 13t-203.5 47.5t-145 87t-91 137.5t-50 193t-14 260zM479 594v709h406q141 0 188 -41t47 -164q0 -88 -33.5 -133t-105.5 -54q70 -8 104.5 -42.5t34.5 -100.5v-174h-198v164q0 58 -18 72t-93 14h-141v-250h-191z
M670 989h166q64 0 79 13t15 67q0 53 -15 65.5t-79 12.5h-166v-158z" />
    <glyph glyph-name="macron" unicode="&#xaf;" horiz-adv-x="901" 
d="M778 1556v-184h-655v184h655z" />
    <glyph glyph-name="degree" unicode="&#xb0;" horiz-adv-x="655" 
d="M330 1231q-114 0 -160.5 44.5t-46.5 151.5q0 105 47 149t160 44q110 0 156 -44t46 -149q0 -107 -46 -151.5t-156 -44.5zM225 1425q0 -66 23.5 -93t79.5 -27t79 27t23 93t-23 93.5t-79 27.5t-79.5 -27.5t-23.5 -93.5z" />
    <glyph glyph-name="plusminus" unicode="&#xb1;" horiz-adv-x="1447" 
d="M123 995h428v258h348v-258h426v-286h-426v-258h-348v258h-428v286zM315 72v286h820v-286h-820z" />
    <glyph glyph-name="uni00B2" unicode="&#xb2;" horiz-adv-x="1480" 
d="M1399 0h-1325v287l706 596q101 84 134.5 135t33.5 117q0 40 -4.5 62t-16 39.5t-39.5 24.5t-66 10t-105 3q-49 0 -79 -2t-55.5 -11t-37.5 -21t-20.5 -37.5t-10.5 -55t-2 -78.5h-451q0 113 13 194.5t45 145t79.5 103t123.5 65t170.5 35.5t226.5 10q137 0 233.5 -7.5
t172 -26.5t121.5 -48t75 -76.5t38.5 -107t6.5 -144.5q-1 -32 -1 -79t-0.5 -70.5t-3 -59t-8 -55.5t-15.5 -48.5t-25.5 -50t-38 -47t-53.5 -52.5l-445 -381h623v-369z" />
    <glyph glyph-name="uni00B3" unicode="&#xb3;" horiz-adv-x="1585" 
d="M758 303q138 0 202 14t88.5 49.5t24.5 112.5q0 57 -11 88.5t-47.5 51.5t-94 26t-162.5 6h-248v328h260q91 0 141 5.5t82 24t41.5 48t9.5 82.5q0 41 -7 66.5t-22.5 44.5t-48.5 27.5t-78 12.5t-118 4q-174 0 -222 -22.5t-48 -110.5h-389q0 95 11.5 162.5t42 121t77.5 86
t123 54t172.5 29.5t232.5 8q137 0 234 -7.5t173.5 -27.5t123.5 -50.5t78 -80.5t43 -112.5t12 -151.5q0 -174 -56.5 -264.5t-179.5 -112.5q148 -20 216.5 -116.5t68.5 -284.5q0 -90 -13 -154t-46 -115t-83.5 -82t-133 -51.5t-186.5 -28.5t-251 -8q-142 0 -242.5 9t-180 31.5
t-128.5 57.5t-80.5 92t-44 129t-12.5 173h410q0 -48 5.5 -74t18.5 -46.5t45.5 -28.5t75.5 -11.5t121 -3.5z" />
    <glyph glyph-name="acute" unicode="&#xb4;" horiz-adv-x="798" 
d="M123 1352l143 288h410l-307 -288h-246z" />
    <glyph glyph-name="paragraph" unicode="&#xb6;" horiz-adv-x="1998" 
d="M1323 1597v-1597h-389v420h-397q-98 5 -168 19t-124.5 43.5t-88.5 72t-56 110t-30.5 151.5t-8.5 202q0 119 9 204t33 151.5t60 108t95.5 68t134 37t180.5 10.5h750zM471 1012q0 -51 2 -83t6 -61t15 -44.5t24.5 -28t39 -17.5t53.5 -7.5t73 -2.5h250v481h-250
q-52 0 -83 -2.5t-57.5 -12.5t-39 -23.5t-21 -43t-10.5 -63.5t-2 -92zM1507 0v1597h389v-1597h-389z" />
    <glyph glyph-name="periodcentered" unicode="&#xb7;" horiz-adv-x="716" 
d="M123 836h471v-390h-471v390z" />
    <glyph glyph-name="cedilla" unicode="&#xb8;" horiz-adv-x="632" 
d="M510 -254q0 -69 -29 -106.5t-100 -55.5t-201 -18h-57v94q119 0 159 16t40 60v20q0 44 -40 60t-159 16v94l170 76h61l-49 -82q114 -12 159.5 -53t45.5 -121z" />
    <glyph glyph-name="uni00B9" unicode="&#xb9;" horiz-adv-x="942" 
d="M451 0v1063h-390v287h187q71 0 111 9t67 36.5t36 74t9 127.5h369v-1597h-389z" />
    <glyph glyph-name="ordmasculine" unicode="&#xba;" horiz-adv-x="811" 
d="M408 1532q-71 0 -88 -27.5t-17 -130.5t17 -129t88 -26q70 0 87 26.5t17 128.5q0 103 -17.5 130.5t-86.5 27.5zM102 852v123h607v-123h-607zM119 1374q0 173 58 231t231 58q172 0 230 -58t58 -231q0 -172 -58 -230.5t-230 -58.5q-173 0 -231 58.5t-58 230.5z" />
    <glyph glyph-name="guillemotright" unicode="&#xbb;" horiz-adv-x="1187" 
d="M1065 500l-451 -336v266l240 178v13l-240 174v266l451 -336v-225zM123 164v266l239 178v13l-239 174v266l450 -336v-225z" />
    <glyph glyph-name="questiondown" unicode="&#xbf;" horiz-adv-x="1548" 
d="M1010 780h-471v389h471v-389zM61 -41q0 140 25 216t84 117.5t176 65.5q54 11 86.5 19.5t60 22.5t40.5 27.5t22.5 39.5t11.5 54t2 75h410q0 -142 -17.5 -219.5t-59.5 -121.5t-124 -71q-160 -51 -213 -94.5t-53 -122.5q0 -33 5 -51.5t17 -32.5t42 -19.5t69 -8t109 -2.5
q54 0 86 2t59.5 11.5t40 23t22 42t11.5 62t2 90.5h450q0 -107 -11 -182.5t-40 -135.5t-73.5 -96.5t-116.5 -60.5t-164 -33.5t-221 -9.5h-94q-133 0 -227 7t-168 25t-120 46t-76 73.5t-41.5 103t-11.5 138.5z" />
    <glyph glyph-name="Agrave" unicode="&#xc0;" horiz-adv-x="1771" 
d="M1249 1597l512 -1597h-491l-86 311h-615l-96 -311h-463l527 1597h712zM471 2009h410l143 -289h-246zM680 659h397l-190 590h-13z" />
    <glyph glyph-name="Aacute" unicode="&#xc1;" horiz-adv-x="1771" 
d="M1249 1597l512 -1597h-491l-86 311h-615l-96 -311h-463l527 1597h712zM680 659h397l-190 590h-13zM737 1720l144 289h409l-307 -289h-246z" />
    <glyph glyph-name="Acircumflex" unicode="&#xc2;" horiz-adv-x="1771" 
d="M1249 1597l512 -1597h-491l-86 311h-615l-96 -311h-463l527 1597h712zM469 1720l281 287h258l280 -287h-227l-174 117h-13l-178 -117h-227zM680 659h397l-190 590h-13z" />
    <glyph glyph-name="Atilde" unicode="&#xc3;" horiz-adv-x="1771" 
d="M1249 1597l512 -1597h-491l-86 311h-615l-96 -311h-463l527 1597h712zM492 1751q0 154 61 217.5t209 63.5q62 0 112.5 -18.5t77 -40t59 -40t62.5 -18.5q40 0 61 19t33 65h144q0 -154 -61.5 -217.5t-209.5 -63.5q-62 0 -112.5 18.5t-77 40t-59 40t-62.5 18.5
q-40 0 -61 -19t-33 -65h-143zM680 659h397l-190 590h-13z" />
    <glyph glyph-name="Adieresis" unicode="&#xc4;" horiz-adv-x="1771" 
d="M1249 1597l512 -1597h-491l-86 311h-615l-96 -311h-463l527 1597h712zM492 1720v287h327v-287h-327zM680 659h397l-190 590h-13zM942 1720v287h328v-287h-328z" />
    <glyph glyph-name="Aring" unicode="&#xc5;" horiz-adv-x="1771" 
d="M1249 1597l512 -1597h-491l-86 311h-615l-96 -311h-463l527 1597h712zM645 1878q0 89 52.5 121.5t185.5 32.5q130 0 181.5 -32.5t51.5 -121.5q0 -90 -52 -124t-181 -34q-132 0 -185 34t-53 124zM680 659h397l-190 590h-13zM788 1876q0 -53 16.5 -67.5t76.5 -14.5t76 14.5
t16 67.5t-16 67.5t-76 14.5t-76.5 -14.5t-16.5 -67.5z" />
    <glyph glyph-name="AE" unicode="&#xc6;" horiz-adv-x="2441" 
d="M2355 1597v-368h-880v-246h798v-348h-798v-266h884v-369h-1315v311h-475l-96 -311h-463l527 1597h1818zM680 659h364v570h-176z" />
    <glyph glyph-name="Ccedilla" unicode="&#xc7;" horiz-adv-x="1751" 
d="M1690 678q1 -138 -11.5 -237.5t-45.5 -179.5t-85 -131t-135.5 -85.5t-191 -50t-256.5 -19.5l-35 -57q114 -12 159.5 -53t45.5 -121q0 -69 -29 -106.5t-100 -55.5t-201 -18h-57v94q119 0 158.5 16t39.5 60v20q0 44 -39.5 60t-158.5 16v94l114 51q-165 1 -282 16t-209.5 54
t-149.5 97.5t-94 153.5t-51.5 215t-14.5 288q0 170 14.5 290.5t53 215.5t96.5 153.5t152.5 96.5t214 52.5t287.5 14.5q126 0 223 -7t179.5 -24t142 -42.5t107 -66t77 -91.5t49 -122t27 -154t6.5 -191h-451q1 85 -2 136t-17.5 94t-35.5 63.5t-66 35t-97.5 18t-141.5 3.5
t-142.5 -4.5t-99 -24.5t-66.5 -47.5t-36.5 -86t-19 -127.5t-3.5 -185t3.5 -185t19 -127.5t36.5 -86t66.5 -47.5t99 -24.5t142.5 -4.5t141.5 3.5t97.5 18t66 35t35.5 64.5t17.5 95.5t2 137.5h451z" />
    <glyph glyph-name="Egrave" unicode="&#xc8;" horiz-adv-x="1499" 
d="M102 1597h1311v-368h-881v-246h799v-348h-799v-266h885v-369h-1315v1597zM369 2009h409l144 -289h-246z" />
    <glyph glyph-name="Eacute" unicode="&#xc9;" horiz-adv-x="1499" 
d="M102 1597h1311v-368h-881v-246h799v-348h-799v-266h885v-369h-1315v1597zM635 1720l143 289h410l-307 -289h-246z" />
    <glyph glyph-name="Ecircumflex" unicode="&#xca;" horiz-adv-x="1499" 
d="M102 1597h1311v-368h-881v-246h799v-348h-799v-266h885v-369h-1315v1597zM367 1720l280 287h258l281 -287h-228l-174 117h-12l-178 -117h-227z" />
    <glyph glyph-name="Edieresis" unicode="&#xcb;" horiz-adv-x="1499" 
d="M102 1597h1311v-368h-881v-246h799v-348h-799v-266h885v-369h-1315v1597zM389 1720v287h328v-287h-328zM840 1720v287h327v-287h-327z" />
    <glyph glyph-name="Igrave" unicode="&#xcc;" horiz-adv-x="634" 
d="M102 0v1597h430v-1597h-430zM-92 2050h409l144 -289h-246z" />
    <glyph glyph-name="Iacute" unicode="&#xcd;" horiz-adv-x="634" 
d="M102 0v1597h430v-1597h-430zM174 1761l143 289h410l-307 -289h-246z" />
    <glyph glyph-name="Icircumflex" unicode="&#xce;" horiz-adv-x="634" 
d="M102 0v1597h430v-1597h-430zM-94 1761l280 287h258l281 -287h-227l-174 117h-13l-178 -117h-227z" />
    <glyph glyph-name="Idieresis" unicode="&#xcf;" horiz-adv-x="634" 
d="M102 0v1597h430v-1597h-430zM-72 1761v287h328v-287h-328zM379 1761v287h328v-287h-328z" />
    <glyph glyph-name="Eth" unicode="&#xd0;" horiz-adv-x="2004" 
d="M737 1229l-2 -238h264v-348h-264l2 -274h350q59 0 98 2t75 11t57.5 20.5t40.5 36.5t27.5 53.5t15.5 76.5t8.5 100t1.5 130t-1.5 130t-8.5 100t-15.5 76.5t-27.5 53.5t-40.5 36.5t-57.5 20.5t-75 11t-98 2h-350zM123 643v348h184v606h826q151 0 257.5 -14t190.5 -51
t136 -93.5t85.5 -149t46.5 -209t13 -281.5t-13 -281.5t-46.5 -209t-85.5 -149t-136 -93.5t-190.5 -51.5t-257.5 -14.5h-826v643h-184z" />
    <glyph glyph-name="Ntilde" unicode="&#xd1;" horiz-adv-x="1761" 
d="M102 0v1597h408l707 -872h12v872h430v-1597h-406l-708 870h-13v-870h-430zM469 1751q0 154 61 217.5t209 63.5q62 0 112.5 -18.5t77.5 -40t59.5 -40t62.5 -18.5q40 0 61 19t33 65h143q0 -154 -61 -217.5t-209 -63.5q-62 0 -112.5 18.5t-77 40t-59 40t-62.5 18.5
q-40 0 -61.5 -19t-33.5 -65h-143z" />
    <glyph glyph-name="Ograve" unicode="&#xd2;" horiz-adv-x="1781" 
d="M891 1274q-69 0 -115 -2.5t-88.5 -12t-67 -22.5t-46.5 -40.5t-32.5 -58.5t-18 -84.5t-9.5 -110.5t-2 -144t2 -144t9.5 -110.5t18 -84.5t32.5 -58.5t46.5 -40.5t67 -22.5t88.5 -12t115 -2.5t115 2.5t88.5 12t67 22.5t46.5 40.5t32.5 58.5t18 84.5t9.5 110.5t2 144t-2 144
t-9.5 110.5t-18 84.5t-32.5 58.5t-46.5 40.5t-67 22.5t-88.5 12t-115 2.5zM61 799q0 170 15 290.5t53.5 215.5t97 153t154.5 96.5t217.5 53t292.5 14.5t292.5 -14.5t217 -53t154.5 -96.5t97 -153t53 -215.5t15 -290.5t-15 -290.5t-53 -215.5t-97 -153.5t-154.5 -97t-217 -53
t-292.5 -14.5t-292.5 14.5t-217.5 53t-154.5 97t-97 153.5t-53.5 215.5t-15 290.5zM481 2009h410l143 -289h-246z" />
    <glyph glyph-name="Oacute" unicode="&#xd3;" horiz-adv-x="1781" 
d="M891 1274q-69 0 -115 -2.5t-88.5 -12t-67 -22.5t-46.5 -40.5t-32.5 -58.5t-18 -84.5t-9.5 -110.5t-2 -144t2 -144t9.5 -110.5t18 -84.5t32.5 -58.5t46.5 -40.5t67 -22.5t88.5 -12t115 -2.5t115 2.5t88.5 12t67 22.5t46.5 40.5t32.5 58.5t18 84.5t9.5 110.5t2 144t-2 144
t-9.5 110.5t-18 84.5t-32.5 58.5t-46.5 40.5t-67 22.5t-88.5 12t-115 2.5zM61 799q0 170 15 290.5t53.5 215.5t97 153t154.5 96.5t217.5 53t292.5 14.5t292.5 -14.5t217 -53t154.5 -96.5t97 -153t53 -215.5t15 -290.5t-15 -290.5t-53 -215.5t-97 -153.5t-154.5 -97t-217 -53
t-292.5 -14.5t-292.5 14.5t-217.5 53t-154.5 97t-97 153.5t-53.5 215.5t-15 290.5zM748 1720l143 289h409l-307 -289h-245z" />
    <glyph glyph-name="Ocircumflex" unicode="&#xd4;" horiz-adv-x="1781" 
d="M891 1274q-69 0 -115 -2.5t-88.5 -12t-67 -22.5t-46.5 -40.5t-32.5 -58.5t-18 -84.5t-9.5 -110.5t-2 -144t2 -144t9.5 -110.5t18 -84.5t32.5 -58.5t46.5 -40.5t67 -22.5t88.5 -12t115 -2.5t115 2.5t88.5 12t67 22.5t46.5 40.5t32.5 58.5t18 84.5t9.5 110.5t2 144t-2 144
t-9.5 110.5t-18 84.5t-32.5 58.5t-46.5 40.5t-67 22.5t-88.5 12t-115 2.5zM61 799q0 170 15 290.5t53.5 215.5t97 153t154.5 96.5t217.5 53t292.5 14.5t292.5 -14.5t217 -53t154.5 -96.5t97 -153t53 -215.5t15 -290.5t-15 -290.5t-53 -215.5t-97 -153.5t-154.5 -97t-217 -53
t-292.5 -14.5t-292.5 14.5t-217.5 53t-154.5 97t-97 153.5t-53.5 215.5t-15 290.5zM479 1720l281 287h258l280 -287h-227l-174 117h-12l-178 -117h-228z" />
    <glyph glyph-name="Otilde" unicode="&#xd5;" horiz-adv-x="1781" 
d="M891 1274q-69 0 -115 -2.5t-88.5 -12t-67 -22.5t-46.5 -40.5t-32.5 -58.5t-18 -84.5t-9.5 -110.5t-2 -144t2 -144t9.5 -110.5t18 -84.5t32.5 -58.5t46.5 -40.5t67 -22.5t88.5 -12t115 -2.5t115 2.5t88.5 12t67 22.5t46.5 40.5t32.5 58.5t18 84.5t9.5 110.5t2 144t-2 144
t-9.5 110.5t-18 84.5t-32.5 58.5t-46.5 40.5t-67 22.5t-88.5 12t-115 2.5zM61 799q0 170 15 290.5t53.5 215.5t97 153t154.5 96.5t217.5 53t292.5 14.5t292.5 -14.5t217 -53t154.5 -96.5t97 -153t53 -215.5t15 -290.5t-15 -290.5t-53 -215.5t-97 -153.5t-154.5 -97t-217 -53
t-292.5 -14.5t-292.5 14.5t-217.5 53t-154.5 97t-97 153.5t-53.5 215.5t-15 290.5zM502 1751q0 154 61 217.5t209 63.5q62 0 112.5 -18.5t77 -40t59 -40t62.5 -18.5q40 0 61.5 19t33.5 65h143q0 -154 -61 -217.5t-209 -63.5q-62 0 -112.5 18.5t-77.5 40t-59.5 40t-62.5 18.5
q-40 0 -61 -19t-33 -65h-143z" />
    <glyph glyph-name="Odieresis" unicode="&#xd6;" horiz-adv-x="1781" 
d="M891 1274q-69 0 -115 -2.5t-88.5 -12t-67 -22.5t-46.5 -40.5t-32.5 -58.5t-18 -84.5t-9.5 -110.5t-2 -144t2 -144t9.5 -110.5t18 -84.5t32.5 -58.5t46.5 -40.5t67 -22.5t88.5 -12t115 -2.5t115 2.5t88.5 12t67 22.5t46.5 40.5t32.5 58.5t18 84.5t9.5 110.5t2 144t-2 144
t-9.5 110.5t-18 84.5t-32.5 58.5t-46.5 40.5t-67 22.5t-88.5 12t-115 2.5zM61 799q0 170 15 290.5t53.5 215.5t97 153t154.5 96.5t217.5 53t292.5 14.5t292.5 -14.5t217 -53t154.5 -96.5t97 -153t53 -215.5t15 -290.5t-15 -290.5t-53 -215.5t-97 -153.5t-154.5 -97t-217 -53
t-292.5 -14.5t-292.5 14.5t-217.5 53t-154.5 97t-97 153.5t-53.5 215.5t-15 290.5zM502 1720v287h327v-287h-327zM952 1720v287h328v-287h-328z" />
    <glyph glyph-name="multiply" unicode="&#xd7;" horiz-adv-x="1341" 
d="M123 369l303 303l-303 301l246 248l303 -303l301 301l246 -246l-301 -301l301 -301l-246 -248l-301 303l-303 -303z" />
    <glyph glyph-name="Oslash" unicode="&#xd8;" horiz-adv-x="2088" 
d="M1004 1274q-69 0 -115 -2.5t-88.5 -12t-67 -22.5t-46.5 -40.5t-32.5 -58.5t-18 -84.5t-9.5 -110.5t-2 -144q0 -205 18 -295l680 690q-36 48 -108 64t-211 16zM123 -25l190 195q-76 91 -107.5 241.5t-31.5 387.5q0 170 15 290.5t53.5 215.5t97 153t154.5 96.5t217.5 53
t292.5 14.5q226 0 374.5 -29t241.5 -96l123 125h223l-237 -242q57 -92 80.5 -232t23.5 -349q0 -170 -15 -290.5t-53 -215.5t-97 -153.5t-154.5 -97t-217 -53t-292.5 -14.5q-392 0 -566 93l-92 -93h-223zM729 365q39 -25 102 -33t173 -8q69 0 115 2.5t88 12t67 22.5t47 40.5
t32 58.5t17.5 84.5t9.5 110.5t2 144q0 144 -8 223z" />
    <glyph glyph-name="Ugrave" unicode="&#xd9;" horiz-adv-x="1581" 
d="M1499 655q0 -141 -12.5 -240t-45.5 -178t-83 -127t-132 -79.5t-185.5 -43.5t-249.5 -12t-249.5 12t-185.5 43.5t-132.5 79.5t-83.5 126.5t-45.5 178t-12.5 240.5v942h430v-942q0 -81 3 -129t14.5 -89t27.5 -60t51 -33t75 -17t108 -3t108 3t74.5 17t50.5 33t28 60t14.5 89
t2.5 129v942h430v-942zM381 2009h410l143 -289h-246z" />
    <glyph glyph-name="Uacute" unicode="&#xda;" horiz-adv-x="1581" 
d="M1499 655q0 -141 -12.5 -240t-45.5 -178t-83 -127t-132 -79.5t-185.5 -43.5t-249.5 -12t-249.5 12t-185.5 43.5t-132.5 79.5t-83.5 126.5t-45.5 178t-12.5 240.5v942h430v-942q0 -81 3 -129t14.5 -89t27.5 -60t51 -33t75 -17t108 -3t108 3t74.5 17t50.5 33t28 60t14.5 89
t2.5 129v942h430v-942zM647 1720l144 289h409l-307 -289h-246z" />
    <glyph glyph-name="Ucircumflex" unicode="&#xdb;" horiz-adv-x="1581" 
d="M1499 655q0 -141 -12.5 -240t-45.5 -178t-83 -127t-132 -79.5t-185.5 -43.5t-249.5 -12t-249.5 12t-185.5 43.5t-132.5 79.5t-83.5 126.5t-45.5 178t-12.5 240.5v942h430v-942q0 -81 3 -129t14.5 -89t27.5 -60t51 -33t75 -17t108 -3t108 3t74.5 17t50.5 33t28 60t14.5 89
t2.5 129v942h430v-942zM379 1720l280 287h259l280 -287h-227l-174 117h-13l-178 -117h-227z" />
    <glyph glyph-name="Udieresis" unicode="&#xdc;" horiz-adv-x="1581" 
d="M1499 655q0 -141 -12.5 -240t-45.5 -178t-83 -127t-132 -79.5t-185.5 -43.5t-249.5 -12t-249.5 12t-185.5 43.5t-132.5 79.5t-83.5 126.5t-45.5 178t-12.5 240.5v942h430v-942q0 -81 3 -129t14.5 -89t27.5 -60t51 -33t75 -17t108 -3t108 3t74.5 17t50.5 33t28 60t14.5 89
t2.5 129v942h430v-942zM401 1720v287h328v-287h-328zM852 1720v287h328v-287h-328z" />
    <glyph glyph-name="Yacute" unicode="&#xdd;" horiz-adv-x="1562" 
d="M1552 1597l-479 -983h-61v-614h-430v614h-76l-496 983h484l299 -657h12l291 657h456zM655 1720l144 289h409l-307 -289h-246z" />
    <glyph glyph-name="Thorn" unicode="&#xde;" horiz-adv-x="1609" 
d="M102 1638h410v-260h504q110 0 187.5 -9.5t139 -34t99.5 -62.5t62.5 -99.5t34 -139t9.5 -187.5q0 -107 -9 -183t-31.5 -137t-57.5 -99.5t-92.5 -65.5t-130 -40t-174.5 -18h-541v-303h-410v1638zM512 672h393q52 0 83 1.5t57.5 8.5t38.5 17t21 31.5t11 46.5t2 67
q0 46 -2 72.5t-11 50t-21 34t-38.5 18.5t-57.5 9.5t-83 1.5h-393v-358z" />
    <glyph glyph-name="germandbls" unicode="&#xdf;" horiz-adv-x="1552" 
d="M768 1376q-63 0 -100 -1.5t-68.5 -7.5t-46.5 -14.5t-25.5 -27t-13 -40t-2.5 -58.5v-1227h-410v1225q0 108 19 180t61.5 124.5t122 80.5t189 40.5t274.5 12.5q133 0 227.5 -8t169 -28.5t120 -51.5t75.5 -82t41.5 -116t11.5 -156q0 -166 -73.5 -254.5t-235.5 -114.5
q191 -19 278.5 -122.5t87.5 -309.5q0 -130 -18 -208t-68.5 -127.5t-130.5 -67t-213 -17.5h-340v369h168q63 0 93.5 4t50.5 22.5t24 46t4 84.5q0 58 -4 86t-24 47t-50.5 23t-93.5 4h-161v328h145q48 0 71 4t38.5 24t18.5 50.5t3 93.5q0 47 -2 74.5t-11 51t-21 34.5t-39 18.5
t-58 9.5t-84 2z" />
    <glyph glyph-name="agrave" unicode="&#xe0;" horiz-adv-x="1349" 
d="M698 1253q117 0 200.5 -7.5t149 -27.5t106.5 -50.5t67 -79.5t36.5 -111t10.5 -150v-827h-389v168q-31 -98 -113.5 -145t-228.5 -48q-98 -3 -167.5 2t-124.5 21.5t-89 43t-56 71.5t-30.5 102.5t-8.5 138.5q0 77 8.5 132t30 98t55 70t87.5 44t122.5 24t165.5 7l349 2v70
q0 49 -4 75.5t-13 47t-32 28.5t-52.5 11.5t-83.5 3.5q-50 0 -80 -1.5t-55.5 -8.5t-37 -16t-19.5 -29t-9.5 -43t-0.5 -62h-390v43q0 84 10.5 143t38.5 105.5t70 75t111 47t156 25.5t210 7zM285 1640h409l144 -288h-246zM471 350q0 -29 4 -45t16.5 -29t37 -16t65 -6.5
t100.5 0.5q97 2 141 34.5t44 102.5v53l-185 -2q-66 0 -101 -2t-63.5 -6t-39 -15.5t-15 -26.5t-4.5 -42z" />
    <glyph glyph-name="aacute" unicode="&#xe1;" horiz-adv-x="1349" 
d="M698 1253q117 0 200.5 -7.5t149 -27.5t106.5 -50.5t67 -79.5t36.5 -111t10.5 -150v-827h-389v168q-31 -98 -113.5 -145t-228.5 -48q-98 -3 -167.5 2t-124.5 21.5t-89 43t-56 71.5t-30.5 102.5t-8.5 138.5q0 77 8.5 132t30 98t55 70t87.5 44t122.5 24t165.5 7l349 2v70
q0 49 -4 75.5t-13 47t-32 28.5t-52.5 11.5t-83.5 3.5q-50 0 -80 -1.5t-55.5 -8.5t-37 -16t-19.5 -29t-9.5 -43t-0.5 -62h-390v43q0 84 10.5 143t38.5 105.5t70 75t111 47t156 25.5t210 7zM471 350q0 -29 4 -45t16.5 -29t37 -16t65 -6.5t100.5 0.5q97 2 141 34.5t44 102.5v53
l-185 -2q-66 0 -101 -2t-63.5 -6t-39 -15.5t-15 -26.5t-4.5 -42zM551 1352l143 288h410l-307 -288h-246z" />
    <glyph glyph-name="acircumflex" unicode="&#xe2;" horiz-adv-x="1349" 
d="M698 1253q117 0 200.5 -7.5t149 -27.5t106.5 -50.5t67 -79.5t36.5 -111t10.5 -150v-827h-389v168q-31 -98 -113.5 -145t-228.5 -48q-98 -3 -167.5 2t-124.5 21.5t-89 43t-56 71.5t-30.5 102.5t-8.5 138.5q0 77 8.5 132t30 98t55 70t87.5 44t122.5 24t165.5 7l349 2v70
q0 49 -4 75.5t-13 47t-32 28.5t-52.5 11.5t-83.5 3.5q-50 0 -80 -1.5t-55.5 -8.5t-37 -16t-19.5 -29t-9.5 -43t-0.5 -62h-390v43q0 84 10.5 143t38.5 105.5t70 75t111 47t156 25.5t210 7zM283 1352l280 286h258l281 -286h-228l-174 116h-12l-178 -116h-227zM471 350
q0 -29 4 -45t16.5 -29t37 -16t65 -6.5t100.5 0.5q97 2 141 34.5t44 102.5v53l-185 -2q-66 0 -101 -2t-63.5 -6t-39 -15.5t-15 -26.5t-4.5 -42z" />
    <glyph glyph-name="atilde" unicode="&#xe3;" horiz-adv-x="1349" 
d="M698 1253q117 0 200.5 -7.5t149 -27.5t106.5 -50.5t67 -79.5t36.5 -111t10.5 -150v-827h-389v168q-31 -98 -113.5 -145t-228.5 -48q-98 -3 -167.5 2t-124.5 21.5t-89 43t-56 71.5t-30.5 102.5t-8.5 138.5q0 77 8.5 132t30 98t55 70t87.5 44t122.5 24t165.5 7l349 2v70
q0 49 -4 75.5t-13 47t-32 28.5t-52.5 11.5t-83.5 3.5q-50 0 -80 -1.5t-55.5 -8.5t-37 -16t-19.5 -29t-9.5 -43t-0.5 -62h-390v43q0 84 10.5 143t38.5 105.5t70 75t111 47t156 25.5t210 7zM305 1382q0 154 61 217.5t209 63.5q62 0 112.5 -18.5t77.5 -40t59.5 -40t62.5 -18.5
q40 0 61 19t33 65h143q0 -154 -61 -217t-209 -63q-62 0 -112.5 18t-77 40t-59 40t-62.5 18q-40 0 -61 -19t-33 -65h-144zM471 350q0 -29 4 -45t16.5 -29t37 -16t65 -6.5t100.5 0.5q97 2 141 34.5t44 102.5v53l-185 -2q-66 0 -101 -2t-63.5 -6t-39 -15.5t-15 -26.5t-4.5 -42z
" />
    <glyph glyph-name="adieresis" unicode="&#xe4;" horiz-adv-x="1349" 
d="M698 1253q117 0 200.5 -7.5t149 -27.5t106.5 -50.5t67 -79.5t36.5 -111t10.5 -150v-827h-389v168q-31 -98 -113.5 -145t-228.5 -48q-98 -3 -167.5 2t-124.5 21.5t-89 43t-56 71.5t-30.5 102.5t-8.5 138.5q0 77 8.5 132t30 98t55 70t87.5 44t122.5 24t165.5 7l349 2v70
q0 49 -4 75.5t-13 47t-32 28.5t-52.5 11.5t-83.5 3.5q-50 0 -80 -1.5t-55.5 -8.5t-37 -16t-19.5 -29t-9.5 -43t-0.5 -62h-390v43q0 84 10.5 143t38.5 105.5t70 75t111 47t156 25.5t210 7zM305 1352v286h328v-286h-328zM471 350q0 -29 4 -45t16.5 -29t37 -16t65 -6.5
t100.5 0.5q97 2 141 34.5t44 102.5v53l-185 -2q-66 0 -101 -2t-63.5 -6t-39 -15.5t-15 -26.5t-4.5 -42zM756 1352v286h327v-286h-327z" />
    <glyph glyph-name="aring" unicode="&#xe5;" horiz-adv-x="1349" 
d="M698 1253q117 0 200.5 -7.5t149 -27.5t106.5 -50.5t67 -79.5t36.5 -111t10.5 -150v-827h-389v168q-31 -98 -113.5 -145t-228.5 -48q-98 -3 -167.5 2t-124.5 21.5t-89 43t-56 71.5t-30.5 102.5t-8.5 138.5q0 77 8.5 132t30 98t55 70t87.5 44t122.5 24t165.5 7l349 2v70
q0 49 -4 75.5t-13 47t-32 28.5t-52.5 11.5t-83.5 3.5q-50 0 -80 -1.5t-55.5 -8.5t-37 -16t-19.5 -29t-9.5 -43t-0.5 -62h-390v43q0 84 10.5 143t38.5 105.5t70 75t111 47t156 25.5t210 7zM459 1509q0 89 52 121.5t185 32.5q130 0 182 -32.5t52 -121.5t-52 -123t-182 -34
q-132 0 -184.5 33.5t-52.5 123.5zM471 350q0 -29 4 -45t16.5 -29t37 -16t65 -6.5t100.5 0.5q97 2 141 34.5t44 102.5v53l-185 -2q-66 0 -101 -2t-63.5 -6t-39 -15.5t-15 -26.5t-4.5 -42zM602 1507q0 -53 16 -67.5t76 -14.5t76 14.5t16 67.5t-16 67.5t-76 14.5t-76 -14.5
t-16 -67.5z" />
    <glyph glyph-name="ae" unicode="&#xe6;" horiz-adv-x="2185" 
d="M698 1253q332 0 451 -145q91 145 350 145q126 0 216.5 -10.5t162.5 -37t117 -68t75 -108t42 -151.5t12 -204v-191h-838q4 -76 14.5 -118t37 -66t62 -30.5t101.5 -6.5q119 0 161 26.5t42 102.5h410q0 -85 -11.5 -146t-40.5 -109t-72.5 -77.5t-115 -49t-160.5 -27
t-215 -7.5q-208 0 -329.5 65.5t-170.5 205.5q-15 -138 -128.5 -203.5t-333.5 -67.5q-98 -3 -167.5 2t-124.5 21.5t-89 43t-56 71.5t-30.5 102.5t-8.5 138.5q0 77 8.5 132t30 98t55 70t87.5 44t122.5 24t165.5 7l349 2v70q0 60 -5 90t-27 49t-54 23t-99 4q-50 0 -79.5 -1.5
t-55 -8.5t-37.5 -16.5t-20 -29t-9.5 -43t-0.5 -61.5h-390v43q0 84 10.5 143t38.5 105.5t70 75t111 47t156 25.5t210 7zM471 350q0 -47 15.5 -66t59.5 -25.5t148 -4.5q106 2 133 10q49 25 52 86v94l-185 -2q-65 0 -100 -2t-63.5 -6t-39 -15.5t-15.5 -26.5t-5 -42zM1288 770
h426q-1 48 -3.5 77t-12 53t-22 35.5t-38.5 19.5t-56.5 10t-80.5 2q-63 0 -98 -6t-61.5 -27.5t-37.5 -59.5t-16 -104z" />
    <glyph glyph-name="ccedilla" unicode="&#xe7;" horiz-adv-x="1386" 
d="M922 -254q0 -69 -29 -106.5t-100 -55.5t-201 -18h-57v94q119 0 158.5 16t39.5 60v20q0 44 -39.5 60t-158.5 16v94l110 49q-119 3 -205 16.5t-153 44.5t-109 77t-69 119t-37.5 164t-10.5 218q0 132 11.5 225.5t41.5 167.5t76 119t120 74.5t168 41t227 11.5
q125 0 213.5 -9.5t159 -34.5t114.5 -63.5t74 -101t43 -141.5t16 -190h-410q-2 57 -5 91t-12.5 63t-21.5 42t-37.5 23t-55 12t-78.5 2q-57 0 -91 -3t-63 -17t-42.5 -33t-23.5 -60.5t-12 -89.5t-2 -129t2 -129t12 -89t23.5 -60t42.5 -33t63 -17t91 -3q49 0 78 2.5t54 12.5
t37 23.5t21.5 43t13 63.5t6.5 92h410q-3 -109 -15 -186.5t-39.5 -140t-68.5 -101.5t-106 -65.5t-148 -38t-198 -13.5l-33 -55q114 -12 159.5 -53t45.5 -121z" />
    <glyph glyph-name="egrave" unicode="&#xe8;" horiz-adv-x="1372" 
d="M1300 391q-2 -86 -14.5 -146.5t-41.5 -108.5t-72.5 -77.5t-113.5 -49t-159 -27t-213 -7.5q-129 0 -220.5 11.5t-163.5 41t-116.5 74.5t-73.5 119t-40 167.5t-11 225.5t11 225.5t40 167.5t73.5 119t116.5 74.5t163.5 41t220.5 11.5q125 0 214.5 -10t160.5 -36t116 -66
t75 -104.5t43 -146t16 -196.5v-190h-838q3 -83 12.5 -129t36 -72.5t62.5 -33.5t104 -7q121 0 162 26t41 103h409zM279 1640h409l143 -288h-245zM475 791h426q-2 62 -9 94.5t-32.5 52.5t-62 24.5t-109.5 4.5q-62 0 -96.5 -5.5t-61 -24t-38.5 -53t-17 -93.5z" />
    <glyph glyph-name="eacute" unicode="&#xe9;" horiz-adv-x="1372" 
d="M1300 391q-2 -86 -14.5 -146.5t-41.5 -108.5t-72.5 -77.5t-113.5 -49t-159 -27t-213 -7.5q-129 0 -220.5 11.5t-163.5 41t-116.5 74.5t-73.5 119t-40 167.5t-11 225.5t11 225.5t40 167.5t73.5 119t116.5 74.5t163.5 41t220.5 11.5q125 0 214.5 -10t160.5 -36t116 -66
t75 -104.5t43 -146t16 -196.5v-190h-838q3 -83 12.5 -129t36 -72.5t62.5 -33.5t104 -7q121 0 162 26t41 103h409zM475 791h426q-2 62 -9 94.5t-32.5 52.5t-62 24.5t-109.5 4.5q-62 0 -96.5 -5.5t-61 -24t-38.5 -53t-17 -93.5zM545 1352l143 288h410l-307 -288h-246z" />
    <glyph glyph-name="ecircumflex" unicode="&#xea;" horiz-adv-x="1372" 
d="M1300 391q-2 -86 -14.5 -146.5t-41.5 -108.5t-72.5 -77.5t-113.5 -49t-159 -27t-213 -7.5q-129 0 -220.5 11.5t-163.5 41t-116.5 74.5t-73.5 119t-40 167.5t-11 225.5t11 225.5t40 167.5t73.5 119t116.5 74.5t163.5 41t220.5 11.5q125 0 214.5 -10t160.5 -36t116 -66
t75 -104.5t43 -146t16 -196.5v-190h-838q3 -83 12.5 -129t36 -72.5t62.5 -33.5t104 -7q121 0 162 26t41 103h409zM276 1352l281 286h258l281 -286h-228l-174 116h-12l-178 -116h-228zM475 791h426q-2 62 -9 94.5t-32.5 52.5t-62 24.5t-109.5 4.5q-62 0 -96.5 -5.5t-61 -24
t-38.5 -53t-17 -93.5z" />
    <glyph glyph-name="edieresis" unicode="&#xeb;" horiz-adv-x="1372" 
d="M1300 391q-2 -86 -14.5 -146.5t-41.5 -108.5t-72.5 -77.5t-113.5 -49t-159 -27t-213 -7.5q-129 0 -220.5 11.5t-163.5 41t-116.5 74.5t-73.5 119t-40 167.5t-11 225.5t11 225.5t40 167.5t73.5 119t116.5 74.5t163.5 41t220.5 11.5q125 0 214.5 -10t160.5 -36t116 -66
t75 -104.5t43 -146t16 -196.5v-190h-838q3 -83 12.5 -129t36 -72.5t62.5 -33.5t104 -7q121 0 162 26t41 103h409zM299 1352v286h328v-286h-328zM475 791h426q-2 62 -9 94.5t-32.5 52.5t-62 24.5t-109.5 4.5q-62 0 -96.5 -5.5t-61 -24t-38.5 -53t-17 -93.5zM750 1352v286h327
v-286h-327z" />
    <glyph glyph-name="igrave" unicode="&#xec;" horiz-adv-x="593" 
d="M102 1229h390v-1229h-390v1229zM-113 1640h410l143 -288h-245z" />
    <glyph glyph-name="iacute" unicode="&#xed;" horiz-adv-x="593" 
d="M102 1229h390v-1229h-390v1229zM154 1352l143 288h410l-308 -288h-245z" />
    <glyph glyph-name="icircumflex" unicode="&#xee;" horiz-adv-x="593" 
d="M102 1229h390v-1229h-390v1229zM-115 1352l281 286h258l281 -286h-228l-174 116h-12l-178 -116h-228z" />
    <glyph glyph-name="idieresis" unicode="&#xef;" horiz-adv-x="593" 
d="M102 1229h390v-1229h-390v1229zM-92 1352v286h328v-286h-328zM358 1352v286h328v-286h-328z" />
    <glyph glyph-name="eth" unicode="&#xf0;" horiz-adv-x="1368" 
d="M920 1638q57 -63 100 -120h231v-185h-110q166 -299 166 -708q0 -134 -11 -229t-39.5 -170t-72 -121.5t-114.5 -76.5t-160.5 -41.5t-215.5 -11.5q-130 0 -223 10t-166 35.5t-118 64.5t-74 103t-40.5 144.5t-11.5 193.5v176q0 163 19 261t71.5 160t135.5 84t221 22
q162 0 256 -51.5t135 -163.5q-24 154 -100 295h-305v184h176q-70 80 -140 145h390zM451 535q0 -54 2 -86t12 -59.5t23.5 -40.5t42.5 -22.5t63.5 -11.5t91.5 -2q56 0 90 2t62.5 11.5t42 22.5t23 40.5t12 59.5t2.5 86v110q-2 128 -57 186t-175 58q-57 0 -91.5 -2t-63.5 -10.5
t-42.5 -20t-23.5 -36.5t-12 -53.5t-2 -76.5v-155z" />
    <glyph glyph-name="ntilde" unicode="&#xf1;" horiz-adv-x="1349" 
d="M102 1229h390v-193q29 112 118.5 164.5t251.5 52.5q84 0 143 -8t105.5 -29.5t75 -53.5t47.5 -85t26 -120t7 -162l2 -795h-389v696q0 56 -1.5 89t-8.5 62t-17 42t-31.5 23t-46.5 12t-67 2q-112 0 -162.5 -55t-50.5 -175l-2 -696h-390v1229zM272 1382q0 154 61.5 217.5
t209.5 63.5q62 0 112.5 -18.5t77 -40t59 -40t62.5 -18.5q40 0 61 19t33 65h144q0 -153 -61.5 -216.5t-209.5 -63.5q-62 0 -112.5 18t-77 40t-59 40t-62.5 18q-40 0 -61 -19t-33 -65h-144z" />
    <glyph glyph-name="ograve" unicode="&#xf2;" horiz-adv-x="1409" 
d="M705 946q-57 0 -91 -3t-63 -17t-42.5 -33t-23.5 -60.5t-12 -89.5t-2 -129t2 -129t12 -89t23.5 -60t42.5 -33t63 -17t91 -3t91 3t63 17t42 33t23 60t12 89t2 129t-2 129t-12 89.5t-23 60.5t-42 33t-63 17t-91 3zM61 614q0 132 11.5 225.5t41.5 167.5t76 119t120 74.5
t168 41t227 11.5t226.5 -11.5t168 -41t120 -74.5t75.5 -119t41.5 -167.5t11.5 -225.5t-11.5 -225.5t-41.5 -167.5t-75.5 -119t-120 -74.5t-168 -41t-226.5 -11.5t-227 11.5t-168 41t-120 74.5t-76 119t-41.5 167.5t-11.5 225.5zM295 1640h410l143 -288h-246z" />
    <glyph glyph-name="oacute" unicode="&#xf3;" horiz-adv-x="1409" 
d="M705 946q-57 0 -91 -3t-63 -17t-42.5 -33t-23.5 -60.5t-12 -89.5t-2 -129t2 -129t12 -89t23.5 -60t42.5 -33t63 -17t91 -3t91 3t63 17t42 33t23 60t12 89t2 129t-2 129t-12 89.5t-23 60.5t-42 33t-63 17t-91 3zM61 614q0 132 11.5 225.5t41.5 167.5t76 119t120 74.5
t168 41t227 11.5t226.5 -11.5t168 -41t120 -74.5t75.5 -119t41.5 -167.5t11.5 -225.5t-11.5 -225.5t-41.5 -167.5t-75.5 -119t-120 -74.5t-168 -41t-226.5 -11.5t-227 11.5t-168 41t-120 74.5t-76 119t-41.5 167.5t-11.5 225.5zM561 1352l144 288h409l-307 -288h-246z" />
    <glyph glyph-name="ocircumflex" unicode="&#xf4;" horiz-adv-x="1409" 
d="M705 946q-57 0 -91 -3t-63 -17t-42.5 -33t-23.5 -60.5t-12 -89.5t-2 -129t2 -129t12 -89t23.5 -60t42.5 -33t63 -17t91 -3t91 3t63 17t42 33t23 60t12 89t2 129t-2 129t-12 89.5t-23 60.5t-42 33t-63 17t-91 3zM61 614q0 132 11.5 225.5t41.5 167.5t76 119t120 74.5
t168 41t227 11.5t226.5 -11.5t168 -41t120 -74.5t75.5 -119t41.5 -167.5t11.5 -225.5t-11.5 -225.5t-41.5 -167.5t-75.5 -119t-120 -74.5t-168 -41t-226.5 -11.5t-227 11.5t-168 41t-120 74.5t-76 119t-41.5 167.5t-11.5 225.5zM293 1352l280 286h258l281 -286h-227
l-174 116h-13l-178 -116h-227z" />
    <glyph glyph-name="otilde" unicode="&#xf5;" horiz-adv-x="1409" 
d="M705 946q-57 0 -91 -3t-63 -17t-42.5 -33t-23.5 -60.5t-12 -89.5t-2 -129t2 -129t12 -89t23.5 -60t42.5 -33t63 -17t91 -3t91 3t63 17t42 33t23 60t12 89t2 129t-2 129t-12 89.5t-23 60.5t-42 33t-63 17t-91 3zM61 614q0 132 11.5 225.5t41.5 167.5t76 119t120 74.5
t168 41t227 11.5t226.5 -11.5t168 -41t120 -74.5t75.5 -119t41.5 -167.5t11.5 -225.5t-11.5 -225.5t-41.5 -167.5t-75.5 -119t-120 -74.5t-168 -41t-226.5 -11.5t-227 11.5t-168 41t-120 74.5t-76 119t-41.5 167.5t-11.5 225.5zM315 1382q0 154 61.5 217.5t209.5 63.5
q62 0 112.5 -18.5t77 -40t59 -40t62.5 -18.5q40 0 61 19t33 65h144q0 -153 -61.5 -216.5t-209.5 -63.5q-62 0 -112.5 18t-77 40t-59 40t-62.5 18q-40 0 -61 -19t-33 -65h-144z" />
    <glyph glyph-name="odieresis" unicode="&#xf6;" horiz-adv-x="1409" 
d="M705 946q-57 0 -91 -3t-63 -17t-42.5 -33t-23.5 -60.5t-12 -89.5t-2 -129t2 -129t12 -89t23.5 -60t42.5 -33t63 -17t91 -3t91 3t63 17t42 33t23 60t12 89t2 129t-2 129t-12 89.5t-23 60.5t-42 33t-63 17t-91 3zM61 614q0 132 11.5 225.5t41.5 167.5t76 119t120 74.5
t168 41t227 11.5t226.5 -11.5t168 -41t120 -74.5t75.5 -119t41.5 -167.5t11.5 -225.5t-11.5 -225.5t-41.5 -167.5t-75.5 -119t-120 -74.5t-168 -41t-226.5 -11.5t-227 11.5t-168 41t-120 74.5t-76 119t-41.5 167.5t-11.5 225.5zM315 1352v286h328v-286h-328zM766 1352v286
h328v-286h-328z" />
    <glyph glyph-name="divide" unicode="&#xf7;" horiz-adv-x="1447" 
d="M123 799h1202v-287h-1202v287zM520 82v307h410v-307h-410zM520 922v307h410v-307h-410z" />
    <glyph glyph-name="oslash" unicode="&#xf8;" horiz-adv-x="1794" 
d="M858 946q-57 0 -91 -3t-63 -17t-42 -33t-23 -60.5t-12 -89.5t-2 -129q0 -71 4 -157l436 415q-21 45 -66.5 59.5t-140.5 14.5zM123 -25l182 175q-49 71 -69.5 182t-20.5 282q0 132 11.5 225.5t41.5 167.5t75.5 119t120 74.5t168 41t226.5 11.5q187 0 305 -24.5t189 -83.5
l114 108h205l-233 -221q63 -129 63 -418q0 -132 -11.5 -225.5t-41.5 -167.5t-75.5 -119t-120 -74.5t-168 -41t-226.5 -11.5q-314 0 -448 78l-82 -78h-205zM684 313q42 -30 174 -30q57 0 91 3t63 17t42.5 33t23.5 60t12 89t2 129v86z" />
    <glyph glyph-name="ugrave" unicode="&#xf9;" horiz-adv-x="1329" 
d="M1227 0h-389v193q-28 -112 -113 -165t-238 -53q-84 0 -143 8t-105.5 29.5t-75 54t-47 85.5t-25.5 120t-7 162l-2 795h389v-703q0 -81 4.5 -120.5t25.5 -65.5t53.5 -31.5t98.5 -5.5q96 0 139.5 51t43.5 164l2 711h389v-1229zM246 1640h409l144 -288h-246z" />
    <glyph glyph-name="uacute" unicode="&#xfa;" horiz-adv-x="1329" 
d="M1227 0h-389v193q-28 -112 -113 -165t-238 -53q-84 0 -143 8t-105.5 29.5t-75 54t-47 85.5t-25.5 120t-7 162l-2 795h389v-703q0 -81 4.5 -120.5t25.5 -65.5t53.5 -31.5t98.5 -5.5q96 0 139.5 51t43.5 164l2 711h389v-1229zM512 1352l143 288h410l-307 -288h-246z" />
    <glyph glyph-name="ucircumflex" unicode="&#xfb;" horiz-adv-x="1329" 
d="M1227 0h-389v193q-28 -112 -113 -165t-238 -53q-84 0 -143 8t-105.5 29.5t-75 54t-47 85.5t-25.5 120t-7 162l-2 795h389v-703q0 -81 4.5 -120.5t25.5 -65.5t53.5 -31.5t98.5 -5.5q96 0 139.5 51t43.5 164l2 711h389v-1229zM244 1352l280 286h258l281 -286h-227l-174 116
h-13l-178 -116h-227z" />
    <glyph glyph-name="udieresis" unicode="&#xfc;" horiz-adv-x="1329" 
d="M1227 0h-389v193q-28 -112 -113 -165t-238 -53q-84 0 -143 8t-105.5 29.5t-75 54t-47 85.5t-25.5 120t-7 162l-2 795h389v-703q0 -81 4.5 -120.5t25.5 -65.5t53.5 -31.5t98.5 -5.5q96 0 139.5 51t43.5 164l2 711h389v-1229zM266 1352v286h328v-286h-328zM717 1352v286
h327v-286h-327z" />
    <glyph glyph-name="yacute" unicode="&#xfd;" horiz-adv-x="1302" 
d="M936 -96q-21 -77 -47 -129t-63 -89.5t-92.5 -57.5t-125.5 -29t-172 -9h-280v328h231q117 0 149.5 14t49.5 74l10 35h-246l-340 1188h406l248 -910h12l235 910h381zM526 1352l144 288h409l-307 -288h-246z" />
    <glyph glyph-name="thorn" unicode="&#xfe;" horiz-adv-x="1400" 
d="M102 -410v2048h390v-667q30 143 122.5 212.5t266.5 69.5q98 0 167 -10t121.5 -37t84 -65.5t51.5 -103.5t27 -143t7 -192v-176q0 -136 -12.5 -226.5t-40.5 -156.5t-80.5 -101.5t-124.5 -51t-180 -15.5q-180 0 -277 63.5t-132 211.5v-660h-390zM492 436q0 -66 58 -99.5
t167 -33.5q57 0 91 2t63 12t42 23.5t23 43t12 63.5t2 92v155q0 56 -2 90t-11 62.5t-21.5 42t-39 23t-57.5 12t-82 2.5q-128 0 -186.5 -56t-58.5 -180v-254z" />
    <glyph glyph-name="ydieresis" unicode="&#xff;" horiz-adv-x="1302" 
d="M936 -96q-21 -77 -47 -129t-63 -89.5t-92.5 -57.5t-125.5 -29t-172 -9h-280v328h231q117 0 149.5 14t49.5 74l10 35h-246l-340 1188h406l248 -910h12l235 910h381zM281 1352v286h327v-286h-327zM731 1352v286h328v-286h-328z" />
    <glyph glyph-name="Amacron" unicode="&#x100;" horiz-adv-x="1771" 
d="M1249 1597l512 -1597h-491l-86 311h-615l-96 -311h-463l527 1597h712zM553 1741v184h655v-184h-655zM680 659h397l-190 590h-13z" />
    <glyph glyph-name="amacron" unicode="&#x101;" horiz-adv-x="1349" 
d="M698 1253q117 0 200.5 -7.5t149 -27.5t106.5 -50.5t67 -79.5t36.5 -111t10.5 -150v-827h-389v168q-31 -98 -113.5 -145t-228.5 -48q-98 -3 -167.5 2t-124.5 21.5t-89 43t-56 71.5t-30.5 102.5t-8.5 138.5q0 77 8.5 132t30 98t55 70t87.5 44t122.5 24t165.5 7l349 2v70
q0 49 -4 75.5t-13 47t-32 28.5t-52.5 11.5t-83.5 3.5q-50 0 -80 -1.5t-55.5 -8.5t-37 -16t-19.5 -29t-9.5 -43t-0.5 -62h-390v43q0 84 10.5 143t38.5 105.5t70 75t111 47t156 25.5t210 7zM367 1372v184h655v-184h-655zM471 350q0 -29 4 -45t16.5 -29t37 -16t65 -6.5
t100.5 0.5q97 2 141 34.5t44 102.5v53l-185 -2q-66 0 -101 -2t-63.5 -6t-39 -15.5t-15 -26.5t-4.5 -42z" />
    <glyph glyph-name="Abreve" unicode="&#x102;" horiz-adv-x="1771" 
d="M1249 1597l512 -1597h-491l-86 311h-615l-96 -311h-463l527 1597h712zM573 2007l185 -2q0 -131 23 -169t102 -38q53 0 77.5 16.5t34 58.5t9.5 134h184q0 -65 -4.5 -107.5t-17.5 -77t-33 -53.5t-56.5 -32t-81 -17t-112.5 -4q-82 0 -132.5 7t-88 24t-55.5 52t-26 83t-8 125
zM680 659h397l-190 590h-13z" />
    <glyph glyph-name="abreve" unicode="&#x103;" horiz-adv-x="1349" 
d="M698 1253q117 0 200.5 -7.5t149 -27.5t106.5 -50.5t67 -79.5t36.5 -111t10.5 -150v-827h-389v168q-31 -98 -113.5 -145t-228.5 -48q-98 -3 -167.5 2t-124.5 21.5t-89 43t-56 71.5t-30.5 102.5t-8.5 138.5q0 77 8.5 132t30 98t55 70t87.5 44t122.5 24t165.5 7l349 2v70
q0 49 -4 75.5t-13 47t-32 28.5t-52.5 11.5t-83.5 3.5q-50 0 -80 -1.5t-55.5 -8.5t-37 -16t-19.5 -29t-9.5 -43t-0.5 -62h-390v43q0 84 10.5 143t38.5 105.5t70 75t111 47t156 25.5t210 7zM387 1638l184 -2q0 -131 23 -168.5t102 -37.5q77 0 99 38t22 170h184
q0 -55 -3.5 -93.5t-11.5 -71t-24 -53t-37.5 -35.5t-55.5 -22.5t-74.5 -11t-98.5 -3.5q-68 0 -113.5 4t-82 16.5t-57 32t-34 53.5t-18 77t-4.5 107zM471 350q0 -29 4 -45t16.5 -29t37 -16t65 -6.5t100.5 0.5q97 2 141 34.5t44 102.5v53l-185 -2q-66 0 -101 -2t-63.5 -6
t-39 -15.5t-15 -26.5t-4.5 -42z" />
    <glyph glyph-name="Aogonek" unicode="&#x104;" horiz-adv-x="1771" 
d="M1249 1597l512 -1597q-97 -96 -137.5 -155.5t-40.5 -108.5q0 -46 31 -58t106 7v-95q-41 -24 -131 -24q-102 0 -148 36.5t-46 121.5q0 64 61 126t211 150h-397l-86 311h-615l-96 -311h-463l527 1597h712zM680 659h397l-190 590h-13z" />
    <glyph glyph-name="aogonek" unicode="&#x105;" horiz-adv-x="1349" 
d="M698 1253q117 0 200.5 -7.5t149 -27.5t106.5 -50.5t67 -79.5t36.5 -111t10.5 -150v-827q-97 -96 -137.5 -155.5t-40.5 -108.5q0 -46 31 -58t106 7v-95q-41 -24 -131 -24q-103 0 -149 36.5t-46 121.5q0 64 61.5 126t211.5 150h-295v168q-31 -98 -113.5 -145t-228.5 -48
q-98 -3 -167.5 2t-124.5 21.5t-89 43t-56 71.5t-30.5 102.5t-8.5 138.5q0 77 8.5 132t30 98t55 70t87.5 44t122.5 24t165.5 7l349 2v70q0 49 -4 75.5t-13 47t-32 28.5t-52.5 11.5t-83.5 3.5q-50 0 -80 -1.5t-55.5 -8.5t-37 -16t-19.5 -29t-9.5 -43t-0.5 -62h-390v43
q0 84 10.5 143t38.5 105.5t70 75t111 47t156 25.5t210 7zM471 350q0 -29 4 -45t16.5 -29t37 -16t65 -6.5t100.5 0.5q97 2 141 34.5t44 102.5v53l-185 -2q-66 0 -101 -2t-63.5 -6t-39 -15.5t-15 -26.5t-4.5 -42z" />
    <glyph glyph-name="Cacute" unicode="&#x106;" horiz-adv-x="1751" 
d="M1690 678q1 -145 -13 -247.5t-51 -183.5t-94.5 -131t-151.5 -83t-213.5 -45.5t-287.5 -12.5t-287.5 15t-214 53t-152.5 96.5t-96.5 153.5t-53 215.5t-14.5 290.5t14.5 290.5t53 215.5t96.5 153.5t152.5 96.5t214 52.5t287.5 14.5q126 0 223 -7t179.5 -24t142 -42.5
t107 -66t77 -91.5t49 -122t27 -154t6.5 -191h-451q1 85 -2 136t-17.5 94t-35.5 63.5t-66 35t-97.5 18t-141.5 3.5t-142.5 -4.5t-99 -24.5t-66.5 -47.5t-36.5 -86t-19 -127.5t-3.5 -185t3.5 -185t19 -127.5t36.5 -86t66.5 -47.5t99 -24.5t142.5 -4.5t141.5 3.5t97.5 18t66 35
t35.5 64.5t17.5 95.5t2 137.5h451zM774 1718l144 289h409l-307 -289h-246z" />
    <glyph glyph-name="cacute" unicode="&#x107;" horiz-adv-x="1386" 
d="M705 -25q-133 0 -227 11.5t-168 41t-120 74.5t-76 119t-41.5 167.5t-11.5 225.5t11.5 225.5t41.5 167.5t76 119t120 74.5t168 41t227 11.5q125 0 213.5 -9.5t159 -34.5t114.5 -63.5t74 -101t43 -141.5t16 -190h-410q-2 57 -5 91t-12.5 63t-21.5 42t-37.5 23t-55 12
t-78.5 2q-57 0 -91 -3t-63 -17t-42.5 -33t-23.5 -60.5t-12 -89.5t-2 -129t2 -129t12 -89t23.5 -60t42.5 -33t63 -17t91 -3q49 0 78 2.5t54 12.5t37 23.5t21.5 43t13 63.5t6.5 92h410q-3 -112 -15.5 -192t-42 -143t-74 -101.5t-115 -63.5t-159.5 -35t-214 -10zM561 1352
l144 288h409l-307 -288h-246z" />
    <glyph glyph-name="Ccaron" unicode="&#x10c;" horiz-adv-x="1751" 
d="M1690 678q1 -145 -13 -247.5t-51 -183.5t-94.5 -131t-151.5 -83t-213.5 -45.5t-287.5 -12.5t-287.5 15t-214 53t-152.5 96.5t-96.5 153.5t-53 215.5t-14.5 290.5t14.5 290.5t53 215.5t96.5 153.5t152.5 96.5t214 52.5t287.5 14.5q126 0 223 -7t179.5 -24t142 -42.5
t107 -66t77 -91.5t49 -122t27 -154t6.5 -191h-451q1 85 -2 136t-17.5 94t-35.5 63.5t-66 35t-97.5 18t-141.5 3.5t-142.5 -4.5t-99 -24.5t-66.5 -47.5t-36.5 -86t-19 -127.5t-3.5 -185t3.5 -185t19 -127.5t36.5 -86t66.5 -47.5t99 -24.5t142.5 -4.5t141.5 3.5t97.5 18t66 35
t35.5 64.5t17.5 95.5t2 137.5h451zM506 2005h227l178 -117h13l174 117h227l-281 -287h-258z" />
    <glyph glyph-name="ccaron" unicode="&#x10d;" horiz-adv-x="1386" 
d="M705 -25q-133 0 -227 11.5t-168 41t-120 74.5t-76 119t-41.5 167.5t-11.5 225.5t11.5 225.5t41.5 167.5t76 119t120 74.5t168 41t227 11.5q125 0 213.5 -9.5t159 -34.5t114.5 -63.5t74 -101t43 -141.5t16 -190h-410q-2 57 -5 91t-12.5 63t-21.5 42t-37.5 23t-55 12
t-78.5 2q-57 0 -91 -3t-63 -17t-42.5 -33t-23.5 -60.5t-12 -89.5t-2 -129t2 -129t12 -89t23.5 -60t42.5 -33t63 -17t91 -3q49 0 78 2.5t54 12.5t37 23.5t21.5 43t13 63.5t6.5 92h410q-3 -112 -15.5 -192t-42 -143t-74 -101.5t-115 -63.5t-159.5 -35t-214 -10zM293 1638h227
l178 -116h13l174 116h227l-281 -286h-258z" />
    <glyph glyph-name="Dcaron" unicode="&#x10e;" horiz-adv-x="1718" 
d="M532 1229l-2 -430l2 -430h351q59 0 98 2t75 11t57.5 20.5t40 36.5t27.5 53.5t15.5 76.5t8 100t1.5 130t-1.5 130t-8 100t-15.5 76.5t-27.5 53.5t-40 36.5t-57.5 20.5t-75 11t-98 2h-351zM102 0v1597h826q151 0 257.5 -14t190.5 -51t136 -93.5t85.5 -149t46.5 -209
t13 -281.5t-13 -281.5t-46.5 -209t-85.5 -149t-136 -93.5t-190.5 -51.5t-257.5 -14.5h-826zM457 2007h227l178 -117h12l175 117h227l-281 -287h-258z" />
    <glyph glyph-name="dcaron" unicode="&#x10f;" horiz-adv-x="2086" 
d="M1339 1638v-1638h-378v256q-26 -146 -123 -213.5t-277 -67.5q-99 0 -169 11.5t-125 41t-89 74.5t-56.5 119t-31 167.5t-8.5 225.5t8 225.5t29.5 167.5t54 119t85.5 74.5t120 41t162 11.5q176 0 276 -45.5t133 -144.5v575h389zM492 614q0 -76 2 -121t12 -84t23 -56.5
t42 -30.5t63 -16t91 -3q225 0 225 131v258q0 123 -59 178.5t-189 55.5q-38 0 -63.5 -1.5t-49 -8t-37.5 -15t-26 -26.5t-17.5 -38.5t-10 -55.5t-5.5 -72.5t-1 -94.5zM1616 1063v575h348l-164 -575h-184z" />
    <glyph glyph-name="Dcroat" unicode="&#x110;" horiz-adv-x="2004" 
d="M737 1229l-2 -238h264v-348h-264l2 -274h350q59 0 98 2t75 11t57.5 20.5t40.5 36.5t27.5 53.5t15.5 76.5t8.5 100t1.5 130t-1.5 130t-8.5 100t-15.5 76.5t-27.5 53.5t-40.5 36.5t-57.5 20.5t-75 11t-98 2h-350zM123 643v348h184v606h826q151 0 257.5 -14t190.5 -51
t136 -93.5t85.5 -149t46.5 -209t13 -281.5t-13 -281.5t-46.5 -209t-85.5 -149t-136 -93.5t-190.5 -51.5t-257.5 -14.5h-826v643h-184z" />
    <glyph glyph-name="dcroat" unicode="&#x111;" horiz-adv-x="1421" 
d="M1319 1638v-84h192v-184h-192v-1370h-379v256q-26 -146 -122.5 -213.5t-276.5 -67.5q-99 0 -169 11.5t-125.5 41t-89.5 74.5t-56.5 119t-31 167.5t-8.5 225.5t8 225.5t29.5 167.5t54 119t85.5 74.5t120 41t162 11.5q176 0 276.5 -45.5t133.5 -144.5v307h-74v184h74v84
h389zM471 614q0 -76 2 -121t12 -84t23.5 -56.5t42.5 -30.5t63 -16t91 -3q225 0 225 131v258q0 123 -59 178.5t-189 55.5q-51 0 -82 -3t-57 -16t-38 -31t-21 -57t-11 -84t-2 -121z" />
    <glyph glyph-name="Emacron" unicode="&#x112;" horiz-adv-x="1499" 
d="M102 1597h1311v-368h-881v-246h799v-348h-799v-266h885v-369h-1315v1597zM451 1741v184h655v-184h-655z" />
    <glyph glyph-name="emacron" unicode="&#x113;" horiz-adv-x="1372" 
d="M1300 391q-2 -86 -14.5 -146.5t-41.5 -108.5t-72.5 -77.5t-113.5 -49t-159 -27t-213 -7.5q-129 0 -220.5 11.5t-163.5 41t-116.5 74.5t-73.5 119t-40 167.5t-11 225.5t11 225.5t40 167.5t73.5 119t116.5 74.5t163.5 41t220.5 11.5q125 0 214.5 -10t160.5 -36t116 -66
t75 -104.5t43 -146t16 -196.5v-190h-838q3 -83 12.5 -129t36 -72.5t62.5 -33.5t104 -7q121 0 162 26t41 103h409zM360 1372v184h656v-184h-656zM475 791h426q-2 62 -9 94.5t-32.5 52.5t-62 24.5t-109.5 4.5q-62 0 -96.5 -5.5t-61 -24t-38.5 -53t-17 -93.5z" />
    <glyph glyph-name="Edotaccent" unicode="&#x116;" horiz-adv-x="1499" 
d="M102 1597h1311v-368h-881v-246h799v-348h-799v-266h885v-369h-1315v1597zM573 1720v287h410v-287h-410z" />
    <glyph glyph-name="edotaccent" unicode="&#x117;" horiz-adv-x="1372" 
d="M1300 391q-2 -86 -14.5 -146.5t-41.5 -108.5t-72.5 -77.5t-113.5 -49t-159 -27t-213 -7.5q-129 0 -220.5 11.5t-163.5 41t-116.5 74.5t-73.5 119t-40 167.5t-11 225.5t11 225.5t40 167.5t73.5 119t116.5 74.5t163.5 41t220.5 11.5q125 0 214.5 -10t160.5 -36t116 -66
t75 -104.5t43 -146t16 -196.5v-190h-838q3 -83 12.5 -129t36 -72.5t62.5 -33.5t104 -7q121 0 162 26t41 103h409zM475 791h426q-2 62 -9 94.5t-32.5 52.5t-62 24.5t-109.5 4.5q-62 0 -96.5 -5.5t-61 -24t-38.5 -53t-17 -93.5zM483 1352v286h410v-286h-410z" />
    <glyph glyph-name="Eogonek" unicode="&#x118;" horiz-adv-x="1499" 
d="M102 1597h1311v-368h-881v-246h799v-348h-799v-266h885v-369q-97 -96 -137.5 -155.5t-40.5 -108.5q0 -46 31 -58t106 7v-95q-41 -24 -131 -24q-102 0 -148 36.5t-46 121.5q0 64 61 126t211 150h-1221v1597z" />
    <glyph glyph-name="eogonek" unicode="&#x119;" horiz-adv-x="1372" 
d="M1300 391q-5 -185 -67 -273t-221 -120q-96 -95 -136 -154t-40 -108q0 -46 31 -58t106 7v-95q-41 -24 -131 -24q-103 0 -149 36.5t-46 121.5q0 62 55.5 120.5t188.5 137.5q-103 -7 -205 -7q-129 0 -220.5 11.5t-163.5 41t-116.5 74.5t-73.5 119t-40 167.5t-11 225.5
t11 225.5t40 167.5t73.5 119t116.5 74.5t163.5 41t220.5 11.5q125 0 214.5 -10t160.5 -36t116 -66t75 -104.5t43 -146t16 -196.5v-190h-838q3 -83 12.5 -129t36 -72.5t62.5 -33.5t104 -7q121 0 162 26t41 103h409zM475 791h426q-2 62 -9 94.5t-32.5 52.5t-62 24.5
t-109.5 4.5q-62 0 -96.5 -5.5t-61 -24t-38.5 -53t-17 -93.5z" />
    <glyph glyph-name="Ecaron" unicode="&#x11a;" horiz-adv-x="1499" 
d="M102 1597h1311v-368h-881v-246h799v-348h-799v-266h885v-369h-1315v1597zM367 2007h227l178 -117h12l174 117h228l-281 -287h-258z" />
    <glyph glyph-name="ecaron" unicode="&#x11b;" horiz-adv-x="1372" 
d="M1300 391q-2 -86 -14.5 -146.5t-41.5 -108.5t-72.5 -77.5t-113.5 -49t-159 -27t-213 -7.5q-129 0 -220.5 11.5t-163.5 41t-116.5 74.5t-73.5 119t-40 167.5t-11 225.5t11 225.5t40 167.5t73.5 119t116.5 74.5t163.5 41t220.5 11.5q125 0 214.5 -10t160.5 -36t116 -66
t75 -104.5t43 -146t16 -196.5v-190h-838q3 -83 12.5 -129t36 -72.5t62.5 -33.5t104 -7q121 0 162 26t41 103h409zM276 1638h228l178 -116h12l174 116h228l-281 -286h-258zM475 791h426q-2 62 -9 94.5t-32.5 52.5t-62 24.5t-109.5 4.5q-62 0 -96.5 -5.5t-61 -24t-38.5 -53
t-17 -93.5z" />
    <glyph glyph-name="uni0122" unicode="&#x122;" horiz-adv-x="1753" 
d="M905 856h766v-856h-389v256q-38 -145 -139 -213t-275 -68q-166 0 -284 15t-211.5 53t-150.5 96.5t-94.5 153.5t-52 215.5t-14.5 290.5t14.5 290.5t52 215.5t94.5 153t150.5 96.5t211.5 53t284 14.5q167 0 285 -10.5t211 -38t150 -70t94 -111t50.5 -155t12.5 -209.5h-450
q1 45 -0.5 74.5t-8 57t-16 43.5t-30 30.5t-44 21t-63.5 11.5t-83 6.5t-108 1.5t-108 -2.5t-83 -12t-63.5 -22.5t-44 -40.5t-30 -58.5t-16.5 -84.5t-9 -110.5t-2 -144t2 -144t9 -110.5t16.5 -84.5t30 -58.5t44 -40.5t63.5 -22.5t83 -12t108 -2.5q185 0 272 48.5t93 155.5
h-328v328zM698 -281v197h389v-86q0 -160 -67 -213t-262 -53h-58v94q103 0 144.5 12.5t50.5 48.5h-197z" />
    <glyph glyph-name="uni0123" unicode="&#x123;" horiz-adv-x="1400" 
d="M668 -434q-117 0 -200.5 7.5t-149.5 26.5t-106 48.5t-66.5 77t-37 108t-10.5 146.5h369q0 -66 40.5 -88.5t160.5 -22.5q59 0 94 1t64.5 5.5t43.5 11t24 20.5t12.5 30t2.5 43v311q-29 -127 -128 -185.5t-281 -58.5q-90 0 -154 11t-115 39t-82 70.5t-51.5 112.5
t-28.5 158.5t-8 212.5t8 212t29.5 157.5t54 112t85.5 70.5t120 39t162 11q181 0 277.5 -61.5t122.5 -194.5v232h378v-1307q0 -74 -11.5 -126t-40.5 -93t-73.5 -66t-117.5 -41.5t-165 -23t-222 -6.5zM440 651q0 -68 2 -108t12 -74t23.5 -50t42.5 -27.5t63 -14t91 -2.5
q109 0 167 33.5t58 99.5v182q0 124 -59 180t-187 56q-52 0 -83 -2.5t-57.5 -14t-38.5 -27.5t-21 -50t-11 -74t-2 -107zM489 1311v86q0 160 67.5 213t262.5 53h58v-94q-103 0 -144.5 -13t-50.5 -49h197v-196h-390z" />
    <glyph glyph-name="Imacron" unicode="&#x12a;" horiz-adv-x="634" 
d="M102 0v1597h430v-1597h-430zM-10 1782v184h655v-184h-655z" />
    <glyph glyph-name="imacron" unicode="&#x12b;" horiz-adv-x="593" 
d="M102 1229h390v-1229h-390v1229zM-31 1372v184h656v-184h-656z" />
    <glyph glyph-name="Iogonek" unicode="&#x12e;" horiz-adv-x="634" 
d="M102 0v1597h430v-1597q-97 -96 -137.5 -155.5t-40.5 -108.5q0 -46 31.5 -58t106.5 7v-95q-41 -24 -132 -24q-102 0 -148 36.5t-46 121.5q0 64 61 126t211 150h-336z" />
    <glyph glyph-name="iogonek" unicode="&#x12f;" horiz-adv-x="614" 
d="M113 1229h389v-1229q-97 -96 -137.5 -155.5t-40.5 -108.5q0 -46 31 -58t106 7v-95q-41 -24 -131 -24q-103 0 -149 36.5t-46 121.5q0 64 61.5 126t211.5 150h-295v1229zM102 1352v286h410v-286h-410z" />
    <glyph glyph-name="dotlessi" unicode="&#x131;" horiz-adv-x="593" 
d="M102 1229h390v-1229h-390v1229z" />
    <glyph glyph-name="ij" unicode="&#x133;" horiz-adv-x="1241" 
d="M113 1229h389v-1229h-389v1229zM102 1352v286h410v-286h-410zM598 -410v349q89 0 115 23t26 101v1166h389v-1225q0 -86 -9 -146.5t-31.5 -108t-57 -77t-91 -48.5t-128 -26.5t-172.5 -7.5h-41zM729 1352v286h410v-286h-410z" />
    <glyph glyph-name="uni0136" unicode="&#x136;" horiz-adv-x="1703" 
d="M639 -82h389v-86q0 -160 -67.5 -213t-262.5 -53h-57v94q103 0 144.5 12.5t50.5 48.5h-197v197zM123 0v1597h430v-778l530 778h498l-483 -704l524 -893h-475l-348 610l-246 -274v-336h-430z" />
    <glyph glyph-name="uni0137" unicode="&#x137;" horiz-adv-x="1353" 
d="M102 0v1638h390v-874l376 465h475l-450 -555l436 -674h-440l-277 442l-120 -104v-338h-390zM528 -279v197h390v-86q0 -160 -67.5 -213t-262.5 -53h-58v94q103 0 144.5 12.5t50.5 48.5h-197z" />
    <glyph glyph-name="Lacute" unicode="&#x139;" horiz-adv-x="1320" 
d="M102 1597h430v-1228h779v-369h-1209v1597zM565 1720l144 289h409l-307 -289h-246z" />
    <glyph glyph-name="lacute" unicode="&#x13a;" horiz-adv-x="714" 
d="M653 348v-348h-223q-102 0 -163.5 14.5t-100 54t-52 101.5t-12.5 166v1302h390v-1185q0 -71 26 -88t135 -17zM158 1761l143 289h410l-308 -289h-245z" />
    <glyph glyph-name="uni013B" unicode="&#x13b;" horiz-adv-x="1320" 
d="M102 1597h430v-1228h779v-369h-1209v1597zM539 -279v197h389v-86q0 -160 -67.5 -213t-262.5 -53h-57v94q103 0 144 12.5t50 48.5h-196z" />
    <glyph glyph-name="uni013C" unicode="&#x13c;" horiz-adv-x="714" 
d="M653 348v-348h-223q-102 0 -163.5 14.5t-100 54t-52 101.5t-12.5 166v1302h390v-1185q0 -71 26 -88t135 -17zM217 -279v197h389v-86q0 -160 -67.5 -213t-262.5 -53h-57v94q103 0 144.5 12.5t50.5 48.5h-197z" />
    <glyph glyph-name="Lcaron" unicode="&#x13d;" horiz-adv-x="1320" 
d="M102 1597h430v-1228h779v-369h-1209v1597zM1032 1063v575h348l-163 -575h-185z" />
    <glyph glyph-name="lcaron" unicode="&#x13e;" horiz-adv-x="1146" 
d="M653 348v-348h-223q-102 0 -163.5 14.5t-100 54t-52 101.5t-12.5 166v1302h390v-1185q0 -71 26 -88t135 -17zM676 1063v575h348l-164 -575h-184z" />
    <glyph glyph-name="Lslash" unicode="&#x141;" horiz-adv-x="1533" 
d="M246 1597h430v-628l176 41v-205l-176 -41v-395h778v-369h-1208v662l-123 -29v205l123 28v731z" />
    <glyph glyph-name="lslash" unicode="&#x142;" horiz-adv-x="974" 
d="M831 348v-348h-223q-102 0 -163 14t-99.5 54t-52 102t-12.5 166v330l-123 -33v184l123 33v788h389v-686l143 37v-184l-143 -37v-315q0 -71 26 -88t135 -17z" />
    <glyph glyph-name="Nacute" unicode="&#x143;" horiz-adv-x="1761" 
d="M102 0v1597h408l707 -872h12v872h430v-1597h-406l-708 870h-13v-870h-430zM715 1720l143 289h410l-307 -289h-246z" />
    <glyph glyph-name="nacute" unicode="&#x144;" horiz-adv-x="1349" 
d="M102 1229h390v-193q29 112 118.5 164.5t251.5 52.5q84 0 143 -8t105.5 -29.5t75 -53.5t47.5 -85t26 -120t7 -162l2 -795h-389v696q0 56 -1.5 89t-8.5 62t-17 42t-31.5 23t-46.5 12t-67 2q-112 0 -162.5 -55t-50.5 -175l-2 -696h-390v1229zM518 1352l144 288h409
l-307 -288h-246z" />
    <glyph glyph-name="uni0145" unicode="&#x145;" horiz-adv-x="1761" 
d="M102 0v1597h408l707 -872h12v872h430v-1597h-406l-708 870h-13v-870h-430zM688 -279v197h389v-86q0 -160 -67 -213t-262 -53h-58v94q103 0 144.5 12.5t50.5 48.5h-197z" />
    <glyph glyph-name="uni0146" unicode="&#x146;" horiz-adv-x="1349" 
d="M102 1229h390v-193q29 112 118.5 164.5t251.5 52.5q84 0 143 -8t105.5 -29.5t75 -53.5t47.5 -85t26 -120t7 -162l2 -795h-389v696q0 56 -1.5 89t-8.5 62t-17 42t-31.5 23t-46.5 12t-67 2q-112 0 -162.5 -55t-50.5 -175l-2 -696h-390v1229zM492 -279v197h389v-86
q0 -160 -67.5 -213t-262.5 -53h-57v94q103 0 144 12.5t50 48.5h-196z" />
    <glyph glyph-name="Ncaron" unicode="&#x147;" horiz-adv-x="1761" 
d="M102 0v1597h408l707 -872h12v872h430v-1597h-406l-708 870h-13v-870h-430zM446 2007h228l178 -117h12l174 117h228l-281 -287h-258z" />
    <glyph glyph-name="ncaron" unicode="&#x148;" horiz-adv-x="1349" 
d="M102 1229h390v-193q29 112 118.5 164.5t251.5 52.5q84 0 143 -8t105.5 -29.5t75 -53.5t47.5 -85t26 -120t7 -162l2 -795h-389v696q0 56 -1.5 89t-8.5 62t-17 42t-31.5 23t-46.5 12t-67 2q-112 0 -162.5 -55t-50.5 -175l-2 -696h-390v1229zM250 1638h227l178 -116h13
l174 116h227l-281 -286h-258z" />
    <glyph glyph-name="Omacron" unicode="&#x14c;" horiz-adv-x="1781" 
d="M891 1274q-69 0 -115 -2.5t-88.5 -12t-67 -22.5t-46.5 -40.5t-32.5 -58.5t-18 -84.5t-9.5 -110.5t-2 -144t2 -144t9.5 -110.5t18 -84.5t32.5 -58.5t46.5 -40.5t67 -22.5t88.5 -12t115 -2.5t115 2.5t88.5 12t67 22.5t46.5 40.5t32.5 58.5t18 84.5t9.5 110.5t2 144t-2 144
t-9.5 110.5t-18 84.5t-32.5 58.5t-46.5 40.5t-67 22.5t-88.5 12t-115 2.5zM61 799q0 170 15 290.5t53.5 215.5t97 153t154.5 96.5t217.5 53t292.5 14.5t292.5 -14.5t217 -53t154.5 -96.5t97 -153t53 -215.5t15 -290.5t-15 -290.5t-53 -215.5t-97 -153.5t-154.5 -97t-217 -53
t-292.5 -14.5t-292.5 14.5t-217.5 53t-154.5 97t-97 153.5t-53.5 215.5t-15 290.5zM563 1741v184h656v-184h-656z" />
    <glyph glyph-name="omacron" unicode="&#x14d;" horiz-adv-x="1409" 
d="M705 946q-57 0 -91 -3t-63 -17t-42.5 -33t-23.5 -60.5t-12 -89.5t-2 -129t2 -129t12 -89t23.5 -60t42.5 -33t63 -17t91 -3t91 3t63 17t42 33t23 60t12 89t2 129t-2 129t-12 89.5t-23 60.5t-42 33t-63 17t-91 3zM61 614q0 132 11.5 225.5t41.5 167.5t76 119t120 74.5
t168 41t227 11.5t226.5 -11.5t168 -41t120 -74.5t75.5 -119t41.5 -167.5t11.5 -225.5t-11.5 -225.5t-41.5 -167.5t-75.5 -119t-120 -74.5t-168 -41t-226.5 -11.5t-227 11.5t-168 41t-120 74.5t-76 119t-41.5 167.5t-11.5 225.5zM377 1372v184h655v-184h-655z" />
    <glyph glyph-name="Ohungarumlaut" unicode="&#x150;" horiz-adv-x="1781" 
d="M891 1274q-69 0 -115 -2.5t-88.5 -12t-67 -22.5t-46.5 -40.5t-32.5 -58.5t-18 -84.5t-9.5 -110.5t-2 -144t2 -144t9.5 -110.5t18 -84.5t32.5 -58.5t46.5 -40.5t67 -22.5t88.5 -12t115 -2.5t115 2.5t88.5 12t67 22.5t46.5 40.5t32.5 58.5t18 84.5t9.5 110.5t2 144t-2 144
t-9.5 110.5t-18 84.5t-32.5 58.5t-46.5 40.5t-67 22.5t-88.5 12t-115 2.5zM61 799q0 170 15 290.5t53.5 215.5t97 153t154.5 96.5t217.5 53t292.5 14.5t292.5 -14.5t217 -53t154.5 -96.5t97 -153t53 -215.5t15 -290.5t-15 -290.5t-53 -215.5t-97 -153.5t-154.5 -97t-217 -53
t-292.5 -14.5t-292.5 14.5t-217.5 53t-154.5 97t-97 153.5t-53.5 215.5t-15 290.5zM598 1720l143 289h308l-226 -289h-225zM987 1720l143 289h308l-226 -289h-225z" />
    <glyph glyph-name="ohungarumlaut" unicode="&#x151;" horiz-adv-x="1409" 
d="M705 946q-57 0 -91 -3t-63 -17t-42.5 -33t-23.5 -60.5t-12 -89.5t-2 -129t2 -129t12 -89t23.5 -60t42.5 -33t63 -17t91 -3t91 3t63 17t42 33t23 60t12 89t2 129t-2 129t-12 89.5t-23 60.5t-42 33t-63 17t-91 3zM61 614q0 132 11.5 225.5t41.5 167.5t76 119t120 74.5
t168 41t227 11.5t226.5 -11.5t168 -41t120 -74.5t75.5 -119t41.5 -167.5t11.5 -225.5t-11.5 -225.5t-41.5 -167.5t-75.5 -119t-120 -74.5t-168 -41t-226.5 -11.5t-227 11.5t-168 41t-120 74.5t-76 119t-41.5 167.5t-11.5 225.5zM412 1352l143 288h307l-225 -288h-225z
M801 1352l143 288h307l-225 -288h-225z" />
    <glyph glyph-name="OE" unicode="&#x152;" horiz-adv-x="2830" 
d="M891 1274q-82 0 -137 -7t-100 -27.5t-70.5 -52t-42.5 -87.5t-23 -126.5t-6 -174.5t6 -174.5t23 -126.5t42.5 -87.5t70.5 -52t100 -27.5t137 -7t137 7t100 27.5t70.5 52t42.5 87.5t23 126.5t6 174.5t-6 174.5t-23 126.5t-42.5 87.5t-70.5 52t-100 27.5t-137 7zM61 799
q0 135 7 235t26 186t47 144.5t76 106t107 74.5t146 45.5t186.5 25t234.5 6.5q230 0 355.5 -48.5t187.5 -180.5v204h1310v-368h-880v-246h798v-348h-798v-266h884v-369h-1314v205q-62 -132 -188 -181t-355 -49q-135 0 -234.5 6.5t-186.5 25t-146 46t-107 74.5t-76 105.5
t-47 145t-26 186.5t-7 235z" />
    <glyph glyph-name="oe" unicode="&#x153;" horiz-adv-x="2226" 
d="M705 926q-61 0 -99.5 -8t-66.5 -26.5t-42 -56t-20 -88.5t-6 -133t6 -133t20 -88.5t42 -55.5t66.5 -26t99.5 -8q62 0 102.5 4.5t73 18.5t50.5 34.5t29.5 57.5t15 82t3.5 114t-3.5 114t-15 82t-29.5 57.5t-50.5 35t-73 19t-102.5 4.5zM61 614q0 132 11.5 225.5t41.5 167.5
t76 119t120 74.5t168 41t227 11.5q194 0 308 -33t175 -114q47 76 133 111.5t219 35.5q129 0 220.5 -10.5t163.5 -37t116.5 -68t73.5 -108t40 -151.5t11 -204v-191h-838q4 -76 14.5 -118t37 -66t62 -30.5t101.5 -6.5q119 0 161 26.5t42 102.5h409q0 -103 -17.5 -171.5
t-56.5 -118t-112 -76t-174.5 -38.5t-253.5 -12q-314 0 -436 154q-105 -154 -399 -154q-133 0 -227 11.5t-168 41t-120 74.5t-76 119t-41.5 167.5t-11.5 225.5zM1329 770h426q-1 48 -3.5 77t-12 53t-22 35.5t-38.5 19.5t-56.5 10t-80.5 2q-63 0 -98 -6t-61.5 -27.5
t-37.5 -59.5t-16 -104z" />
    <glyph glyph-name="Racute" unicode="&#x154;" horiz-adv-x="1630" 
d="M1016 1597q110 0 187.5 -8t139 -29.5t99.5 -54t62.5 -86t34 -121t9.5 -163.5q0 -197 -76.5 -297t-244.5 -123q163 -18 242 -94.5t79 -227.5v-393h-450v369q0 48 -2 76t-12.5 52t-24.5 35t-44.5 19t-66 10t-96.5 2h-320v-563h-430v1597h914zM532 891h373q52 0 83 1.5
t57.5 9.5t38.5 18.5t21 33t11 48.5t2 71q0 43 -2 68.5t-10.5 47t-21 32t-39 18t-57.5 9t-83 1.5h-373v-358zM655 1720l144 289h409l-307 -289h-246z" />
    <glyph glyph-name="racute" unicode="&#x155;" horiz-adv-x="1024" 
d="M102 1229h390v-228q26 118 111 173t239 55h141v-348l-276 4q-113 1 -164 -45.5t-51 -149.5v-690h-390v1229zM467 1352l143 288h410l-307 -288h-246z" />
    <glyph glyph-name="uni0156" unicode="&#x156;" horiz-adv-x="1630" 
d="M1016 1597q110 0 187.5 -8t139 -29.5t99.5 -54t62.5 -86t34 -121t9.5 -163.5q0 -197 -76.5 -297t-244.5 -123q163 -18 242 -94.5t79 -227.5v-393h-450v369q0 48 -2 76t-12.5 52t-24.5 35t-44.5 19t-66 10t-96.5 2h-320v-563h-430v1597h914zM532 891h373q52 0 83 1.5
t57.5 9.5t38.5 18.5t21 33t11 48.5t2 71q0 43 -2 68.5t-10.5 47t-21 32t-39 18t-57.5 9t-83 1.5h-373v-358zM629 -279v197h389v-86q0 -160 -67.5 -213t-262.5 -53h-57v94q103 0 144 12.5t50 48.5h-196z" />
    <glyph glyph-name="uni0157" unicode="&#x157;" horiz-adv-x="1024" 
d="M102 1229h390v-228q26 118 111 173t239 55h141v-348l-276 4q-113 1 -164 -45.5t-51 -149.5v-690h-390v1229zM502 -279v197h389v-86q0 -160 -67.5 -213t-262.5 -53h-57v94q103 0 144 12.5t50 48.5h-196z" />
    <glyph glyph-name="Rcaron" unicode="&#x158;" horiz-adv-x="1630" 
d="M1016 1597q110 0 187.5 -8t139 -29.5t99.5 -54t62.5 -86t34 -121t9.5 -163.5q0 -197 -76.5 -297t-244.5 -123q163 -18 242 -94.5t79 -227.5v-393h-450v369q0 48 -2 76t-12.5 52t-24.5 35t-44.5 19t-66 10t-96.5 2h-320v-563h-430v1597h914zM387 2007h227l179 -117h12
l174 117h227l-280 -287h-258zM532 891h373q52 0 83 1.5t57.5 9.5t38.5 18.5t21 33t11 48.5t2 71q0 43 -2 68.5t-10.5 47t-21 32t-39 18t-57.5 9t-83 1.5h-373v-358z" />
    <glyph glyph-name="rcaron" unicode="&#x159;" horiz-adv-x="1024" 
d="M102 1229h390v-228q26 118 111 173t239 55h141v-348l-276 4q-113 1 -164 -45.5t-51 -149.5v-690h-390v1229zM199 1638h227l178 -116h12l175 116h227l-281 -286h-258z" />
    <glyph glyph-name="Sacute" unicode="&#x15a;" horiz-adv-x="1642" 
d="M819 324q76 0 120.5 1t83.5 6.5t57 13t31 23.5t16 34.5t3 50.5q0 69 -77 107.5t-303 82.5q-162 32 -269 64t-185.5 71t-120.5 91.5t-60.5 117t-18.5 156.5q0 99 13.5 169t48 125t86.5 89t137 56.5t192 31t258 8.5q152 0 259.5 -10.5t193 -37.5t138.5 -68.5t87.5 -109
t48 -153t13.5 -205.5h-451q0 43 -1.5 71.5t-7.5 55t-14 42t-25 29t-36 20t-51.5 11.5t-67 6t-86.5 1q-82 0 -128 -3t-81 -9.5t-49 -23t-20 -38.5t-6 -61q0 -62 55.5 -94t220.5 -66q186 -36 309.5 -71.5t214.5 -79t140 -100.5t71.5 -128t22.5 -170q0 -94 -13.5 -160.5
t-49 -119t-88.5 -85t-140 -53.5t-196 -29t-263 -8q-158 0 -270 10t-201 36t-144 66t-91 105t-50 147t-14 198h451q0 -39 1.5 -65t8 -49.5t15 -38t26.5 -26.5t38 -17.5t54.5 -10t71 -5.5t92.5 -1zM688 1720l143 289h410l-307 -289h-246z" />
    <glyph glyph-name="sacute" unicode="&#x15b;" horiz-adv-x="1374" 
d="M451 385q0 -36 4.5 -55.5t15.5 -35t40 -21.5t66 -8.5t105 -2.5q105 0 148 6.5t58 24.5t15 63q0 46 -58.5 72.5t-232.5 58.5q-130 25 -215.5 50.5t-148 56t-95.5 72t-48 93t-15 124.5q0 92 17 153t55.5 105t110.5 67.5t171 34t248 10.5q121 0 207.5 -7.5t154.5 -26.5
t110 -48.5t69.5 -77.5t38 -108.5t10.5 -146.5v-37h-389v37q0 32 -2 50.5t-10.5 34.5t-20 23.5t-36.5 13t-54 6.5t-78 1q-70 0 -104.5 -2.5t-56 -14t-26.5 -28.5t-5 -52q0 -43 34 -62t136 -34q132 -22 226.5 -43.5t168.5 -49.5t119.5 -59.5t75.5 -76t41.5 -96t11.5 -121.5
q0 -88 -17.5 -146t-57.5 -100t-114 -64.5t-176 -32.5t-256 -10q-130 0 -222 7.5t-165 26.5t-118 48t-74 76.5t-40.5 107t-11.5 144.5v27h390v-27zM549 1352l143 288h410l-307 -288h-246z" />
    <glyph glyph-name="Scedilla" unicode="&#x15e;" horiz-adv-x="1642" 
d="M819 324q76 0 120.5 1t83.5 6.5t57 13t31 23.5t16 34.5t3 50.5q0 69 -77 107.5t-303 82.5q-162 32 -269 64t-185.5 71t-120.5 91.5t-60.5 117t-18.5 156.5q0 99 13.5 169t48 125t86.5 89t137 56.5t192 31t258 8.5q152 0 259.5 -10.5t193 -37.5t138.5 -68.5t87.5 -109
t48 -153t13.5 -205.5h-451q0 43 -1.5 71.5t-7.5 55t-14 42t-25 29t-36 20t-51.5 11.5t-67 6t-86.5 1q-82 0 -128 -3t-81 -9.5t-49 -23t-20 -38.5t-6 -61q0 -62 55.5 -94t220.5 -66q186 -36 309.5 -71.5t214.5 -79t140 -100.5t71.5 -128t22.5 -170q0 -91 -13 -156.5
t-45.5 -117.5t-83.5 -85t-131.5 -55t-183.5 -31t-247 -10l-33 -55q114 -12 159.5 -53t45.5 -121q0 -69 -29 -106.5t-100 -55.5t-201 -18h-57v94q119 0 158.5 16t39.5 60v20q0 44 -39.5 60t-158.5 16v94l110 49q-145 2 -249 14t-185.5 39t-132.5 67.5t-84.5 105t-46.5 144.5
t-13 192h451q0 -39 1.5 -65t8 -49.5t15 -38t26.5 -26.5t38 -17.5t54.5 -10t71 -5.5t92.5 -1z" />
    <glyph glyph-name="scedilla" unicode="&#x15f;" horiz-adv-x="1374" 
d="M451 385q0 -36 4.5 -55.5t15.5 -35t40 -21.5t66 -8.5t105 -2.5q105 0 148 6.5t58 24.5t15 63q0 46 -58.5 72.5t-232.5 58.5q-130 25 -215.5 50.5t-148 56t-95.5 72t-48 93t-15 124.5q0 92 17 153t55.5 105t110.5 67.5t171 34t248 10.5q121 0 207.5 -7.5t154.5 -26.5
t110 -48.5t69.5 -77.5t38 -108.5t10.5 -146.5v-37h-389v37q0 32 -2 50.5t-10.5 34.5t-20 23.5t-36.5 13t-54 6.5t-78 1q-70 0 -104.5 -2.5t-56 -14t-26.5 -28.5t-5 -52q0 -43 34 -62t136 -34q132 -22 226.5 -43.5t168.5 -49.5t119.5 -59.5t75.5 -76t41.5 -96t11.5 -121.5
q0 -85 -16.5 -142t-53.5 -99t-105.5 -65.5t-163.5 -34.5t-237 -12l-32 -55q114 -12 159 -53t45 -121q0 -69 -28.5 -106.5t-99.5 -55.5t-201 -18h-58v94q119 0 159 16t40 60v20q0 44 -40 60t-159 16v94l111 49q-140 2 -234.5 15t-162.5 40.5t-105 76.5t-53.5 114.5
t-16.5 163.5v27h390v-27z" />
    <glyph glyph-name="Scaron" unicode="&#x160;" horiz-adv-x="1642" 
d="M819 324q76 0 120.5 1t83.5 6.5t57 13t31 23.5t16 34.5t3 50.5q0 69 -77 107.5t-303 82.5q-162 32 -269 64t-185.5 71t-120.5 91.5t-60.5 117t-18.5 156.5q0 99 13.5 169t48 125t86.5 89t137 56.5t192 31t258 8.5q152 0 259.5 -10.5t193 -37.5t138.5 -68.5t87.5 -109
t48 -153t13.5 -205.5h-451q0 43 -1.5 71.5t-7.5 55t-14 42t-25 29t-36 20t-51.5 11.5t-67 6t-86.5 1q-82 0 -128 -3t-81 -9.5t-49 -23t-20 -38.5t-6 -61q0 -62 55.5 -94t220.5 -66q186 -36 309.5 -71.5t214.5 -79t140 -100.5t71.5 -128t22.5 -170q0 -94 -13.5 -160.5
t-49 -119t-88.5 -85t-140 -53.5t-196 -29t-263 -8q-158 0 -270 10t-201 36t-144 66t-91 105t-50 147t-14 198h451q0 -39 1.5 -65t8 -49.5t15 -38t26.5 -26.5t38 -17.5t54.5 -10t71 -5.5t92.5 -1zM420 2007h227l178 -117h13l174 117h227l-281 -287h-258z" />
    <glyph glyph-name="scaron" unicode="&#x161;" horiz-adv-x="1374" 
d="M451 385q0 -36 4.5 -55.5t15.5 -35t40 -21.5t66 -8.5t105 -2.5q105 0 148 6.5t58 24.5t15 63q0 46 -58.5 72.5t-232.5 58.5q-130 25 -215.5 50.5t-148 56t-95.5 72t-48 93t-15 124.5q0 92 17 153t55.5 105t110.5 67.5t171 34t248 10.5q121 0 207.5 -7.5t154.5 -26.5
t110 -48.5t69.5 -77.5t38 -108.5t10.5 -146.5v-37h-389v37q0 32 -2 50.5t-10.5 34.5t-20 23.5t-36.5 13t-54 6.5t-78 1q-70 0 -104.5 -2.5t-56 -14t-26.5 -28.5t-5 -52q0 -43 34 -62t136 -34q132 -22 226.5 -43.5t168.5 -49.5t119.5 -59.5t75.5 -76t41.5 -96t11.5 -121.5
q0 -88 -17.5 -146t-57.5 -100t-114 -64.5t-176 -32.5t-256 -10q-130 0 -222 7.5t-165 26.5t-118 48t-74 76.5t-40.5 107t-11.5 144.5v27h390v-27zM281 1638h227l178 -116h12l174 116h228l-281 -286h-258z" />
    <glyph glyph-name="uni0162" unicode="&#x162;" horiz-adv-x="1433" 
d="M500 0v1229h-490v368h1413v-368h-493v-1229h-156l-47 -80q114 -12 159.5 -53t45.5 -121q0 -69 -29 -106.5t-100 -55.5t-201 -18h-57v94q119 0 158.5 16t39.5 60v20q0 44 -39.5 60t-158.5 16v94l166 74h-211z" />
    <glyph glyph-name="uni0163" unicode="&#x163;" horiz-adv-x="1044" 
d="M942 348v-348h-246h-43l-49 -80q114 -12 159.5 -53t45.5 -121q0 -69 -29 -106.5t-100 -55.5t-201 -18h-57v94q119 0 159 16t40 60v20q0 44 -40 60t-159 16v94l170 76h6q-95 4 -160.5 19.5t-112 44t-72 77t-37 113t-11.5 158.5v487h-123v328h143v262h369v-262h328v-328
h-328v-387q0 -61 3.5 -90t20 -48.5t41.5 -23.5t76 -4h207z" />
    <glyph glyph-name="Tcaron" unicode="&#x164;" horiz-adv-x="1433" 
d="M500 0v1229h-490v368h1413v-368h-493v-1229h-430zM303 2007h227l179 -117h12l174 117h227l-280 -287h-258z" />
    <glyph glyph-name="tcaron" unicode="&#x165;" horiz-adv-x="1597" 
d="M963 348v-348h-246q-122 0 -202.5 11.5t-139.5 38t-90.5 76t-45.5 117.5t-14 171v487h-123v328h144v262h368v-262h328v-328h-328v-387q0 -60 3.5 -89.5t20.5 -49t42 -23.5t76 -4h207zM1167 1063v575h349l-164 -575h-185z" />
    <glyph glyph-name="Umacron" unicode="&#x16a;" horiz-adv-x="1581" 
d="M1499 655q0 -141 -12.5 -240t-45.5 -178t-83 -127t-132 -79.5t-185.5 -43.5t-249.5 -12t-249.5 12t-185.5 43.5t-132.5 79.5t-83.5 126.5t-45.5 178t-12.5 240.5v942h430v-942q0 -81 3 -129t14.5 -89t27.5 -60t51 -33t75 -17t108 -3t108 3t74.5 17t50.5 33t28 60t14.5 89
t2.5 129v942h430v-942zM463 1741v184h655v-184h-655z" />
    <glyph glyph-name="umacron" unicode="&#x16b;" horiz-adv-x="1329" 
d="M1227 0h-389v193q-28 -112 -113 -165t-238 -53q-84 0 -143 8t-105.5 29.5t-75 54t-47 85.5t-25.5 120t-7 162l-2 795h389v-703q0 -81 4.5 -120.5t25.5 -65.5t53.5 -31.5t98.5 -5.5q96 0 139.5 51t43.5 164l2 711h389v-1229zM328 1372v184h655v-184h-655z" />
    <glyph glyph-name="Uring" unicode="&#x16e;" horiz-adv-x="1581" 
d="M1499 655q0 -141 -12.5 -240t-45.5 -178t-83 -127t-132 -79.5t-185.5 -43.5t-249.5 -12t-249.5 12t-185.5 43.5t-132.5 79.5t-83.5 126.5t-45.5 178t-12.5 240.5v942h430v-942q0 -81 3 -129t14.5 -89t27.5 -60t51 -33t75 -17t108 -3t108 3t74.5 17t50.5 33t28 60t14.5 89
t2.5 129v942h430v-942zM555 1878q0 89 52.5 121.5t185.5 32.5q130 0 181.5 -32.5t51.5 -121.5q0 -90 -52 -124t-181 -34q-132 0 -185 34t-53 124zM698 1876q0 -53 16.5 -67.5t76.5 -14.5t76 14.5t16 67.5t-16 67.5t-76 14.5t-76.5 -14.5t-16.5 -67.5z" />
    <glyph glyph-name="uring" unicode="&#x16f;" horiz-adv-x="1329" 
d="M1227 0h-389v193q-28 -112 -113 -165t-238 -53q-84 0 -143 8t-105.5 29.5t-75 54t-47 85.5t-25.5 120t-7 162l-2 795h389v-703q0 -81 4.5 -120.5t25.5 -65.5t53.5 -31.5t98.5 -5.5q96 0 139.5 51t43.5 164l2 711h389v-1229zM420 1509q0 89 52 121.5t185 32.5
q130 0 182 -32.5t52 -121.5t-52 -123t-182 -34q-132 0 -184.5 33.5t-52.5 123.5zM563 1507q0 -53 16 -67.5t76 -14.5t76.5 14.5t16.5 67.5t-16.5 67.5t-76.5 14.5t-76 -14.5t-16 -67.5z" />
    <glyph glyph-name="Uhungarumlaut" unicode="&#x170;" horiz-adv-x="1581" 
d="M1499 655q0 -141 -12.5 -240t-45.5 -178t-83 -127t-132 -79.5t-185.5 -43.5t-249.5 -12t-249.5 12t-185.5 43.5t-132.5 79.5t-83.5 126.5t-45.5 178t-12.5 240.5v942h430v-942q0 -81 3 -129t14.5 -89t27.5 -60t51 -33t75 -17t108 -3t108 3t74.5 17t50.5 33t28 60t14.5 89
t2.5 129v942h430v-942zM498 1720l143 289h307l-225 -289h-225zM887 1720l143 289h307l-225 -289h-225z" />
    <glyph glyph-name="uhungarumlaut" unicode="&#x171;" horiz-adv-x="1329" 
d="M1227 0h-389v193q-28 -112 -113 -165t-238 -53q-84 0 -143 8t-105.5 29.5t-75 54t-47 85.5t-25.5 120t-7 162l-2 795h389v-703q0 -81 4.5 -120.5t25.5 -65.5t53.5 -31.5t98.5 -5.5q96 0 139.5 51t43.5 164l2 711h389v-1229zM362 1352l144 288h307l-225 -288h-226z
M752 1352l143 288h307l-225 -288h-225z" />
    <glyph glyph-name="Uogonek" unicode="&#x172;" horiz-adv-x="1581" 
d="M1499 655q0 -132 -11.5 -227t-38 -171t-72.5 -126t-112 -83t-159 -50q-96 -95 -136 -154t-40 -108q0 -46 31 -58t106 7v-95q-41 -24 -131 -24q-103 0 -149 36.5t-46 121.5q0 62 55.5 120.5t188.5 137.5q-103 -7 -194 -7q-146 0 -249.5 12t-185.5 43.5t-132.5 79.5
t-83.5 126.5t-45.5 178t-12.5 240.5v942h430v-942q0 -81 3 -129t14.5 -89t27.5 -60t51 -33t75 -17t108 -3t108 3t74.5 17t50.5 33t28 60t14.5 89t2.5 129v942h430v-942z" />
    <glyph glyph-name="uogonek" unicode="&#x173;" horiz-adv-x="1329" 
d="M1227 0q-97 -96 -137.5 -155.5t-40.5 -108.5q0 -46 31 -58t106 7v-95q-41 -24 -131 -24q-103 0 -149 36.5t-46 121.5q0 64 61.5 126t211.5 150h-295v193q-28 -112 -113 -165t-238 -53q-84 0 -143 8t-105.5 29.5t-75 54t-47 85.5t-25.5 120t-7 162l-2 795h389v-703
q0 -81 4.5 -120.5t25.5 -65.5t53.5 -31.5t98.5 -5.5q96 0 139.5 51t43.5 164l2 711h389v-1229z" />
    <glyph glyph-name="Wcircumflex" unicode="&#x174;" horiz-adv-x="2465" 
d="M1602 1597l194 -1228h16l226 1228h418l-304 -1597h-725l-194 1229h-16l-164 -1229h-731l-312 1597h439l231 -1228h16l162 1228h744zM811 1720l281 287h258l280 -287h-227l-174 117h-12l-179 -117h-227z" />
    <glyph glyph-name="wcircumflex" unicode="&#x175;" horiz-adv-x="2033" 
d="M1333 1229l150 -963h12l174 963h354l-241 -1229h-615l-149 942h-12l-127 -942h-619l-250 1229h377l178 -963h13l124 963h631zM606 1352l281 286h258l280 -286h-227l-174 116h-12l-178 -116h-228z" />
    <glyph glyph-name="Ycircumflex" unicode="&#x176;" horiz-adv-x="1562" 
d="M1552 1597l-479 -983h-61v-614h-430v614h-76l-496 983h484l299 -657h12l291 657h456zM387 1720l281 287h258l280 -287h-227l-174 117h-12l-179 -117h-227z" />
    <glyph glyph-name="ycircumflex" unicode="&#x177;" horiz-adv-x="1302" 
d="M936 -96q-21 -77 -47 -129t-63 -89.5t-92.5 -57.5t-125.5 -29t-172 -9h-280v328h231q117 0 149.5 14t49.5 74l10 35h-246l-340 1188h406l248 -910h12l235 910h381zM258 1352l281 286h258l280 -286h-227l-174 116h-12l-179 -116h-227z" />
    <glyph glyph-name="Ydieresis" unicode="&#x178;" horiz-adv-x="1562" 
d="M1552 1597l-479 -983h-61v-614h-430v614h-76l-496 983h484l299 -657h12l291 657h456zM410 1720v287h327v-287h-327zM860 1720v287h328v-287h-328z" />
    <glyph glyph-name="Zacute" unicode="&#x179;" horiz-adv-x="1744" 
d="M129 1597h1491v-354l-954 -874h997v-369h-1581v395l911 834h-864v368zM727 1720l143 289h410l-307 -289h-246z" />
    <glyph glyph-name="zacute" unicode="&#x17a;" horiz-adv-x="1404" 
d="M119 1229h1171v-301l-614 -580h647v-348h-1241v297l620 584h-583v348zM582 1352l143 288h410l-308 -288h-245z" />
    <glyph glyph-name="Zdotaccent" unicode="&#x17b;" horiz-adv-x="1744" 
d="M129 1597h1491v-354l-954 -874h997v-369h-1581v395l911 834h-864v368zM666 1720v287h409v-287h-409z" />
    <glyph glyph-name="zdotaccent" unicode="&#x17c;" horiz-adv-x="1404" 
d="M119 1229h1171v-301l-614 -580h647v-348h-1241v297l620 584h-583v348zM520 1352v286h410v-286h-410z" />
    <glyph glyph-name="Zcaron" unicode="&#x17d;" horiz-adv-x="1744" 
d="M129 1597h1491v-354l-954 -874h997v-369h-1581v395l911 834h-864v368zM459 2007h227l178 -117h13l174 117h227l-281 -287h-258z" />
    <glyph glyph-name="zcaron" unicode="&#x17e;" horiz-adv-x="1404" 
d="M119 1229h1171v-301l-614 -580h647v-348h-1241v297l620 584h-583v348zM313 1638h228l178 -116h12l174 116h228l-281 -286h-258z" />
    <glyph glyph-name="florin" unicode="&#x192;" horiz-adv-x="1273" 
d="M967 1352q-82 0 -105 -18t-35 -93l-2 -12h289l-57 -328h-289l-156 -897q-18 -103 -43.5 -171t-65.5 -117.5t-103 -76t-145.5 -38t-203.5 -11.5h-41l60 349q77 0 107.5 15t45.5 64l154 883h-160l57 328h160q22 127 56.5 203t100.5 124t160 65t246 17h267l-50 -286h-247z
" />
    <glyph glyph-name="uni0237" unicode="&#x237;" horiz-adv-x="735" 
d="M102 -61q89 0 115.5 23t26.5 101v1166h389v-1225q0 -86 -9 -146.5t-31.5 -108t-57.5 -77t-91.5 -48.5t-128 -26.5t-172.5 -7.5h-41v349z" />
    <glyph glyph-name="circumflex" unicode="&#x2c6;" horiz-adv-x="1064" 
d="M403 1638h259l280 -286h-227l-174 116h-13l-178 -116h-227z" />
    <glyph glyph-name="caron" unicode="&#x2c7;" horiz-adv-x="1064" 
d="M403 1352l-280 286h227l178 -116h13l174 116h227l-280 -286h-259z" />
    <glyph glyph-name="breve" unicode="&#x2d8;" horiz-adv-x="860" 
d="M737 1638q0 -55 -3.5 -93.5t-11.5 -71t-24 -53t-37.5 -35.5t-55.5 -22.5t-74.5 -11t-98.5 -3.5q-68 0 -113.5 4t-82 16.5t-57 32t-34 53.5t-18 77t-4.5 107l184 -2q0 -131 23 -168.5t102 -37.5q77 0 99 38t22 170h184z" />
    <glyph glyph-name="dotaccent" unicode="&#x2d9;" horiz-adv-x="655" 
d="M123 1638h409v-286h-409v286z" />
    <glyph glyph-name="ring" unicode="&#x2da;" horiz-adv-x="716" 
d="M360 1352q-132 0 -184.5 33.5t-52.5 123.5q0 89 52 121.5t185 32.5q130 0 182 -32.5t52 -121.5t-52 -123t-182 -34zM266 1507q0 -53 16 -67.5t76 -14.5t76.5 14.5t16.5 67.5t-16.5 67.5t-76.5 14.5t-76 -14.5t-16 -67.5z" />
    <glyph glyph-name="ogonek" unicode="&#x2db;" horiz-adv-x="612" 
d="M123 -276q0 64 61 126t211 150h94q-97 -96 -137.5 -155.5t-40.5 -108.5q0 -46 31.5 -58t106.5 7v-95q-41 -24 -132 -24q-102 0 -148 36.5t-46 121.5z" />
    <glyph glyph-name="tilde" unicode="&#x2dc;" horiz-adv-x="1064" 
d="M705 1546q40 0 61 19t33 65h143q0 -154 -61 -217t-209 -63q-62 0 -112.5 18t-77.5 40t-59.5 40t-62.5 18q-40 0 -61 -19t-33 -65h-143q0 154 61 217.5t209 63.5q62 0 112.5 -18.5t77.5 -40t59.5 -40t62.5 -18.5z" />
    <glyph glyph-name="hungarumlaut" unicode="&#x2dd;" horiz-adv-x="1085" 
d="M512 1352l143 288h308l-226 -288h-225zM123 1352l143 288h307l-225 -288h-225z" />
    <glyph glyph-name="gravecomb" unicode="&#x300;" 
d="M676 1352h-246l-307 288h409z" />
    <glyph glyph-name="acutecomb" unicode="&#x301;" 
d="M123 1352l143 288h410l-307 -288h-246z" />
    <glyph glyph-name="uni0302" unicode="&#x302;" 
d="M403 1638h259l280 -286h-227l-174 116h-13l-178 -116h-227z" />
    <glyph glyph-name="tildecomb" unicode="&#x303;" 
d="M705 1546q40 0 61 19t33 65h143q0 -154 -61 -217t-209 -63q-62 0 -112.5 18t-77.5 40t-59.5 40t-62.5 18q-40 0 -61 -19t-33 -65h-143q0 154 61 217.5t209 63.5q62 0 112.5 -18.5t77.5 -40t59.5 -40t62.5 -18.5z" />
    <glyph glyph-name="uni0304" unicode="&#x304;" 
d="M778 1556v-184h-655v184h655z" />
    <glyph glyph-name="uni0306" unicode="&#x306;" 
d="M737 1638q0 -55 -3.5 -93.5t-11.5 -71t-24 -53t-37.5 -35.5t-55.5 -22.5t-74.5 -11t-98.5 -3.5q-68 0 -113.5 4t-82 16.5t-57 32t-34 53.5t-18 77t-4.5 107l184 -2q0 -131 23 -168.5t102 -37.5q77 0 99 38t22 170h184z" />
    <glyph glyph-name="uni0307" unicode="&#x307;" 
d="M123 1638h409v-286h-409v286z" />
    <glyph glyph-name="uni0308" unicode="&#x308;" 
d="M123 1638h328v-286h-328v286zM573 1352v286h328v-286h-328z" />
    <glyph glyph-name="uni030A" unicode="&#x30a;" 
d="M360 1352q-132 0 -184.5 33.5t-52.5 123.5q0 89 52 121.5t185 32.5q130 0 182 -32.5t52 -121.5t-52 -123t-182 -34zM266 1507q0 -53 16 -67.5t76 -14.5t76.5 14.5t16.5 67.5t-16.5 67.5t-76.5 14.5t-76 -14.5t-16 -67.5z" />
    <glyph glyph-name="uni030B" unicode="&#x30b;" 
d="M512 1352l143 288h308l-226 -288h-225zM123 1352l143 288h307l-225 -288h-225z" />
    <glyph glyph-name="uni030C" unicode="&#x30c;" 
d="M403 1352l-280 286h227l178 -116h13l174 116h227l-280 -286h-259z" />
    <glyph glyph-name="uni0312" unicode="&#x312;" 
d="M512 1311h-389v86q0 160 67.5 213t262.5 53h57v-94q-103 0 -144.5 -13t-50.5 -49h197v-196z" />
    <glyph glyph-name="uni0326" unicode="&#x326;" 
d="M123 -82h389v-86q0 -160 -67.5 -213t-262.5 -53h-57v94q103 0 144 12.5t50 48.5h-196v197z" />
    <glyph glyph-name="uni0327" unicode="&#x327;" 
d="M510 -254q0 -69 -29 -106.5t-100 -55.5t-201 -18h-57v94q119 0 159 16t40 60v20q0 44 -40 60t-159 16v94l170 76h61l-49 -82q114 -12 159.5 -53t45.5 -121z" />
    <glyph glyph-name="uni0328" unicode="&#x328;" 
d="M123 -276q0 64 61 126t211 150h94q-97 -96 -137.5 -155.5t-40.5 -108.5q0 -46 31.5 -58t106.5 7v-95q-41 -24 -132 -24q-102 0 -148 36.5t-46 121.5z" />
    <glyph glyph-name="Wgrave" unicode="&#x1e80;" horiz-adv-x="2465" 
d="M1602 1597l194 -1228h16l226 1228h418l-304 -1597h-725l-194 1229h-16l-164 -1229h-731l-312 1597h439l231 -1228h16l162 1228h744zM813 2009h410l143 -289h-246z" />
    <glyph glyph-name="wgrave" unicode="&#x1e81;" horiz-adv-x="2033" 
d="M1333 1229l150 -963h12l174 963h354l-241 -1229h-615l-149 942h-12l-127 -942h-619l-250 1229h377l178 -963h13l124 963h631zM608 1640h410l143 -288h-246z" />
    <glyph glyph-name="Wacute" unicode="&#x1e82;" horiz-adv-x="2465" 
d="M1602 1597l194 -1228h16l226 1228h418l-304 -1597h-725l-194 1229h-16l-164 -1229h-731l-312 1597h439l231 -1228h16l162 1228h744zM1079 1720l144 289h409l-307 -289h-246z" />
    <glyph glyph-name="wacute" unicode="&#x1e83;" horiz-adv-x="2033" 
d="M1333 1229l150 -963h12l174 963h354l-241 -1229h-615l-149 942h-12l-127 -942h-619l-250 1229h377l178 -963h13l124 963h631zM874 1352l144 288h409l-307 -288h-246z" />
    <glyph glyph-name="Wdieresis" unicode="&#x1e84;" horiz-adv-x="2465" 
d="M1602 1597l194 -1228h16l226 1228h418l-304 -1597h-725l-194 1229h-16l-164 -1229h-731l-312 1597h439l231 -1228h16l162 1228h744zM834 1720v287h327v-287h-327zM1284 1720v287h328v-287h-328z" />
    <glyph glyph-name="wdieresis" unicode="&#x1e85;" horiz-adv-x="2033" 
d="M1333 1229l150 -963h12l174 963h354l-241 -1229h-615l-149 942h-12l-127 -942h-619l-250 1229h377l178 -963h13l124 963h631zM629 1352v286h327v-286h-327zM1079 1352v286h328v-286h-328z" />
    <glyph glyph-name="uni1E9E" unicode="&#x1e9e;" horiz-adv-x="1738" 
d="M1559 1597v-376l-377 -365q95 -3 159 -10.5t115 -26t80 -45t48 -72t25.5 -101.5t6.5 -140v-41q0 -93 -6.5 -154.5t-25 -111t-47 -77.5t-79.5 -46.5t-114 -24.5t-158 -6h-363v369h191q108 0 140 26t32 111q0 87 -32 113t-140 26h-266v328l362 297h-578v-1270h-409v1597
h1436z" />
    <glyph glyph-name="Ygrave" unicode="&#x1ef2;" horiz-adv-x="1562" 
d="M1552 1597l-479 -983h-61v-614h-430v614h-76l-496 983h484l299 -657h12l291 657h456zM389 2009h410l143 -289h-246z" />
    <glyph glyph-name="ygrave" unicode="&#x1ef3;" horiz-adv-x="1302" 
d="M936 -96q-21 -77 -47 -129t-63 -89.5t-92.5 -57.5t-125.5 -29t-172 -9h-280v328h231q117 0 149.5 14t49.5 74l10 35h-246l-340 1188h406l248 -910h12l235 910h381zM260 1640h410l143 -288h-246z" />
    <glyph glyph-name="endash" unicode="&#x2013;" horiz-adv-x="1447" 
d="M123 815h1202v-348h-1202v348z" />
    <glyph glyph-name="emdash" unicode="&#x2014;" horiz-adv-x="2183" 
d="M123 815h1937v-348h-1937v348z" />
    <glyph glyph-name="quoteleft" unicode="&#x2018;" horiz-adv-x="716" 
d="M594 1044h-471v250q0 198 68 267t262 69h139v-114q-160 0 -216 -16t-63 -66h281v-390z" />
    <glyph glyph-name="quoteright" unicode="&#x2019;" horiz-adv-x="716" 
d="M123 1638h471v-249q0 -198 -68 -267t-262 -69h-139v114q160 0 215.5 16t62.5 66h-280v389z" />
    <glyph glyph-name="quotesinglbase" unicode="&#x201a;" horiz-adv-x="716" 
d="M123 389h471v-250q0 -198 -68 -267t-262 -69h-139v115q160 0 215.5 16t62.5 66h-280v389z" />
    <glyph glyph-name="quotedblleft" unicode="&#x201c;" horiz-adv-x="1351" 
d="M1229 1044h-471v250q0 198 67.5 267t261.5 69h140v-114q-160 0 -216 -16t-63 -66h281v-390zM41 1044v250q0 198 68 267t262 69h139v-114q-160 0 -216 -16t-63 -66h281v-390h-471z" />
    <glyph glyph-name="quotedblright" unicode="&#x201d;" horiz-adv-x="1351" 
d="M123 1638h471v-249q0 -198 -68 -267t-262 -69h-139v114q160 0 215.5 16t62.5 66h-280v389zM840 1249v389h471v-249q0 -198 -68 -267t-262 -69h-139v114q160 0 215.5 16t62.5 66h-280z" />
    <glyph glyph-name="quotedblbase" unicode="&#x201e;" horiz-adv-x="1433" 
d="M123 389h471v-250q0 -198 -68 -267t-262 -69h-139v115q160 0 215.5 16t62.5 66h-280v389zM840 0v389h471v-250q0 -198 -68 -267t-262 -69h-139v115q160 0 215.5 16t62.5 66h-280z" />
    <glyph glyph-name="dagger" unicode="&#x2020;" horiz-adv-x="1136" 
d="M424 461l35 594l-336 -29v287l332 -33l-31 358h287l-31 -358l334 31v-287l-338 31l35 -594l-136 -342h-12z" />
    <glyph glyph-name="daggerdbl" unicode="&#x2021;" horiz-adv-x="1136" 
d="M424 61l31 359l-332 -33v287l342 -29v410l-342 -29v287l332 -33l-31 358h287l-31 -358l334 31v-287l-344 33v-414l344 33v-287l-334 31l31 -359h-287z" />
    <glyph glyph-name="bullet" unicode="&#x2022;" horiz-adv-x="819" 
d="M412 358q-173 0 -231 53.5t-58 213.5t58 213t231 53q170 0 227 -53t57 -213t-57 -213.5t-227 -53.5z" />
    <glyph glyph-name="ellipsis" unicode="&#x2026;" horiz-adv-x="716" 
d="M123 389h471v-389h-471v389z" />
    <glyph glyph-name="perthousand" unicode="&#x2030;" horiz-adv-x="2897" 
d="M371 0l958 1597h287l-959 -1597h-286zM61 1210q0 85 7 144.5t26 107t47.5 76.5t74.5 48t104.5 26.5t140.5 7.5t140.5 -7.5t104.5 -26.5t74.5 -48t47 -76.5t25.5 -107t7 -144.5t-7 -144.5t-25.5 -107t-47 -76.5t-74.5 -47.5t-104.5 -26t-140.5 -7.5q-124 0 -198 17
t-121 65t-64 124t-17 203zM301 1210q0 -52 1.5 -83t8.5 -57.5t16 -39t29 -21t43 -10.5t62 -2t62 2t43 10.5t29 21t16 39t8.5 57.5t1.5 83t-1.5 83t-8.5 57.5t-16 39t-29 21t-43 10.5t-62 2t-62 -2t-43 -10.5t-29 -21t-16 -39t-8.5 -57.5t-1.5 -83zM1116 385q0 85 7 144.5
t26 107t47.5 76.5t74.5 48t104.5 26.5t140.5 7.5t140.5 -7.5t104.5 -26.5t74.5 -48t47 -76.5t25.5 -107t7 -144.5t-7 -144.5t-25.5 -107t-47 -76.5t-74.5 -48t-104.5 -26.5t-140.5 -7.5t-140.5 7.5t-104.5 26.5t-74.5 48t-47.5 76.5t-26 107t-7 144.5zM1356 385
q0 -52 1.5 -83t8.5 -57.5t16 -39t29 -21t43 -10.5t62 -2t62 2t42.5 10.5t29 21t16 39t8 57.5t1.5 83t-1.5 83t-8 57.5t-16 39t-29 21t-42.5 10.5t-62 2t-62 -2t-43 -10.5t-29 -21t-16 -39t-8.5 -57.5t-1.5 -83zM2038 385q0 85 7 144.5t25.5 107t47 76.5t74.5 48t104.5 26.5
t140.5 7.5t140.5 -7.5t104.5 -26.5t74.5 -48t47 -76.5t25.5 -107t7 -144.5t-7 -144.5t-25.5 -107t-47 -76.5t-74.5 -48t-104.5 -26.5t-140.5 -7.5t-140.5 7.5t-104.5 26.5t-74.5 48t-47 76.5t-25.5 107t-7 144.5zM2277 385q0 -52 1.5 -83t8.5 -57.5t16 -39t29 -21t43 -10.5
t62 -2t62 2t43 10.5t29 21t16 39t8.5 57.5t1.5 83t-1.5 83t-8.5 57.5t-16 39t-29 21t-43 10.5t-62 2t-62 -2t-43 -10.5t-29 -21t-16 -39t-8.5 -57.5t-1.5 -83z" />
    <glyph glyph-name="guilsinglleft" unicode="&#x2039;" horiz-adv-x="696" 
d="M123 500v225l450 336v-266l-239 -174v-13l239 -178v-266z" />
    <glyph glyph-name="guilsinglright" unicode="&#x203a;" horiz-adv-x="696" 
d="M573 500l-450 -336v266l239 178v13l-239 174v266l450 -336v-225z" />
    <glyph glyph-name="fraction" unicode="&#x2044;" horiz-adv-x="1191" 
d="M-164 -410l1192 2048h246l-1192 -2048h-246z" />
    <glyph glyph-name="Euro" unicode="&#x20ac;" horiz-adv-x="1947" 
d="M61 1071h209q13 110 38.5 191.5t70.5 144t105 103t148 66t194.5 36t248.5 10.5q166 0 287.5 -12t214 -40.5t151 -71t95 -109t50.5 -148t13 -194.5h-450q1 52 -2 84t-17 60t-36.5 42t-65.5 24.5t-98.5 13.5t-141.5 3q-97 0 -153 -6.5t-100.5 -28.5t-66 -61.5t-32.5 -106.5
h518v-184h-532v-88v-76h532v-184h-520q8 -57 24 -94.5t40.5 -62t67.5 -37t93 -17t129 -4.5q74 0 124 3t91.5 8.5t66 18t42 27.5t25 42t10.5 56.5t2 75.5h450q1 -113 -13 -195.5t-50.5 -149.5t-95.5 -110t-151 -72t-213.5 -41t-287.5 -12q-172 0 -293.5 16.5t-216 54
t-153 103.5t-93.5 160.5t-49 229.5h-209v184h197v76q0 59 2 88h-199v184z" />
    <glyph glyph-name="trademark" unicode="&#x2122;" horiz-adv-x="1277" 
d="M236 1147v369h-146v110h424v-110h-149v-369h-129zM559 1147v479h234l71 -356h6l72 356h227v-479h-129v356h-4l-73 -356h-199l-72 356h-4v-356h-129z" />
    <glyph glyph-name="minus" unicode="&#x2212;" horiz-adv-x="1064" 
d="M121 815h819v-348h-819v348z" />
    <glyph glyph-name="approxequal" unicode="&#x2248;" horiz-adv-x="1064" 
d="M705 451q40 0 61 19t33 65h143q0 -154 -61 -217.5t-209 -63.5q-62 0 -112.5 18.5t-77.5 40t-59.5 40t-62.5 18.5q-40 0 -61 -19t-33 -65h-143q0 154 61 217t209 63q62 0 112.5 -18t77.5 -40t59.5 -40t62.5 -18zM123 696q0 154 61 217.5t209 63.5q62 0 112.5 -18.5
t77.5 -40t59.5 -40t62.5 -18.5q40 0 61 19t33 65h143q0 -154 -61 -217t-209 -63q-62 0 -112.5 18t-77.5 40t-59.5 40t-62.5 18q-40 0 -61 -19t-33 -65h-143z" />
    <glyph glyph-name="notequal" unicode="&#x2260;" horiz-adv-x="1447" 
d="M123 569h485l66 205h-551v348h661l166 516h246l-166 -516h295v-348h-405l-66 -205h471v-348h-582l-202 -631h-246l203 631h-375v348z" />
    <glyph glyph-name="uni004A0301" horiz-adv-x="1396" 
d="M492 537q0 -51 2 -81t10 -56t19.5 -38.5t36 -21t53.5 -10.5t77 -2t76 2t52.5 10.5t35.5 20.5t19 38t10 56t2 80v1062h430v-1062q0 -115 -11 -196.5t-40 -146.5t-73.5 -104.5t-116.5 -66t-163.5 -36.5t-220.5 -10q-130 0 -222 10t-164.5 36t-117 66t-74 105t-40.5 147
t-11 198v163h431v-163zM545 1720l143 289h410l-307 -289h-246z" />
    <glyph glyph-name="G.ss01" horiz-adv-x="1732" 
d="M905 856h766v-225q0 -135 -14 -231t-50.5 -171.5t-92.5 -122t-147.5 -77t-207.5 -42.5t-280 -12q-168 0 -287.5 15t-214 53t-152.5 96.5t-96.5 153.5t-53 215.5t-14.5 290.5t14.5 290.5t53 215.5t96.5 153.5t152.5 96.5t214 52.5t287.5 14.5q165 0 281.5 -10.5t208.5 -38
t148 -70t92 -111t49.5 -155t12.5 -209.5h-450q1 45 -0.5 74.5t-8 57t-15.5 43.5t-29 30.5t-42.5 21t-61.5 11.5t-80.5 6.5t-104.5 1.5q-89 0 -142.5 -4.5t-99 -24.5t-66.5 -47.5t-36.5 -86t-19 -127.5t-3.5 -185t3.5 -185t19 -127.5t36.5 -86t66.5 -47.5t99 -24.5
t142.5 -4.5q92 0 146 2t100.5 10.5t68 20t37 37t19 55t3.5 79.5h-348v328z" />
    <glyph glyph-name="I.ss01" horiz-adv-x="1576" 
d="M82 0v369h491v860h-467v368h1364v-368h-466v-860h491v-369h-1413z" />
    <glyph glyph-name="IJ.ss01" horiz-adv-x="1445" 
d="M102 0v1597h430v-1597h-430zM635 0v348h119q53 0 86.5 8.5t57 28t35 60t16.5 94.5t5 141v958h410v-958q0 -150 -8 -250t-33 -180.5t-62 -125t-104 -74.5t-150 -40t-208 -10h-164z" />
    <glyph glyph-name="Iacute.ss01" horiz-adv-x="1576" 
d="M82 0v369h491v860h-467v368h1364v-368h-466v-860h491v-369h-1413zM647 1761l144 289h409l-307 -289h-246z" />
    <glyph glyph-name="Icircumflex.ss01" horiz-adv-x="1576" 
d="M82 0v369h491v860h-467v368h1364v-368h-466v-860h491v-369h-1413zM379 1761l280 287h259l280 -287h-227l-174 117h-13l-178 -117h-227z" />
    <glyph glyph-name="Idieresis.ss01" horiz-adv-x="1576" 
d="M82 0v369h491v860h-467v368h1364v-368h-466v-860h491v-369h-1413zM401 1761v287h328v-287h-328zM852 1761v287h328v-287h-328z" />
    <glyph glyph-name="Igrave.ss01" horiz-adv-x="1576" 
d="M82 0v369h491v860h-467v368h1364v-368h-466v-860h491v-369h-1413zM381 2050h410l143 -289h-246z" />
    <glyph glyph-name="Imacron.ss01" horiz-adv-x="1576" 
d="M82 0v369h491v860h-467v368h1364v-368h-466v-860h491v-369h-1413zM463 1782v184h655v-184h-655z" />
    <glyph glyph-name="Iogonek.ss01" horiz-adv-x="1576" 
d="M82 0v369h491v860h-467v368h1364v-368h-466v-860h491v-369q-97 -96 -137.5 -155.5t-40.5 -108.5q0 -46 31 -58t106 7v-95q-41 -24 -131 -24q-103 0 -149 36.5t-46 121.5q0 64 61.5 126t211.5 150h-1319z" />
    <glyph glyph-name="J.ss01" horiz-adv-x="892" 
d="M201 348q53 0 86.5 8.5t57 28t35 60t16.5 94.5t5 141v958h410v-958q0 -150 -8 -250t-33 -180.5t-62 -125t-104 -74.5t-150 -40t-208 -10h-164v348h119z" />
    <glyph glyph-name="uni004A0301.ss01" horiz-adv-x="892" 
d="M201 348q53 0 86.5 8.5t57 28t35 60t16.5 94.5t5 141v958h410v-958q0 -150 -8 -250t-33 -180.5t-62 -125t-104 -74.5t-150 -40t-208 -10h-164v348h119zM408 1720l143 289h410l-308 -289h-245z" />
    <glyph glyph-name="K.ss01" horiz-adv-x="1624" 
d="M102 0v1597h430v-608h216l356 608h489l-497 -780l518 -817h-492l-362 621h-228v-621h-430z" />
    <glyph glyph-name="uni0136.ss01" horiz-adv-x="1624" 
d="M102 0v1597h430v-608h216l356 608h489l-497 -780l518 -817h-492l-362 621h-228v-621h-430zM555 -279v197h389v-86q0 -160 -67.5 -213t-262.5 -53h-57v94q103 0 144.5 12.5t50.5 48.5h-197z" />
    <glyph glyph-name="Q.ss01" horiz-adv-x="1781" 
d="M891 1274q-69 0 -115 -2.5t-88.5 -12t-67 -22.5t-46.5 -40.5t-32.5 -58.5t-18 -84.5t-9.5 -110.5t-2 -144t2 -144t9.5 -110.5t18 -84.5t32.5 -58.5t46.5 -40.5t67 -22.5t88.5 -12t115 -2.5t115 2.5t88.5 12t67 22.5t46.5 40.5t32.5 58.5t18 84.5t9.5 110.5t2 144t-2 144
t-9.5 110.5t-18 84.5t-32.5 58.5t-46.5 40.5t-67 22.5t-88.5 12t-115 2.5zM61 799q0 170 15 290.5t53.5 215.5t97 153t154.5 96.5t217.5 53t292.5 14.5t292.5 -14.5t217 -53t154.5 -96.5t97 -153t53 -215.5t15 -290.5q0 -175 -16.5 -298t-54.5 -218t-105 -154t-163 -94
t-234 -49v-25q6 -57 22.5 -70.5t79.5 -13.5h287v-287h-307q-127 0 -211 8.5t-145.5 27.5t-94 54.5t-47 85t-14.5 123.5v91q-159 9 -268.5 40.5t-186.5 88.5t-120 153.5t-62 224t-19 312.5z" />
    <glyph glyph-name="R.ss01" horiz-adv-x="1640" 
d="M1016 1597q110 0 187.5 -9.5t139 -33.5t99.5 -61t62.5 -97.5t34 -137.5t9.5 -185q0 -262 -90.5 -383.5t-288.5 -126.5q35 -87 60 -131q20 -34 31.5 -47t40 -23.5t77.5 -11.5l181 -2v-348h-269q-149 0 -230.5 44.5t-139.5 160.5l-181 358h-207v-563h-430v1597h914z
M532 891h373q52 0 83 1.5t57.5 9.5t38.5 18.5t21 33t11 48.5t2 71q0 43 -2 68.5t-10.5 47t-21 32t-39 18t-57.5 9t-83 1.5h-373v-358z" />
    <glyph glyph-name="R.ss02" horiz-adv-x="1687" 
d="M1016 1597q110 0 187.5 -9.5t139 -33.5t99.5 -61t62.5 -97.5t34 -137.5t9.5 -185q0 -247 -80.5 -369t-255.5 -139l394 -565h-478l-346 563h-250v-563h-430v1597h914zM532 891h373q52 0 83 1.5t57.5 9.5t38.5 18.5t21 33t11 48.5t2 71q0 43 -2 68.5t-10.5 47t-21 32
t-39 18t-57.5 9t-83 1.5h-373v-358z" />
    <glyph glyph-name="R.ss03" horiz-adv-x="1689" 
d="M1016 1597q110 0 187.5 -8t139 -29.5t99.5 -54t62.5 -86t34 -121t9.5 -163.5q0 -192 -75.5 -294t-245.5 -126q161 -17 230 -92.5t69 -229.5q0 -283 82 -375v-18h-471q-25 49 -34 116t-9 181q0 140 -57.5 203t-184.5 63h-320v-563h-430v1597h914zM532 891h373q52 0 83 1.5
t57.5 9.5t38.5 18.5t21 33t11 48.5t2 71q0 43 -2 68.5t-10.5 47t-21 32t-39 18t-57.5 9t-83 1.5h-373v-358z" />
    <glyph glyph-name="I_J.dlig" horiz-adv-x="1417" 
d="M82 598v1001h430v-1001h-430zM82 434h430q0 -31 4.5 -48t14 -30.5t34.5 -18.5t56.5 -7t89.5 -2q48 0 76 2t52 10.5t35.5 20.5t19 38t9.5 55.5t2 80.5v1062h430v-1062q0 -115 -11 -196.5t-40 -146.5t-73 -104.5t-116 -66t-163.5 -36.5t-220.5 -10q-130 0 -222 8
t-164.5 29.5t-117 54t-74 85.5t-40.5 120t-11 162z" />
    <glyph glyph-name="uni006A0301" horiz-adv-x="735" 
d="M102 -61q89 0 115.5 23t26.5 101v1166h389v-1225q0 -86 -9 -146.5t-31.5 -108t-57.5 -77t-91.5 -48.5t-128 -26.5t-172.5 -7.5h-41v349zM295 1352l143 288h410l-307 -288h-246z" />
    <glyph glyph-name="a.ss01" horiz-adv-x="1415" 
d="M698 1253q117 0 200.5 -7.5t149 -27.5t106.5 -50.5t67 -79.5t36.5 -111t10.5 -150v-491q0 -34 7.5 -41.5t41.5 -7.5h16v-287h-233q-114 0 -166 39.5t-55 130.5q-31 -100 -112.5 -147t-229.5 -48q-98 -3 -167.5 2t-124.5 21.5t-89 43t-56 71.5t-30.5 102.5t-8.5 138.5
q0 77 8.5 132t30 98t55 70t87.5 44t122.5 24t165.5 7l349 2v70q0 60 -5 90t-27 49t-54 23t-99 4q-50 0 -79.5 -1.5t-55 -8.5t-37.5 -16.5t-20 -29t-9.5 -43t-0.5 -61.5h-390v43q0 84 10.5 143t38.5 105.5t70 75t111 47t156 25.5t210 7zM471 350q0 -47 15.5 -66t59.5 -25.5
t148 -4.5q94 2 139.5 33.5t45.5 103.5v53l-185 -2q-65 0 -100 -2t-63.5 -6t-39 -15.5t-15.5 -26.5t-5 -42z" />
    <glyph glyph-name="aacute.ss01" horiz-adv-x="1415" 
d="M698 1253q117 0 200.5 -7.5t149 -27.5t106.5 -50.5t67 -79.5t36.5 -111t10.5 -150v-491q0 -34 7.5 -41.5t41.5 -7.5h16v-287h-233q-114 0 -166 39.5t-55 130.5q-31 -100 -112.5 -147t-229.5 -48q-98 -3 -167.5 2t-124.5 21.5t-89 43t-56 71.5t-30.5 102.5t-8.5 138.5
q0 77 8.5 132t30 98t55 70t87.5 44t122.5 24t165.5 7l349 2v70q0 60 -5 90t-27 49t-54 23t-99 4q-50 0 -79.5 -1.5t-55 -8.5t-37.5 -16.5t-20 -29t-9.5 -43t-0.5 -61.5h-390v43q0 84 10.5 143t38.5 105.5t70 75t111 47t156 25.5t210 7zM471 350q0 -47 15.5 -66t59.5 -25.5
t148 -4.5q94 2 139.5 33.5t45.5 103.5v53l-185 -2q-65 0 -100 -2t-63.5 -6t-39 -15.5t-15.5 -26.5t-5 -42zM510 1352l143 288h410l-307 -288h-246z" />
    <glyph glyph-name="abreve.ss01" horiz-adv-x="1415" 
d="M698 1253q117 0 200.5 -7.5t149 -27.5t106.5 -50.5t67 -79.5t36.5 -111t10.5 -150v-491q0 -34 7.5 -41.5t41.5 -7.5h16v-287h-233q-114 0 -166 39.5t-55 130.5q-31 -100 -112.5 -147t-229.5 -48q-98 -3 -167.5 2t-124.5 21.5t-89 43t-56 71.5t-30.5 102.5t-8.5 138.5
q0 77 8.5 132t30 98t55 70t87.5 44t122.5 24t165.5 7l349 2v70q0 60 -5 90t-27 49t-54 23t-99 4q-50 0 -79.5 -1.5t-55 -8.5t-37.5 -16.5t-20 -29t-9.5 -43t-0.5 -61.5h-390v43q0 84 10.5 143t38.5 105.5t70 75t111 47t156 25.5t210 7zM346 1638l184 -2q0 -131 23 -168.5
t102 -37.5q77 0 99 38t22 170h185q0 -64 -4.5 -107t-18 -77.5t-33.5 -53.5t-56.5 -31.5t-81 -16.5t-112.5 -4t-113.5 4t-82 16.5t-57 32t-34 53.5t-18 77t-4.5 107zM471 350q0 -47 15.5 -66t59.5 -25.5t148 -4.5q94 2 139.5 33.5t45.5 103.5v53l-185 -2q-65 0 -100 -2
t-63.5 -6t-39 -15.5t-15.5 -26.5t-5 -42z" />
    <glyph glyph-name="acircumflex.ss01" horiz-adv-x="1415" 
d="M698 1253q117 0 200.5 -7.5t149 -27.5t106.5 -50.5t67 -79.5t36.5 -111t10.5 -150v-491q0 -34 7.5 -41.5t41.5 -7.5h16v-287h-233q-114 0 -166 39.5t-55 130.5q-31 -100 -112.5 -147t-229.5 -48q-98 -3 -167.5 2t-124.5 21.5t-89 43t-56 71.5t-30.5 102.5t-8.5 138.5
q0 77 8.5 132t30 98t55 70t87.5 44t122.5 24t165.5 7l349 2v70q0 60 -5 90t-27 49t-54 23t-99 4q-50 0 -79.5 -1.5t-55 -8.5t-37.5 -16.5t-20 -29t-9.5 -43t-0.5 -61.5h-390v43q0 84 10.5 143t38.5 105.5t70 75t111 47t156 25.5t210 7zM242 1352l280 286h258l281 -286h-227
l-175 116h-12l-178 -116h-227zM471 350q0 -47 15.5 -66t59.5 -25.5t148 -4.5q94 2 139.5 33.5t45.5 103.5v53l-185 -2q-65 0 -100 -2t-63.5 -6t-39 -15.5t-15.5 -26.5t-5 -42z" />
    <glyph glyph-name="adieresis.ss01" horiz-adv-x="1415" 
d="M698 1253q117 0 200.5 -7.5t149 -27.5t106.5 -50.5t67 -79.5t36.5 -111t10.5 -150v-491q0 -34 7.5 -41.5t41.5 -7.5h16v-287h-233q-114 0 -166 39.5t-55 130.5q-31 -100 -112.5 -147t-229.5 -48q-98 -3 -167.5 2t-124.5 21.5t-89 43t-56 71.5t-30.5 102.5t-8.5 138.5
q0 77 8.5 132t30 98t55 70t87.5 44t122.5 24t165.5 7l349 2v70q0 60 -5 90t-27 49t-54 23t-99 4q-50 0 -79.5 -1.5t-55 -8.5t-37.5 -16.5t-20 -29t-9.5 -43t-0.5 -61.5h-390v43q0 84 10.5 143t38.5 105.5t70 75t111 47t156 25.5t210 7zM264 1352v286h328v-286h-328zM471 350
q0 -47 15.5 -66t59.5 -25.5t148 -4.5q94 2 139.5 33.5t45.5 103.5v53l-185 -2q-65 0 -100 -2t-63.5 -6t-39 -15.5t-15.5 -26.5t-5 -42zM715 1352v286h327v-286h-327z" />
    <glyph glyph-name="agrave.ss01" horiz-adv-x="1415" 
d="M698 1253q117 0 200.5 -7.5t149 -27.5t106.5 -50.5t67 -79.5t36.5 -111t10.5 -150v-491q0 -34 7.5 -41.5t41.5 -7.5h16v-287h-233q-114 0 -166 39.5t-55 130.5q-31 -100 -112.5 -147t-229.5 -48q-98 -3 -167.5 2t-124.5 21.5t-89 43t-56 71.5t-30.5 102.5t-8.5 138.5
q0 77 8.5 132t30 98t55 70t87.5 44t122.5 24t165.5 7l349 2v70q0 60 -5 90t-27 49t-54 23t-99 4q-50 0 -79.5 -1.5t-55 -8.5t-37.5 -16.5t-20 -29t-9.5 -43t-0.5 -61.5h-390v43q0 84 10.5 143t38.5 105.5t70 75t111 47t156 25.5t210 7zM244 1640h409l144 -288h-246zM471 350
q0 -47 15.5 -66t59.5 -25.5t148 -4.5q94 2 139.5 33.5t45.5 103.5v53l-185 -2q-65 0 -100 -2t-63.5 -6t-39 -15.5t-15.5 -26.5t-5 -42z" />
    <glyph glyph-name="amacron.ss01" horiz-adv-x="1415" 
d="M698 1253q117 0 200.5 -7.5t149 -27.5t106.5 -50.5t67 -79.5t36.5 -111t10.5 -150v-491q0 -34 7.5 -41.5t41.5 -7.5h16v-287h-233q-114 0 -166 39.5t-55 130.5q-31 -100 -112.5 -147t-229.5 -48q-98 -3 -167.5 2t-124.5 21.5t-89 43t-56 71.5t-30.5 102.5t-8.5 138.5
q0 77 8.5 132t30 98t55 70t87.5 44t122.5 24t165.5 7l349 2v70q0 60 -5 90t-27 49t-54 23t-99 4q-50 0 -79.5 -1.5t-55 -8.5t-37.5 -16.5t-20 -29t-9.5 -43t-0.5 -61.5h-390v43q0 84 10.5 143t38.5 105.5t70 75t111 47t156 25.5t210 7zM326 1372v184h655v-184h-655zM471 350
q0 -47 15.5 -66t59.5 -25.5t148 -4.5q94 2 139.5 33.5t45.5 103.5v53l-185 -2q-65 0 -100 -2t-63.5 -6t-39 -15.5t-15.5 -26.5t-5 -42z" />
    <glyph glyph-name="aogonek.ss01" horiz-adv-x="1415" 
d="M698 1253q117 0 200.5 -7.5t149 -27.5t106.5 -50.5t67 -79.5t36.5 -111t10.5 -150v-491q0 -34 7.5 -41.5t41.5 -7.5h16v-287q-97 -96 -137.5 -155.5t-40.5 -108.5q0 -46 31 -58t106 7v-95q-41 -24 -131 -24q-102 0 -148 36.5t-46 121.5q0 64 61 126t211 150h-139
q-114 0 -166 39.5t-55 130.5q-31 -100 -112.5 -147t-229.5 -48q-98 -3 -167.5 2t-124.5 21.5t-89 43t-56 71.5t-30.5 102.5t-8.5 138.5q0 77 8.5 132t30 98t55 70t87.5 44t122.5 24t165.5 7l349 2v70q0 60 -5 90t-27 49t-54 23t-99 4q-50 0 -79.5 -1.5t-55 -8.5t-37.5 -16.5
t-20 -29t-9.5 -43t-0.5 -61.5h-390v43q0 84 10.5 143t38.5 105.5t70 75t111 47t156 25.5t210 7zM471 350q0 -47 15.5 -66t59.5 -25.5t148 -4.5q94 2 139.5 33.5t45.5 103.5v53l-185 -2q-65 0 -100 -2t-63.5 -6t-39 -15.5t-15.5 -26.5t-5 -42z" />
    <glyph glyph-name="aring.ss01" horiz-adv-x="1415" 
d="M698 1253q117 0 200.5 -7.5t149 -27.5t106.5 -50.5t67 -79.5t36.5 -111t10.5 -150v-491q0 -34 7.5 -41.5t41.5 -7.5h16v-287h-233q-114 0 -166 39.5t-55 130.5q-31 -100 -112.5 -147t-229.5 -48q-98 -3 -167.5 2t-124.5 21.5t-89 43t-56 71.5t-30.5 102.5t-8.5 138.5
q0 77 8.5 132t30 98t55 70t87.5 44t122.5 24t165.5 7l349 2v70q0 60 -5 90t-27 49t-54 23t-99 4q-50 0 -79.5 -1.5t-55 -8.5t-37.5 -16.5t-20 -29t-9.5 -43t-0.5 -61.5h-390v43q0 84 10.5 143t38.5 105.5t70 75t111 47t156 25.5t210 7zM418 1509q0 89 52 121.5t185 32.5
q130 0 182 -32.5t52 -121.5t-52 -123t-182 -34q-132 0 -184.5 33.5t-52.5 123.5zM471 350q0 -47 15.5 -66t59.5 -25.5t148 -4.5q94 2 139.5 33.5t45.5 103.5v53l-185 -2q-65 0 -100 -2t-63.5 -6t-39 -15.5t-15.5 -26.5t-5 -42zM561 1507q0 -53 16 -67.5t76 -14.5t76 14.5
t16 67.5t-16 67.5t-76 14.5t-76 -14.5t-16 -67.5z" />
    <glyph glyph-name="atilde.ss01" horiz-adv-x="1415" 
d="M698 1253q117 0 200.5 -7.5t149 -27.5t106.5 -50.5t67 -79.5t36.5 -111t10.5 -150v-491q0 -34 7.5 -41.5t41.5 -7.5h16v-287h-233q-114 0 -166 39.5t-55 130.5q-31 -100 -112.5 -147t-229.5 -48q-98 -3 -167.5 2t-124.5 21.5t-89 43t-56 71.5t-30.5 102.5t-8.5 138.5
q0 77 8.5 132t30 98t55 70t87.5 44t122.5 24t165.5 7l349 2v70q0 60 -5 90t-27 49t-54 23t-99 4q-50 0 -79.5 -1.5t-55 -8.5t-37.5 -16.5t-20 -29t-9.5 -43t-0.5 -61.5h-390v43q0 84 10.5 143t38.5 105.5t70 75t111 47t156 25.5t210 7zM264 1382q0 154 61.5 217.5
t209.5 63.5q62 0 112.5 -18.5t77 -40t59 -40t62.5 -18.5q40 0 61 19t33 65h143q0 -154 -61 -217t-209 -63q-62 0 -112.5 18t-77 40t-59 40t-62.5 18q-40 0 -61 -19t-33 -65h-144zM471 350q0 -47 15.5 -66t59.5 -25.5t148 -4.5q94 2 139.5 33.5t45.5 103.5v53l-185 -2
q-65 0 -100 -2t-63.5 -6t-39 -15.5t-15.5 -26.5t-5 -42z" />
    <glyph glyph-name="g.ss01" horiz-adv-x="1501" 
d="M717 942q-141 0 -183 -24t-42 -107q0 -86 42 -110.5t183 -24.5q80 0 124 4.5t72 20t36.5 40.5t8.5 70q0 43 -8.5 67.5t-37 39.5t-72.5 19.5t-123 4.5zM82 754q0 144 28 232.5t103 144.5t193 77t311 21h702v-287h-256q90 -22 137.5 -74.5t47.5 -150.5q0 -132 -54 -200.5
t-187 -98t-390 -29.5q-116 0 -195 8q-40 -2 -63 -21.5t-23 -51.5q0 -41 19.5 -53.5t85.5 -12.5h331q103 0 178 -7t134 -24t96.5 -43.5t61.5 -68t34 -94t10 -125.5q0 -57 -4.5 -97t-19.5 -75.5t-35.5 -58.5t-59.5 -41.5t-85 -29t-118 -17.5t-152.5 -9t-194.5 -2
q-157 0 -261.5 6.5t-179 21t-113.5 41.5t-56 63t-17 91q0 151 227 178q-107 12 -146.5 47t-39.5 113q0 118 71 193t187 98q-163 35 -235 116.5t-72 219.5zM438 -102q0 -40 16.5 -53t71.5 -13h392q64 0 82 12t18 54q0 39 -18 50t-82 11h-285q-109 0 -156 2
q-24 -6 -31.5 -19.5t-7.5 -43.5z" />
    <glyph glyph-name="uni0123.ss01" horiz-adv-x="1501" 
d="M717 942q-141 0 -183 -24t-42 -107q0 -86 42 -110.5t183 -24.5q80 0 124 4.5t72 20t36.5 40.5t8.5 70q0 43 -8.5 67.5t-37 39.5t-72.5 19.5t-123 4.5zM82 754q0 144 28 232.5t103 144.5t193 77t311 21h702v-287h-256q90 -22 137.5 -74.5t47.5 -150.5q0 -132 -54 -200.5
t-187 -98t-390 -29.5q-116 0 -195 8q-40 -2 -63 -21.5t-23 -51.5q0 -41 19.5 -53.5t85.5 -12.5h331q103 0 178 -7t134 -24t96.5 -43.5t61.5 -68t34 -94t10 -125.5q0 -57 -4.5 -97t-19.5 -75.5t-35.5 -58.5t-59.5 -41.5t-85 -29t-118 -17.5t-152.5 -9t-194.5 -2
q-157 0 -261.5 6.5t-179 21t-113.5 41.5t-56 63t-17 91q0 151 227 178q-107 12 -146.5 47t-39.5 113q0 118 71 193t187 98q-163 35 -235 116.5t-72 219.5zM438 -102q0 -40 16.5 -53t71.5 -13h392q64 0 82 12t18 54q0 39 -18 50t-82 11h-285q-109 0 -156 2
q-24 -6 -31.5 -19.5t-7.5 -43.5zM537 1311v86q0 160 67 213t262 53h58v-94q-103 0 -144.5 -13t-50.5 -49h197v-196h-389z" />
    <glyph glyph-name="k.ss01" horiz-adv-x="1312" 
d="M102 0v1638h390v-815h143l223 406h430l-366 -574l381 -655h-451l-215 475h-145v-475h-390z" />
    <glyph glyph-name="uni0137.ss01" horiz-adv-x="1312" 
d="M102 0v1638h390v-815h143l223 406h430l-366 -574l381 -655h-451l-215 475h-145v-475h-390zM508 -279v197h389v-86q0 -160 -67.5 -213t-262.5 -53h-57v94q103 0 144.5 12.5t50.5 48.5h-197z" />
    <glyph glyph-name="l.ss01" horiz-adv-x="593" 
d="M102 0v1638h390v-1638h-390z" />
    <glyph glyph-name="lacute.ss01" horiz-adv-x="593" 
d="M102 0v1638h390v-1638h-390zM154 1761l143 289h410l-308 -289h-245z" />
    <glyph glyph-name="lcaron.ss01" horiz-adv-x="1034" 
d="M102 0v1638h390v-1638h-390zM676 1063v575h348l-164 -575h-184z" />
    <glyph glyph-name="uni013C.ss01" horiz-adv-x="593" 
d="M102 0v1638h390v-1638h-390zM102 -279v197h390v-86q0 -160 -67.5 -213t-262.5 -53h-58v94q103 0 144.5 12.5t50.5 48.5h-197z" />
    <glyph glyph-name="lslash.ss01" horiz-adv-x="860" 
d="M238 0v649l-136 -35v185l136 35v804h389v-702l131 35v-185l-131 -34v-752h-389z" />
    <glyph glyph-name="q.ss01" horiz-adv-x="1409" 
d="M942 -39q0 -57 16 -70.5t84 -13.5h187v-287h-185q-121 0 -201.5 9.5t-139 31.5t-89.5 62.5t-45 96.5t-14 140l-2 50q-99 7 -171.5 24.5t-128.5 51t-92 80t-59 117t-32 157t-9 204.5q0 132 11.5 225.5t41.5 167.5t76 119t120 74.5t168 41t227 11.5t226.5 -11.5t168 -41
t120 -74.5t75.5 -119t41.5 -167.5t11.5 -225.5q0 -163 -18.5 -270t-66 -183.5t-124.5 -116t-197 -56.5v-27zM471 614q0 -81 2 -129t12 -89t23.5 -60t42.5 -33t63 -17t91 -3t91 3t63 17t42 33t23 60t12 89t2 129t-2 129t-12 89.5t-23 60.5t-42 33t-63 17t-91 3t-91 -3
t-63 -17t-42.5 -33t-23.5 -60.5t-12 -89.5t-2 -129z" />
    <glyph glyph-name="r.ss01" horiz-adv-x="1298" 
d="M102 1229h390v-213q28 124 112.5 180.5t237.5 56.5q126 0 201 -14t122.5 -53.5t64.5 -101.5t17 -166v-293h-389v75q0 50 -1.5 79.5t-8.5 55t-17 37.5t-31.5 20.5t-46.5 10.5t-67 2q-103 0 -148.5 -45.5t-45.5 -148.5v-711h-390v1229z" />
    <glyph glyph-name="racute.ss01" horiz-adv-x="1298" 
d="M102 1229h390v-213q28 124 112.5 180.5t237.5 56.5q126 0 201 -14t122.5 -53.5t64.5 -101.5t17 -166v-293h-389v75q0 50 -1.5 79.5t-8.5 55t-17 37.5t-31.5 20.5t-46.5 10.5t-67 2q-103 0 -148.5 -45.5t-45.5 -148.5v-711h-390v1229zM553 1352l143 288h410l-307 -288
h-246z" />
    <glyph glyph-name="rcaron.ss01" horiz-adv-x="1298" 
d="M102 1229h390v-213q28 124 112.5 180.5t237.5 56.5q126 0 201 -14t122.5 -53.5t64.5 -101.5t17 -166v-293h-389v75q0 50 -1.5 79.5t-8.5 55t-17 37.5t-31.5 20.5t-46.5 10.5t-67 2q-103 0 -148.5 -45.5t-45.5 -148.5v-711h-390v1229zM285 1638h227l178 -116h12l175 116
h227l-281 -286h-258z" />
    <glyph glyph-name="uni0157.ss01" horiz-adv-x="1298" 
d="M102 1229h390v-213q28 124 112.5 180.5t237.5 56.5q126 0 201 -14t122.5 -53.5t64.5 -101.5t17 -166v-293h-389v75q0 50 -1.5 79.5t-8.5 55t-17 37.5t-31.5 20.5t-46.5 10.5t-67 2q-103 0 -148.5 -45.5t-45.5 -148.5v-711h-390v1229zM526 -279v197h389v-86
q0 -160 -67 -213t-262 -53h-58v94q103 0 144.5 12.5t50.5 48.5h-197z" />
    <glyph glyph-name="y.ss01" horiz-adv-x="1370" 
d="M508 57q-87 0 -149 8t-110.5 29.5t-78.5 54t-50 85.5t-27.5 120t-8.5 162l-2 713h389v-641q0 -49 2 -78.5t10.5 -54.5t20.5 -37t37 -20.5t54.5 -10.5t78.5 -2q107 0 156 46t49 149v649h389v-1229q0 -90 -11.5 -153.5t-40.5 -113.5t-74 -81t-118 -51t-165 -27.5t-222 -7.5
q-137 0 -227 11.5t-156 37.5t-101.5 75t-51 116t-15.5 169h369q0 -66 36.5 -88t145.5 -22q71 0 109.5 2t69 7.5t42 19t16.5 31.5t5 50v312q-28 -120 -117 -175t-254 -55z" />
    <glyph glyph-name="yacute.ss01" horiz-adv-x="1370" 
d="M508 57q-87 0 -149 8t-110.5 29.5t-78.5 54t-50 85.5t-27.5 120t-8.5 162l-2 713h389v-641q0 -49 2 -78.5t10.5 -54.5t20.5 -37t37 -20.5t54.5 -10.5t78.5 -2q107 0 156 46t49 149v649h389v-1229q0 -90 -11.5 -153.5t-40.5 -113.5t-74 -81t-118 -51t-165 -27.5t-222 -7.5
q-137 0 -227 11.5t-156 37.5t-101.5 75t-51 116t-15.5 169h369q0 -66 36.5 -88t145.5 -22q71 0 109.5 2t69 7.5t42 19t16.5 31.5t5 50v312q-28 -120 -117 -175t-254 -55zM530 1352l144 288h409l-307 -288h-246z" />
    <glyph glyph-name="ycircumflex.ss01" horiz-adv-x="1370" 
d="M508 57q-87 0 -149 8t-110.5 29.5t-78.5 54t-50 85.5t-27.5 120t-8.5 162l-2 713h389v-641q0 -49 2 -78.5t10.5 -54.5t20.5 -37t37 -20.5t54.5 -10.5t78.5 -2q107 0 156 46t49 149v649h389v-1229q0 -90 -11.5 -153.5t-40.5 -113.5t-74 -81t-118 -51t-165 -27.5t-222 -7.5
q-137 0 -227 11.5t-156 37.5t-101.5 75t-51 116t-15.5 169h369q0 -66 36.5 -88t145.5 -22q71 0 109.5 2t69 7.5t42 19t16.5 31.5t5 50v312q-28 -120 -117 -175t-254 -55zM262 1352l281 286h258l280 -286h-227l-174 116h-12l-179 -116h-227z" />
    <glyph glyph-name="ydieresis.ss01" horiz-adv-x="1370" 
d="M508 57q-87 0 -149 8t-110.5 29.5t-78.5 54t-50 85.5t-27.5 120t-8.5 162l-2 713h389v-641q0 -49 2 -78.5t10.5 -54.5t20.5 -37t37 -20.5t54.5 -10.5t78.5 -2q107 0 156 46t49 149v649h389v-1229q0 -90 -11.5 -153.5t-40.5 -113.5t-74 -81t-118 -51t-165 -27.5t-222 -7.5
q-137 0 -227 11.5t-156 37.5t-101.5 75t-51 116t-15.5 169h369q0 -66 36.5 -88t145.5 -22q71 0 109.5 2t69 7.5t42 19t16.5 31.5t5 50v312q-28 -120 -117 -175t-254 -55zM285 1352v286h327v-286h-327zM735 1352v286h328v-286h-328z" />
    <glyph glyph-name="ygrave.ss01" horiz-adv-x="1370" 
d="M508 57q-87 0 -149 8t-110.5 29.5t-78.5 54t-50 85.5t-27.5 120t-8.5 162l-2 713h389v-641q0 -49 2 -78.5t10.5 -54.5t20.5 -37t37 -20.5t54.5 -10.5t78.5 -2q107 0 156 46t49 149v649h389v-1229q0 -90 -11.5 -153.5t-40.5 -113.5t-74 -81t-118 -51t-165 -27.5t-222 -7.5
q-137 0 -227 11.5t-156 37.5t-101.5 75t-51 116t-15.5 169h369q0 -66 36.5 -88t145.5 -22q71 0 109.5 2t69 7.5t42 19t16.5 31.5t5 50v312q-28 -120 -117 -175t-254 -55zM264 1640h410l143 -288h-246z" />
    <glyph glyph-name="a.ss02" horiz-adv-x="1411" 
d="M1309 0h-389v201q-29 -117 -124.5 -171.5t-267.5 -54.5q-96 0 -164.5 11.5t-122.5 41t-87 74.5t-54.5 119t-30 167.5t-8.5 225.5t8 225.5t29 167.5t52.5 119t83.5 74.5t117 41t157 11.5q182 0 281.5 -54.5t130.5 -172.5v203h389v-1229zM471 614q0 -73 2 -116.5t11.5 -81
t22.5 -55t40.5 -30t60 -15.5t86.5 -3q118 0 172 35.5t54 112.5v258q0 102 -53.5 148t-172.5 46q-54 0 -86.5 -3t-60 -15.5t-40.5 -30t-22.5 -54.5t-11.5 -80t-2 -116z" />
    <glyph glyph-name="aacute.ss02" horiz-adv-x="1411" 
d="M1309 0h-389v201q-29 -117 -124.5 -171.5t-267.5 -54.5q-96 0 -164.5 11.5t-122.5 41t-87 74.5t-54.5 119t-30 167.5t-8.5 225.5t8 225.5t29 167.5t52.5 119t83.5 74.5t117 41t157 11.5q182 0 281.5 -54.5t130.5 -172.5v203h389v-1229zM471 614q0 -73 2 -116.5t11.5 -81
t22.5 -55t40.5 -30t60 -15.5t86.5 -3q118 0 172 35.5t54 112.5v258q0 102 -53.5 148t-172.5 46q-54 0 -86.5 -3t-60 -15.5t-40.5 -30t-22.5 -54.5t-11.5 -80t-2 -116zM551 1352l143 288h410l-307 -288h-246z" />
    <glyph glyph-name="abreve.ss02" horiz-adv-x="1411" 
d="M1309 0h-389v201q-29 -117 -124.5 -171.5t-267.5 -54.5q-96 0 -164.5 11.5t-122.5 41t-87 74.5t-54.5 119t-30 167.5t-8.5 225.5t8 225.5t29 167.5t52.5 119t83.5 74.5t117 41t157 11.5q182 0 281.5 -54.5t130.5 -172.5v203h389v-1229zM387 1638l184 -2q0 -131 23 -168.5
t102 -37.5q77 0 99 38t22 170h184q0 -55 -3.5 -93.5t-11.5 -71t-24 -53t-37.5 -35.5t-55.5 -22.5t-74.5 -11t-98.5 -3.5q-68 0 -113.5 4t-82 16.5t-57 32t-34 53.5t-18 77t-4.5 107zM471 614q0 -73 2 -116.5t11.5 -81t22.5 -55t40.5 -30t60 -15.5t86.5 -3q118 0 172 35.5
t54 112.5v258q0 102 -53.5 148t-172.5 46q-54 0 -86.5 -3t-60 -15.5t-40.5 -30t-22.5 -54.5t-11.5 -80t-2 -116z" />
    <glyph glyph-name="acircumflex.ss02" horiz-adv-x="1411" 
d="M1309 0h-389v201q-29 -117 -124.5 -171.5t-267.5 -54.5q-96 0 -164.5 11.5t-122.5 41t-87 74.5t-54.5 119t-30 167.5t-8.5 225.5t8 225.5t29 167.5t52.5 119t83.5 74.5t117 41t157 11.5q182 0 281.5 -54.5t130.5 -172.5v203h389v-1229zM283 1352l280 286h258l281 -286
h-228l-174 116h-12l-178 -116h-227zM471 614q0 -73 2 -116.5t11.5 -81t22.5 -55t40.5 -30t60 -15.5t86.5 -3q118 0 172 35.5t54 112.5v258q0 102 -53.5 148t-172.5 46q-54 0 -86.5 -3t-60 -15.5t-40.5 -30t-22.5 -54.5t-11.5 -80t-2 -116z" />
    <glyph glyph-name="adieresis.ss02" horiz-adv-x="1411" 
d="M1309 0h-389v201q-29 -117 -124.5 -171.5t-267.5 -54.5q-96 0 -164.5 11.5t-122.5 41t-87 74.5t-54.5 119t-30 167.5t-8.5 225.5t8 225.5t29 167.5t52.5 119t83.5 74.5t117 41t157 11.5q182 0 281.5 -54.5t130.5 -172.5v203h389v-1229zM305 1352v286h328v-286h-328z
M471 614q0 -73 2 -116.5t11.5 -81t22.5 -55t40.5 -30t60 -15.5t86.5 -3q118 0 172 35.5t54 112.5v258q0 102 -53.5 148t-172.5 46q-54 0 -86.5 -3t-60 -15.5t-40.5 -30t-22.5 -54.5t-11.5 -80t-2 -116zM756 1352v286h327v-286h-327z" />
    <glyph glyph-name="agrave.ss02" horiz-adv-x="1411" 
d="M1309 0h-389v201q-29 -117 -124.5 -171.5t-267.5 -54.5q-96 0 -164.5 11.5t-122.5 41t-87 74.5t-54.5 119t-30 167.5t-8.5 225.5t8 225.5t29 167.5t52.5 119t83.5 74.5t117 41t157 11.5q182 0 281.5 -54.5t130.5 -172.5v203h389v-1229zM285 1640h409l144 -288h-246z
M471 614q0 -73 2 -116.5t11.5 -81t22.5 -55t40.5 -30t60 -15.5t86.5 -3q118 0 172 35.5t54 112.5v258q0 102 -53.5 148t-172.5 46q-54 0 -86.5 -3t-60 -15.5t-40.5 -30t-22.5 -54.5t-11.5 -80t-2 -116z" />
    <glyph glyph-name="amacron.ss02" horiz-adv-x="1411" 
d="M1309 0h-389v201q-29 -117 -124.5 -171.5t-267.5 -54.5q-96 0 -164.5 11.5t-122.5 41t-87 74.5t-54.5 119t-30 167.5t-8.5 225.5t8 225.5t29 167.5t52.5 119t83.5 74.5t117 41t157 11.5q182 0 281.5 -54.5t130.5 -172.5v203h389v-1229zM367 1372v184h655v-184h-655z
M471 614q0 -73 2 -116.5t11.5 -81t22.5 -55t40.5 -30t60 -15.5t86.5 -3q118 0 172 35.5t54 112.5v258q0 102 -53.5 148t-172.5 46q-54 0 -86.5 -3t-60 -15.5t-40.5 -30t-22.5 -54.5t-11.5 -80t-2 -116z" />
    <glyph glyph-name="aogonek.ss02" horiz-adv-x="1411" 
d="M1309 0q-98 -96 -138.5 -155.5t-40.5 -108.5q0 -46 31.5 -58t106.5 7v-95q-41 -24 -131 -24q-103 0 -149 36.5t-46 121.5q0 64 61 126t211 150h-294v201q-29 -117 -124.5 -171.5t-267.5 -54.5q-96 0 -164.5 11.5t-122.5 41t-87 74.5t-54.5 119t-30 167.5t-8.5 225.5
t8 225.5t29 167.5t52.5 119t83.5 74.5t117 41t157 11.5q182 0 281.5 -54.5t130.5 -172.5v203h389v-1229zM471 614q0 -73 2 -116.5t11.5 -81t22.5 -55t40.5 -30t60 -15.5t86.5 -3q118 0 172 35.5t54 112.5v258q0 102 -53.5 148t-172.5 46q-54 0 -86.5 -3t-60 -15.5t-40.5 -30
t-22.5 -54.5t-11.5 -80t-2 -116z" />
    <glyph glyph-name="aring.ss02" horiz-adv-x="1411" 
d="M1309 0h-389v201q-29 -117 -124.5 -171.5t-267.5 -54.5q-96 0 -164.5 11.5t-122.5 41t-87 74.5t-54.5 119t-30 167.5t-8.5 225.5t8 225.5t29 167.5t52.5 119t83.5 74.5t117 41t157 11.5q182 0 281.5 -54.5t130.5 -172.5v203h389v-1229zM459 1509q0 89 52 121.5t185 32.5
q130 0 182 -32.5t52 -121.5t-52 -123t-182 -34q-132 0 -184.5 33.5t-52.5 123.5zM471 614q0 -73 2 -116.5t11.5 -81t22.5 -55t40.5 -30t60 -15.5t86.5 -3q118 0 172 35.5t54 112.5v258q0 102 -53.5 148t-172.5 46q-54 0 -86.5 -3t-60 -15.5t-40.5 -30t-22.5 -54.5t-11.5 -80
t-2 -116zM602 1507q0 -53 16 -67.5t76 -14.5t76 14.5t16 67.5t-16 67.5t-76 14.5t-76 -14.5t-16 -67.5z" />
    <glyph glyph-name="atilde.ss02" horiz-adv-x="1411" 
d="M1309 0h-389v201q-29 -117 -124.5 -171.5t-267.5 -54.5q-96 0 -164.5 11.5t-122.5 41t-87 74.5t-54.5 119t-30 167.5t-8.5 225.5t8 225.5t29 167.5t52.5 119t83.5 74.5t117 41t157 11.5q182 0 281.5 -54.5t130.5 -172.5v203h389v-1229zM305 1382q0 154 61 217.5t209 63.5
q62 0 112.5 -18.5t77.5 -40t59.5 -40t62.5 -18.5q40 0 61 19t33 65h143q0 -154 -61 -217t-209 -63q-62 0 -112.5 18t-77 40t-59 40t-62.5 18q-40 0 -61 -19t-33 -65h-144zM471 614q0 -73 2 -116.5t11.5 -81t22.5 -55t40.5 -30t60 -15.5t86.5 -3q118 0 172 35.5t54 112.5v258
q0 102 -53.5 148t-172.5 46q-54 0 -86.5 -3t-60 -15.5t-40.5 -30t-22.5 -54.5t-11.5 -80t-2 -116z" />
    <glyph glyph-name="a_m.dlig" horiz-adv-x="2865" 
d="M698 1253q272 0 394 -51t157 -188q20 124 94.5 181.5t212.5 57.5q214 0 307 -53.5t117 -198.5q28 130 108.5 191t225.5 61q97 0 165.5 -9.5t122.5 -34.5t87.5 -63.5t55 -101t30 -141.5t8.5 -190v-713h-389v662q0 64 -1.5 102.5t-9.5 71t-18 48t-32.5 26.5t-48.5 13.5
t-70 2.5q-101 0 -147 -59.5t-44 -190.5v-676h-385v662q0 64 -2 102.5t-9.5 71.5t-18 48t-33 26t-49 13.5t-70.5 2.5q-98 0 -143 -59.5t-45 -190.5v-676h-389v168q-31 -98 -113.5 -145t-228.5 -48q-98 -3 -167.5 2t-124.5 21.5t-89 43t-56 71.5t-30.5 102.5t-8.5 138.5
q0 77 8.5 132t30 98t55 70t87.5 44t122.5 24t165.5 7l349 2v70q0 49 -4 75.5t-13 47t-32 28.5t-52.5 11.5t-83.5 3.5q-50 0 -80 -1.5t-55.5 -8.5t-37 -16t-19.5 -29t-9.5 -43t-0.5 -62h-390v43q0 84 10.5 143t38.5 105.5t70 75t111 47t156 25.5t210 7zM471 350q0 -29 4 -45
t16.5 -29t37 -16t65 -6.5t100.5 0.5q97 2 141 34.5t44 102.5v53l-185 -2q-66 0 -101 -2t-63.5 -6t-39 -15.5t-15 -26.5t-4.5 -42z" />
    <glyph glyph-name="one.alt" horiz-adv-x="1269" 
d="M123 0v348h348v715h-389v287h186q94 0 139 18.5t65 70.5t20 158h368v-1249h307v-348h-1044z" />
    <glyph glyph-name="zero.osf" horiz-adv-x="1286" 
d="M643 946q-47 0 -75 -3t-52 -17t-35 -33t-18.5 -60.5t-9.5 -89.5t-2 -129q0 -61 1 -100.5t5 -77t9 -59t16 -41t23.5 -28t34 -15.5t45 -8.5t58.5 -1.5q47 0 75 3t52 17t35 33t19 60t10 89t2 129t-2 129t-10 89.5t-19 60.5t-35 33t-52 17t-75 3zM0 614q0 132 11.5 225.5
t41.5 167.5t75.5 119t120 74.5t168 41t226.5 11.5t226.5 -11.5t168 -41t120 -74.5t75.5 -119t41.5 -167.5t11.5 -225.5t-11.5 -225.5t-41.5 -167.5t-75.5 -119t-120 -74.5t-168 -41t-226.5 -11.5t-226.5 11.5t-168 41t-120 74.5t-75.5 119t-41.5 167.5t-11.5 225.5z" />
    <glyph glyph-name="one.osf" horiz-adv-x="942" 
d="M451 0v694h-390v287h187q93 0 138.5 19t65 70.5t19.5 158.5h369v-1229h-389z" />
    <glyph glyph-name="two.osf" horiz-adv-x="1480" 
d="M1399 0h-1325v287l366 139q267 101 387.5 186.5t120.5 173.5q0 33 -2.5 53t-11.5 37.5t-22.5 26t-42 14.5t-62.5 7.5t-90 1.5q-50 0 -79.5 -2t-55 -11.5t-37.5 -23t-20.5 -41.5t-10.5 -60.5t-2 -87.5h-451q0 113 13 194.5t45 145t79.5 103t123.5 65t170.5 35.5t226.5 10
q137 0 233.5 -7.5t172 -26t121.5 -47.5t75 -76.5t38.5 -107t6.5 -144.5q-5 -201 -123.5 -325.5t-370.5 -190.5h527v-328z" />
    <glyph glyph-name="three.osf" horiz-adv-x="1585" 
d="M758 -106q84 0 135.5 4.5t89.5 15t56 32.5t26 52.5t8 79.5q0 51 -8 82t-25.5 53.5t-56 33t-89.5 15t-136 4.5h-248v328h260q91 0 141 5.5t82 24t41.5 48t9.5 82.5q0 46 -7 74.5t-22.5 49t-49 30.5t-78 14t-117.5 4q-174 0 -222 -22.5t-48 -110.5h-389q0 95 11.5 162.5
t42 120.5t77.5 85.5t123 54t172.5 29.5t232.5 8q137 0 233.5 -8t173.5 -28t124 -51.5t78 -83t43 -117t12 -158.5q0 -174 -56.5 -264.5t-179.5 -112.5q148 -20 216.5 -120t68.5 -298q0 -111 -20.5 -184.5t-66 -126.5t-131 -81.5t-202 -41t-293.5 -12.5q-142 0 -242.5 9
t-180 31.5t-128.5 57.5t-80.5 91.5t-44 128.5t-12.5 173h410q0 -40 2.5 -63.5t13.5 -44t26.5 -29.5t48.5 -16t71.5 -8.5t103.5 -1.5z" />
    <glyph glyph-name="four.osf" horiz-adv-x="1511" 
d="M901 -410v410h-891v254l13 8l933 991h82v2h252v-907h160v-348h-160v-410h-389zM494 348h407v430z" />
    <glyph glyph-name="five.osf" horiz-adv-x="1595" 
d="M1372 1229v-348h-807l-24 -361q35 88 138 129t288 41q109 0 186 -10t137.5 -36t98 -66t61.5 -104.5t33.5 -146t9.5 -196.5q0 -117 -12 -199.5t-43.5 -148t-79.5 -105.5t-126.5 -66t-177.5 -36t-239 -10q-150 0 -257 9t-191.5 32.5t-137 59t-86.5 93.5t-47.5 131.5
t-13.5 176.5h450q-2 -22 -2 -38t2.5 -31t6 -25.5t12 -20t18 -15t26.5 -10.5t35 -7t45.5 -4t55.5 -2.5t68 -0.5q59 0 94.5 2t65.5 10.5t44 20.5t24 38t12.5 56t2.5 80v2q0 59 -2.5 94.5t-13.5 65.5t-26.5 44.5t-49 24.5t-72.5 12.5t-104 2.5q-139 0 -192.5 -27t-75.5 -109
h-375l70 998h1171z" />
    <glyph glyph-name="six.osf" horiz-adv-x="1525" 
d="M1464 551q0 -119 -12.5 -203t-44.5 -150.5t-81.5 -107.5t-129.5 -67.5t-181.5 -37t-244.5 -10.5q-146 0 -249.5 14.5t-185.5 51t-132.5 93t-83.5 148.5t-45.5 208t-12.5 280q0 171 15.5 292t55.5 216.5t101.5 154t161.5 96.5t226 53t305 15h407v-348h-569q-63 0 -99.5 -7
t-66 -25.5t-43.5 -59t-21.5 -99.5t-9.5 -155q31 112 130.5 164.5t281.5 52.5q109 0 186 -10t138 -36.5t98.5 -67t62 -106t34 -149t9.5 -200.5zM524 547q0 -59 2.5 -94.5t12.5 -65.5t24.5 -44.5t45 -24.5t66 -12.5t95.5 -2.5q59 0 94.5 2.5t65.5 12.5t44.5 24.5t24.5 45
t12.5 66t2.5 95.5q0 57 -2.5 91t-12.5 63t-24 42t-44.5 23t-66 12t-94.5 2q-129 0 -187.5 -55.5t-58.5 -179.5z" />
    <glyph glyph-name="seven.osf" horiz-adv-x="1366" 
d="M10 1229h1346v-287l-627 -1352h-473l596 1291l-494 2v-269h-348v615z" />
    <glyph glyph-name="eight.osf" horiz-adv-x="1570" 
d="M786 995q67 0 104.5 3t66.5 10.5t41 26t17 43t5 67.5q0 54 -6.5 81t-34 44t-68.5 20.5t-125 3.5q-56 0 -89.5 -1.5t-62.5 -7.5t-42.5 -14.5t-23.5 -27t-12.5 -40.5t-2.5 -58t2.5 -58t12.5 -40.5t23.5 -27.5t42.5 -15t62.5 -7.5t89.5 -1.5zM61 420q0 194 79 292.5
t251 118.5q-118 23 -172.5 107t-54.5 240q0 110 18.5 183.5t59 126t115 81t176 41t253.5 12.5q126 0 216 -8t162.5 -28.5t117 -52t74 -82.5t41.5 -116.5t12 -156.5q0 -156 -54 -240t-171 -107q169 -20 247 -119t78 -292q0 -91 -13.5 -156.5t-48 -116.5t-86.5 -83
t-135.5 -52.5t-188 -28.5t-251.5 -8t-252 8t-189 28.5t-136 52.5t-86.5 83t-48 116.5t-13.5 156.5zM512 485q0 -44 3 -70.5t14.5 -49t27.5 -33t50 -18t73.5 -9.5t105.5 -2t105.5 2t73.5 9t50.5 18t28 33.5t14.5 49t3 70.5t-3 71t-14.5 49t-28 33t-50.5 18.5t-73.5 9.5
t-105.5 2t-105.5 -2t-73.5 -9.5t-50 -18t-27.5 -33t-14.5 -49.5t-3 -71z" />
    <glyph glyph-name="nine.osf" horiz-adv-x="1511" 
d="M61 690q0 116 12.5 198.5t45 147.5t81.5 105t129.5 66t182 36t244.5 10t244 -15.5t181 -55.5t129 -101.5t81.5 -161t45 -225.5t13.5 -303q1 -170 -11.5 -290.5t-44.5 -216t-81.5 -154t-130 -96.5t-182.5 -53t-246 -15q-133 0 -227.5 7.5t-169 27.5t-120 50.5t-75.5 80.5
t-41.5 112.5t-11.5 151.5h450q0 -32 2 -51t11.5 -35.5t22 -24t40 -13t59.5 -6.5t86 -1q80 0 119.5 4t65 23.5t31 48.5t5.5 88v313q-28 -99 -111 -145.5t-233 -46.5q-124 0 -210.5 9t-155.5 34t-111 62.5t-70 100t-38.5 142t-10.5 192.5zM512 700q0 -49 2.5 -78.5t12.5 -54.5
t24.5 -36.5t44.5 -20t65.5 -10.5t94.5 -2q129 0 187 50.5t58 160.5q0 53 -2.5 84.5t-12.5 58t-24 39.5t-44.5 22t-66 11t-95.5 2q-59 0 -94.5 -2t-65.5 -11.5t-44.5 -22.5t-24.5 -41t-12.5 -60.5t-2.5 -86.5v-2z" />
    <glyph glyph-name="ampersand.ss01" horiz-adv-x="1656" 
d="M928 1014h647v-328l-281 4q110 -28 161.5 -111t51.5 -233q0 -76 -13 -130.5t-46.5 -97.5t-84 -69.5t-131.5 -43.5t-182.5 -23.5t-244.5 -6.5q-147 0 -251.5 8t-188 28t-135.5 50.5t-86.5 80.5t-48 113.5t-13.5 152.5q0 199 73 301t232 122q-127 20 -185.5 104t-58.5 243
q0 91 12.5 156.5t44 116.5t79 82.5t124 52t172.5 28.5t230 8q132 0 226.5 -8.5t169.5 -29.5t122 -54.5t78 -86.5t43 -121.5t12 -164.5h-430q0 33 -2.5 53t-12 37t-22.5 25t-41 13.5t-60 7t-85 1.5q-82 0 -122.5 -3.5t-67.5 -20t-33.5 -43t-6.5 -78.5q0 -85 36.5 -116.5
t133.5 -37.5v-307q-122 0 -166.5 -37.5t-44.5 -144.5q0 -44 3 -71t14.5 -49t27.5 -33t50 -18t73 -9t105 -2t105 2t72.5 9.5t49.5 18t27.5 33t14.5 49t3 70.5q0 99 -32 136.5t-117 43.5v328z" />
    <glyph glyph-name="ampersand.ss02" horiz-adv-x="1789" 
d="M205 1270q0 87 18 145.5t58 100.5t114 64t175.5 32t254.5 10q150 0 250 -15t173 -48.5t112.5 -96t57.5 -149.5t18 -217h-430q0 48 -2 77t-10 53t-18.5 36t-33.5 20t-49 10t-70 2q-45 0 -72.5 -1t-50.5 -5t-34 -9.5t-19 -17.5t-10 -26t-2 -37q0 -44 15.5 -79.5t34 -56
t56.5 -54.5l469 -433q43 92 99 297h409q-88 -344 -233 -546l295 -273v-53h-422l-113 100q-211 -125 -512 -125q-134 0 -229 8t-170.5 28t-121.5 50.5t-76.5 80.5t-42 113.5t-11.5 152.5q0 233 70.5 325t269.5 109q-134 134 -175.5 216t-41.5 212zM532 506q0 -44 2.5 -70.5
t14 -49t27.5 -33t49.5 -18t73 -9.5t106.5 -2q92 0 166 22l-424 377q-15 -85 -15 -217z" />
    <glyph glyph-name="uni030C.alt" 
d="M123 1063v575h348l-164 -575h-184z" />
    </font>
</defs>
</svg>
