<?xml version="1.0" standalone="no"?>
<!DOCTYPE svg PUBLIC "-//W3C//DTD SVG 1.1//EN" "http://www.w3.org/Graphics/SVG/1.1/DTD/svg11.dtd" >
<svg xmlns="http://www.w3.org/2000/svg" xmlns:xlink="http://www.w3.org/1999/xlink" version="1.1">
<metadata>
Created by FontForge 20170731 at Tue Jun  7 03:27:21 2016
 By Aleksey,,,
Kayak Sans Bold (c) Jack Harvatt. 2016. All Rights Reserved
</metadata>
<defs>
<font id="KayakSans-Bold" horiz-adv-x="1078" >
  <font-face 
    font-family="Kayak Sans"
    font-weight="700"
    font-stretch="normal"
    units-per-em="2048"
    panose-1="2 0 5 0 0 0 0 0 0 0"
    ascent="1638"
    descent="-410"
    x-height="981"
    cap-height="1441"
    bbox="80 -521 1999 1823"
    underline-thickness="150"
    underline-position="-442"
    unicode-range="U+001D-F002"
  />
<missing-glyph horiz-adv-x="984" 
d="M80 0v1434h824v-1434h-824zM130 50h724v1334h-724v-1334zM305 1148q31 28 58 43q53 30 112 30q92 0 148 -47.5t56 -127.5q0 -49 -23 -98.5t-87 -129.5q-63 -80 -99 -132t-36 -99q0 -38 24 -133h-32q-35 97 -35 148q0 76 81.5 218t81.5 217q0 57 -33 90t-91 33
q-38 0 -69 -17q-26 -15 -56 -40v45zM369 334l57 58q11 10 20 10q10 0 22 -11l56 -60q9 -11 9 -20q0 -11 -10 -22l-56 -62q-14 -14 -21 -14q-11 0 -20 10l-61 71q-7 9 -7 18q0 10 11 22z" />
    <glyph glyph-name=".notdef" horiz-adv-x="984" 
d="M80 0v1434h824v-1434h-824zM130 50h724v1334h-724v-1334zM305 1148q31 28 58 43q53 30 112 30q92 0 148 -47.5t56 -127.5q0 -49 -23 -98.5t-87 -129.5q-63 -80 -99 -132t-36 -99q0 -38 24 -133h-32q-35 97 -35 148q0 76 81.5 218t81.5 217q0 57 -33 90t-91 33
q-38 0 -69 -17q-26 -15 -56 -40v45zM369 334l57 58q11 10 20 10q10 0 22 -11l56 -60q9 -11 9 -20q0 -11 -10 -22l-56 -62q-14 -14 -21 -14q-11 0 -20 10l-61 71q-7 9 -7 18q0 10 11 22z" />
    <glyph glyph-name=".null" horiz-adv-x="0" 
 />
    <glyph glyph-name=".null" horiz-adv-x="0" 
 />
    <glyph glyph-name="nonmarkingreturn" horiz-adv-x="508" 
 />
    <glyph glyph-name="space" unicode=" " horiz-adv-x="508" 
 />
    <glyph glyph-name="space" unicode="&#xa0;" horiz-adv-x="508" 
 />
    <glyph glyph-name="exclam" unicode="!" horiz-adv-x="383" 
d="M90 436h203v1005h-203v-1005zM113 190q-33 -32 -33 -78q0 -47 33 -79q32 -33 79 -33q46 0 78 33q33 32 33 79q0 46 -33 78q-32 33 -78 33q-47 0 -79 -33z" />
    <glyph glyph-name="quotedbl" unicode="&#x22;" horiz-adv-x="554" 
d="M80 1434v-296l171 48v248h-171zM303 1434v-237l171 48v189h-171z" />
    <glyph glyph-name="numbersign" unicode="#" horiz-adv-x="1237" 
d="M791 1161l-23 -247h-237l24 247h-203l-23 -247h-186l-19 -203h186l-25 -261h-186l-19 -203h186l-23 -247h202l24 247h236l-23 -247h203l23 247h186l19 203h-186l24 261h187l19 203h-186l23 247h-203zM512 711h237l-25 -261h-236z" />
    <glyph glyph-name="dollar" unicode="$" horiz-adv-x="1027" 
d="M450 1117l-33 -274q-117 29 -117 134q0 119 150 140zM611 620q134 -30 134 -148q0 -134 -170 -155zM315 0h221l14 112q182 9 290 106q107 97 107 254q0 136 -83 229q-83 92 -228 120l32 266q56 -35 59 -103l202 16q-7 107 -69 184q-61 76 -167 112l18 145h-221l-15 -119
q-173 -10 -275 -102q-102 -94 -102 -243q0 -131 79 -220q78 -88 216 -115l-36 -298q-75 40 -75 128h-24l-178 -15q4 -116 71 -200q65 -83 181 -120z" />
    <glyph glyph-name="percent" unicode="%" horiz-adv-x="1425" 
d="M1031 211q-22 19 -22 69q0 51 22 69q14 13 45 13t46 -13q21 -18 21 -69q0 -50 -21 -69q-15 -13 -46 -13t-45 13zM881 486q-74 -78 -74 -206q0 -127 74 -206q74 -78 195 -78t195 78q74 79 74 206q0 128 -74 206q-74 79 -195 79t-195 -79zM304 1222q14 12 45 12t46 -12
q21 -19 21 -70q0 -50 -21 -69q-15 -12 -46 -12t-45 12q-21 19 -21 69q0 51 21 70zM545 1358q-75 79 -196 79q-120 0 -195 -79q-74 -78 -74 -206q0 -127 74 -206q75 -78 195 -78q121 0 196 78q74 79 74 206q0 128 -74 206zM856 1601l-507 -1741h222l506 1741h-221z" />
    <glyph glyph-name="ampersand" unicode="&#x26;" horiz-adv-x="1130" 
d="M526 1239l8 -1q10 0 20 -2q26 -4 45 -17q55 -36 55 -137t-55 -137q-19 -13 -45 -17q-10 -2 -20 -2l-8 -1h-13q-9 0 -16 1q-11 1 -20 3q-25 5 -43 19q-51 37 -51 134q0 101 55 137q19 13 45 17q10 2 20 2l8 1h15zM743 463q0 -54 -10 -98l-73 83l-153 -133l88 -102
q-36 -10 -82 -10q-129 0 -187 85q-43 65 -43 175q0 109 43 174q58 86 187 86v0h6q154 0 246 98q92 97 92 261t-92 262q-92 97 -246 97q-155 0 -247 -97q-92 -98 -92 -262q0 -142 71 -236q-171 -124 -171 -383q0 -211 118 -337t315 -126q125 0 222 53l46 -53h269l-170 195
q66 111 66 268h-203z" />
    <glyph glyph-name="quotesingle" unicode="'" horiz-adv-x="331" 
d="M80 1434v-296l171 48v248h-171z" />
    <glyph glyph-name="parenleft" unicode="(" horiz-adv-x="605" 
d="M332 -100l193 60q-233 757 0 1514l-193 59q-252 -816 0 -1633z" />
    <glyph glyph-name="parenright" unicode=")" horiz-adv-x="605" 
d="M273 1533l-193 -59q233 -757 0 -1514l193 -60q252 817 0 1633z" />
    <glyph glyph-name="asterisk" unicode="*" horiz-adv-x="508" 
d="M345 1608l-91 -90l-90 90l-84 -83l90 -91l-90 -90l84 -84l90 90l91 -90l83 84l-90 90l90 91z" />
    <glyph glyph-name="plus" unicode="+" horiz-adv-x="786" 
d="M292 1028v-212h-212v-203h212v-211h202v211h212v203h-212v212h-202z" />
    <glyph glyph-name="comma" unicode="," horiz-adv-x="331" 
d="M80 106v-296l171 48v248h-171z" />
    <glyph glyph-name="hyphen" unicode="-" horiz-adv-x="696" 
d="M80 599h536v203h-536v-203z" />
    <glyph glyph-name="hyphen" unicode="&#xad;" horiz-adv-x="696" 
d="M80 599h536v203h-536v-203z" />
    <glyph glyph-name="period" unicode="." horiz-adv-x="383" 
d="M113 190q-33 -32 -33 -78q0 -47 33 -79q32 -33 79 -33q46 0 78 33q33 32 33 79q0 46 -33 78q-32 33 -78 33q-47 0 -79 -33z" />
    <glyph glyph-name="slash" unicode="/" horiz-adv-x="592" 
d="M291 1581l-211 -1741h221l211 1741h-221z" />
    <glyph glyph-name="zero" unicode="0" horiz-adv-x="1183" 
d="M333 404q-29 74 -41 171q-9 71 -9 148q0 76 9 147q12 97 41 171q77 202 258 202q182 0 259 -202q28 -74 41 -171q9 -71 9 -147q0 -77 -9 -148q-13 -97 -41 -171q-77 -201 -259 -201q-181 0 -258 201zM243 1284q-163 -192 -163 -561q0 -370 163 -561q137 -162 348 -162
t349 162q163 191 163 561q0 369 -163 561q-138 161 -349 161t-348 -161z" />
    <glyph glyph-name="one" unicode="1" horiz-adv-x="630" 
d="M351 1441l-271 -260l140 -146l127 122v-1157h203v1441h-199z" />
    <glyph glyph-name="two" unicode="2" 
d="M998 967q-5 217 -129 345q-125 129 -330 129t-330 -129q-124 -128 -129 -345l203 -16q0 121 49 193q64 95 207 95q141 0 205 -92q50 -70 51 -188v-4q-3 -93 -46 -140l-669 -610v-205h914v203h-616l510 465l4 4q101 104 106 278v0v9v8v0z" />
    <glyph glyph-name="three" unicode="3" horiz-adv-x="1161" 
d="M1026 1053q0 177 -121 283q-121 105 -324 105q-198 0 -318 -100q-121 -100 -128 -268l203 -16q1 101 81 147q60 35 162 35t163 -36q80 -46 80 -150t-80 -150q-61 -35 -163 -35h-141v-203h141q125 0 200 -44q98 -58 98 -187q0 -130 -98 -187q-75 -44 -200 -44
q-126 0 -200 43q-98 58 -99 187l-202 -17q6 -190 142 -303t359 -113q228 0 364 118t136 316q0 223 -170 342q115 105 115 277z" />
    <glyph glyph-name="four" unicode="4" horiz-adv-x="1095" 
d="M493 1441l-413 -898v-171h477v-372h203v372h255v203h-255v269h-203v-269h-239l398 866h-223z" />
    <glyph glyph-name="five" unicode="5" horiz-adv-x="1105" 
d="M572 924h-243l40 315h610l26 202h-815l-91 -720h454q269 0 269 -259t-269 -259q-270 0 -270 259h-203q0 -211 129 -336q128 -126 344 -126q215 0 343 126q129 125 129 336q0 205 -123 331q-123 125 -330 131v0z" />
    <glyph glyph-name="six" unicode="6" horiz-adv-x="1060" 
d="M330 292q-47 68 -47 182q0 115 47 183q62 89 200 89q139 0 201 -89q47 -68 47 -183q0 -114 -47 -182q-62 -89 -201 -89q-138 0 -200 89zM371 924q163 319 577 319v202q-402 0 -635 -252t-233 -686h1l-1 -33q0 -216 123 -345q122 -129 327 -129t328 129q122 129 122 345
t-122 345q-123 130 -328 130q-85 0 -159 -25z" />
    <glyph glyph-name="seven" unicode="7" horiz-adv-x="1077" 
d="M108 1441v-202h653l-681 -1239h231l686 1247v194h-889z" />
    <glyph glyph-name="eight" unicode="8" horiz-adv-x="1162" 
d="M381 247q-98 57 -98 187q0 129 98 187q74 44 200 44q125 0 200 -44q98 -58 98 -187q0 -130 -98 -187q-75 -44 -200 -44q-126 0 -200 44zM744 1203q80 -46 80 -150t-80 -150q-61 -35 -163 -35t-163 35q-80 46 -80 150t80 150q61 36 163 36t163 -36zM1026 1053
q0 177 -121 283q-121 105 -324 105t-324 -105q-122 -106 -122 -283q0 -171 116 -277q-171 -118 -171 -342q0 -198 136 -316q137 -118 365 -118t364 118q137 118 137 316q0 224 -171 342q115 105 115 277z" />
    <glyph glyph-name="nine" unicode="9" horiz-adv-x="1060" 
d="M730 1153q47 -68 47 -182q0 -115 -47 -183q-62 -89 -200 -89q-139 0 -201 89q-47 68 -47 183q0 114 47 182q62 89 201 89q138 0 200 -89zM689 521q-163 -319 -577 -319v-202q402 0 635 252t233 686h-1l1 33q0 216 -123 345q-122 129 -327 129t-328 -129
q-122 -129 -122 -345t122 -345q123 -130 328 -130q85 0 159 25z" />
    <glyph glyph-name="colon" unicode=":" horiz-adv-x="383" 
d="M113 835q-33 -33 -33 -79t33 -79q32 -32 79 -32q46 0 78 32q33 33 33 79t-33 79q-32 33 -78 33q-47 0 -79 -33zM113 390q-33 -32 -33 -78q0 -47 33 -79q32 -33 79 -33q46 0 78 33q33 32 33 79q0 46 -33 78q-32 33 -78 33q-47 0 -79 -33z" />
    <glyph glyph-name="semicolon" unicode=";" horiz-adv-x="383" 
d="M113 818q-33 -33 -33 -79t33 -79q32 -33 79 -33q46 0 78 33q33 33 33 79t-33 79q-32 32 -78 32q-47 0 -79 -32zM105 110l172 47l1 248l-172 1z" />
    <glyph glyph-name="semicolon" unicode="&#x37e;" horiz-adv-x="383" 
d="M113 818q-33 -33 -33 -79t33 -79q32 -33 79 -33q46 0 78 33q33 33 33 79t-33 79q-32 32 -78 32q-47 0 -79 -32zM105 110l172 47l1 248l-172 1z" />
    <glyph glyph-name="less" unicode="&#x3c;" horiz-adv-x="610" 
d="M387 1008l-307 -308l307 -307l143 143l-164 164l164 164z" />
    <glyph glyph-name="equal" unicode="=" horiz-adv-x="696" 
d="M80 765h536v203h-536v-203zM80 432h536v203h-536v-203z" />
    <glyph glyph-name="greater" unicode="&#x3e;" horiz-adv-x="610" 
d="M80 864l164 -164l-164 -164l143 -143l307 307l-307 308z" />
    <glyph glyph-name="question" unicode="?" horiz-adv-x="1074" 
d="M209 1328q-123 -112 -129 -300l202 -16q0 126 84 182q64 43 171 43t171 -43q83 -56 83 -182t-83 -183q-64 -43 -171 -43h-101v-350h202v156q165 27 260 138q96 112 96 282q0 195 -124 311q-125 117 -333 117q-204 0 -328 -112zM458 190q-33 -32 -33 -78q0 -47 33 -79
q33 -33 79 -33t79 33q32 32 32 79q0 46 -32 78q-33 33 -79 33t-79 -33z" />
    <glyph glyph-name="at" unicode="@" horiz-adv-x="1500" 
d="M1123 541q3 44 4 95q1 20 1 43v20v18v0v4q0 183 -103 292q-103 110 -275 110t-275 -110q-103 -109 -103 -292t103 -293q103 -109 275 -109q70 0 133 20q-44 -131 -154 -136q-216 6 -331 140q-115 133 -115 378q0 250 120 384q121 134 347 134t347 -134q120 -134 120 -384
q0 -256 -125 -389q23 91 31 209zM575 721q0 199 175 199t175 -199q0 -200 -175 -200t-175 200zM260 1248q-180 -194 -180 -527q0 -323 170 -516q169 -192 463 -204v-1h7l6 1l24 -1q310 0 490 194q180 193 180 527q0 333 -180 527q-180 193 -490 193t-490 -193z" />
    <glyph glyph-name="A" unicode="A" horiz-adv-x="1367" 
d="M791 1442l-1 -1h-214v1v-1l-496 -1441h214l138 399h503l138 -399h214l-496 1441v1zM501 601l182 529l183 -529h-365z" />
    <glyph glyph-name="B" unicode="B" horiz-adv-x="1154" 
d="M283 203v450h322q112 0 178 -43q88 -56 88 -182t-88 -183q-66 -42 -178 -42h-322zM283 1239h313q228 0 228 -192q0 -191 -228 -191h-313v383zM1026 1047q0 180 -117 287t-313 107h-516v-1441h525q213 0 341 116q128 117 128 312q0 220 -160 337q112 107 112 282z" />
    <glyph glyph-name="C" unicode="C" horiz-adv-x="1308" 
d="M388 338q-105 136 -105 383t105 382q105 136 297 136q258 0 353 -234l188 77q-71 174 -211 267q-140 92 -330 92q-280 0 -442 -193q-163 -194 -163 -527q0 -334 163 -527q162 -194 442 -194q189 0 331 95t212 268l-188 76q-96 -236 -355 -236q-192 0 -297 135z" />
    <glyph glyph-name="D" unicode="D" horiz-adv-x="1251" 
d="M283 203v1036h283q192 0 297 -136q105 -135 105 -382t-105 -383q-105 -135 -297 -135h-283zM80 1441v-1441h486q280 0 443 194q162 193 162 527q0 333 -162 527q-163 193 -443 193h-486z" />
    <glyph glyph-name="E" unicode="E" horiz-adv-x="1085" 
d="M80 1441v-1441h925v203h-722v416h489v203h-489v417h722v202h-925z" />
    <glyph glyph-name="F" unicode="F" horiz-adv-x="1085" 
d="M80 1441v-1441h203v619h489v203h-489v416h722v203h-925z" />
    <glyph glyph-name="G" unicode="G" horiz-adv-x="1340" 
d="M1057 146v-146h203v822h-503v-203h295q-20 -200 -118 -308q-100 -108 -264 -108q-185 0 -286 135q-101 136 -101 383t106 382q105 136 298 136q255 0 353 -227l186 80q-73 169 -212 259t-327 90q-281 0 -444 -193q-163 -194 -163 -527q0 -334 159 -527q158 -194 431 -194
q235 0 387 146z" />
    <glyph glyph-name="H" unicode="H" horiz-adv-x="1156" 
d="M874 1441v-619h-591v619h-203v-1441h203v619h591v-619h202v1441h-202z" />
    <glyph glyph-name="I" unicode="I" horiz-adv-x="363" 
d="M80 0h203v1441h-203v-1441z" />
    <glyph glyph-name="J" unicode="J" horiz-adv-x="1020" 
d="M737 533q0 -55 -8 -104q-12 -62 -36 -107q-64 -119 -212 -119q-156 0 -218 130l-183 -87q57 -119 160 -183q104 -63 241 -63q212 0 336 143q123 143 123 390v909h-203v-909z" />
    <glyph glyph-name="K" unicode="K" horiz-adv-x="1184" 
d="M80 1441v-1441h203v516l109 123l457 -639h249l-568 794l574 646h-271l-550 -619v620h-203z" />
    <glyph glyph-name="L" unicode="L" horiz-adv-x="991" 
d="M80 1441v-1441h831v203h-628v1238h-203z" />
    <glyph glyph-name="M" unicode="M" horiz-adv-x="1350" 
d="M1061 1440l-386 -1101l-386 1101h-209v-1440h203v845l285 -813v0v0v0h214v0v0v1l285 812v-845h203v1440h-209z" />
    <glyph glyph-name="N" unicode="N" horiz-adv-x="1120" 
d="M80 1441v-1440h203v1030l542 -1031h215v1440h-202v-1030l-542 1031h-216z" />
    <glyph glyph-name="O" unicode="O" horiz-adv-x="1340" 
d="M384 338q-101 136 -101 383t101 382q101 136 286 136t286 -136q102 -135 102 -382t-102 -383q-101 -135 -286 -135t-286 135zM239 1248q-159 -194 -159 -527q0 -334 159 -527q158 -194 431 -194t432 194q158 193 158 527q0 333 -158 527q-159 193 -432 193t-431 -193z
" />
    <glyph glyph-name="P" unicode="P" horiz-adv-x="1086" 
d="M283 814v424h269q105 0 168 -40q83 -53 83 -172t-83 -172q-63 -40 -168 -40h-269zM80 1441v-1441h203v611h269q207 0 330 113q124 113 124 302t-124 302q-123 113 -330 113h-472z" />
    <glyph glyph-name="Q" unicode="Q" horiz-adv-x="1340" 
d="M772 337h-203l32 -129q-153 25 -236 157q-82 133 -82 356q0 246 101 382t286 136t286 -136q102 -136 102 -382q0 -200 -67 -328q-67 -127 -191 -170zM239 1248q-159 -194 -159 -527q0 -328 153 -521q154 -193 419 -200l33 -134h202l-39 159q195 58 303 239
q109 183 109 457q0 333 -158 527q-159 193 -432 193t-431 -193z" />
    <glyph glyph-name="R" unicode="R" horiz-adv-x="1110" 
d="M283 814v425h269q106 0 168 -41q83 -53 83 -172t-83 -172q-62 -40 -168 -40h-269zM882 1328q-123 113 -330 113h-472v-1441h203v611h230l293 -611h224l-304 636q132 42 205 143q75 103 75 247q0 189 -124 302z" />
    <glyph glyph-name="S" unicode="S" horiz-adv-x="1178" 
d="M500 846q-54 9 -93 28q-103 50 -103 165t103 165q39 19 93 28q41 7 89 7q46 0 87 -7q52 -8 91 -26q101 -48 106 -157l202 17q-10 172 -141 273q-132 102 -345 102q-222 0 -355 -109q-132 -110 -132 -293t132 -293q133 -110 355 -110q51 0 96 -7q57 -9 100 -30
q110 -55 110 -180t-110 -179q-43 -21 -100 -30q-45 -7 -96 -7q-52 0 -96 7q-58 9 -100 30q-111 54 -111 179h-6l-196 -15q6 -188 142 -296t367 -108q235 0 372 113q137 112 137 306q0 195 -137 307q-137 113 -372 113q-48 0 -89 7z" />
    <glyph glyph-name="T" unicode="T" horiz-adv-x="1187" 
d="M80 1441v-203h412v-1238h203v1238h412v203h-1027z" />
    <glyph glyph-name="U" unicode="U" horiz-adv-x="1240" 
d="M958 597q0 -66 -12 -124q-14 -74 -47 -128q-84 -142 -279 -142q-194 0 -279 142q-32 54 -47 128q-11 58 -11 124v844h-203v-844q0 -276 145 -437q145 -160 395 -160t395 160q145 161 145 437v844h-202v-844z" />
    <glyph glyph-name="V" unicode="V" horiz-adv-x="1386" 
d="M1092 1443l-401 -1135l-396 1135h-215l505 -1443h213l508 1443h-214z" />
    <glyph glyph-name="W" unicode="W" horiz-adv-x="1921" 
d="M1632 1443l-280 -1048l-277 1048h-228l-280 -1048l-277 1048h-210l382 -1443h209l289 1084l287 -1084h209l385 1443h-209z" />
    <glyph glyph-name="X" unicode="X" horiz-adv-x="1449" 
d="M1091 1443l-366 -523l-367 523h-248l491 -700l-521 -743h248l397 567l397 -567h247l-521 743l491 700h-248z" />
    <glyph glyph-name="Y" unicode="Y" horiz-adv-x="1336" 
d="M1013 1443l-344 -518l-345 518h-244l487 -730v-713h202v710l487 733h-243z" />
    <glyph glyph-name="Z" unicode="Z" horiz-adv-x="1239" 
d="M85 1441v-202h766l-771 -1045v-194h1079v203h-821l771 1044v194h-1024z" />
    <glyph glyph-name="bracketleft" unicode="[" horiz-adv-x="544" 
d="M80 1577v-1717h384v203h-181v1311h181v203h-384z" />
    <glyph glyph-name="backslash" unicode="\" horiz-adv-x="592" 
d="M80 1581l211 -1741h221l-211 1741h-221z" />
    <glyph glyph-name="bracketright" unicode="]" horiz-adv-x="544" 
d="M80 1577v-203h181v-1311h-181v-203h384v1717h-384z" />
    <glyph glyph-name="asciicircum" unicode="^" horiz-adv-x="775" 
d="M387 1431l-307 -308l143 -143l164 164l164 -164l144 143z" />
    <glyph glyph-name="underscore" unicode="_" horiz-adv-x="1232" 
d="M80 -77v-203h1072v203h-1072z" />
    <glyph glyph-name="grave" unicode="`" horiz-adv-x="443" 
d="M220 1441l-140 -99l170 -242l113 138z" />
    <glyph glyph-name="a" unicode="a" 
d="M795 490q0 -121 -49 -193q-64 -94 -207 -94q-144 0 -208 95q-48 72 -48 193t48 194q64 94 208 94q143 0 207 -94q49 -72 49 -193v-2zM795 901q-62 52 -148 70l-10 3q-47 8 -98 8t-98 -8l-10 -3q-163 -32 -257 -159q-94 -128 -94 -321q0 -192 94 -319q92 -127 254 -161
l11 -2q48 -9 100 -9t100 9l11 2q84 19 145 70v-81h203v981h-203v-80z" />
    <glyph glyph-name="b" unicode="b" 
d="M332 297q-49 72 -49 193v2q0 121 49 193q64 94 207 94q144 0 208 -94q48 -73 48 -194t-48 -193q-64 -95 -208 -95q-143 0 -207 94zM904 812q-94 127 -257 159l-10 3q-47 8 -98 8t-98 -8l-9 -3q-87 -18 -149 -70v540h-203v-1441h203v81q61 -51 146 -70l10 -2q48 -9 100 -9
t100 9l11 2q162 34 255 161t93 319q0 193 -94 321z" />
    <glyph glyph-name="c" unicode="c" horiz-adv-x="1030" 
d="M789 65q107 65 161 183l-184 84q-59 -129 -227 -129q-143 0 -208 94q-48 73 -48 194t48 194q65 94 208 94q167 0 226 -127l184 85q-54 117 -162 181q-107 64 -248 64q-209 0 -334 -134q-125 -133 -125 -357t125 -357q125 -134 334 -134q142 0 250 65z" />
    <glyph glyph-name="d" unicode="d" 
d="M746 685q49 -72 49 -193v-2q0 -121 -49 -193q-64 -94 -207 -94q-144 0 -208 95q-48 72 -48 193t48 194q64 94 208 94q143 0 207 -94zM439 9q48 -9 100 -9t100 9l11 2q84 19 145 70v-81h203v1441h-203v-540q-62 52 -148 70l-10 3q-47 8 -98 8t-98 -8l-10 -3
q-163 -32 -257 -159q-94 -128 -94 -321q0 -192 94 -319q92 -127 254 -161z" />
    <glyph glyph-name="e" unicode="e" 
d="M294 595q43 184 245 184t245 -184h-490zM998 491v0v9q0 49 -8 95q-28 180 -148 283q-120 104 -303 104q-209 0 -334 -134q-125 -133 -125 -357t128 -357q127 -134 341 -134q148 0 263 64q115 63 170 176l-182 89q-29 -59 -95 -93q-67 -33 -156 -33q-219 0 -258 200h707
v88z" />
    <glyph glyph-name="f" unicode="f" horiz-adv-x="756" 
d="M217 0h203v779h124v203h-124q7 111 58 175q65 82 198 82v202q-201 0 -325 -124q-124 -125 -133 -335h-138v-203h137v-779z" />
    <glyph glyph-name="g" unicode="g" horiz-adv-x="1086" 
d="M754 685q49 -72 49 -192v-4q0 -121 -49 -192q-64 -95 -207 -95q-144 0 -208 95q-49 72 -49 194q0 121 49 193q64 95 208 95q143 0 207 -94zM447 9q48 -9 100 -9t99 9l11 2q85 19 146 70v-111q0 -288 -286 -288q-80 0 -140 25q-79 33 -115 107l-182 -90q59 -118 171 -182
q113 -63 266 -63q222 0 356 134q133 133 133 357v1011h-203v-81q-62 52 -149 71l-9 2q-47 9 -98 9t-98 -9l-10 -2q-163 -33 -257 -160q-94 -128 -94 -320t93 -320q93 -126 255 -160z" />
    <glyph glyph-name="h" unicode="h" horiz-adv-x="1000" 
d="M283 498q1 119 43 189q54 92 174 92q122 0 176 -95q41 -72 41 -193v-491h203v491q0 160 -61 277q-60 116 -169 171q-85 43 -190 43t-190 -43q-14 -8 -27 -17v519h-203v-1441h203v498z" />
    <glyph glyph-name="i" unicode="i" horiz-adv-x="383" 
d="M90 0h203v982h-203v-982zM270 1139q33 33 33 79t-33 79q-32 32 -78 32q-47 0 -79 -32q-33 -33 -33 -79t33 -79q32 -33 79 -33q46 0 78 33z" />
    <glyph glyph-name="j" unicode="j" horiz-adv-x="641" 
d="M80 -505q215 0 343 137t128 367v981h-203v-981q0 -127 -51 -202q-67 -99 -217 -99v-203zM529 1139q32 32 32 79q0 46 -32 78q-33 33 -79 33q-47 0 -79 -33q-33 -32 -33 -78q0 -47 33 -79q32 -33 79 -33q46 0 79 33z" />
    <glyph glyph-name="k" unicode="k" horiz-adv-x="1019" 
d="M283 292q27 29 130 151l285 -443h241l-389 605q85 102 315 376h-264q-210 -250 -318 -378v838h-203v-1441h203v292z" />
    <glyph glyph-name="l" unicode="l" horiz-adv-x="363" 
d="M80 1441v-1441h203v1441h-203z" />
    <glyph glyph-name="m" unicode="m" horiz-adv-x="1637" 
d="M283 498q1 119 43 189q54 92 174 92q122 0 176 -95q41 -72 41 -193v-491h203v491v4q1 120 42 191q55 93 175 93q122 0 176 -95q42 -72 42 -193v-491h202v491q0 160 -61 277q-60 116 -169 171q-84 43 -190 43q-105 0 -190 -43q-74 -40 -120 -119q-55 78 -137 119
q-85 43 -190 43t-190 -43q-14 -8 -27 -17v59h-203v-981h203v498z" />
    <glyph glyph-name="n" unicode="n" horiz-adv-x="1000" 
d="M500 982q-105 0 -190 -43q-14 -8 -27 -17v59h-203v-981h203v498q1 119 43 189q54 92 174 92q122 0 176 -95q41 -72 41 -193v-491h203v491q0 160 -61 277q-60 116 -169 171q-85 43 -190 43z" />
    <glyph glyph-name="o" unicode="o" 
d="M331 297q-48 73 -48 194t48 194q64 94 208 94t208 -94q49 -73 49 -194t-49 -194q-64 -94 -208 -94t-208 94zM205 848q-125 -133 -125 -357t125 -357q125 -134 334 -134t334 134q125 133 125 357t-125 357q-125 134 -334 134t-334 -134z" />
    <glyph glyph-name="p" unicode="p" 
d="M283 493q0 121 49 193q64 94 207 94q144 0 208 -95q48 -72 48 -194q0 -121 -48 -193q-64 -95 -208 -95q-143 0 -207 94q-49 71 -49 192v4zM539 0q51 0 98 9l10 2q163 33 257 160q94 128 94 320t-93 320q-93 126 -255 160l-11 2q-48 9 -100 9t-100 -9l-10 -2
q-85 -19 -146 -70v81h-203v-1441h203v541q62 -52 149 -71l9 -2q47 -9 98 -9z" />
    <glyph glyph-name="q" unicode="q" 
d="M795 489q0 -121 -49 -192q-64 -94 -207 -94q-144 0 -208 95q-48 72 -48 193q0 122 48 194q64 95 208 95q143 0 207 -94q49 -72 49 -193v-4zM637 9l10 2q86 19 148 71v-541h203v1441h-203v-81q-61 51 -145 70l-11 2q-48 9 -100 9t-100 -9l-11 -2q-162 -34 -254 -160
q-94 -128 -94 -320t94 -320q94 -127 257 -160l10 -2q47 -9 98 -9t98 9z" />
    <glyph glyph-name="r" unicode="r" horiz-adv-x="619" 
d="M283 491q0 121 49 193q64 94 207 94v203q-52 0 -100 -9l-10 -2q-85 -20 -146 -71v81h-203v-980h203v491z" />
    <glyph glyph-name="s" unicode="s" horiz-adv-x="924" 
d="M406 206q-34 4 -59 14q-64 24 -65 81l-202 -16q7 -117 92 -193q103 -92 290 -92q194 0 297 99q85 82 85 203q0 120 -85 202q-103 99 -297 99q-28 0 -52 3q-31 4 -53 12q-60 22 -60 73t60 73q22 8 53 12q24 3 52 3q27 0 51 -3q30 -3 52 -12q59 -21 61 -69l202 16
q-8 111 -90 184q-98 87 -276 87q-187 0 -285 -95q-82 -79 -82 -196q0 -116 82 -196q98 -95 285 -95q30 0 56 -3q34 -4 59 -14q64 -24 64 -81t-64 -82q-25 -10 -59 -14q-26 -3 -56 -3t-56 3z" />
    <glyph glyph-name="t" unicode="t" horiz-adv-x="647" 
d="M222 383v0v-76q0 -137 80 -222t211 -85h53v203h-53q-41 0 -61 17q-27 25 -27 87v76v0v379l142 17v203l-142 -17v328h-203v-328l-142 17v-203l142 -17v-379z" />
    <glyph glyph-name="u" unicode="u" horiz-adv-x="1000" 
d="M500 0q105 0 190 43q14 7 27 17v-59h203v981h-203v-498q-1 -119 -43 -190q-54 -91 -174 -91q-122 0 -176 94q-41 72 -41 194v491h-203v-491q0 -160 61 -278q60 -115 169 -170q85 -43 190 -43z" />
    <glyph glyph-name="v" unicode="v" horiz-adv-x="1083" 
d="M787 981l-247 -683l-245 683h-215l352 -981h216l355 981h-216z" />
    <glyph glyph-name="w" unicode="w" horiz-adv-x="1561" 
d="M1270 981l-190 -652l-189 652h-241l-180 -619l-179 619h-211l284 -981h211l195 669l194 -669h231l286 981h-211z" />
    <glyph glyph-name="x" unicode="x" horiz-adv-x="1116" 
d="M767 981l-209 -299l-209 299h-247l332 -475l-354 -506h248l230 329l231 -329h247l-354 506l333 475h-248z" />
    <glyph glyph-name="y" unicode="y" horiz-adv-x="1013" 
d="M730 484q-1 -119 -43 -190q-54 -91 -174 -91q-122 0 -176 94q-41 72 -41 194v490h-203v-490q0 -161 61 -278q60 -116 169 -170q85 -43 190 -43t190 43q14 7 27 16v-108q0 -249 -248 -249q-69 0 -121 21q-68 29 -99 92l-182 -89q54 -110 158 -169q104 -58 244 -58
q206 0 328 123q123 123 123 329v1030h-203v-497z" />
    <glyph glyph-name="z" unicode="z" horiz-adv-x="989" 
d="M92 982v-203h525l-537 -591v-188h829v203h-542l537 590v189h-812z" />
    <glyph glyph-name="braceleft" unicode="{" horiz-adv-x="679" 
d="M211 848l-131 -131l143 -144l68 -67q23 -310 114 -606l194 60q-233 757 0 1514l-194 59q-91 -296 -114 -606z" />
    <glyph glyph-name="bar" unicode="|" horiz-adv-x="363" 
d="M80 1601v-1797h203v1797h-203z" />
    <glyph glyph-name="braceright" unicode="}" horiz-adv-x="679" 
d="M388 927q-23 310 -114 606l-194 -59q233 -757 0 -1514l194 -60q91 296 114 606l68 67l143 144l-131 131z" />
    <glyph glyph-name="asciitilde" unicode="~" horiz-adv-x="696" 
d="M80 532q60 -37 134 -31q45 3 134 31q45 13 67 19q37 9 67 11q75 6 134 -30v202q-59 37 -134 31q-45 -3 -134 -31l-33 -10l-34 -9q-37 -9 -67 -12q-74 -5 -134 31v-202z" />
    <glyph glyph-name="exclamdown" unicode="&#xa1;" horiz-adv-x="383" 
d="M90 0h203v1005h-203v-1005zM192 1218q46 0 78 33q33 32 33 78q0 47 -33 79q-32 33 -78 33q-47 0 -79 -33q-33 -32 -33 -79q0 -46 33 -78q32 -33 79 -33z" />
    <glyph glyph-name="cent" unicode="&#xa2;" horiz-adv-x="1030" 
d="M315 882q40 84 130 112l-75 -511q-87 72 -87 236q0 97 32 163zM766 560q-51 -111 -182 -127l80 549q68 -32 101 -103l184 85q-77 167 -255 223l37 250h-221l-34 -231q-183 -21 -289 -151q-107 -131 -107 -336q0 -163 69 -281q67 -117 189 -170l-39 -268h221l34 228
q137 3 240 68q104 65 156 180z" />
    <glyph glyph-name="sterling" unicode="&#xa3;" horiz-adv-x="1202" 
d="M423 1086q8 88 96 126q33 15 78 21q35 6 74 6q102 0 164 -32q81 -40 85 -132l202 17q-10 160 -131 254q-122 95 -320 95q-193 0 -314 -90t-136 -244l-141 -1107h967l26 200v3h-763l32 252h295l27 203h-296l10 77h296l27 203h-297l18 145z" />
    <glyph glyph-name="currency" unicode="&#xa4;" horiz-adv-x="929" 
d="M308 560q41 -40 99 -57q29 -8 58 -8t58 8q58 17 99 57q40 41 57 99q9 29 9 58t-9 58q-17 58 -57 99q-41 40 -100 57q-29 8 -58 8t-58 -9q-58 -17 -98 -56q-39 -40 -56 -98q-10 -30 -10 -60q0 -28 9 -56q16 -59 57 -100zM198 903l-118 118l80 81l118 -118q44 30 99 46
q44 14 89 14q41 0 83 -12q57 -17 102 -48l118 118l80 -81l-117 -117q31 -46 48 -102q12 -42 12 -85q0 -42 -12 -85q-17 -56 -48 -102l117 -117l-80 -81l-118 118q-45 -32 -101 -48q-42 -12 -85 -12q-42 0 -85 12q-57 16 -102 48l-118 -118l-80 81l118 117q-32 46 -48 103
q-12 42 -12 84q0 44 13 87q16 55 47 99z" />
    <glyph glyph-name="yen" unicode="&#xa5;" horiz-adv-x="1336" 
d="M1013 1443l-344 -518l-345 518h-244l487 -730v-86h-152l-27 -203h179v-424h202v424h152l27 203h-179v83l487 733h-243z" />
    <glyph glyph-name="brokenbar" unicode="&#xa6;" horiz-adv-x="320" 
d="M80 371h160v-789h-160v789zM80 1578h160v-789h-160v789z" />
    <glyph glyph-name="section" unicode="&#xa7;" horiz-adv-x="1112" 
d="M482 765q52 -6 85 -24q41 -24 50 -65q-116 16 -135 89zM702 455q-93 86 -272 86q-32 0 -59 4q-36 5 -62 16q-68 28 -68 94q0 76 93 102q14 -99 93 -160q92 -72 254 -72q179 0 272 86q79 73 79 185q0 111 -79 184q-93 86 -272 86q-31 0 -59 4q-35 5 -61 16q-68 28 -68 94
q0 65 68 93q26 11 61 16q28 4 59 4t58 -4q35 -4 61 -15q67 -27 70 -89l146 12q-6 102 -82 167q-89 76 -253 76q-171 0 -260 -83q-75 -70 -75 -177q0 -108 75 -177q89 -83 260 -83q34 0 64 -4q38 -6 67 -18q73 -31 73 -102q0 -93 -121 -117q-9 100 -84 162q-89 74 -250 74
q-172 0 -261 -83q-75 -70 -75 -177q0 -108 75 -177q89 -83 261 -83q34 0 64 -4q38 -6 66 -18q74 -31 74 -102q0 -72 -74 -103q-28 -12 -66 -17q-30 -4 -64 -4t-63 4q-38 5 -66 17q-73 30 -75 100l-146 -12q6 -107 84 -175q93 -81 266 -81q179 0 272 86q78 73 78 185t-78 184
z" />
    <glyph glyph-name="dieresis" unicode="&#xa8;" horiz-adv-x="694" 
d="M109 1590q29 -29 71 -29q41 0 71 29q29 30 29 71q0 42 -29 71q-30 29 -71 29q-42 0 -71 -29t-29 -71q0 -41 29 -71zM442 1590q30 -29 71 -29q42 0 71 29q30 30 30 71q0 42 -30 71q-29 29 -71 29q-41 0 -71 -29q-29 -29 -29 -71q0 -41 29 -71z" />
    <glyph glyph-name="copyright" unicode="&#xa9;" horiz-adv-x="1500" 
d="M403 336q-120 134 -120 385q0 250 120 384q121 134 347 134t347 -134q120 -134 120 -384q0 -251 -120 -385q-121 -133 -347 -133t-347 133zM260 1248q-180 -194 -180 -527q0 -334 180 -527q180 -194 490 -194t490 194q180 193 180 527q0 333 -180 527q-180 193 -490 193
t-490 -193zM756 557h-9q-11 1 -21 2q-27 5 -47 18q-58 38 -58 144q0 105 58 143q20 13 47 18q10 2 21 2h9h7q60 0 94 -27q12 -10 21 -23l6 -10l2 -4l1 -4l184 86q-41 88 -121 137q-81 48 -187 48q-157 0 -251 -100q-94 -99 -94 -266t94 -267t251 -100q107 0 188 49t121 139
l-184 84l-2 -4l-2 -4l-6 -10q-8 -13 -20 -23q-35 -28 -95 -28h-7z" />
    <glyph glyph-name="ordfeminine" unicode="&#xaa;" horiz-adv-x="648" 
 />
    <glyph glyph-name="guillemotleft" unicode="&#xab;" horiz-adv-x="1055" 
d="M387 1026l-307 -307l307 -308l144 143l-164 165l164 164zM832 1026l-307 -307l307 -308l143 143l-164 165l164 164z" />
    <glyph glyph-name="logicalnot" unicode="&#xac;" horiz-adv-x="1000" 
d="M80 767h840v-491l-1 -1h-98v392h-741v100z" />
    <glyph glyph-name="registered" unicode="&#xae;" horiz-adv-x="1500" 
d="M684 800v92h73q42 0 56 -16q6 -6 7 -15l1 -8v-15l-1 -7q-1 -9 -6 -14q-12 -16 -48 -17h-82zM950 1026q-73 68 -193 68h-275v-726h202v229h69l75 -229h214l-97 292q79 70 79 186q0 111 -74 180zM403 336q-120 134 -120 385q0 250 120 384q121 134 347 134t347 -134
q120 -134 120 -384q0 -251 -120 -385q-121 -133 -347 -133t-347 133zM260 1248q-180 -194 -180 -527q0 -334 180 -527q180 -194 490 -194t490 194q180 193 180 527q0 333 -180 527q-180 193 -490 193t-490 -193z" />
    <glyph glyph-name="macron" unicode="&#xaf;" horiz-adv-x="1232" 
d="M80 1643v-203h1072v203h-1072z" />
    <glyph glyph-name="degree" unicode="&#xb0;" horiz-adv-x="716" 
d="M359 1372q-86 0 -147.5 -61t-61.5 -148t61 -147t148 -60t147 60t60 147t-60.5 148t-146.5 61zM359 1442q115 0 196 -81.5t81 -196.5q0 -114 -82 -196t-197 -82q-117 0 -197 81t-80 197t81.5 197t197.5 81z" />
    <glyph glyph-name="plusminus" unicode="&#xb1;" horiz-adv-x="786" 
d="M292 1176v-211h-212v-203h212v-212h202v212h212v203h-212v211h-202zM125 240h536v203h-536v-203z" />
    <glyph glyph-name="uni00B2" unicode="&#xb2;" horiz-adv-x="1014" 
 />
    <glyph glyph-name="uni00B3" unicode="&#xb3;" horiz-adv-x="1014" 
 />
    <glyph glyph-name="acute" unicode="&#xb4;" horiz-adv-x="443" 
d="M80 1238l113 -138l170 242l-140 99z" />
    <glyph glyph-name="mu" unicode="&#xb5;" horiz-adv-x="1000" 
d="M717 483q-1 -119 -43 -189q-54 -91 -174 -91q-122 0 -176 94q-41 72 -41 193v492h-203v-1442h203v518q14 -9 27 -15q85 -43 190 -43t190 43q14 7 27 16v-58h203v981h-203v-499z" />
    <glyph glyph-name="paragraph" unicode="&#xb6;" horiz-adv-x="996" 
d="M916 1435v-70h-127v-1365h-82v1365h-166v-1365h-84v738q-174 8 -275.5 102.5t-101.5 245.5q0 157 107.5 253t285.5 96h443z" />
    <glyph glyph-name="periodcentered" unicode="&#xb7;" horiz-adv-x="383" 
d="M192 813q46 0 78 -33q33 -32 33 -78q0 -47 -33 -79q-32 -33 -78 -33q-47 0 -79 33q-33 32 -33 79q0 46 33 78q32 33 79 33z" />
    <glyph glyph-name="periodcentered" unicode="&#x2219;" horiz-adv-x="383" 
d="M192 813q46 0 78 -33q33 -32 33 -78q0 -47 -33 -79q-32 -33 -78 -33q-47 0 -79 33q-33 32 -33 79q0 46 33 78q32 33 79 33z" />
    <glyph glyph-name="cedilla" unicode="&#xb8;" horiz-adv-x="412" 
d="M125 3l5 -132l39 -8q32 -6 45 -22q10 -14 5 -39q-4 -25 -20 -34q-17 -11 -49 -5q-14 3 -26 9l-44 -91q23 -12 51 -17q21 -4 40 -4q46 0 80 21q54 32 68 102q13 69 -25 119q-24 32 -66 49l-1 50z" />
    <glyph glyph-name="uni00B9" unicode="&#xb9;" horiz-adv-x="1014" 
 />
    <glyph glyph-name="ordmasculine" unicode="&#xba;" horiz-adv-x="718" 
 />
    <glyph glyph-name="guillemotright" unicode="&#xbb;" horiz-adv-x="1055" 
d="M524 883l164 -164l-164 -165l144 -143l307 308l-307 307zM80 883l164 -164l-164 -165l143 -143l307 308l-307 307z" />
    <glyph glyph-name="onequarter" unicode="&#xbc;" horiz-adv-x="1708" 
 />
    <glyph glyph-name="onehalf" unicode="&#xbd;" horiz-adv-x="1964" 
 />
    <glyph glyph-name="threequarters" unicode="&#xbe;" horiz-adv-x="1708" 
 />
    <glyph glyph-name="questiondown" unicode="&#xbf;" horiz-adv-x="1074" 
d="M865 112q123 111 129 299l-202 17q0 -126 -84 -183q-64 -42 -171 -42t-171 42q-83 57 -83 183t83 183q64 42 171 42h102v351h-203v-156q-165 -27 -260 -138q-96 -113 -96 -282q0 -195 124 -311q125 -117 333 -117q204 0 328 112zM616 1249q33 33 33 79t-33 79t-79 33
t-79 -33q-32 -33 -32 -79t32 -79q33 -32 79 -32t79 32z" />
    <glyph glyph-name="Agrave" unicode="&#xc0;" horiz-adv-x="1367" 
d="M790 1441h-214v1v-1l-496 -1441h214l138 399h503l138 -399h214l-496 1441v1zM501 601l182 529l183 -529h-365zM541 1781l51 -193l171 -38l-101 231h-121z" />
    <glyph glyph-name="Aacute" unicode="&#xc1;" horiz-adv-x="1367" 
d="M790 1441h-214v1v-1l-496 -1441h214l138 399h503l138 -399h214l-496 1441v1zM501 601l182 529l183 -529h-365zM705 1781l-101 -231l171 38l51 193h-121z" />
    <glyph glyph-name="Acircumflex" unicode="&#xc2;" horiz-adv-x="1367" 
d="M790 1441h-214v1v-1l-496 -1441h214l138 399h503l138 -399h214l-496 1441v1zM501 601l182 529l183 -529h-365zM585 1753l-115 -115l104 -104l115 115l115 -115l103 104l-115 115l-103 70z" />
    <glyph glyph-name="Atilde" unicode="&#xc3;" horiz-adv-x="1367" 
d="M790 1441h-214v1v-1l-496 -1441h214l138 399h503l138 -399h214l-496 1441v1zM501 601l182 529l183 -529h-365zM874 1749q-42 39 -95 33q-22 -2 -48 -12q-16 -6 -48 -21q-63 -29 -95 -33q-53 -6 -95 33v-167q42 -39 95 -33q21 3 48 12l24 10l23 11q64 29 96 33
q53 6 95 -33v167z" />
    <glyph glyph-name="Adieresis" unicode="&#xc4;" horiz-adv-x="1367" 
d="M446 1590q29 -29 71 -29q41 0 71 29q29 30 29 71q0 42 -29 71q-30 29 -71 29q-42 0 -71 -29t-29 -71q0 -41 29 -71zM779 1590q30 -29 71 -29q42 0 71 29q29 30 29 71q0 42 -29 71t-71 29q-41 0 -71 -29q-29 -29 -29 -71q0 -41 29 -71zM501 601l182 529l183 -529h-365z
M791 1442l-1 -1h-214v1v-1l-496 -1441h214l138 399h503l138 -399h214l-496 1441v1z" />
    <glyph glyph-name="Aring" unicode="&#xc5;" horiz-adv-x="1367" 
d="M790 1441h-214v1v-1l-496 -1441h214l138 399h503l138 -399h214l-496 1441v1zM501 601l182 529l183 -529h-365zM721 1699q16 -15 16 -37q0 -23 -16 -38q-15 -16 -38 -16q-22 0 -37 16q-16 15 -16 38q0 22 16 37q15 16 37 16q23 0 38 -16zM762 1583q33 32 33 79
q0 46 -33 78q-32 33 -79 33q-46 0 -78 -33q-33 -32 -33 -78q0 -47 33 -79q32 -33 78 -33q47 0 79 33z" />
    <glyph glyph-name="AE" unicode="&#xc6;" horiz-adv-x="1689" 
d="M576 1442v-1l-496 -1441h214l138 399h251v-399h926v203h-723v416h490v203h-490v417h723v202h-926v0h-107v1zM501 601l182 529v-529h-182z" />
    <glyph glyph-name="Ccedilla" unicode="&#xc7;" horiz-adv-x="1308" 
d="M1038 1002l188 77q-71 173 -211 266t-330 93q-280 0 -442 -194q-163 -194 -163 -527q0 -312 144 -503q143 -191 393 -214l5 -129l40 -8q31 -6 44 -22q10 -14 6 -39q-5 -25 -20 -34q-18 -11 -50 -5q-14 3 -25 9l-45 -91q23 -12 51 -17q21 -4 40 -4q46 0 80 21
q55 32 68 102q13 69 -25 119q-24 32 -65 49l-2 47q177 8 309 102q133 95 200 260l-188 75q-96 -236 -355 -236q-192 0 -297 136q-105 135 -105 382t105 382q105 136 297 136q258 0 353 -233z" />
    <glyph glyph-name="Egrave" unicode="&#xc8;" horiz-adv-x="1085" 
d="M80 1441v-1441h925v203h-722v416h489v203h-489v417h722v202h-925zM432 1781l50 -194l172 -37l-102 231h-120z" />
    <glyph glyph-name="Eacute" unicode="&#xc9;" horiz-adv-x="1085" 
d="M80 1441v-1441h925v203h-722v416h489v203h-489v417h722v202h-925zM533 1781l-101 -231l171 37l51 194h-121z" />
    <glyph glyph-name="Ecircumflex" unicode="&#xca;" horiz-adv-x="1085" 
d="M80 1441v-1441h925v203h-722v416h489v203h-489v417h722v202h-925zM444 1753l-115 -115l104 -104l115 115l115 -115l103 104l-115 115l-103 69z" />
    <glyph glyph-name="Edieresis" unicode="&#xcb;" horiz-adv-x="1085" 
d="M80 1441v-1441h925v203h-722v416h489v203h-489v417h722v202h-925zM305 1590q29 -29 71 -29q41 0 71 29q29 30 29 71q0 42 -29 71q-30 29 -71 29q-42 0 -71 -29t-29 -71q0 -41 29 -71zM638 1590q30 -29 71 -29q42 0 71 29q30 30 30 71q0 42 -30 71q-29 29 -71 29
q-41 0 -71 -29q-29 -29 -29 -71q0 -41 29 -71z" />
    <glyph glyph-name="Igrave" unicode="&#xcc;" horiz-adv-x="382" 
d="M80 1781l51 -194l171 -38l-101 232h-121zM99 0h203v1441h-203v-1441z" />
    <glyph glyph-name="Iacute" unicode="&#xcd;" horiz-adv-x="382" 
d="M181 1781l-101 -232l171 38l51 194h-121zM80 0h203v1441h-203v-1441z" />
    <glyph glyph-name="Icircumflex" unicode="&#xce;" horiz-adv-x="597" 
d="M299 1822l-104 -70l-115 -115l104 -103l115 115l115 -115l103 103l-115 115zM192 0h203v1441h-203v-1441z" />
    <glyph glyph-name="Idieresis" unicode="&#xcf;" horiz-adv-x="694" 
d="M251 1590q29 29 29 71q0 41 -29 71q-29 29 -71 29q-41 0 -71 -29q-29 -30 -29 -71q0 -42 29 -71q30 -29 71 -29q42 0 71 29zM443 1732q-30 -30 -30 -71q0 -42 30 -71q29 -29 71 -29q41 0 70 29q30 29 30 71q0 41 -30 71q-29 29 -70 29q-42 0 -71 -29zM448 1441h-202
v-1441h202v1441z" />
    <glyph glyph-name="Eth" unicode="&#xd0;" horiz-adv-x="1371" 
d="M402 619h225v203h-225v417h284q192 0 297 -136q105 -135 105 -382t-105 -383q-105 -135 -297 -135h-284v416zM686 0q280 0 442 194q163 193 163 527q0 333 -163 527q-162 193 -442 193h-486v-619h-120v-203h120v-619h486z" />
    <glyph glyph-name="Ntilde" unicode="&#xd1;" horiz-adv-x="1120" 
d="M80 1441v-1440h203v1030l542 -1031h215v1440h-202v-1030l-542 1031h-216zM370 1581q42 -39 95 -32q21 2 48 12l23 10l24 10q64 30 95 33q53 6 96 -33v168q-43 39 -96 33q-31 -4 -95 -33l-24 -11l-23 -10q-27 -10 -48 -12q-53 -6 -95 33v-168z" />
    <glyph glyph-name="Ograve" unicode="&#xd2;" horiz-adv-x="1340" 
d="M384 338q-101 136 -101 383t101 382q101 136 286 136t286 -136q102 -135 102 -382t-102 -383q-101 -135 -286 -135t-286 135zM239 1248q-159 -194 -159 -527q0 -334 159 -527q158 -194 431 -194t432 194q158 193 158 527q0 333 -158 527q-159 193 -432 193t-431 -193z
M610 1587l171 -37l-101 231h-121z" />
    <glyph glyph-name="Oacute" unicode="&#xd3;" horiz-adv-x="1340" 
d="M384 338q-101 136 -101 383t101 382q101 136 286 136t286 -136q102 -135 102 -382t-102 -383q-101 -135 -286 -135t-286 135zM239 1248q-159 -194 -159 -527q0 -334 159 -527q158 -194 431 -194t432 194q158 193 158 527q0 333 -158 527q-159 193 -432 193t-431 -193z
M731 1587l50 194h-121l-101 -231z" />
    <glyph glyph-name="Ocircumflex" unicode="&#xd4;" horiz-adv-x="1340" 
d="M384 338q-101 136 -101 383t101 382q101 136 286 136t286 -136q102 -135 102 -382t-102 -383q-101 -135 -286 -135t-286 135zM239 1248q-159 -194 -159 -527q0 -334 159 -527q158 -194 431 -194t432 194q158 193 158 527q0 333 -158 527q-159 193 -432 193t-431 -193z
M560 1534l116 115l115 -115l103 104l-115 115l-103 69l-104 -69l-115 -115z" />
    <glyph glyph-name="Otilde" unicode="&#xd5;" horiz-adv-x="1340" 
d="M384 338q-101 136 -101 383t101 382q101 136 286 136t286 -136q102 -135 102 -382t-102 -383q-101 -135 -286 -135t-286 135zM239 1248q-159 -194 -159 -527q0 -334 159 -527q158 -194 431 -194t432 194q158 193 158 527q0 333 -158 527q-159 193 -432 193t-431 -193z
M861 1749q-43 39 -96 33q-31 -4 -95 -33q-32 -15 -47 -21q-27 -9 -48 -12q-53 -6 -95 33v-167q42 -39 95 -33q21 2 48 12q15 6 47 21l24 11l24 9q26 10 47 13q53 6 96 -33v167z" />
    <glyph glyph-name="Odieresis" unicode="&#xd6;" horiz-adv-x="1340" 
d="M384 338q-101 136 -101 383t101 382q101 136 286 136t286 -136q102 -135 102 -382t-102 -383q-101 -135 -286 -135t-286 135zM239 1248q-159 -194 -159 -527q0 -334 159 -527q158 -194 431 -194t432 194q158 193 158 527q0 333 -158 527q-159 193 -432 193t-431 -193z
M574 1591q30 29 30 70q0 42 -30 71q-29 30 -70 30q-42 0 -71 -30q-30 -29 -30 -71q0 -41 30 -70q29 -30 71 -30q41 0 70 30zM908 1591q29 29 29 70q0 42 -29 71q-30 30 -71 30q-42 0 -71 -30q-29 -29 -29 -71q0 -41 29 -70q29 -30 71 -30q41 0 71 30z" />
    <glyph glyph-name="multiply" unicode="&#xd7;" horiz-adv-x="852" 
d="M426 618l-247 -247l-99 99l247 247l-247 248l99 98l247 -247l248 247l98 -99l-247 -247l247 -247l-99 -99z" />
    <glyph glyph-name="Oslash" unicode="&#xd8;" horiz-adv-x="1340" 
d="M839 1202q219 -109 219 -481q0 -230 -89 -365q-88 -133 -251 -151zM501 239q-218 109 -218 482q0 230 88 364q88 133 251 151zM886 1591h-221l-18 -150q-263 -9 -415 -202t-152 -518q0 -268 105 -449q104 -180 291 -242l-22 -180h221l19 150q263 9 414 202
q152 193 152 519q0 267 -104 448q-104 180 -291 242z" />
    <glyph glyph-name="Ugrave" unicode="&#xd9;" horiz-adv-x="1240" 
d="M958 597q0 -66 -12 -124q-14 -74 -47 -128q-84 -142 -279 -142q-194 0 -279 142q-32 54 -47 128q-11 58 -11 124v844h-203v-844q0 -276 145 -437q145 -160 395 -160t395 160q145 161 145 437v844h-202v-844zM630 1781h-121l51 -194l171 -37z" />
    <glyph glyph-name="Uacute" unicode="&#xda;" horiz-adv-x="1240" 
d="M958 597q0 -66 -12 -124q-14 -74 -47 -128q-84 -142 -279 -142q-194 0 -279 142q-32 54 -47 128q-11 58 -11 124v844h-203v-844q0 -276 145 -437q145 -160 395 -160t395 160q145 161 145 437v844h-202v-844zM731 1781h-121l-101 -231l172 37z" />
    <glyph glyph-name="Ucircumflex" unicode="&#xdb;" horiz-adv-x="1240" 
d="M958 597q0 -66 -12 -124q-14 -74 -47 -128q-84 -142 -279 -142q-194 0 -279 142q-32 54 -47 128q-11 58 -11 124v844h-203v-844q0 -276 145 -437q145 -160 395 -160t395 160q145 161 145 437v844h-202v-844zM510 1534l115 115l115 -115l104 104l-115 115l-104 69v0
l-103 -69l-115 -115z" />
    <glyph glyph-name="Udieresis" unicode="&#xdc;" horiz-adv-x="1240" 
d="M958 597q0 -66 -12 -124q-14 -74 -47 -128q-84 -142 -279 -142q-194 0 -279 142q-32 54 -47 128q-11 58 -11 124v844h-203v-844q0 -276 145 -437q145 -160 395 -160t395 160q145 161 145 437v844h-202v-844zM524 1732q-29 30 -71 30q-41 0 -70 -30q-30 -29 -30 -71
q0 -41 30 -71q29 -29 70 -29q42 0 71 29q30 30 30 71q0 42 -30 71zM858 1732q-30 30 -71 30q-42 0 -71 -30q-29 -29 -29 -71q0 -41 29 -71q29 -29 71 -29q41 0 71 29q29 30 29 71q0 42 -29 71z" />
    <glyph glyph-name="Yacute" unicode="&#xdd;" horiz-adv-x="1336" 
d="M1013 1443l-344 -518l-345 518h-244l487 -730v-713h202v710l487 733h-243zM658 1783l-101 -231l171 38l51 193h-121z" />
    <glyph glyph-name="Thorn" unicode="&#xde;" horiz-adv-x="889" 
d="M283 553v333h207q116 0 116 -167q0 -166 -116 -166h-207zM283 1088v353h-203v-1441h203v350h207q145 0 232 101q87 100 87 268q0 169 -87 269t-232 100h-207z" />
    <glyph glyph-name="germandbls" unicode="&#xdf;" horiz-adv-x="1061" 
d="M569 623q-9 12 -12 28q-1 6 -1 13v11q0 40 20 59l3 4q25 25 91 79l19 16l20 16q22 19 39 35q45 40 74 77q76 97 76 202q0 119 -64 189q-84 92 -273 92q-81 0 -151 -21q-90 -27 -157 -88q-173 -157 -173 -519v-813h203v813q0 275 110 373q39 34 92 46q20 4 42 6q9 0 18 1
h8h8q91 0 118 -22q17 -14 17 -57q0 -42 -49 -95q-19 -21 -49 -48l-28 -23l-28 -23q-73 -59 -107 -94q-82 -78 -82 -205q0 -128 85 -207t223 -79q76 0 102 -36q10 -13 13 -31q1 -6 2 -14v-6v-12v-6q-1 -8 -2 -14q-3 -18 -13 -31q-26 -36 -102 -36q-66 0 -95 27q-11 11 -17 26
q-4 11 -5 25l-201 -20q12 -119 98 -190q87 -71 220 -71q143 0 231 82q89 81 89 214t-89 214q-88 82 -231 82q-69 0 -92 31z" />
    <glyph glyph-name="agrave" unicode="&#xe0;" 
d="M331 298q-48 72 -48 193t48 194q64 94 208 94q143 0 207 -94q49 -72 49 -193v-2q0 -121 -49 -193q-64 -94 -207 -94q-144 0 -208 95zM998 0v981h-203v-80q-62 52 -148 70l-10 3q-47 8 -98 8t-98 -8l-10 -3q-163 -32 -257 -159q-94 -128 -94 -321q0 -192 94 -319
q92 -127 254 -161l11 -2q48 -9 100 -9t100 9l11 2q84 19 145 70v-81h203zM650 1090l-101 232h-121l51 -194z" />
    <glyph glyph-name="aacute" unicode="&#xe1;" 
d="M746 685q49 -72 49 -193v-2q0 -121 -49 -193q-64 -94 -207 -94q-144 0 -208 95q-48 72 -48 193t48 194q64 94 208 94q143 0 207 -94zM439 9q48 -9 100 -9t100 9l11 2q84 19 145 70v-81h203v981h-203v-80q-62 52 -148 70l-10 3q-47 8 -98 8t-98 -8l-10 -3
q-163 -32 -257 -159q-94 -128 -94 -321q0 -192 94 -319q92 -127 254 -161zM428 1090l171 38l51 194h-121z" />
    <glyph glyph-name="acircumflex" unicode="&#xe2;" 
d="M441 1291l-115 -115l103 -103l115 115l115 -115l104 103l-115 115l-104 70zM331 685q64 94 208 94q143 0 207 -94q49 -72 49 -193v-2q0 -121 -49 -193q-64 -94 -207 -94q-144 0 -208 95q-48 72 -48 193t48 194zM539 0q52 0 100 9l11 2q84 19 145 70v-81h203v981h-203v-80
q-62 52 -148 70l-10 3q-47 8 -98 8t-98 -8l-10 -3q-163 -32 -257 -159q-94 -128 -94 -321q0 -192 94 -319q92 -127 254 -161l11 -2q48 -9 100 -9z" />
    <glyph glyph-name="atilde" unicode="&#xe3;" 
d="M746 685q49 -72 49 -193v-2q0 -121 -49 -193q-64 -94 -207 -94q-144 0 -208 95q-48 72 -48 193t48 194q64 94 208 94q143 0 207 -94zM439 9q48 -9 100 -9t100 9l11 2q84 19 145 70v-81h203v981h-203v-80q-62 52 -148 70l-10 3q-47 8 -98 8t-98 -8l-10 -3
q-163 -32 -257 -159q-94 -128 -94 -321q0 -192 94 -319q92 -127 254 -161zM349 1122q42 -39 95 -33q21 3 47 13l24 10l24 10q64 30 95 33q53 6 95 -33v168q-42 39 -95 32q-31 -3 -95 -32q-32 -15 -48 -21q-26 -10 -47 -12q-53 -6 -95 33v-168z" />
    <glyph glyph-name="adieresis" unicode="&#xe4;" 
d="M746 685q49 -72 49 -193v-2q0 -121 -49 -193q-64 -94 -207 -94q-144 0 -208 95q-48 72 -48 193t48 194q64 94 208 94q143 0 207 -94zM439 9q48 -9 100 -9t100 9l11 2q84 19 145 70v-81h203v981h-203v-80q-62 52 -148 70l-10 3q-47 8 -98 8t-98 -8l-10 -3
q-163 -32 -257 -159q-94 -128 -94 -321q0 -192 94 -319q92 -127 254 -161zM302 1131q29 -29 70 -29q42 0 71 29q30 29 30 71q0 41 -30 71q-29 29 -71 29q-41 0 -70 -29q-30 -30 -30 -71q0 -42 30 -71zM635 1131q29 -29 71 -29q41 0 71 29q29 29 29 71q0 41 -29 71
q-30 29 -71 29q-42 0 -71 -29q-29 -30 -29 -71q0 -42 29 -71z" />
    <glyph glyph-name="aring" unicode="&#xe5;" 
d="M795 490q0 -121 -49 -193q-64 -94 -207 -94q-144 0 -208 95q-48 72 -48 193t48 194q64 94 208 94q143 0 207 -94q49 -72 49 -193v-2zM998 981h-203v-80q-62 52 -148 70l-10 3q-47 8 -98 8t-98 -8l-10 -3q-163 -32 -257 -159q-94 -128 -94 -321q0 -192 94 -319
q92 -127 254 -161l11 -2q48 -9 100 -9t100 9l11 2q84 19 145 70v-81h203v981zM577 1240q15 -16 15 -38t-15 -38q-16 -15 -38 -15t-38 15q-15 16 -15 38t15 38q16 15 38 15t38 -15zM618 1123q33 33 33 79t-33 79t-79 33t-79 -33t-33 -79t33 -79t79 -33t79 33z" />
    <glyph glyph-name="ae" unicode="&#xe6;" horiz-adv-x="1794" 
d="M331 297q-48 73 -48 194t48 194q64 94 208 94t208 -94q49 -73 49 -194v-1q-1 -121 -50 -193q-64 -94 -207 -94q-144 0 -208 94zM1500 595h-491q44 184 246 184q201 0 245 -184zM1528 64q115 63 170 176l-182 89q-29 -59 -96 -93q-67 -33 -156 -33q-218 0 -258 200h707v88
h1l-1 9q0 49 -7 95q-29 180 -148 283q-121 104 -303 104q-232 0 -358 -162q-126 162 -358 162q-209 0 -334 -134q-125 -133 -125 -357t125 -357q125 -134 334 -134q148 0 257 70v-69h207v68q111 -69 261 -69q149 0 264 64z" />
    <glyph glyph-name="ccedilla" unicode="&#xe7;" horiz-adv-x="1030" 
d="M331 294q-48 72 -48 194q0 121 48 193q65 95 208 95q167 0 226 -128l184 86q-54 116 -162 181q-107 64 -248 64q-209 0 -334 -134t-125 -357q0 -207 108 -338q107 -130 290 -150l5 -132l39 -8q32 -6 44 -22q11 -14 6 -39q-4 -25 -20 -34q-17 -11 -49 -5q-15 3 -26 9
l-44 -91q23 -12 51 -17q21 -4 40 -4q45 0 80 21q54 32 68 102q13 69 -25 119q-24 32 -66 49l-1 50q127 9 224 73q96 64 146 174l-184 84q-59 -130 -227 -130q-143 0 -208 95z" />
    <glyph glyph-name="egrave" unicode="&#xe8;" 
d="M428 1320l51 -194l171 -37l-101 231h-121zM784 595h-490q43 184 245 184t245 -184zM812 64q115 63 170 176l-182 89q-29 -59 -95 -93q-67 -33 -156 -33q-219 0 -258 200h707v88v0v9q0 49 -8 95q-28 180 -148 283q-120 104 -303 104q-209 0 -334 -134q-125 -133 -125 -357
t128 -357q127 -134 341 -134q148 0 263 64z" />
    <glyph glyph-name="eacute" unicode="&#xe9;" 
d="M529 1320l-101 -231l171 37l51 194h-121zM294 595q43 184 245 184t245 -184h-490zM842 878q-120 104 -303 104q-209 0 -334 -134q-125 -133 -125 -357t128 -357q127 -134 341 -134q148 0 263 64q115 63 170 176l-182 89q-29 -59 -95 -93q-67 -33 -156 -33
q-219 0 -258 200h707v88v0v9q0 49 -8 95q-28 180 -148 283z" />
    <glyph glyph-name="ecircumflex" unicode="&#xea;" 
d="M441 1291l-115 -115l103 -103l115 115l115 -115l104 103l-115 115l-104 70zM294 595q43 184 245 184t245 -184h-490zM842 878q-120 104 -303 104q-209 0 -334 -134q-125 -133 -125 -357t128 -357q127 -134 341 -134q148 0 263 64q115 63 170 176l-182 89q-29 -59 -95 -93
q-67 -33 -156 -33q-219 0 -258 200h707v88v0v9q0 49 -8 95q-28 180 -148 283z" />
    <glyph glyph-name="edieresis" unicode="&#xeb;" 
d="M302 1129q29 -29 70 -29q42 0 71 29q30 30 30 71q0 42 -30 71q-29 29 -71 29q-41 0 -70 -29q-30 -29 -30 -71q0 -41 30 -71zM635 1129q29 -29 71 -29q41 0 71 29q29 30 29 71q0 42 -29 71q-30 29 -71 29q-42 0 -71 -29t-29 -71q0 -41 29 -71zM784 595h-490
q43 184 245 184t245 -184zM291 403h707v88v0v9q0 49 -8 95q-28 180 -148 283q-120 104 -303 104q-209 0 -334 -134q-125 -133 -125 -357t128 -357q127 -134 341 -134q148 0 263 64q115 63 170 176l-182 89q-29 -59 -95 -93q-67 -33 -156 -33q-219 0 -258 200z" />
    <glyph glyph-name="igrave" unicode="&#xec;" horiz-adv-x="382" 
d="M99 0h203v982h-203v-982zM80 1320l51 -194l171 -38l-101 232h-121z" />
    <glyph glyph-name="iacute" unicode="&#xed;" horiz-adv-x="382" 
d="M80 0h203v982h-203v-982zM181 1320l-101 -231l171 37l51 194h-121z" />
    <glyph glyph-name="icircumflex" unicode="&#xee;" horiz-adv-x="597" 
d="M192 0h203v982h-203v-982zM195 1291l-115 -115l104 -103l115 115l115 -115l103 103l-115 115l-103 70z" />
    <glyph glyph-name="idieresis" unicode="&#xef;" horiz-adv-x="694" 
d="M246 0h202v982h-202v-982zM251 1129q29 30 29 71q0 42 -29 71t-71 29q-41 0 -71 -29q-29 -29 -29 -71q0 -41 29 -71q30 -29 71 -29q42 0 71 29zM584 1271q-29 29 -70 29q-42 0 -71 -29q-30 -29 -30 -71q0 -41 30 -71q29 -29 71 -29q41 0 70 29q30 30 30 71q0 42 -30 71z
" />
    <glyph glyph-name="eth" unicode="&#xf0;" horiz-adv-x="979" 
d="M283 437q0 234 207 234q206 0 206 -234t-206 -234q-207 0 -207 234zM272 1071q63 0 118 -16l-118 -82l165 -58l77 72q58 -50 98 -129q-58 16 -122 16q-187 0 -299 -119q-111 -119 -111 -318t111 -318q112 -119 299 -119q186 0 298 119q111 119 111 318q0 387 -168 612
q-169 225 -459 225v-203z" />
    <glyph glyph-name="ntilde" unicode="&#xf1;" horiz-adv-x="1000" 
d="M500 982q-105 0 -190 -43q-14 -8 -27 -17v59h-203v-981h203v498q1 119 43 189q54 92 174 92q122 0 176 -95q41 -72 41 -193v-491h203v491q0 160 -61 277q-60 116 -169 171q-85 43 -190 43zM310 1120q42 -39 95 -32q32 3 95 32l24 11l24 10q26 10 47 12q53 6 95 -33v168
q-42 39 -95 33q-32 -4 -95 -33l-24 -11l-24 -10q-26 -10 -47 -12q-53 -6 -95 33v-168z" />
    <glyph glyph-name="ograve" unicode="&#xf2;" 
d="M331 297q-48 73 -48 194t48 194q64 94 208 94t208 -94q49 -73 49 -194t-49 -194q-64 -94 -208 -94t-208 94zM205 848q-125 -133 -125 -357t125 -357q125 -134 334 -134t334 134q125 133 125 357t-125 357q-125 134 -334 134t-334 -134zM479 1128l171 -38l-101 232h-121z
" />
    <glyph glyph-name="oacute" unicode="&#xf3;" 
d="M331 297q-48 73 -48 194t48 194q64 94 208 94t208 -94q49 -73 49 -194t-49 -194q-64 -94 -208 -94t-208 94zM205 848q-125 -133 -125 -357t125 -357q125 -134 334 -134t334 134q125 133 125 357t-125 357q-125 134 -334 134t-334 -134zM650 1322h-121l-101 -232l171 38z
" />
    <glyph glyph-name="ocircumflex" unicode="&#xf4;" 
d="M331 297q-48 73 -48 194t48 194q64 94 208 94t208 -94q49 -73 49 -194t-49 -194q-64 -94 -208 -94t-208 94zM205 848q-125 -133 -125 -357t125 -357q125 -134 334 -134t334 134q125 133 125 357t-125 357q-125 134 -334 134t-334 -134zM429 1075l115 115l115 -115
l104 103l-115 115l-104 70l-103 -70l-115 -115z" />
    <glyph glyph-name="otilde" unicode="&#xf5;" 
d="M331 297q-48 73 -48 194t48 194q64 94 208 94t208 -94q49 -73 49 -194t-49 -194q-64 -94 -208 -94t-208 94zM205 848q-125 -133 -125 -357t125 -357q125 -134 334 -134t334 134q125 133 125 357t-125 357q-125 134 -334 134t-334 -134zM729 1290q-42 39 -95 33
q-31 -4 -95 -33q-32 -15 -48 -21q-26 -10 -47 -12q-53 -6 -95 33v-168q42 -39 95 -32q32 3 95 32q32 15 48 21q26 10 47 12q53 6 95 -33v168z" />
    <glyph glyph-name="odieresis" unicode="&#xf6;" 
d="M331 297q-48 73 -48 194t48 194q64 94 208 94t208 -94q49 -73 49 -194t-49 -194q-64 -94 -208 -94t-208 94zM205 848q-125 -133 -125 -357t125 -357q125 -134 334 -134t334 134q125 133 125 357t-125 357q-125 134 -334 134t-334 -134zM443 1131q30 29 30 71q0 41 -30 71
q-29 29 -71 29q-41 0 -70 -29q-30 -30 -30 -71q0 -42 30 -71q29 -29 70 -29q42 0 71 29zM777 1131q29 29 29 71q0 41 -29 71q-30 29 -71 29q-42 0 -71 -29q-29 -30 -29 -71q0 -42 29 -71t71 -29q41 0 71 29z" />
    <glyph glyph-name="divide" unicode="&#xf7;" horiz-adv-x="881" 
d="M361 453q-32 -32 -32 -79q0 -46 32 -78q33 -33 79 -33q47 0 79 33q33 32 33 78q0 47 -33 79q-32 33 -79 33q-46 0 -79 -33zM361 1142q-32 -33 -32 -79q0 -47 32 -79q33 -33 79 -33q47 0 79 33q33 32 33 79q0 46 -33 79q-32 32 -79 32q-46 0 -79 -32zM80 617h721v203h-721
v-203z" />
    <glyph glyph-name="oslash" unicode="&#xf8;" 
d="M681 744q115 -67 115 -256q0 -102 -35 -170q-45 -87 -145 -110zM318 659q45 87 144 110l-65 -536q-114 66 -114 255q0 103 35 171zM737 1211h-221l-28 -234q-188 -17 -298 -148t-110 -341q0 -173 78 -296q77 -121 214 -168l-31 -258h221l29 234q187 17 297 148t110 340
q0 174 -78 297q-77 121 -214 168z" />
    <glyph glyph-name="ugrave" unicode="&#xf9;" horiz-adv-x="1000" 
d="M717 484q-1 -119 -43 -190q-54 -91 -174 -91q-122 0 -176 94q-41 72 -41 194v491h-203v-491q0 -160 61 -278q60 -115 169 -170q85 -43 190 -43t190 43q14 7 27 17v-59h203v981h-203v-498zM510 1321h-121l51 -193l171 -38z" />
    <glyph glyph-name="uacute" unicode="&#xfa;" horiz-adv-x="1000" 
d="M717 484q-1 -119 -43 -190q-54 -91 -174 -91q-122 0 -176 94q-41 72 -41 194v491h-203v-491q0 -160 61 -278q60 -115 169 -170q85 -43 190 -43t190 43q14 7 27 17v-59h203v981h-203v-498zM611 1321h-121l-101 -231l171 38z" />
    <glyph glyph-name="ucircumflex" unicode="&#xfb;" horiz-adv-x="1000" 
d="M717 484q-1 -119 -43 -190q-54 -91 -174 -91q-122 0 -176 94q-41 72 -41 194v491h-203v-491q0 -160 61 -278q60 -115 169 -170q85 -43 190 -43t190 43q14 7 27 17v-59h203v981h-203v-498zM390 1075l115 115l115 -115l104 103l-115 115l-104 70l-103 -70l-115 -115z" />
    <glyph glyph-name="udieresis" unicode="&#xfc;" horiz-adv-x="1000" 
d="M717 484q-1 -119 -43 -190q-54 -91 -174 -91q-122 0 -176 94q-41 72 -41 194v491h-203v-491q0 -160 61 -278q60 -115 169 -170q85 -43 190 -43t190 43q14 7 27 17v-59h203v981h-203v-498zM404 1273q-29 29 -71 29q-41 0 -71 -29q-29 -30 -29 -71q0 -42 29 -71
q30 -29 71 -29q42 0 71 29q30 29 30 71q0 41 -30 71zM738 1273q-30 29 -71 29q-42 0 -71 -29q-30 -30 -30 -71q0 -42 30 -71q29 -29 71 -29q41 0 71 29q29 29 29 71q0 41 -29 71z" />
    <glyph glyph-name="yacute" unicode="&#xfd;" horiz-adv-x="1013" 
d="M730 485q-1 -119 -43 -190q-54 -91 -174 -91q-122 0 -176 94q-41 72 -41 194v490h-203v-490q0 -161 61 -278q60 -116 169 -170q85 -43 190 -43t190 43q14 7 27 16v-108q0 -249 -248 -249q-69 0 -121 21q-68 29 -99 92l-182 -89q54 -110 158 -169q104 -58 244 -58
q206 0 328 123q123 123 123 329v1030h-203v-497zM618 1320h-121l-102 -231l172 38z" />
    <glyph glyph-name="thorn" unicode="&#xfe;" 
d="M332 296q-49 71 -49 192v4q0 121 49 193q64 94 207 94q144 0 208 -95q48 -72 48 -194q0 -121 -48 -193q-64 -95 -208 -95q-143 0 -207 94zM639 972q-48 9 -100 9t-100 -9l-10 -2q-85 -19 -146 -70v541h-203v-1901h203v541q62 -52 149 -71l9 -2q47 -9 98 -9t98 9l10 2
q163 33 257 160q94 128 94 320t-93 320q-93 126 -255 160z" />
    <glyph glyph-name="ydieresis" unicode="&#xff;" horiz-adv-x="1013" 
d="M417 1272q-29 29 -71 29q-41 0 -70 -29q-30 -30 -30 -71q0 -42 30 -71q29 -29 70 -29q42 0 71 29q30 29 30 71q0 41 -30 71zM751 1272q-30 29 -71 29q-42 0 -71 -29q-30 -30 -30 -71q0 -42 30 -71q29 -29 71 -29q41 0 71 29q29 29 29 71q0 41 -29 71zM730 485
q-1 -119 -43 -190q-54 -91 -174 -91q-122 0 -176 94q-41 72 -41 194v490h-203v-490q0 -161 61 -278q60 -116 169 -170q85 -43 190 -43t190 43q14 7 27 16v-108q0 -249 -248 -249q-69 0 -121 21q-68 29 -99 92l-182 -89q54 -110 158 -169q104 -58 244 -58q206 0 328 123
q123 123 123 329v1030h-203v-497z" />
    <glyph glyph-name="dotlessi" unicode="&#x131;" horiz-adv-x="615" 
d="M389 223q0 -173 100 -173h46v-50h-442v50h46q100 0 100 173v432q0 77 -111 77h-48v44q222 69 261 182h48v-735z" />
    <glyph glyph-name="circumflex" unicode="&#x2c6;" horiz-adv-x="742" 
d="M80 1079l232 355h118l232 -355h-58l-233 216l-233 -216h-58z" />
    <glyph glyph-name="caron" unicode="&#x2c7;" horiz-adv-x="742" 
d="M80 1434h58l233 -214l233 214h58l-232 -356h-118z" />
    <glyph glyph-name="uni02C9" unicode="&#x2c9;" horiz-adv-x="676" 
d="M80 1195v125h516v-125h-516z" />
    <glyph glyph-name="breve" unicode="&#x2d8;" horiz-adv-x="744" 
d="M80 1349h51q17 -73 75 -107t167 -34t166 33.5t74 107.5h51q-20 -133 -94 -201.5t-197 -68.5q-122 0 -197 69t-96 201z" />
    <glyph glyph-name="dotaccent" unicode="&#x2d9;" horiz-adv-x="375" 
d="M94 1289l69 72q6 6 13 9t14 3q6 0 12.5 -3t12.5 -9l71 -76q5 -4 7 -10t2 -14q-1 -9 -3 -15t-8 -12l-71 -76q-12 -11 -16 -13.5t-7 -2.5q-10 0 -16.5 2.5t-10.5 8.5l-75 87q-4 4 -6 9.5t-2 13.5q0 6 3 12.5t11 13.5z" />
    <glyph glyph-name="ring" unicode="&#x2da;" horiz-adv-x="515" 
d="M156 1257q0 -42 29 -71t71 -29t71 29t29 71q0 40 -29.5 69.5t-70.5 29.5t-70.5 -29.5t-29.5 -69.5zM80 1257q0 75 51 126t125 51q76 0 127.5 -51.5t51.5 -125.5q0 -75 -51.5 -126.5t-127.5 -51.5q-74 0 -125 51.5t-51 126.5z" />
    <glyph glyph-name="ogonek" unicode="&#x2db;" horiz-adv-x="528" 
d="M351 0q-71 -62 -110.5 -119.5t-39.5 -112.5q0 -47 27 -75t73 -28q40 0 69.5 15.5t49.5 48.5l28 -16q-36 -63 -90.5 -97t-119.5 -34q-70 0 -114 35.5t-44 90.5q0 76 60.5 156.5t161.5 135.5h49z" />
    <glyph glyph-name="tilde" unicode="&#x2dc;" horiz-adv-x="696" 
d="M80 1164q59 -37 134 -31q44 3 134 31l33 10l34 9q37 9 67 11q74 6 134 -30v202q-60 37 -134 31q-45 -3 -134 -31l-34 -10l-33 -9q-38 -9 -67 -11q-75 -6 -134 30v-202z" />
    <glyph glyph-name="hungarumlaut" unicode="&#x2dd;" horiz-adv-x="554" 
d="M251 1434v-248l-171 -48v296h171zM474 1434v-189l-171 -48v237h171z" />
    <glyph glyph-name="endash" unicode="&#x2013;" horiz-adv-x="696" 
d="M80 599h536v203h-536v-203z" />
    <glyph glyph-name="emdash" unicode="&#x2014;" horiz-adv-x="1157" 
d="M80 599h997v203h-997v-203z" />
    <glyph glyph-name="quoteleft" unicode="&#x2018;" horiz-adv-x="331" 
d="M80 1434v-296l171 48v248h-171z" />
    <glyph glyph-name="quoteright" unicode="&#x2019;" horiz-adv-x="331" 
d="M80 1434v-248l171 -48v296h-171z" />
    <glyph glyph-name="quotesinglbase" unicode="&#x201a;" horiz-adv-x="331" 
d="M80 106v-296l171 48v248h-171z" />
    <glyph glyph-name="quotedblleft" unicode="&#x201c;" horiz-adv-x="554" 
d="M80 1434v-296l171 48v248h-171zM303 1434v-237l171 48v189h-171z" />
    <glyph glyph-name="quotedblright" unicode="&#x201d;" horiz-adv-x="554" 
d="M303 1434v-248l171 -48v296h-171zM80 1434v-189l171 -48v237h-171z" />
    <glyph glyph-name="quotedblbase" unicode="&#x201e;" horiz-adv-x="554" 
d="M80 134v-296l171 48v248h-171zM303 134v-237l171 48v189h-171z" />
    <glyph glyph-name="dagger" unicode="&#x2020;" horiz-adv-x="1033" 
d="M495 1022q-8 97 -54 178q-57 101 -57 129q0 49 36 78.5t96 29.5q57 0 94.5 -27.5t37.5 -71.5q0 -32 -55 -137q-46 -85 -55 -179q96 8 177 54q101 57 129 57q49 0 79 -36t30 -96q0 -57 -27.5 -94.5t-72.5 -37.5q-32 0 -136 55q-85 46 -179 57q8 -176 110 -277
q-106 -460 -112 -974h-38q-6 514 -114 974q102 101 111 277q-96 -10 -178 -55q-101 -57 -129 -57q-49 0 -78.5 36t-29.5 96q0 57 27.5 94.5t71.5 37.5q32 0 137 -56q85 -46 179 -55z" />
    <glyph glyph-name="daggerdbl" unicode="&#x2021;" horiz-adv-x="1033" 
d="M538 186q94 11 179 57q104 55 136 55q45 0 72.5 -37.5t27.5 -94.5q0 -60 -30 -96t-79 -36q-28 0 -129 57q-81 46 -177 54q9 -94 55 -179q55 -105 55 -137q0 -44 -37.5 -71.5t-94.5 -27.5q-60 0 -96 29.5t-36 78.5q0 28 57 129q46 81 54 178q-94 -9 -179 -55
q-105 -56 -137 -56q-44 0 -71.5 37.5t-27.5 94.5q0 60 29.5 96t78.5 36q28 0 129 -57q82 -45 178 -55q-9 226 -111 398q102 171 111 397q-96 -10 -178 -55q-101 -57 -129 -57q-49 0 -78.5 36t-29.5 96q0 57 27.5 94.5t71.5 37.5q32 0 137 -56q85 -46 179 -55q-8 97 -54 178
q-57 101 -57 129q0 49 36 78.5t96 29.5q57 0 94.5 -27.5t37.5 -71.5q0 -32 -55 -137q-46 -85 -55 -179q96 8 177 54q101 57 129 57q49 0 79 -36t30 -96q0 -57 -27.5 -94.5t-72.5 -37.5q-32 0 -136 55q-85 46 -179 57q8 -226 110 -397q-102 -172 -110 -398z" />
    <glyph glyph-name="bullet" unicode="&#x2022;" horiz-adv-x="752" 
d="M80 718q0 123 87 209t210 86q122 0 208.5 -86.5t86.5 -208.5t-87.5 -209.5t-209.5 -87.5q-123 0 -209 87t-86 210z" />
    <glyph glyph-name="ellipsis" unicode="&#x2026;" horiz-adv-x="1312" 
d="M113 190q-33 -32 -33 -78q0 -47 33 -79q32 -33 79 -33q46 0 78 33q33 32 33 79q0 46 -33 78q-32 33 -78 33q-47 0 -79 -33zM577 190q-32 -32 -32 -78q0 -47 32 -79q33 -33 79 -33t79 33q33 32 33 79q0 46 -33 78q-33 33 -79 33t-79 -33zM1042 190q-33 -32 -33 -78
q0 -47 33 -79q33 -33 79 -33t79 33q32 32 32 79q0 46 -32 78q-33 33 -79 33t-79 -33z" />
    <glyph glyph-name="guilsinglleft" unicode="&#x2039;" horiz-adv-x="610" 
d="M387 1008l-307 -308l307 -307l143 143l-164 164l164 164z" />
    <glyph glyph-name="guilsinglright" unicode="&#x203a;" horiz-adv-x="610" 
d="M80 864l164 -164l-164 -164l143 -143l307 307l-307 308z" />
    <glyph glyph-name="fraction" unicode="&#x2044;" horiz-adv-x="592" 
d="M291 1581l-211 -1741h221l211 1741h-221z" />
    <glyph glyph-name="fraction" unicode="&#x2215;" horiz-adv-x="592" 
d="M291 1581l-211 -1741h221l211 1741h-221z" />
    <glyph glyph-name="lira" unicode="&#x20a4;" horiz-adv-x="1202" 
d="M423 1086q8 88 96 126q33 15 78 21q35 6 74 6q102 0 164 -32q81 -40 85 -132l202 17q-10 160 -131 254q-122 95 -320 95q-193 0 -314 -90t-136 -244l-141 -1107h967l26 200v3h-763l32 252h295l27 203h-296l10 77h296l27 203h-297l18 145z" />
    <glyph glyph-name="peseta" unicode="&#x20a7;" horiz-adv-x="2079" 
d="M441 1384v-662q3 -9 7 -17q41 -102 108 -153q57 -44 116 -44q10 0 19 1q68 8 127 75t87 177q22 87 22 179q0 24 -1 47q-7 116 -49.5 218.5t-108.5 144.5q-56 35 -112 35q-10 0 -21 -1h-194zM1528 908h-179v-685q0 -81 34 -119q28 -31 81 -37l-71 192l49 1
q55 -130 114 -174q57 -44 127 -44h7q92 0 151 52q59 53 59 136q0 102 -259 226q-101 52 -144 112t-43 145q0 121 73 194zM1071 910q-7 -101 -48 -194q-50 -114 -141 -177.5t-190 -63.5q-100 0 -191 64q-33 22 -60 51v-305q0 -235 102 -235h97v-50h-560v50h96q103 0 103 235
v864q0 235 -103 235h-96v50h618q92 -2 181 -62q91 -62 143 -177q50 -113 51 -237h10q216 0 216 355h50v-355h259q42 19 110 20h2q54 0 133.5 -13.5t79.5 -33.5v-159h-42q-4 66 -65.5 108t-133.5 42q-64 0 -102.5 -36.5t-38.5 -96.5q0 -108 235 -220q122 -55 167.5 -117.5
t45.5 -153.5q0 -140 -83 -231q-102 -84 -228 -86q-58 0 -105 11q-28 6 -56 6q-18 0 -36 -3q-28 -5 -59 -5q-124 0 -173.5 57t-57.5 176h-1v687h-129z" />
    <glyph glyph-name="Euro" unicode="&#x20ac;" horiz-adv-x="1418" 
d="M563 274q-94 71 -137 205h188l26 203h-246l-1 39l1 39h256l27 202h-251q43 134 137 205q95 72 232 72q258 0 354 -234l187 77q-71 174 -211 267q-139 92 -330 92q-223 0 -375 -127q-150 -125 -203 -352h-74l-26 -202h74l-1 -39l1 -39h-84l-27 -203h137q53 -227 203 -352
q152 -127 375 -127q189 0 331 95t212 268l-188 76q-95 -236 -355 -236q-137 0 -232 71z" />
    <glyph glyph-name="uni2116" unicode="&#x2116;" horiz-adv-x="1727" 
d="M1239 515q-42 34 -42 120t42 120q29 24 82 24t82 -24q42 -34 42 -120t-42 -120q-29 -24 -82 -24t-82 24zM1083 887q-89 -94 -89 -252t89 -252q89 -95 238 -95t237 95q89 94 89 252t-89 252q-88 95 -237 95t-238 -95zM500 982q-105 0 -190 -43q-14 -8 -27 -17v59h-203
v-981h203v498q1 119 43 189q54 92 174 92q122 0 176 -95q41 -72 41 -193v-491h203v491q0 160 -61 277q-60 116 -169 171q-85 43 -190 43zM1042 0h558v203h-558v-203z" />
    <glyph glyph-name="trademark" unicode="&#x2122;" horiz-adv-x="396" 
d="M295 1641l-38 -108l-37 108h-21v-141h20v83l28 -80h21l28 80v-83h20v141h-21zM80 1641v-20h40v-121h20v121h41v20h-101z" />
    <glyph glyph-name="partialdiff" unicode="&#x2202;" horiz-adv-x="1060" 
d="M530 203q-139 0 -201 89q-47 68 -47 182q0 115 47 183q62 89 201 89q138 0 200 -89q47 -68 47 -183q0 -114 -47 -182q-62 -89 -200 -89zM530 949q-205 0 -328 -130q-122 -129 -122 -345t122 -345q123 -129 328 -129t327 129q123 129 123 345l-1 33h1q0 434 -233 686
t-635 252v-202q414 0 577 -319q-74 25 -159 25z" />
    <glyph glyph-name="Delta" unicode="&#x2206;" horiz-adv-x="1280" 
d="M640 970l-560 -970h1120zM640 564l209 -361h-418z" />
    <glyph glyph-name="product" unicode="&#x220f;" horiz-adv-x="1373" 
d="M80 1441v-203h207v-1238h203v1238h387v-1238h202v1238h214v203h-1213z" />
    <glyph glyph-name="summation" unicode="&#x2211;" horiz-adv-x="1074" 
d="M80 1441l284 -720l-284 -721h914v203h-616l204 518l-204 518h616v202h-914z" />
    <glyph glyph-name="minus" unicode="&#x2212;" horiz-adv-x="696" 
d="M80 599h536v203h-536v-203z" />
    <glyph glyph-name="radical" unicode="&#x221a;" horiz-adv-x="1197" 
d="M244 0l-164 359l74 35l85 -185l728 1470h150v-60h-72z" />
    <glyph glyph-name="infinity" unicode="&#x221e;" horiz-adv-x="1095" 
d="M434 315q12 -15 12 -46t-12 -45q-19 -21 -70 -21q-50 0 -69 21q-12 14 -12 45t12 46q19 21 69 21q51 0 70 -21zM800 315q12 -15 12 -46t-12 -45q-19 -21 -69 -21q-51 0 -70 21q-12 14 -12 45t12 46q19 21 70 21q50 0 69 -21zM547 55q75 -55 184 -55q127 0 206 74
q78 75 78 195q0 121 -78 196q-79 74 -206 74q-109 0 -184 -56q-74 56 -183 56q-127 0 -206 -74q-78 -75 -78 -196q0 -120 78 -195q79 -74 206 -74q109 0 183 55z" />
    <glyph glyph-name="integral" unicode="&#x222b;" horiz-adv-x="899" 
d="M348 504q0 -127 -51 -202q-67 -99 -217 -99v-203q215 0 343 137t128 367v433q0 127 51 202q67 99 217 99v203q-215 0 -343 -137t-128 -367v-433z" />
    <glyph glyph-name="approxequal" unicode="&#x2248;" horiz-adv-x="696" 
d="M80 451q59 -37 134 -31q44 3 134 31l33 10l34 9q37 9 67 12q74 5 134 -31v202q-60 37 -134 31q-45 -3 -134 -31l-34 -10l-33 -9q-38 -9 -67 -11q-75 -6 -134 30v-202zM80 784q59 -37 134 -31q44 3 134 31l33 10l34 9q37 9 67 11q74 6 134 -30v202q-60 37 -134 31
q-45 -3 -134 -31l-34 -10l-33 -9q-38 -9 -67 -11q-75 -6 -134 30v-202z" />
    <glyph glyph-name="lessequal" unicode="&#x2264;" horiz-adv-x="696" 
d="M616 203h-536v-203h536v203zM123 546l307 -307l143 143l-164 164l164 164l-143 144z" />
    <glyph glyph-name="greaterequal" unicode="&#x2265;" horiz-adv-x="696" 
d="M80 0h536v203h-536v-203zM266 854l-143 -144l164 -164l-164 -164l143 -143l307 307z" />
    <glyph glyph-name="uniF001" unicode="&#xf001;" horiz-adv-x="1073" 
 />
    <glyph glyph-name="uniF001" unicode="&#xfb01;" horiz-adv-x="1073" 
 />
    <glyph glyph-name="uniF002" unicode="&#xf002;" horiz-adv-x="1081" 
 />
    <glyph glyph-name="uniF002" unicode="&#xfb02;" horiz-adv-x="1081" 
 />
    </font>
</defs>
</svg>
