<?xml version="1.0" standalone="no"?>
<!DOCTYPE svg PUBLIC "-//W3C//DTD SVG 1.1//EN" "http://www.w3.org/Graphics/SVG/1.1/DTD/svg11.dtd" >
<svg xmlns="http://www.w3.org/2000/svg" xmlns:xlink="http://www.w3.org/1999/xlink" version="1.1">
<metadata>
Created by FontForge 20170731 at Tue Jun  7 03:27:16 2016
 By Aleksey,,,
Kayak Sans Regular (Italic) (c) Jack Harvatt. 2016. All Rights Reserved
</metadata>
<defs>
<font id="KayakSans-RegularItalic" horiz-adv-x="1336" >
  <font-face 
    font-family="Kayak Sans"
    font-weight="400"
    font-style="italic"
    font-stretch="normal"
    units-per-em="2048"
    panose-1="2 0 5 0 0 0 0 0 0 0"
    ascent="1638"
    descent="-410"
    x-height="962"
    cap-height="1437"
    bbox="80 -537 1833 1826"
    underline-thickness="150"
    underline-position="-442"
    slope="-6"
    unicode-range="U+001D-F002"
  />
<missing-glyph horiz-adv-x="984" 
d="M80 0v1434h824v-1434h-824zM130 50h724v1334h-724v-1334zM305 1148q31 28 58 43q53 30 112 30q92 0 148 -47.5t56 -127.5q0 -49 -23 -98.5t-87 -129.5q-63 -80 -99 -132t-36 -99q0 -38 24 -133h-32q-35 97 -35 148q0 76 81.5 218t81.5 217q0 57 -33 90t-91 33
q-38 0 -69 -17q-26 -15 -56 -40v45zM369 334l57 58q11 10 20 10q10 0 22 -11l56 -60q9 -11 9 -20q0 -11 -10 -22l-56 -62q-14 -14 -21 -14q-11 0 -20 10l-61 71q-7 9 -7 18q0 10 11 22z" />
    <glyph glyph-name=".notdef" horiz-adv-x="984" 
d="M80 0v1434h824v-1434h-824zM130 50h724v1334h-724v-1334zM305 1148q31 28 58 43q53 30 112 30q92 0 148 -47.5t56 -127.5q0 -49 -23 -98.5t-87 -129.5q-63 -80 -99 -132t-36 -99q0 -38 24 -133h-32q-35 97 -35 148q0 76 81.5 218t81.5 217q0 57 -33 90t-91 33
q-38 0 -69 -17q-26 -15 -56 -40v45zM369 334l57 58q11 10 20 10q10 0 22 -11l56 -60q9 -11 9 -20q0 -11 -10 -22l-56 -62q-14 -14 -21 -14q-11 0 -20 10l-61 71q-7 9 -7 18q0 10 11 22z" />
    <glyph glyph-name=".null" horiz-adv-x="0" 
 />
    <glyph glyph-name=".null" horiz-adv-x="0" 
 />
    <glyph glyph-name="nonmarkingreturn" horiz-adv-x="508" 
 />
    <glyph glyph-name="space" unicode=" " horiz-adv-x="508" 
 />
    <glyph glyph-name="space" unicode="&#xa0;" horiz-adv-x="508" 
 />
    <glyph glyph-name="exclam" unicode="!" horiz-adv-x="524" 
d="M285 1437l-139 -988h160l138 988h-159zM103 27q-23 26 -18 63q5 38 35 64q31 27 68 27q38 0 60 -27q23 -26 18 -64q-5 -37 -36 -63q-30 -27 -67 -27q-38 0 -60 27z" />
    <glyph glyph-name="quotedbl" unicode="&#x22;" horiz-adv-x="552" 
d="M115 1442l-35 -248l133 36l29 212h-127zM345 1442l-26 -187l132 35l21 152h-127z" />
    <glyph glyph-name="numbersign" unicode="#" horiz-adv-x="1306" 
d="M935 1148l-60 -255h-294l60 255h-159l-60 -255h-192l-38 -159h192l-75 -319h-192l-37 -160h192l-60 -255h160l59 255h294l-60 -255h160l60 255h191l38 160h-192l75 319h192l37 159h-192l60 255h-159zM544 734h293l-74 -319h-294z" />
    <glyph glyph-name="dollar" unicode="$" horiz-adv-x="1075" 
d="M539 1152q-101 -14 -152 -67q-39 -41 -48 -102q-18 -128 117 -162l26 -7l89 342zM519 274l32 4q112 13 170 72q44 45 53 112q20 141 -132 177l-26 6zM269 0l35 134l-18 6q-101 34 -154 108q-52 74 -48 176l161 13v0q-2 -86 71 -128l29 -17l96 365l-22 4q-130 27 -194 113
q-63 85 -46 209q21 144 132 233t281 99l21 1l32 122h178l-37 -142l18 -7q191 -67 188 -259l-162 -13q-2 65 -55 101l-30 20l-87 -335l21 -5q138 -27 206 -116q67 -90 49 -220q-22 -151 -139 -244q-116 -93 -297 -103l-21 -1l-29 -114h-179z" />
    <glyph glyph-name="percent" unicode="%" horiz-adv-x="1324" 
d="M924 360q-35 -26 -44 -91t19 -91q19 -18 59 -18t64 18q36 26 45 91t-19 91q-19 18 -59 18t-65 -18zM763 74q-60 74 -43 195q17 120 97 194q81 75 194 75q114 0 173 -75q60 -74 43 -194q-17 -121 -97 -195q-81 -74 -194 -74q-114 0 -173 74zM301 1260q-35 -26 -45 -91
q-9 -65 19 -91q20 -18 60 -18t64 18q35 26 45 91q9 65 -19 91q-20 18 -60 18t-64 -18zM139 974q-59 74 -42 195q17 120 97 194t194 74q113 0 173 -74q59 -74 42 -194q-17 -121 -97 -195t-194 -74q-113 0 -173 74zM199 -140l754 1747h177l-754 -1747h-177z" />
    <glyph glyph-name="ampersand" unicode="&#x26;" horiz-adv-x="1053" 
d="M510 1217q-37 -47 -48 -125q-13 -90 21 -138t111 -49h6q92 0 142 62q38 46 49 125q11 78 -14 125q-32 61 -125 61q-92 0 -142 -61zM755 0l-45 61l-19 -9q-101 -52 -224 -52q-192 0 -290 123q-97 123 -68 330q35 254 219 375l22 15l-12 20q-56 91 -36 229q22 157 124 252
q101 94 249 94t223 -94q75 -95 52 -252q-22 -158 -123 -252q-102 -94 -249 -94h-4l-27 -1q-116 -7 -188 -83q-72 -75 -91 -209q-20 -142 38 -218q57 -75 184 -75q51 0 93 12l39 11l-84 115l135 105l75 -103l18 46q15 38 23 82h160q-24 -139 -98 -239l-11 -16l127 -173h-212z
" />
    <glyph glyph-name="quotesingle" unicode="'" horiz-adv-x="322" 
d="M115 1442l-35 -248l133 36l29 212h-127z" />
    <glyph glyph-name="parenleft" unicode="(" horiz-adv-x="662" 
d="M208 -100q-128 812 228 1623l146 -47q-335 -764 -215 -1529z" />
    <glyph glyph-name="parenright" unicode=")" horiz-adv-x="662" 
d="M454 1523q128 -811 -228 -1623l-146 47q335 765 215 1529z" />
    <glyph glyph-name="asterisk" unicode="*" horiz-adv-x="476" 
d="M351 1579l-106 -93l-80 93l-59 -51l80 -93l-106 -94l44 -51l107 93l80 -93l58 51l-80 94l107 93z" />
    <glyph glyph-name="plus" unicode="+" horiz-adv-x="779" 
d="M352 1019l-31 -218h-218l-23 -160h219l-31 -218h160l30 218h219l22 160h-218l30 218h-159z" />
    <glyph glyph-name="comma" unicode="," horiz-adv-x="322" 
d="M115 88l-35 -248l133 36l29 212h-127z" />
    <glyph glyph-name="hyphen" unicode="-" horiz-adv-x="686" 
d="M103 801l-23 -160h504l22 160h-503z" />
    <glyph glyph-name="hyphen" unicode="&#xad;" horiz-adv-x="686" 
d="M103 801l-23 -160h504l22 160h-503z" />
    <glyph glyph-name="period" unicode="." horiz-adv-x="351" 
d="M103 27q-23 26 -18 63q5 38 35 64q31 27 68 27q38 0 60 -27q23 -26 18 -64q-5 -37 -36 -63q-30 -27 -67 -27q-38 0 -60 27z" />
    <glyph glyph-name="slash" unicode="/" horiz-adv-x="796" 
d="M537 1587l-457 -1747h179l457 1747h-179z" />
    <glyph glyph-name="zero" unicode="0" horiz-adv-x="1269" 
d="M395 1065q-43 -80 -71 -185q-21 -77 -33 -159q-11 -83 -12 -159q-1 -105 19 -185q56 -217 258 -217q201 0 318 217q42 80 71 185q21 76 32 159q12 82 13 159q1 105 -20 185q-55 217 -257 217t-318 -217zM213 161q-133 191 -82 560q52 368 239 560q158 161 366 161
q207 0 320 -161q133 -192 81 -560q-52 -369 -239 -560q-157 -161 -365 -161t-320 161z" />
    <glyph glyph-name="one" unicode="1" horiz-adv-x="619" 
d="M369 1438l-289 -245l94 -115l176 149l-172 -1227h159l202 1438h-170z" />
    <glyph glyph-name="two" unicode="2" horiz-adv-x="1219" 
d="M80 0l25 175l770 624l1 1q59 55 77 159v5q20 152 -44 233q-63 81 -201 81q-133 0 -218 -76t-112 -219l-157 13q40 205 176 323q137 119 334 119q202 0 305 -125t78 -340l-1 -11l-1 -6q-29 -170 -140 -270l-4 -3l-646 -523h674l-22 -160h-894z" />
    <glyph glyph-name="three" unicode="3" horiz-adv-x="1216" 
d="M197 102q-117 103 -106 280l161 13q-7 -114 70 -175q76 -60 228 -60q161 0 256 68t113 195t-58 195t-237 68h-120l22 160h120q134 0 213 56q78 56 93 160t-48 160q-64 56 -197 56q-253 0 -300 -186l-157 13q36 155 164 244q129 89 316 89q198 0 302 -103
q104 -102 80 -273q-23 -166 -149 -267l-25 -21l22 -18q150 -115 119 -333q-27 -193 -177 -308t-374 -115q-214 0 -331 102z" />
    <glyph glyph-name="four" unicode="4" horiz-adv-x="1097" 
d="M645 1438l-544 -908l-21 -146h493l-54 -384h159l54 384h263l22 160h-262l39 278h-160l-39 -278h-311l537 894h-176z" />
    <glyph glyph-name="five" unicode="5" horiz-adv-x="1223" 
d="M189 116q-109 116 -89 311h160q-12 -129 57 -198q68 -69 208 -69q146 0 235 75q89 76 109 217t-48 217q-68 75 -214 75h-440l185 694h791l-43 -160h-630l-100 -374h270h8q205 -6 307 -128q102 -121 74 -324q-29 -206 -173 -329q-143 -123 -354 -123q-204 0 -313 116z" />
    <glyph glyph-name="six" unicode="6" horiz-adv-x="1173" 
d="M374 691q-84 -79 -105 -226q-20 -148 41 -227q61 -78 197 -78q135 0 219 78q83 79 104 227q20 147 -41 226t-197 79q-135 0 -218 -79zM182 126q-102 127 -72 339q1 11 8 58q66 419 327 665q260 246 648 254l-23 -160q-423 -10 -640 -342l-35 -53l60 19q75 23 160 23
q200 0 302 -126q102 -127 72 -338q-29 -212 -167 -339q-137 -126 -338 -126q-200 0 -302 126z" />
    <glyph glyph-name="seven" unicode="7" horiz-adv-x="1241" 
d="M293 1438l-22 -160h691l-882 -1278h182l876 1269l23 169h-868z" />
    <glyph glyph-name="eight" unicode="8" horiz-adv-x="1228" 
d="M507 1222q-79 -56 -93 -160q-15 -104 48 -160t197 -56q133 0 212 56t93 160q15 104 -48 160q-64 56 -197 56t-212 -56zM380 618q-95 -68 -113 -195t58 -195t237 -68t256 68q96 68 113 195q18 127 -58 195t-237 68t-256 -68zM198 115q-118 115 -91 308q31 218 212 333
l28 18l-20 21q-97 101 -73 267q24 171 157 273q132 103 331 103q198 0 302 -103q104 -102 80 -273q-23 -166 -149 -267l-25 -21l23 -18q149 -115 118 -333q-27 -193 -177 -308t-374 -115t-342 115z" />
    <glyph glyph-name="nine" unicode="9" horiz-adv-x="1173" 
d="M447 1203q-83 -79 -104 -226q-21 -148 41 -226q61 -79 196 -79q136 0 219 79q84 78 104 226q21 147 -40 226t-197 79q-135 0 -219 -79zM102 160q424 10 641 341l35 54l-60 -19q-76 -24 -160 -24q-200 0 -302 127q-102 126 -73 338q30 212 168 338q137 127 338 127
q200 0 302 -127q102 -126 72 -338l-5 -32l-5 -26h2q-66 -419 -327 -665t-648 -254z" />
    <glyph glyph-name="colon" unicode=":" horiz-adv-x="415" 
d="M167 745q-23 27 -18 64q6 37 36 64t68 27q37 0 60 -27q22 -27 17 -64t-35 -64q-30 -26 -68 -26q-37 0 -60 26zM103 287q-23 26 -18 63q5 38 35 64q31 27 68 27q38 0 60 -27q23 -26 18 -64q-5 -37 -36 -63q-30 -27 -67 -27q-38 0 -60 27z" />
    <glyph glyph-name="semicolon" unicode=";" horiz-adv-x="406" 
d="M158 742q-23 27 -18 64q6 38 36 64q30 27 68 27q37 0 60 -27q22 -26 17 -64q-5 -37 -35 -64q-30 -26 -68 -26q-37 0 -60 26zM116 438l127 -1l-30 -212l-133 -35z" />
    <glyph glyph-name="semicolon" unicode="&#x37e;" horiz-adv-x="406" 
d="M158 742q-23 27 -18 64q6 38 36 64q30 27 68 27q37 0 60 -27q22 -26 17 -64q-5 -37 -35 -64q-30 -26 -68 -26q-37 0 -60 26zM116 438l127 -1l-30 -212l-133 -35z" />
    <glyph glyph-name="less" unicode="&#x3c;" horiz-adv-x="579" 
d="M451 552l-145 169l193 169l-97 113l-322 -282l242 -282z" />
    <glyph glyph-name="equal" unicode="=" horiz-adv-x="717" 
d="M133 928l-22 -160h503l23 160h-504zM80 514l22 160h504l-22 -160h-504z" />
    <glyph glyph-name="greater" unicode="&#x3e;" horiz-adv-x="579" 
d="M127 890l146 -169l-193 -169l97 -113l322 282l-243 282z" />
    <glyph glyph-name="question" unicode="?" horiz-adv-x="1078" 
d="M237 1020q18 124 101 190q84 67 222 67q139 0 204 -67q65 -66 48 -191q-18 -124 -101 -191q-84 -66 -223 -66h-80l-44 -313h160l22 158l21 3q167 27 274 136q107 108 130 273q27 190 -79 304q-105 113 -309 113q-201 0 -336 -107q-135 -108 -167 -293zM321 27
q-23 26 -18 63q6 38 36 64q30 27 68 27q37 0 60 -27q23 -26 17 -64q-5 -37 -35 -63q-30 -27 -68 -27q-37 0 -60 27z" />
    <glyph glyph-name="at" unicode="@" horiz-adv-x="1585" 
d="M904 532q-58 -43 -145 -43q-86 0 -131 43q-60 58 -42 187t94 186q57 44 144 44t132 -44q59 -57 41 -186t-93 -187zM1099 296v0l-15 -14q-13 -12 -25 -22q-16 -14 -28 -23l34 87q34 85 58 196q10 43 18 91q6 35 12 80v0l3 24l1 4q25 178 -60 284q-84 106 -251 106
q-166 0 -280 -106q-115 -106 -140 -284t60 -284q84 -106 251 -106q68 0 132 20l50 15l-23 -46q-43 -90 -103 -128q-42 -27 -100 -30h-2q-233 7 -338 151t-68 408q38 270 189 415q151 144 396 144t356 -144q111 -145 73 -415q-39 -273 -195 -418zM378 1245
q-206 -194 -253 -526q-45 -325 95 -516q140 -190 434 -202l7 -1l6 1l6 -1h18q308 0 514 193q207 193 253 526q47 332 -105 526q-152 193 -460 193q-309 0 -515 -193z" />
    <glyph glyph-name="A" unicode="A" 
d="M777 1437l-697 -1437h169l191 395l8 16h555l84 -411h169l-293 1437h-186zM839 1217l132 -646h-445z" />
    <glyph glyph-name="B" unicode="B" horiz-adv-x="1260" 
d="M930 911q-70 -71 -202 -77v-1l-14 1h-357l62 444h348q146 0 200 -73q42 -56 29 -149q-13 -89 -66 -145zM262 160l72 514h358q144 0 212 -67q68 -66 51 -190q-18 -125 -104 -191q-87 -66 -232 -66h-357zM597 0q209 0 350 113q141 114 167 304q33 233 -132 345
q147 105 173 294q25 174 -75 278q-99 104 -291 104h-507l-202 -1438h517z" />
    <glyph glyph-name="C" unicode="C" horiz-adv-x="1386" 
d="M956 88q150 88 244 249l-140 59q-141 -236 -412 -236q-210 0 -304 146q-95 146 -57 413q37 266 173 413q135 146 345 146q270 0 345 -233l156 60q-50 161 -173 247q-124 86 -306 86q-277 0 -465 -193q-188 -194 -235 -526q-47 -333 87 -526t412 -193q180 0 330 88z" />
    <glyph glyph-name="D" unicode="D" horiz-adv-x="1384" 
d="M419 1278h317q210 0 305 -146q94 -147 57 -413q-38 -267 -173 -413q-136 -146 -346 -146h-317zM1170 1245q-134 193 -411 193h-477l-202 -1438h477q277 0 465 193q189 193 235 526q47 332 -87 526z" />
    <glyph glyph-name="E" unicode="E" horiz-adv-x="1267" 
d="M282 1438l-202 -1438h905l23 160h-746l67 479h506l22 160h-505l67 479h746l22 160h-905z" />
    <glyph glyph-name="F" unicode="F" horiz-adv-x="1267" 
d="M282 1438l-202 -1438h160l89 639h506l22 160h-505l67 479h746l22 160h-905z" />
    <glyph glyph-name="G" unicode="G" horiz-adv-x="1383" 
d="M1301 799h-469l-23 -160h307q-2 -10 -6 -27q-51 -216 -178 -334q-126 -118 -304 -118q-198 0 -289 139q-91 140 -60 395l7 50q41 255 176 394q135 140 341 140q266 0 344 -226l156 63q-52 156 -175 240q-123 83 -303 83q-273 0 -460 -187q-187 -186 -239 -507l-7 -50
q-39 -322 91 -508t395 -186q268 0 451 190l-26 -190h159z" />
    <glyph glyph-name="H" unicode="H" horiz-adv-x="1340" 
d="M1101 1437l-90 -638h-659l90 638h-160l-202 -1437h160l89 639h659l-89 -639h159l202 1437h-159z" />
    <glyph glyph-name="I" unicode="I" horiz-adv-x="522" 
d="M282 1437l-202 -1437h160l202 1437v0h-160z" />
    <glyph glyph-name="J" unicode="J" horiz-adv-x="1161" 
d="M1081 1439h-160l-128 -914q-25 -174 -114 -270q-89 -95 -227 -95q-162 0 -218 126l-154 -69q42 -105 132 -161t218 -56q207 0 348 141q140 141 174 384z" />
    <glyph glyph-name="K" unicode="K" horiz-adv-x="1339" 
d="M282 1437l-202 -1437h160l72 517l162 157l387 -673h197l-458 795l659 641h-214l-699 -680l96 680h-160z" />
    <glyph glyph-name="L" unicode="L" horiz-adv-x="991" 
d="M282 1438l-202 -1438h808l23 160h-649l180 1278h-160z" />
    <glyph glyph-name="M" unicode="M" horiz-adv-x="1540" 
d="M1287 1436l-583 -1186l-14 67l-235 1119h-173l-202 -1436h160l139 992l202 -959h2h184l471 959l-139 -992h159l202 1436h-173z" />
    <glyph glyph-name="N" unicode="N" horiz-adv-x="1303" 
d="M282 1436l-202 -1436h160l159 1137l439 -1137h183l202 1435h-160l-159 -1138l-439 1139h-183z" />
    <glyph glyph-name="O" unicode="O" horiz-adv-x="1422" 
d="M1082 1132q91 -147 53 -413q-37 -267 -169 -413t-334 -146t-293 146q-90 146 -53 413q37 266 169 413q132 146 334 146q203 0 293 -146zM1064 193q184 193 231 526t-83 526t-400 193q-271 0 -455 -193t-231 -526q-46 -333 84 -526q129 -193 400 -193q270 0 454 193z" />
    <glyph glyph-name="P" unicode="P" horiz-adv-x="1237" 
d="M873 853q-83 -63 -220 -63h-302l68 488h302q138 0 202 -63q65 -63 48 -181q-16 -118 -98 -181zM328 630h302q203 0 339 110t162 294t-80 294q-105 110 -307 110l-462 -1l-202 -1437h160z" />
    <glyph glyph-name="Q" unicode="Q" horiz-adv-x="1422" 
d="M1082 1132q91 -146 53 -413q-31 -225 -131 -366q-100 -140 -254 -179l-13 124h-158l14 -137q-182 15 -262 160t-45 398q37 267 169 413t334 146q203 0 293 -146zM610 0l15 -138h158l-17 157q210 52 349 235q140 184 180 465q47 333 -83 526t-400 193q-271 0 -455 -193
t-231 -526q-46 -333 84 -526q129 -193 400 -193v0z" />
    <glyph glyph-name="R" unicode="R" horiz-adv-x="1237" 
d="M873 853q-83 -63 -220 -63h-302l68 488h302q138 0 202 -63q65 -63 48 -181q-16 -118 -98 -181zM328 630h278l213 -630h178l-219 648q145 35 238 136q94 102 115 250q26 184 -80 294q-105 110 -307 110l-462 -1l-202 -1437h160z" />
    <glyph glyph-name="S" unicode="S" horiz-adv-x="1251" 
d="M1004 707q-120 109 -351 109q-152 0 -227 61q-74 60 -59 170t107 171q92 60 244 60q137 0 212 -50q75 -51 76 -143l161 12q4 159 -110 250t-317 91q-218 0 -363 -107q-145 -106 -170 -284t90 -284q116 -106 333 -106q163 0 243 -65t63 -184q-16 -118 -115 -183
q-98 -65 -260 -65q-154 0 -234 58t-75 164l-161 -13q-11 -174 107 -271q118 -98 340 -98q232 0 382 110q150 109 176 298q27 189 -92 299z" />
    <glyph glyph-name="T" unicode="T" horiz-adv-x="1192" 
d="M102 1438l-22 -160h425l-179 -1278h159l180 1278h425l22 160h-1010z" />
    <glyph glyph-name="U" unicode="U" horiz-adv-x="1382" 
d="M980 159q165 159 204 432l118 847h-159l-119 -847q-29 -205 -143 -318q-113 -113 -291 -113q-177 0 -259 113t-53 318l119 847h-160l-119 -847q-38 -273 83 -432q120 -159 367 -159q246 0 412 159z" />
    <glyph glyph-name="V" unicode="V" horiz-adv-x="1356" 
d="M1106 1440l-602 -1221l-255 1221h-169l301 -1440h185l710 1440h-170z" />
    <glyph glyph-name="W" unicode="W" horiz-adv-x="1913" 
d="M1668 1440l-470 -1154l-143 1154h-197l-470 -1154l-143 1154h-165l179 -1440h178l448 1100l36 89l148 -1189h178l586 1440h-165z" />
    <glyph glyph-name="X" unicode="X" horiz-adv-x="1566" 
d="M1291 1440l-470 -559l-312 559h-195l390 -698l-624 -742h195l507 603l338 -603h195l-416 742l587 698h-195z" />
    <glyph glyph-name="Y" unicode="Y" horiz-adv-x="1281" 
d="M1009 1440l-446 -555l-291 555h-192l380 -724h-1l-101 -716h160l100 715l583 725h-192z" />
    <glyph glyph-name="Z" unicode="Z" horiz-adv-x="1374" 
d="M287 1438l-23 -160h815l-975 -1111l-24 -167h1064l23 160h-872l975 1110l24 168h-1007z" />
    <glyph glyph-name="bracketleft" unicode="[" horiz-adv-x="748" 
d="M322 1582l-242 -1722h347l22 160h-187l197 1402h187l22 160h-346z" />
    <glyph glyph-name="backslash" unicode="\" horiz-adv-x="796" 
d="M80 1587l457 -1747h179l-457 1747h-179z" />
    <glyph glyph-name="bracketright" unicode="]" horiz-adv-x="748" 
d="M427 -140l241 1722h-346l-23 -160h187l-197 -1402h-187l-22 -160h347z" />
    <glyph glyph-name="asciicircum" unicode="^" horiz-adv-x="724" 
d="M362 1435l-282 -282l113 -113l169 169l169 -169l113 113z" />
    <glyph glyph-name="underscore" unicode="_" horiz-adv-x="863" 
d="M110 1l-30 -160h673l30 160h-673z" />
    <glyph glyph-name="grave" unicode="`" horiz-adv-x="322" 
d="M80 1442l30 -212l132 -36l-35 248h-127z" />
    <glyph glyph-name="a" unicode="a" horiz-adv-x="1151" 
d="M374 721q86 83 226 83t203 -83t41 -238v-2q-22 -155 -108 -238q-87 -83 -226 -83q-140 0 -203 83t-41 239t108 239zM487 0q52 0 100 9l10 2q116 25 196 107l-16 -118h159l135 963h-159l-17 -117q-58 83 -168 107l-9 2q-45 9 -95 9q-51 0 -98 -8l-10 -3
q-166 -32 -274 -157t-135 -314q-26 -188 46 -313q73 -125 228 -158l10 -2q46 -9 97 -9z" />
    <glyph glyph-name="b" unicode="b" horiz-adv-x="1152" 
d="M845 721q63 -83 41 -239t-108 -239q-87 -83 -227 -83q-139 0 -202 83t-42 238v2q22 155 109 238q86 83 226 83t203 -83zM256 118q58 -82 166 -107l10 -2q46 -9 97 -9t100 9q6 1 11 2q164 33 271 158q108 125 135 313q26 189 -47 314q-74 125 -230 157l-9 2q-45 9 -96 9
q-50 0 -97 -8l-10 -2q-117 -25 -199 -108l84 592h-160l-202 -1438h160z" />
    <glyph glyph-name="c" unicode="c" horiz-adv-x="1067" 
d="M778 286q-89 -126 -263 -126q-140 0 -203 83t-41 239t108 239t226 83q173 0 227 -124l155 67q-41 104 -135 160q-93 57 -224 57q-205 0 -345 -131q-141 -132 -172 -351q-31 -220 73 -351t308 -131q132 0 242 57t180 162z" />
    <glyph glyph-name="d" unicode="d" horiz-adv-x="1218" 
d="M374 721q86 83 226 83t203 -83t41 -238v-2q-22 -155 -108 -238q-87 -83 -226 -83q-140 0 -203 83t-41 239t108 239zM487 0q52 0 100 9l10 2q116 25 196 107l-16 -118h159l202 1438h-160l-83 -592q-58 83 -168 107l-9 2q-45 9 -95 9q-51 0 -98 -8l-10 -3
q-166 -32 -274 -157t-135 -314q-26 -188 46 -313q73 -125 228 -158l10 -2q46 -9 97 -9z" />
    <glyph glyph-name="e" unicode="e" horiz-adv-x="1094" 
d="M288 565q4 17 9 30q33 88 96 140q83 69 210 69q228 0 248 -209l1 -7q0 -11 -1 -23h-563zM1008 490v1q6 49 6 95q-3 177 -106 278q-103 100 -282 100q-205 0 -346 -131q-140 -132 -171 -351l-1 -8q-28 -217 79 -345q106 -129 313 -129q139 0 256 56q116 56 187 156
l-134 70q-96 -122 -286 -122q-138 0 -204 74q-50 57 -55 152q-1 11 0 30h733z" />
    <glyph glyph-name="f" unicode="f" horiz-adv-x="814" 
d="M268 0l113 804h129l22 160h-128q22 145 101 225q80 81 207 88l22 160q-193 -8 -326 -136q-132 -128 -164 -337h-142l-22 -160h141l-113 -804h160z" />
    <glyph glyph-name="g" unicode="g" horiz-adv-x="1237" 
d="M887 723q63 -81 44 -233l-2 -15q-23 -152 -109 -234q-86 -81 -225 -81t-202 83q-63 84 -41 239q21 156 108 239q86 84 226 84q138 0 201 -82zM476 9q46 -9 97 -9t100 9l10 2q115 26 196 107l-25 -173q-22 -156 -116 -239t-249 -83q-83 0 -143 24q-79 33 -112 104
l-154 -71q45 -105 144 -161q100 -56 242 -56q219 0 368 131t180 351l143 1018h-160l-16 -116q-58 82 -168 107l-9 2q-45 8 -96 8q-50 0 -97 -8l-10 -2q-166 -32 -274 -157q-109 -126 -135 -315q-27 -188 46 -313t228 -158z" />
    <glyph glyph-name="h" unicode="h" horiz-adv-x="1067" 
d="M311 506v0q25 144 100 221t191 77q120 0 173 -83q52 -84 30 -239l-67 -482h159l68 482q22 156 -20 271q-43 115 -142 169q-76 41 -179 41t-190 -41q-38 -19 -72 -48l80 563h-160l-202 -1437h160z" />
    <glyph glyph-name="i" unicode="i" horiz-adv-x="509" 
d="M215 964l-135 -964h160l135 964h-160zM388 1168q30 26 35 64q6 37 -17 64q-23 26 -60 26q-38 0 -68 -26q-30 -27 -36 -64q-5 -38 18 -64q23 -27 60 -27q38 0 68 27z" />
    <glyph glyph-name="j" unicode="j" horiz-adv-x="858" 
d="M725 963h-160l-139 -988q-21 -155 -105 -242q-83 -86 -219 -93l-22 -160q201 8 338 142t168 353zM738 1168q30 27 35 64t-17 64q-23 26 -61 26q-37 0 -67 -26q-30 -27 -36 -64q-5 -37 18 -64q23 -26 60 -26t68 26z" />
    <glyph glyph-name="k" unicode="k" horiz-adv-x="1028" 
d="M280 286q23 22 106 105q28 29 56 56q24 25 26 27l238 -474h190l-294 586l-8 15q2 2 37 38q40 41 89 90q137 141 228 233h-209q-85 -87 -257 -261q-59 -60 -114 -116q-47 -48 -54 -55l128 907h-160l-202 -1437h160z" />
    <glyph glyph-name="l" unicode="l" horiz-adv-x="522" 
d="M282 1437l-202 -1437h160l202 1437v0h-160z" />
    <glyph glyph-name="m" unicode="m" horiz-adv-x="1724" 
d="M311 506v0q25 144 100 221t191 77q120 0 173 -83q52 -84 30 -239l-67 -482h159l68 482l3 24h1q25 145 100 221q75 77 190 77q120 0 173 -83q53 -84 31 -239l-68 -482h160l67 482q22 156 -20 271t-141 169q-77 41 -180 41q-102 0 -190 -41q-94 -47 -154 -150
q-44 101 -134 150q-76 41 -179 41t-190 -41q-38 -19 -72 -48l13 89h-160l-135 -963h160z" />
    <glyph glyph-name="n" unicode="n" horiz-adv-x="1067" 
d="M311 506v0q25 144 100 221t191 77q120 0 173 -83q52 -84 30 -239l-67 -482h159l68 482q22 156 -21 271q-42 115 -141 169q-76 41 -179 41t-190 -41q-38 -19 -72 -48l13 89h-160l-135 -963h160z" />
    <glyph glyph-name="o" unicode="o" horiz-adv-x="1120" 
d="M379 721q86 83 226 83t203 -83t41 -239t-108 -239t-226 -83t-203 83t-41 239t108 239zM936 833q-104 131 -308 131q-205 0 -345 -131q-141 -132 -172 -351q-31 -220 73 -351t308 -131q205 0 346 131q140 131 171 351q31 219 -73 351z" />
    <glyph glyph-name="p" unicode="p" horiz-adv-x="1219" 
d="M415 243q-63 83 -41 238v1q22 156 108 239q87 83 227 83q139 0 202 -83t41 -239q-21 -156 -108 -239q-86 -83 -226 -83t-203 83zM703 10q166 33 274 158q109 125 135 314q27 188 -46 313t-227 158q-4 1 -11 2q-46 9 -97 9t-100 -9l-10 -2q-116 -26 -196 -107l17 117h-160
l-202 -1437h160l83 592q58 -83 168 -108l10 -2q44 -8 95 -8q50 0 97 8z" />
    <glyph glyph-name="q" unicode="q" horiz-adv-x="1153" 
d="M375 721q86 83 226 83t203 -83t41 -239v-1q-22 -155 -108 -238q-87 -83 -226 -83q-140 0 -203 83t-41 239t108 239zM393 8q45 -8 95 -8q51 0 97 8l10 2q118 25 199 108l-83 -592h160l202 1437h-160l-17 -117q-57 81 -165 107l-10 2q-46 9 -97 9q-52 0 -100 -9
q-7 -1 -11 -2q-164 -33 -272 -158t-134 -313q-27 -189 47 -314q73 -125 230 -158z" />
    <glyph glyph-name="r" unicode="r" horiz-adv-x="719" 
d="M311 506v0q26 137 104 213t201 83l23 160q-38 -2 -75 -8l-10 -2q-115 -26 -196 -107l17 117h-160l-135 -962h160z" />
    <glyph glyph-name="s" unicode="s" horiz-adv-x="945" 
d="M767 479q-86 94 -274 94q-112 0 -155 41q-17 16 -22 38q-4 17 -1 36q2 20 11 37q12 21 33 37q54 42 166 42q164 0 178 -85l162 12q-2 99 -73 160q-83 73 -244 73q-181 0 -288 -90q-90 -75 -105 -186q-16 -110 53 -185q82 -90 262 -90q210 0 193 -127q-18 -126 -228 -126
q-184 0 -193 99l-162 -13q1 -104 75 -169q87 -77 257 -77q188 0 301 94q93 78 109 192q16 115 -55 193z" />
    <glyph glyph-name="t" unicode="t" horiz-adv-x="635" 
d="M166 370l-3 -24l-8 -53q-18 -132 46 -212q65 -81 188 -81h30l23 160h-30q-116 0 -97 133l11 77l3 25l55 389l149 17l22 159l-149 -17l48 342h-159l-48 -342l-145 17l-22 -159l144 -17z" />
    <glyph glyph-name="u" unicode="u" horiz-adv-x="1066" 
d="M633 41q37 19 71 49l-12 -89h159l135 962h-159l-71 -506h-1q-25 -144 -100 -221q-75 -76 -190 -76q-121 0 -173 83q-53 83 -31 239l68 481h-160l-68 -481q-21 -156 21 -272q42 -115 141 -169q77 -41 179 -41q103 0 191 41z" />
    <glyph glyph-name="v" unicode="v" horiz-adv-x="1042" 
d="M792 962l-378 -752l-164 752h-170l210 -962h188l484 962h-170z" />
    <glyph glyph-name="w" unicode="w" horiz-adv-x="1540" 
d="M1294 962l-319 -736l-109 736h-212l-303 -701l-105 701h-166l143 -962h181l291 673l35 81l112 -754h202l416 962h-166z" />
    <glyph glyph-name="x" unicode="x" horiz-adv-x="1164" 
d="M889 962l-274 -326l-16 29l-167 297h-195l253 -451l8 -14l-418 -497h195l301 358l16 -29l184 -329h195l-270 483l-8 14l391 465h-195z" />
    <glyph glyph-name="y" unicode="y" horiz-adv-x="1162" 
d="M1082 966h-160l-72 -509q-25 -144 -100 -221q-74 -77 -190 -77q-120 0 -173 84q-53 83 -31 239l68 484h-159l-68 -484q-22 -157 20 -272t141 -169q77 -41 180 -41q102 0 190 41q37 19 71 48l-23 -161q-19 -137 -102 -209q-82 -73 -218 -73q-168 0 -222 109l-154 -71
q85 -198 353 -198q201 0 338 120q137 121 165 322z" />
    <glyph glyph-name="z" unicode="z" horiz-adv-x="1096" 
d="M228 964l-22 -160h573l-676 -644l-23 -160h806l22 160h-590l676 643l22 161h-788z" />
    <glyph glyph-name="braceleft" unicode="{" horiz-adv-x="737" 
d="M657 1476q-335 -764 -214 -1529l-160 -47q-46 292 -26 596l1 9l-178 207l236 206l2 9q65 304 193 596z" />
    <glyph glyph-name="bar" unicode="|" horiz-adv-x="363" 
d="M80 1601v-1797h203v1797h-203z" />
    <glyph glyph-name="braceright" unicode="}" horiz-adv-x="737" 
d="M80 -53q335 765 215 1529l159 47q46 -292 26 -596v-9l177 -206l-235 -207l-2 -9q-66 -304 -194 -596z" />
    <glyph glyph-name="asciitilde" unicode="~" horiz-adv-x="687" 
d="M103 793q55 -16 126 -10q27 2 63 8l63 12q164 31 252 -2l-23 -153q-55 16 -126 11q-27 -3 -63 -9l-63 -11q-164 -31 -252 2z" />
    <glyph glyph-name="exclamdown" unicode="&#xa1;" horiz-adv-x="525" 
d="M240 0l138 988h-159l-139 -988h160zM422 1411q23 -27 17 -64q-5 -37 -35 -64q-30 -26 -68 -26q-37 0 -60 26q-23 27 -17 64q5 37 35 64q30 26 68 26q37 0 60 -26z" />
    <glyph glyph-name="cent" unicode="&#xa2;" horiz-adv-x="1000" 
d="M774 524q-71 -125 -245 -125q-140 0 -215 83q-74 83 -74 239t74 239q75 83 215 83q173 0 244 -124l145 67q-55 104 -156 160q-102 57 -233 57q-205 0 -327 -131q-122 -132 -122 -351q0 -220 122 -351t327 -131q132 0 234 57t157 162zM498 1442l-175 -1442h179l175 1442
h-179z" />
    <glyph glyph-name="sterling" unicode="&#xa3;" horiz-adv-x="1341" 
d="M80 0l298 1114q36 150 166 237q131 87 320 87q186 0 292 -84q105 -84 102 -230l-161 -13q-4 167 -256 167q-126 0 -206 -47t-100 -133l-1 -3l-47 -177h306l-43 -159h-306l-34 -130h305l-44 -159h-304l-83 -310h788l-44 -160h-948z" />
    <glyph glyph-name="currency" unicode="&#xa4;" horiz-adv-x="929" 
d="M308 560q41 -40 99 -57q29 -8 58 -8t58 8q58 17 99 57q40 41 57 99q9 29 9 58t-9 58q-17 58 -57 99q-41 40 -100 57q-29 8 -58 8t-58 -9q-58 -17 -98 -56q-39 -40 -56 -98q-10 -30 -10 -60q0 -28 9 -56q16 -59 57 -100zM198 903l-118 118l80 81l118 -118q44 30 99 46
q44 14 89 14q41 0 83 -12q57 -17 102 -48l118 118l80 -81l-117 -117q31 -46 48 -102q12 -42 12 -85q0 -42 -12 -85q-17 -56 -48 -102l117 -117l-80 -81l-118 118q-45 -32 -101 -48q-42 -12 -85 -12q-42 0 -85 12q-57 16 -102 48l-118 -118l-80 81l118 117q-32 46 -48 103
q-12 42 -12 84q0 44 13 87q16 55 47 99z" />
    <glyph glyph-name="yen" unicode="&#xa5;" horiz-adv-x="1281" 
d="M1009 1440l-446 -555l-291 555h-192l379 -722l-17 -120h-160l-43 -160h181l-62 -438h160l62 438h160l43 160h-181l17 117l582 725h-192z" />
    <glyph glyph-name="brokenbar" unicode="&#xa6;" horiz-adv-x="320" 
d="M80 371h160v-789h-160v789zM80 1578h160v-789h-160v789z" />
    <glyph glyph-name="section" unicode="&#xa7;" horiz-adv-x="1214" 
d="M519 759q5 -39 33 -65q37 -35 111 -46l34 -5l-2 34q-2 41 -30 68q-37 35 -115 44l-35 5zM132 81q-28 31 -41 72q-10 30 -11 64l103 8q8 -123 215 -123q112 0 179 40t77 113q10 72 -46 112t-167 40q-165 0 -239 78q-63 65 -49 166t95 166q97 78 261 78q141 0 218 -59
q76 -59 71 -162l-1 -28l28 6q148 28 164 144q11 73 -45 113t-168 40q-164 0 -239 78q-62 65 -48 166q14 100 95 166q96 77 260 77q136 0 212 -53q76 -54 78 -150l-104 -8q-10 109 -200 109q-104 0 -167 -37t-72 -104q-10 -68 43 -105q52 -37 156 -37q172 0 250 -81
q66 -69 51 -174q-14 -105 -99 -173q-101 -81 -273 -81q-178 0 -254 84q-28 31 -41 72q-9 30 -9 62v28l-28 -8q-66 -17 -100 -57q-26 -31 -32 -72q-9 -68 43 -105t157 -37q172 0 250 -81q66 -68 51 -173t-100 -174q-101 -81 -273 -81q-174 0 -251 81z" />
    <glyph glyph-name="dieresis" unicode="&#xa8;" horiz-adv-x="670" 
d="M100 1634q-20 23 -16 56q5 32 31 55t59 23t52 -23q20 -23 16 -55q-5 -33 -31 -56q-27 -23 -59 -23q-33 0 -52 23zM443 1634q-19 23 -15 56q5 32 31 55t59 23t52 -23q20 -23 16 -55q-5 -33 -31 -56q-27 -23 -59 -23q-33 0 -53 23z" />
    <glyph glyph-name="copyright" unicode="&#xa9;" horiz-adv-x="1587" 
d="M476 1134q-151 -145 -189 -415q-38 -271 72 -415q111 -144 356 -144t396 144t189 415q38 270 -72 415q-111 144 -356 144t-396 -144zM232 193q-152 193 -105 526q47 332 253 526q206 193 514 193q309 0 461 -193q152 -194 105 -526q-47 -333 -253 -526t-514 -193
q-309 0 -461 193zM530 462q-76 96 -54 257q23 161 126 257q104 96 255 96q95 0 163 -40q68 -41 99 -115l-155 -67q-34 63 -130 63t-147 -64q-40 -49 -51 -130q-12 -82 14 -130q34 -64 130 -64q97 0 148 64l137 -66q-109 -158 -307 -158q-151 0 -228 97z" />
    <glyph glyph-name="ordfeminine" unicode="&#xaa;" horiz-adv-x="648" 
 />
    <glyph glyph-name="guillemotleft" unicode="&#xab;" horiz-adv-x="909" 
d="M451 552l-145 169l193 169l-97 113l-322 -282l242 -282zM410 721l322 282l97 -113l-193 -169l145 -169l-129 -113z" />
    <glyph glyph-name="logicalnot" unicode="&#xac;" horiz-adv-x="1014" 
 />
    <glyph glyph-name="registered" unicode="&#xae;" horiz-adv-x="1587" 
d="M709 776h109q53 2 76 30q8 10 12 23q2 5 3 10v5l1 4q4 32 -8 48q-19 24 -73 24h-100zM845 380l-45 236h-113l-33 -236h-160l98 700h260q112 0 172 -64t46 -168q-16 -109 -98 -173l-13 -10l54 -285h-168zM476 1134q-151 -145 -189 -415q-38 -271 72 -415
q111 -144 356 -144t396 144t189 415q38 270 -72 415q-111 144 -356 144t-396 -144zM232 193q-152 193 -105 526q47 332 253 526q206 193 514 193q309 0 461 -193q152 -194 105 -526q-47 -333 -253 -526t-514 -193q-309 0 -461 193z" />
    <glyph glyph-name="macron" unicode="&#xaf;" horiz-adv-x="863" 
d="M110 1601l-30 -160h673l30 160h-673z" />
    <glyph glyph-name="degree" unicode="&#xb0;" horiz-adv-x="716" 
d="M359 1372q-86 0 -147.5 -61t-61.5 -148t61 -147t148 -60t147 60t60 147t-60.5 148t-146.5 61zM359 1442q115 0 196 -81.5t81 -196.5q0 -114 -82 -196t-197 -82q-117 0 -197 81t-80 197t81.5 197t197.5 81z" />
    <glyph glyph-name="plusminus" unicode="&#xb1;" horiz-adv-x="810" 
d="M102 493l-22 -160h504l22 160h-504zM298 606l31 219h-218l22 159h219l30 219h160l-31 -219h219l-23 -159h-218l-31 -219h-160z" />
    <glyph glyph-name="uni00B2" unicode="&#xb2;" horiz-adv-x="1014" 
 />
    <glyph glyph-name="uni00B3" unicode="&#xb3;" horiz-adv-x="1014" 
 />
    <glyph glyph-name="acute" unicode="&#xb4;" horiz-adv-x="1024" 
 />
    <glyph glyph-name="mu" unicode="&#xb5;" horiz-adv-x="1179" 
d="M80 -475l202 1438h160l-68 -482q-22 -156 31 -239q52 -83 173 -83q118 0 194 81q76 82 99 233l69 490h159l-135 -963h-160l12 83l-42 -26q-15 -9 -29 -16q-87 -41 -190 -41t-179 41q-12 7 -24 15l-35 23l-77 -554h-160z" />
    <glyph glyph-name="paragraph" unicode="&#xb6;" horiz-adv-x="996" 
d="M916 1435v-70h-127v-1365h-82v1365h-166v-1365h-84v738q-174 8 -275.5 102.5t-101.5 245.5q0 157 107.5 253t285.5 96h443z" />
    <glyph glyph-name="periodcentered" unicode="&#xb7;" horiz-adv-x="351" 
d="M103 657q-23 26 -18 64q5 37 36 64q30 26 67 26q38 0 61 -26q22 -27 17 -64q-5 -38 -35 -64q-31 -27 -68 -27t-60 27z" />
    <glyph glyph-name="periodcentered" unicode="&#x2219;" horiz-adv-x="351" 
d="M103 657q-23 26 -18 64q5 37 36 64q30 26 67 26q38 0 61 -26q22 -27 17 -64q-5 -38 -35 -64q-31 -27 -68 -27t-60 27z" />
    <glyph glyph-name="cedilla" unicode="&#xb8;" horiz-adv-x="412" 
d="M125 3l5 -132l39 -8q32 -6 45 -22q10 -14 5 -39q-4 -25 -20 -34q-17 -11 -49 -5q-14 3 -26 9l-44 -91q23 -12 51 -17q21 -4 40 -4q46 0 80 21q54 32 68 102q13 69 -25 119q-24 32 -66 49l-1 50z" />
    <glyph glyph-name="uni00B9" unicode="&#xb9;" horiz-adv-x="1014" 
 />
    <glyph glyph-name="ordmasculine" unicode="&#xba;" horiz-adv-x="718" 
 />
    <glyph glyph-name="guillemotright" unicode="&#xbb;" horiz-adv-x="909" 
d="M458 890l145 -169l-193 -169l97 -113l322 282l-243 282zM499 721l-322 -282l-97 113l193 169l-145 169l129 113z" />
    <glyph glyph-name="onequarter" unicode="&#xbc;" horiz-adv-x="1708" 
 />
    <glyph glyph-name="onehalf" unicode="&#xbd;" horiz-adv-x="1964" 
 />
    <glyph glyph-name="threequarters" unicode="&#xbe;" horiz-adv-x="1708" 
 />
    <glyph glyph-name="questiondown" unicode="&#xbf;" horiz-adv-x="1078" 
d="M841 417q-18 -125 -101 -191q-84 -66 -223 -66t-204 66q-64 67 -47 191q18 124 101 191q84 66 223 66h79l44 313h-159l-23 -158l-21 -3q-166 -27 -273 -135q-107 -109 -131 -274q-26 -190 79 -304q106 -113 310 -113q201 0 336 108q135 107 167 293zM757 1410
q23 -27 17 -64q-5 -38 -35 -64q-30 -27 -68 -27q-37 0 -60 27q-23 26 -18 64q6 37 36 64q30 26 68 26q37 0 60 -26z" />
    <glyph glyph-name="Agrave" unicode="&#xc0;" 
d="M805 1788l18 -154l112 -25l-54 179h-76zM777 1437l-697 -1437h169l191 395l8 16h555l84 -411h169l-293 1437h-186zM839 1217l132 -646h-445z" />
    <glyph glyph-name="Aacute" unicode="&#xc1;" 
d="M958 1788l-104 -179l118 25l62 154h-76zM777 1437l-697 -1437h169l191 395l8 16h555l84 -411h169l-293 1437h-186zM839 1217l132 -646h-445z" />
    <glyph glyph-name="Acircumflex" unicode="&#xc2;" 
d="M930 1826l-100 -61l-113 -100l62 -72l135 119l102 -119l82 72l-86 100zM777 1437l-697 -1437h169l191 395l8 16h555l84 -411h169l-293 1437h-186zM839 1217l132 -646h-445z" />
    <glyph glyph-name="Atilde" unicode="&#xc3;" 
d="M724 1619l16 114q25 -13 56 -13q29 0 65 12l32 12l32 14q76 32 108 32q31 0 55 -21l-16 -115q-25 13 -56 13q-29 0 -65 -12l-32 -12l-32 -13q-76 -33 -108 -33q-31 0 -55 22zM839 1217l132 -646h-445zM440 395l8 16h555l84 -411h169l-293 1437h-186l-697 -1437h169z" />
    <glyph glyph-name="Adieresis" unicode="&#xc4;" 
d="M676 1635q-20 23 -15 55q5 33 31 56t59 23q32 0 52 -23t15 -56q-4 -32 -30 -55q-27 -24 -59 -24q-33 0 -53 24zM1020 1635q-20 23 -15 55q5 33 31 56t59 23q32 0 52 -23t15 -56q-4 -32 -31 -55q-26 -24 -58 -24q-33 0 -53 24zM839 1217l132 -646h-445zM440 395l8 16h555
l84 -411h169l-293 1437h-186l-697 -1437h169z" />
    <glyph glyph-name="Aring" unicode="&#xc5;" 
d="M777 1437l-697 -1437h169l191 395l8 16h555l84 -411h169l-293 1437h-186zM839 1217l132 -646h-445zM861 1652q-14 17 -10 39q3 23 21 39q19 17 41 17q23 0 37 -17q14 -16 11 -39q-3 -22 -22 -39q-18 -16 -41 -16t-37 16zM836 1773q-39 -34 -45 -82q-7 -47 22 -81t76 -34
q48 0 87 34q38 34 45 81q6 48 -23 82q-28 34 -76 34t-86 -34z" />
    <glyph glyph-name="AE" unicode="&#xc6;" horiz-adv-x="1880" 
d="M895 1438v0h-118l-697 -1438h169l199 411h302l-57 -411h905l22 160h-745l67 479h505l23 160h-505l67 479h746l22 160h-905zM526 571l346 712l-99 -712h-247z" />
    <glyph glyph-name="Ccedilla" unicode="&#xc7;" horiz-adv-x="1383" 
d="M1058 395q-141 -237 -413 -237q-210 0 -304 147q-95 146 -57 413q37 266 173 412q136 147 345 147q270 0 345 -234l156 61q-50 161 -173 247q-123 85 -305 85q-278 0 -466 -193t-235 -525q-44 -313 71 -503q114 -189 361 -213l3 -1l-12 -116l40 -8q32 -7 42 -23
q9 -15 0 -41q-8 -25 -25 -35q-20 -11 -52 -4q-14 3 -25 8l-59 -94q22 -11 50 -17q21 -4 41 -4q47 0 86 21q60 34 84 106q24 71 -8 123q-20 33 -61 50l4 33q167 10 306 98q139 87 227 237z" />
    <glyph glyph-name="Egrave" unicode="&#xc8;" horiz-adv-x="1267" 
d="M282 1438l-202 -1438h905l23 160h-746l67 479h506l22 160h-505l67 479h746l22 160h-905zM701 1788l19 -154l111 -25l-53 179h-77z" />
    <glyph glyph-name="Eacute" unicode="&#xc9;" horiz-adv-x="1267" 
d="M282 1438l-202 -1438h905l23 160h-746l67 479h506l22 160h-505l67 479h746l22 160h-905zM790 1788l-104 -179l118 25l62 154h-76z" />
    <glyph glyph-name="Ecircumflex" unicode="&#xca;" horiz-adv-x="1267" 
d="M282 1438l-202 -1438h905l23 160h-746l67 479h506l22 160h-505l67 479h746l22 160h-905zM795 1826l-100 -62l-114 -99l62 -72l136 119l102 -119l82 72l-86 99z" />
    <glyph glyph-name="Edieresis" unicode="&#xcb;" horiz-adv-x="1267" 
d="M282 1438l-202 -1438h905l23 160h-746l67 479h506l22 160h-505l67 479h746l22 160h-905zM535 1634q-20 23 -16 55q5 33 31 56t59 23t52 -23q20 -23 16 -56q-5 -32 -31 -55q-27 -23 -59 -23q-33 0 -52 23zM878 1634q-19 23 -15 55q5 33 31 56t59 23q32 0 52 -23t16 -56
q-5 -32 -31 -55q-27 -23 -59 -23q-33 0 -53 23z" />
    <glyph glyph-name="Igrave" unicode="&#xcc;" horiz-adv-x="528" 
d="M318 1788l19 -154l111 -26l-53 180h-77zM282 1437l-202 -1437h160l202 1437h-160z" />
    <glyph glyph-name="Iacute" unicode="&#xcd;" horiz-adv-x="584" 
d="M427 1788l-104 -180l119 26l62 154h-77zM282 1437l-202 -1437h160l202 1437h-160z" />
    <glyph glyph-name="Icircumflex" unicode="&#xce;" horiz-adv-x="670" 
d="M422 1825l-100 -61l-114 -99l62 -72l136 118l102 -118l82 72l-86 99zM282 1437l-202 -1437h160l202 1437h-160z" />
    <glyph glyph-name="Idieresis" unicode="&#xcf;" horiz-adv-x="732" 
d="M162 1633q-20 24 -16 56q5 33 31 56q27 23 59 23q33 0 53 -23q19 -23 15 -56q-5 -32 -31 -56q-26 -23 -59 -23t-52 23zM506 1633q-20 24 -16 56q5 33 31 56q27 23 59 23q33 0 52 -23q20 -23 16 -56q-5 -32 -31 -56q-26 -23 -59 -23t-52 23zM80 0l202 1437h160l-202 -1437
h-160z" />
    <glyph glyph-name="Eth" unicode="&#xd0;" horiz-adv-x="1418" 
d="M296 160h317q210 0 345 146q136 146 173 413q38 266 -57 413q-94 146 -304 146h-317l-68 -479h233l-23 -160h-232zM114 0l89 639h-123l22 160h124l90 639h477q277 0 411 -193q134 -194 87 -526q-47 -333 -235 -526t-465 -193h-477z" />
    <glyph glyph-name="Ntilde" unicode="&#xd1;" horiz-adv-x="1303" 
d="M282 1437l-202 -1436h160l159 1138l439 -1139h183l202 1436h-160l-159 -1137l-439 1138h-183zM606 1618l16 115q26 -13 57 -13q28 0 65 12l32 12l32 13q75 33 107 33t56 -22l-16 -114q-26 13 -57 13q-29 0 -65 -12l-32 -12l-32 -14q-75 -32 -108 -32q-31 0 -55 21z" />
    <glyph glyph-name="Ograve" unicode="&#xd2;" horiz-adv-x="1422" 
d="M455 1132q-132 -147 -169 -413q-37 -267 53 -413q91 -146 293 -146t334 146t169 413q38 266 -53 413q-90 146 -293 146q-202 0 -334 -146zM210 193q-130 193 -84 526q47 333 231 526t455 193q270 0 400 -193t83 -526t-231 -526t-454 -193q-271 0 -400 193zM797 1634
l-19 154h77l53 -179z" />
    <glyph glyph-name="Oacute" unicode="&#xd3;" horiz-adv-x="1422" 
d="M455 1132q-132 -147 -169 -413q-37 -267 53 -413q91 -146 293 -146t334 146t169 413q38 266 -53 413q-90 146 -293 146q-202 0 -334 -146zM210 193q-130 193 -84 526q47 333 231 526t455 193q270 0 400 -193t83 -526t-231 -526t-454 -193q-271 0 -400 193zM867 1788h76
l-62 -154l-118 -25z" />
    <glyph glyph-name="Ocircumflex" unicode="&#xd4;" horiz-adv-x="1422" 
d="M455 1132q-132 -147 -169 -413q-37 -267 53 -413q91 -146 293 -146t334 146t169 413q38 266 -53 413q-90 146 -293 146q-202 0 -334 -146zM210 193q-130 193 -84 526q47 333 231 526t455 193q270 0 400 -193t83 -526t-231 -526t-454 -193q-271 0 -400 193zM658 1665
l114 100l100 61l82 -61l86 -100l-82 -72l-102 119l-136 -119z" />
    <glyph glyph-name="Otilde" unicode="&#xd5;" horiz-adv-x="1422" 
d="M455 1132q-132 -147 -169 -413q-37 -267 53 -413q91 -146 293 -146t334 146t169 413q38 266 -53 413q-90 146 -293 146q-202 0 -334 -146zM210 193q-130 193 -84 526q47 333 231 526t455 193q270 0 400 -193t83 -526t-231 -526t-454 -193q-271 0 -400 193zM665 1619
l16 114q26 -13 57 -13q29 0 65 12l32 12l32 14q75 32 107 32t56 -21l-16 -115q-26 13 -57 13q-29 0 -65 -12l-32 -12l-32 -13q-75 -33 -107 -33t-56 22z" />
    <glyph glyph-name="Odieresis" unicode="&#xd6;" horiz-adv-x="1422" 
d="M455 1132q-132 -147 -169 -413q-37 -267 53 -413q91 -146 293 -146t334 146t169 413q38 266 -53 413q-90 146 -293 146q-202 0 -334 -146zM210 193q-130 193 -84 526q47 333 231 526t455 193q270 0 400 -193t83 -526t-231 -526t-454 -193q-271 0 -400 193zM612 1634
q-20 23 -16 56q5 32 31 55t59 23t52 -23q20 -23 16 -55q-5 -33 -31 -56q-27 -23 -59 -23q-33 0 -52 23zM955 1634q-19 23 -15 56q5 32 31 55t59 23t52 -23q20 -23 16 -55q-5 -33 -31 -56q-27 -23 -59 -23q-33 0 -53 23z" />
    <glyph glyph-name="multiply" unicode="&#xd7;" horiz-adv-x="852" 
d="M426 618l-247 -247l-99 99l247 247l-247 248l99 98l247 -247l248 247l98 -99l-247 -247l247 -247l-99 -99z" />
    <glyph glyph-name="Oslash" unicode="&#xd8;" horiz-adv-x="1405" 
d="M931 1252q124 -49 175 -185q50 -138 21 -348q-36 -259 -162 -405q-126 -145 -319 -153zM440 1125q126 145 319 153l-285 -1091q-124 49 -175 185q-51 138 -21 347q36 260 162 406zM1242 1176q-83 181 -269 238l47 179h-178l-41 -155q-269 0 -453 -194
q-183 -193 -230 -525q-38 -273 45 -456q82 -181 268 -238l-46 -179h178l41 155q269 0 453 194q183 193 230 524q38 274 -45 457z" />
    <glyph glyph-name="Ugrave" unicode="&#xd9;" horiz-adv-x="1382" 
d="M201 159q-121 159 -83 432l119 847h160l-119 -847q-29 -205 53 -318t259 -113q178 0 291 113q114 113 143 318l119 847h159l-118 -847q-39 -273 -204 -432q-166 -159 -412 -159q-247 0 -367 159zM755 1634l-19 154h77l53 -179z" />
    <glyph glyph-name="Uacute" unicode="&#xda;" horiz-adv-x="1382" 
d="M201 159q-121 159 -83 432l119 847h160l-119 -847q-29 -205 53 -318t259 -113q178 0 291 113q114 113 143 318l119 847h159l-118 -847q-39 -273 -204 -432q-166 -159 -412 -159q-247 0 -367 159zM825 1788h77l-62 -154l-119 -25z" />
    <glyph glyph-name="Ucircumflex" unicode="&#xdb;" horiz-adv-x="1382" 
d="M201 159q-121 159 -83 432l119 847h160l-119 -847q-29 -205 53 -318t259 -113q178 0 291 113q114 113 143 318l119 847h159l-118 -847q-39 -273 -204 -432q-166 -159 -412 -159q-247 0 -367 159zM617 1665l113 99l100 62l82 -62l86 -99l-82 -72l-102 119l-136 -119z" />
    <glyph glyph-name="Udieresis" unicode="&#xdc;" horiz-adv-x="1382" 
d="M201 159q-121 159 -83 432l119 847h160l-119 -847q-29 -205 53 -318t259 -113q178 0 291 113q114 113 143 318l119 847h159l-118 -847q-39 -273 -204 -432q-166 -159 -412 -159q-247 0 -367 159zM570 1634q-20 23 -16 55q5 33 31 56q27 23 59 23q33 0 53 -23
q19 -23 15 -56q-5 -32 -31 -55t-59 -23q-32 0 -52 23zM914 1634q-20 23 -16 55q5 33 31 56q27 23 59 23q33 0 53 -23q19 -23 15 -56q-5 -32 -31 -55t-59 -23t-52 23z" />
    <glyph glyph-name="Yacute" unicode="&#xdd;" horiz-adv-x="1281" 
d="M1009 1440l-446 -555l-291 555h-192l379 -722l-101 -718h160l100 715l583 725h-192zM696 1790l-104 -179l118 25l62 154h-76z" />
    <glyph glyph-name="Thorn" unicode="&#xde;" horiz-adv-x="986" 
d="M313 521h238q61 0 102 38q55 49 70 159q16 110 -25 159q-31 37 -92 37h-238zM80 0l202 1437h160l-52 -363h239q138 0 208 -97q69 -97 46 -259q-23 -163 -119 -260q-97 -96 -235 -96h-239l-50 -362h-160z" />
    <glyph glyph-name="germandbls" unicode="&#xdf;" horiz-adv-x="1157" 
d="M462 60q-72 60 -77 162l162 16q11 -78 130 -78q145 0 162 121t-128 121q-132 0 -202 74q-70 75 -53 196q16 120 104 194q40 35 122 95l34 25l34 26q37 29 62 53q61 59 68 110q8 59 -18 81q-31 25 -131 25h-16q-10 0 -20 -1q-24 -1 -46 -6q-61 -13 -111 -51
q-142 -107 -184 -405l-114 -815h-160l114 815q51 359 243 515q73 60 166 87q72 21 151 21q323 0 286 -266q-15 -101 -103 -195q-35 -37 -84 -77q-20 -15 -44 -34l-22 -16l-22 -16q-77 -56 -107 -83l-3 -3q-32 -27 -40 -79l-1 -6v-7q-1 -8 -1 -16q1 -21 10 -37
q24 -45 110 -45q137 0 210 -77q74 -77 56 -203t-113 -204q-95 -77 -232 -77q-119 0 -192 60z" />
    <glyph glyph-name="agrave" unicode="&#xe0;" horiz-adv-x="1151" 
d="M589 1314l19 -154l111 -25l-53 179h-77zM374 721q86 83 226 83t203 -83t41 -238v-2q-22 -155 -108 -238q-87 -83 -226 -83q-140 0 -203 83t-41 239t108 239zM487 0q52 0 100 9l10 2q116 25 196 107l-16 -118h159l135 963h-159l-17 -117q-58 83 -168 107l-9 2q-45 9 -95 9
q-51 0 -98 -8l-10 -3q-166 -32 -274 -157t-135 -314q-26 -188 46 -313q73 -125 228 -158l10 -2q46 -9 97 -9z" />
    <glyph glyph-name="aacute" unicode="&#xe1;" horiz-adv-x="1151" 
d="M678 1314l-104 -179l118 25l62 154h-76zM374 721q86 83 226 83t203 -83t41 -238v-2q-22 -155 -108 -238q-87 -83 -226 -83q-140 0 -203 83t-41 239t108 239zM487 0q52 0 100 9l10 2q116 25 196 107l-16 -118h159l135 963h-159l-17 -117q-58 83 -168 107l-9 2q-45 9 -95 9
q-51 0 -98 -8l-10 -3q-166 -32 -274 -157t-135 -314q-26 -188 46 -313q73 -125 228 -158l10 -2q46 -9 97 -9z" />
    <glyph glyph-name="acircumflex" unicode="&#xe2;" horiz-adv-x="1151" 
d="M682 1350l-99 -61l-114 -100l62 -72l135 119l102 -119l82 72l-85 100zM374 721q86 83 226 83t203 -83t41 -238v-2q-22 -155 -108 -238q-87 -83 -226 -83q-140 0 -203 83t-41 239t108 239zM487 0q52 0 100 9l10 2q116 25 196 107l-16 -118h159l135 963h-159l-17 -117
q-58 83 -168 107l-9 2q-45 9 -95 9q-51 0 -98 -8l-10 -3q-166 -32 -274 -157t-135 -314q-26 -188 46 -313q73 -125 228 -158l10 -2q46 -9 97 -9z" />
    <glyph glyph-name="atilde" unicode="&#xe3;" horiz-adv-x="1151" 
d="M476 1145l16 114q26 -13 57 -13q29 0 65 12l32 12l32 13q75 33 108 33q31 0 55 -21l-16 -115q-26 13 -57 13q-29 0 -65 -12l-32 -12l-32 -13q-75 -33 -107 -33t-56 22zM374 721q86 83 226 83t203 -83t41 -238v-2q-22 -155 -108 -238q-87 -83 -226 -83q-140 0 -203 83
t-41 239t108 239zM487 0q52 0 100 9l10 2q116 25 196 107l-16 -118h159l135 963h-159l-17 -117q-58 83 -168 107l-9 2q-45 9 -95 9q-51 0 -98 -8l-10 -3q-166 -32 -274 -157t-135 -314q-26 -188 46 -313q73 -125 228 -158l10 -2q46 -9 97 -9z" />
    <glyph glyph-name="adieresis" unicode="&#xe4;" horiz-adv-x="1151" 
d="M423 1160q-20 23 -16 55q5 33 31 56q27 23 59 23q33 0 52 -23q20 -23 16 -56q-5 -32 -31 -55t-59 -23t-52 23zM767 1160q-20 23 -16 55q5 33 31 56t59 23t52 -23q20 -23 16 -56q-5 -32 -31 -55q-27 -23 -59 -23q-33 0 -52 23zM374 721q86 83 226 83t203 -83t41 -238v-2
q-22 -155 -108 -238q-87 -83 -226 -83q-140 0 -203 83t-41 239t108 239zM487 0q52 0 100 9l10 2q116 25 196 107l-16 -118h159l135 963h-159l-17 -117q-58 83 -168 107l-9 2q-45 9 -95 9q-51 0 -98 -8l-10 -3q-166 -32 -274 -157t-135 -314q-26 -188 46 -313
q73 -125 228 -158l10 -2q46 -9 97 -9z" />
    <glyph glyph-name="aring" unicode="&#xe5;" horiz-adv-x="1151" 
d="M614 1181q-14 16 -11 39q4 22 22 39q18 16 41 16t37 -16q14 -17 11 -39q-4 -23 -22 -39q-18 -17 -41 -17t-37 17zM589 1301q-39 -34 -46 -81q-6 -48 23 -82t76 -34q48 0 87 34q38 34 45 82q6 47 -23 81t-76 34q-48 0 -86 -34zM374 721q86 83 226 83t203 -83t41 -238v-2
q-22 -155 -108 -238q-87 -83 -226 -83q-140 0 -203 83t-41 239t108 239zM487 0q52 0 100 9l10 2q116 25 196 107l-16 -118h159l135 963h-159l-17 -117q-58 83 -168 107l-9 2q-45 9 -95 9q-51 0 -98 -8l-10 -3q-166 -32 -274 -157t-135 -314q-26 -188 46 -313
q73 -125 228 -158l10 -2q46 -9 97 -9z" />
    <glyph glyph-name="ae" unicode="&#xe6;" horiz-adv-x="1835" 
d="M1037 595l-11 -30h568l-3 30q-20 209 -248 209q-227 0 -306 -209zM379 721q-86 -83 -108 -239t41 -239t203 -83q134 0 219 76q85 77 111 221h1l3 25q22 156 -41 239t-203 83t-226 -83zM994 67l-35 24l-12 -90h-165l13 91l-41 -24q-117 -68 -262 -68q-204 0 -308 131
t-73 351q31 219 172 351q140 131 345 131q227 0 327 -157l16 -25l23 25q145 157 372 157q179 0 282 -100q103 -101 106 -278q1 -46 -6 -95l-10 -75h-735l1 -30q6 -95 56 -152q65 -74 203 -74q191 0 287 122l134 -70q-71 -100 -188 -156t-255 -56q-148 0 -247 67z" />
    <glyph glyph-name="ccedilla" unicode="&#xe7;" horiz-adv-x="1064" 
d="M775 283q-89 -126 -263 -126q-140 0 -203 83t-41 239t108 239t226 83q173 0 227 -124l155 68q-41 103 -135 160q-93 56 -224 56q-205 0 -346 -131q-140 -131 -171 -351q-28 -201 58 -330q86 -128 262 -148l-13 -121l40 -8q32 -7 42 -23q9 -15 1 -41q-9 -26 -26 -35
q-20 -11 -51 -4q-15 3 -26 8l-59 -94q22 -11 50 -17q21 -4 41 -4q47 0 86 21q60 34 84 106q24 71 -8 123q-20 33 -61 50l4 37q247 18 379 218z" />
    <glyph glyph-name="egrave" unicode="&#xe8;" horiz-adv-x="1094" 
d="M592 1312l19 -154l111 -25l-54 179h-76zM288 565q4 17 9 30q33 88 96 140q83 69 210 69q228 0 248 -209l1 -7q0 -11 -1 -23h-563zM1008 490v1q6 49 6 95q-3 177 -106 278q-103 100 -282 100q-205 0 -346 -131q-140 -132 -171 -351l-1 -8q-28 -217 79 -345
q106 -129 313 -129q139 0 256 56q116 56 187 156l-134 70q-96 -122 -286 -122q-138 0 -204 74q-50 57 -55 152q-1 11 0 30h733z" />
    <glyph glyph-name="eacute" unicode="&#xe9;" horiz-adv-x="1094" 
d="M681 1312l-104 -179l118 25l62 154h-76zM288 565q4 17 9 30q33 88 96 140q83 69 210 69q228 0 248 -209l1 -7q0 -11 -1 -23h-563zM1008 490v1q6 49 6 95q-3 177 -106 278q-103 100 -282 100q-205 0 -346 -131q-140 -132 -171 -351l-1 -8q-28 -217 79 -345
q106 -129 313 -129q139 0 256 56q116 56 187 156l-134 70q-96 -122 -286 -122q-138 0 -204 74q-50 57 -55 152q-1 11 0 30h733z" />
    <glyph glyph-name="ecircumflex" unicode="&#xea;" horiz-adv-x="1094" 
d="M685 1350l-99 -61l-114 -100l62 -72l135 119l102 -119l82 72l-85 100zM288 565q4 17 9 30q33 88 96 140q83 69 210 69q228 0 248 -209l1 -7q0 -11 -1 -23h-563zM1008 490v1q6 49 6 95q-3 177 -106 278q-103 100 -282 100q-205 0 -346 -131q-140 -132 -171 -351l-1 -8
q-28 -217 79 -345q106 -129 313 -129q139 0 256 56q116 56 187 156l-134 70q-96 -122 -286 -122q-138 0 -204 74q-50 57 -55 152q-1 11 0 30h733z" />
    <glyph glyph-name="edieresis" unicode="&#xeb;" horiz-adv-x="1094" 
d="M425 1157q-20 23 -15 56q4 32 31 55q26 23 59 23q32 0 52 -23t15 -55q-4 -33 -31 -56q-26 -23 -59 -23q-32 0 -52 23zM769 1157q-20 23 -15 56q4 32 31 55q26 23 59 23q32 0 52 -23t15 -55q-4 -33 -31 -56q-26 -23 -59 -23q-32 0 -52 23zM288 565q4 17 9 30q33 88 96 140
q83 69 210 69q228 0 248 -209l1 -7q0 -11 -1 -23h-563zM1008 490v1q6 49 6 95q-3 177 -106 278q-103 100 -282 100q-205 0 -346 -131q-140 -132 -171 -351l-1 -8q-28 -217 79 -345q106 -129 313 -129q139 0 256 56q116 56 187 156l-134 70q-96 -122 -286 -122
q-138 0 -204 74q-50 57 -55 152q-1 11 0 30h733z" />
    <glyph glyph-name="igrave" unicode="&#xec;" horiz-adv-x="461" 
d="M215 964l-135 -964h160l135 964h-160zM251 1312l19 -154l111 -25l-53 179h-77z" />
    <glyph glyph-name="iacute" unicode="&#xed;" horiz-adv-x="517" 
d="M215 964l-135 -964h160l135 964h-160zM360 1312l-103 -179l118 25l62 154h-77z" />
    <glyph glyph-name="icircumflex" unicode="&#xee;" horiz-adv-x="603" 
d="M215 964l-135 -964h160l135 964h-160zM355 1350l-100 -61l-113 -100l62 -72l135 119l102 -119l82 72l-86 100z" />
    <glyph glyph-name="idieresis" unicode="&#xef;" horiz-adv-x="671" 
d="M221 964l-136 -964h160l135 964h-159zM100 1158q-20 23 -15 55q4 33 31 56q26 23 59 23q32 0 52 -23t15 -56q-4 -32 -31 -55q-26 -23 -59 -23q-32 0 -52 23zM444 1158q-20 23 -15 55q4 33 31 56q26 23 59 23q32 0 52 -23t15 -56q-4 -32 -31 -55q-26 -23 -59 -23
q-32 0 -52 23z" />
    <glyph glyph-name="eth" unicode="&#xf0;" horiz-adv-x="1036" 
d="M376 642q-88 -66 -109 -216q-21 -149 48 -216q52 -50 153 -50q100 0 167 50q87 67 108 216q21 150 -48 216q-52 51 -152 51q-101 0 -167 -51zM172 116q-92 116 -65 310q28 194 152 311q125 116 306 116q63 0 118 -16l52 -14l-19 49q-31 86 -87 141l-15 14l-96 -79
l-105 39l137 85l-47 15q-48 15 -103 18l23 160q276 -10 404 -235q129 -224 76 -604q-27 -194 -152 -310q-124 -116 -306 -116q-181 0 -273 116z" />
    <glyph glyph-name="ntilde" unicode="&#xf1;" horiz-adv-x="1067" 
d="M462 1143l17 114q25 -13 56 -13q29 0 65 12l32 12l32 13q75 33 108 33q31 0 55 -21l-16 -115q-26 13 -57 13q-28 0 -65 -12l-32 -12l-32 -13q-75 -33 -107 -33t-56 22zM311 506v0q25 144 100 221t191 77q120 0 173 -83q52 -84 30 -239l-67 -482h159l68 482
q22 156 -21 271q-42 115 -141 169q-76 41 -179 41t-190 -41q-38 -19 -72 -48l13 89h-160l-135 -963h160z" />
    <glyph glyph-name="ograve" unicode="&#xf2;" horiz-adv-x="1120" 
d="M379 721q-86 -83 -108 -239t41 -239t203 -83t226 83t108 239t-41 239t-203 83t-226 -83zM184 131q-104 131 -73 351q31 219 172 351q140 131 345 131q204 0 308 -131q104 -132 73 -351q-31 -220 -171 -351q-141 -131 -346 -131q-204 0 -308 131zM613 1160l-19 154h77
l53 -179z" />
    <glyph glyph-name="oacute" unicode="&#xf3;" horiz-adv-x="1120" 
d="M379 721q-86 -83 -108 -239t41 -239t203 -83t226 83t108 239t-41 239t-203 83t-226 -83zM184 131q-104 131 -73 351q31 219 172 351q140 131 345 131q204 0 308 -131q104 -132 73 -351q-31 -220 -171 -351q-141 -131 -346 -131q-204 0 -308 131zM683 1314h77l-62 -154
l-119 -25z" />
    <glyph glyph-name="ocircumflex" unicode="&#xf4;" horiz-adv-x="1120" 
d="M379 721q-86 -83 -108 -239t41 -239t203 -83t226 83t108 239t-41 239t-203 83t-226 -83zM184 131q-104 131 -73 351q31 219 172 351q140 131 345 131q204 0 308 -131q104 -132 73 -351q-31 -220 -171 -351q-141 -131 -346 -131q-204 0 -308 131zM672 1238l-136 -119
l-62 72l114 100l100 61l82 -61l86 -100l-82 -72z" />
    <glyph glyph-name="otilde" unicode="&#xf5;" horiz-adv-x="1120" 
d="M379 721q-86 -83 -108 -239t41 -239t203 -83t226 83t108 239t-41 239t-203 83t-226 -83zM184 131q-104 131 -73 351q31 219 172 351q140 131 345 131q204 0 308 -131q104 -132 73 -351q-31 -220 -171 -351q-141 -131 -346 -131q-204 0 -308 131zM537 1123q-32 0 -56 22
l16 114q26 -13 57 -13q29 0 65 12l32 12l32 13q75 33 108 33q31 0 55 -21l-16 -115q-26 13 -57 13q-28 0 -65 -12l-32 -12l-32 -13q-75 -33 -107 -33v0z" />
    <glyph glyph-name="odieresis" unicode="&#xf6;" horiz-adv-x="1120" 
d="M379 721q-86 -83 -108 -239t41 -239t203 -83t226 83t108 239t-41 239t-203 83t-226 -83zM184 131q-104 131 -73 351q31 219 172 351q140 131 345 131q204 0 308 -131q104 -132 73 -351q-31 -220 -171 -351q-141 -131 -346 -131q-204 0 -308 131zM428 1160q-20 23 -16 55
q5 33 31 56q27 23 59 23q33 0 53 -23q19 -23 15 -56q-5 -32 -31 -55t-59 -23q-32 0 -52 23zM772 1160q-20 23 -16 55q5 33 31 56q27 23 59 23q33 0 52 -23q20 -23 16 -56q-5 -32 -31 -55t-59 -23t-52 23z" />
    <glyph glyph-name="divide" unicode="&#xf7;" horiz-adv-x="686" 
d="M233 394q-23 26 -18 64q5 37 36 64q30 26 67 26q38 0 61 -26q22 -27 17 -64q-5 -38 -35 -64q-31 -27 -68 -27t-60 27zM296 920q-22 26 -17 64q5 37 35 64q31 26 68 26t60 -26q23 -27 18 -64q-5 -38 -36 -64q-30 -27 -67 -27q-38 0 -61 27zM80 643l23 159h503l-22 -159
h-504z" />
    <glyph glyph-name="oslash" unicode="&#xf8;" horiz-adv-x="1108" 
d="M722 781q154 -65 121 -300q-20 -141 -93 -223q-72 -81 -190 -96zM357 703q73 82 191 97l-162 -620q-154 66 -121 301q19 140 92 222zM964 779q-64 121 -200 163l68 259h-179l-63 -239q-193 -11 -324 -140q-131 -131 -161 -341q-25 -177 39 -299q63 -121 200 -163
l-68 -259h179l62 240q193 10 325 140q131 130 161 341q25 176 -39 298z" />
    <glyph glyph-name="ugrave" unicode="&#xf9;" horiz-adv-x="1066" 
d="M544 1314l19 -154l111 -25l-53 179h-77zM633 41q37 19 71 49l-12 -89h159l135 962h-159l-71 -506h-1q-25 -144 -100 -221q-75 -76 -190 -76q-121 0 -173 83q-53 83 -31 239l68 481h-160l-68 -481q-21 -156 21 -272q42 -115 141 -169q77 -41 179 -41q103 0 191 41z" />
    <glyph glyph-name="uacute" unicode="&#xfa;" horiz-adv-x="1066" 
d="M633 1314l-104 -179l119 25l62 154h-77zM633 41q37 19 71 49l-12 -89h159l135 962h-159l-71 -506h-1q-25 -144 -100 -221q-75 -76 -190 -76q-121 0 -173 83q-53 83 -31 239l68 481h-160l-68 -481q-21 -156 21 -272q42 -115 141 -169q77 -41 179 -41q103 0 191 41z" />
    <glyph glyph-name="ucircumflex" unicode="&#xfb;" horiz-adv-x="1066" 
d="M638 1352l-100 -62l-113 -99l61 -72l136 119l102 -119l82 72l-86 99zM633 41q37 19 71 49l-12 -89h159l135 962h-159l-71 -506h-1q-25 -144 -100 -221q-75 -76 -190 -76q-121 0 -173 83q-53 83 -31 239l68 481h-160l-68 -481q-21 -156 21 -272q42 -115 141 -169
q77 -41 179 -41q103 0 191 41z" />
    <glyph glyph-name="udieresis" unicode="&#xfc;" horiz-adv-x="1066" 
d="M378 1160q-20 23 -16 55q5 33 31 56q27 23 59 23q33 0 53 -23q19 -23 15 -56q-5 -32 -31 -55t-59 -23q-32 0 -52 23zM722 1160q-20 23 -16 55q5 33 31 56q27 23 59 23q33 0 53 -23q19 -23 15 -56q-5 -32 -31 -55t-59 -23q-32 0 -52 23zM633 41q37 19 71 49l-12 -89h159
l135 962h-159l-71 -506h-1q-25 -144 -100 -221q-75 -76 -190 -76q-121 0 -173 83q-53 83 -31 239l68 481h-160l-68 -481q-21 -156 21 -272q42 -115 141 -169q77 -41 179 -41q103 0 191 41z" />
    <glyph glyph-name="yacute" unicode="&#xfd;" horiz-adv-x="1162" 
d="M721 1315l-104 -180l118 26l62 154h-76zM1082 966h-160l-72 -509q-25 -144 -100 -221q-74 -77 -190 -77q-120 0 -173 84q-53 83 -31 239l68 484h-159l-68 -484q-22 -157 20 -272t141 -169q77 -41 180 -41q102 0 190 41q37 19 71 48l-23 -161q-19 -137 -102 -209
q-82 -73 -218 -73q-168 0 -222 109l-154 -71q85 -198 353 -198q201 0 338 120q137 121 165 322z" />
    <glyph glyph-name="thorn" unicode="&#xfe;" horiz-adv-x="1219" 
d="M911 721q63 -83 41 -239q-21 -156 -108 -239q-86 -83 -226 -83t-203 83t-41 238v1q22 156 108 239q87 83 227 83q139 0 202 -83zM323 118q58 -83 168 -108l9 -2q45 -8 96 -8q50 0 97 8l10 2q166 33 274 158q109 125 135 314q27 188 -46 313t-228 158l-10 2q-46 9 -97 9
t-100 -9l-10 -2q-116 -26 -196 -107l84 594h-160l-269 -1914h160z" />
    <glyph glyph-name="ydieresis" unicode="&#xff;" horiz-adv-x="1162" 
d="M473 1162q-20 24 -15 56q4 33 31 56q26 23 59 23q32 0 52 -23t15 -56q-4 -32 -31 -56q-26 -23 -59 -23q-32 0 -52 23zM817 1162q-20 24 -15 56q4 33 31 56q26 23 58 23q33 0 53 -23t15 -56q-4 -32 -31 -56q-26 -23 -59 -23q-32 0 -52 23zM1082 966h-160l-72 -509
q-25 -144 -100 -221q-74 -77 -190 -77q-120 0 -173 84q-53 83 -31 239l68 484h-159l-68 -484q-22 -157 20 -272t141 -169q77 -41 180 -41q102 0 190 41q37 19 71 48l-23 -161q-19 -137 -102 -209q-82 -73 -218 -73q-168 0 -222 109l-154 -71q85 -198 353 -198q201 0 338 120
q137 121 165 322z" />
    <glyph glyph-name="dotlessi" unicode="&#x131;" horiz-adv-x="615" 
d="M389 223q0 -173 100 -173h46v-50h-442v50h46q100 0 100 173v432q0 77 -111 77h-48v44q222 69 261 182h48v-735z" />
    <glyph glyph-name="circumflex" unicode="&#x2c6;" horiz-adv-x="742" 
d="M80 1079l232 355h118l232 -355h-58l-233 216l-233 -216h-58z" />
    <glyph glyph-name="caron" unicode="&#x2c7;" horiz-adv-x="742" 
d="M80 1434h58l233 -214l233 214h58l-232 -356h-118z" />
    <glyph glyph-name="uni02C9" unicode="&#x2c9;" horiz-adv-x="676" 
d="M80 1195v125h516v-125h-516z" />
    <glyph glyph-name="breve" unicode="&#x2d8;" horiz-adv-x="744" 
d="M80 1349h51q17 -73 75 -107t167 -34t166 33.5t74 107.5h51q-20 -133 -94 -201.5t-197 -68.5q-122 0 -197 69t-96 201z" />
    <glyph glyph-name="dotaccent" unicode="&#x2d9;" horiz-adv-x="375" 
d="M94 1289l69 72q6 6 13 9t14 3q6 0 12.5 -3t12.5 -9l71 -76q5 -4 7 -10t2 -14q-1 -9 -3 -15t-8 -12l-71 -76q-12 -11 -16 -13.5t-7 -2.5q-10 0 -16.5 2.5t-10.5 8.5l-75 87q-4 4 -6 9.5t-2 13.5q0 6 3 12.5t11 13.5z" />
    <glyph glyph-name="ring" unicode="&#x2da;" horiz-adv-x="515" 
d="M156 1257q0 -42 29 -71t71 -29t71 29t29 71q0 40 -29.5 69.5t-70.5 29.5t-70.5 -29.5t-29.5 -69.5zM80 1257q0 75 51 126t125 51q76 0 127.5 -51.5t51.5 -125.5q0 -75 -51.5 -126.5t-127.5 -51.5q-74 0 -125 51.5t-51 126.5z" />
    <glyph glyph-name="ogonek" unicode="&#x2db;" horiz-adv-x="528" 
d="M351 0q-71 -62 -110.5 -119.5t-39.5 -112.5q0 -47 27 -75t73 -28q40 0 69.5 15.5t49.5 48.5l28 -16q-36 -63 -90.5 -97t-119.5 -34q-70 0 -114 35.5t-44 90.5q0 76 60.5 156.5t161.5 135.5h49z" />
    <glyph glyph-name="tilde" unicode="&#x2dc;" horiz-adv-x="687" 
d="M103 1653q55 -16 126 -10q27 2 63 8l63 12q164 31 252 -2l-23 -153q-55 16 -126 11q-27 -3 -63 -9l-63 -11q-164 -31 -252 2z" />
    <glyph glyph-name="hungarumlaut" unicode="&#x2dd;" horiz-adv-x="552" 
d="M115 1442l-35 -248l133 36l29 212h-127zM345 1442l-26 -187l132 35l21 152h-127z" />
    <glyph glyph-name="endash" unicode="&#x2013;" horiz-adv-x="686" 
d="M103 801l-23 -160h504l22 160h-503z" />
    <glyph glyph-name="emdash" unicode="&#x2014;" horiz-adv-x="1101" 
d="M120 801l-40 -160h901l40 160h-901z" />
    <glyph glyph-name="quoteleft" unicode="&#x2018;" horiz-adv-x="322" 
d="M115 1442l-35 -248l133 36l29 212h-127z" />
    <glyph glyph-name="quoteright" unicode="&#x2019;" horiz-adv-x="322" 
d="M80 1442l30 -212l132 -36l-35 248h-127z" />
    <glyph glyph-name="quotesinglbase" unicode="&#x201a;" horiz-adv-x="322" 
d="M115 88l-35 -248l133 36l29 212h-127z" />
    <glyph glyph-name="quotedblleft" unicode="&#x201c;" horiz-adv-x="552" 
d="M115 1442l-35 -248l133 36l29 212h-127zM345 1442l-26 -187l132 35l21 152h-127z" />
    <glyph glyph-name="quotedblright" unicode="&#x201d;" horiz-adv-x="552" 
d="M310 1442l30 -212l132 -36l-34 248h-128zM80 1442l21 -152l133 -35l-27 187h-127z" />
    <glyph glyph-name="quotedblbase" unicode="&#x201e;" horiz-adv-x="552" 
d="M310 172l30 -212l132 -36l-34 248h-128zM80 172l21 -152l133 -35l-27 187h-127z" />
    <glyph glyph-name="dagger" unicode="&#x2020;" horiz-adv-x="1033" 
d="M495 1022q-8 97 -54 178q-57 101 -57 129q0 49 36 78.5t96 29.5q57 0 94.5 -27.5t37.5 -71.5q0 -32 -55 -137q-46 -85 -55 -179q96 8 177 54q101 57 129 57q49 0 79 -36t30 -96q0 -57 -27.5 -94.5t-72.5 -37.5q-32 0 -136 55q-85 46 -179 57q8 -176 110 -277
q-106 -460 -112 -974h-38q-6 514 -114 974q102 101 111 277q-96 -10 -178 -55q-101 -57 -129 -57q-49 0 -78.5 36t-29.5 96q0 57 27.5 94.5t71.5 37.5q32 0 137 -56q85 -46 179 -55z" />
    <glyph glyph-name="daggerdbl" unicode="&#x2021;" horiz-adv-x="1033" 
d="M538 186q94 11 179 57q104 55 136 55q45 0 72.5 -37.5t27.5 -94.5q0 -60 -30 -96t-79 -36q-28 0 -129 57q-81 46 -177 54q9 -94 55 -179q55 -105 55 -137q0 -44 -37.5 -71.5t-94.5 -27.5q-60 0 -96 29.5t-36 78.5q0 28 57 129q46 81 54 178q-94 -9 -179 -55
q-105 -56 -137 -56q-44 0 -71.5 37.5t-27.5 94.5q0 60 29.5 96t78.5 36q28 0 129 -57q82 -45 178 -55q-9 226 -111 398q102 171 111 397q-96 -10 -178 -55q-101 -57 -129 -57q-49 0 -78.5 36t-29.5 96q0 57 27.5 94.5t71.5 37.5q32 0 137 -56q85 -46 179 -55q-8 97 -54 178
q-57 101 -57 129q0 49 36 78.5t96 29.5q57 0 94.5 -27.5t37.5 -71.5q0 -32 -55 -137q-46 -85 -55 -179q96 8 177 54q101 57 129 57q49 0 79 -36t30 -96q0 -57 -27.5 -94.5t-72.5 -37.5q-32 0 -136 55q-85 46 -179 57q8 -226 110 -397q-102 -172 -110 -398z" />
    <glyph glyph-name="bullet" unicode="&#x2022;" horiz-adv-x="752" 
d="M80 718q0 123 87 209t210 86q122 0 208.5 -86.5t86.5 -208.5t-87.5 -209.5t-209.5 -87.5q-123 0 -209 87t-86 210z" />
    <glyph glyph-name="ellipsis" unicode="&#x2026;" horiz-adv-x="1172" 
d="M103 27q-23 26 -18 63q5 38 35 64q31 27 68 27q38 0 60 -27q23 -26 18 -64q-5 -37 -36 -63q-30 -27 -67 -27q-38 0 -60 27zM513 27q-23 26 -18 63q6 38 36 64q30 27 67 27q38 0 61 -27q22 -26 17 -64q-5 -37 -35 -63q-31 -27 -68 -27t-60 27zM923 27q-23 26 -17 63
q5 38 35 64q30 27 68 27q37 0 60 -27q23 -26 18 -64q-6 -37 -36 -63q-30 -27 -68 -27q-37 0 -60 27z" />
    <glyph glyph-name="guilsinglleft" unicode="&#x2039;" horiz-adv-x="579" 
d="M451 552l-145 169l193 169l-97 113l-322 -282l242 -282z" />
    <glyph glyph-name="guilsinglright" unicode="&#x203a;" horiz-adv-x="579" 
d="M127 890l146 -169l-193 -169l97 -113l322 282l-243 282z" />
    <glyph glyph-name="fraction" unicode="&#x2044;" horiz-adv-x="796" 
d="M537 1587l-457 -1747h179l457 1747h-179z" />
    <glyph glyph-name="fraction" unicode="&#x2215;" horiz-adv-x="796" 
d="M537 1587l-457 -1747h179l457 1747h-179z" />
    <glyph glyph-name="franc" unicode="&#x20a3;" horiz-adv-x="1267" 
d="M282 1438l-202 -1438h160l89 639h506l22 160h-505l67 479h746l22 160h-905z" />
    <glyph glyph-name="lira" unicode="&#x20a4;" horiz-adv-x="1341" 
d="M80 0l298 1114q36 150 166 237q131 87 320 87q186 0 292 -84q105 -84 102 -230l-161 -13q-4 167 -256 167q-126 0 -206 -47t-100 -133l-1 -3l-47 -177h306l-43 -159h-306l-34 -130h305l-44 -159h-304l-83 -310h788l-44 -160h-948z" />
    <glyph glyph-name="peseta" unicode="&#x20a7;" horiz-adv-x="2028" 
 />
    <glyph glyph-name="Euro" unicode="&#x20ac;" horiz-adv-x="1481" 
d="M368 124q-133 125 -154 351l-2 19h-132l43 160h91l3 26l5 39l6 39l5 26h-74l43 159h74l7 19q85 227 252 351q167 125 387 125q182 0 306 -86q123 -86 173 -247l-156 -60q-76 233 -345 233q-149 0 -264 -78t-183 -224l-14 -33h264l-44 -159h-266l-5 -24l-6 -41
q-3 -19 -5 -41l-3 -24h250l-43 -160h-205l5 -32q26 -146 120 -224q93 -78 242 -78q271 0 412 236l140 -59q-94 -161 -244 -249t-331 -88q-220 0 -352 124z" />
    <glyph glyph-name="uni2116" unicode="&#x2116;" horiz-adv-x="1838" 
d="M1271 631q-24 -174 129 -174q152 0 177 174q24 173 -129 173q-152 0 -177 -173zM1163 388q-73 91 -51 243q21 151 119 242t240 91t214 -91q73 -91 51 -242q-21 -152 -119 -243q-97 -91 -240 -91q-142 0 -214 91zM738 0l67 482q22 155 -30 239q-53 83 -173 83
q-119 0 -195 -81q-76 -82 -99 -234l-68 -489h-160l135 963h160l-12 -83l43 26q14 9 28 16q87 41 190 41t179 -41q99 -54 142 -169q42 -115 20 -271l-68 -482h-159zM1072 0l23 160h526l-22 -160h-527z" />
    <glyph glyph-name="trademark" unicode="&#x2122;" horiz-adv-x="396" 
d="M295 1641l-38 -108l-37 108h-21v-141h20v83l28 -80h21l28 80v-83h20v141h-21zM80 1641v-20h40v-121h20v121h41v20h-101z" />
    <glyph glyph-name="partialdiff" unicode="&#x2202;" horiz-adv-x="1173" 
d="M580 770q-135 0 -196 -79q-62 -79 -41 -226q21 -148 104 -227q84 -78 219 -78q136 0 197 78q61 79 40 227q-20 147 -104 226q-83 79 -219 79zM689 0q-201 0 -338 126q-138 127 -168 339q-29 211 73 338q102 126 302 126q84 0 160 -23l60 -19l-35 53q-217 332 -641 342
l-22 160q387 -8 648 -254t327 -665q7 -47 8 -58q30 -212 -72 -339q-102 -126 -302 -126z" />
    <glyph glyph-name="Delta" unicode="&#x2206;" horiz-adv-x="1230" 
d="M80 0h1070l-405 926zM700 607l195 -447h-516z" />
    <glyph glyph-name="product" unicode="&#x220f;" horiz-adv-x="1384" 
d="M102 1437l-22 -159h213l-179 -1278h160l179 1278h449l-179 -1278h159l180 1278h220l22 159h-1202z" />
    <glyph glyph-name="summation" unicode="&#x2211;" horiz-adv-x="1244" 
d="M282 1438l182 -719l-384 -719h882l23 160h-648l299 559l-142 559h648l22 160h-882z" />
    <glyph glyph-name="minus" unicode="&#x2212;" horiz-adv-x="686" 
d="M103 801l-23 -160h504l22 160h-503z" />
    <glyph glyph-name="radical" unicode="&#x221a;" horiz-adv-x="1014" 
 />
    <glyph glyph-name="infinity" unicode="&#x221e;" horiz-adv-x="1107" 
d="M282 783q-21 -22 -26 -62q-6 -40 9 -62q21 -32 87 -32q65 0 95 32q21 22 27 62q5 40 -9 62q-22 31 -87 31t-96 -31zM660 783q-21 -22 -27 -62q-5 -40 10 -62q21 -32 86 -32q66 0 96 32q21 22 27 62q5 40 -10 62q-21 31 -86 31q-66 0 -96 -31zM540 520l-13 11l-16 -11
q-78 -52 -182 -52q-120 0 -185 69q-64 70 -48 184q16 113 100 183t204 70q104 0 167 -52l13 -11l17 11q77 52 181 52q121 0 185 -70t48 -183q-16 -114 -100 -184q-84 -69 -204 -69q-104 0 -167 52z" />
    <glyph glyph-name="integral" unicode="&#x222b;" horiz-adv-x="1075" 
d="M102 160q136 7 219 93q84 87 105 242l63 447q30 218 168 352q137 134 338 142l-23 -159q-135 -8 -218 -94q-84 -86 -106 -241l-62 -447q-31 -219 -168 -353t-338 -142z" />
    <glyph glyph-name="approxequal" unicode="&#x2248;" horiz-adv-x="728" 
d="M144 927q55 -17 126 -11q27 3 63 9l63 11q164 31 252 -2l-23 -152q-55 16 -126 10q-27 -2 -63 -8l-63 -12q-164 -31 -252 2zM103 660q55 -16 125 -10q28 2 63 8l63 11q165 32 252 -2l-22 -152q-56 16 -126 10q-28 -2 -63 -8l-63 -12q-165 -31 -252 3z" />
    <glyph glyph-name="lessequal" unicode="&#x2264;" horiz-adv-x="686" 
d="M584 3l22 160h-504l-22 -160h504zM398 253l128 113l-145 169l193 169l-97 113l-322 -282z" />
    <glyph glyph-name="greaterequal" unicode="&#x2265;" horiz-adv-x="686" 
d="M102 160l-22 -160h504l22 160h-504zM364 815l-129 -113l145 -169l-193 -169l97 -113l322 282z" />
    <glyph glyph-name="uniF001" unicode="&#xf001;" horiz-adv-x="1073" 
 />
    <glyph glyph-name="uniF001" unicode="&#xfb01;" horiz-adv-x="1073" 
 />
    <glyph glyph-name="uniF002" unicode="&#xf002;" horiz-adv-x="1081" 
 />
    <glyph glyph-name="uniF002" unicode="&#xfb02;" horiz-adv-x="1081" 
 />
    </font>
</defs>
</svg>
