<?xml version="1.0" standalone="no"?>
<!DOCTYPE svg PUBLIC "-//W3C//DTD SVG 1.1//EN" "http://www.w3.org/Graphics/SVG/1.1/DTD/svg11.dtd" >
<svg xmlns="http://www.w3.org/2000/svg" xmlns:xlink="http://www.w3.org/1999/xlink" version="1.1">
<metadata>
Created by FontForge 20170731 at Tue Jun  7 03:27:17 2016
 By Aleksey,,,
Kayak Sans Bold (Italic) (c) Jack Harvatt. 2016. All Rights Reserved
</metadata>
<defs>
<font id="KayakSans-BoldItalic" horiz-adv-x="1174" >
  <font-face 
    font-family="Kayak Sans"
    font-weight="700"
    font-style="italic"
    font-stretch="normal"
    units-per-em="2048"
    panose-1="2 0 5 0 0 0 0 0 0 0"
    ascent="1638"
    descent="-410"
    x-height="981"
    cap-height="1441"
    bbox="80 -521 1841 1823"
    underline-thickness="150"
    underline-position="-442"
    slope="-6"
    unicode-range="U+001D-F002"
  />
<missing-glyph horiz-adv-x="984" 
d="M80 0v1434h824v-1434h-824zM130 50h724v1334h-724v-1334zM305 1148q31 28 58 43q53 30 112 30q92 0 148 -47.5t56 -127.5q0 -49 -23 -98.5t-87 -129.5q-63 -80 -99 -132t-36 -99q0 -38 24 -133h-32q-35 97 -35 148q0 76 81.5 218t81.5 217q0 57 -33 90t-91 33
q-38 0 -69 -17q-26 -15 -56 -40v45zM369 334l57 58q11 10 20 10q10 0 22 -11l56 -60q9 -11 9 -20q0 -11 -10 -22l-56 -62q-14 -14 -21 -14q-11 0 -20 10l-61 71q-7 9 -7 18q0 10 11 22z" />
    <glyph glyph-name=".notdef" horiz-adv-x="984" 
d="M80 0v1434h824v-1434h-824zM130 50h724v1334h-724v-1334zM305 1148q31 28 58 43q53 30 112 30q92 0 148 -47.5t56 -127.5q0 -49 -23 -98.5t-87 -129.5q-63 -80 -99 -132t-36 -99q0 -38 24 -133h-32q-35 97 -35 148q0 76 81.5 218t81.5 217q0 57 -33 90t-91 33
q-38 0 -69 -17q-26 -15 -56 -40v45zM369 334l57 58q11 10 20 10q10 0 22 -11l56 -60q9 -11 9 -20q0 -11 -10 -22l-56 -62q-14 -14 -21 -14q-11 0 -20 10l-61 71q-7 9 -7 18q0 10 11 22z" />
    <glyph glyph-name=".null" horiz-adv-x="0" 
 />
    <glyph glyph-name=".null" horiz-adv-x="0" 
 />
    <glyph glyph-name="nonmarkingreturn" horiz-adv-x="508" 
 />
    <glyph glyph-name="space" unicode=" " horiz-adv-x="508" 
 />
    <glyph glyph-name="space" unicode="&#xa0;" horiz-adv-x="508" 
 />
    <glyph glyph-name="exclam" unicode="!" horiz-adv-x="566" 
d="M283 1441l-141 -1005h203l141 1005h-203zM130 190q-37 -32 -44 -78q-6 -47 22 -79q28 -33 74 -33t84 33q37 32 43 79q7 46 -21 78q-28 33 -75 33q-46 0 -83 -33z" />
    <glyph glyph-name="quotedbl" unicode="&#x22;" horiz-adv-x="596" 
d="M122 1450l-42 -296l178 49l35 247h-171zM345 1450l-34 -237l179 49l26 188h-171z" />
    <glyph glyph-name="numbersign" unicode="#" horiz-adv-x="1330" 
d="M919 1161l-57 -247h-237l58 247h-203l-58 -247h-186l-47 -203h186l-61 -261h-186l-48 -203h186l-58 -247h203l58 247h236l-58 -247h203l58 247h186l47 203h-186l62 261h186l47 203h-186l58 247h-203zM578 711h236l-61 -261h-237z" />
    <glyph glyph-name="dollar" unicode="$" horiz-adv-x="1106" 
d="M555 1117l-71 -274q-113 29 -99 134q17 119 170 140zM647 620q129 -30 112 -148q-19 -134 -192 -155zM263 0h221l30 112q183 9 304 106q122 97 144 254q19 136 -52 229q-69 92 -211 120l70 266q51 -35 44 -103l204 16q9 107 -42 184q-51 76 -152 112l38 145h-221
l-31 -119q-175 -10 -290 -102q-115 -94 -136 -243q-19 -131 48 -220q66 -88 200 -115l-78 -298q-69 40 -56 128h-25l-180 -15q-12 -116 43 -200q54 -83 164 -120z" />
    <glyph glyph-name="percent" unicode="%" horiz-adv-x="1339" 
d="M916 211q-18 19 -11 69q7 51 31 69q16 13 47 13t44 -13q18 -18 11 -69q-7 -50 -31 -69q-16 -13 -47 -13t-44 13zM805 486q-85 -78 -103 -206q-18 -127 45 -206q64 -78 185 -78q120 0 206 78q85 79 103 206q18 128 -45 206q-64 79 -185 79q-120 0 -206 -79zM332 1222
q16 12 47 12t44 -12q18 -19 11 -70q-7 -50 -31 -69q-16 -12 -47 -12t-44 12q-19 19 -11 69q7 51 31 70zM591 1358q-63 79 -184 79t-206 -79q-85 -78 -103 -206q-18 -127 45 -206q64 -78 184 -78q121 0 207 78q85 79 103 206q18 128 -46 206zM937 1601l-751 -1741h221
l751 1741h-221z" />
    <glyph glyph-name="ampersand" unicode="&#x26;" horiz-adv-x="1095" 
d="M664 1239l9 -1q10 0 19 -2q25 -4 43 -17q50 -36 36 -137t-75 -137q-21 -13 -47 -17q-10 -2 -20 -2l-9 -1h-12q-9 0 -16 1q-11 1 -20 3q-24 5 -40 19q-46 37 -32 134q14 101 74 137q21 13 48 17q9 2 20 2l8 1h14zM773 463q-7 -54 -25 -98l-60 83l-172 -133l74 -102
q-38 -10 -84 -10q-129 0 -174 85q-35 65 -20 175q16 109 69 174q69 86 198 86v0h6q154 0 260 98q106 97 129 261t-56 262q-78 97 -232 97t-260 -97q-106 -98 -129 -262q-20 -142 37 -236q-188 -124 -224 -383q-30 -211 70 -337q101 -126 298 -126q125 0 229 53l39 -53h269
l-142 195q81 111 103 268h-203z" />
    <glyph glyph-name="quotesingle" unicode="'" horiz-adv-x="373" 
d="M122 1450l-42 -296l178 49l35 247h-171z" />
    <glyph glyph-name="parenleft" unicode="(" horiz-adv-x="711" 
d="M216 -110l202 60q-126 757 213 1514l-186 59q-365 -816 -229 -1633z" />
    <glyph glyph-name="parenright" unicode=")" horiz-adv-x="711" 
d="M80 -50l185 -60q366 817 230 1633l-202 -59q126 -757 -213 -1514z" />
    <glyph glyph-name="asterisk" unicode="*" horiz-adv-x="534" 
d="M382 1608l-103 -90l-78 90l-96 -83l78 -91l-103 -90l72 -84l103 90l78 -90l95 84l-78 90l104 91z" />
    <glyph glyph-name="plus" unicode="+" horiz-adv-x="814" 
d="M350 1038l-30 -212h-212l-28 -202h212l-30 -212h202l30 212h212l28 202h-211l29 212h-202z" />
    <glyph glyph-name="comma" unicode="," horiz-adv-x="374" 
d="M123 -4l-43 -296l178 47l36 248z" />
    <glyph glyph-name="hyphen" unicode="-" horiz-adv-x="724" 
d="M108 826l-28 -202h536l28 202h-536z" />
    <glyph glyph-name="hyphen" unicode="&#xad;" horiz-adv-x="724" 
d="M108 826l-28 -202h536l28 202h-536z" />
    <glyph glyph-name="period" unicode="." horiz-adv-x="396" 
d="M130 190q-37 -32 -44 -78q-6 -47 22 -79q28 -33 74 -33t84 33q37 32 43 79q7 46 -21 78q-28 33 -75 33q-46 0 -83 -33z" />
    <glyph glyph-name="slash" unicode="/" horiz-adv-x="837" 
d="M535 1561l-455 -1741h221l456 1741h-222z" />
    <glyph glyph-name="zero" unicode="0" horiz-adv-x="1287" 
d="M340 404q-18 74 -17 171q1 71 12 148q11 76 30 147q26 97 65 171q105 202 287 202q181 0 230 -202q18 -74 17 -171q-1 -71 -12 -147q-10 -77 -29 -148q-27 -97 -65 -171q-106 -201 -287 -201q-182 0 -231 201zM374 1284q-190 -192 -242 -561q-52 -370 84 -561
q115 -162 326 -162t371 162q190 191 242 561q52 369 -84 561q-115 161 -326 161t-371 -161z" />
    <glyph glyph-name="one" unicode="1" horiz-adv-x="666" 
d="M387 1441l-307 -260l120 -146l144 122l-163 -1157h203l202 1441h-199z" />
    <glyph glyph-name="two" unicode="2" horiz-adv-x="1239" 
d="M1134 967q25 217 -81 345q-107 129 -312 129t-347 -129q-143 -128 -178 -345l200 -16q17 121 76 193q78 95 221 95q141 0 192 -92q40 -70 25 -188l-1 -4q-15 -93 -66 -140l-754 -610l-29 -205h914l28 203h-615l575 465l5 4q115 104 144 278h1l1 9l1 8v0z" />
    <glyph glyph-name="three" unicode="3" horiz-adv-x="1240" 
d="M1136 1053q24 177 -82 283q-107 105 -310 105q-197 0 -331 -100q-135 -100 -165 -268l199 -16q16 101 102 147q66 35 167 35q102 0 158 -36q73 -46 59 -150q-15 -104 -101 -150q-66 -35 -168 -35h-140l-29 -203h140q126 0 194 -44q90 -58 72 -187q-18 -130 -124 -187
q-81 -44 -207 -44q-125 0 -193 43q-90 58 -72 187l-205 -17q-20 -190 99 -303q120 -113 343 -113q228 0 381 118t181 316q31 223 -123 342q130 105 155 277z" />
    <glyph glyph-name="four" unicode="4" horiz-adv-x="1123" 
d="M643 1441l-539 -898l-24 -171h477l-52 -372h203l52 372h255l28 203h-255l38 269h-202l-38 -269h-240l520 866h-223z" />
    <glyph glyph-name="five" unicode="5" horiz-adv-x="1251" 
d="M666 924h-243l84 315h610l54 202h-814l-193 -720h454q270 0 234 -259q-37 -259 -307 -259t-233 259h-203q-29 -211 82 -336q111 -126 326 -126t361 126q147 125 176 336q29 205 -76 331q-106 125 -312 131v0z" />
    <glyph glyph-name="six" unicode="6" horiz-adv-x="1195" 
d="M335 292q-38 68 -22 182q17 115 73 183q75 89 213 89q139 0 188 -89q38 -68 22 -183q-16 -114 -73 -182q-74 -89 -213 -89t-188 89zM465 924q208 319 621 319l29 202q-402 0 -670 -252q-269 -252 -330 -686h1l-5 -33q-31 -216 74 -345q104 -129 309 -129q206 0 346 129
q141 129 171 345q31 216 -74 345q-104 130 -309 130q-86 0 -163 -25z" />
    <glyph glyph-name="seven" unicode="7" horiz-adv-x="1279" 
d="M310 1441l-29 -202h654l-855 -1239h231l861 1247l27 194h-889z" />
    <glyph glyph-name="eight" unicode="8" horiz-adv-x="1246" 
d="M383 247q-90 57 -72 187q18 129 124 187q81 44 207 44q125 0 193 -44q90 -58 72 -187q-18 -130 -124 -187q-81 -44 -206 -44q-126 0 -194 44zM880 1203q74 -46 59 -150t-101 -150q-66 -35 -168 -35t-158 35q-73 46 -59 150q15 104 101 150q66 36 168 36t158 -36z
M1142 1053q24 177 -82 283q-106 105 -309 105t-340 -105q-136 -106 -161 -283q-24 -171 77 -277q-187 -118 -219 -342q-28 -198 92 -316t348 -118t381 118t181 316q31 224 -123 342q131 105 155 277z" />
    <glyph glyph-name="nine" unicode="9" horiz-adv-x="1194" 
d="M408 789q-38 68 -22 182t73 182q74 90 213 90t188 -90q37 -68 21 -182t-72 -182q-75 -90 -213 -90q-139 0 -188 90zM355 1316q-141 -129 -171 -345q-31 -216 74 -345q104 -129 309 -129q86 0 163 24q-208 -318 -622 -318l-28 -203q401 0 670 252t330 687h-1l5 32
q30 216 -74 345t-310 129q-205 0 -345 -129z" />
    <glyph glyph-name="colon" unicode=":" horiz-adv-x="458" 
d="M192 835q-37 -33 -43 -79q-7 -46 21 -79q28 -32 75 -32q46 0 83 32q37 33 44 79q6 46 -22 79t-74 33t-84 -33zM130 390q-37 -32 -44 -78q-6 -47 22 -79q28 -33 74 -33t84 33q37 32 43 79q7 46 -21 78q-28 33 -75 33q-46 0 -83 -33z" />
    <glyph glyph-name="semicolon" unicode=";" horiz-adv-x="453" 
d="M187 838q-37 -33 -44 -79q-6 -46 22 -79t74 -33t83 33q38 33 44 79q7 46 -21 79q-28 32 -75 32q-46 0 -83 -32zM80 130l178 47l36 248l-171 1z" />
    <glyph glyph-name="semicolon" unicode="&#x37e;" horiz-adv-x="453" 
d="M187 838q-37 -33 -44 -79q-6 -46 22 -79t74 -33t83 33q38 33 44 79q7 46 -21 79q-28 32 -75 32q-46 0 -83 -32zM80 130l178 47l36 248l-171 1z" />
    <glyph glyph-name="less" unicode="&#x3c;" horiz-adv-x="634" 
d="M80 725l265 -307l163 143l-141 164l187 164l-123 143z" />
    <glyph glyph-name="equal" unicode="=" horiz-adv-x="771" 
d="M155 993l-28 -203h536l28 203h-536zM80 457h536l29 203h-537z" />
    <glyph glyph-name="greater" unicode="&#x3e;" horiz-adv-x="634" 
d="M126 889l141 -164l-187 -164l123 -143l351 307l-265 307z" />
    <glyph glyph-name="question" unicode="?" horiz-adv-x="1099" 
d="M251 1328q-139 -112 -171 -300l200 -16q18 126 109 182q70 43 177 43t165 -43q76 -56 58 -182t-109 -183q-70 -43 -177 -43h-101l-50 -350h203l22 156q169 27 279 138q112 112 136 282q27 195 -81 311q-108 117 -316 117q-204 0 -344 -112zM340 190q-37 -32 -44 -78
q-6 -47 22 -79q28 -33 74 -33q47 0 84 33q37 32 44 79q6 46 -22 78q-28 33 -74 33t-84 -33z" />
    <glyph glyph-name="at" unicode="@" horiz-adv-x="1592" 
d="M1143 541q9 44 17 95q4 20 7 43l3 20l2 18v0l1 4q26 183 -62 292q-87 110 -260 110q-172 0 -290 -110q-118 -109 -144 -292t62 -293q87 -109 259 -109q71 0 136 20q-62 -131 -173 -136q-215 6 -311 140q-97 133 -62 378q35 250 174 384q140 134 366 134t327 -134
q102 -134 67 -384q-36 -256 -180 -389q37 91 61 209zM619 721q28 199 204 199q175 0 147 -199q-28 -200 -203 -200q-176 0 -148 200zM379 1248q-207 -194 -254 -527q-45 -323 97 -516q143 -192 435 -204v-1h6l7 1l24 -1q310 0 517 194q207 193 254 527q47 333 -106 527
q-153 193 -463 193t-517 -193z" />
    <glyph glyph-name="A" unicode="A" horiz-adv-x="1367" 
d="M993 1442v-1h-214v1v-1l-699 -1441h214l194 399h503l82 -399h214l-294 1441v1zM586 601l256 529l108 -529h-364z" />
    <glyph glyph-name="B" unicode="B" horiz-adv-x="1279" 
d="M311 203l63 450h323q112 0 172 -43q80 -56 62 -182t-113 -183q-73 -42 -185 -42h-322zM457 1239h313q228 0 201 -192q-27 -191 -255 -191h-313zM1173 1047q26 180 -76 287q-103 107 -299 107h-516l-202 -1441h525q213 0 357 116q144 117 172 312q31 220 -112 337
q127 107 151 282z" />
    <glyph glyph-name="C" unicode="C" horiz-adv-x="1404" 
d="M381 338q-86 136 -51 383q34 247 159 382q124 136 316 136q257 0 320 -234l199 77q-47 174 -174 267q-127 92 -317 92q-280 0 -469 -193q-190 -194 -237 -527q-47 -334 89 -527q135 -194 415 -194q189 0 344 95t250 268l-178 76q-128 -236 -388 -236q-192 0 -278 135z
" />
    <glyph glyph-name="D" unicode="D" horiz-adv-x="1399" 
d="M311 203l146 1036h283q192 0 278 -136q86 -135 52 -382q-35 -247 -159 -383q-125 -135 -316 -135h-284zM282 1441l-202 -1441h486q280 0 470 194q189 193 236 527q47 333 -88 527q-136 193 -415 193h-487z" />
    <glyph glyph-name="E" unicode="E" horiz-adv-x="1288" 
d="M282 1441l-202 -1441h925l29 203h-723l59 416h489l29 203h-490l59 417h722l29 202h-926z" />
    <glyph glyph-name="F" unicode="F" horiz-adv-x="1288" 
d="M282 1441l-202 -1441h203l87 619h489l29 203h-490l59 416h722l29 203h-926z" />
    <glyph glyph-name="G" unicode="G" horiz-adv-x="1406" 
d="M1024 146l-21 -146h203l101 721l14 101h-503l-28 -203h295q-48 -200 -162 -308t-278 -108q-185 0 -267 135q-83 136 -48 383t160 382q124 136 317 136q255 0 321 -227l198 80q-49 169 -176 259q-126 90 -314 90q-281 0 -472 -193q-190 -194 -237 -527q-47 -334 85 -527
q131 -194 404 -194q235 0 408 146z" />
    <glyph glyph-name="H" unicode="H" horiz-adv-x="1359" 
d="M1076 1441l-87 -619h-591l87 619h-203l-202 -1441h203l87 619h590l-86 -619h202l203 1441h-203z" />
    <glyph glyph-name="I" unicode="I" horiz-adv-x="565" 
d="M282 1441l-202 -1441h203l202 1441h-203z" />
    <glyph glyph-name="J" unicode="J" horiz-adv-x="1188" 
d="M778 533q-8 -55 -24 -104q-19 -62 -51 -107q-80 -119 -228 -119q-156 0 -200 130l-195 -87q40 -119 135 -183q94 -63 231 -63q213 0 356 143q144 143 178 390l128 909h-203z" />
    <glyph glyph-name="K" unicode="K" horiz-adv-x="1386" 
d="M282 1441l-202 -1441h203l72 516l126 123l368 -639h249l-457 794l665 646h-271l-637 -619l87 620h-203z" />
    <glyph glyph-name="L" unicode="L" horiz-adv-x="1020" 
d="M282 1441l-202 -1441h831l29 203h-629l174 1238h-203z" />
    <glyph glyph-name="M" unicode="M" horiz-adv-x="1552" 
d="M1263 1440l-541 -1101l-231 1101h-209l-202 -1440h203l118 845l171 -813v0v0v0h214h1v0v1l399 812l-119 -845h203l202 1440h-209z" />
    <glyph glyph-name="N" unicode="N" horiz-adv-x="1322" 
d="M282 1441l-202 -1440h203l144 1030l397 -1031h216l202 1440h-202l-145 -1030l-397 1031h-216z" />
    <glyph glyph-name="O" unicode="O" horiz-adv-x="1435" 
d="M378 338q-83 136 -48 383t155 382q121 136 305 136q185 0 267 -136q83 -135 48 -382t-155 -383q-121 -135 -305 -135q-185 0 -267 135zM360 1248q-186 -194 -233 -527q-47 -334 85 -527q131 -194 404 -194t459 194q186 193 233 527q47 333 -85 527q-131 193 -404 193
t-459 -193z" />
    <glyph glyph-name="P" unicode="P" horiz-adv-x="1256" 
d="M397 814l60 424h269q105 0 163 -40q75 -53 58 -172q-16 -119 -107 -172q-68 -40 -174 -40h-269zM282 1441l-202 -1441h203l85 611h269q207 0 347 113q139 113 166 302q26 189 -81 302q-108 113 -315 113h-472z" />
    <glyph glyph-name="Q" unicode="Q" horiz-adv-x="1434" 
d="M764 337h-203l14 -129q-149 25 -213 157q-64 133 -33 356q35 246 155 382q121 136 305 136q185 0 267 -136q83 -136 48 -382q-28 -200 -113 -328q-84 -127 -215 -170zM359 1248q-186 -194 -233 -527q-46 -328 81 -521q126 -193 390 -200l14 -134h203l-17 159
q203 58 336 239q135 183 174 457q47 333 -85 527q-131 193 -404 193t-459 -193z" />
    <glyph glyph-name="R" unicode="R" horiz-adv-x="1256" 
d="M397 814l60 425h269q105 0 163 -41q75 -53 58 -172q-16 -119 -107 -172q-68 -40 -174 -40h-269zM1069 1328q-108 113 -315 113h-472l-202 -1441h203l85 611h231l207 -611h224l-215 636q138 42 226 143q89 103 109 247q26 189 -81 302z" />
    <glyph glyph-name="S" unicode="S" horiz-adv-x="1283" 
d="M583 846q-53 9 -89 28q-96 50 -80 165q17 115 126 165q42 19 97 28q42 7 90 7q47 0 86 -7q51 -8 88 -26q94 -48 84 -157l204 17q14 172 -103 273q-117 102 -331 102q-221 0 -369 -109q-148 -110 -174 -293t91 -293q118 -110 339 -110q52 0 96 -7q56 -9 95 -30
q103 -55 85 -180q-17 -125 -135 -179q-45 -21 -104 -30q-46 -7 -97 -7q-52 0 -96 7q-56 9 -95 30q-103 54 -86 179h-6l-198 -15q-21 -188 100 -296t352 -108q236 0 388 113q153 112 180 306q27 195 -94 307q-121 113 -356 113q-48 0 -88 7z" />
    <glyph glyph-name="T" unicode="T" horiz-adv-x="1215" 
d="M108 1441l-28 -203h412l-174 -1238h203l174 1238h412l28 203h-1027z" />
    <glyph glyph-name="U" unicode="U" horiz-adv-x="1397" 
d="M996 597q-9 -66 -29 -124q-25 -74 -65 -128q-104 -142 -299 -142q-194 0 -259 142q-25 54 -29 128q-3 58 6 124l119 844h-203l-119 -844q-38 -276 84 -437q123 -160 373 -160t417 160q168 161 207 437l118 844h-202z" />
    <glyph glyph-name="V" unicode="V" horiz-adv-x="1386" 
d="M1092 1443l-560 -1135l-237 1135h-215l302 -1443h213l711 1443h-214z" />
    <glyph glyph-name="W" unicode="W" horiz-adv-x="1921" 
d="M1632 1443l-427 -1048l-130 1048h-228l-427 -1048l-130 1048h-210l179 -1443h210l441 1084l134 -1084h210l587 1443h-209z" />
    <glyph glyph-name="X" unicode="X" horiz-adv-x="1621" 
d="M1294 1443l-440 -523l-293 523h-248l392 -700l-625 -743h248l476 567l318 -567h247l-416 743l588 700h-247z" />
    <glyph glyph-name="Y" unicode="Y" horiz-adv-x="1336" 
d="M1013 1443l-417 -518l-272 518h-244l384 -730l-100 -713h202l100 710l590 733h-243z" />
    <glyph glyph-name="Z" unicode="Z" horiz-adv-x="1391" 
d="M287 1441l-28 -202h766l-918 -1045l-27 -194h1079l29 203h-821l917 1044l27 194h-1024z" />
    <glyph glyph-name="bracketleft" unicode="[" horiz-adv-x="785" 
d="M321 1567l-241 -1717h384l28 203h-181l184 1311h181l29 203h-384z" />
    <glyph glyph-name="backslash" unicode="\" horiz-adv-x="837" 
d="M80 1561l455 -1741h222l-456 1741h-221z" />
    <glyph glyph-name="bracketright" unicode="]" horiz-adv-x="785" 
d="M464 -150l241 1717h-384l-28 -203h181l-184 -1311h-182l-28 -203h384z" />
    <glyph glyph-name="asciicircum" unicode="^" horiz-adv-x="775" 
d="M387 1450l-307 -307l143 -143l164 164l164 -164l144 143z" />
    <glyph glyph-name="underscore" unicode="_" horiz-adv-x="1022" 
d="M123 -4l-43 -202h818l44 202h-819z" />
    <glyph glyph-name="grave" unicode="`" horiz-adv-x="448" 
d="M183 1152l185 3l-124 272l-164 -48z" />
    <glyph glyph-name="a" unicode="a" 
d="M822 490q-17 -121 -76 -193q-77 -94 -220 -94q-144 0 -195 95q-38 72 -21 193t76 194q77 94 221 94q143 0 194 -94q38 -72 22 -193zM880 901q-55 52 -139 70l-9 3q-46 8 -97 8t-99 -8l-10 -3q-168 -32 -279 -159q-113 -128 -140 -321q-27 -192 49 -319q75 -127 232 -161
l11 -2q46 -9 98 -9t101 9l11 2q87 19 156 70l-11 -81h202l138 981h-203z" />
    <glyph glyph-name="b" unicode="b" 
d="M373 297q-38 72 -22 193l1 2q17 121 76 193q77 94 221 94q143 0 194 -94q38 -73 21 -194t-75 -193q-78 -95 -221 -95q-144 0 -195 94zM1018 812q-76 127 -235 159l-9 3q-46 8 -97 8t-99 -8l-10 -3q-89 -18 -159 -70l76 540h-203l-202 -1441h203l11 81q54 -51 136 -70
l11 -2q46 -9 98 -9t101 9l11 2q167 34 278 161t138 319q27 193 -49 321z" />
    <glyph glyph-name="c" unicode="c" horiz-adv-x="1095" 
d="M760 65q117 65 187 183l-172 84q-77 -129 -245 -129q-144 0 -195 94q-38 73 -21 194t76 194q77 94 221 94q166 0 208 -127l196 85q-38 117 -136 181q-99 64 -240 64q-209 0 -353 -134q-143 -133 -175 -357q-31 -224 75 -357q106 -134 315 -134q142 0 259 65z" />
    <glyph glyph-name="d" unicode="d" horiz-adv-x="1239" 
d="M801 685q38 -72 22 -193l-1 -2q-17 -121 -76 -193q-77 -94 -220 -94q-144 0 -195 95q-38 72 -21 193t76 194q77 94 221 94q143 0 194 -94zM399 9q46 -9 98 -9t101 9l11 2q87 19 156 70l-11 -81h202l203 1441h-203l-76 -540q-55 52 -139 70l-9 3q-46 8 -97 8t-99 -8
l-10 -3q-168 -32 -279 -159q-113 -128 -140 -321q-27 -192 49 -319q75 -127 232 -161z" />
    <glyph glyph-name="e" unicode="e" horiz-adv-x="1117" 
d="M339 595q70 184 272 184q201 0 219 -184h-491zM1029 491v0l1 9q7 49 6 95q-3 180 -108 283q-106 104 -289 104q-209 0 -353 -134q-143 -133 -175 -357q-31 -224 77 -357q109 -134 323 -134q148 0 272 64q124 63 195 176l-170 89q-37 -59 -108 -93q-72 -33 -161 -33
q-218 0 -230 200h708z" />
    <glyph glyph-name="f" unicode="f" horiz-adv-x="849" 
d="M107 0h203l110 779h124l29 203h-124q22 111 82 175q76 82 209 82l29 202q-201 0 -343 -124q-141 -125 -180 -335h-138l-28 -203h137z" />
    <glyph glyph-name="g" unicode="g" horiz-adv-x="1262" 
d="M889 685q39 -72 22 -192v-4q-18 -121 -77 -192q-77 -95 -220 -95q-144 0 -194 95q-39 72 -22 194q17 121 76 193q77 95 221 95q143 0 194 -94zM487 9q46 -9 98 -9t101 9l12 2q87 19 155 70l-15 -111q-41 -288 -327 -288q-80 0 -137 25q-74 33 -100 107l-194 -90
q42 -118 146 -182q103 -63 256 -63q223 0 375 134q152 133 183 357l142 1011h-202l-12 -81q-55 52 -139 71l-9 2q-46 9 -97 9t-99 -9l-10 -2q-168 -33 -279 -160q-113 -128 -140 -320t49 -320q75 -126 232 -160z" />
    <glyph glyph-name="h" unicode="h" horiz-adv-x="1091" 
d="M353 498q18 119 69 189q68 92 187 92q122 0 163 -95q31 -72 14 -193l-69 -491h203l69 491q22 160 -22 277q-44 116 -145 171q-79 43 -184 43t-196 -43q-15 -8 -30 -17l73 519h-203l-202 -1441h203z" />
    <glyph glyph-name="i" unicode="i" horiz-adv-x="550" 
d="M218 982l-138 -982h203l138 982h-203zM420 1139q37 33 44 79q6 46 -22 79q-28 32 -74 32t-83 -32q-38 -33 -44 -79q-7 -46 21 -79t75 -33q46 0 83 33z" />
    <glyph glyph-name="j" unicode="j" horiz-adv-x="890" 
d="M80 -505q215 0 362 137t180 367l138 981h-203l-138 -981q-18 -127 -79 -202q-81 -99 -232 -99zM759 1139q38 32 44 79q7 46 -21 78q-29 33 -75 33t-83 -33q-38 -32 -44 -78q-7 -47 22 -79q28 -33 74 -33t83 33z" />
    <glyph glyph-name="k" unicode="k" horiz-adv-x="1083" 
d="M324 292q31 29 151 151l223 -443h241l-304 605q97 99 368 376h-265q-246 -251 -371 -378l118 838h-203l-202 -1441h203z" />
    <glyph glyph-name="l" unicode="l" horiz-adv-x="565" 
d="M282 1441l-202 -1441h203l202 1441h-203z" />
    <glyph glyph-name="m" unicode="m" horiz-adv-x="1729" 
d="M353 498q18 119 69 189q68 92 187 92q122 0 163 -95q31 -72 14 -193l-69 -491h203l69 491v4q18 120 70 191q67 93 188 93t162 -95q32 -72 15 -193l-69 -491h202l69 491q23 160 -22 277q-44 116 -145 171q-79 43 -184 43t-196 -43q-80 -40 -137 -119q-44 78 -120 119
q-79 43 -184 43t-196 -43q-15 -8 -30 -17l8 59h-202l-138 -981h203z" />
    <glyph glyph-name="n" unicode="n" horiz-adv-x="1091" 
d="M638 982q-105 0 -196 -43q-15 -8 -30 -17l8 59h-202l-138 -981h203l70 498q18 119 69 189q68 92 187 92q122 0 163 -95q31 -72 14 -193l-69 -491h203l69 491q22 160 -22 277q-44 116 -145 171q-79 43 -184 43z" />
    <glyph glyph-name="o" unicode="o" horiz-adv-x="1141" 
d="M335 297q-38 73 -21 194t76 194q77 94 221 94q143 0 194 -94q39 -73 22 -194t-76 -194q-78 -94 -221 -94q-144 0 -195 94zM286 848q-143 -133 -175 -357q-31 -224 75 -357q106 -134 315 -134t353 134q144 133 175 357q32 224 -74 357q-107 134 -316 134t-353 -134z" />
    <glyph glyph-name="p" unicode="p" horiz-adv-x="1238" 
d="M416 493q18 121 77 193q77 94 220 94q144 0 194 -95q39 -72 22 -194q-17 -121 -76 -193q-77 -95 -221 -95q-143 0 -194 94q-39 71 -22 192v4zM604 0q51 0 99 9l10 2q168 33 279 160q113 128 140 320q26 192 -49 320q-75 126 -232 160l-11 2q-47 9 -98 9q-52 0 -102 -9
l-11 -2q-87 -19 -155 -70l11 81h-203l-202 -1441h203l76 541q55 -52 139 -71l9 -2q46 -9 97 -9z" />
    <glyph glyph-name="q" unicode="q" 
d="M386 685q77 95 221 95q143 0 194 -95q38 -72 22 -193l-1 -2q-17 -121 -76 -193q-77 -94 -220 -94q-144 0 -195 95q-38 72 -21 193q17 122 76 194zM606 11q89 19 159 71l-76 -541h203l202 1441h-203l-11 -81q-54 51 -136 70l-10 2q-47 9 -99 9t-101 -9l-11 -2
q-167 -34 -278 -160q-111 -128 -138 -320t49 -320q76 -127 235 -160l9 -2q46 -9 97 -9t99 9z" />
    <glyph glyph-name="r" unicode="r" horiz-adv-x="756" 
d="M352 491q17 121 76 193q77 94 220 94l28 203q-51 0 -100 -9l-11 -2q-87 -20 -156 -71l11 81h-202l-138 -980h203z" />
    <glyph glyph-name="s" unicode="s" horiz-adv-x="986" 
d="M405 206q-33 4 -57 14q-61 24 -53 81l-205 -16q-10 -117 65 -193q90 -92 277 -92q194 0 311 99q97 82 114 203q17 120 -57 202q-89 99 -283 99q-28 0 -52 3q-30 4 -52 12q-56 22 -48 73q7 51 69 73q24 8 55 12q25 3 52 3t51 -3q29 -3 51 -12q56 -21 51 -69l204 16
q8 111 -64 184q-86 87 -264 87q-187 0 -299 -95q-93 -79 -109 -196q-16 -116 54 -196q86 -95 272 -95q30 0 56 -3q33 -4 57 -14q61 -24 53 -81t-76 -82q-27 -10 -61 -14q-27 -3 -57 -3t-55 3z" />
    <glyph glyph-name="t" unicode="t" horiz-adv-x="675" 
d="M167 383h-1l-10 -76q-20 -137 49 -222q68 -85 198 -85h53l29 203h-53q-41 0 -58 17q-24 25 -16 87l11 76v0l53 379l145 17l28 203l-144 -17l46 328h-203l-46 -328l-140 17l-28 -203l140 -17z" />
    <glyph glyph-name="u" unicode="u" horiz-adv-x="1091" 
d="M454 0q105 0 196 43q14 7 29 17l-8 -59h203l137 981h-202l-70 -498q-18 -119 -70 -190q-67 -91 -187 -91q-122 0 -163 94q-31 72 -14 194l69 491h-203l-68 -491q-23 -160 22 -278q43 -115 145 -170q78 -43 184 -43z" />
    <glyph glyph-name="v" unicode="v" horiz-adv-x="1083" 
d="M787 981l-343 -683l-149 683h-215l214 -981h216l493 981h-216z" />
    <glyph glyph-name="w" unicode="w" horiz-adv-x="1561" 
d="M1270 981l-282 -652l-97 652h-241l-267 -619l-92 619h-211l146 -981h212l289 669l99 -669h231l424 981h-211z" />
    <glyph glyph-name="x" unicode="x" horiz-adv-x="1232" 
d="M905 981l-251 -299l-167 299h-248l266 -475l-425 -506h248l276 329l185 -329h247l-283 506l399 475h-247z" />
    <glyph glyph-name="y" unicode="y" horiz-adv-x="1189" 
d="M837 484q-18 -119 -70 -190q-67 -91 -187 -91q-122 0 -163 94q-31 72 -14 194l69 490h-203l-69 -490q-22 -161 22 -278q44 -116 146 -170q78 -43 184 -43q105 0 196 43q14 7 29 16l-15 -108q-35 -249 -283 -249q-69 0 -118 21q-64 29 -87 92l-194 -89q39 -110 134 -169
q96 -58 236 -58q206 0 346 123t169 329l144 1030h-202z" />
    <glyph glyph-name="z" unicode="z" horiz-adv-x="1122" 
d="M230 982l-28 -203h525l-621 -591l-26 -188h829l28 203h-542l621 590l26 189h-812z" />
    <glyph glyph-name="braceleft" unicode="{" horiz-adv-x="786" 
d="M261 496q-20 -310 30 -606l202 60q-127 757 213 1514l-186 59q-133 -296 -200 -606l-77 -67l-163 -143l113 -132z" />
    <glyph glyph-name="bar" unicode="|" horiz-adv-x="363" 
d="M80 1601v-1797h203v1797h-203z" />
    <glyph glyph-name="braceright" unicode="}" horiz-adv-x="786" 
d="M524 917q20 310 -29 606l-202 -59q126 -757 -213 -1514l185 -60q133 296 200 606l77 67l164 144l-113 131z" />
    <glyph glyph-name="asciitilde" unicode="~" horiz-adv-x="725" 
d="M348 621l67 14q38 8 67 11q75 8 134 -11q14 94 29 191q-94 43 -268 4l-67 -15q-38 -8 -67 -11q-76 -8 -135 11q-15 -105 -28 -191q94 -43 268 -3z" />
    <glyph glyph-name="exclamdown" unicode="&#xa1;" horiz-adv-x="566" 
d="M283 0l141 1005h-203l-141 -1005h203zM436 1251q37 32 44 78q6 47 -22 79q-28 33 -74 33q-47 0 -84 -33q-37 -32 -44 -79q-6 -46 22 -78q28 -33 74 -33q47 0 84 33z" />
    <glyph glyph-name="cent" unicode="&#xa2;" horiz-adv-x="1030" 
d="M315 882q40 84 130 112l-75 -511q-87 72 -87 236q0 97 32 163zM766 560q-51 -111 -182 -127l80 549q68 -32 101 -103l184 85q-77 167 -255 223l37 250h-221l-34 -231q-183 -21 -289 -151q-107 -131 -107 -336q0 -163 69 -281q67 -117 189 -170l-39 -268h221l34 228
q137 3 240 68q104 65 156 180z" />
    <glyph glyph-name="sterling" unicode="&#xa3;" horiz-adv-x="1368" 
d="M575 1086q21 88 114 126q36 15 81 21q36 6 75 6q102 0 160 -32q75 -40 66 -132l204 17q13 160 -95 254q-109 95 -307 95q-193 0 -326 -90q-134 -90 -171 -244l-296 -1107h967l55 200v3h-764l68 252h295l55 203h-296l21 77h296l55 203h-296l38 145z" />
    <glyph glyph-name="currency" unicode="&#xa4;" horiz-adv-x="929" 
d="M308 560q41 -40 99 -57q29 -8 58 -8t58 8q58 17 99 57q40 41 57 99q9 29 9 58t-9 58q-17 58 -57 99q-41 40 -100 57q-29 8 -58 8t-58 -9q-58 -17 -98 -56q-39 -40 -56 -98q-10 -30 -10 -60q0 -28 9 -56q16 -59 57 -100zM198 903l-118 118l80 81l118 -118q44 30 99 46
q44 14 89 14q41 0 83 -12q57 -17 102 -48l118 118l80 -81l-117 -117q31 -46 48 -102q12 -42 12 -85q0 -42 -12 -85q-17 -56 -48 -102l117 -117l-80 -81l-118 118q-45 -32 -101 -48q-42 -12 -85 -12q-42 0 -85 12q-57 16 -102 48l-118 -118l-80 81l118 117q-32 46 -48 103
q-12 42 -12 84q0 44 13 87q16 55 47 99z" />
    <glyph glyph-name="yen" unicode="&#xa5;" horiz-adv-x="1336" 
d="M1013 1443l-417 -518l-272 518h-244l384 -730l-12 -86h-152l-55 -203h178l-59 -424h202l60 424h152l55 203h-179l12 83l590 733h-243z" />
    <glyph glyph-name="brokenbar" unicode="&#xa6;" horiz-adv-x="320" 
d="M80 371h160v-789h-160v789zM80 1578h160v-789h-160v789z" />
    <glyph glyph-name="section" unicode="&#xa7;" horiz-adv-x="1245" 
d="M562 765q51 -6 82 -24q38 -24 41 -65q-113 16 -123 89zM739 455q-81 86 -260 86q-32 0 -59 4q-34 5 -59 16q-64 28 -55 94q11 76 107 102q0 -99 70 -160q83 -72 245 -72q179 0 284 86q89 73 105 185q15 111 -53 184q-81 86 -260 86q-31 0 -58 4q-35 5 -60 16
q-64 28 -55 94q10 65 82 93q27 11 63 16q28 4 60 4q31 0 58 -4q34 -4 58 -15q63 -27 57 -89l148 12q8 102 -58 167q-78 76 -242 76q-172 0 -272 -83q-85 -70 -100 -177q-15 -108 50 -177q77 -83 249 -83q34 0 63 -4q37 -6 64 -18q69 -31 59 -102q-13 -93 -137 -117
q5 100 -62 162q-78 74 -239 74q-172 0 -273 -83q-84 -70 -99 -177q-15 -108 50 -177q77 -83 248 -83q35 0 64 -4q37 -6 64 -18q69 -31 59 -102q-10 -72 -88 -103q-30 -12 -69 -17q-30 -4 -64 -4t-63 4q-37 5 -64 17q-68 30 -60 100l-148 -12q-9 -107 60 -175q81 -81 254 -81
q179 0 284 86q89 73 104 185q16 112 -52 184z" />
    <glyph glyph-name="dieresis" unicode="&#xa8;" horiz-adv-x="705" 
d="M247 1590q33 29 39 71q6 41 -19 71q-26 29 -67 29q-42 0 -75 -29q-33 -30 -39 -71q-6 -42 19 -71t67 -29q41 0 75 29zM458 1732q-33 -30 -39 -71q-6 -42 19 -71q26 -29 67 -29q42 0 75 29q34 29 39 71q6 41 -19 71q-25 29 -67 29q-41 0 -75 -29z" />
    <glyph glyph-name="copyright" unicode="&#xa9;" horiz-adv-x="1594" 
d="M396 336q-102 134 -66 385q35 250 174 384q140 134 366 134t327 -134q102 -134 67 -384q-35 -251 -174 -385q-140 -133 -366 -133t-328 133zM381 1248q-207 -194 -254 -527q-47 -334 106 -527q153 -194 463 -194t517 194q207 193 254 527q47 333 -106 527
q-153 193 -463 193t-517 -193zM780 557h-9q-11 1 -21 2q-26 5 -44 18q-53 38 -38 144q15 105 78 143q22 13 50 18q10 2 21 2h9h7q60 0 90 -27q11 -10 18 -23l4 -10l2 -4l1 -4l196 86q-29 88 -103 137q-74 48 -179 48q-157 0 -265 -100q-108 -99 -132 -266q-23 -167 57 -267
t237 -100q106 0 194 49t141 139l-173 84l-2 -4l-2 -4l-8 -10q-10 -13 -24 -23q-38 -28 -98 -28h-7z" />
    <glyph glyph-name="ordfeminine" unicode="&#xaa;" horiz-adv-x="648" 
 />
    <glyph glyph-name="guillemotleft" unicode="&#xab;" horiz-adv-x="1014" 
d="M80 725l265 -307l163 143l-141 164l187 164l-123 143zM460 725l265 -307l163 143l-141 164l187 164l-123 143z" />
    <glyph glyph-name="logicalnot" unicode="&#xac;" horiz-adv-x="1014" 
 />
    <glyph glyph-name="registered" unicode="&#xae;" horiz-adv-x="1594" 
d="M742 800l13 92h73q42 0 54 -16q5 -6 5 -15v-8l-1 -7l-1 -8l-2 -7q-3 -9 -8 -14q-14 -16 -51 -17h-82zM1040 1026q-64 68 -184 68h-275l-102 -726h203l32 229h68l44 -229h213l-56 292q89 70 106 186q15 111 -49 180zM396 336q-102 134 -66 385q35 250 174 384
q140 134 366 134t327 -134q102 -134 67 -384q-35 -251 -174 -385q-140 -133 -366 -133t-328 133zM381 1248q-207 -194 -254 -527q-47 -334 106 -527q153 -194 463 -194t517 194q207 193 254 527q47 333 -106 527q-153 193 -463 193t-517 -193z" />
    <glyph glyph-name="macron" unicode="&#xaf;" horiz-adv-x="863" 
d="M110 1601l-30 -160h673l30 160h-673z" />
    <glyph glyph-name="degree" unicode="&#xb0;" horiz-adv-x="716" 
d="M359 1372q-86 0 -147.5 -61t-61.5 -148t61 -147t148 -60t147 60t60 147t-60.5 148t-146.5 61zM359 1442q115 0 196 -81.5t81 -196.5q0 -114 -82 -196t-197 -82q-117 0 -197 81t-80 197t81.5 197t197.5 81z" />
    <glyph glyph-name="plusminus" unicode="&#xb1;" horiz-adv-x="836" 
d="M371 1236l-29 -212h-212l-28 -203h211l-29 -211h202l30 211h212l28 203h-212l30 212h-203zM80 289h537l28 203h-536z" />
    <glyph glyph-name="uni00B2" unicode="&#xb2;" horiz-adv-x="1014" 
 />
    <glyph glyph-name="uni00B3" unicode="&#xb3;" horiz-adv-x="1014" 
 />
    <glyph glyph-name="acute" unicode="&#xb4;" horiz-adv-x="1024" 
 />
    <glyph glyph-name="mu" unicode="&#xb5;" horiz-adv-x="1202" 
d="M850 483q-18 -119 -70 -189q-67 -91 -187 -91q-122 0 -163 94q-31 72 -14 193l69 491v1h-203l-68 -491l-1 -1l-133 -950h203l72 518q13 -9 26 -15q78 -43 184 -43q105 0 196 43q14 7 29 16l-8 -58h203l137 981h-202z" />
    <glyph glyph-name="paragraph" unicode="&#xb6;" horiz-adv-x="996" 
d="M916 1435v-70h-127v-1365h-82v1365h-166v-1365h-84v738q-174 8 -275.5 102.5t-101.5 245.5q0 157 107.5 253t285.5 96h443z" />
    <glyph glyph-name="periodcentered" unicode="&#xb7;" horiz-adv-x="396" 
d="M130 804q-37 -33 -44 -79q-6 -46 22 -79q28 -32 74 -32t84 32q37 33 43 79q7 46 -21 79t-75 33q-46 0 -83 -33z" />
    <glyph glyph-name="periodcentered" unicode="&#x2219;" horiz-adv-x="396" 
d="M130 804q-37 -33 -44 -79q-6 -46 22 -79q28 -32 74 -32t84 32q37 33 43 79q7 46 -21 79t-75 33q-46 0 -83 -33z" />
    <glyph glyph-name="cedilla" unicode="&#xb8;" horiz-adv-x="412" 
d="M125 3l5 -132l39 -8q32 -6 45 -22q10 -14 5 -39q-4 -25 -20 -34q-17 -11 -49 -5q-14 3 -26 9l-44 -91q23 -12 51 -17q21 -4 40 -4q46 0 80 21q54 32 68 102q13 69 -25 119q-24 32 -66 49l-1 50z" />
    <glyph glyph-name="uni00B9" unicode="&#xb9;" horiz-adv-x="1014" 
 />
    <glyph glyph-name="ordmasculine" unicode="&#xba;" horiz-adv-x="718" 
 />
    <glyph glyph-name="guillemotright" unicode="&#xbb;" horiz-adv-x="1014" 
d="M934 725l-264 307l-163 -143l141 -164l-188 -164l124 -143zM554 725l-264 307l-163 -143l141 -164l-188 -164l124 -143z" />
    <glyph glyph-name="onequarter" unicode="&#xbc;" horiz-adv-x="1708" 
 />
    <glyph glyph-name="onehalf" unicode="&#xbd;" horiz-adv-x="1964" 
 />
    <glyph glyph-name="threequarters" unicode="&#xbe;" horiz-adv-x="1708" 
 />
    <glyph glyph-name="questiondown" unicode="&#xbf;" horiz-adv-x="1099" 
d="M848 112q139 111 171 299l-200 17q-18 -126 -109 -183q-70 -42 -177 -42t-165 42q-76 57 -58 183t110 183q69 42 176 42h102l49 351h-203l-22 -156q-169 -27 -279 -138q-112 -113 -135 -282q-28 -195 80 -311q108 -117 317 -117q203 0 343 112zM759 1249q37 33 44 79
q6 46 -22 79t-74 33t-84 -33q-37 -33 -43 -79q-7 -46 21 -79q28 -32 75 -32q46 0 83 32z" />
    <glyph glyph-name="Agrave" unicode="&#xc0;" horiz-adv-x="1367" 
d="M993 1441h-214v1v-1l-699 -1441h214l194 399h503l82 -399h214l-294 1441v1v-1zM586 601l256 529l108 -529h-364zM792 1781l23 -193l166 -38l-69 231h-120z" />
    <glyph glyph-name="Aacute" unicode="&#xc1;" horiz-adv-x="1367" 
d="M993 1441h-214v1v-1l-699 -1441h214l194 399h503l82 -399h214l-294 1441v1v-1zM586 601l256 529l108 -529h-364zM955 1781l-133 -231l176 38l78 193h-121z" />
    <glyph glyph-name="Acircumflex" unicode="&#xc2;" horiz-adv-x="1367" 
d="M993 1441h-214v1v-1l-699 -1441h214l194 399h503l82 -399h214l-294 1441v1v-1zM586 601l256 529l108 -529h-364zM831 1753v0l-131 -115l89 -104l131 115l99 -115l118 104l-99 115l-93 70z" />
    <glyph glyph-name="Atilde" unicode="&#xc3;" horiz-adv-x="1367" 
d="M993 1441h-214v1v-1l-699 -1441h214l194 399h503l82 -399h214l-294 1441v1v-1zM586 601l256 529l108 -529h-364zM1119 1749q-36 39 -90 33q-32 -4 -100 -33l-25 -11l-25 -9q-28 -10 -50 -13q-53 -6 -90 33l-24 -167q37 -39 91 -33q21 3 49 12l25 10l26 11q67 29 99 33
q54 6 91 -33z" />
    <glyph glyph-name="Adieresis" unicode="&#xc4;" horiz-adv-x="1367" 
d="M993 1441h-214v1v-1l-699 -1441h214l194 399h503l82 -399h214l-294 1441v1v-1zM586 601l256 529l108 -529h-364zM815 1592q33 29 39 70q6 42 -19 71q-26 30 -67 30q-42 0 -75 -30q-34 -29 -39 -71q-6 -41 19 -70q25 -30 67 -30q41 0 75 30zM1026 1733q-33 -29 -39 -71
q-6 -41 19 -70q25 -30 67 -30q41 0 75 30q33 29 39 70q6 42 -19 71q-25 30 -67 30q-41 0 -75 -30z" />
    <glyph glyph-name="Aring" unicode="&#xc5;" horiz-adv-x="1367" 
d="M993 1441h-214v1v-1l-699 -1441h214l194 399h503l82 -399h214l-294 1441v1v-1zM586 601l256 529l108 -529h-364zM960 1699q13 -15 10 -37q-3 -23 -21 -38q-18 -16 -40 -16t-35 16q-14 15 -11 38q4 22 21 37q18 16 40 16t36 -16zM985 1583q37 32 43 79q7 46 -21 78
q-28 33 -75 33q-46 0 -83 -33q-37 -32 -44 -78q-6 -47 22 -79q28 -33 74 -33t84 33z" />
    <glyph glyph-name="AE" unicode="&#xc6;" horiz-adv-x="1891" 
d="M779 1442v-1l-699 -1441h214l194 399h251l-56 -399h926l28 203h-722l58 416h490l28 203h-489l58 417h723l28 202h-925v0h-107v1zM586 601l256 529v0l-74 -529h-182z" />
    <glyph glyph-name="Ccedilla" unicode="&#xc7;" horiz-adv-x="1401" 
d="M1122 1004l199 77q-47 173 -174 266t-317 93q-280 0 -470 -194q-189 -194 -236 -527q-44 -312 73 -503q116 -191 364 -214l-14 -129l39 -8q31 -6 41 -22q8 -14 0 -39t-25 -34q-19 -11 -50 -5q-14 3 -24 9l-57 -91q21 -12 48 -17q21 -4 40 -4q45 0 83 21q59 32 82 102
q23 69 -8 119q-20 32 -59 49l5 47q178 8 324 102q146 95 235 260l-177 75q-128 -236 -388 -236q-192 0 -278 136q-86 135 -51 382q34 247 159 382q124 136 316 136q257 0 320 -233z" />
    <glyph glyph-name="Egrave" unicode="&#xc8;" horiz-adv-x="1288" 
d="M282 1441l-202 -1441h925l29 203h-723l59 416h489l29 203h-490l59 417h722l29 202h-926zM682 1781l23 -194l166 -37l-68 231h-121z" />
    <glyph glyph-name="Eacute" unicode="&#xc9;" horiz-adv-x="1288" 
d="M282 1441l-202 -1441h925l29 203h-723l59 416h489l29 203h-490l59 417h722l29 202h-926zM783 1781l-134 -231l177 37l78 194h-121z" />
    <glyph glyph-name="Ecircumflex" unicode="&#xca;" horiz-adv-x="1288" 
d="M282 1441l-202 -1441h925l29 203h-723l59 416h489l29 203h-490l59 417h722l29 202h-926zM804 1822l-113 -69l-132 -115l89 -104l132 115l98 -115l118 104l-98 115l-94 69v0z" />
    <glyph glyph-name="Edieresis" unicode="&#xcb;" horiz-adv-x="1288" 
d="M282 1441l-202 -1441h925l29 203h-723l59 416h489l29 203h-490l59 417h722l29 202h-926zM528 1590q26 -29 67 -29q42 0 75 29q34 30 39 71q6 42 -19 71t-67 29q-41 0 -75 -29q-33 -29 -39 -71q-6 -41 19 -71zM862 1590q25 -29 67 -29q41 0 75 29q33 30 39 71q6 42 -20 71
q-25 29 -66 29q-42 0 -75 -29q-34 -29 -40 -71q-5 -41 20 -71z" />
    <glyph glyph-name="Igrave" unicode="&#xcc;" horiz-adv-x="580" 
d="M311 1781l23 -194l166 -38l-69 232h-120zM282 1441l-202 -1441h203l202 1441h-203z" />
    <glyph glyph-name="Iacute" unicode="&#xcd;" horiz-adv-x="632" 
d="M431 1781l-133 -232l176 38l78 194h-121zM282 1441l-202 -1441h203l202 1441h-203z" />
    <glyph glyph-name="Icircumflex" unicode="&#xce;" horiz-adv-x="715" 
d="M443 1822l-114 -70l-131 -115l89 -103l131 115l99 -115l118 103l-99 115zM282 1441l-202 -1441h203l202 1441h-203z" />
    <glyph glyph-name="Idieresis" unicode="&#xcf;" horiz-adv-x="767" 
d="M309 1590q33 29 39 71q6 41 -19 71q-26 29 -67 29q-42 0 -75 -29q-33 -30 -39 -71q-6 -42 19 -71t67 -29q41 0 75 29zM520 1732q-33 -30 -39 -71q-6 -42 19 -71q26 -29 67 -29q42 0 75 29q34 29 39 71q6 41 -19 71q-25 29 -67 29q-41 0 -75 -29zM485 1441h-203
l-202 -1441h203z" />
    <glyph glyph-name="Eth" unicode="&#xd0;" horiz-adv-x="1432" 
d="M402 619h225l29 203h-225l58 417h284q191 0 278 -136q86 -135 51 -382q-34 -247 -159 -383q-124 -135 -316 -135h-283zM599 0q280 0 469 194q190 193 237 527q47 333 -89 527q-135 193 -415 193h-486l-87 -619h-120l-28 -203h120l-87 -619h486z" />
    <glyph glyph-name="Ntilde" unicode="&#xd1;" horiz-adv-x="1322" 
d="M282 1441l-202 -1440h203l144 1030l397 -1031h216l202 1440h-202l-145 -1030l-397 1031h-216zM592 1581q37 -39 90 -32q22 2 50 12q16 6 50 20q68 30 100 33q54 6 90 -33l24 168q-37 39 -91 33q-32 -4 -99 -33l-26 -11l-25 -10q-28 -10 -49 -12q-54 -6 -91 33z" />
    <glyph glyph-name="Ograve" unicode="&#xd2;" horiz-adv-x="1435" 
d="M378 338q-83 136 -48 383t155 382q121 136 305 136q185 0 267 -136q83 -135 48 -382t-155 -383q-121 -135 -305 -135q-185 0 -267 135zM360 1248q-186 -194 -233 -527q-47 -334 85 -527q131 -194 404 -194t459 194q186 193 233 527q47 333 -85 527q-131 193 -404 193
t-459 -193zM779 1587l166 -37l-69 231h-121z" />
    <glyph glyph-name="Oacute" unicode="&#xd3;" horiz-adv-x="1435" 
d="M378 338q-83 136 -48 383t155 382q121 136 305 136q185 0 267 -136q83 -135 48 -382t-155 -383q-121 -135 -305 -135q-185 0 -267 135zM360 1248q-186 -194 -233 -527q-47 -334 85 -527q131 -194 404 -194t459 194q186 193 233 527q47 333 -85 527q-131 193 -404 193
t-459 -193zM900 1587l78 194h-121l-134 -231z" />
    <glyph glyph-name="Ocircumflex" unicode="&#xd4;" horiz-adv-x="1435" 
d="M378 338q-83 136 -48 383t155 382q121 136 305 136q185 0 267 -136q83 -135 48 -382t-155 -383q-121 -135 -305 -135q-185 0 -267 135zM360 1248q-186 -194 -233 -527q-47 -334 85 -527q131 -194 404 -194t459 194q186 193 233 527q47 333 -85 527q-131 193 -404 193
t-459 -193zM722 1534l131 115l99 -115l118 104l-99 115l-93 69l-114 -69l-131 -115z" />
    <glyph glyph-name="Otilde" unicode="&#xd5;" horiz-adv-x="1435" 
d="M378 338q-83 136 -48 383t155 382q121 136 305 136q185 0 267 -136q83 -135 48 -382t-155 -383q-121 -135 -305 -135q-185 0 -267 135zM360 1248q-186 -194 -233 -527q-47 -334 85 -527q131 -194 404 -194t459 194q186 193 233 527q47 333 -85 527q-131 193 -404 193
t-459 -193zM1052 1749q-37 39 -90 33q-32 -4 -100 -33q-34 -15 -51 -21q-27 -9 -49 -12q-54 -6 -90 33l-24 -167q37 -39 91 -33q32 4 99 33q34 14 51 20q28 10 49 13q54 6 91 -33z" />
    <glyph glyph-name="Odieresis" unicode="&#xd6;" horiz-adv-x="1435" 
d="M378 338q-83 136 -48 383t155 382q121 136 305 136q185 0 267 -136q83 -135 48 -382t-155 -383q-121 -135 -305 -135q-185 0 -267 135zM360 1248q-186 -194 -233 -527q-47 -334 85 -527q131 -194 404 -194t459 194q186 193 233 527q47 333 -85 527q-131 193 -404 193
t-459 -193zM744 1591q33 29 39 70q6 42 -19 71q-25 30 -67 30q-41 0 -75 -30q-33 -29 -39 -71q-6 -41 19 -70q25 -30 67 -30q41 0 75 30zM1077 1591q34 29 39 70q6 42 -19 71q-25 30 -67 30q-41 0 -75 -30q-33 -29 -39 -71q-6 -41 20 -70q25 -30 66 -30q42 0 75 30z" />
    <glyph glyph-name="multiply" unicode="&#xd7;" horiz-adv-x="852" 
d="M426 618l-247 -247l-99 99l247 247l-247 248l99 98l247 -247l248 247l98 -99l-247 -247l247 -247l-99 -99z" />
    <glyph glyph-name="Oslash" unicode="&#xd8;" horiz-adv-x="1416" 
d="M945 1202q98 -53 137 -176t14 -305q-32 -230 -140 -365q-107 -133 -272 -151zM472 239q-99 53 -138 176t-13 306q32 230 139 364q107 133 272 151zM1047 1591h-222l-39 -150q-264 -9 -443 -202t-225 -518q-38 -268 42 -449q78 -180 257 -242l-47 -180h221l40 150
q264 9 443 202t225 519q37 267 -42 448q-79 180 -257 242z" />
    <glyph glyph-name="Ugrave" unicode="&#xd9;" horiz-adv-x="1397" 
d="M996 597q-9 -66 -29 -124q-25 -74 -65 -128q-104 -142 -299 -142q-194 0 -259 142q-25 54 -29 128q-3 58 6 124l119 844h-203l-119 -844q-38 -276 84 -437q123 -160 373 -160t417 160q168 161 207 437l118 844h-202zM834 1781h-120l23 -194l166 -37z" />
    <glyph glyph-name="Uacute" unicode="&#xda;" horiz-adv-x="1397" 
d="M996 597q-9 -66 -29 -124q-25 -74 -65 -128q-104 -142 -299 -142q-194 0 -259 142q-25 54 -29 128q-3 58 6 124l119 844h-203l-119 -844q-38 -276 84 -437q123 -160 373 -160t417 160q168 161 207 437l118 844h-202zM936 1781h-121l-134 -231l177 37z" />
    <glyph glyph-name="Ucircumflex" unicode="&#xdb;" horiz-adv-x="1397" 
d="M996 597q-9 -66 -29 -124q-25 -74 -65 -128q-104 -142 -299 -142q-194 0 -259 142q-25 54 -29 128q-3 58 6 124l119 844h-203l-119 -844q-38 -276 84 -437q123 -160 373 -160t417 160q168 161 207 437l118 844h-202zM680 1534l132 115l98 -115l118 104l-98 115l-94 69v0
l-113 -69l-132 -115z" />
    <glyph glyph-name="Udieresis" unicode="&#xdc;" horiz-adv-x="1397" 
d="M996 597q-9 -66 -29 -124q-25 -74 -65 -128q-104 -142 -299 -142q-194 0 -259 142q-25 54 -29 128q-3 58 6 124l119 844h-203l-119 -844q-38 -276 84 -437q123 -160 373 -160t417 160q168 161 207 437l118 844h-202zM722 1732q-25 30 -67 30q-41 0 -75 -30
q-33 -29 -39 -71q-6 -41 19 -71q26 -29 67 -29q42 0 75 29q34 30 39 71q6 42 -19 71zM1055 1732q-25 30 -66 30q-42 0 -75 -30q-34 -29 -40 -71q-5 -41 20 -71q25 -29 67 -29q41 0 75 29q33 30 39 71q6 42 -20 71z" />
    <glyph glyph-name="Yacute" unicode="&#xdd;" horiz-adv-x="1336" 
d="M1013 1443l-417 -518l-272 518h-244l384 -730l-100 -713h202l100 710l590 733h-243zM706 1783l-134 -231l177 38l78 193h-121z" />
    <glyph glyph-name="Thorn" unicode="&#xde;" horiz-adv-x="1013" 
d="M360 553l47 333h207q116 0 93 -167q-23 -166 -140 -166h-207zM436 1088l49 353h-203l-202 -1441h203l49 350h207q145 0 246 101q101 100 125 268q23 169 -50 269q-72 100 -218 100h-206z" />
    <glyph glyph-name="germandbls" unicode="&#xdf;" horiz-adv-x="1158" 
d="M656 623q-7 12 -8 28l1 13l1 11q6 40 28 59l5 4q28 25 101 79l22 16l22 16q25 19 44 35q50 40 85 77q90 97 104 202q17 119 -37 189q-72 92 -261 92q-80 0 -153 -21q-94 -27 -170 -88q-195 -157 -246 -519l-114 -813h203l114 813q38 275 163 373q44 34 98 46q21 4 43 6
q9 0 18 1h8h8q91 0 115 -22q15 -14 9 -57q-6 -42 -62 -95q-23 -21 -56 -48l-31 -23l-32 -23q-80 -59 -119 -94q-94 -78 -112 -205q-18 -128 56 -207t212 -79q76 0 98 -36q7 -13 8 -31v-14l-1 -6l-1 -6l-1 -6l-1 -6q-1 -8 -3 -14q-6 -18 -18 -31q-31 -36 -107 -36
q-66 0 -91 27q-10 11 -13 26q-3 11 -2 25l-204 -20q-4 -119 72 -190t210 -71q143 0 243 82q99 81 118 214q18 133 -58 214q-77 82 -220 82q-69 0 -88 31z" />
    <glyph glyph-name="agrave" unicode="&#xe0;" 
d="M331 298q-38 72 -21 193t76 194q77 94 221 94q143 0 194 -94q38 -72 22 -193l-1 -2q-17 -121 -76 -193q-77 -94 -220 -94q-144 0 -195 95zM956 0l138 981h-203l-11 -80q-55 52 -139 70l-9 3q-46 8 -97 8t-99 -8l-10 -3q-168 -32 -279 -159q-113 -128 -140 -321
q-27 -192 49 -319q75 -127 232 -161l11 -2q46 -9 98 -9t101 9l11 2q87 19 156 70l-11 -81h202zM761 1090l-68 232h-121l23 -194z" />
    <glyph glyph-name="aacute" unicode="&#xe1;" 
d="M801 685q38 -72 22 -193l-1 -2q-17 -121 -76 -193q-77 -94 -220 -94q-144 0 -195 95q-38 72 -21 193t76 194q77 94 221 94q143 0 194 -94zM399 9q46 -9 98 -9t101 9l11 2q87 19 156 70l-11 -81h202l138 981h-203l-11 -80q-55 52 -139 70l-9 3q-46 8 -97 8t-99 -8l-10 -3
q-168 -32 -279 -159q-113 -128 -140 -321q-27 -192 49 -319q75 -127 232 -161zM539 1090l177 38l78 194h-121z" />
    <glyph glyph-name="acircumflex" unicode="&#xe2;" 
d="M580 1291l-131 -115l89 -103l131 115l99 -115l118 103l-99 115l-93 70zM386 685q77 94 221 94q143 0 194 -94q38 -72 22 -193l-1 -2q-17 -121 -76 -193q-77 -94 -220 -94q-144 0 -195 95q-38 72 -21 193t76 194zM497 0q52 0 101 9l11 2q87 19 156 70l-11 -81h202l138 981
h-203l-11 -80q-55 52 -139 70l-9 3q-46 8 -97 8t-99 -8l-10 -3q-168 -32 -279 -159q-113 -128 -140 -321q-27 -192 49 -319q75 -127 232 -161l11 -2q46 -9 98 -9z" />
    <glyph glyph-name="atilde" unicode="&#xe3;" 
d="M801 685q38 -72 22 -193l-1 -2q-17 -121 -76 -193q-77 -94 -220 -94q-144 0 -195 95q-38 72 -21 193t76 194q77 94 221 94q143 0 194 -94zM399 9q46 -9 98 -9t101 9l11 2q87 19 156 70l-11 -81h202l138 981h-203l-11 -80q-55 52 -139 70l-9 3q-46 8 -97 8t-99 -8l-10 -3
q-168 -32 -279 -159q-113 -128 -140 -321q-27 -192 49 -319q75 -127 232 -161zM464 1122q37 -39 91 -33q21 3 49 13q17 6 51 20q67 30 100 33q53 6 90 -33l24 168q-37 39 -91 32q-21 -2 -49 -12q-17 -6 -51 -20q-67 -30 -100 -33q-53 -6 -90 33z" />
    <glyph glyph-name="adieresis" unicode="&#xe4;" 
d="M801 685q38 -72 22 -193l-1 -2q-17 -121 -76 -193q-77 -94 -220 -94q-144 0 -195 95q-38 72 -21 193t76 194q77 94 221 94q143 0 194 -94zM399 9q46 -9 98 -9t101 9l11 2q87 19 156 70l-11 -81h202l138 981h-203l-11 -80q-55 52 -139 70l-9 3q-46 8 -97 8t-99 -8l-10 -3
q-168 -32 -279 -159q-113 -128 -140 -321q-27 -192 49 -319q75 -127 232 -161zM418 1131q26 -29 67 -29q42 0 75 29q34 29 39 71q6 41 -19 71q-25 29 -67 29q-41 0 -75 -29q-33 -30 -39 -71q-6 -42 19 -71zM752 1131q25 -29 67 -29q41 0 75 29q33 29 39 71q6 41 -20 71
q-25 29 -66 29q-42 0 -75 -29q-34 -30 -40 -71q-5 -42 20 -71z" />
    <glyph glyph-name="aring" unicode="&#xe5;" 
d="M822 490q-17 -121 -76 -193q-77 -94 -220 -94q-144 0 -195 95q-38 72 -21 193t76 194q77 94 221 94q143 0 194 -94q38 -72 22 -193zM1094 981h-203l-11 -80q-55 52 -139 70l-9 3q-46 8 -97 8t-99 -8l-10 -3q-168 -32 -279 -159q-113 -128 -140 -321q-27 -192 49 -319
q75 -127 232 -161l11 -2q46 -9 98 -9t101 9l11 2q87 19 156 70l-11 -81h202zM709 1240q13 -16 10 -38t-21 -38q-17 -15 -40 -15q-22 0 -35 15q-14 16 -10 38q3 22 20 38q18 15 40 15q23 0 36 -15zM734 1123q37 33 44 79q6 46 -22 79t-74 33q-47 0 -84 -33t-44 -79
q-6 -46 22 -79t74 -33q47 0 84 33z" />
    <glyph glyph-name="ae" unicode="&#xe6;" horiz-adv-x="1832" 
d="M335 297q-38 73 -21 194t76 194q77 94 221 94q143 0 194 -94q39 -73 22 -194v-1q-18 -121 -77 -193q-77 -94 -220 -94q-144 0 -195 94zM1546 595h-491q69 184 271 184t220 -184zM1499 64q124 63 195 176l-170 89q-37 -59 -109 -93q-71 -33 -160 -33q-219 0 -230 200h707
l13 88v0l1 9q6 49 6 95q-3 180 -109 283q-106 104 -288 104q-232 0 -381 -162q-103 162 -335 162q-209 0 -353 -134q-143 -133 -175 -357q-31 -224 75 -357q106 -134 315 -134q148 0 267 70l-10 -69h208l9 68q102 -69 252 -69q148 0 272 64z" />
    <glyph glyph-name="ccedilla" unicode="&#xe7;" horiz-adv-x="1092" 
d="M333 296q-38 72 -21 194q17 121 76 193q77 95 221 95q166 0 208 -128l195 86q-37 116 -136 181q-98 64 -239 64q-209 0 -353 -134q-143 -134 -175 -357q-29 -207 60 -338q89 -130 270 -150l-14 -132l38 -8q31 -6 41 -22q9 -14 1 -39q-9 -25 -25 -34q-19 -11 -50 -5
q-14 3 -25 9l-57 -91q22 -12 49 -17q20 -4 40 -4q45 0 83 21q58 32 81 102q24 69 -8 119q-19 32 -58 49l5 50q129 9 234 73q106 64 171 174l-172 84q-77 -130 -245 -130q-144 0 -195 95z" />
    <glyph glyph-name="egrave" unicode="&#xe8;" horiz-adv-x="1117" 
d="M575 1320l24 -194l166 -37l-69 231h-121zM830 595h-491q70 184 272 184q201 0 219 -184zM783 64q124 63 195 176l-170 89q-37 -59 -108 -93q-72 -33 -161 -33q-218 0 -230 200h708l12 88v0l1 9q7 49 6 95q-3 180 -108 283q-106 104 -289 104q-209 0 -353 -134
q-143 -133 -175 -357q-31 -224 77 -357q109 -134 323 -134q148 0 272 64z" />
    <glyph glyph-name="eacute" unicode="&#xe9;" horiz-adv-x="1117" 
d="M677 1320l-134 -231l177 37l78 194h-121zM339 595q70 184 272 184q201 0 219 -184h-491zM928 878q-106 104 -289 104q-209 0 -353 -134q-143 -133 -175 -357q-31 -224 77 -357q109 -134 323 -134q148 0 272 64q124 63 195 176l-170 89q-37 -59 -108 -93q-72 -33 -161 -33
q-218 0 -230 200h708l12 88v0l1 9q7 49 6 95q-3 180 -108 283z" />
    <glyph glyph-name="ecircumflex" unicode="&#xea;" horiz-adv-x="1117" 
d="M698 1361l-114 -70l-131 -115l89 -103l131 115l99 -115l118 103l-99 115zM339 595q70 184 272 184q201 0 219 -184h-491zM928 878q-106 104 -289 104q-209 0 -353 -134q-143 -133 -175 -357q-31 -224 77 -357q109 -134 323 -134q148 0 272 64q124 63 195 176l-170 89
q-37 -59 -108 -93q-72 -33 -161 -33q-218 0 -230 200h708l12 88v0l1 9q7 49 6 95q-3 180 -108 283z" />
    <glyph glyph-name="edieresis" unicode="&#xeb;" horiz-adv-x="1117" 
d="M422 1129q25 -29 67 -29q41 0 75 29q33 30 39 71q6 42 -19 71t-67 29q-41 0 -75 -29q-33 -29 -39 -71q-6 -41 19 -71zM756 1129q25 -29 66 -29q42 0 75 29q34 30 40 71q5 42 -20 71t-67 29q-41 0 -75 -29q-33 -29 -39 -71q-6 -41 20 -71zM830 595h-491q70 184 272 184
q201 0 219 -184zM309 403h708l12 88v0l1 9q7 49 6 95q-3 180 -108 283q-106 104 -289 104q-209 0 -353 -134q-143 -133 -175 -357q-31 -224 77 -357q109 -134 323 -134q148 0 272 64q124 63 195 176l-170 89q-37 -59 -108 -93q-72 -33 -161 -33q-218 0 -230 200z" />
    <glyph glyph-name="igrave" unicode="&#xec;" horiz-adv-x="516" 
d="M218 982l-138 -982h203l138 982h-203zM246 1320l23 -194l167 -38l-69 232h-121z" />
    <glyph glyph-name="iacute" unicode="&#xed;" horiz-adv-x="567" 
d="M218 982l-138 -982h203l138 982h-203zM367 1320l-134 -231l177 37l77 194h-120z" />
    <glyph glyph-name="icircumflex" unicode="&#xee;" horiz-adv-x="650" 
d="M218 982l-138 -982h203l138 982h-203zM264 1291l-131 -115l89 -103l131 115l99 -115l118 103l-98 115l-94 70z" />
    <glyph glyph-name="idieresis" unicode="&#xef;" horiz-adv-x="706" 
d="M221 982l-138 -982h203l138 982h-203zM247 1129q34 30 39 71q6 42 -19 71t-67 29q-41 0 -75 -29q-33 -29 -39 -71q-6 -41 19 -71q26 -29 67 -29q42 0 75 29zM600 1271q-25 29 -66 29q-42 0 -75 -29q-34 -29 -40 -71q-5 -41 20 -71q25 -29 66 -29q42 0 75 29q34 30 40 71
q6 42 -20 71z" />
    <glyph glyph-name="eth" unicode="&#xf0;" horiz-adv-x="1062" 
d="M311 437q33 234 240 234t174 -234t-240 -234t-174 234zM389 1071q63 0 116 -16l-130 -82l158 -58l87 72q51 -50 80 -129q-56 16 -121 16q-186 0 -314 -119q-129 -119 -157 -318t67 -318t282 -119q186 0 314 119q129 119 156 318q55 387 -82 612t-427 225z" />
    <glyph glyph-name="ntilde" unicode="&#xf1;" horiz-adv-x="1091" 
d="M456 1122q36 -39 90 -33q32 4 100 33l25 11l25 10q28 10 50 12q53 6 90 -33l24 167q-37 39 -91 33q-21 -2 -49 -12q-17 -6 -51 -21q-67 -29 -99 -33q-54 -6 -91 33zM638 982q-105 0 -196 -43q-15 -8 -30 -17l8 59h-202l-138 -981h203l70 498q18 119 69 189q68 92 187 92
q122 0 163 -95q31 -72 14 -193l-69 -491h203l69 491q22 160 -22 277q-44 116 -145 171q-79 43 -184 43z" />
    <glyph glyph-name="ograve" unicode="&#xf2;" horiz-adv-x="1141" 
d="M335 297q-38 73 -21 194t76 194q77 94 221 94q143 0 194 -94q39 -73 22 -194t-76 -194q-78 -94 -221 -94q-144 0 -195 94zM286 848q-143 -133 -175 -357q-31 -224 75 -357q106 -134 315 -134t353 134q144 133 175 357q32 224 -74 357q-107 134 -316 134t-353 -134z
M599 1128l167 -38l-69 232h-121z" />
    <glyph glyph-name="oacute" unicode="&#xf3;" horiz-adv-x="1141" 
d="M335 297q-38 73 -21 194t76 194q77 94 221 94q143 0 194 -94q39 -73 22 -194t-76 -194q-78 -94 -221 -94q-144 0 -195 94zM286 848q-143 -133 -175 -357q-31 -224 75 -357q106 -134 315 -134t353 134q144 133 175 357q32 224 -74 357q-107 134 -316 134t-353 -134z
M798 1322h-121l-134 -232l177 38z" />
    <glyph glyph-name="ocircumflex" unicode="&#xf4;" horiz-adv-x="1141" 
d="M335 297q-38 73 -21 194t76 194q77 94 221 94q143 0 194 -94q39 -73 22 -194t-76 -194q-78 -94 -221 -94q-144 0 -195 94zM286 848q-143 -133 -175 -357q-31 -224 75 -357q106 -134 315 -134t353 134q144 133 175 357q32 224 -74 357q-107 134 -316 134t-353 -134z
M543 1075l131 115l99 -115l118 103l-99 115l-94 70l-113 -70l-131 -115z" />
    <glyph glyph-name="otilde" unicode="&#xf5;" horiz-adv-x="1141" 
d="M335 297q-38 73 -21 194t76 194q77 94 221 94q143 0 194 -94q39 -73 22 -194t-76 -194q-78 -94 -221 -94q-144 0 -195 94zM286 848q-143 -133 -175 -357q-31 -224 75 -357q106 -134 315 -134t353 134q144 133 175 357q32 224 -74 357q-107 134 -316 134t-353 -134z
M873 1290q-37 39 -91 33q-21 -3 -49 -13l-25 -10l-26 -10q-67 -30 -99 -33q-54 -6 -91 33l-23 -168q36 -39 90 -32q32 3 100 32l25 11l25 10q28 10 50 12q53 6 90 -33z" />
    <glyph glyph-name="odieresis" unicode="&#xf6;" horiz-adv-x="1141" 
d="M335 297q-38 73 -21 194t76 194q77 94 221 94q143 0 194 -94q39 -73 22 -194t-76 -194q-78 -94 -221 -94q-144 0 -195 94zM286 848q-143 -133 -175 -357q-31 -224 75 -357q106 -134 315 -134t353 134q144 133 175 357q32 224 -74 357q-107 134 -316 134t-353 -134z
M564 1131q34 29 40 71q5 41 -20 71q-25 29 -66 29q-42 0 -75 -29q-34 -30 -40 -71q-6 -42 20 -71q25 -29 66 -29q42 0 75 29z" />
    <glyph glyph-name="divide" unicode="&#xf7;" horiz-adv-x="725" 
d="M337 1089q-37 -33 -44 -79q-6 -46 22 -79q28 -32 74 -32q47 0 84 32q37 33 44 79q6 46 -22 79t-74 33q-47 0 -84 -33zM254 528q-38 -33 -44 -79q-7 -46 21 -79q29 -32 75 -32t83 32q37 33 44 79q6 46 -22 79t-74 33t-83 -33zM80 624h536l29 202h-536z" />
    <glyph glyph-name="oslash" unicode="&#xf8;" horiz-adv-x="1127" 
d="M741 744q105 -67 79 -256q-15 -102 -59 -170q-58 -87 -161 -110zM366 659q57 87 160 110l-140 -536q-106 66 -79 255q14 103 59 171zM863 1211h-222l-61 -234q-190 -17 -318 -148q-129 -131 -158 -341q-24 -173 36 -296q60 -121 191 -168l-68 -258h222l61 234
q190 17 318 148q129 131 158 340q25 174 -36 297q-60 121 -191 168z" />
    <glyph glyph-name="ugrave" unicode="&#xf9;" horiz-adv-x="1091" 
d="M739 484q-18 -119 -70 -190q-67 -91 -187 -91q-122 0 -163 94q-31 72 -14 194l69 491h-203l-68 -491q-23 -160 22 -278q43 -115 145 -170q78 -43 184 -43q105 0 196 43q14 7 29 17l-8 -59h203l137 981h-202zM649 1321h-121l24 -193l166 -38z" />
    <glyph glyph-name="uacute" unicode="&#xfa;" horiz-adv-x="1091" 
d="M739 484q-18 -119 -70 -190q-67 -91 -187 -91q-122 0 -163 94q-31 72 -14 194l69 491h-203l-68 -491q-23 -160 22 -278q43 -115 145 -170q78 -43 184 -43q105 0 196 43q14 7 29 17l-8 -59h203l137 981h-202zM750 1321h-121l-133 -231l176 38z" />
    <glyph glyph-name="ucircumflex" unicode="&#xfb;" horiz-adv-x="1091" 
d="M739 484q-18 -119 -70 -190q-67 -91 -187 -91q-122 0 -163 94q-31 72 -14 194l69 491h-203l-68 -491q-23 -160 22 -278q43 -115 145 -170q78 -43 184 -43q105 0 196 43q14 7 29 17l-8 -59h203l137 981h-202zM495 1075l131 115l99 -115l118 103l-99 115l-94 70l-113 -70
l-131 -115z" />
    <glyph glyph-name="udieresis" unicode="&#xfc;" horiz-adv-x="1091" 
d="M739 484q-18 -119 -70 -190q-67 -91 -187 -91q-122 0 -163 94q-31 72 -14 194l69 491h-203l-68 -491q-23 -160 22 -278q43 -115 145 -170q78 -43 184 -43q105 0 196 43q14 7 29 17l-8 -59h203l137 981h-202zM537 1273q-26 29 -67 29q-42 0 -75 -29q-34 -30 -39 -71
q-6 -42 19 -71t67 -29q41 0 75 29q33 29 39 71q6 41 -19 71z" />
    <glyph glyph-name="yacute" unicode="&#xfd;" horiz-adv-x="1189" 
d="M837 484q-18 -119 -70 -190q-67 -91 -187 -91q-122 0 -163 94q-31 72 -14 194l69 490h-203l-69 -490q-22 -161 22 -278q44 -116 146 -170q78 -43 184 -43q105 0 196 43q14 7 29 16l-15 -108q-35 -249 -283 -249q-69 0 -118 21q-64 29 -87 92l-194 -89q39 -110 134 -169
q96 -58 236 -58q206 0 346 123t169 329l144 1030h-202zM841 1319h-120l-134 -231l177 38z" />
    <glyph glyph-name="thorn" unicode="&#xfe;" horiz-adv-x="1238" 
d="M438 297q-39 71 -22 192v4q18 121 77 193q77 94 220 94q144 0 194 -95q39 -72 22 -194q-17 -121 -76 -193q-77 -95 -221 -95q-143 0 -194 94zM840 973q-47 9 -98 9q-52 0 -102 -9l-11 -2q-87 -19 -155 -70l76 541h-203l-267 -1901h203l76 541q55 -52 139 -71l9 -2
q46 -9 97 -9t99 9l10 2q168 33 279 160q113 128 140 320q26 192 -49 320q-75 126 -232 160z" />
    <glyph glyph-name="ydieresis" unicode="&#xff;" horiz-adv-x="1189" 
d="M634 1273q-25 29 -66 29q-42 0 -75 -29q-34 -30 -40 -71q-5 -42 20 -71q25 -30 67 -30q41 0 75 30q33 29 39 71q6 41 -20 71zM968 1273q-25 29 -67 29q-41 0 -75 -29q-33 -30 -39 -71q-6 -42 19 -71q25 -30 67 -30q41 0 75 30q33 29 39 71q6 41 -19 71zM837 484
q-18 -119 -70 -190q-67 -91 -187 -91q-122 0 -163 94q-31 72 -14 194l69 490h-203l-69 -490q-22 -161 22 -278q44 -116 146 -170q78 -43 184 -43q105 0 196 43q14 7 29 16l-15 -108q-35 -249 -283 -249q-69 0 -118 21q-64 29 -87 92l-194 -89q39 -110 134 -169
q96 -58 236 -58q206 0 346 123t169 329l144 1030h-202z" />
    <glyph glyph-name="dotlessi" unicode="&#x131;" horiz-adv-x="615" 
d="M389 223q0 -173 100 -173h46v-50h-442v50h46q100 0 100 173v432q0 77 -111 77h-48v44q222 69 261 182h48v-735z" />
    <glyph glyph-name="circumflex" unicode="&#x2c6;" horiz-adv-x="742" 
d="M80 1079l232 355h118l232 -355h-58l-233 216l-233 -216h-58z" />
    <glyph glyph-name="caron" unicode="&#x2c7;" horiz-adv-x="742" 
d="M80 1434h58l233 -214l233 214h58l-232 -356h-118z" />
    <glyph glyph-name="uni02C9" unicode="&#x2c9;" horiz-adv-x="676" 
d="M80 1195v125h516v-125h-516z" />
    <glyph glyph-name="breve" unicode="&#x2d8;" horiz-adv-x="744" 
d="M80 1349h51q17 -73 75 -107t167 -34t166 33.5t74 107.5h51q-20 -133 -94 -201.5t-197 -68.5q-122 0 -197 69t-96 201z" />
    <glyph glyph-name="dotaccent" unicode="&#x2d9;" horiz-adv-x="375" 
d="M94 1289l69 72q6 6 13 9t14 3q6 0 12.5 -3t12.5 -9l71 -76q5 -4 7 -10t2 -14q-1 -9 -3 -15t-8 -12l-71 -76q-12 -11 -16 -13.5t-7 -2.5q-10 0 -16.5 2.5t-10.5 8.5l-75 87q-4 4 -6 9.5t-2 13.5q0 6 3 12.5t11 13.5z" />
    <glyph glyph-name="ring" unicode="&#x2da;" horiz-adv-x="515" 
d="M156 1257q0 -42 29 -71t71 -29t71 29t29 71q0 40 -29.5 69.5t-70.5 29.5t-70.5 -29.5t-29.5 -69.5zM80 1257q0 75 51 126t125 51q76 0 127.5 -51.5t51.5 -125.5q0 -75 -51.5 -126.5t-127.5 -51.5q-74 0 -125 51.5t-51 126.5z" />
    <glyph glyph-name="ogonek" unicode="&#x2db;" horiz-adv-x="528" 
d="M351 0q-71 -62 -110.5 -119.5t-39.5 -112.5q0 -47 27 -75t73 -28q40 0 69.5 15.5t49.5 48.5l28 -16q-36 -63 -90.5 -97t-119.5 -34q-70 0 -114 35.5t-44 90.5q0 76 60.5 156.5t161.5 135.5h49z" />
    <glyph glyph-name="tilde" unicode="&#x2dc;" horiz-adv-x="725" 
d="M348 1551l67 15q38 8 67 11q75 8 134 -11q14 94 29 191q-94 43 -268 3l-67 -14q-38 -8 -67 -11q-76 -8 -135 11q-15 -106 -28 -191q94 -43 268 -4z" />
    <glyph glyph-name="hungarumlaut" unicode="&#x2dd;" horiz-adv-x="596" 
d="M122 1450l-42 -296l178 49l35 247h-171zM345 1450l-34 -237l179 49l26 188h-171z" />
    <glyph glyph-name="endash" unicode="&#x2013;" horiz-adv-x="724" 
d="M108 826l-28 -202h536l28 202h-536z" />
    <glyph glyph-name="emdash" unicode="&#x2014;" horiz-adv-x="1142" 
d="M108 824h954l-28 -202h-954z" />
    <glyph glyph-name="quoteleft" unicode="&#x2018;" horiz-adv-x="373" 
d="M122 1450l-42 -296l178 49l35 247h-171z" />
    <glyph glyph-name="quoteright" unicode="&#x2019;" horiz-adv-x="373" 
d="M80 1450l35 -247l178 -49l-41 296h-172z" />
    <glyph glyph-name="quotesinglbase" unicode="&#x201a;" horiz-adv-x="374" 
d="M123 -4l-43 -296l178 47l36 248z" />
    <glyph glyph-name="quotedblleft" unicode="&#x201c;" horiz-adv-x="596" 
d="M122 1450l-42 -296l178 49l35 247h-171zM345 1450l-34 -237l179 49l26 188h-171z" />
    <glyph glyph-name="quotedblright" unicode="&#x201d;" horiz-adv-x="596" 
d="M303 1450l35 -247l178 -49l-41 296h-172zM80 1450l27 -188l178 -49l-33 237h-172z" />
    <glyph glyph-name="quotedblbase" unicode="&#x201e;" horiz-adv-x="596" 
d="M122 296l-42 -296l178 48l35 248h-171zM345 296l-34 -237l179 48l26 189h-171z" />
    <glyph glyph-name="dagger" unicode="&#x2020;" horiz-adv-x="1033" 
d="M495 1022q-8 97 -54 178q-57 101 -57 129q0 49 36 78.5t96 29.5q57 0 94.5 -27.5t37.5 -71.5q0 -32 -55 -137q-46 -85 -55 -179q96 8 177 54q101 57 129 57q49 0 79 -36t30 -96q0 -57 -27.5 -94.5t-72.5 -37.5q-32 0 -136 55q-85 46 -179 57q8 -176 110 -277
q-106 -460 -112 -974h-38q-6 514 -114 974q102 101 111 277q-96 -10 -178 -55q-101 -57 -129 -57q-49 0 -78.5 36t-29.5 96q0 57 27.5 94.5t71.5 37.5q32 0 137 -56q85 -46 179 -55z" />
    <glyph glyph-name="daggerdbl" unicode="&#x2021;" horiz-adv-x="1033" 
d="M538 186q94 11 179 57q104 55 136 55q45 0 72.5 -37.5t27.5 -94.5q0 -60 -30 -96t-79 -36q-28 0 -129 57q-81 46 -177 54q9 -94 55 -179q55 -105 55 -137q0 -44 -37.5 -71.5t-94.5 -27.5q-60 0 -96 29.5t-36 78.5q0 28 57 129q46 81 54 178q-94 -9 -179 -55
q-105 -56 -137 -56q-44 0 -71.5 37.5t-27.5 94.5q0 60 29.5 96t78.5 36q28 0 129 -57q82 -45 178 -55q-9 226 -111 398q102 171 111 397q-96 -10 -178 -55q-101 -57 -129 -57q-49 0 -78.5 36t-29.5 96q0 57 27.5 94.5t71.5 37.5q32 0 137 -56q85 -46 179 -55q-8 97 -54 178
q-57 101 -57 129q0 49 36 78.5t96 29.5q57 0 94.5 -27.5t37.5 -71.5q0 -32 -55 -137q-46 -85 -55 -179q96 8 177 54q101 57 129 57q49 0 79 -36t30 -96q0 -57 -27.5 -94.5t-72.5 -37.5q-32 0 -136 55q-85 46 -179 57q8 -226 110 -397q-102 -172 -110 -398z" />
    <glyph glyph-name="bullet" unicode="&#x2022;" horiz-adv-x="752" 
d="M80 718q0 123 87 209t210 86q122 0 208.5 -86.5t86.5 -208.5t-87.5 -209.5t-209.5 -87.5q-123 0 -209 87t-86 210z" />
    <glyph glyph-name="ellipsis" unicode="&#x2026;" horiz-adv-x="1317" 
d="M130 206q-37 -33 -44 -79q-6 -46 22 -79q28 -32 74 -32t84 32q37 33 43 79q7 46 -21 79t-75 33q-46 0 -83 -33zM591 196q-38 -33 -44 -79t22 -79t74 -33t83 33q38 33 44 79q7 46 -21 79q-29 32 -75 32t-83 -32zM1052 190q-38 -32 -44 -78q-7 -47 21 -79q28 -33 75 -33
q46 0 83 33q37 32 44 79q6 46 -22 78q-28 33 -74 33t-83 -33z" />
    <glyph glyph-name="guilsinglleft" unicode="&#x2039;" horiz-adv-x="634" 
d="M80 725l265 -307l163 143l-141 164l187 164l-123 143z" />
    <glyph glyph-name="guilsinglright" unicode="&#x203a;" horiz-adv-x="634" 
d="M126 889l141 -164l-187 -164l123 -143l351 307l-265 307z" />
    <glyph glyph-name="fraction" unicode="&#x2044;" horiz-adv-x="837" 
d="M535 1561l-455 -1741h221l456 1741h-222z" />
    <glyph glyph-name="fraction" unicode="&#x2215;" horiz-adv-x="837" 
d="M535 1561l-455 -1741h221l456 1741h-222z" />
    <glyph glyph-name="franc" unicode="&#x20a3;" horiz-adv-x="1288" 
d="M282 1441l-202 -1441h203l87 619h489l29 203h-490l59 416h722l29 203h-926z" />
    <glyph glyph-name="lira" unicode="&#x20a4;" horiz-adv-x="1368" 
d="M575 1086q21 88 114 126q36 15 81 21q36 6 75 6q102 0 160 -32q75 -40 66 -132l204 17q13 160 -95 254q-109 95 -307 95q-193 0 -326 -90q-134 -90 -171 -244l-296 -1107h967l55 200v3h-764l68 252h295l55 203h-296l21 77h296l55 203h-296l38 145z" />
    <glyph glyph-name="peseta" unicode="&#x20a7;" horiz-adv-x="2028" 
 />
    <glyph glyph-name="Euro" unicode="&#x20ac;" horiz-adv-x="1501" 
d="M534 274q-84 71 -108 205h188l55 203h-247l5 39l6 39h257l55 202h-251q127 277 408 277q258 0 321 -234l198 77q-47 174 -174 267q-126 92 -317 92q-223 0 -393 -127q-168 -125 -252 -352h-74l-55 -202h74l-6 -39l-4 -39h-85l-55 -203h137q21 -227 153 -352
q134 -127 358 -127q189 0 344 95q156 95 250 268l-177 76q-129 -236 -389 -236q-137 0 -222 71z" />
    <glyph glyph-name="uni2116" unicode="&#x2116;" horiz-adv-x="1839" 
d="M1311 515q-37 34 -25 120t59 120q32 24 85 24t79 -24q37 -34 25 -120t-59 -120q-32 -24 -85 -24t-79 24zM1208 887q-103 -94 -125 -252t54 -252q75 -95 224 -95t251 95q102 94 125 252q22 158 -54 252q-76 95 -224 95q-149 0 -251 -95zM638 982q-105 0 -196 -43
q-15 -8 -30 -17l8 59h-202l-138 -981h203l70 498q17 119 69 189q67 92 187 92q122 0 163 -95q31 -72 14 -193l-69 -491h203l69 491q22 160 -22 277q-44 116 -145 171q-79 43 -184 43zM1042 0h558l28 203h-558z" />
    <glyph glyph-name="trademark" unicode="&#x2122;" horiz-adv-x="396" 
d="M295 1641l-38 -108l-37 108h-21v-141h20v83l28 -80h21l28 80v-83h20v141h-21zM80 1641v-20h40v-121h20v121h41v20h-101z" />
    <glyph glyph-name="partialdiff" unicode="&#x2202;" horiz-adv-x="1194" 
d="M672 203q-139 0 -213 89q-57 68 -73 182q-16 115 22 183q49 89 188 89q138 0 213 -89q56 -68 72 -183q17 -114 -21 -182q-49 -89 -188 -89zM567 949q-205 0 -309 -130q-105 -129 -74 -345q30 -216 171 -345q140 -129 345 -129q206 0 310 129t74 345l-5 33h1
q-61 434 -330 686t-670 252l28 -202q414 0 622 -319q-77 25 -163 25z" />
    <glyph glyph-name="Delta" unicode="&#x2206;" horiz-adv-x="1280" 
d="M776 970l-696 -970h1120zM719 564l158 -361h-418z" />
    <glyph glyph-name="product" unicode="&#x220f;" horiz-adv-x="1401" 
d="M108 1441l-28 -203h207l-174 -1238h203l174 1238h387l-174 -1238h203l173 1238h214l28 203h-1213z" />
    <glyph glyph-name="summation" unicode="&#x2211;" horiz-adv-x="1277" 
d="M282 1441l183 -720l-385 -721h914l29 203h-617l277 518l-131 518h616l29 202h-915z" />
    <glyph glyph-name="minus" unicode="&#x2212;" horiz-adv-x="724" 
d="M108 826l-28 -202h536l28 202h-536z" />
    <glyph glyph-name="radical" unicode="&#x221a;" horiz-adv-x="1014" 
 />
    <glyph glyph-name="infinity" unicode="&#x221e;" horiz-adv-x="1129" 
d="M457 746q10 -14 6 -45q-5 -31 -19 -46q-22 -21 -72 -21q-51 0 -66 21q-11 15 -7 46q5 31 19 45q22 22 72 22q51 0 67 -22zM823 746q10 -14 6 -45t-19 -46q-22 -21 -72 -21q-51 0 -66 21q-11 15 -7 46q5 31 19 45q22 22 73 22q50 0 66 -22zM534 487q67 -55 175 -55
q128 0 217 74t106 195t-51 195t-196 74q-108 0 -191 -55q-67 55 -175 55q-128 0 -217 -74q-88 -74 -105 -195t51 -195t195 -74q109 0 191 55z" />
    <glyph glyph-name="integral" unicode="&#x222b;" horiz-adv-x="1101" 
d="M419 504q-18 -127 -79 -202q-81 -99 -232 -99l-28 -203q215 0 362 137t180 367l60 433q18 127 80 202q81 99 231 99l28 203q-214 0 -362 -137q-147 -137 -179 -367z" />
    <glyph glyph-name="approxequal" unicode="&#x2248;" horiz-adv-x="770" 
d="M348 471l67 14q38 8 67 11q75 8 134 -11q14 94 29 191q-94 43 -268 4l-67 -15q-38 -8 -67 -11q-76 -8 -135 11q-15 -106 -28 -191q94 -43 268 -3zM394 764l67 15q37 8 67 11q75 8 134 -11q13 94 28 191q-94 43 -268 3l-67 -14q-38 -8 -67 -11q-75 -8 -134 11
q-16 -106 -29 -191q94 -43 269 -4z" />
    <glyph glyph-name="lessequal" unicode="&#x2264;" horiz-adv-x="725" 
d="M616 -3l29 202h-536l-29 -202h536zM416 320l164 143l-141 164l187 164l-123 144l-351 -308z" />
    <glyph glyph-name="greaterequal" unicode="&#x2265;" horiz-adv-x="752" 
d="M108 203l-28 -203h536l29 203h-537zM408 962l-164 -143l141 -164l-187 -164l123 -143l351 307z" />
    <glyph glyph-name="uniF001" unicode="&#xf001;" horiz-adv-x="1073" 
 />
    <glyph glyph-name="uniF001" unicode="&#xfb01;" horiz-adv-x="1073" 
 />
    <glyph glyph-name="uniF002" unicode="&#xf002;" horiz-adv-x="1081" 
 />
    <glyph glyph-name="uniF002" unicode="&#xfb02;" horiz-adv-x="1081" 
 />
    </font>
</defs>
</svg>
