<?xml version="1.0" standalone="no"?>
<!DOCTYPE svg PUBLIC "-//W3C//DTD SVG 1.1//EN" "http://www.w3.org/Graphics/SVG/1.1/DTD/svg11.dtd" >
<svg xmlns="http://www.w3.org/2000/svg" xmlns:xlink="http://www.w3.org/1999/xlink" version="1.1">
<metadata>
Created by FontForge 20170731 at Tue Jun  7 03:27:18 2016
 By Aleksey,,,
Kayak Sans Light (Italic) (c) Jack Harvatt. 2016. All Rights Reserved
</metadata>
<defs>
<font id="KayakSans-LightItalic" horiz-adv-x="1130" >
  <font-face 
    font-family="Kayak Sans"
    font-weight="300"
    font-style="italic"
    font-stretch="normal"
    units-per-em="2048"
    panose-1="2 0 5 0 0 0 0 0 0 0"
    ascent="1638"
    descent="-410"
    x-height="945"
    cap-height="1436"
    bbox="80 -555 1827 1864"
    underline-thickness="150"
    underline-position="-442"
    slope="-6"
    unicode-range="U+001D-F002"
  />
<missing-glyph horiz-adv-x="984" 
d="M80 0v1434h824v-1434h-824zM130 50h724v1334h-724v-1334zM305 1148q31 28 58 43q53 30 112 30q92 0 148 -47.5t56 -127.5q0 -49 -23 -98.5t-87 -129.5q-63 -80 -99 -132t-36 -99q0 -38 24 -133h-32q-35 97 -35 148q0 76 81.5 218t81.5 217q0 57 -33 90t-91 33
q-38 0 -69 -17q-26 -15 -56 -40v45zM369 334l57 58q11 10 20 10q10 0 22 -11l56 -60q9 -11 9 -20q0 -11 -10 -22l-56 -62q-14 -14 -21 -14q-11 0 -20 10l-61 71q-7 9 -7 18q0 10 11 22z" />
    <glyph glyph-name=".notdef" horiz-adv-x="984" 
d="M80 0v1434h824v-1434h-824zM130 50h724v1334h-724v-1334zM305 1148q31 28 58 43q53 30 112 30q92 0 148 -47.5t56 -127.5q0 -49 -23 -98.5t-87 -129.5q-63 -80 -99 -132t-36 -99q0 -38 24 -133h-32q-35 97 -35 148q0 76 81.5 218t81.5 217q0 57 -33 90t-91 33
q-38 0 -69 -17q-26 -15 -56 -40v45zM369 334l57 58q11 10 20 10q10 0 22 -11l56 -60q9 -11 9 -20q0 -11 -10 -22l-56 -62q-14 -14 -21 -14q-11 0 -20 10l-61 71q-7 9 -7 18q0 10 11 22z" />
    <glyph glyph-name=".null" horiz-adv-x="0" 
 />
    <glyph glyph-name=".null" horiz-adv-x="0" 
 />
    <glyph glyph-name="nonmarkingreturn" horiz-adv-x="508" 
 />
    <glyph glyph-name="space" unicode=" " horiz-adv-x="508" 
 />
    <glyph glyph-name="space" unicode="&#xa0;" horiz-adv-x="508" 
 />
    <glyph glyph-name="exclam" unicode="!" horiz-adv-x="481" 
d="M97 20q-17 20 -13 48t26 48q23 20 51 20t46 -20q17 -20 13 -48t-27 -48t-51 -20t-45 20zM401 1436h-114l-158 -1120h114z" />
    <glyph glyph-name="quotedbl" unicode="&#x22;" horiz-adv-x="391" 
d="M108 1438l-28 -197l84 22l25 175h-81zM230 1438l-19 -134l84 22l16 112h-81z" />
    <glyph glyph-name="numbersign" unicode="#" horiz-adv-x="1283" 
d="M952 1137l-62 -264h-355l62 264h-114l-61 -264h-199l-27 -114h199l-90 -381h-198l-27 -114h199l-62 -264h113l62 264h355l-61 -264h113l62 264h199l26 114h-198l89 381h199l27 114h-199l62 264h-114zM508 759h356l-90 -381h-355z" />
    <glyph glyph-name="dollar" unicode="$" horiz-adv-x="1047" 
d="M525 1192q-120 -17 -181 -86q-23 -26 -37 -60q-10 -26 -15 -54q-21 -152 137 -193l54 -14l109 416zM471 229l66 8q133 15 200 90q26 29 41 65q11 29 16 60q23 167 -153 209l-54 12zM278 0l34 131l-38 13q-188 63 -194 246l116 10q8 -85 83 -129l61 -35l114 439l-45 9
q-127 26 -187 107q-61 80 -44 201q20 137 127 223q107 85 273 94l43 3l33 124h133l-37 -139l38 -13q167 -59 179 -221l-117 -9q-11 62 -64 98l-62 42l-108 -409l46 -10q135 -27 199 -111q65 -85 47 -212q-21 -145 -134 -234q-114 -90 -289 -99l-43 -2l-31 -117h-133z" />
    <glyph glyph-name="percent" unicode="%" horiz-adv-x="1310" 
d="M891 346q-28 -34 -36 -93q-8 -58 10 -92q24 -46 93 -46q68 0 105 46q28 34 37 92q8 59 -11 93q-24 46 -92 46q-69 0 -106 -46zM779 70q-54 68 -38 183q16 116 90 184q74 69 182 69q107 0 162 -69q55 -68 39 -184q-16 -115 -90 -183q-75 -69 -182 -69q-108 0 -163 69z
M246 1277q-28 -34 -36 -92q-8 -59 10 -93q24 -46 93 -46q68 0 105 46q28 34 37 93q8 58 -11 92q-24 46 -92 46q-69 0 -106 -46zM134 1001q-54 69 -38 184t90 183q74 69 182 69q107 0 162 -69q55 -68 39 -183t-90 -184q-75 -69 -182 -69q-108 0 -163 69zM214 -144l758 1756
h129l-757 -1756h-130z" />
    <glyph glyph-name="ampersand" unicode="&#x26;" horiz-adv-x="1030" 
d="M476 1244q-23 -30 -37 -71q-11 -32 -16 -69q-15 -103 27 -160q42 -58 132 -58h6q113 0 173 78q23 31 37 72q11 32 17 68q5 37 3 69q-3 41 -18 71q-38 79 -151 79q-112 0 -173 -79zM767 0l-51 70l-39 -20q-99 -50 -219 -50q-190 0 -284 119t-65 324q35 250 213 368l46 30
l-25 42q-53 87 -34 221q21 154 117 243q96 90 239 90q144 0 215 -90q70 -89 49 -243q-22 -154 -118 -243t-239 -89l-56 -3q-121 -15 -197 -100q-76 -84 -96 -226q-22 -157 44 -243q65 -86 207 -86q56 0 104 14l80 22l-95 130l96 75l91 -124l37 95q12 31 21 66h114
q-26 -121 -90 -209l-24 -32l111 -151h-152z" />
    <glyph glyph-name="quotesingle" unicode="'" horiz-adv-x="269" 
d="M189 1438l-25 -175l-84 -22l28 197h81z" />
    <glyph glyph-name="parenleft" unicode="(" horiz-adv-x="611" 
d="M200 -110q-120 808 227 1616l104 -34q-332 -774 -217 -1548z" />
    <glyph glyph-name="parenright" unicode=")" horiz-adv-x="611" 
d="M411 1506q120 -808 -227 -1616l-104 34q332 774 217 1548z" />
    <glyph glyph-name="asterisk" unicode="*" horiz-adv-x="476" 
d="M351 1579l-106 -93l-80 93l-59 -51l80 -93l-106 -94l44 -51l107 93l80 -93l58 51l-80 94l107 93z" />
    <glyph glyph-name="plus" unicode="+" horiz-adv-x="742" 
d="M354 1002l-32 -226h-226l-16 -114h226l-32 -226h114l32 226h226l16 114h-226l32 226h-114z" />
    <glyph glyph-name="comma" unicode="," horiz-adv-x="269" 
d="M108 77l-28 -197l84 23l25 174h-81z" />
    <glyph glyph-name="hyphen" unicode="-" horiz-adv-x="646" 
d="M96 776l-16 -114h470l16 114h-470z" />
    <glyph glyph-name="hyphen" unicode="&#xad;" horiz-adv-x="646" 
d="M96 776l-16 -114h470l16 114h-470z" />
    <glyph glyph-name="period" unicode="." horiz-adv-x="304" 
d="M97 20q-17 20 -13 48t26 48q23 20 51 20t46 -20q17 -20 13 -48t-27 -48t-51 -20t-45 20z" />
    <glyph glyph-name="slash" unicode="/" horiz-adv-x="753" 
d="M539 1576l-459 -1756h133l460 1756h-134z" />
    <glyph glyph-name="zero" unicode="0" horiz-adv-x="1253" 
d="M408 1168q-122 -159 -162 -448q-41 -289 37 -447q77 -159 258 -159q182 0 304 159q121 158 162 447t-37 448q-77 159 -258 159q-182 0 -304 -159zM211 161q-131 191 -79 559q51 369 236 560q155 161 360 161q204 0 314 -161q131 -191 79 -560q-52 -368 -236 -559
q-156 -161 -360 -161t-314 161z" />
    <glyph glyph-name="one" unicode="1" horiz-adv-x="570" 
d="M349 1436l-269 -228l67 -82l210 178l-183 -1304h114l202 1436h-141z" />
    <glyph glyph-name="two" unicode="2" horiz-adv-x="1200" 
d="M80 0l20 145l789 638l2 2q68 63 88 180l1 8q21 167 -51 258t-224 91q-142 0 -237 -79q-94 -79 -128 -224l-113 9q45 190 176 299t318 109q198 0 298 -122q101 -123 76 -334v-6l-1 -1v-2l-1 -6q-28 -167 -135 -263l-4 -3l-722 -585h737l-16 -114h-873z" />
    <glyph glyph-name="three" unicode="3" horiz-adv-x="1189" 
d="M194 93q-114 92 -114 254l115 9q1 -118 86 -180t246 -62q178 0 284 77q107 77 127 221t-65 221q-84 77 -263 77h-98l16 114h98q148 0 239 65q90 66 107 184q16 119 -56 184t-220 65q-128 0 -214 -49q-85 -50 -117 -141l-113 9q42 138 164 217q122 78 296 78
q197 0 297 -97q100 -98 77 -266q-23 -161 -143 -258l-53 -43l47 -36q145 -112 115 -324q-27 -191 -172 -301q-146 -111 -370 -111q-202 0 -316 93z" />
    <glyph glyph-name="four" unicode="4" horiz-adv-x="1071" 
d="M648 1436l-551 -919l-17 -119h510l-56 -398h114l56 398h271l16 114h-271l40 287h-114l-40 -287h-387l555 924h-126z" />
    <glyph glyph-name="five" unicode="5" horiz-adv-x="1193" 
d="M185 104q-105 105 -95 287h115q-5 -133 72 -205q78 -72 225 -72q162 0 263 86t123 242t-55 242t-239 86h-426l178 667h767l-31 -115h-651l-118 -438h306h11q200 -6 300 -125q100 -118 72 -317q-29 -204 -168 -323q-138 -119 -348 -119q-196 0 -301 104z" />
    <glyph glyph-name="six" unicode="6" horiz-adv-x="1152" 
d="M271 203q-70 90 -47 252q23 163 118 252t245 89q151 0 221 -89t47 -252q-23 -162 -118 -252q-95 -89 -245 -89q-151 0 -221 89zM589 910q-59 -2 -121 -20q-78 -22 -148 -64q45 96 134 214q224 268 602 285l16 115q-373 -17 -626 -256t-323 -643q-12 -75 -13 -86
q-30 -210 69 -333q98 -122 297 -122q198 0 331 122q132 123 162 333q29 211 -69 333t-297 122h-14z" />
    <glyph glyph-name="seven" unicode="7" horiz-adv-x="1203" 
d="M276 1436l-16 -114h732l-912 -1322h130l893 1294l20 142h-847z" />
    <glyph glyph-name="eight" unicode="8" horiz-adv-x="1212" 
d="M480 1257q-90 -65 -107 -184q-17 -118 55 -183q73 -66 221 -66t238 66q90 65 107 183q17 119 -55 184q-73 65 -221 65q-147 0 -238 -65zM348 633q-107 -77 -127 -221t65 -221q84 -77 263 -77q178 0 285 77q106 77 126 221t-64 221q-85 77 -264 77q-178 0 -284 -77z
M195 111q-115 110 -88 301q30 212 206 324l57 36l-41 43q-93 98 -70 258q24 168 151 266q128 97 325 97q196 0 296 -97q101 -98 77 -266q-22 -160 -143 -258l-53 -43l47 -36q145 -112 115 -324q-27 -191 -172 -301q-146 -111 -369 -111q-224 0 -338 111z" />
    <glyph glyph-name="nine" unicode="9" horiz-adv-x="1152" 
d="M881 1236q70 -89 47 -252q-23 -162 -118 -251q-95 -90 -245 -90q-151 0 -220 90q-70 89 -48 251q23 163 118 252q95 90 246 90q150 0 220 -90zM563 529q59 3 121 20q78 22 148 65q-45 -96 -134 -214q-224 -268 -602 -286l-16 -114q373 16 626 256q253 239 323 643
q12 75 13 85q30 211 -68 333q-99 123 -297 123q-199 0 -332 -123q-132 -122 -162 -333q-29 -210 69 -332q98 -123 297 -123h14z" />
    <glyph glyph-name="colon" unicode=":" horiz-adv-x="370" 
d="M164 785q-18 19 -14 48q4 28 27 48t51 20t45 -20t13 -48q-4 -29 -26 -48q-23 -20 -51 -20t-45 20zM97 310q-17 20 -13 48t26 48q23 20 51 20t46 -20q17 -20 13 -48t-27 -48t-51 -20t-45 20z" />
    <glyph glyph-name="semicolon" unicode=";" horiz-adv-x="358" 
d="M151 786q-17 20 -13 48t26 48q23 20 51 20t45 -20q18 -20 14 -48t-27 -48t-51 -20t-45 20zM109 427h80l-25 -175l-84 -22z" />
    <glyph glyph-name="semicolon" unicode="&#x37e;" horiz-adv-x="358" 
d="M151 786q-17 20 -13 48t26 48q23 20 51 20t45 -20q18 -20 14 -48t-27 -48t-51 -20t-45 20zM109 427h80l-25 -175l-84 -22z" />
    <glyph glyph-name="less" unicode="&#x3c;" horiz-adv-x="521" 
d="M391 544l-150 175l200 175l-70 81l-291 -256l219 -256z" />
    <glyph glyph-name="equal" unicode="=" horiz-adv-x="682" 
d="M132 895l-16 -114h470l16 114h-470zM80 543l16 114h470l-16 -114h-470z" />
    <glyph glyph-name="greater" unicode="&#x3e;" horiz-adv-x="521" 
d="M129 894l150 -175l-199 -175l69 -81l292 256l-220 256z" />
    <glyph glyph-name="question" unicode="?" horiz-adv-x="1047" 
d="M250 1344q-127 -91 -170 -250l113 -9q32 113 123 174q91 62 229 62q154 0 227 -77q74 -76 55 -215q-20 -139 -115 -215q-95 -77 -249 -77h-57l-59 -421h114l43 308l44 7q162 26 266 132q104 105 127 266q26 188 -76 297t-304 109q-183 0 -311 -91zM314 20q-17 20 -13 48
t27 48q22 20 50 20q29 0 46 -20t13 -48t-27 -48t-51 -20t-45 20z" />
    <glyph glyph-name="at" unicode="@" horiz-adv-x="1580" 
d="M911 500q-36 -25 -83 -37q-36 -9 -76 -9t-73 9q-43 12 -73 37q-76 66 -55 218t116 218q37 26 83 37q36 9 76 9t74 -9q43 -11 72 -37q77 -66 56 -218q-22 -152 -117 -218zM446 1164q166 158 428 158t384 -158t81 -446q-34 -247 -162 -398q-22 -26 -45 -48l-3 -3
q-63 -60 -138 -97l57 144q32 80 56 182q16 73 30 165h-1l8 52l1 3q24 175 -56 277q-81 101 -244 101t-272 -101q-109 -102 -133 -277q-25 -175 56 -276q80 -102 243 -102q67 0 129 20l102 32l-47 -97q-83 -173 -235 -180h-4q-250 7 -366 165q-115 158 -76 438
q41 288 207 446zM377 1243q-205 -193 -252 -525q-45 -325 94 -515q140 -190 432 -202l7 -1q1 0 5 1l6 -1h19q312 0 515 190q203 191 250 528q47 332 -104 525q-152 193 -459 193t-513 -193z" />
    <glyph glyph-name="A" unicode="A" horiz-adv-x="1305" 
d="M776 1436l-696 -1436h121l206 425h611l87 -425h120l-293 1436h-156zM837 1313l158 -773h-533z" />
    <glyph glyph-name="B" unicode="B" horiz-adv-x="1243" 
d="M210 114l83 583h395q159 0 236 -76t58 -215q-20 -139 -119 -216q-98 -76 -258 -76h-395zM381 1322h385q170 0 231 -92q23 -35 29 -83q5 -38 -1 -80q-6 -40 -19 -74q-17 -45 -46 -79q-73 -87 -214 -100q-8 -3 -87 -3h-350zM1139 1067q24 171 -72 270t-285 99h-499
l-203 -1436h509q208 0 344 109t163 297q17 123 -25 215q-41 91 -134 140q172 98 202 306z" />
    <glyph glyph-name="C" unicode="C" horiz-adv-x="1369" 
d="M306 274q-105 161 -65 444q40 284 190 444t376 160q281 0 370 -234l112 43q-53 148 -173 227q-120 78 -293 78q-275 0 -462 -193t-234 -525t86 -525t408 -193q172 0 316 81q144 80 239 228l-101 43q-155 -238 -438 -238q-226 0 -331 160z" />
    <glyph glyph-name="D" unicode="D" horiz-adv-x="1370" 
d="M210 114l170 1208h354q225 0 330 -160t65 -444q-39 -283 -189 -444q-150 -160 -376 -160h-354zM282 1436l-202 -1436h468q275 0 462 193t233 525q47 332 -86 525q-132 193 -407 193h-468z" />
    <glyph glyph-name="E" unicode="E" horiz-adv-x="1247" 
d="M282 1436l-202 -1436h886l16 114h-772l77 547h523l16 114h-523l77 547h771l16 114h-885z" />
    <glyph glyph-name="F" unicode="F" horiz-adv-x="1247" 
d="M282 1436l-202 -1436h114l93 661h523l16 114h-523l77 547h771l16 114h-885z" />
    <glyph glyph-name="G" unicode="G" horiz-adv-x="1363" 
d="M1283 775h-435l-16 -114h319q-2 -14 -5 -28l-7 -28q-56 -234 -194 -362q-139 -129 -334 -129q-208 0 -310 146q-101 146 -76 407l15 102q48 261 195 407q148 146 364 146q277 0 369 -226l112 45q-55 143 -174 219q-120 76 -291 76q-265 0 -449 -178t-241 -489l-14 -102
q-31 -310 98 -488q129 -179 386 -179q309 0 500 252l-35 -252h114z" />
    <glyph glyph-name="H" unicode="H" horiz-adv-x="1323" 
d="M1129 1436l-93 -661h-733l93 661h-114l-202 -1436h114l93 661h733l-93 -661h114l202 1436h-114z" />
    <glyph glyph-name="I" unicode="I" horiz-adv-x="476" 
d="M282 1436l-202 -1436h114l202 1436h-114z" />
    <glyph glyph-name="J" unicode="J" horiz-adv-x="1132" 
d="M808 518q-27 -193 -126 -298q-100 -106 -255 -106q-169 0 -236 124l-111 -50q91 -188 331 -188q206 0 342 137q135 138 170 381l129 920h-114z" />
    <glyph glyph-name="K" unicode="K" horiz-adv-x="1290" 
d="M556 800l654 635h-153l-766 -744l105 745h-114l-202 -1436h114l73 516q25 27 199 197l410 -712h141z" />
    <glyph glyph-name="L" unicode="L" horiz-adv-x="961" 
d="M282 1436l-202 -1436h785l16 114h-671l186 1322h-114z" />
    <glyph glyph-name="M" unicode="M" horiz-adv-x="1530" 
d="M1314 1435l-628 -1279l-269 1279h-135l-202 -1435h114l162 1151l235 -1117h156l549 1117l-162 -1151h114l202 1435h-136z" />
    <glyph glyph-name="N" unicode="N" horiz-adv-x="1284" 
d="M282 1435l-202 -1435h114l176 1255l484 -1255h149l201 1434h-114l-176 -1255l-484 1256h-148z" />
    <glyph glyph-name="O" unicode="O" horiz-adv-x="1411" 
d="M301 274q-100 161 -60 444q39 284 185 444q146 161 364 161q219 0 319 -161q101 -160 61 -444q-40 -283 -185 -444q-146 -160 -364 -160q-219 0 -320 160zM356 1244q-183 -193 -230 -526q-46 -332 82 -525q129 -193 397 -193q267 0 450 193t229 525q47 333 -81 526
q-129 193 -397 193t-450 -193z" />
    <glyph glyph-name="P" unicode="P" horiz-adv-x="1218" 
d="M302 766l78 556h338q152 0 226 -73q73 -72 55 -205q-19 -132 -113 -205t-246 -73h-338zM282 1436l-202 -1436h114l92 652h338q201 0 332 106q131 105 157 286q25 182 -76 287q-102 105 -303 105h-452z" />
    <glyph glyph-name="Q" unicode="Q" horiz-adv-x="1411" 
d="M709 257h-111l15 -143q-215 3 -313 163q-99 160 -59 441q39 284 185 444t364 160q219 0 319 -160q101 -160 61 -444q-35 -248 -152 -404q-117 -154 -295 -190zM356 1243q-183 -193 -230 -525q-46 -332 82 -525q129 -193 397 -193h20l15 -143h111l-16 156q218 44 363 229
q146 187 186 476q47 332 -81 525q-129 193 -397 193t-450 -193z" />
    <glyph glyph-name="R" unicode="R" horiz-adv-x="1218" 
d="M380 1322h338q152 0 226 -73q73 -72 55 -205q-19 -132 -113 -205t-246 -73h-338zM1037 1331q-102 105 -303 105h-452l-202 -1436h114l92 652h329q5 -14 221 -652h126l-224 663q155 28 254 127q99 101 121 254q25 182 -76 287z" />
    <glyph glyph-name="S" unicode="S" horiz-adv-x="1223" 
d="M381 863q-84 69 -66 195t120 195q103 69 272 69q145 0 227 -51q83 -52 92 -147l117 9q-7 142 -118 223q-112 80 -302 80q-217 0 -357 -101q-140 -102 -165 -277t87 -277t329 -102q180 0 269 -74q88 -74 69 -208q-19 -135 -128 -209t-290 -74q-161 0 -249 60
q-88 59 -92 168l-116 -9q0 -157 116 -245t325 -88q232 0 377 105t172 292q26 186 -90 291q-116 106 -347 106q-169 0 -252 69z" />
    <glyph glyph-name="T" unicode="T" horiz-adv-x="1170" 
d="M96 1436l-16 -114h440l-186 -1322h114l186 1322h440l16 114h-994z" />
    <glyph glyph-name="U" unicode="U" horiz-adv-x="1369" 
d="M1056 586q-32 -225 -157 -348q-125 -124 -321 -124t-287 124q-90 123 -58 348l119 851h-114l-119 -851q-39 -275 78 -431q118 -155 365 -155t408 155q161 156 200 431l119 851h-114z" />
    <glyph glyph-name="V" unicode="V" horiz-adv-x="1325" 
d="M1124 1439l-648 -1315l-275 1315h-121l301 -1439h155l709 1439h-121z" />
    <glyph glyph-name="W" unicode="W" horiz-adv-x="1907" 
d="M1709 1439l-516 -1268l-157 1268h-165l-516 -1268l-157 1268h-118l179 -1439h145l531 1305l162 -1305h145l585 1439h-118z" />
    <glyph glyph-name="X" unicode="X" horiz-adv-x="1509" 
d="M1290 1439l-502 -597l-334 597h-139l389 -697l-624 -742h139l541 643l360 -643h140l-416 742l585 697h-139z" />
    <glyph glyph-name="Y" unicode="Y" horiz-adv-x="1225" 
d="M1008 1439l-478 -595l-313 595h-137l375 -714l-102 -725h114l102 722l576 717h-137z" />
    <glyph glyph-name="Z" unicode="Z" horiz-adv-x="1358" 
d="M287 1436l-16 -114h867l-1038 -1183l-20 -139h1050l16 114h-927l1039 1183l20 139h-991z" />
    <glyph glyph-name="bracketleft" unicode="[" horiz-adv-x="711" 
d="M323 1580l-243 -1730h308l16 114h-194l211 1502h194l16 114h-308z" />
    <glyph glyph-name="backslash" unicode="\" horiz-adv-x="753" 
d="M80 1576l459 -1756h134l-460 1756h-133z" />
    <glyph glyph-name="bracketright" unicode="]" horiz-adv-x="711" 
d="M387 -150l244 1730h-308l-16 -114h193l-211 -1502h-193l-16 -114h307z" />
    <glyph glyph-name="asciicircum" unicode="^" horiz-adv-x="672" 
d="M336 1435l-256 -256l81 -81l175 175l175 -175l81 81z" />
    <glyph glyph-name="underscore" unicode="_" horiz-adv-x="878" 
d="M96 -4l-16 -114h702l16 114h-702z" />
    <glyph glyph-name="grave" unicode="`" horiz-adv-x="269" 
d="M161 1438l28 -197l-84 22l-25 175h81z" />
    <glyph glyph-name="a" unicode="a" 
d="M268 208q-72 94 -48 265t122 265t253 94t227 -94t48 -264v-1q-24 -171 -123 -265q-98 -94 -253 -94q-154 0 -226 94zM911 764q-51 139 -197 172l-8 2q-45 8 -95 8q-49 0 -95 -8l-11 -2q-161 -32 -267 -154q-106 -123 -132 -309q-26 -185 45 -307q71 -123 223 -155l8 -2
q46 -9 96 -9q51 0 99 9l10 2q153 33 242 172l-26 -183h115l132 945h-114z" />
    <glyph glyph-name="b" unicode="b" 
d="M308 208q-71 94 -48 265l1 1q24 170 122 264t253 94t226 -94q72 -94 48 -265t-122 -265t-253 -94t-227 94zM746 938q-44 8 -94 8t-95 -8l-10 -2q-156 -33 -246 -173l95 673h-114l-202 -1436h114l26 183q50 -139 194 -172l9 -2q45 -9 96 -9t99 9l10 2q160 32 265 155
q105 122 131 307q26 186 -45 309q-71 122 -224 154z" />
    <glyph glyph-name="c" unicode="c" horiz-adv-x="1037" 
d="M273 208q-72 94 -48 265t123 265q98 94 253 94q178 0 245 -121l111 48q-44 90 -132 138q-88 49 -208 49q-203 0 -339 -127t-167 -346t70 -346q100 -127 303 -127q251 0 395 190l-98 47q-102 -123 -281 -123q-155 0 -227 94z" />
    <glyph glyph-name="d" unicode="d" horiz-adv-x="1199" 
d="M268 208q-72 94 -48 265t122 265t253 94t227 -94t48 -264v-1q-24 -171 -123 -265q-98 -94 -253 -94q-154 0 -226 94zM911 764q-51 139 -197 172l-8 2q-45 8 -95 8t-96 -8l-10 -2q-161 -32 -267 -154q-106 -123 -132 -309q-26 -185 45 -307q71 -123 223 -155l8 -2
q46 -9 96 -9q51 0 99 9l10 2q153 33 242 172l-26 -183h114l202 1436h-114z" />
    <glyph glyph-name="e" unicode="e" horiz-adv-x="1074" 
d="M386 771q89 61 212 61q124 0 196 -61t83 -175l1 -8q0 -5 1 -10v-14q1 -17 0 -31h-645q8 35 20 63q43 114 132 175zM988 482q6 49 6 94q-3 174 -104 272q-100 98 -276 98q-203 0 -338 -127q-136 -127 -167 -346l-1 -10q-28 -214 75 -339q104 -124 309 -124q128 0 237 48
t180 135l-97 51q-110 -120 -304 -120q-133 0 -208 66t-82 189q-1 25 1 61h762z" />
    <glyph glyph-name="f" unicode="f" horiz-adv-x="779" 
d="M359 963q22 157 106 249t218 107l16 115q-184 -16 -304 -141q-122 -125 -150 -330l-3 -17h-146l-16 -114h146l-117 -832h114l117 832h133l16 114h-133z" />
    <glyph glyph-name="g" unicode="g" horiz-adv-x="1210" 
d="M348 208q-72 94 -48 265t122 265t253 94t227 -94t48 -264v-1q-24 -171 -123 -265q-98 -94 -253 -94q-154 0 -226 94zM991 764q-51 139 -197 172l-8 2q-45 8 -95 8q-49 0 -95 -8l-11 -2q-161 -32 -267 -154q-106 -123 -132 -309q-26 -185 45 -307q71 -123 223 -155l9 -2
q45 -9 95 -9q51 0 99 9l10 2q153 33 242 172l-37 -265q-24 -171 -131 -265q-106 -94 -277 -94q-198 0 -273 126l-111 -51q97 -189 368 -189q218 0 363 127q144 127 175 346l144 1028h-114z" />
    <glyph glyph-name="h" unicode="h" horiz-adv-x="1041" 
d="M608 946q-100 0 -184 -40q-67 -34 -116 -98l88 628h-114l-202 -1436h114l74 525q32 149 115 228t209 79q137 0 197 -93t36 -266l-66 -473h114l66 473q22 154 -19 267q-41 114 -137 166q-74 40 -175 40z" />
    <glyph glyph-name="i" unicode="i" horiz-adv-x="464" 
d="M213 946l-133 -946h114l133 946h-114zM354 1201q23 20 26 48q4 28 -13 48t-45 20t-51 -20t-27 -48q-3 -28 14 -48t45 -20t51 20z" />
    <glyph glyph-name="j" unicode="j" horiz-adv-x="826" 
d="M435 -51q-23 -163 -112 -259q-87 -96 -227 -111l-16 -115q189 16 314 145t155 340l140 996h-115zM633 1298q-23 -20 -27 -48t13 -48q18 -20 46 -20t51 20q22 20 26 48t-13 48t-45 20t-51 -20z" />
    <glyph glyph-name="k" unicode="k" horiz-adv-x="970" 
d="M551 599l40 40q38 39 86 88q130 133 213 218h-149q-90 -92 -282 -287q-72 -74 -133 -136q-57 -58 -68 -69l138 983h-114l-202 -1436h114l39 278l39 39l71 71q99 99 118 119l255 -507h136z" />
    <glyph glyph-name="l" unicode="l" horiz-adv-x="476" 
d="M282 1436l-202 -1436h114l202 1436h-114z" />
    <glyph glyph-name="m" unicode="m" horiz-adv-x="1720" 
d="M1287 946q-100 0 -184 -40q-112 -57 -174 -195q-37 136 -146 195q-74 40 -175 40q-100 0 -184 -40q-67 -34 -116 -98l19 137h-114l-133 -945h114l74 525q32 149 115 228t209 79q137 0 197 -93t36 -266l-66 -473h114l60 428l13 96q32 149 115 228q84 80 210 80
q137 0 197 -93t36 -266l-66 -473h114l66 473q22 154 -19 267t-138 166q-73 40 -174 40z" />
    <glyph glyph-name="n" unicode="n" horiz-adv-x="1041" 
d="M608 946q-100 0 -184 -40q-67 -34 -116 -97l19 136h-114l-133 -945h114l74 526q32 148 115 227t209 79q137 0 197 -93t36 -266l-66 -473h114l66 473q22 154 -19 267t-138 166q-73 40 -174 40z" />
    <glyph glyph-name="o" unicode="o" horiz-adv-x="1100" 
d="M273 208q-72 94 -48 265t123 265q98 94 253 94t226 -94q72 -94 48 -265t-122 -265t-253 -94t-227 94zM278 819q-136 -127 -167 -346t70 -346q100 -127 303 -127t339 127q135 127 166 346t-69 346t-303 127t-339 -127z" />
    <glyph glyph-name="p" unicode="p" horiz-adv-x="1199" 
d="M377 208q-72 94 -48 265v1q25 171 123 265q98 93 253 93t226 -94q72 -94 48 -265t-122 -265t-253 -94t-227 94zM817 938q-46 8 -96 8q-51 0 -99 -8l-9 -2q-154 -34 -243 -172l26 182h-114l-202 -1436h114l95 673q50 -140 196 -173l9 -1q44 -9 94 -9q49 0 95 8l11 3
q161 31 267 154t132 308t-45 308q-70 122 -222 155z" />
    <glyph glyph-name="q" unicode="q" 
d="M268 208q-72 94 -48 265t122 265q99 94 253 94q155 0 227 -93q72 -94 48 -265v-1q-24 -171 -123 -265q-98 -94 -253 -94q-154 0 -226 94zM911 764q-51 138 -195 172l-9 2q-45 8 -96 8q-50 0 -98 -8q-6 -1 -11 -2q-160 -33 -265 -155q-105 -123 -131 -308
q-26 -186 45 -308q72 -123 225 -155l8 -1q45 -9 94 -9q50 0 96 8l10 2q155 33 245 173l-94 -673h114l201 1436h-114z" />
    <glyph glyph-name="r" unicode="r" horiz-adv-x="680" 
d="M301 761l26 183h-114l-133 -944h114l74 524h2q30 133 111 211q81 79 203 93l16 114q-24 -2 -47 -6q-6 -1 -9 -2q-154 -34 -243 -173z" />
    <glyph glyph-name="s" unicode="s" horiz-adv-x="917" 
d="M294 598q-18 20 -24 48q-3 19 0 41q3 21 12 41q13 27 37 48q64 56 198 56q92 0 145 -28q41 -22 55 -59l120 9q-5 34 -19 63q-18 35 -49 62q-79 67 -236 67q-175 0 -277 -83q-85 -69 -101 -176q-15 -107 52 -177q79 -83 253 -83q143 0 195 -60q19 -22 25 -52q4 -21 1 -44
t-14 -44q-13 -30 -39 -52q-69 -61 -212 -61q-104 0 -161 33q-44 25 -56 69l-119 -10q11 -89 83 -143q84 -63 237 -63q182 0 289 86q90 73 106 185t-54 184q-83 87 -265 87q-133 0 -182 56z" />
    <glyph glyph-name="t" unicode="t" horiz-adv-x="593" 
d="M409 1278h-114l-50 -357l-149 18l-16 -113l149 -18l-63 -451l-7 -51l-4 -29q-18 -126 42 -202q60 -75 178 -75h6l16 114h-6q-145 0 -122 163l11 80l7 52l56 399l154 18l16 113l-154 -18z" />
    <glyph glyph-name="u" unicode="u" horiz-adv-x="1042" 
d="M775 422h-2q-31 -150 -115 -229q-83 -79 -210 -79q-137 0 -197 93q-60 92 -35 266l66 473h-114l-67 -473q-21 -154 20 -267q41 -114 137 -166q74 -40 174 -40t184 39q69 35 119 101l-19 -139h114l132 945h-114z" />
    <glyph glyph-name="v" unicode="v" horiz-adv-x="1000" 
d="M798 945l-416 -829l-181 829h-121l206 -945h159l475 945h-122z" />
    <glyph glyph-name="w" unicode="w" horiz-adv-x="1520" 
d="M1321 945l-358 -829l-123 829h-181l-342 -793l-118 793h-119l140 -945h150l365 846l126 -846h170l409 945h-119z" />
    <glyph glyph-name="x" unicode="x" horiz-adv-x="1094" 
d="M874 945l-299 -357l-34 60l-166 297h-140l239 -427l17 -29l-411 -489h139l328 389l33 -60l184 -329h140l-257 459l-17 30l384 456h-140z" />
    <glyph glyph-name="y" unicode="y" horiz-adv-x="1132" 
d="M864 420q-31 -149 -115 -227q-83 -79 -209 -79q-137 0 -197 92q-60 93 -36 267l67 472h-114l-67 -472q-22 -154 19 -268q41 -113 138 -165q74 -40 174 -40t184 39q67 34 117 98l-34 -240q-21 -152 -116 -235q-94 -83 -245 -83q-171 0 -239 106l-111 -51q90 -169 334 -169
q199 0 331 116t160 316l147 1048h-114z" />
    <glyph glyph-name="z" unicode="z" horiz-adv-x="1071" 
d="M226 946l-16 -114h625l-737 -702l-18 -130h783l16 114h-643l736 702l19 130h-765z" />
    <glyph glyph-name="braceleft" unicode="{" horiz-adv-x="687" 
d="M607 1492q-331 -774 -217 -1548l-114 -34q-43 288 -23 587l1 18l-174 203l231 202l4 19q65 299 188 587z" />
    <glyph glyph-name="bar" unicode="|" horiz-adv-x="363" 
d="M80 1601v-1797h203v1797h-203z" />
    <glyph glyph-name="braceright" unicode="}" horiz-adv-x="687" 
d="M80 -56q332 774 217 1548l114 34q43 -288 24 -587l-2 -19l174 -202l-230 -203l-4 -18q-65 -299 -189 -587z" />
    <glyph glyph-name="asciitilde" unicode="~" horiz-adv-x="646" 
d="M550 666q-52 13 -118 9q-26 -2 -59 -6l-58 -8q-155 -23 -235 1l16 110q52 -13 117 -9q26 2 59 6l59 8q154 23 235 -1z" />
    <glyph glyph-name="exclamdown" unicode="&#xa1;" horiz-adv-x="481" 
d="M384 1416q17 -20 13 -48t-26 -48q-23 -20 -51 -20t-46 20q-17 20 -13 48t27 48t51 20t45 -20zM80 0h114l158 1120h-115z" />
    <glyph glyph-name="cent" unicode="&#xa2;" horiz-adv-x="967" 
d="M263 963q69 92 197 109l-83 -687q-183 75 -183 332q0 154 69 246zM782 482q-84 -123 -263 -123h-6h-6l86 711q123 -21 188 -115l105 49q-93 148 -279 179l30 252h-133l-30 -246q-183 -15 -289 -140q-105 -125 -105 -332q0 -171 75 -289q74 -116 208 -160l-33 -268h134
l29 245h13l13 -1q121 0 217 50q95 49 151 140z" />
    <glyph glyph-name="sterling" unicode="&#xa3;" horiz-adv-x="1320" 
d="M80 0l301 1124q35 147 161 230q125 82 312 82q174 0 276 -73t110 -202l-117 -9q-9 72 -65 115q-73 55 -220 55q-141 0 -231 -54q-91 -55 -114 -155l-1 -4l-56 -210h317l-31 -114h-317l-49 -185h315l-31 -114h-315l-100 -372h816l-31 -114h-930z" />
    <glyph glyph-name="currency" unicode="&#xa4;" horiz-adv-x="929" 
d="M308 560q41 -40 99 -57q29 -8 58 -8t58 8q58 17 99 57q40 41 57 99q9 29 9 58t-9 58q-17 58 -57 99q-41 40 -100 57q-29 8 -58 8t-58 -9q-58 -17 -98 -56q-39 -40 -56 -98q-10 -30 -10 -60q0 -28 9 -56q16 -59 57 -100zM198 903l-118 118l80 81l118 -118q44 30 99 46
q44 14 89 14q41 0 83 -12q57 -17 102 -48l118 118l80 -81l-117 -117q31 -46 48 -102q12 -42 12 -85q0 -42 -12 -85q-17 -56 -48 -102l117 -117l-80 -81l-118 118q-45 -32 -101 -48q-42 -12 -85 -12q-42 0 -85 12q-57 16 -102 48l-118 -118l-80 81l118 117q-32 46 -48 103
q-12 42 -12 84q0 44 13 87q16 55 47 99z" />
    <glyph glyph-name="yen" unicode="&#xa5;" horiz-adv-x="1225" 
d="M1008 1439l-478 -595l-313 595h-137l375 -714l-22 -158h-169l-31 -114h184l-64 -453h114l64 453h169l31 114h-184l22 155l576 717h-137z" />
    <glyph glyph-name="brokenbar" unicode="&#xa6;" horiz-adv-x="320" 
d="M80 371h160v-789h-160v789zM80 1578h160v-789h-160v789z" />
    <glyph glyph-name="section" unicode="&#xa7;" horiz-adv-x="1214" 
d="M519 759q5 -39 33 -65q37 -35 111 -46l34 -5l-2 34q-2 41 -30 68q-37 35 -115 44l-35 5zM132 81q-28 31 -41 72q-10 30 -11 64l103 8q8 -123 215 -123q112 0 179 40t77 113q10 72 -46 112t-167 40q-165 0 -239 78q-63 65 -49 166t95 166q97 78 261 78q141 0 218 -59
q76 -59 71 -162l-1 -28l28 6q148 28 164 144q11 73 -45 113t-168 40q-164 0 -239 78q-62 65 -48 166q14 100 95 166q96 77 260 77q136 0 212 -53q76 -54 78 -150l-104 -8q-10 109 -200 109q-104 0 -167 -37t-72 -104q-10 -68 43 -105q52 -37 156 -37q172 0 250 -81
q66 -69 51 -174q-14 -105 -99 -173q-101 -81 -273 -81q-178 0 -254 84q-28 31 -41 72q-9 30 -9 62v28l-28 -8q-66 -17 -100 -57q-26 -31 -32 -72q-9 -68 43 -105t157 -37q172 0 250 -81q66 -68 51 -173t-100 -174q-101 -81 -273 -81q-174 0 -251 81z" />
    <glyph glyph-name="dieresis" unicode="&#xa8;" horiz-adv-x="688" 
d="M117 1780q-28 -24 -32 -58q-5 -34 15 -57q21 -24 55 -24q33 0 60 24q28 23 32 57q5 34 -15 58q-21 24 -55 24q-33 0 -60 -24zM472 1780q-27 -24 -32 -58q-4 -34 16 -57q21 -24 54 -24q34 0 61 24q28 23 32 57q5 34 -16 58q-20 24 -54 24q-33 0 -61 -24z" />
    <glyph glyph-name="copyright" unicode="&#xa9;" horiz-adv-x="1583" 
d="M448 1164q-166 -158 -207 -446q-40 -288 81 -446q122 -158 384 -158t428 158q167 158 207 446t-81 446q-122 158 -384 158t-428 -158zM232 193q-152 193 -105 525q47 338 250 528t515 190t461 -190q150 -190 102 -528q-47 -332 -252 -525q-206 -193 -513 -193t-458 193z
M539 470q-73 91 -51 248q22 158 120 249t245 91q171 0 240 -124l-113 -49q-25 33 -67 48q-33 11 -76 11q-117 0 -179 -81q-24 -32 -39 -74q-11 -33 -17 -71q-5 -38 -3 -71q3 -42 18 -73q40 -82 156 -82q43 0 80 12q47 15 81 48l99 -48q-103 -126 -276 -126q-146 0 -218 92z
" />
    <glyph glyph-name="ordfeminine" unicode="&#xaa;" horiz-adv-x="648" 
 />
    <glyph glyph-name="guillemotleft" unicode="&#xab;" horiz-adv-x="761" 
d="M391 544l-150 175l200 175l-70 81l-291 -256l219 -256zM631 544l-150 175l200 175l-70 81l-291 -256l219 -256z" />
    <glyph glyph-name="logicalnot" unicode="&#xac;" horiz-adv-x="1014" 
 />
    <glyph glyph-name="registered" unicode="&#xae;" horiz-adv-x="1583" 
d="M675 751h140q46 3 76 22q39 25 46 79q8 56 -28 81q-27 19 -78 19h-128zM866 393l-47 244h-160l-35 -244h-114l95 673h242q107 0 163 -58q55 -59 41 -156q-14 -101 -89 -160l-29 -22l53 -277h-120zM448 1164q-166 -158 -207 -446q-40 -288 81 -446q122 -158 384 -158
t428 158q167 158 207 446t-81 446q-122 158 -384 158t-428 -158zM232 193q-152 193 -105 525q47 338 250 528t515 190t461 -190q150 -190 102 -528q-47 -332 -252 -525q-206 -193 -513 -193t-458 193z" />
    <glyph glyph-name="macron" unicode="&#xaf;" horiz-adv-x="878" 
d="M96 1555l-16 -114h702l16 114h-702z" />
    <glyph glyph-name="degree" unicode="&#xb0;" horiz-adv-x="716" 
d="M359 1372q-86 0 -147.5 -61t-61.5 -148t61 -147t148 -60t147 60t60 147t-60.5 148t-146.5 61zM359 1442q115 0 196 -81.5t81 -196.5q0 -114 -82 -196t-197 -82q-117 0 -197 81t-80 197t81.5 197t197.5 81z" />
    <glyph glyph-name="plusminus" unicode="&#xb1;" horiz-adv-x="742" 
d="M354 1086l-32 -226h-226l-16 -114h226l-32 -226h114l32 226h226l16 114h-226l32 226h-114zM98 402l-18 -109h470l18 109h-470z" />
    <glyph glyph-name="uni00B2" unicode="&#xb2;" horiz-adv-x="670" 
 />
    <glyph glyph-name="uni00B3" unicode="&#xb3;" horiz-adv-x="656" 
 />
    <glyph glyph-name="acute" unicode="&#xb4;" horiz-adv-x="269" 
d="M189 1438l-25 -175l-84 -22l28 197h81z" />
    <glyph glyph-name="mu" unicode="&#xb5;" horiz-adv-x="1156" 
d="M962 944l-74 -524h-1q-32 -149 -115 -228q-84 -79 -210 -79q-137 0 -197 92q-60 93 -36 267l67 472h-115l-201 -1434h114l86 609q38 -51 92 -80q74 -40 174 -40t184 39q68 35 119 101l-20 -139h114l133 944h-114z" />
    <glyph glyph-name="paragraph" unicode="&#xb6;" horiz-adv-x="996" 
d="M916 1435v-70h-127v-1365h-82v1365h-166v-1365h-84v738q-174 8 -275.5 102.5t-101.5 245.5q0 157 107.5 253t285.5 96h443z" />
    <glyph glyph-name="periodcentered" unicode="&#xb7;" horiz-adv-x="304" 
d="M98 671q-18 20 -14 48t27 48t51 20t45 -20t13 -48t-26 -48q-23 -20 -51 -20t-45 20z" />
    <glyph glyph-name="periodcentered" unicode="&#x2219;" horiz-adv-x="304" 
d="M98 671q-18 20 -14 48t27 48t51 20t45 -20t13 -48t-26 -48q-23 -20 -51 -20t-45 20z" />
    <glyph glyph-name="cedilla" unicode="&#xb8;" horiz-adv-x="412" 
d="M125 3l5 -132l39 -8q32 -6 45 -22q10 -14 5 -39q-4 -25 -20 -34q-17 -11 -49 -5q-14 3 -26 9l-44 -91q23 -12 51 -17q21 -4 40 -4q46 0 80 21q54 32 68 102q13 69 -25 119q-24 32 -66 49l-1 50z" />
    <glyph glyph-name="uni00B9" unicode="&#xb9;" horiz-adv-x="1014" 
 />
    <glyph glyph-name="ordmasculine" unicode="&#xba;" horiz-adv-x="718" 
 />
    <glyph glyph-name="guillemotright" unicode="&#xbb;" horiz-adv-x="761" 
d="M369 894l150 -175l-199 -175l69 -81l292 256l-220 256zM129 894l150 -175l-199 -175l69 -81l292 256l-220 256z" />
    <glyph glyph-name="onequarter" unicode="&#xbc;" horiz-adv-x="1708" 
 />
    <glyph glyph-name="onehalf" unicode="&#xbd;" horiz-adv-x="1964" 
 />
    <glyph glyph-name="threequarters" unicode="&#xbe;" horiz-adv-x="1708" 
 />
    <glyph glyph-name="questiondown" unicode="&#xbf;" horiz-adv-x="748" 
 />
    <glyph glyph-name="Agrave" unicode="&#xc0;" horiz-adv-x="1305" 
d="M776 1436l-696 -1436h121l206 426h611l87 -426h120l-293 1436h-156zM452 540l45 71l340 701l144 -705l13 -67h-542zM790 1825l20 -160l115 -26l-55 186h-80zM776 1436l-696 -1436h121l206 425h611l86 -425h121l-293 1436h-156zM837 1313l158 -773h-533z" />
    <glyph glyph-name="Aacute" unicode="&#xc1;" horiz-adv-x="1305" 
d="M776 1436l-696 -1436h121l206 426h611l87 -426h120l-293 1436h-156zM462 540l375 772l144 -705l13 -67h-532zM949 1825l-107 -186l122 26l64 160h-79zM776 1436l-696 -1436h121l206 425h611l86 -425h121l-293 1436h-156zM837 1313l158 -773h-533z" />
    <glyph glyph-name="Acircumflex" unicode="&#xc2;" horiz-adv-x="1305" 
d="M776 1436l-696 -1436h121l206 426h611l87 -426h120l-293 1436h-156zM462 540l375 772l143 -701l25 -71h-543zM920 1864l-103 -64l-118 -103l64 -74l140 123l106 -123l85 74l-89 103zM776 1436l-696 -1436h121l206 425h611l86 -425h121l-293 1436h-156zM837 1313l158 -773
h-533z" />
    <glyph glyph-name="Atilde" unicode="&#xc3;" horiz-adv-x="1305" 
d="M776 1436l-696 -1436h121l206 426h611l87 -426h120l-293 1436h-156zM462 540l375 772l143 -701l25 -71h-543zM875 1661l33 14l34 12q37 12 67 12q15 0 29 -3l30 -6l16 116l-11 7q-13 8 -26 12q-9 2 -20 2q-34 0 -112 -34l-33 -14l-33 -12q-38 -12 -67 -12q-15 0 -29 3
l-30 6l-17 -116l12 -7q12 -8 26 -11q9 -3 20 -3q33 0 111 34zM995 540h-533l375 773zM776 1436l-696 -1436h121l206 425h611l86 -425h121l-293 1436h-156z" />
    <glyph glyph-name="Adieresis" unicode="&#xc4;" horiz-adv-x="1305" 
d="M669 1780q-27 -24 -32 -58t16 -57q20 -24 54 -24t61 24q27 23 32 57q4 34 -16 58q-21 24 -54 24q-34 0 -61 -24zM1025 1780q-27 -24 -32 -58t16 -57q20 -24 54 -24q33 0 61 24q27 23 32 57q4 34 -16 58q-21 24 -54 24q-34 0 -61 -24zM995 540h-533l375 773zM776 1436
l-696 -1436h121l206 425h611l86 -425h121l-293 1436h-156z" />
    <glyph glyph-name="Aring" unicode="&#xc5;" horiz-adv-x="1305" 
d="M776 1436l-696 -1436h121l206 426h611l87 -426h120l-293 1436h-156zM462 540l375 772l143 -701l25 -71h-543zM849 1685q-14 17 -11 40q3 24 22 40q19 17 43 17t38 -17q14 -16 11 -40q-3 -23 -22 -40t-43 -17t-38 17zM822 1809q-39 -34 -46 -84q-7 -49 23 -84t79 -35
t89 35t47 84q7 50 -23 84q-30 35 -79 35q-50 0 -90 -35z" />
    <glyph glyph-name="AE" unicode="&#xc6;" horiz-adv-x="1871" 
d="M905 1437v-1h-129l-696 -1436h121l206 426h356l-59 -426h885l16 114h-771l77 547h522l16 114h-522l77 548h771l16 114h-886zM462 540l381 783h46l-22 -159l-87 -624h-318z" />
    <glyph glyph-name="Ccedilla" unicode="&#xc7;" horiz-adv-x="1366" 
d="M1072 351q-155 -238 -438 -238q-226 0 -331 160q-104 161 -65 444q40 284 190 444t376 160q281 0 370 -234l112 43q-53 149 -173 227q-120 79 -293 79q-275 0 -462 -193t-234 -526q-44 -312 70 -502q113 -189 357 -213l23 -2l-13 -116l30 -6q24 -5 32 -17q7 -11 0 -31
q-6 -20 -19 -27q-15 -8 -39 -3q-11 2 -19 6l-45 -71q17 -9 38 -13q16 -3 31 -3q36 0 65 16q46 26 64 80t-6 94q-16 25 -46 38l6 53q163 8 297 88q133 79 223 220z" />
    <glyph glyph-name="Egrave" unicode="&#xc8;" horiz-adv-x="1247" 
d="M282 1436l-202 -1436h886l16 114h-772l77 547h523l16 114h-523l77 547h771l16 114h-885zM694 1825l19 -160l115 -26l-55 186h-79z" />
    <glyph glyph-name="Eacute" unicode="&#xc9;" horiz-adv-x="1247" 
d="M282 1436l-202 -1436h886l16 114h-772l77 547h523l16 114h-523l77 547h771l16 114h-885zM785 1825l-107 -186l122 26l65 160h-80z" />
    <glyph glyph-name="Ecircumflex" unicode="&#xca;" horiz-adv-x="1247" 
d="M282 1436l-202 -1436h886l16 114h-772l77 547h523l16 114h-523l77 547h771l16 114h-885zM790 1864l-103 -64l-117 -103l64 -74l140 122l105 -122l85 74l-88 103z" />
    <glyph glyph-name="Edieresis" unicode="&#xcb;" horiz-adv-x="1247" 
d="M282 1436l-202 -1436h886l16 114h-772l77 547h523l16 114h-523l77 547h771l16 114h-885zM537 1780q-27 -24 -32 -58q-4 -33 16 -57q21 -24 54 -24q34 0 61 24t32 57q5 34 -16 58q-20 24 -54 24q-33 0 -61 -24zM893 1780q-27 -24 -32 -58q-4 -33 16 -57q21 -24 54 -24
q34 0 61 24t32 57q5 34 -16 58q-20 24 -54 24t-61 -24z" />
    <glyph glyph-name="Igrave" unicode="&#xcc;" horiz-adv-x="512" 
d="M282 1436l-202 -1436h114l202 1436h-114zM297 1824l20 -159l115 -26l-55 185h-80z" />
    <glyph glyph-name="Iacute" unicode="&#xcd;" horiz-adv-x="569" 
d="M282 1436l-202 -1436h114l202 1436h-114zM410 1824l-107 -185l122 26l64 159h-79z" />
    <glyph glyph-name="Icircumflex" unicode="&#xce;" horiz-adv-x="658" 
d="M282 1436l-202 -1436h114l202 1436h-114zM404 1863l-103 -63l-117 -103l64 -75l140 123l105 -123l85 75l-88 103z" />
    <glyph glyph-name="Idieresis" unicode="&#xcf;" horiz-adv-x="723" 
d="M282 1436l-202 -1436h114l202 1436h-114zM152 1780q-28 -24 -32 -58q-5 -34 15 -57q21 -24 55 -24q33 0 60 24q28 23 32 57q5 34 -15 58q-21 24 -55 24q-33 0 -60 -24zM507 1780q-27 -24 -32 -58q-4 -34 16 -57q21 -24 54 -24q34 0 61 24q28 23 32 57q5 34 -16 58
q-20 24 -54 24q-33 0 -61 -24z" />
    <glyph glyph-name="Eth" unicode="&#xd0;" horiz-adv-x="1405" 
d="M245 114h354q225 0 375 160q150 161 190 444q40 284 -65 444t-330 160h-354l-77 -547h240l-16 -114h-240zM115 0l93 661h-128l16 114h128l93 661h468q275 0 407 -193q133 -193 86 -525q-46 -332 -233 -525t-462 -193h-468z" />
    <glyph glyph-name="Ntilde" unicode="&#xd1;" horiz-adv-x="1284" 
d="M282 1436l-202 -1435h114l176 1255l484 -1256h149l201 1435h-114l-176 -1255l-484 1256h-148zM764 1660l33 14l33 13q37 12 67 12q16 0 29 -3l30 -7l17 116l-12 8q-12 8 -26 11q-9 2 -20 2q-33 0 -111 -34l-33 -13l-34 -13q-37 -12 -67 -12q-15 0 -29 3l-30 7l-16 -116
l11 -8q13 -8 26 -11q9 -2 20 -2q34 0 112 33z" />
    <glyph glyph-name="Ograve" unicode="&#xd2;" horiz-adv-x="1411" 
d="M426 1162q-146 -160 -185 -444q-40 -283 60 -444q101 -160 320 -160q218 0 364 160q145 161 185 444q40 284 -61 444q-100 161 -319 161q-218 0 -364 -161zM208 193q-128 193 -82 525q47 333 230 526q182 193 450 193t397 -193q128 -193 81 -526q-46 -332 -229 -525
t-450 -193q-268 0 -397 193zM775 1825l20 -160l115 -26l-55 186h-80z" />
    <glyph glyph-name="Oacute" unicode="&#xd3;" horiz-adv-x="1411" 
d="M426 1162q-146 -160 -185 -444q-40 -283 60 -444q101 -160 320 -160q218 0 364 160q145 161 185 444q40 284 -61 444q-100 161 -319 161q-218 0 -364 -161zM208 193q-128 193 -82 525q47 333 230 526q182 193 450 193t397 -193q128 -193 81 -526q-46 -332 -229 -525
t-450 -193q-268 0 -397 193zM946 1825h-79l-107 -186l122 26z" />
    <glyph glyph-name="Ocircumflex" unicode="&#xd4;" horiz-adv-x="1411" 
d="M426 1162q-146 -160 -185 -444q-40 -283 60 -444q101 -160 320 -160q218 0 364 160q145 161 185 444q40 284 -61 444q-100 161 -319 161q-218 0 -364 -161zM208 193q-128 193 -82 525q47 333 230 526q182 193 450 193t397 -193q128 -193 81 -526q-46 -332 -229 -525
t-450 -193q-268 0 -397 193zM872 1864l-103 -64l-118 -103l64 -74l140 123l106 -123l85 74l-89 103z" />
    <glyph glyph-name="Otilde" unicode="&#xd5;" horiz-adv-x="1411" 
d="M426 1162q-146 -160 -185 -444q-40 -283 60 -444q101 -160 320 -160q218 0 364 160q145 161 185 444q40 284 -61 444q-100 161 -319 161q-218 0 -364 -161zM208 193q-128 193 -82 525q47 333 230 526q182 193 450 193t397 -193q128 -193 81 -526q-46 -332 -229 -525
t-450 -193q-268 0 -397 193zM1020 1690l16 115l-11 8q-13 8 -26 11q-10 3 -21 3q-33 0 -111 -34l-33 -14l-33 -12q-38 -12 -67 -12q-16 0 -30 3l-29 6l-17 -116l12 -7q12 -8 25 -12q10 -2 21 -2q33 0 111 34l33 14l33 12q38 12 68 12q15 0 29 -3z" />
    <glyph glyph-name="Odieresis" unicode="&#xd6;" horiz-adv-x="1411" 
d="M426 1162q-146 -160 -185 -444q-40 -283 60 -444q101 -160 320 -160q218 0 364 160q145 161 185 444q40 284 -61 444q-100 161 -319 161q-218 0 -364 -161zM208 193q-128 193 -82 525q47 333 230 526q182 193 450 193t397 -193q128 -193 81 -526q-46 -332 -229 -525
t-450 -193q-268 0 -397 193zM619 1780q-27 -24 -32 -57q-5 -34 16 -58q20 -24 54 -24t61 24t32 58q5 33 -16 57q-20 24 -54 24t-61 -24zM975 1780q-27 -24 -32 -57q-5 -34 16 -58q20 -24 54 -24t61 24t32 58q5 33 -16 57q-20 24 -54 24t-61 -24z" />
    <glyph glyph-name="multiply" unicode="&#xd7;" horiz-adv-x="852" 
d="M426 618l-247 -247l-99 99l247 247l-247 248l99 98l247 -247l248 247l98 -99l-247 -247l247 -247l-99 -99z" />
    <glyph glyph-name="Oslash" unicode="&#xd8;" horiz-adv-x="1396" 
d="M612 114l310 1188q148 -48 211 -199q63 -152 30 -385q-40 -284 -186 -444q-145 -160 -364 -160h-1zM419 1162q146 160 364 160h11l-311 -1190q-152 45 -217 197q-66 153 -33 389q40 284 186 444zM999 1596h-133l-42 -160l-25 1q-268 0 -450 -193q-183 -193 -230 -526
q-39 -282 49 -467q89 -184 285 -234l-46 -177h133l42 160h15q268 0 451 193t229 525q39 280 -47 464q-86 182 -277 235z" />
    <glyph glyph-name="Ugrave" unicode="&#xd9;" horiz-adv-x="1369" 
d="M197 155q-117 156 -78 431l119 851h114l-119 -851q-32 -225 58 -348q91 -124 287 -124t321 124q125 123 157 348l119 851h114l-119 -851q-39 -275 -200 -431q-161 -155 -408 -155t-365 155zM733 1825l19 -160l115 -26l-55 186h-79z" />
    <glyph glyph-name="Uacute" unicode="&#xda;" horiz-adv-x="1369" 
d="M197 155q-117 156 -78 431l119 851h114l-119 -851q-32 -225 58 -348q91 -124 287 -124t321 124q125 123 157 348l119 851h114l-119 -851q-39 -275 -200 -431q-161 -155 -408 -155t-365 155zM717 1639l122 26l65 160h-80z" />
    <glyph glyph-name="Ucircumflex" unicode="&#xdb;" horiz-adv-x="1369" 
d="M197 155q-117 156 -78 431l119 851h114l-119 -851q-32 -225 58 -348q91 -124 287 -124t321 124q125 123 157 348l119 851h114l-119 -851q-39 -275 -200 -431q-161 -155 -408 -155t-365 155zM829 1864l-103 -64l-117 -103l64 -74l140 123l105 -123l85 74l-89 103z" />
    <glyph glyph-name="Udieresis" unicode="&#xdc;" horiz-adv-x="1369" 
d="M197 155q-117 156 -78 431l119 851h114l-119 -851q-32 -225 58 -348q91 -124 287 -124t321 124q125 123 157 348l119 851h114l-119 -851q-39 -275 -200 -431q-161 -155 -408 -155t-365 155zM576 1780q-27 -24 -32 -58q-4 -33 16 -57q21 -24 54 -24q34 0 61 24t32 57
q5 34 -16 58q-20 24 -54 24q-33 0 -61 -24zM932 1780q-27 -24 -32 -58q-5 -33 16 -57t54 -24q34 0 61 24t32 57q5 34 -16 58q-20 24 -54 24t-61 -24z" />
    <glyph glyph-name="Yacute" unicode="&#xdd;" horiz-adv-x="1225" 
d="M1008 1439l-478 -595l-313 595h-137l375 -714l-102 -725h114l102 722l576 717h-137zM673 1827l-107 -186l122 26l64 160h-79z" />
    <glyph glyph-name="Thorn" unicode="&#xde;" horiz-adv-x="959" 
d="M263 488h272q29 0 56 8q34 10 62 32q71 57 89 189q19 132 -36 189q-22 22 -53 32q-25 8 -54 8h-272zM80 0l202 1436h114l-53 -376h272q134 0 199 -92t42 -251q-22 -159 -113 -251q-90 -92 -224 -92h-272l-53 -374h-114z" />
    <glyph glyph-name="germandbls" unicode="&#xdf;" horiz-adv-x="1133" 
d="M475 48q-67 49 -80 134l118 12q26 -80 152 -80q74 0 122 29q63 37 75 122q12 84 -41 122q-40 29 -114 29q-126 0 -192 69t-50 184q16 114 98 183l1 1q40 35 123 96l38 28l37 28q40 32 66 58q68 67 76 128q11 75 -28 105t-148 30l-18 -1h-22q-27 -2 -52 -7
q-68 -15 -123 -56q-158 -117 -204 -441l-115 -818h-114l115 818q49 346 222 501q132 118 327 118q309 0 274 -249q-13 -97 -99 -188q-34 -35 -83 -75l-45 -35l-44 -32q-81 -60 -113 -88l-4 -3q-42 -35 -51 -101q-11 -78 38 -113q37 -26 106 -26q132 0 201 -72t52 -193
t-106 -193t-221 -72q-107 0 -174 48z" />
    <glyph glyph-name="agrave" unicode="&#xe0;" 
d="M580 1334l20 -159l115 -26l-55 185h-80zM268 208q-72 94 -48 265t122 265t253 94t227 -94t48 -264v-1q-24 -171 -123 -265q-98 -94 -253 -94q-154 0 -226 94zM911 764q-51 139 -197 172l-8 2q-45 8 -95 8q-49 0 -95 -8l-11 -2q-161 -32 -267 -154q-106 -123 -132 -309
q-26 -185 45 -307q71 -123 223 -155l8 -2q46 -9 96 -9q51 0 99 9l10 2q153 33 242 172l-26 -183h115l132 945h-114z" />
    <glyph glyph-name="aacute" unicode="&#xe1;" 
d="M672 1334l-107 -185l122 26l64 159h-79zM268 208q-72 94 -48 265t122 265t253 94t227 -94t48 -264v-1q-24 -171 -123 -265q-98 -94 -253 -94q-154 0 -226 94zM911 764q-51 139 -197 172l-8 2q-45 8 -95 8q-49 0 -95 -8l-11 -2q-161 -32 -267 -154q-106 -123 -132 -309
q-26 -185 45 -307q71 -123 223 -155l8 -2q46 -9 96 -9q51 0 99 9l10 2q153 33 242 172l-26 -183h115l132 945h-114z" />
    <glyph glyph-name="acircumflex" unicode="&#xe2;" 
d="M677 1371l-103 -63l-118 -103l64 -75l140 123l106 -123l85 75l-89 103zM268 208q-72 94 -48 265t122 265t253 94t227 -94t48 -264v-1q-24 -171 -123 -265q-98 -94 -253 -94q-154 0 -226 94zM911 764q-51 139 -197 172l-8 2q-45 8 -95 8q-49 0 -95 -8l-11 -2
q-161 -32 -267 -154q-106 -123 -132 -309q-26 -185 45 -307q71 -123 223 -155l8 -2q46 -9 96 -9q51 0 99 9l10 2q153 33 242 172l-26 -183h115l132 945h-114z" />
    <glyph glyph-name="atilde" unicode="&#xe3;" 
d="M632 1168l33 14l33 13q38 12 67 12q16 0 29 -3l30 -7l17 116l-12 8q-12 8 -25 11q-10 2 -21 2q-33 0 -111 -34l-33 -13l-33 -13q-38 -12 -68 -12q-15 0 -29 3l-30 7l-16 -116l11 -8q13 -8 26 -11q10 -2 21 -2q33 0 111 33zM268 208q-72 94 -48 265t122 265t253 94
t227 -94t48 -264v-1q-24 -171 -123 -265q-98 -94 -253 -94q-154 0 -226 94zM911 764q-51 139 -197 172l-8 2q-45 8 -95 8q-49 0 -95 -8l-11 -2q-161 -32 -267 -154q-106 -123 -132 -309q-26 -185 45 -307q71 -123 223 -155l8 -2q46 -9 96 -9q51 0 99 9l10 2q153 33 242 172
l-26 -183h115l132 945h-114z" />
    <glyph glyph-name="adieresis" unicode="&#xe4;" 
d="M539 1290q-20 23 -54 23t-61 -23q-27 -24 -32 -58t16 -57q21 -24 54 -24q34 0 61 24q27 23 32 57t-16 58zM879 1175q27 23 32 57t-16 58q-20 23 -54 23t-61 -23q-27 -24 -32 -58t16 -57q20 -24 54 -24t61 24zM268 208q-72 94 -48 265t122 265t253 94t227 -94t48 -264v-1
q-24 -171 -123 -265q-98 -94 -253 -94q-154 0 -226 94zM911 764q-51 139 -197 172l-8 2q-45 8 -95 8q-49 0 -95 -8l-11 -2q-161 -32 -267 -154q-106 -123 -132 -309q-26 -185 45 -307q71 -123 223 -155l8 -2q46 -9 96 -9q51 0 99 9l10 2q153 33 242 172l-26 -183h115
l132 945h-114z" />
    <glyph glyph-name="aring" unicode="&#xe5;" 
d="M268 208q-72 94 -48 265t122 265t253 94t227 -94t48 -264v-1q-24 -171 -123 -265q-98 -94 -253 -94q-154 0 -226 94zM911 764q-51 139 -197 172l-8 2q-45 8 -95 8q-49 0 -95 -8l-11 -2q-161 -32 -267 -154q-106 -123 -132 -309q-26 -185 45 -307q71 -123 223 -155l8 -2
q46 -9 96 -9q51 0 99 9l10 2q153 33 242 172l-26 -183h115l132 945h-114zM606 1192q-15 16 -11 40q3 24 22 40q19 17 43 17q23 0 38 -17q14 -16 11 -40q-4 -24 -23 -40q-19 -17 -42 -17q-24 0 -38 17zM579 1316q-40 -35 -47 -84q-6 -49 23 -84q30 -35 80 -35q49 0 89 35
t47 84t-23 84t-80 35q-49 0 -89 -35z" />
    <glyph glyph-name="ae" unicode="&#xe6;" horiz-adv-x="1840" 
d="M1152 771q-89 -61 -132 -175l-24 -63h653l-6 63q-11 114 -83 175t-196 61q-123 0 -212 -61zM348 738q-99 -94 -123 -265t48 -265t227 -94q154 0 252 94q99 93 123 264v2q20 144 -28 234q-66 124 -246 124q-155 0 -253 -94zM1015 66l-71 48l-16 -112h-119l16 114l-85 -50
q-114 -66 -256 -66q-203 0 -303 127q-101 127 -70 346t167 346t339 127q222 0 320 -153l33 -51l47 51q141 153 363 153q176 0 276 -98q101 -98 104 -272q0 -45 -6 -94l-7 -52h-766l3 -61q7 -123 82 -189t208 -66q194 0 304 120l97 -51q-71 -87 -180 -135t-237 -48
q-145 0 -243 66z" />
    <glyph glyph-name="ccedilla" unicode="&#xe7;" horiz-adv-x="1034" 
d="M777 236q-101 -123 -280 -123q-155 0 -227 94t-48 265t123 265q98 94 253 94q177 0 245 -122l111 49q-44 90 -132 138q-88 49 -208 49q-203 0 -339 -127t-167 -346q-28 -202 55 -326q83 -125 259 -144l14 -2l-13 -112l30 -6q25 -5 32 -17q7 -11 1 -31q-7 -20 -20 -27
q-15 -8 -39 -3q-11 2 -19 6l-45 -71q17 -9 38 -13q16 -3 31 -3q36 0 65 16q46 26 64 80q19 54 -6 94q-15 25 -46 38l6 49h6q225 16 355 188z" />
    <glyph glyph-name="egrave" unicode="&#xe8;" horiz-adv-x="1074" 
d="M583 1332l20 -159l115 -26l-56 185h-79zM386 771q89 61 212 61q124 0 196 -61t83 -175l1 -8q0 -5 1 -10v-14q1 -17 0 -31h-645q8 35 20 63q43 114 132 175zM988 482q6 49 6 94q-3 174 -104 272q-100 98 -276 98q-203 0 -338 -127q-136 -127 -167 -346l-1 -10
q-28 -214 75 -339q104 -124 309 -124q128 0 237 48t180 135l-97 51q-110 -120 -304 -120q-133 0 -208 66t-82 189q-1 25 1 61h762z" />
    <glyph glyph-name="eacute" unicode="&#xe9;" horiz-adv-x="1074" 
d="M675 1332l-107 -185l122 26l65 159h-80zM386 771q89 61 212 61q124 0 196 -61t83 -175l1 -8q0 -5 1 -10v-14q1 -17 0 -31h-645q8 35 20 63q43 114 132 175zM988 482q6 49 6 94q-3 174 -104 272q-100 98 -276 98q-203 0 -338 -127q-136 -127 -167 -346l-1 -10
q-28 -214 75 -339q104 -124 309 -124q128 0 237 48t180 135l-97 51q-110 -120 -304 -120q-133 0 -208 66t-82 189q-1 25 1 61h762z" />
    <glyph glyph-name="ecircumflex" unicode="&#xea;" horiz-adv-x="1074" 
d="M680 1371l-103 -63l-118 -103l64 -75l140 123l106 -123l85 75l-89 103zM386 771q89 61 212 61q124 0 196 -61t83 -175l1 -8q0 -5 1 -10v-14q1 -17 0 -31h-645q8 35 20 63q43 114 132 175zM988 482q6 49 6 94q-3 174 -104 272q-100 98 -276 98q-203 0 -338 -127
q-136 -127 -167 -346l-1 -10q-28 -214 75 -339q104 -124 309 -124q128 0 237 48t180 135l-97 51q-110 -120 -304 -120q-133 0 -208 66t-82 189q-1 25 1 61h762z" />
    <glyph glyph-name="edieresis" unicode="&#xeb;" horiz-adv-x="1074" 
d="M411 1173q20 -24 54 -24t61 24t32 57q5 34 -16 58q-20 24 -54 24t-61 -24t-32 -58q-5 -33 16 -57zM783 1288q-27 -24 -32 -58q-5 -33 16 -57q20 -24 54 -24t61 24t32 57q4 34 -16 58q-21 24 -54 24q-34 0 -61 -24zM386 771q89 61 212 61q124 0 196 -61t83 -175l1 -8
q0 -5 1 -10v-14q1 -17 0 -31h-645q8 35 20 63q43 114 132 175zM988 482q6 49 6 94q-3 174 -104 272q-100 98 -276 98q-203 0 -338 -127q-136 -127 -167 -346l-1 -10q-28 -214 75 -339q104 -124 309 -124q128 0 237 48t180 135l-97 51q-110 -120 -304 -120q-133 0 -208 66
t-82 189q-1 25 1 61h762z" />
    <glyph glyph-name="igrave" unicode="&#xec;" horiz-adv-x="443" 
d="M213 946l-133 -946h114l133 946h-114zM228 1332l20 -159l115 -26l-56 185h-79z" />
    <glyph glyph-name="iacute" unicode="&#xed;" horiz-adv-x="500" 
d="M213 946l-133 -946h114l133 946h-114zM341 1332l-107 -185l122 26l64 159h-79z" />
    <glyph glyph-name="icircumflex" unicode="&#xee;" horiz-adv-x="589" 
d="M213 946l-133 -946h114l133 946h-114zM335 1371l-103 -63l-117 -103l64 -75l140 123l105 -123l85 75l-88 103z" />
    <glyph glyph-name="idieresis" unicode="&#xef;" horiz-adv-x="688" 
d="M247 946l-133 -946h115l132 946h-114zM117 1288q-27 -24 -32 -58t16 -57q20 -24 54 -24t61 24q27 23 32 57q4 34 -16 58q-21 23 -54 23q-34 0 -61 -23zM473 1288q-28 -24 -32 -58q-5 -34 16 -57q20 -24 54 -24q33 0 61 24q27 23 32 57q4 34 -16 58q-21 23 -54 23
q-34 0 -61 -23z" />
    <glyph glyph-name="eth" unicode="&#xf0;" horiz-adv-x="1012" 
d="M664 192q-81 -78 -213 -78q-131 0 -191 78q-59 78 -39 224q21 145 102 223t213 78q131 0 191 -78q59 -78 38 -223q-20 -146 -101 -224zM414 1141q5 0 13 -1q11 -2 23 -5q16 -4 32 -10q44 -16 84 -42l-127 -86l67 -36q63 61 98 94q119 -97 176 -279h1q-28 15 -64 27
q-30 9 -63 16q-27 7 -55 9q-6 1 -9 2v-1q-21 2 -38 2q-179 0 -298 -112q-120 -111 -147 -303q-27 -193 61 -304q88 -112 267 -112t298 112q120 111 147 304q52 371 -69 595q-120 224 -381 245z" />
    <glyph glyph-name="ntilde" unicode="&#xf1;" horiz-adv-x="1041" 
d="M616 1168l33 14l33 13q38 12 67 12q16 0 29 -3l30 -7l17 116l-12 7q-12 9 -25 12q-10 2 -21 2q-33 0 -111 -34l-33 -14l-33 -12q-38 -12 -68 -12q-15 0 -29 3l-30 6l-16 -115l11 -8q13 -8 26 -11q10 -2 21 -2q33 0 111 33zM608 946q-100 0 -184 -40q-67 -34 -116 -97
l19 136h-114l-133 -945h114l74 526q32 148 115 227t209 79q137 0 197 -93t36 -266l-66 -473h114l66 473q22 154 -19 267t-138 166q-73 40 -174 40z" />
    <glyph glyph-name="ograve" unicode="&#xf2;" horiz-adv-x="1100" 
d="M348 738q-99 -94 -123 -265t48 -265t227 -94t253 94t122 265t-48 265t-226 94q-155 0 -253 -94zM181 127q-101 127 -70 346t167 346t339 127t303 -127t69 -346t-166 -346q-136 -127 -339 -127t-303 127zM586 1334l19 -159l115 -26l-55 185h-79z" />
    <glyph glyph-name="oacute" unicode="&#xf3;" horiz-adv-x="1100" 
d="M348 738q-99 -94 -123 -265t48 -265t227 -94t253 94t122 265t-48 265t-226 94q-155 0 -253 -94zM181 127q-101 127 -70 346t167 346t339 127t303 -127t69 -346t-166 -346q-136 -127 -339 -127t-303 127zM757 1334h-80l-107 -185l122 26z" />
    <glyph glyph-name="ocircumflex" unicode="&#xf4;" horiz-adv-x="1100" 
d="M348 738q-99 -94 -123 -265t48 -265t227 -94t253 94t122 265t-48 265t-226 94q-155 0 -253 -94zM181 127q-101 127 -70 346t167 346t339 127t303 -127t69 -346t-166 -346q-136 -127 -339 -127t-303 127zM666 1255l105 -123l85 75l-88 103l-86 63l-103 -63l-117 -103
l64 -75z" />
    <glyph glyph-name="otilde" unicode="&#xf5;" horiz-adv-x="1100" 
d="M348 738q-99 -94 -123 -265t48 -265t227 -94t253 94t122 265t-48 265t-226 94q-155 0 -253 -94zM181 127q-101 127 -70 346t167 346t339 127t303 -127t69 -346t-166 -346q-136 -127 -339 -127t-303 127zM830 1199l16 116l-11 7q-12 9 -26 12q-9 2 -20 2q-34 0 -112 -34
l-33 -14l-33 -12q-37 -12 -67 -12q-15 0 -29 3l-30 7l-16 -116l11 -8q12 -8 26 -11q9 -2 20 -2q34 0 111 33l33 14l34 13q37 12 67 12q15 0 29 -3z" />
    <glyph glyph-name="odieresis" unicode="&#xf6;" horiz-adv-x="1100" 
d="M348 738q-99 -94 -123 -265t48 -265t227 -94t253 94t122 265t-48 265t-226 94q-155 0 -253 -94zM181 127q-101 127 -70 346t167 346t339 127t303 -127t69 -346t-166 -346q-136 -127 -339 -127t-303 127zM528 1175q28 23 32 57q5 34 -16 58q-20 24 -54 24q-33 0 -61 -24
q-27 -24 -32 -58q-4 -34 16 -57q21 -24 54 -24q34 0 61 24zM785 1290q-27 -24 -32 -58q-4 -34 16 -57q21 -24 54 -24q34 0 61 24q27 23 32 57t-16 58q-20 24 -54 24q-33 0 -61 -24z" />
    <glyph glyph-name="divide" unicode="&#xf7;" horiz-adv-x="648" 
d="M294 874q-17 20 -13 48t27 48q22 20 50 20q29 0 46 -20t13 -48t-27 -48t-51 -20t-45 20zM237 468q-17 20 -13 48t26 48q23 20 51 20t46 -20q17 -20 13 -48t-27 -48t-51 -20t-45 20zM568 772h-470l-18 -108h470z" />
    <glyph glyph-name="oslash" unicode="&#xf8;" horiz-adv-x="1090" 
d="M702 818q100 -30 144 -118q43 -89 24 -227q-23 -164 -115 -257q-92 -94 -237 -101zM335 731q92 93 237 100l-184 -703q-100 30 -144 118q-43 89 -24 227q23 164 115 258zM943 777q-67 120 -211 155l68 261h-133l-65 -247q-199 -3 -332 -130q-134 -127 -164 -343
q-26 -183 41 -304q67 -119 211 -155l-68 -261h133l65 247q200 3 333 130t163 343q26 183 -41 304z" />
    <glyph glyph-name="ugrave" unicode="&#xf9;" horiz-adv-x="1042" 
d="M534 1334l20 -159l115 -26l-56 185h-79zM775 422h-2q-31 -150 -115 -229q-83 -79 -210 -79q-137 0 -197 93q-60 92 -35 266l66 473h-114l-67 -473q-21 -154 20 -267q41 -114 137 -166q74 -40 174 -40t184 39q69 35 119 101l-19 -139h114l132 945h-114z" />
    <glyph glyph-name="uacute" unicode="&#xfa;" horiz-adv-x="1042" 
d="M626 1334l-107 -185l122 26l64 159h-79zM775 422h-2q-31 -150 -115 -229q-83 -79 -210 -79q-137 0 -197 93q-60 92 -35 266l66 473h-114l-67 -473q-21 -154 20 -267q41 -114 137 -166q74 -40 174 -40t184 39q69 35 119 101l-19 -139h114l132 945h-114z" />
    <glyph glyph-name="ucircumflex" unicode="&#xfb;" horiz-adv-x="1042" 
d="M631 1373l-103 -63l-118 -103l64 -75l140 123l106 -123l85 75l-89 103zM775 422h-2q-31 -150 -115 -229q-83 -79 -210 -79q-137 0 -197 93q-60 92 -35 266l66 473h-114l-67 -473q-21 -154 20 -267q41 -114 137 -166q74 -40 174 -40t184 39q69 35 119 101l-19 -139h114
l132 945h-114z" />
    <glyph glyph-name="udieresis" unicode="&#xfc;" horiz-adv-x="1042" 
d="M379 1288q-27 -23 -32 -57t16 -58q20 -24 54 -24t61 24t32 58t-16 57q-20 24 -54 24t-61 -24zM734 1289q-27 -23 -32 -57t16 -58q20 -23 54 -23q33 0 61 23q27 24 32 58q4 34 -16 57q-21 24 -54 24q-34 0 -61 -24zM775 422h-2q-31 -150 -115 -229q-83 -79 -210 -79
q-137 0 -197 93q-60 92 -35 266l66 473h-114l-67 -473q-21 -154 20 -267q41 -114 137 -166q74 -40 174 -40t184 39q69 35 119 101l-19 -139h114l132 945h-114z" />
    <glyph glyph-name="yacute" unicode="&#xfd;" horiz-adv-x="1132" 
d="M709 1332l-107 -186l122 26l65 160h-80zM864 420q-31 -149 -115 -227q-83 -79 -209 -79q-137 0 -197 92q-60 93 -36 267l67 472h-114l-67 -472q-22 -154 19 -268q41 -113 138 -165q74 -40 174 -40t184 39q67 34 117 98l-34 -240q-21 -152 -116 -235q-94 -83 -245 -83
q-171 0 -239 106l-111 -51q90 -169 334 -169q199 0 331 116t160 316l147 1048h-114z" />
    <glyph glyph-name="thorn" unicode="&#xfe;" horiz-adv-x="1199" 
d="M377 208q-72 94 -48 265v1q25 171 123 265q98 93 253 93t226 -94q72 -94 48 -265t-122 -265t-253 -94t-227 94zM817 938q-46 8 -96 8q-51 0 -99 -8l-9 -2q-154 -34 -243 -172l95 671h-115l-270 -1925h114l95 673q50 -140 196 -173l9 -1q44 -9 94 -9q49 0 95 8l11 3
q161 31 267 154t132 308t-45 308q-70 122 -222 155z" />
    <glyph glyph-name="ydieresis" unicode="&#xff;" horiz-adv-x="1132" 
d="M468 1289q-27 -24 -32 -57q-5 -34 16 -58q20 -24 54 -24q33 0 61 24q27 24 32 58q4 33 -16 57q-21 24 -54 24q-34 0 -61 -24zM823 1290q-28 -24 -32 -57q-5 -34 15 -58q21 -24 55 -24q33 0 60 24q28 24 32 58q5 33 -15 57q-21 24 -55 24q-33 0 -60 -24zM864 420
q-31 -149 -115 -227q-83 -79 -209 -79q-137 0 -197 92q-60 93 -36 267l67 472h-114l-67 -472q-22 -154 19 -268q41 -113 138 -165q74 -40 174 -40t184 39q67 34 117 98l-34 -240q-21 -152 -116 -235q-94 -83 -245 -83q-171 0 -239 106l-111 -51q90 -169 334 -169
q199 0 331 116t160 316l147 1048h-114z" />
    <glyph glyph-name="dotlessi" unicode="&#x131;" horiz-adv-x="615" 
d="M389 223q0 -173 100 -173h46v-50h-442v50h46q100 0 100 173v432q0 77 -111 77h-48v44q222 69 261 182h48v-735z" />
    <glyph glyph-name="circumflex" unicode="&#x2c6;" horiz-adv-x="742" 
d="M80 1079l232 355h118l232 -355h-58l-233 216l-233 -216h-58z" />
    <glyph glyph-name="caron" unicode="&#x2c7;" horiz-adv-x="742" 
d="M80 1434h58l233 -214l233 214h58l-232 -356h-118z" />
    <glyph glyph-name="uni02C9" unicode="&#x2c9;" horiz-adv-x="676" 
d="M80 1195v125h516v-125h-516z" />
    <glyph glyph-name="breve" unicode="&#x2d8;" horiz-adv-x="744" 
d="M80 1349h51q17 -73 75 -107t167 -34t166 33.5t74 107.5h51q-20 -133 -94 -201.5t-197 -68.5q-122 0 -197 69t-96 201z" />
    <glyph glyph-name="dotaccent" unicode="&#x2d9;" horiz-adv-x="375" 
d="M94 1289l69 72q6 6 13 9t14 3q6 0 12.5 -3t12.5 -9l71 -76q5 -4 7 -10t2 -14q-1 -9 -3 -15t-8 -12l-71 -76q-12 -11 -16 -13.5t-7 -2.5q-10 0 -16.5 2.5t-10.5 8.5l-75 87q-4 4 -6 9.5t-2 13.5q0 6 3 12.5t11 13.5z" />
    <glyph glyph-name="ring" unicode="&#x2da;" horiz-adv-x="515" 
d="M156 1257q0 -42 29 -71t71 -29t71 29t29 71q0 40 -29.5 69.5t-70.5 29.5t-70.5 -29.5t-29.5 -69.5zM80 1257q0 75 51 126t125 51q76 0 127.5 -51.5t51.5 -125.5q0 -75 -51.5 -126.5t-127.5 -51.5q-74 0 -125 51.5t-51 126.5z" />
    <glyph glyph-name="ogonek" unicode="&#x2db;" horiz-adv-x="528" 
d="M351 0q-71 -62 -110.5 -119.5t-39.5 -112.5q0 -47 27 -75t73 -28q40 0 69.5 15.5t49.5 48.5l28 -16q-36 -63 -90.5 -97t-119.5 -34q-70 0 -114 35.5t-44 90.5q0 76 60.5 156.5t161.5 135.5h49z" />
    <glyph glyph-name="tilde" unicode="&#x2dc;" horiz-adv-x="538" 
d="M249 1478l33 14l33 13q38 12 67 12q16 0 29 -3l30 -7l17 116l-12 7q-12 9 -25 12q-10 2 -21 2q-33 0 -111 -34l-33 -14l-33 -12q-38 -12 -68 -12q-15 0 -29 3l-30 6l-16 -115l11 -8q13 -8 26 -11q10 -2 21 -2q33 0 111 33z" />
    <glyph glyph-name="hungarumlaut" unicode="&#x2dd;" horiz-adv-x="391" 
d="M108 1438l-28 -197l84 22l25 175h-81zM230 1438l-19 -134l84 22l16 112h-81z" />
    <glyph glyph-name="endash" unicode="&#x2013;" horiz-adv-x="646" 
d="M96 776l-16 -114h470l16 114h-470z" />
    <glyph glyph-name="emdash" unicode="&#x2014;" horiz-adv-x="878" 
d="M96 776l-16 -114h702l16 114h-702z" />
    <glyph glyph-name="quoteleft" unicode="&#x2018;" horiz-adv-x="269" 
d="M108 1438l-28 -197l84 22l25 175h-81z" />
    <glyph glyph-name="quoteright" unicode="&#x2019;" horiz-adv-x="269" 
d="M80 1438l25 -175l84 -22l-28 197h-81z" />
    <glyph glyph-name="quotesinglbase" unicode="&#x201a;" horiz-adv-x="269" 
d="M108 77l-28 -197l84 23l25 174h-81z" />
    <glyph glyph-name="quotedblleft" unicode="&#x201c;" horiz-adv-x="391" 
d="M108 1438l-28 -197l84 22l25 175h-81zM230 1438l-19 -134l84 22l16 112h-81z" />
    <glyph glyph-name="quotedblright" unicode="&#x201d;" horiz-adv-x="391" 
d="M202 1438l25 -175l84 -22l-28 197h-81zM80 1438l16 -112l84 -22l-19 134h-81z" />
    <glyph glyph-name="quotedblbase" unicode="&#x201e;" horiz-adv-x="391" 
d="M202 -2l25 -175l84 -22l-28 197h-81zM80 -2l16 -112l84 -22l-19 134h-81z" />
    <glyph glyph-name="dagger" unicode="&#x2020;" horiz-adv-x="1033" 
d="M495 1022q-8 97 -54 178q-57 101 -57 129q0 49 36 78.5t96 29.5q57 0 94.5 -27.5t37.5 -71.5q0 -32 -55 -137q-46 -85 -55 -179q96 8 177 54q101 57 129 57q49 0 79 -36t30 -96q0 -57 -27.5 -94.5t-72.5 -37.5q-32 0 -136 55q-85 46 -179 57q8 -176 110 -277
q-106 -460 -112 -974h-38q-6 514 -114 974q102 101 111 277q-96 -10 -178 -55q-101 -57 -129 -57q-49 0 -78.5 36t-29.5 96q0 57 27.5 94.5t71.5 37.5q32 0 137 -56q85 -46 179 -55z" />
    <glyph glyph-name="daggerdbl" unicode="&#x2021;" horiz-adv-x="1033" 
d="M538 186q94 11 179 57q104 55 136 55q45 0 72.5 -37.5t27.5 -94.5q0 -60 -30 -96t-79 -36q-28 0 -129 57q-81 46 -177 54q9 -94 55 -179q55 -105 55 -137q0 -44 -37.5 -71.5t-94.5 -27.5q-60 0 -96 29.5t-36 78.5q0 28 57 129q46 81 54 178q-94 -9 -179 -55
q-105 -56 -137 -56q-44 0 -71.5 37.5t-27.5 94.5q0 60 29.5 96t78.5 36q28 0 129 -57q82 -45 178 -55q-9 226 -111 398q102 171 111 397q-96 -10 -178 -55q-101 -57 -129 -57q-49 0 -78.5 36t-29.5 96q0 57 27.5 94.5t71.5 37.5q32 0 137 -56q85 -46 179 -55q-8 97 -54 178
q-57 101 -57 129q0 49 36 78.5t96 29.5q57 0 94.5 -27.5t37.5 -71.5q0 -32 -55 -137q-46 -85 -55 -179q96 8 177 54q101 57 129 57q49 0 79 -36t30 -96q0 -57 -27.5 -94.5t-72.5 -37.5q-32 0 -136 55q-85 46 -179 57q8 -226 110 -397q-102 -172 -110 -398z" />
    <glyph glyph-name="bullet" unicode="&#x2022;" horiz-adv-x="752" 
d="M80 718q0 123 87 209t210 86q122 0 208.5 -86.5t86.5 -208.5t-87.5 -209.5t-209.5 -87.5q-123 0 -209 87t-86 210z" />
    <glyph glyph-name="ellipsis" unicode="&#x2026;" horiz-adv-x="993" 
d="M97 20q-17 20 -13 48t26 48q23 20 51 20t46 -20q17 -20 13 -48t-27 -48t-51 -20t-45 20zM442 20q-18 20 -14 48t27 48t51 20t45 -20t13 -48t-26 -48q-23 -20 -51 -20t-45 20zM786 20q-17 20 -13 48t27 48q22 20 50 20q29 0 46 -20t13 -48t-27 -48t-51 -20t-45 20z" />
    <glyph glyph-name="guilsinglleft" unicode="&#x2039;" horiz-adv-x="521" 
d="M391 544l-150 175l200 175l-70 81l-291 -256l219 -256z" />
    <glyph glyph-name="guilsinglright" unicode="&#x203a;" horiz-adv-x="521" 
d="M129 894l150 -175l-199 -175l69 -81l292 256l-220 256z" />
    <glyph glyph-name="fraction" unicode="&#x2044;" horiz-adv-x="753" 
d="M539 1576l-459 -1756h133l460 1756h-134z" />
    <glyph glyph-name="fraction" unicode="&#x2215;" horiz-adv-x="753" 
d="M539 1576l-459 -1756h133l460 1756h-134z" />
    <glyph glyph-name="franc" unicode="&#x20a3;" horiz-adv-x="1247" 
d="M282 1436l-202 -1436h114l93 661h523l16 114h-523l77 547h771l16 114h-885z" />
    <glyph glyph-name="lira" unicode="&#x20a4;" horiz-adv-x="1320" 
d="M80 0l301 1124q35 147 161 230q125 82 312 82q174 0 276 -73t110 -202l-117 -9q-9 72 -65 115q-73 55 -220 55q-141 0 -231 -54q-91 -55 -114 -155l-1 -4l-56 -210h317l-31 -114h-317l-49 -185h315l-31 -114h-315l-100 -372h816l-31 -114h-930z" />
    <glyph glyph-name="peseta" unicode="&#x20a7;" horiz-adv-x="2028" 
 />
    <glyph glyph-name="Euro" unicode="&#x20ac;" horiz-adv-x="1462" 
d="M364 124q-131 123 -152 348l-4 39h-128l31 115h98l6 52l5 40l6 40l9 53h-74l31 114h74l15 39q84 225 250 349q166 123 384 123q174 0 294 -78q119 -79 173 -227l-112 -43q-90 234 -371 234q-163 0 -289 -85t-200 -245l-30 -67h279l-31 -114h-278l-9 -49l-7 -44
q-3 -19 -5 -43l-5 -49h253l-31 -115h-224l12 -66q28 -160 130 -245q103 -86 266 -86q283 0 438 238l100 -43q-94 -148 -238 -228q-145 -81 -316 -81q-218 0 -350 124z" />
    <glyph glyph-name="uni2116" unicode="&#x2116;" horiz-adv-x="1747" 
d="M1234 779q-55 -53 -69 -152t26 -152t129 -53t143 53q55 53 69 152t-26 152t-129 53q-88 0 -143 -53zM1098 393q-68 86 -47 234q21 147 113 233t229 86q138 0 206 -86t47 -233q-20 -148 -112 -234q-92 -85 -230 -85t-206 85zM760 0l67 473q24 173 -36 266t-197 93
q-135 0 -221 -91t-111 -260l-68 -481h-114l133 945h114l-15 -109l87 55q14 9 27 15q84 40 184 40t174 -40q97 -53 138 -166t19 -267l-66 -473h-115zM1014 0l16 114h493l-16 -114h-493z" />
    <glyph glyph-name="trademark" unicode="&#x2122;" horiz-adv-x="396" 
d="M295 1641l-38 -108l-37 108h-21v-141h20v83l28 -80h21l28 80v-83h20v141h-21zM80 1641v-20h40v-121h20v121h41v20h-101z" />
    <glyph glyph-name="partialdiff" unicode="&#x2202;" horiz-adv-x="1152" 
d="M661 114q-151 0 -246 89q-95 90 -118 252q-22 163 48 252q69 89 220 89q150 0 245 -89t118 -252q23 -162 -47 -252q-70 -89 -220 -89zM549 910q-199 0 -297 -122t-69 -333q30 -210 162 -333q133 -122 332 -122q198 0 297 122q98 123 68 333q-1 11 -13 86
q-70 404 -323 643t-626 256l16 -115q378 -17 602 -285q89 -118 134 -214q-70 42 -148 64q-62 18 -121 20h-14z" />
    <glyph glyph-name="Delta" unicode="&#x2206;" horiz-adv-x="1178" 
d="M713 882l-633 -882h1018zM681 654l236 -540h-623z" />
    <glyph glyph-name="product" unicode="&#x220f;" horiz-adv-x="1369" 
d="M96 1436l-16 -114h221l-186 -1322h114l186 1322h516l-186 -1322h114l186 1322h228l16 114h-1193z" />
    <glyph glyph-name="summation" unicode="&#x2211;" horiz-adv-x="1212" 
d="M282 1436l182 -718l-384 -718h850l16 114h-682l323 604l-154 604h683l16 114h-850z" />
    <glyph glyph-name="minus" unicode="&#x2212;" horiz-adv-x="646" 
d="M96 776l-16 -114h470l16 114h-470z" />
    <glyph glyph-name="radical" unicode="&#x221a;" horiz-adv-x="1014" 
 />
    <glyph glyph-name="infinity" unicode="&#x221e;" horiz-adv-x="1087" 
d="M269 818q-50 -30 -59 -99q-10 -69 31 -99q32 -23 90 -23t96 23q50 30 59 99q10 69 -31 99q-31 23 -90 23q-58 0 -96 -23zM660 818q-50 -30 -59 -99q-10 -69 31 -99q31 -23 90 -23q58 0 96 23q50 30 59 99q10 69 -31 99q-32 23 -90 23t-96 -23zM548 532l-28 22l-33 -22
q-73 -50 -172 -50q-115 0 -175 65q-60 64 -44 172q15 108 92 172q78 64 193 64q99 0 158 -49l28 -22l33 22q73 49 172 49q115 0 175 -64t44 -172q-15 -108 -92 -172q-78 -65 -193 -65q-99 0 -158 50z" />
    <glyph glyph-name="integral" unicode="&#x222b;" horiz-adv-x="1048" 
d="M96 115q140 15 228 111t111 259l64 462q30 211 155 340t314 145l-16 -115q-140 -15 -228 -111t-111 -259l-64 -462q-30 -211 -155 -340t-314 -145z" />
    <glyph glyph-name="approxequal" unicode="&#x2248;" horiz-adv-x="676" 
d="M550 560q-52 12 -118 9q-26 -2 -59 -6l-58 -8q-155 -23 -235 1l16 109q51 -12 117 -8q26 1 59 6l59 8q154 23 235 -1zM580 768q-52 12 -118 9q-25 -2 -58 -6l-59 -8q-154 -23 -235 1l16 109q52 -12 117 -8q26 1 59 6l59 8q154 23 235 -1z" />
    <glyph glyph-name="lessequal" unicode="&#x2264;" horiz-adv-x="686" 
d="M584 1l22 159h-504l-22 -159h504zM383 237l128 113l-145 169l193 169l-97 113l-322 -282z" />
    <glyph glyph-name="greaterequal" unicode="&#x2265;" horiz-adv-x="686" 
d="M102 160l-22 -160h504l22 160h-504zM354 842l-129 -112l145 -170l-193 -169l97 -113l322 282z" />
    <glyph glyph-name="uniF001" unicode="&#xf001;" horiz-adv-x="1073" 
 />
    <glyph glyph-name="uniF001" unicode="&#xfb01;" horiz-adv-x="1073" 
 />
    <glyph glyph-name="uniF002" unicode="&#xf002;" horiz-adv-x="1081" 
 />
    <glyph glyph-name="uniF002" unicode="&#xfb02;" horiz-adv-x="1081" 
 />
    </font>
</defs>
</svg>
