<?xml version="1.0" standalone="no"?>
<!DOCTYPE svg PUBLIC "-//W3C//DTD SVG 1.1//EN" "http://www.w3.org/Graphics/SVG/1.1/DTD/svg11.dtd" >
<svg xmlns="http://www.w3.org/2000/svg" xmlns:xlink="http://www.w3.org/1999/xlink" version="1.1">
<metadata>
Created by FontForge 20170731 at Thu Sep  2 19:54:33 2021
 By Aleksey,,,
Copyright 2018 the Manrope Font authors (https://github.com/sharanda/manrope)
</metadata>
<defs>
<font id="Manrope-Semibold" horiz-adv-x="1309" >
  <font-face 
    font-family="Manrope Semibold"
    font-weight="600"
    font-stretch="semi-condensed"
    units-per-em="2048"
    panose-1="0 0 7 6 0 0 0 0 0 0"
    ascent="1638"
    descent="-410"
    x-height="1152"
    cap-height="1536"
    bbox="-79 -597 2357 2112"
    underline-thickness="106"
    underline-position="-319"
    unicode-range="U+0020-FB02"
  />
<missing-glyph horiz-adv-x="1578" 
d="M1365 1536v-28h-1152v28h1152zM1365 1419v-34h-1152v34h1152zM1365 1301v-38h-1152v38h1152zM1365 1182v-45h-1152v45h1152zM1365 1062v-47h-1152v47h1152zM1365 945v-51h-1152v51h1152zM1365 828v-60h-1152v60h1152zM1365 710v-64h-1152v64h1152zM1365 593v-70h-1152v70
h1152zM1365 474v-75h-1152v75h1152zM1365 356v-79h-1152v79h1152zM1365 239v-85h-1152v85h1152zM1365 0h-1152v122h1152v-122z" />
    <glyph glyph-name="fl" unicode="fl" horiz-adv-x="1363" 
d="M975 1568h239v-1568h-239v962h-465v-962h-241v962h-248v190h248v9q0 192 106 302q80 75 191.5 95.5t256.5 5.5v-209q-97 16 -170 0q-80 -12 -111.5 -55.5t-31.5 -119.5v-28h465v416z" />
    <glyph glyph-name="f_f" unicode="ff" horiz-adv-x="1563" 
d="M1370 1355q-80 -12 -111.5 -55.5t-31.5 -119.5v-28h315v-190h-315v-962h-241v962h-476v-962h-241v962h-248v190h248v9q0 192 106 302q80 75 191.5 95.5t256.5 5.5v-209q-97 16 -170 0q-80 -12 -111.5 -55.5t-31.5 -119.5v-28h476v9q0 192 106 302q80 75 191.5 95.5
t258.5 5.5v-209q-98 15 -172 0z" />
    <glyph glyph-name="f_f_l" unicode="ffl" horiz-adv-x="2013" 
d="M1623 1568h242v-1568h-242v962h-465v-962h-239v962h-409v-962h-241v962h-248v190h248v9q0 192 106 302q80 75 191.5 95.5t256.5 5.5v-209q-97 16 -170 0q-80 -12 -111.5 -55.5t-31.5 -119.5v-28h409v9q0 193 105 302q80 75 191.5 95.5t258.5 5.5v-209q-97 16 -173 0
q-80 -12 -111.5 -55.5t-31.5 -119.5v-28h465v416z" />
    <glyph glyph-name="hyphen_greater.liga" unicode="&#x2d;&#x3e;" horiz-adv-x="2154" 
d="M1346 1103l510 -510l-510 -510l-117 118l301 298h-1231v190h1228l-298 299z" />
    <glyph glyph-name="parenleft_greater_parenright.liga" unicode="&#x28;&#x3e;&#x29;" horiz-adv-x="2282" 
d="M1141 -288q216 0 411.5 83.5t336.5 224.5t224.5 336.5t83.5 411.5t-83.5 411.5t-224.5 336.5t-336.5 224.5t-411.5 83.5t-411.5 -83.5t-336.5 -224.5t-224.5 -336.5t-83.5 -411.5t83.5 -411.5t224.5 -336.5t336.5 -224.5t411.5 -83.5zM1143 -62q-170 0 -324 65.5
t-265.5 177t-177 265.5t-65.5 324q0 169 65.5 322.5t177 264t265.5 176t324 65.5q169 0 322.5 -65.5t264 -176t176 -264t65.5 -322.5q0 -170 -65.5 -324t-176 -265.5t-264 -177t-322.5 -65.5zM994 1137l442 -369l-442 -367v736z" />
    <glyph glyph-name="parenleft_c_parenright.liga" unicode="&#x28;c&#x29;" horiz-adv-x="1905" 
d="M951 -292q177 0 338 68.5t277 185t185 277t69 337.5q0 176 -69 336.5t-185 276.5t-277 184.5t-338 68.5q-176 0 -336.5 -68.5t-276.5 -184.5t-184.5 -276.5t-68.5 -336.5q0 -177 68.5 -337.5t184.5 -277t276.5 -185t336.5 -68.5zM951 -64q-130 0 -248.5 50.5
t-204.5 136.5t-136.5 204.5t-50.5 248.5t50.5 248.5t136.5 204.5t204.5 136.5t248.5 50.5t248.5 -50.5t204.5 -136.5t136.5 -204.5t50.5 -248.5t-50.5 -248.5t-136.5 -204.5t-204.5 -136.5t-248.5 -50.5zM1321 813l-171 -73q-9 19 -21 34q-28 39 -74.5 60t-98.5 21
q-110 0 -173 -81q-53 -71 -53 -196q0 -121 53 -196q28 -37 75 -58t98 -21q112 0 173 79q14 17 19 34l173 -75q-18 -35 -47 -68q-54 -70 -137.5 -105.5t-180.5 -37.5q-94 0 -178.5 37t-139.5 106q-103 123 -100 305q0 188 100 307q119 141 318 141q95 0 179 -36.5t139 -104.5
q34 -41 47 -72z" />
    <glyph glyph-name="space_less_three_space.liga" unicode="&#x20;&#x3c;&#x33;&#x20;" horiz-adv-x="2568" 
d="M1508 1184q171 0 299 -134q122 -131 122 -310q0 -176 -122 -307l-384 -405q-57 -60 -139 -60q-79 0 -136 60l-386 405q-122 131 -122 307q0 179 122 307q128 137 298 137q115 0 224 -68q108 68 224 68zM1508 994q-112 0 -224 -124q-118 124 -224 124q-87 0 -158 -77
q-70 -73 -70 -175q-3 -103 70 -179l382 -403l384 403q71 77 71 179q0 101 -71 175q-74 77 -160 77z" />
    <glyph glyph-name="less_hyphen.liga" unicode="&#x3c;&#x2d;" horiz-adv-x="2154" 
d="M1856 689v-190h-1233l301 -298l-115 -118l-512 510l512 510l115 -115l-299 -299h1231z" />
    <glyph glyph-name=".notdef" horiz-adv-x="1578" 
d="M1365 1536v-28h-1152v28h1152zM1365 1419v-34h-1152v34h1152zM1365 1301v-38h-1152v38h1152zM1365 1182v-45h-1152v45h1152zM1365 1062v-47h-1152v47h1152zM1365 945v-51h-1152v51h1152zM1365 828v-60h-1152v60h1152zM1365 710v-64h-1152v64h1152zM1365 593v-70h-1152v70
h1152zM1365 474v-75h-1152v75h1152zM1365 356v-79h-1152v79h1152zM1365 239v-85h-1152v85h1152zM1365 0h-1152v122h1152v-122z" />
    <glyph glyph-name=".null" horiz-adv-x="960" 
 />
    <glyph glyph-name="nonmarkingreturn" horiz-adv-x="682" 
 />
    <glyph glyph-name="space" unicode=" " horiz-adv-x="448" 
 />
    <glyph glyph-name="exclam" unicode="!" horiz-adv-x="753" 
d="M256 1536h241v-1152h-241v1152zM256 226h241v-226h-241v226z" />
    <glyph glyph-name="quotedbl" unicode="&#x22;" horiz-adv-x="970" 
d="M128 1536h241v-384h-241v384zM516 1536h241v-384h-241v384z" />
    <glyph glyph-name="numbersign" unicode="#" horiz-adv-x="1984" 
d="M1794 919h-395l-70 -266h395l-62 -226h-395l-113 -425h-232l111 425h-278l-113 -425h-232l113 425h-395l60 226h397l68 266h-395l62 224h395l104 393h235l-105 -393h278l104 393h235l-105 -393h395zM1094 653l71 266h-278l-70 -266h277z" />
    <glyph glyph-name="dollar" unicode="$" horiz-adv-x="1269" 
d="M1024 683q117 -114 117 -286q0 -103 -53 -200t-147 -152q-72 -44 -186 -66v-192h-241v196q-199 45 -299 200q-87 128 -87 282h243q0 -37 13 -79.5t36 -71.5q39 -56 93.5 -87t117.5 -31q119 0 188 58q71 54 71 149q0 45 -18.5 78.5t-65.5 66.5q-57 40 -178.5 90t-160.5 70
q-153 72 -234 179q-37 47 -59.5 112t-22.5 132q0 87 38 172t101 143q90 82 224 109v192h241v-194q161 -41 254 -166q99 -125 105 -286l-254 -2q0 76 -49 147q-76 94 -182 94q-103 0 -168 -71q-56 -53 -56 -136q0 -67 32 -109q25 -38 75 -67.5t128 -60.5q21 -9 67.5 -29
t62.5 -27.5t51.5 -23.5t50 -24.5t40.5 -23t41.5 -26t34.5 -27t36 -32.5z" />
    <glyph glyph-name="percent" unicode="%" horiz-adv-x="1890" 
d="M512 800q-159 0 -271.5 112.5t-112.5 271.5q0 156 115 270t269 114q159 0 271.5 -112.5t112.5 -271.5t-112.5 -271.5t-271.5 -112.5zM352 15l-160 160l1346 1344l160 -160zM512 983q83 0 143 59t60 142t-60 143t-143 60t-142 -60t-59 -143t59 -142t142 -59zM1378 -32
q-159 0 -271.5 112.5t-112.5 271.5q0 156 115 270t269 114q159 0 271.5 -112.5t112.5 -271.5t-112.5 -271.5t-271.5 -112.5zM1378 151q82 0 141.5 59t59.5 142t-59.5 143t-141.5 60q-83 0 -143 -60t-60 -143t60 -142t143 -59z" />
    <glyph glyph-name="ampersand" unicode="&#x26;" horiz-adv-x="1335" 
d="M1316 239l-136 -166l-139 115q-72 -123 -196 -175q-108 -45 -235 -45q-225 0 -367 130q-68 65 -102 155.5t-34 190.5q0 152 70 266q40 69 107 113q-71 77 -101 143q-44 80 -44 171q0 128 58.5 228t171.5 154q101 49 235 49q183 0 298 -85q89 -61 131 -158l-197 -88
q-24 57 -86.5 86.5t-132.5 29.5q-82 0 -150 -35q-96 -51 -96 -175q0 -84 54 -153q18 -24 55 -58l401 -330v196h230v-388zM864 337l-405 335q-59 -31 -86 -79q-34 -61 -34 -149q0 -125 64 -186q37 -40 94 -58.5t115 -18.5q79 0 143 32q79 37 109 124z" />
    <glyph glyph-name="quotesingle" unicode="'" horiz-adv-x="539" 
d="M128 1536h241v-384h-241v384z" />
    <glyph glyph-name="parenleft" unicode="(" horiz-adv-x="855" 
d="M465 -335l198 111q-179 314 -179 800q0 488 179 802l-198 111q-209 -365 -209 -913q0 -546 209 -911z" />
    <glyph glyph-name="parenright" unicode=")" horiz-adv-x="855" 
d="M390 -335q209 365 209 911q0 548 -209 913l-198 -111q181 -318 181 -802q0 -482 -181 -800z" />
    <glyph glyph-name="asterisk" unicode="*" horiz-adv-x="981" 
d="M853 1171l-222 -72l139 -188l-175 -126l-136 190l-137 -190l-175 126l139 188l-222 72l66 205l222 -73v233h213v-233l222 73z" />
    <glyph glyph-name="plus" unicode="+" horiz-adv-x="1280" 
d="M1152 702v-192h-416v-416h-190v416h-418v192h418v416h190v-416h416z" />
    <glyph glyph-name="comma" unicode="," horiz-adv-x="633" 
d="M378 -17q0 -135 -63 -201.5t-187 -46.5l15 107q68 -6 96 38t19 120h-130v267h250v-284z" />
    <glyph glyph-name="hyphen" unicode="-" horiz-adv-x="896" 
d="M128 702h640v-192h-640v192z" />
    <glyph glyph-name="period" unicode="." horiz-adv-x="629" 
d="M190 250h249v-250h-249v250z" />
    <glyph glyph-name="slash" unicode="/" horiz-adv-x="908" 
d="M538 1536h241l-410 -1536h-241z" />
    <glyph glyph-name="zero" unicode="0" horiz-adv-x="1258" 
d="M629 -30q125 0 232.5 45t183.5 132q73 85 100.5 178t27.5 219v450q0 129 -28.5 222t-101.5 177q-77 88 -186.5 133t-227.5 42q-121 3 -230.5 -43.5t-183.5 -131.5q-75 -90 -102.5 -180.5t-27.5 -218.5v-450q0 -127 28 -218t102 -179q74 -87 183.5 -132t230.5 -45z
M629 1342q79 0 148.5 -39.5t109.5 -107.5q26 -47 33.5 -90t7.5 -111v-450q0 -75 -8.5 -120.5t-36.5 -88.5q-41 -64 -109.5 -101.5t-144.5 -37.5q-74 0 -141.5 37t-109.5 100q-29 45 -38 94.5t-9 116.5v450q0 132 44 203q39 66 107.5 105.5t146.5 39.5z" />
    <glyph glyph-name="one" unicode="1" horiz-adv-x="853" 
d="M363 1536h245v-1536h-245v1274l-288 -177v266z" />
    <glyph glyph-name="two" unicode="2" horiz-adv-x="1243" 
d="M115 1075q-3 105 41.5 204.5t122.5 169.5q134 119 357 119q112 0 209.5 -40.5t163.5 -119.5q128 -142 128 -337q0 -94 -31.5 -172.5t-81 -138t-139.5 -143.5l-403 -389h634v-226h-1009v226l648 598q135 124 135 247q0 103 -67 179q-79 90 -200 90q-103 0 -179 -73
q-83 -80 -83 -194h-246z" />
    <glyph glyph-name="three" unicode="3" horiz-adv-x="1252" 
d="M1041 802q108 -136 105 -324q-3 -111 -47 -211t-124 -169q-71 -63 -162.5 -96.5t-185.5 -31.5q-95 -2 -187 31.5t-163 96.5q-106 94 -149 235l233 62q25 -80 78 -128q78 -69 188 -69q106 0 186 71q87 77 87 209t-83 211q-76 70 -192 70q-65 0 -139 -36l-111 188l425 399
h-612v226h934v-235l-365 -343q168 -27 284 -156z" />
    <glyph glyph-name="four" unicode="4" horiz-adv-x="1252" 
d="M1018 486h149v-226h-149v-260h-244v260h-667v226l495 1050h251l-497 -1050h418v408h244v-408z" />
    <glyph glyph-name="five" unicode="5" horiz-adv-x="1248" 
d="M205 1536h808v-226h-595l-23 -401q113 77 249 77q93 0 181 -32t156 -92q166 -150 160 -378q-1 -103 -43 -200.5t-115 -168.5q-73 -70 -170.5 -108.5t-200.5 -36.5q-99 -1 -194.5 36.5t-167.5 106.5q-103 97 -143 237l230 62q23 -79 79 -135q85 -79 196 -79q116 0 203 84
q85 82 85 202q0 58 -24 112.5t-65 92.5q-82 79 -199 79q-109 0 -190 -75q-32 -29 -53 -66l-211 120z" />
    <glyph glyph-name="six" unicode="6" horiz-adv-x="1273" 
d="M1071 1393l-173 -166q-44 53 -106.5 84t-130.5 31q-83 0 -155 -43.5t-107 -114.5q-47 -78 -47 -201v-125q63 61 146 95.5t172 34.5q93 0 181.5 -34t159.5 -96q159 -149 156 -374q-1 -104 -43.5 -200t-116.5 -167q-72 -72 -169 -110.5t-202 -36.5q-103 -2 -201 38.5
t-170 113.5q-90 87 -124 189.5t-34 243.5v428q0 130 30.5 227t105.5 181q160 182 418 175q249 3 410 -173zM764 252q49 24 83.5 66t48.5 94q26 105 -26 200q-54 98 -157 128q-107 30 -203 -23q-100 -53 -130 -160q-27 -106 25 -201q24 -45 65 -77.5t89 -45.5q106 -34 205 19
z" />
    <glyph glyph-name="seven" unicode="7" horiz-adv-x="1190" 
d="M286 0l533 1308h-691v228h934v-228l-531 -1308h-245z" />
    <glyph glyph-name="eight" unicode="8" horiz-adv-x="1252" 
d="M145 1137q10 221 160 335q126 96 320 96q199 0 322 -96q77 -58 117.5 -146.5t40.5 -188.5q0 -120 -62 -211q-24 -49 -79 -100q78 -65 120 -145q58 -95 62 -231q-7 -234 -163 -363q-137 -119 -358 -119q-100 0 -194 30t-162 89q-78 64 -120 160.5t-42 202.5q0 130 62 231
q43 81 119 145q-53 50 -81 100q-59 90 -62 211zM401 1137q-3 -98 60 -151q62 -52 164 -52q104 0 166 52q63 55 60 151q0 100 -62 152q-56 50 -164 53q-106 -4 -162 -53q-62 -50 -62 -152zM819 262q73 67 73 188q0 124 -73 188q-68 68 -194 68q-123 0 -194 -68
q-70 -64 -70 -188q0 -121 70 -188q72 -66 194 -66q125 0 194 66z" />
    <glyph glyph-name="nine" unicode="9" horiz-adv-x="1303" 
d="M233 141l174 166q41 -53 103.5 -83t131.5 -30q83 0 155.5 43t109.5 115q47 76 47 201v123q-134 -128 -320 -128q-93 0 -182.5 33.5t-159.5 96.5q-159 149 -153 374q1 102 43.5 199t114.5 166q71 71 169 110t202 37q103 2 201.5 -37.5t171.5 -112.5q89 -88 122.5 -190.5
t33.5 -244.5v-426q0 -130 -30.5 -228t-106.5 -182q-80 -91 -188 -134.5t-230 -40.5q-248 -3 -409 173zM540 1284q-48 -24 -82 -66.5t-48 -95.5q-27 -106 25 -198q48 -96 158 -128q103 -30 201 21q48 25 82 68t48 94q14 48 7.5 101t-31.5 98q-52 95 -153 123
q-103 35 -207 -17z" />
    <glyph glyph-name="colon" unicode=":" horiz-adv-x="699" 
d="M220 1009h249v-250h-249v250zM220 395h249v-250h-249v250z" />
    <glyph glyph-name="semicolon" unicode=";" horiz-adv-x="608" 
d="M194 1152h250v-250h-250v250zM331 -17q0 -135 -64 -202t-186 -46l13 107q69 -6 97 38.5t18 119.5h-128v267h250v-284z" />
    <glyph glyph-name="less" unicode="&#x3c;" horiz-adv-x="1352" 
d="M809 66l-510 510l510 510l117 -115l-395 -395l395 -393z" />
    <glyph glyph-name="equal" unicode="=" horiz-adv-x="1600" 
d="M256 877v-192h1088v192h-1088zM256 467v-190h1088v190h-1088z" />
    <glyph glyph-name="greater" unicode="&#x3e;" horiz-adv-x="1352" 
d="M544 66l-115 117l392 393l-392 395l115 115l510 -510z" />
    <glyph glyph-name="question" unicode="?" horiz-adv-x="1169" 
d="M1062 1141q0 -189 -160 -356q-20 -22 -88 -83.5t-89 -97.5q-20 -32 -28.5 -63t-9 -49t-0.5 -74h-256q0 164 62 271q24 50 59.5 86t91 79.5t94.5 84.5q40 46 55.5 92.5t15.5 105.5q0 81 -39 128q-61 75 -185 75q-106 0 -163 -51q-64 -51 -61 -152h-254q10 104 55.5 193.5
t119.5 143.5q123 92 294 92q262 0 388 -152q98 -112 98 -273zM433 0v271h254v-271h-254z" />
    <glyph glyph-name="at" unicode="@" horiz-adv-x="2052" 
d="M1028 1474q415 0 655.5 -241.5t240.5 -658.5q0 -93 -16 -170t-41 -127.5t-60 -88.5t-69 -58.5t-72.5 -33t-65 -16t-51.5 -3.5q-102 0 -186.5 49.5t-133.5 133.5q-81 -55 -201 -55q-168 0 -269.5 101t-101.5 268q0 168 101.5 270.5t269.5 102.5q166 0 267.5 -102.5
t101.5 -270.5v-120q0 -61 45 -105t107 -44q149 0 149 269q0 320 -176.5 496t-493.5 176q-98 0 -186.5 -17t-179.5 -64t-157 -120t-107.5 -194t-41.5 -277q0 -112 21.5 -206t58.5 -162t90 -120.5t111 -86t126.5 -55t132.5 -30t132 -8.5v-230q-419 0 -659.5 240.5
t-240.5 657.5q0 419 240.5 659.5t659.5 240.5zM1028 433q70 0 106.5 37.5t36.5 105.5q0 69 -36 106t-107 37q-143 0 -143 -143t143 -143z" />
    <glyph glyph-name="A" unicode="A" horiz-adv-x="1354" 
d="M1094 0l-85 262h-668l-83 -262h-247l492 1536h348l493 -1536h-250zM414 489h523l-263 810z" />
    <glyph glyph-name="B" unicode="B" horiz-adv-x="1361" 
d="M1193 730q89 -117 89 -276q-3 -153 -94 -273q-92 -114 -234 -158q-78 -23 -173 -23h-610v1536h578q99 0 156 -19q136 -37 213 -147q85 -100 92 -252q6 -138 -88 -252q-8 -12 -28 -36q59 -46 99 -100zM774 1312h-360v-395h382q85 18 128 79q43 52 40 122q0 74 -51 128
q-25 31 -63 48.5t-76 17.5zM969 294q67 61 70 160q0 89 -58 158q-68 79 -170 79h-397v-463h365q65 0 109.5 13.5t80.5 52.5z" />
    <glyph glyph-name="C" unicode="C" horiz-adv-x="1597" 
d="M1261 521l237 -69q-40 -129 -124 -234q-100 -123 -246 -186.5t-311 -63.5q-168 0 -314 65t-241 185q-177 218 -177 550q3 341 177 553q97 122 242 184.5t313 62.5t314 -63t243 -184q90 -112 139 -278l-248 -42q-27 103 -81 172q-62 82 -159.5 125.5t-207.5 43.5t-207 -44
t-156 -125q-113 -142 -113 -405q0 -261 113 -405q60 -82 156.5 -125.5t206.5 -41.5q109 -2 206.5 41.5t160.5 125.5q52 71 77 158z" />
    <glyph glyph-name="D" unicode="D" horiz-adv-x="1489" 
d="M1316 1143q88 -172 88 -375q0 -200 -88 -375q-93 -179 -268 -286t-374 -107h-503v1536h503q198 0 374 -106.5t268 -286.5zM1103 503q58 121 55 265q0 150 -55 267q-63 124 -182 199t-260 76h-247v-1084l247 2q137 2 259 76t183 199z" />
    <glyph glyph-name="E" unicode="E" horiz-adv-x="1280" 
d="M1152 1297h-740v-410h612v-238h-612v-408h740v-241h-981v1536h981v-239z" />
    <glyph glyph-name="F" unicode="F" horiz-adv-x="1130" 
d="M1088 1297h-676v-410h548v-238h-548v-649h-241v1536h917v-239z" />
    <glyph glyph-name="G" unicode="G" horiz-adv-x="1634" 
d="M909 806h640v-51q-10 -330 -175 -537q-98 -124 -243.5 -187t-313.5 -63q-171 0 -317 63.5t-238 186.5q-170 207 -177 550q7 339 177 550q92 122 239 186t316 64t314 -64.5t243 -185.5q40 -52 70 -111l-222 -100q-27 48 -40 66q-61 82 -158.5 125.5t-206.5 41.5
q-109 2 -206.5 -41.5t-160.5 -125.5q-107 -144 -111 -405q4 -261 111 -405q63 -82 160.5 -125.5t206.5 -41.5q109 -2 206.5 41.5t158.5 125.5q74 102 98 249h-371v194z" />
    <glyph glyph-name="H" unicode="H" horiz-adv-x="1570" 
d="M1158 1536h241v-1536h-241v538h-746v-538h-241v1536h241v-759h746v759z" />
    <glyph glyph-name="I" unicode="I" horiz-adv-x="539" 
d="M149 1536h241v-1536h-241v1536z" />
    <glyph glyph-name="J" unicode="J" horiz-adv-x="1056" 
d="M883 1536h-245v-1039q0 -91 -3 -125.5t-18 -68.5q-23 -50 -73.5 -79.5t-104.5 -29.5q-65 0 -119 41q-66 49 -83 126l-237 -58q25 -87 78.5 -159t130.5 -116q95 -60 230 -60q262 0 387 213q40 74 48.5 132t8.5 184v1039z" />
    <glyph glyph-name="K" unicode="K" horiz-adv-x="1425" 
d="M693 704h-279v-704h-243v1536h243v-642h279l401 642h288l-477 -736l520 -800h-290z" />
    <glyph glyph-name="L" unicode="L" horiz-adv-x="1130" 
d="M412 1536h-241v-1536h928v241h-687v1295z" />
    <glyph glyph-name="M" unicode="M" horiz-adv-x="1896" 
d="M1726 1536v-1536h-243v1018l-482 -1018h-103l-484 1018v-1018h-243v1536h243l535 -1122l534 1122h243z" />
    <glyph glyph-name="N" unicode="N" horiz-adv-x="1546" 
d="M384 1536l749 -1094v1094h243v-1536h-213l-747 1094v-1094h-245v1536h213z" />
    <glyph glyph-name="O" unicode="O" horiz-adv-x="1632" 
d="M817 -32q-169 0 -315 64t-242 186q-175 217 -175 550q0 336 175 553q95 122 241 184.5t316 62.5q168 -2 313 -64.5t242 -182.5q168 -207 175 -553q-3 -337 -175 -550q-98 -123 -243.5 -186.5t-311.5 -63.5zM817 196q110 -2 206.5 41.5t156.5 125.5q113 148 113 405
q0 260 -113 405q-60 82 -156.5 125.5t-206.5 41.5q-110 2 -208 -41.5t-157 -125.5q-109 -137 -113 -405q0 -261 113 -405q59 -82 157 -125.5t208 -41.5z" />
    <glyph glyph-name="P" unicode="P" horiz-adv-x="1403" 
d="M1350 1041q1 -80 -27 -159.5t-79 -143.5q-68 -89 -173 -140.5t-222 -51.5h-437v-546h-241v1536h678q83 0 158 -26q143 -47 230 -162q110 -133 113 -307zM1047 875q61 79 58 166q-3 109 -70 179q-35 39 -86.5 64.5t-101.5 25.5h-435v-538h435q53 0 108.5 28t91.5 75z" />
    <glyph glyph-name="Q" unicode="Q" horiz-adv-x="1632" 
d="M1547 768q-3 -325 -160 -531l115 -115l-149 -154l-120 119q-179 -119 -416 -119q-169 0 -315 64t-242 186q-175 217 -175 550q0 336 175 553q95 122 241 184.5t316 62.5q168 -2 313 -64.5t242 -182.5q168 -207 175 -553zM817 196q134 -3 245 62l-143 143l152 152
l141 -141q81 142 81 356q0 260 -113 405q-60 82 -156.5 125.5t-206.5 41.5q-110 2 -208 -41.5t-157 -125.5q-109 -137 -113 -405q0 -261 113 -405q59 -82 157 -125.5t208 -41.5z" />
    <glyph glyph-name="R" unicode="R" horiz-adv-x="1373" 
d="M1244 738q-69 -92 -184 -145l290 -593h-273l-264 546h-401v-546h-241v1536h678q83 0 158 -26q143 -47 230 -162q110 -133 113 -307q1 -80 -27 -159.5t-79 -143.5zM412 1310v-538h435q53 0 108.5 28t91.5 75q61 79 58 166q-3 109 -70 179q-35 39 -86.5 64.5t-101.5 25.5
h-435z" />
    <glyph glyph-name="S" unicode="S" horiz-adv-x="1358" 
d="M1282 1148l-243 -66q-31 71 -67.5 119t-92.5 81q-97 60 -203 60q-124 0 -202 -47q-45 -25 -70.5 -67.5t-25.5 -88.5q0 -57 40 -100q45 -48 190 -90l271 -79q180 -51 279 -145q137 -131 137 -311q0 -99 -52 -193.5t-138 -152.5q-143 -100 -410 -100q-330 0 -499 209
q-91 117 -132 292l243 66q25 -134 83 -202q48 -70 133.5 -104.5t180.5 -34.5q71 0 143 18.5t117 52.5q77 57 77 155q0 78 -58 130q-61 56 -160 84l-283 83q-194 56 -290 141q-61 54 -92.5 131t-31.5 157q0 116 67 214t170 146q130 62 315 62q189 -4 320 -77
q95 -52 167.5 -140t116.5 -203z" />
    <glyph glyph-name="T" unicode="T" horiz-adv-x="1290" 
d="M1269 1536v-239h-503v-1297h-241v1297h-504v239h1248z" />
    <glyph glyph-name="U" unicode="U" horiz-adv-x="1572" 
d="M1402 1536v-969q0 -212 -135 -381q-83 -106 -209.5 -162t-270.5 -56q-142 0 -269.5 56.5t-210.5 161.5q-64 79 -100 180.5t-36 200.5v967l243 2v-939q0 -79 17 -140.5t60 -121.5q52 -67 131 -104t165 -37t164.5 37.5t130.5 105.5q44 57 60 117t16 143v939h244z" />
    <glyph glyph-name="V" unicode="V" horiz-adv-x="1354" 
d="M503 0l-492 1536h247l416 -1299l420 1299h250l-493 -1536h-348z" />
    <glyph glyph-name="W" unicode="W" horiz-adv-x="2067" 
d="M1788 1536h254l-448 -1536h-239l-322 1105l-320 -1105h-239l-446 1536h251l314 -1120l314 1118l251 2l314 -1120z" />
    <glyph glyph-name="X" unicode="X" horiz-adv-x="1390" 
d="M834 777l546 -777h-296l-389 576l-388 -576h-296l548 777l-536 759h295l377 -559l378 559h294z" />
    <glyph glyph-name="Y" unicode="Y" horiz-adv-x="1284" 
d="M1005 1536h279l-520 -905v-631h-243v631l-521 905h279l363 -629z" />
    <glyph glyph-name="Z" unicode="Z" horiz-adv-x="1376" 
d="M435 226h813v-226h-1120v228l813 1082h-813v226h1120v-226z" />
    <glyph glyph-name="bracketleft" unicode="[" horiz-adv-x="838" 
d="M710 1617h-239v-1794h239v-213h-454v2220h454v-213z" />
    <glyph glyph-name="backslash" unicode="\" horiz-adv-x="906" 
d="M369 1536l410 -1536h-241l-410 1536h241z" />
    <glyph glyph-name="bracketright" unicode="]" horiz-adv-x="840" 
d="M582 1830v-2220h-454v213h241v1794h-241v213h454z" />
    <glyph glyph-name="asciicircum" unicode="^" horiz-adv-x="1448" 
d="M128 1058l510 510l512 -510l-117 -115l-395 392l-393 -392z" />
    <glyph glyph-name="underscore" unicode="_" horiz-adv-x="1408" 
d="M0 -132h1408v-190h-1408v190z" />
    <glyph glyph-name="a" unicode="a" horiz-adv-x="1248" 
d="M346 834l-220 105q4 5 13 19t15 21q147 203 439 203q164 0 286 -59t188 -180q53 -102 53 -220v-723h-211v211q-21 -52 -69 -98.5t-100 -74.5q-124 -71 -279 -68q-86 1 -167 40.5t-128 100.5q-43 62 -62 112.5t-19 115.5q0 91 49 172t131 129q31 17 63.5 29.5t57.5 20.5
t65.5 16t62.5 11.5t75 11t79 11.5l207 30q-18 88 -90 137q-76 54 -196 51q-146 0 -218 -90q-19 -24 -25 -34zM881 574q-23 -3 -241 -43q-52 -9 -77 -14t-69.5 -15.5t-68 -22.5t-50 -29.5t-38.5 -41.5t-13 -54q-2 -65 49 -114t130 -50q110 -2 212.5 54.5t137.5 158.5
q28 66 28 171z" />
    <glyph glyph-name="b" unicode="b" horiz-adv-x="1333" 
d="M1118 1001q130 -166 130 -425q0 -261 -130 -422q-72 -89 -176.5 -137.5t-222.5 -48.5q-219 0 -356 130v-98h-214v1536h241v-459q137 107 323 107q120 0 227 -47.5t178 -135.5zM926 301q68 94 68 275q0 180 -70 277q-79 116 -248 116q-148 0 -228 -99q-85 -103 -85 -294
q0 -193 85 -292q89 -101 237 -101q73 0 137 30t104 88z" />
    <glyph glyph-name="c" unicode="c" horiz-adv-x="1222" 
d="M1148 896l-224 -98q-15 29 -30 49q-41 55 -104.5 84t-136.5 27q-73 2 -136.5 -27t-102.5 -84q-71 -95 -75 -271q4 -176 75 -271q39 -53 102 -81t137 -28t137.5 28t103.5 81q11 15 28 47l226 -98q-38 -64 -64 -94q-76 -93 -190.5 -143t-240.5 -47q-126 -3 -239.5 46
t-191.5 144q-137 167 -137 416q0 248 137 418q79 95 191.5 142.5t239.5 47.5q129 0 241 -48.5t190 -141.5q39 -48 64 -98z" />
    <glyph glyph-name="d" unicode="d" horiz-adv-x="1335" 
d="M943 1536h241v-1536h-211v98q-141 -130 -359 -130q-116 0 -221 48.5t-175 137.5q-133 162 -133 422q0 259 133 425q71 88 177 135.5t226 47.5q185 0 322 -107v459zM885 284q88 99 88 292q0 190 -88 294q-79 99 -228 99q-166 0 -245 -116q-73 -101 -73 -277
q0 -181 68 -275q40 -58 105 -88t139 -30q150 0 234 101z" />
    <glyph glyph-name="e" unicode="e" horiz-adv-x="1307" 
d="M343 510q16 -135 71 -205q41 -54 104.5 -82.5t136.5 -28.5q155 0 239 111q6 8 10.5 16t9.5 17t8 14l239 -102q-29 -53 -67 -96q-81 -94 -197 -142.5t-242 -43.5q-283 10 -433 190q-140 175 -137 418q7 259 137 418q77 93 190.5 141.5t242.5 48.5q130 0 242 -48t189 -142
q136 -166 136 -418q0 -24 -4 -66h-875zM655 958q-73 2 -136.5 -27t-104.5 -84q-43 -56 -62 -145h604q-19 89 -62 145q-84 114 -239 111z" />
    <glyph glyph-name="f" unicode="f" horiz-adv-x="844" 
d="M653 1355q-80 -12 -111.5 -55.5t-31.5 -119.5v-28h313v-190h-313v-962h-241v962h-248v190h248v9q0 192 106 302q80 75 191.5 95.5t256.5 5.5v-209q-97 16 -170 0z" />
    <glyph glyph-name="g" unicode="g" horiz-adv-x="1333" 
d="M973 1152h211v-1195q0 -281 -201 -407q-145 -92 -339 -92q-74 0 -150 22.5t-131 62.5q-114 60 -175 165l222 106q20 -35 55 -64q34 -32 83.5 -49t97.5 -17q133 0 214 66q48 37 66.5 84.5t16.5 124.5v114q-135 -105 -329 -105q-116 0 -221 48.5t-175 137.5
q-133 162 -133 422q0 259 133 425q71 88 177 135.5t226 47.5q100 0 191 -34.5t161 -97.5v100zM651 183q150 0 234 101q88 99 88 292q0 190 -88 294q-79 99 -228 99q-166 0 -245 -116q-73 -101 -73 -277q0 -181 68 -275q40 -58 105 -88t139 -30z" />
    <glyph glyph-name="h" unicode="h" horiz-adv-x="1301" 
d="M1028 1069q101 -88 135 -205.5t32 -291.5v-572h-244v572q0 110 -21 188t-77 127q-71 65 -196 62q-91 -3 -160 -55q-71 -57 -92 -167q-15 -69 -15 -224v-503h-241v1536h214v-482l6 6q131 115 318 122q90 5 181 -25.5t160 -87.5z" />
    <glyph glyph-name="i" unicode="i" horiz-adv-x="582" 
d="M171 1555h241v-226h-241v226zM171 1152h241v-1152h-241v1152z" />
    <glyph glyph-name="j" unicode="j" horiz-adv-x="618" 
d="M207 1532h241v-226h-241v226zM49 -299v-245q198 0 307 143q50 65 71 148.5t21 199.5v1205h-241v-1205q0 -81 -10.5 -127t-36.5 -74q-35 -45 -111 -45z" />
    <glyph glyph-name="k" unicode="k" horiz-adv-x="1175" 
d="M393 533v-533h-244v1534h244v-811h164l290 429h275l-358 -525l411 -627h-270l-348 533h-164z" />
    <glyph glyph-name="l" unicode="l" horiz-adv-x="539" 
d="M149 0h241v1568h-241v-1568z" />
    <glyph glyph-name="m" unicode="m" horiz-adv-x="1883" 
d="M1649 1069q76 -65 102 -155t26 -221v-693h-241v693q0 73 -14 116t-56 83q-59 64 -154 64q-50 0 -95 -20t-76 -57q-34 -40 -45.5 -81t-11.5 -96v-9v-693h-241v693q0 72 -14.5 115.5t-56.5 83.5q-59 64 -153 64q-50 0 -95 -20t-76 -57q-34 -40 -46 -81.5t-12 -95.5v-702
h-241v1152h214v-137q59 73 145.5 113.5t182.5 40.5q69 0 138.5 -26.5t126.5 -73.5q43 -37 74 -90q56 89 151.5 139.5t203.5 50.5q143 0 264 -100z" />
    <glyph glyph-name="n" unicode="n" horiz-adv-x="1303" 
d="M1028 1069q101 -88 135 -205.5t32 -291.5v-572h-244v572q0 110 -21 188t-77 127q-71 65 -196 62q-91 -3 -160 -55q-71 -57 -92 -167q-15 -69 -15 -224v-503h-241v1152h214v-98l6 6q131 115 318 122q90 5 181 -25.5t160 -87.5z" />
    <glyph glyph-name="o" unicode="o" 
d="M655 -32q-129 0 -242.5 48.5t-190.5 141.5q-137 171 -137 418q0 250 137 418q75 92 189.5 141t243.5 49t243 -48.5t188 -141.5q139 -170 139 -418q0 -242 -139 -418q-77 -94 -188.5 -142t-242.5 -48zM896 305q75 100 75 271q0 173 -75 273q-40 53 -103.5 81t-137.5 28
q-75 0 -138.5 -28t-102.5 -81q-75 -100 -75 -273q0 -171 75 -271q39 -54 102.5 -82.5t138.5 -28.5q73 0 136.5 28.5t104.5 82.5z" />
    <glyph glyph-name="p" unicode="p" horiz-adv-x="1333" 
d="M1118 1001q130 -166 130 -425q0 -261 -130 -422q-72 -89 -176.5 -137.5t-222.5 -48.5q-196 0 -329 107v-587h-241v1664h214v-98q70 61 161 95.5t189 34.5q120 0 227 -47.5t178 -135.5zM926 301q68 94 68 275q0 180 -70 277q-79 116 -248 116q-148 0 -228 -99
q-85 -103 -85 -294q0 -193 85 -292q89 -101 237 -101q73 0 137 30t104 88z" />
    <glyph glyph-name="q" unicode="q" horiz-adv-x="1335" 
d="M973 1152h211v-1664h-241v585q-135 -105 -329 -105q-116 0 -221 48.5t-175 137.5q-133 162 -133 422q0 259 133 425q71 88 177 135.5t226 47.5q100 0 191 -34.5t161 -97.5v100zM651 183q150 0 234 101q88 99 88 292q0 190 -88 294q-79 99 -228 99q-166 0 -245 -116
q-73 -101 -73 -277q0 -181 68 -275q40 -58 105 -88t139 -30z" />
    <glyph glyph-name="r" unicode="r" horiz-adv-x="934" 
d="M702 1182q83 6 179 -28v-224q-89 34 -200 28q-129 -6 -201 -81q-51 -51 -70.5 -121t-19.5 -167v-589h-241v1152h214v-164q43 73 113 121q94 70 226 73z" />
    <glyph glyph-name="s" unicode="s" horiz-adv-x="1143" 
d="M1060 849l-234 -58q-13 40 -44 77t-69 56q-66 34 -143 34q-85 0 -145 -30q-58 -33 -58 -81q0 -31 17 -51q31 -35 132 -64q26 -8 58.5 -16.5t74.5 -20t66 -17.5q65 -20 87.5 -27.5t63.5 -28t75 -48.5q141 -114 128 -275q-7 -78 -48.5 -144t-109.5 -110q-118 -77 -320 -77
q-254 0 -395 151q-42 48 -78 124.5t-43 129.5l230 56q2 -38 19.5 -82.5t44.5 -71.5q72 -79 220 -79q132 0 190 45q38 29 47 79q0 47 -32 79q-37 34 -141 64q-33 9 -98 26t-94 25q-78 21 -130 44t-96 59q-55 42 -84 103t-29 123q0 98 56.5 177t145.5 119q111 49 250 45
q134 0 243 -58q84 -41 148 -114.5t95 -162.5z" />
    <glyph glyph-name="t" unicode="t" horiz-adv-x="955" 
d="M849 962h-341v-484q0 -61 0.5 -86.5t7 -59t19.5 -53.5q19 -33 52.5 -53t71.5 -23q99 -10 190 6v-209q-64 -17 -153 -20t-150 11q-165 44 -228 163q-31 59 -40 130.5t-9 178.5v499h-248v190h248v320h239v-320h341v-190z" />
    <glyph glyph-name="u" unicode="u" horiz-adv-x="1301" 
d="M911 1152h241v-1152h-211v100l-7 -6q-130 -117 -317 -124q-92 -5 -182.5 25.5t-159.5 89.5q-102 86 -135 202t-33 293v572h243v-572q0 -110 21 -188t77 -125q70 -64 198 -64q94 3 158 57q73 53 94 165q13 60 13 224v2v501z" />
    <glyph glyph-name="v" unicode="v" horiz-adv-x="1132" 
d="M866 1152h241l-420 -1152h-241l-418 1152h241l298 -853z" />
    <glyph glyph-name="w" unicode="w" horiz-adv-x="1657" 
d="M1399 1152h237l-352 -1152h-237l-219 766l-233 -766h-222l-352 1154l239 -2l233 -764l234 764h205l235 -764z" />
    <glyph glyph-name="x" unicode="x" horiz-adv-x="1156" 
d="M1124 1152l-418 -567l429 -585h-277l-280 399l-279 -399h-278l429 585l-420 567h275l273 -384l273 384h273z" />
    <glyph glyph-name="y" unicode="y" horiz-adv-x="1203" 
d="M943 1152h239l-506 -1335q-71 -193 -173 -265q-50 -40 -107 -52t-140 -12h-21v230l34 -4q75 -8 113 17q52 33 126 235l-465 1186h243l333 -879z" />
    <glyph glyph-name="z" unicode="z" horiz-adv-x="1228" 
d="M1079 213v-213h-930v207l615 734h-615v211h930v-213l-612 -726h612z" />
    <glyph glyph-name="braceleft" unicode="{" horiz-adv-x="1009" 
d="M817 -448v226h-126q-34 0 -57.5 22.5t-23.5 56.5v480q0 94 -55 175l-47 66l47 66q55 78 55 175v478q0 34 23.5 57.5t57.5 23.5h126v226h-126q-128 0 -217.5 -90t-89.5 -217v-478q0 -20 -15 -45l-94 -132q-19 -28 -19 -64t19 -64l94 -132q15 -22 15 -45v-480
q0 -127 89.5 -216t217.5 -89h126z" />
    <glyph glyph-name="bar" unicode="|" horiz-adv-x="625" 
d="M192 1536h241v-1536h-241v1536z" />
    <glyph glyph-name="braceright" unicode="}" horiz-adv-x="1009" 
d="M192 -448h126q128 0 217.5 89t89.5 216v480q0 23 15 45l94 132q20 28 20 64t-20 64l-94 132q-15 25 -15 45v478q0 127 -89.5 217t-217.5 90h-126v-226h126q34 0 57.5 -23.5t23.5 -57.5v-478q0 -97 55 -175l49 -66l-49 -66q-55 -81 -55 -175v-480q0 -34 -23.5 -56.5
t-57.5 -22.5h-126v-226z" />
    <glyph glyph-name="asciitilde" unicode="~" horiz-adv-x="1508" 
d="M1244 742q12 -53 5 -119t-33 -109q-27 -46 -71.5 -78t-94.5 -43q-133 -28 -293 49q-20 9 -58.5 28.5t-60 29.5t-51 18t-54.5 7q-49 -4 -64.5 -40t0.5 -75h-204q-13 55 -6.5 119.5t31.5 110.5q28 47 73 78.5t96 43.5q133 28 290 -49q23 -10 60 -29t59.5 -30t52.5 -19
t56 -6q32 3 50 21t18 42t-8 50h207z" />
    <glyph glyph-name="exclamdown" unicode="&#xa1;" horiz-adv-x="753" 
d="M256 926v226h241v-226h-241zM256 -384v1152h241v-1152h-241z" />
    <glyph glyph-name="cent" unicode="&#xa2;" horiz-adv-x="1222" 
d="M894 465q11 15 28 47l226 -98q-38 -64 -64 -94q-60 -74 -146 -121.5t-185 -61.5v-199h-192v196q-213 31 -339 186q-137 167 -137 416q0 248 137 418q124 153 339 184v198h192v-201q206 -30 331 -181q39 -48 64 -98l-224 -98q-15 29 -30 49q-41 55 -104.5 84t-136.5 27
q-73 2 -136.5 -27t-102.5 -84q-71 -95 -75 -271q4 -176 75 -271q39 -53 102 -81t137 -28t137.5 28t103.5 81z" />
    <glyph glyph-name="sterling" unicode="&#xa3;" horiz-adv-x="1314" 
d="M570 659v-433h522v-226h-964v226h43q63 0 109 47.5t46 110.5v275h-198v226h198v273q0 175 124.5 292.5t306.5 117.5q295 0 429 -386l-215 -73q-35 116 -86 174.5t-128 58.5q-83 0 -134 -54.5t-51 -139.5v-263h333v-226h-335z" />
    <glyph glyph-name="yen" unicode="&#xa5;" horiz-adv-x="1284" 
d="M1284 1536l-409 -713h200v-192h-311v-219h311v-190h-311v-222h-243v222h-310v190h310v219h-310v192h199l-410 713h279l363 -629l363 629h279z" />
    <glyph glyph-name="copyright" unicode="&#xa9;" horiz-adv-x="1905" 
d="M951 -292q177 0 338 68.5t277 185t185 277t69 337.5q0 176 -69 336.5t-185 276.5t-277 184.5t-338 68.5q-176 0 -336.5 -68.5t-276.5 -184.5t-184.5 -276.5t-68.5 -336.5q0 -177 68.5 -337.5t184.5 -277t276.5 -185t336.5 -68.5zM951 -64q-130 0 -248.5 50.5
t-204.5 136.5t-136.5 204.5t-50.5 248.5t50.5 248.5t136.5 204.5t204.5 136.5t248.5 50.5t248.5 -50.5t204.5 -136.5t136.5 -204.5t50.5 -248.5t-50.5 -248.5t-136.5 -204.5t-204.5 -136.5t-248.5 -50.5zM1321 813l-171 -73q-9 19 -21 34q-28 39 -74.5 60t-98.5 21
q-110 0 -173 -81q-53 -71 -53 -196q0 -121 53 -196q28 -37 75 -58t98 -21q112 0 173 79q14 17 19 34l173 -75q-18 -35 -47 -68q-54 -70 -137.5 -105.5t-180.5 -37.5q-94 0 -178.5 37t-139.5 106q-103 123 -100 305q0 188 100 307q119 141 318 141q95 0 179 -36.5t139 -104.5
q34 -41 47 -72z" />
    <glyph glyph-name="guillemotleft" unicode="&#xab;" horiz-adv-x="1233" 
d="M546 105l130 102l-294 369l294 369l-130 102l-375 -471zM969 105l130 102l-293 369l293 369l-130 102l-374 -471z" />
    <glyph glyph-name="registered" unicode="&#xae;" horiz-adv-x="1386" 
d="M693 1675q111 0 211.5 -43t173.5 -115.5t116 -173t43 -210.5q0 -111 -43 -212t-116 -174t-173.5 -116.5t-211.5 -43.5q-110 0 -210.5 43.5t-173.5 116.5t-116.5 174t-43.5 212q0 110 43.5 210.5t116.5 173t173.5 115.5t210.5 43zM695 1515q-159 0 -270 -111.5
t-111 -270.5q0 -158 111 -270t270 -112q155 0 267.5 112.5t112.5 269.5q0 158 -112 270t-268 112zM506 1389h234q77 0 126 -49t49 -120q0 -57 -23 -92.5t-69 -60.5l92 -186h-132l-79 166h-83v-166h-115v508zM621 1280v-122h115q26 0 44 20t18 42q0 26 -21 43t-41 17h-115z
" />
    <glyph glyph-name="degree" unicode="&#xb0;" horiz-adv-x="960" 
d="M448 800q-159 0 -271.5 112.5t-112.5 271.5q0 156 115 270t269 114q159 0 271.5 -112.5t112.5 -271.5t-112.5 -271.5t-271.5 -112.5zM448 983q83 0 143 59t60 142t-60 143t-143 60t-142 -60t-59 -143t59 -142t142 -59z" />
    <glyph glyph-name="plusminus" unicode="&#xb1;" horiz-adv-x="1280" 
d="M736 907h416v-190h-416v-248h-190v248h-418v190h418v245h190v-245zM128 143v190h1024v-190h-1024z" />
    <glyph glyph-name="periodcentered" unicode="&#xb7;" horiz-adv-x="1322" 
d="M666 427q-64 0 -109 43t-45 106t45 106t109 43q60 0 102.5 -43t42.5 -106t-42.5 -106t-102.5 -43z" />
    <glyph glyph-name="guillemotright" unicode="&#xbb;" horiz-adv-x="1233" 
d="M265 105l373 471l-373 471l-131 -102l295 -369l-295 -369zM689 105l373 471l-373 471l-130 -102l292 -369l-292 -369z" />
    <glyph glyph-name="questiondown" unicode="&#xbf;" horiz-adv-x="1169" 
d="M736 1152v-271h-252v271h252zM107 11q0 186 160 356q23 25 90 85.5t89 95.5q26 46 32 80.5t6 107.5h254q0 -166 -60 -271q-26 -51 -62 -87t-90 -79.5t-93 -85.5q-41 -44 -56.5 -90t-15.5 -106q0 -84 38 -130q61 -75 186 -75q107 0 164 51q65 55 62 152h251
q-10 -105 -55 -194t-120 -143q-120 -92 -294 -92q-260 0 -388 152q-98 112 -98 273z" />
    <glyph glyph-name="Agrave" unicode="&#xc0;" horiz-adv-x="1354" 
d="M1028 1852l-62 -177l-556 204l61 178zM1097 0l-84 262h-667l-86 -262h-247l490 1536h350l491 -1536h-247zM418 489h523l-260 810z" />
    <glyph glyph-name="Aacute" unicode="&#xc1;" horiz-adv-x="1354" 
d="M945 1879l-555 -204l-64 177l557 205zM1094 0l-85 262h-668l-83 -262h-247l492 1536h348l493 -1536h-250zM414 489h523l-263 810z" />
    <glyph glyph-name="Acircumflex" unicode="&#xc2;" horiz-adv-x="1354" 
d="M678 1826l-264 -149l-90 166l354 199l355 -199l-90 -166zM1094 0l-85 262h-668l-83 -262h-247l492 1536h348l493 -1536h-250zM414 489h523l-263 810z" />
    <glyph glyph-name="Atilde" unicode="&#xc3;" horiz-adv-x="1354" 
d="M476 1805h-145q-20 97 19 162q38 69 119 87q98 21 205 -36q15 -7 42.5 -20t43 -20t37 -12.5t39.5 -4.5q33 3 44 28.5t-1 52.5h145q10 -39 6 -85.5t-23 -77.5q-43 -69 -120 -87q-96 -21 -206 36q-15 7 -52.5 26t-60.5 26.5t-45 5.5q-36 -3 -47.5 -28t0.5 -53zM1094 0
l-85 262h-668l-83 -262h-247l492 1536h348l493 -1536h-250zM414 489h523l-263 810z" />
    <glyph glyph-name="Adieresis" unicode="&#xc4;" horiz-adv-x="1354" 
d="M572 2016v-224h-224v224h224zM1007 2016v-224h-224v224h224zM1094 0l-85 262h-668l-83 -262h-247l492 1536h348l493 -1536h-250zM414 489h523l-263 810z" />
    <glyph glyph-name="Aring" unicode="&#xc5;" horiz-adv-x="1354" 
d="M1094 0l-85 262h-668l-83 -262h-247l463 1444q-96 91 -96 220q0 123 88.5 212t211.5 89t212 -89t89 -212q0 -132 -98 -222l463 -1442h-250zM678 1792q-52 0 -90 -38t-38 -90t38 -90t90 -38t90 38t38 90t-38 90t-90 38zM414 489h523l-263 810z" />
    <glyph glyph-name="AE" unicode="&#xc6;" horiz-adv-x="1984" 
d="M1856 1297h-740v-410h612v-238h-612v-408h740v-241h-981v262h-534l-83 -262h-247l492 1536h1353v-239zM414 489h461v808h-201z" />
    <glyph glyph-name="Ccedilla" unicode="&#xc7;" horiz-adv-x="1597" 
d="M1184 363q52 71 77 158l237 -69q-40 -129 -124 -234q-90 -109 -216.5 -172t-272.5 -76l-21 -66q66 -33 102 -92q29 -51 26.5 -116.5t-36.5 -113.5q-35 -51 -90.5 -77t-116.5 -19q-56 5 -122 36l54 145q50 -15 70 -15q42 0 60 28q17 27 6 53q-5 16 -16 28t-32 21.5t-37 15
t-49 14.5l55 160q-144 13 -268 76.5t-208 169.5q-177 218 -177 550q3 341 177 553q97 122 242 184.5t313 62.5t314 -63t243 -184q90 -112 139 -278l-248 -42q-27 103 -81 172q-62 82 -159.5 125.5t-207.5 43.5t-207 -44t-156 -125q-113 -142 -113 -405q0 -261 113 -405
q60 -82 156.5 -125.5t206.5 -41.5q109 -2 206.5 41.5t160.5 125.5z" />
    <glyph glyph-name="Egrave" unicode="&#xc8;" horiz-adv-x="1280" 
d="M956 1852l-64 -177l-557 204l62 178zM1152 1297h-740v-410h612v-238h-612v-408h740v-241h-981v1536h981v-239z" />
    <glyph glyph-name="Eacute" unicode="&#xc9;" horiz-adv-x="1280" 
d="M937 1879l-555 -204l-64 177l557 205zM1152 1297h-740v-410h612v-238h-612v-408h740v-241h-981v1536h981v-239z" />
    <glyph glyph-name="Ecircumflex" unicode="&#xca;" horiz-adv-x="1280" 
d="M619 1826l-265 -149l-89 166l354 199l354 -199l-90 -166zM1152 1297h-740v-410h612v-238h-612v-408h740v-241h-981v1536h981v-239z" />
    <glyph glyph-name="Edieresis" unicode="&#xcb;" horiz-adv-x="1280" 
d="M527 2016v-224h-224v224h224zM962 2016v-224h-224v224h224zM1152 1297h-740v-410h612v-238h-612v-408h740v-241h-981v1536h981v-239z" />
    <glyph glyph-name="Igrave" unicode="&#xcc;" horiz-adv-x="539" 
d="M523 1675l64 177l-559 205l-62 -178zM149 1536h241v-1536h-241v1536z" />
    <glyph glyph-name="Iacute" unicode="&#xcd;" horiz-adv-x="539" 
d="M28 1675l557 204l-62 178l-559 -205zM149 1536h241v-1536h-241v1536z" />
    <glyph glyph-name="Icircumflex" unicode="&#xce;" horiz-adv-x="539" 
d="M11 1677l264 149l265 -149l89 166l-354 199l-354 -199zM149 1536h241v-1536h-241v1536z" />
    <glyph glyph-name="Idieresis" unicode="&#xcf;" horiz-adv-x="539" 
d="M-62 2016h224v-224h-224v224zM373 2016h224v-224h-224v224zM149 1536h241v-1536h-241v1536z" />
    <glyph glyph-name="Eth" unicode="&#xd0;" horiz-adv-x="1489" 
d="M1316 1143q88 -166 88 -375q0 -206 -88 -375q-93 -179 -268 -286t-372 -107h-505v674h-150v190h150v672h505q197 0 372.5 -107t267.5 -286zM1103 503q58 121 58 265q-3 150 -58 267q-63 124 -181.5 199t-258.5 76h-249v-446h320v-190h-320v-448l249 2q135 2 257 76
t183 199z" />
    <glyph glyph-name="Ntilde" unicode="&#xd1;" horiz-adv-x="1546" 
d="M1122 1988q10 -39 5 -84.5t-24 -77.5q-40 -69 -117 -87q-98 -20 -207 36q-15 6 -52.5 25.5t-61 27t-46.5 5.5q-34 -3 -45.5 -28.5t0.5 -53.5h-145q-10 39 -5 85t24 78q38 68 117 87q98 20 207 -36q15 -6 52.5 -25.5t61 -27t46.5 -5.5q34 3 45.5 28.5t-0.5 52.5h145z
M384 1536l749 -1094v1094h243v-1536h-213l-747 1094v-1094h-245v1536h213z" />
    <glyph glyph-name="Ograve" unicode="&#xd2;" horiz-adv-x="1632" 
d="M1107 1675l62 177l-557 205l-62 -178zM817 -32q-169 0 -315 64t-242 186q-175 217 -175 550q0 336 175 553q95 122 241 184.5t316 62.5q168 -2 313 -64.5t242 -182.5q168 -207 175 -553q-3 -337 -175 -550q-98 -123 -243.5 -186.5t-311.5 -63.5zM817 196
q110 -2 206.5 41.5t156.5 125.5q113 148 113 405q0 260 -113 405q-60 82 -156.5 125.5t-206.5 41.5q-110 2 -208 -41.5t-157 -125.5q-109 -137 -113 -405q0 -261 113 -405q59 -82 157 -125.5t208 -41.5z" />
    <glyph glyph-name="Oacute" unicode="&#xd3;" horiz-adv-x="1632" 
d="M593 1675l555 204l-62 178l-557 -205zM817 -32q-169 0 -315 64t-242 186q-175 217 -175 550q0 336 175 553q95 122 241 184.5t316 62.5q168 -2 313 -64.5t242 -182.5q168 -207 175 -553q-3 -337 -175 -550q-98 -123 -243.5 -186.5t-311.5 -63.5zM817 196
q110 -2 206.5 41.5t156.5 125.5q113 148 113 405q0 260 -113 405q-60 82 -156.5 125.5t-206.5 41.5q-110 2 -208 -41.5t-157 -125.5q-109 -137 -113 -405q0 -261 113 -405q59 -82 157 -125.5t208 -41.5z" />
    <glyph glyph-name="Ocircumflex" unicode="&#xd4;" horiz-adv-x="1632" 
d="M553 1677l264 149l265 -149l87 166l-352 199l-354 -199zM817 -32q-169 0 -315 64t-242 186q-175 217 -175 550q0 336 175 553q95 122 241 184.5t316 62.5q168 -2 313 -64.5t242 -182.5q168 -207 175 -553q-3 -337 -175 -550q-98 -123 -243.5 -186.5t-311.5 -63.5z
M817 196q110 -2 206.5 41.5t156.5 125.5q113 148 113 405q0 260 -113 405q-60 82 -156.5 125.5t-206.5 41.5q-110 2 -208 -41.5t-157 -125.5q-109 -137 -113 -405q0 -261 113 -405q59 -82 157 -125.5t208 -41.5z" />
    <glyph glyph-name="Otilde" unicode="&#xd5;" horiz-adv-x="1632" 
d="M1163 2042q10 -39 6 -85.5t-23 -77.5q-43 -69 -120 -87q-97 -21 -207 36q-15 7 -52.5 26t-60.5 26.5t-45 5.5q-36 -3 -47.5 -28t0.5 -53h-145q-9 39 -4 85t24 77q38 69 119 87q98 21 205 -36q15 -7 42.5 -20t43 -20t37 -12.5t39.5 -4.5q33 3 44 28.5t-1 52.5h145z
M817 -32q-169 0 -315 64t-242 186q-175 217 -175 550q0 336 175 553q95 122 241 184.5t316 62.5q168 -2 313 -64.5t242 -182.5q168 -207 175 -553q-3 -337 -175 -550q-98 -123 -243.5 -186.5t-311.5 -63.5zM817 196q110 -2 206.5 41.5t156.5 125.5q113 148 113 405
q0 260 -113 405q-60 82 -156.5 125.5t-206.5 41.5q-110 2 -208 -41.5t-157 -125.5q-109 -137 -113 -405q0 -261 113 -405q59 -82 157 -125.5t208 -41.5z" />
    <glyph glyph-name="Odieresis" unicode="&#xd6;" horiz-adv-x="1632" 
d="M486 2016h224v-224h-224v224zM922 2016h224v-224h-224v224zM817 -32q-169 0 -315 64t-242 186q-175 217 -175 550q0 336 175 553q95 122 241 184.5t316 62.5q168 -2 313 -64.5t242 -182.5q168 -207 175 -553q-3 -337 -175 -550q-98 -123 -243.5 -186.5t-311.5 -63.5z
M817 196q110 -2 206.5 41.5t156.5 125.5q113 148 113 405q0 260 -113 405q-60 82 -156.5 125.5t-206.5 41.5q-110 2 -208 -41.5t-157 -125.5q-109 -137 -113 -405q0 -261 113 -405q59 -82 157 -125.5t208 -41.5z" />
    <glyph glyph-name="multiply" unicode="&#xd7;" horiz-adv-x="1117" 
d="M988 911l-295 -294l295 -295l-135 -134l-294 294l-294 -294l-137 134l297 295l-295 294l135 134l294 -294l294 294z" />
    <glyph glyph-name="Oslash" unicode="&#xd8;" horiz-adv-x="1632" 
d="M1568 1359l-132 -132q104 -179 111 -459q-3 -337 -175 -550q-98 -123 -243.5 -186.5t-311.5 -63.5q-283 0 -476 164l-117 -117l-160 160l134 134q-113 196 -113 459q0 336 175 553q95 122 241 184.5t316 62.5q284 -3 476 -164l115 115zM339 768q0 -161 43 -275l742 742
q-128 108 -307 105q-110 2 -208 -41.5t-157 -125.5q-109 -137 -113 -405zM1293 768q0 159 -43 273l-740 -740q60 -52 140.5 -79.5t166.5 -25.5q110 -2 206.5 41.5t156.5 125.5q113 148 113 405z" />
    <glyph glyph-name="Ugrave" unicode="&#xd9;" horiz-adv-x="1572" 
d="M1056 1675l64 177l-559 205l-62 -178zM1402 1536v-969q0 -212 -135 -381q-83 -106 -209.5 -162t-270.5 -56q-142 0 -269.5 56.5t-210.5 161.5q-64 79 -100 180.5t-36 200.5v967l243 2v-939q0 -79 17 -140.5t60 -121.5q52 -67 131 -104t165 -37t164.5 37.5t130.5 105.5
q44 57 60 117t16 143v939h244z" />
    <glyph glyph-name="Uacute" unicode="&#xda;" horiz-adv-x="1572" 
d="M546 1675l557 204l-62 178l-557 -205zM1402 1536v-969q0 -212 -135 -381q-83 -106 -209.5 -162t-270.5 -56q-142 0 -269.5 56.5t-210.5 161.5q-64 79 -100 180.5t-36 200.5v967l243 2v-939q0 -79 17 -140.5t60 -121.5q52 -67 131 -104t165 -37t164.5 37.5t130.5 105.5
q44 57 60 117t16 143v939h244z" />
    <glyph glyph-name="Ucircumflex" unicode="&#xdb;" horiz-adv-x="1572" 
d="M525 1677l264 149l265 -149l89 166l-354 199l-354 -199zM1402 1536v-969q0 -212 -135 -381q-83 -106 -209.5 -162t-270.5 -56q-142 0 -269.5 56.5t-210.5 161.5q-64 79 -100 180.5t-36 200.5v967l243 2v-939q0 -79 17 -140.5t60 -121.5q52 -67 131 -104t165 -37
t164.5 37.5t130.5 105.5q44 57 60 117t16 143v939h244z" />
    <glyph glyph-name="Udieresis" unicode="&#xdc;" horiz-adv-x="1572" 
d="M442 2016h224v-224h-224v224zM877 2016h224v-224h-224v224zM1402 1536v-969q0 -212 -135 -381q-83 -106 -209.5 -162t-270.5 -56q-142 0 -269.5 56.5t-210.5 161.5q-64 79 -100 180.5t-36 200.5v967l243 2v-939q0 -79 17 -140.5t60 -121.5q52 -67 131 -104t165 -37
t164.5 37.5t130.5 105.5q44 57 60 117t16 143v939h244z" />
    <glyph glyph-name="Yacute" unicode="&#xdd;" horiz-adv-x="1284" 
d="M418 1675l557 204l-62 178l-559 -205zM1005 1536h279l-520 -905v-631h-243v631l-521 905h279l363 -629z" />
    <glyph glyph-name="Thorn" unicode="&#xde;" horiz-adv-x="1341" 
d="M1289 768q3 -161 -107 -303q-66 -88 -171 -140t-222 -52h-375v-273h-243v1536h243v-271h375q70 0 158 -26q145 -48 228 -162q114 -133 114 -309zM988 604q60 78 57 164q-3 108 -70 181q-36 39 -87 63.5t-101 24.5h-373v-538h373q52 0 108 28.5t93 76.5z" />
    <glyph glyph-name="germandbls" unicode="&#xdf;" horiz-adv-x="1303" 
d="M149 0v1122q0 178 109 295q66 73 158.5 111t191.5 38q112 0 214 -48t166 -136q86 -111 83 -239q0 -128 -81 -236q-14 -18 -49 -45q71 -45 112.5 -82t75.5 -93q68 -97 68 -226q0 -134 -67 -247t-193 -167q-49 -22 -110.5 -33t-101.5 -12.5t-113 -1.5h-87v211h87
q71 0 119.5 8t100.5 33q65 30 99.5 88.5t34.5 126.5q0 101 -89 173q-97 78 -269 85v207q147 23 205 107q32 49 32 107q0 62 -43 111q-33 46 -85.5 71t-112.5 25q-120 0 -190 -82q-51 -54 -51 -130v-1141h-214z" />
    <glyph glyph-name="agrave" unicode="&#xe0;" horiz-adv-x="1248" 
d="M947 1291l64 177l-557 205l-61 -178zM346 834l-220 105q4 5 13 19t15 21q147 203 439 203q164 0 286 -59t188 -180q53 -102 53 -220v-723h-211v211q-21 -52 -69 -98.5t-100 -74.5q-124 -71 -279 -68q-86 1 -167 40.5t-128 100.5q-43 62 -62 112.5t-19 115.5q0 91 49 172
t131 129q31 17 63.5 29.5t57.5 20.5t65.5 16t62.5 11.5t75 11t79 11.5l207 30q-18 88 -90 137q-76 54 -196 51q-146 0 -218 -90q-19 -24 -25 -34zM881 574q-23 -3 -241 -43q-52 -9 -77 -14t-69.5 -15.5t-68 -22.5t-50 -29.5t-38.5 -41.5t-13 -54q-2 -65 49 -114t130 -50
q110 -2 212.5 54.5t137.5 158.5q28 66 28 171z" />
    <glyph glyph-name="aacute" unicode="&#xe1;" horiz-adv-x="1248" 
d="M401 1291l557 204l-62 178l-557 -205zM346 834l-220 105q4 5 13 19t15 21q147 203 439 203q164 0 286 -59t188 -180q53 -102 53 -220v-723h-211v211q-21 -52 -69 -98.5t-100 -74.5q-124 -71 -279 -68q-86 1 -167 40.5t-128 100.5q-43 62 -62 112.5t-19 115.5q0 91 49 172
t131 129q31 17 63.5 29.5t57.5 20.5t65.5 16t62.5 11.5t75 11t79 11.5l207 30q-18 88 -90 137q-76 54 -196 51q-146 0 -218 -90q-19 -24 -25 -34zM881 574q-23 -3 -241 -43q-52 -9 -77 -14t-69.5 -15.5t-68 -22.5t-50 -29.5t-38.5 -41.5t-13 -54q-2 -65 49 -114t130 -50
q110 -2 212.5 54.5t137.5 158.5q28 66 28 171z" />
    <glyph glyph-name="acircumflex" unicode="&#xe2;" horiz-adv-x="1248" 
d="M369 1293l265 149l264 -149l90 166l-354 199l-352 -199zM346 834l-220 105q4 5 13 19t15 21q147 203 439 203q164 0 286 -59t188 -180q53 -102 53 -220v-723h-211v211q-21 -52 -69 -98.5t-100 -74.5q-124 -71 -279 -68q-86 1 -167 40.5t-128 100.5q-43 62 -62 112.5
t-19 115.5q0 91 49 172t131 129q31 17 63.5 29.5t57.5 20.5t65.5 16t62.5 11.5t75 11t79 11.5l207 30q-18 88 -90 137q-76 54 -196 51q-146 0 -218 -90q-19 -24 -25 -34zM881 574q-23 -3 -241 -43q-52 -9 -77 -14t-69.5 -15.5t-68 -22.5t-50 -29.5t-38.5 -41.5t-13 -54
q-2 -65 49 -114t130 -50q110 -2 212.5 54.5t137.5 158.5q28 66 28 171z" />
    <glyph glyph-name="atilde" unicode="&#xe3;" horiz-adv-x="1248" 
d="M983 1604q10 -39 5 -84.5t-24 -77.5q-40 -69 -117 -87q-98 -20 -207 36q-15 6 -52.5 25.5t-61 27t-46.5 5.5q-34 -3 -45.5 -28.5t0.5 -53.5h-145q-10 39 -5 85t24 78q38 68 118 87q98 20 207 -36q15 -6 52.5 -25.5t61 -27t46.5 -5.5q34 3 45 28.5t-1 52.5h145zM346 834
l-220 105q4 5 13 19t15 21q147 203 439 203q164 0 286 -59t188 -180q53 -102 53 -220v-723h-211v211q-21 -52 -69 -98.5t-100 -74.5q-124 -71 -279 -68q-86 1 -167 40.5t-128 100.5q-43 62 -62 112.5t-19 115.5q0 91 49 172t131 129q31 17 63.5 29.5t57.5 20.5t65.5 16
t62.5 11.5t75 11t79 11.5l207 30q-18 88 -90 137q-76 54 -196 51q-146 0 -218 -90q-19 -24 -25 -34zM881 574q-23 -3 -241 -43q-52 -9 -77 -14t-69.5 -15.5t-68 -22.5t-50 -29.5t-38.5 -41.5t-13 -54q-2 -65 49 -114t130 -50q110 -2 212.5 54.5t137.5 158.5q28 66 28 171z
" />
    <glyph glyph-name="adieresis" unicode="&#xe4;" horiz-adv-x="1248" 
d="M314 1632h224v-224h-224v224zM749 1632h224v-224h-224v224zM346 834l-220 105q4 5 13 19t15 21q147 203 439 203q164 0 286 -59t188 -180q53 -102 53 -220v-723h-211v211q-21 -52 -69 -98.5t-100 -74.5q-124 -71 -279 -68q-86 1 -167 40.5t-128 100.5q-43 62 -62 112.5
t-19 115.5q0 91 49 172t131 129q31 17 63.5 29.5t57.5 20.5t65.5 16t62.5 11.5t75 11t79 11.5l207 30q-18 88 -90 137q-76 54 -196 51q-146 0 -218 -90q-19 -24 -25 -34zM881 574q-23 -3 -241 -43q-52 -9 -77 -14t-69.5 -15.5t-68 -22.5t-50 -29.5t-38.5 -41.5t-13 -54
q-2 -65 49 -114t130 -50q110 -2 212.5 54.5t137.5 158.5q28 66 28 171z" />
    <glyph glyph-name="aring" unicode="&#xe5;" horiz-adv-x="1248" 
d="M1067 943q53 -102 53 -220v-723h-211v211q-21 -52 -69 -98.5t-100 -74.5q-124 -71 -279 -68q-86 1 -167 40.5t-128 100.5q-43 62 -62 112.5t-19 115.5q0 91 49 172t131 129q31 17 63.5 29.5t57.5 20.5t65.5 16t62.5 11.5t75 11t79 11.5l207 30q-18 88 -90 137
q-76 54 -196 51q-146 0 -218 -90q-19 -24 -25 -34l-220 105q4 5 13 19t15 21q84 115 215 164q-51 78 -51 169q0 123 89 212t212 89q124 0 212 -89t88 -212q0 -103 -59 -179q140 -61 207 -190zM619 1440q-53 0 -90.5 -38t-37.5 -90t37.5 -90t90.5 -38t90.5 38t37.5 90
t-37.5 90t-90.5 38zM853 403q28 66 28 171q-23 -3 -241 -43q-52 -9 -77 -14t-69.5 -15.5t-68 -22.5t-50 -29.5t-38.5 -41.5t-13 -54q-2 -65 49 -114t130 -50q110 -2 212.5 54.5t137.5 158.5z" />
    <glyph glyph-name="ae" unicode="&#xe6;" horiz-adv-x="2035" 
d="M1120 510q10 -130 66 -205q38 -54 97.5 -82.5t128.5 -28.5q148 0 229 111q6 9 13.5 25t11.5 22l224 -102q-22 -44 -62 -96q-76 -94 -185.5 -142.5t-230.5 -43.5q-124 5 -230 52t-177 138q-18 23 -41 60q-1 -4 -10 -17q-92 -127 -212 -182q-85 -39 -200 -45.5t-188 17.5
q-140 44 -203 139q-52 74 -63 160.5t25 174.5q31 68 85.5 117t115.5 69q76 32 151.5 41.5t212.5 9.5h203q-3 144 -98 205q-74 51 -201 51q-118 0 -185 -64q-31 -23 -54 -60l-219 105q8 18 27 40q70 101 185 152t253 51q179 0 313 -75q65 -38 116 -98q72 85 175.5 130
t218.5 45q123 0 230 -48t180 -142q128 -166 128 -418q0 -10 -1 -33t-1 -33h-828zM1412 958q-69 2 -128.5 -27t-97.5 -84q-38 -51 -57 -145h569q-19 94 -57 145q-81 114 -229 111zM817 335q17 24 29 53.5t17 48.5t14 58h-147q-169 0 -229 -4q-50 -5 -93.5 -28t-64.5 -56
q-19 -25 -18 -69.5t27 -77.5q22 -31 58.5 -49t71.5 -21q40 -5 94 4.5t98 29.5q88 35 143 111z" />
    <glyph glyph-name="ccedilla" unicode="&#xe7;" horiz-adv-x="1222" 
d="M894 305q11 15 28 47l226 -98q-38 -64 -64 -94q-61 -76 -150 -124t-189 -62l-26 -70q70 -33 102 -92q30 -51 27 -116.5t-37 -113.5q-35 -51 -90 -77t-117 -19q-54 5 -120 36l54 145q47 -15 70 -15q40 0 58 28q20 26 8 53q-5 16 -16 28t-32 21.5t-37 15t-49 14.5l53 160
q-109 8 -206 56.5t-165 131.5q-137 167 -137 416q0 248 137 418q79 95 191.5 142.5t239.5 47.5q129 0 241 -48.5t190 -141.5q39 -48 64 -98l-224 -98q-15 29 -30 49q-41 55 -104.5 84t-136.5 27q-73 2 -136.5 -27t-102.5 -84q-71 -95 -75 -271q4 -176 75 -271
q39 -53 102 -81t137 -28t137.5 28t103.5 81z" />
    <glyph glyph-name="egrave" unicode="&#xe8;" horiz-adv-x="1307" 
d="M1050 1468l-62 -177l-557 204l62 178zM343 510q16 -135 71 -205q41 -54 104.5 -82.5t136.5 -28.5q155 0 239 111q6 8 10.5 16t9.5 17t8 14l239 -102q-29 -53 -67 -96q-81 -94 -197 -142.5t-242 -43.5q-283 10 -433 190q-140 175 -137 418q7 259 137 418
q77 93 190.5 141.5t242.5 48.5q130 0 242 -48t189 -142q136 -166 136 -418q0 -24 -4 -66h-875zM655 958q-73 2 -136.5 -27t-104.5 -84q-43 -56 -62 -145h604q-19 89 -62 145q-84 114 -239 111z" />
    <glyph glyph-name="eacute" unicode="&#xe9;" horiz-adv-x="1307" 
d="M962 1495l-555 -204l-64 177l557 205zM343 510q16 -135 71 -205q41 -54 104.5 -82.5t136.5 -28.5q155 0 239 111q6 8 10.5 16t9.5 17t8 14l239 -102q-29 -53 -67 -96q-81 -94 -197 -142.5t-242 -43.5q-283 10 -433 190q-140 175 -137 418q7 259 137 418
q77 93 190.5 141.5t242.5 48.5q130 0 242 -48t189 -142q136 -166 136 -418q0 -24 -4 -66h-875zM655 958q-73 2 -136.5 -27t-104.5 -84q-43 -56 -62 -145h604q-19 89 -62 145q-84 114 -239 111z" />
    <glyph glyph-name="ecircumflex" unicode="&#xea;" horiz-adv-x="1307" 
d="M655 1442l-265 -149l-89 166l354 199l352 -199l-88 -166zM343 510q16 -135 71 -205q41 -54 104.5 -82.5t136.5 -28.5q155 0 239 111q6 8 10.5 16t9.5 17t8 14l239 -102q-29 -53 -67 -96q-81 -94 -197 -142.5t-242 -43.5q-283 10 -433 190q-140 175 -137 418
q7 259 137 418q77 93 190.5 141.5t242.5 48.5q130 0 242 -48t189 -142q136 -166 136 -418q0 -24 -4 -66h-875zM655 958q-73 2 -136.5 -27t-104.5 -84q-43 -56 -62 -145h604q-19 89 -62 145q-84 114 -239 111z" />
    <glyph glyph-name="edieresis" unicode="&#xeb;" horiz-adv-x="1307" 
d="M580 1632v-224h-224v224h224zM1015 1632v-224h-224v224h224zM343 510q16 -135 71 -205q41 -54 104.5 -82.5t136.5 -28.5q155 0 239 111q6 8 10.5 16t9.5 17t8 14l239 -102q-29 -53 -67 -96q-81 -94 -197 -142.5t-242 -43.5q-283 10 -433 190q-140 175 -137 418
q7 259 137 418q77 93 190.5 141.5t242.5 48.5q130 0 242 -48t189 -142q136 -166 136 -418q0 -24 -4 -66h-875zM655 958q-73 2 -136.5 -27t-104.5 -84q-43 -56 -62 -145h604q-19 89 -62 145q-84 114 -239 111z" />
    <glyph glyph-name="igrave" unicode="&#xec;" horiz-adv-x="582" 
d="M538 1291l64 177l-557 205l-64 -178zM171 1152h241v-1152h-241v1152z" />
    <glyph glyph-name="iacute" unicode="&#xed;" horiz-adv-x="582" 
d="M43 1291l556 204l-61 178l-559 -205zM171 1152h241v-1152h-241v1152z" />
    <glyph glyph-name="icircumflex" unicode="&#xee;" horiz-adv-x="582" 
d="M43 1293l264 149l265 -149l89 166l-354 199l-354 -199zM171 1152h241v-1152h-241v1152z" />
    <glyph glyph-name="idieresis" unicode="&#xef;" horiz-adv-x="582" 
d="M-38 1632h224v-224h-224v224zM397 1632h224v-224h-224v224zM171 1152h241v-1152h-241v1152z" />
    <glyph glyph-name="eth" unicode="&#xf0;" horiz-adv-x="1267" 
d="M1079 1239q43 -99 73 -244.5t30 -288.5v-162q0 -252 -139 -407q-74 -84 -181 -126.5t-226 -42.5q-122 0 -229.5 44t-180.5 125q-141 157 -141 398q0 245 141 399q73 85 181 129t229 42q143 3 256 -68q4 -2 8 -4.5t9 -6.5t8 -6q-19 119 -62 177q-27 39 -78 87l-101 -126
l-149 118l83 106q-72 24 -164 30l34 194q135 -3 265 -53l121 156l152 -118l-107 -134q114 -95 168 -218zM883 384q51 105 19 239q-30 127 -125 188q-101 60 -224 23q-116 -36 -169 -145q-48 -106 -17 -239q31 -131 126 -185q99 -63 224 -26q116 36 166 145z" />
    <glyph glyph-name="ntilde" unicode="&#xf1;" horiz-adv-x="1303" 
d="M501 1367h-147q-20 98 19 163q41 68 120 87q97 21 207 -36q15 -7 41.5 -20.5t42 -20.5t37 -12.5t39.5 -4.5q34 3 44 28.5t-2 52.5h148q9 -39 4 -85t-24 -77q-43 -69 -119 -87q-97 -21 -207 36q-15 7 -41.5 20t-42 20.5t-36.5 13t-38 4.5q-36 -3 -46.5 -28.5t1.5 -53.5z
M1028 1069q101 -88 135 -205.5t32 -291.5v-572h-244v572q0 110 -21 188t-77 127q-71 65 -196 62q-91 -3 -160 -55q-71 -57 -92 -167q-15 -69 -15 -224v-503h-241v1152h214v-98l6 6q131 115 318 122q90 5 181 -25.5t160 -87.5z" />
    <glyph glyph-name="ograve" unicode="&#xf2;" 
d="M926 1291l64 177l-559 205l-62 -178zM657 -32q-131 0 -242.5 48t-190.5 142q-139 176 -139 418q0 248 139 418q77 94 190 142t243 48q127 0 241.5 -49.5t189.5 -140.5q137 -165 137 -418q0 -247 -137 -418q-78 -93 -190 -141.5t-241 -48.5zM416 305q39 -54 102.5 -82.5
t138.5 -28.5q74 0 137 28.5t102 82.5q75 94 75 271q0 179 -75 273q-39 53 -102 81t-137 28q-75 0 -138.5 -28t-102.5 -81q-75 -94 -75 -273q0 -177 75 -271z" />
    <glyph glyph-name="oacute" unicode="&#xf3;" 
d="M384 1291l557 204l-62 178l-557 -205zM655 -32q-129 0 -242.5 48.5t-190.5 141.5q-137 171 -137 418q0 250 137 418q75 92 189.5 141t243.5 49t243 -48.5t188 -141.5q139 -170 139 -418q0 -242 -139 -418q-77 -94 -188.5 -142t-242.5 -48zM896 305q75 100 75 271
q0 173 -75 273q-40 53 -103.5 81t-137.5 28q-75 0 -138.5 -28t-102.5 -81q-75 -100 -75 -273q0 -171 75 -271q39 -54 102.5 -82.5t138.5 -28.5q73 0 136.5 28.5t104.5 82.5z" />
    <glyph glyph-name="ocircumflex" unicode="&#xf4;" 
d="M390 1293l265 149l264 -149l90 166l-354 199l-352 -199zM655 -32q-129 0 -242.5 48.5t-190.5 141.5q-137 171 -137 418q0 250 137 418q75 92 189.5 141t243.5 49t243 -48.5t188 -141.5q139 -170 139 -418q0 -242 -139 -418q-77 -94 -188.5 -142t-242.5 -48zM896 305
q75 100 75 271q0 173 -75 273q-40 53 -103.5 81t-137.5 28q-75 0 -138.5 -28t-102.5 -81q-75 -100 -75 -273q0 -171 75 -271q39 -54 102.5 -82.5t138.5 -28.5q73 0 136.5 28.5t104.5 82.5z" />
    <glyph glyph-name="otilde" unicode="&#xf5;" 
d="M1003 1604q10 -39 4.5 -84.5t-24.5 -77.5q-40 -69 -117 -87q-98 -20 -207 36q-15 6 -52.5 25.5t-61 27t-46.5 5.5q-34 -3 -45.5 -28.5t0.5 -53.5h-145q-10 39 -4.5 85t24.5 78q38 68 117 87q98 20 207 -36q15 -6 52.5 -25.5t61 -27t46.5 -5.5q34 3 45.5 28.5t-0.5 52.5
h145zM655 -32q-129 0 -242.5 48.5t-190.5 141.5q-137 171 -137 418q0 250 137 418q75 92 189.5 141t243.5 49t243 -48.5t188 -141.5q139 -170 139 -418q0 -242 -139 -418q-77 -94 -188.5 -142t-242.5 -48zM896 305q75 100 75 271q0 173 -75 273q-40 53 -103.5 81t-137.5 28
q-75 0 -138.5 -28t-102.5 -81q-75 -100 -75 -273q0 -171 75 -271q39 -54 102.5 -82.5t138.5 -28.5q73 0 136.5 28.5t104.5 82.5z" />
    <glyph glyph-name="odieresis" unicode="&#xf6;" 
d="M326 1632h224v-224h-224v224zM762 1632h224v-224h-224v224zM655 -32q-129 0 -242.5 48.5t-190.5 141.5q-137 171 -137 418q0 250 137 418q75 92 189.5 141t243.5 49t243 -48.5t188 -141.5q139 -170 139 -418q0 -242 -139 -418q-77 -94 -188.5 -142t-242.5 -48zM896 305
q75 100 75 271q0 173 -75 273q-40 53 -103.5 81t-137.5 28q-75 0 -138.5 -28t-102.5 -81q-75 -100 -75 -273q0 -171 75 -271q39 -54 102.5 -82.5t138.5 -28.5q73 0 136.5 28.5t104.5 82.5z" />
    <glyph glyph-name="oslash" unicode="&#xf8;" 
d="M1257 1015l-111 -108q79 -147 79 -331q0 -242 -139 -418q-77 -94 -188.5 -142t-242.5 -48q-197 0 -344 107l-98 -98l-160 160l109 108q-77 145 -77 331q0 250 137 418q75 92 189.5 141t243.5 49q202 0 343 -107l99 98zM339 576q0 -78 15 -139l476 472q-75 49 -175 49
q-75 0 -138.5 -28t-102.5 -81q-75 -100 -75 -273zM971 576q0 77 -15 141l-476 -474q75 -49 175 -49q73 0 136.5 28.5t104.5 82.5q75 100 75 271z" />
    <glyph glyph-name="ugrave" unicode="&#xf9;" horiz-adv-x="1301" 
d="M996 1468l-64 -177l-554 204l61 178zM911 1152h241v-1152h-211v100l-7 -6q-130 -117 -317 -124q-92 -5 -182.5 25.5t-159.5 89.5q-102 86 -135 202t-33 293v572h243v-572q0 -110 21 -188t77 -125q70 -64 198 -64q94 3 158 57q73 53 94 165q13 60 13 224v2v501z" />
    <glyph glyph-name="uacute" unicode="&#xfa;" horiz-adv-x="1301" 
d="M956 1495l-555 -204l-64 177l557 205zM911 1152h241v-1152h-211v100l-7 -6q-130 -117 -317 -124q-92 -5 -182.5 25.5t-159.5 89.5q-102 86 -135 202t-33 293v572h243v-572q0 -110 21 -188t77 -125q70 -64 198 -64q94 3 158 57q73 53 94 165q13 60 13 224v2v501z" />
    <glyph glyph-name="ucircumflex" unicode="&#xfb;" horiz-adv-x="1301" 
d="M629 1442l-264 -149l-88 166l352 199l354 -199l-89 -166zM911 1152h241v-1152h-211v100l-7 -6q-130 -117 -317 -124q-92 -5 -182.5 25.5t-159.5 89.5q-102 86 -135 202t-33 293v572h243v-572q0 -110 21 -188t77 -125q70 -64 198 -64q94 3 158 57q73 53 94 165
q13 60 13 224v2v501z" />
    <glyph glyph-name="udieresis" unicode="&#xfc;" horiz-adv-x="1301" 
d="M525 1632v-224h-224v224h224zM960 1632v-224h-224v224h224zM911 1152h241v-1152h-211v100l-7 -6q-130 -117 -317 -124q-92 -5 -182.5 25.5t-159.5 89.5q-102 86 -135 202t-33 293v572h243v-572q0 -110 21 -188t77 -125q70 -64 198 -64q94 3 158 57q73 53 94 165
q13 60 13 224v2v501z" />
    <glyph glyph-name="yacute" unicode="&#xfd;" horiz-adv-x="1203" 
d="M393 1291l554 204l-62 178l-556 -205zM943 1152h239l-506 -1335q-71 -193 -173 -265q-50 -40 -107 -52t-140 -12h-21v230l34 -4q75 -8 113 17q52 33 126 235l-465 1186h243l333 -879z" />
    <glyph glyph-name="thorn" unicode="&#xfe;" horiz-adv-x="1333" 
d="M1118 1001q130 -166 130 -425q0 -261 -130 -422q-72 -89 -176.5 -137.5t-222.5 -48.5q-196 0 -329 107v-587h-241v2048h241v-459q137 107 323 107q120 0 227 -47.5t178 -135.5zM926 301q68 94 68 275q0 180 -70 277q-79 116 -248 116q-148 0 -228 -99q-85 -103 -85 -294
q0 -193 85 -292q89 -101 237 -101q73 0 137 30t104 88z" />
    <glyph glyph-name="ydieresis" unicode="&#xff;" horiz-adv-x="1203" 
d="M284 1632h224v-224h-224v224zM719 1632h224v-224h-224v224zM943 1152h239l-506 -1335q-71 -193 -173 -265q-50 -40 -107 -52t-140 -12h-21v230l34 -4q75 -8 113 17q52 33 126 235l-465 1186h243l333 -879z" />
    <glyph glyph-name="Amacron" unicode="&#x100;" horiz-adv-x="1354" 
d="M960 1982v-190h-563v190h563zM1094 0l-85 262h-668l-83 -262h-247l492 1536h348l493 -1536h-250zM414 489h523l-263 810z" />
    <glyph glyph-name="amacron" unicode="&#x101;" horiz-adv-x="1248" 
d="M373 1598h564v-190h-564v190zM346 834l-220 105q4 5 13 19t15 21q147 203 439 203q164 0 286 -59t188 -180q53 -102 53 -220v-723h-211v211q-21 -52 -69 -98.5t-100 -74.5q-124 -71 -279 -68q-86 1 -167 40.5t-128 100.5q-43 62 -62 112.5t-19 115.5q0 91 49 172t131 129
q31 17 63.5 29.5t57.5 20.5t65.5 16t62.5 11.5t75 11t79 11.5l207 30q-18 88 -90 137q-76 54 -196 51q-146 0 -218 -90q-19 -24 -25 -34zM881 574q-23 -3 -241 -43q-52 -9 -77 -14t-69.5 -15.5t-68 -22.5t-50 -29.5t-38.5 -41.5t-13 -54q-2 -65 49 -114t130 -50
q110 -2 212.5 54.5t137.5 158.5q28 66 28 171z" />
    <glyph glyph-name="Abreve" unicode="&#x102;" horiz-adv-x="1354" 
d="M691 1664q-131 0 -223.5 92.5t-92.5 223.5h190q0 -52 36.5 -89t89.5 -37t89.5 37t36.5 89h190q0 -131 -92.5 -223.5t-223.5 -92.5zM1094 0l-85 262h-668l-83 -262h-247l492 1536h348l493 -1536h-250zM414 489h523l-263 810z" />
    <glyph glyph-name="abreve" unicode="&#x103;" horiz-adv-x="1248" 
d="M770 1596h190q0 -131 -92.5 -223.5t-223.5 -92.5t-223 92.5t-92 223.5h189q0 -52 37 -89t89 -37t89 37t37 89zM346 834l-220 105q4 5 13 19t15 21q147 203 439 203q164 0 286 -59t188 -180q53 -102 53 -220v-723h-211v211q-21 -52 -69 -98.5t-100 -74.5
q-124 -71 -279 -68q-86 1 -167 40.5t-128 100.5q-43 62 -62 112.5t-19 115.5q0 91 49 172t131 129q31 17 63.5 29.5t57.5 20.5t65.5 16t62.5 11.5t75 11t79 11.5l207 30q-18 88 -90 137q-76 54 -196 51q-146 0 -218 -90q-19 -24 -25 -34zM881 574q-23 -3 -241 -43
q-52 -9 -77 -14t-69.5 -15.5t-68 -22.5t-50 -29.5t-38.5 -41.5t-13 -54q-2 -65 49 -114t130 -50q110 -2 212.5 54.5t137.5 158.5q28 66 28 171z" />
    <glyph glyph-name="Aogonek" unicode="&#x104;" horiz-adv-x="1354" 
d="M1284 -292l90 -115q-39 -57 -100 -86q-71 -33 -146.5 -13.5t-122.5 79.5q-43 48 -52 119.5t18 143.5q40 98 121 173l-83 253h-668l-83 -262h-247l492 1536h348l493 -1536h-2q-64 -45 -115 -105q-62 -70 -81 -123q-18 -57 6 -81q14 -18 39 -19.5t49 9t44 27.5zM414 489
h523l-263 810z" />
    <glyph glyph-name="aogonek" unicode="&#x105;" horiz-adv-x="1248" 
d="M1065 -292l87 -115q-34 -55 -100 -86q-70 -33 -146 -13.5t-123 79.5q-43 48 -52 119.5t18 143.5q47 116 160 205v170q-21 -52 -69 -98.5t-100 -74.5q-124 -71 -279 -68q-86 1 -167 40.5t-128 100.5q-43 62 -62 112.5t-19 115.5q0 91 49 172t131 129q31 17 63.5 29.5
t57.5 20.5t65.5 16t62.5 11.5t75 11t79 11.5l207 30q-18 88 -90 137q-76 54 -196 51q-146 0 -218 -90q-19 -24 -25 -34l-220 105q4 5 13 19t15 21q147 203 439 203q164 0 286 -59t188 -180q53 -102 53 -220v-723q-64 -45 -115 -105q-58 -65 -81 -123q-18 -55 8 -81
q14 -18 39 -19.5t49.5 9t44.5 27.5zM853 403q28 66 28 171q-23 -3 -241 -43q-52 -9 -77 -14t-69.5 -15.5t-68 -22.5t-50 -29.5t-38.5 -41.5t-13 -54q-2 -65 49 -114t130 -50q110 -2 212.5 54.5t137.5 158.5z" />
    <glyph glyph-name="Cacute" unicode="&#x106;" horiz-adv-x="1597" 
d="M582 1675l555 204l-62 178l-557 -205zM1261 521l237 -69q-40 -129 -124 -234q-100 -123 -246 -186.5t-311 -63.5q-168 0 -314 65t-241 185q-177 218 -177 550q3 341 177 553q97 122 242 184.5t313 62.5t314 -63t243 -184q90 -112 139 -278l-248 -42q-27 103 -81 172
q-62 82 -159.5 125.5t-207.5 43.5t-207 -44t-156 -125q-113 -142 -113 -405q0 -261 113 -405q60 -82 156.5 -125.5t206.5 -41.5q109 -2 206.5 41.5t160.5 125.5q52 71 77 158z" />
    <glyph glyph-name="cacute" unicode="&#x107;" horiz-adv-x="1222" 
d="M395 1291l556 204l-61 178l-559 -205zM1148 896l-224 -98q-15 29 -30 49q-41 55 -104.5 84t-136.5 27q-73 2 -136.5 -27t-102.5 -84q-71 -95 -75 -271q4 -176 75 -271q39 -53 102 -81t137 -28t137.5 28t103.5 81q11 15 28 47l226 -98q-38 -64 -64 -94
q-76 -93 -190.5 -143t-240.5 -47q-126 -3 -239.5 46t-191.5 144q-137 167 -137 416q0 248 137 418q79 95 191.5 142.5t239.5 47.5q129 0 241 -48.5t190 -141.5q39 -48 64 -98z" />
    <glyph glyph-name="Cdotaccent" unicode="&#x10a;" horiz-adv-x="1597" 
d="M713 2069h249v-249h-249v249zM1261 521l237 -69q-40 -129 -124 -234q-100 -123 -246 -186.5t-311 -63.5q-168 0 -314 65t-241 185q-177 218 -177 550q3 341 177 553q97 122 242 184.5t313 62.5t314 -63t243 -184q90 -112 139 -278l-248 -42q-27 103 -81 172
q-62 82 -159.5 125.5t-207.5 43.5t-207 -44t-156 -125q-113 -142 -113 -405q0 -261 113 -405q60 -82 156.5 -125.5t206.5 -41.5q109 -2 206.5 41.5t160.5 125.5q52 71 77 158z" />
    <glyph glyph-name="cdotaccent" unicode="&#x10b;" horiz-adv-x="1222" 
d="M553 1632h249v-250h-249v250zM1148 896l-224 -98q-15 29 -30 49q-41 55 -104.5 84t-136.5 27q-73 2 -136.5 -27t-102.5 -84q-71 -95 -75 -271q4 -176 75 -271q39 -53 102 -81t137 -28t137.5 28t103.5 81q11 15 28 47l226 -98q-38 -64 -64 -94q-76 -93 -190.5 -143
t-240.5 -47q-126 -3 -239.5 46t-191.5 144q-137 167 -137 416q0 248 137 418q79 95 191.5 142.5t239.5 47.5q129 0 241 -48.5t190 -141.5q39 -48 64 -98z" />
    <glyph glyph-name="Ccaron" unicode="&#x10c;" horiz-adv-x="1597" 
d="M565 2042l-89 -167l354 -198l352 198l-88 167l-264 -148zM1261 521l237 -69q-40 -129 -124 -234q-100 -123 -246 -186.5t-311 -63.5q-168 0 -314 65t-241 185q-177 218 -177 550q3 341 177 553q97 122 242 184.5t313 62.5t314 -63t243 -184q90 -112 139 -278l-248 -42
q-27 103 -81 172q-62 82 -159.5 125.5t-207.5 43.5t-207 -44t-156 -125q-113 -142 -113 -405q0 -261 113 -405q60 -82 156.5 -125.5t206.5 -41.5q109 -2 206.5 41.5t160.5 125.5q52 71 77 158z" />
    <glyph glyph-name="ccaron" unicode="&#x10d;" horiz-adv-x="1222" 
d="M401 1658l-90 -167l355 -198l352 198l-88 167l-264 -148zM1148 896l-224 -98q-15 29 -30 49q-41 55 -104.5 84t-136.5 27q-73 2 -136.5 -27t-102.5 -84q-71 -95 -75 -271q4 -176 75 -271q39 -53 102 -81t137 -28t137.5 28t103.5 81q11 15 28 47l226 -98q-38 -64 -64 -94
q-76 -93 -190.5 -143t-240.5 -47q-126 -3 -239.5 46t-191.5 144q-137 167 -137 416q0 248 137 418q79 95 191.5 142.5t239.5 47.5q129 0 241 -48.5t190 -141.5q39 -48 64 -98z" />
    <glyph glyph-name="Dcaron" unicode="&#x10e;" horiz-adv-x="1489" 
d="M1056 1875l-354 -198l-354 198l89 167l265 -148l264 148zM1316 1143q88 -172 88 -375q0 -200 -88 -375q-93 -179 -268 -286t-374 -107h-503v1536h503q198 0 374 -106.5t268 -286.5zM1103 503q58 121 55 265q0 150 -55 267q-63 124 -182 199t-260 76h-247v-1084l247 2
q137 2 259 76t183 199z" />
    <glyph glyph-name="dcaron" unicode="&#x10f;" horiz-adv-x="1651" 
d="M1340 1542h249v-281q0 -136 -63.5 -202.5t-185.5 -45.5l13 105q69 -6 97 38.5t18 119.5h-128v266zM943 1077v459h241v-1536h-211v98q-141 -130 -359 -130q-116 0 -221 48.5t-175 137.5q-133 162 -133 422q0 259 133 425q71 88 177 135.5t226 47.5q185 0 322 -107z
M885 284q88 99 88 292q0 190 -88 294q-79 99 -228 99q-166 0 -245 -116q-73 -101 -73 -277q0 -181 68 -275q40 -58 105 -88t139 -30q150 0 234 101z" />
    <glyph glyph-name="Dcroat" unicode="&#x110;" horiz-adv-x="1489" 
d="M1316 1143q88 -166 88 -375q0 -206 -88 -375q-93 -179 -268 -286t-372 -107h-505v674h-150v190h150v672h505q197 0 372.5 -107t267.5 -286zM1103 503q58 121 58 265q-3 150 -58 267q-63 124 -181.5 199t-258.5 76h-249v-446h320v-190h-320v-448l249 2q135 2 257 76
t183 199z" />
    <glyph glyph-name="dcroat" unicode="&#x111;" horiz-adv-x="1335" 
d="M1297 1438v-190h-113v-1248h-211v98q-141 -130 -359 -130q-116 0 -221 48.5t-175 137.5q-133 162 -133 422q0 259 133 425q71 88 177 135.5t226 47.5q185 0 322 -107v171h-209v190h209v98h241v-98h113zM885 284q88 99 88 292q0 190 -88 294q-79 99 -228 99
q-166 0 -245 -116q-73 -101 -73 -277q0 -181 68 -275q40 -58 105 -88t139 -30q150 0 234 101z" />
    <glyph glyph-name="Emacron" unicode="&#x112;" horiz-adv-x="1280" 
d="M932 1982v-190h-563v190h563zM1152 1297h-740v-410h612v-238h-612v-408h740v-241h-981v1536h981v-239z" />
    <glyph glyph-name="emacron" unicode="&#x113;" horiz-adv-x="1307" 
d="M958 1598v-190h-563v190h563zM343 510q16 -135 71 -205q41 -54 104.5 -82.5t136.5 -28.5q155 0 239 111q6 8 10.5 16t9.5 17t8 14l239 -102q-29 -53 -67 -96q-81 -94 -197 -142.5t-242 -43.5q-283 10 -433 190q-140 175 -137 418q7 259 137 418q77 93 190.5 141.5
t242.5 48.5q130 0 242 -48t189 -142q136 -166 136 -418q0 -24 -4 -66h-875zM655 958q-73 2 -136.5 -27t-104.5 -84q-43 -56 -62 -145h604q-19 89 -62 145q-84 114 -239 111z" />
    <glyph glyph-name="Edotaccent" unicode="&#x116;" horiz-adv-x="1280" 
d="M800 2016v-250h-250v250h250zM1152 1297h-740v-410h612v-238h-612v-408h740v-241h-981v1536h981v-239z" />
    <glyph glyph-name="edotaccent" unicode="&#x117;" horiz-adv-x="1307" 
d="M798 1632v-250h-250v250h250zM343 510q16 -135 71 -205q41 -54 104.5 -82.5t136.5 -28.5q155 0 239 111q6 8 10.5 16t9.5 17t8 14l239 -102q-29 -53 -67 -96q-81 -94 -197 -142.5t-242 -43.5q-283 10 -433 190q-140 175 -137 418q7 259 137 418q77 93 190.5 141.5
t242.5 48.5q130 0 242 -48t189 -142q136 -166 136 -418q0 -24 -4 -66h-875zM655 958q-73 2 -136.5 -27t-104.5 -84q-43 -56 -62 -145h604q-19 89 -62 145q-84 114 -239 111z" />
    <glyph glyph-name="Eogonek" unicode="&#x118;" horiz-adv-x="1280" 
d="M1152 1297h-740v-410h612v-238h-612v-408h740v-241h-64q-64 -45 -115 -105q-58 -65 -81 -123q-18 -55 8 -81q14 -18 39 -19.5t49.5 9t44.5 27.5l87 -115q-34 -55 -100 -86q-70 -33 -146 -13.5t-123 79.5q-43 48 -52 119.5t18 143.5q39 90 113 164h-659v1536h981v-239z
" />
    <glyph glyph-name="eogonek" unicode="&#x119;" horiz-adv-x="1307" 
d="M343 510q16 -135 71 -205q41 -54 104.5 -82.5t136.5 -28.5q155 0 239 111q6 8 10.5 16t9.5 17t8 14l239 -102q-7 -16 -22 -37q-45 -72 -102 -159t-73 -114q-62 -111 -79 -166q-16 -56 11 -83q14 -18 39 -19.5t49 9t44 27.5l90 -115q-39 -57 -100 -86
q-71 -33 -146.5 -13.5t-122.5 79.5q-43 48 -52 119.5t18 143.5q21 59 76 143q-69 -14 -136 -11q-283 10 -433 190q-140 175 -137 418q7 259 137 418q77 93 190.5 141.5t242.5 48.5q130 0 242 -48t189 -142q136 -166 136 -418q0 -24 -4 -66h-875zM655 958q-73 2 -136.5 -27
t-104.5 -84q-43 -56 -62 -145h604q-19 89 -62 145q-84 114 -239 111z" />
    <glyph glyph-name="Ecaron" unicode="&#x11a;" horiz-adv-x="1280" 
d="M1005 1875l-354 -198l-354 198l89 167l265 -148l264 148zM1152 1297h-740v-410h612v-238h-612v-408h740v-241h-981v1536h981v-239z" />
    <glyph glyph-name="ecaron" unicode="&#x11b;" horiz-adv-x="1307" 
d="M1043 1491l-354 -198l-354 198l90 167l264 -148l265 148zM343 510q16 -135 71 -205q41 -54 104.5 -82.5t136.5 -28.5q155 0 239 111q6 8 10.5 16t9.5 17t8 14l239 -102q-29 -53 -67 -96q-81 -94 -197 -142.5t-242 -43.5q-283 10 -433 190q-140 175 -137 418
q7 259 137 418q77 93 190.5 141.5t242.5 48.5q130 0 242 -48t189 -142q136 -166 136 -418q0 -24 -4 -66h-875zM655 958q-73 2 -136.5 -27t-104.5 -84q-43 -56 -62 -145h604q-19 89 -62 145q-84 114 -239 111z" />
    <glyph glyph-name="Gbreve" unicode="&#x11e;" horiz-adv-x="1634" 
d="M847 1664q-131 0 -223.5 92.5t-92.5 223.5h190q0 -52 36.5 -89t89.5 -37t89.5 37t36.5 89h190q0 -131 -92.5 -223.5t-223.5 -92.5zM909 806h640v-51q-10 -330 -175 -537q-98 -124 -243.5 -187t-313.5 -63q-171 0 -317 63.5t-238 186.5q-170 207 -177 550q7 339 177 550
q92 122 239 186t316 64t314 -64.5t243 -185.5q40 -52 70 -111l-222 -100q-27 48 -40 66q-61 82 -158.5 125.5t-206.5 41.5q-109 2 -206.5 -41.5t-160.5 -125.5q-107 -144 -111 -405q4 -261 111 -405q63 -82 160.5 -125.5t206.5 -41.5q109 -2 206.5 41.5t158.5 125.5
q74 102 98 249h-371v194z" />
    <glyph glyph-name="gbreve" unicode="&#x11f;" horiz-adv-x="1333" 
d="M713 1280q-130 0 -222 92.5t-92 223.5h188q0 -52 37.5 -89t88.5 -37q53 0 90.5 37t37.5 89h187q0 -131 -92 -223.5t-223 -92.5zM973 1152h211v-1195q0 -281 -201 -407q-145 -92 -339 -92q-74 0 -150 22.5t-131 62.5q-114 60 -175 165l222 106q20 -35 55 -64
q34 -32 83.5 -49t97.5 -17q133 0 214 66q48 37 66.5 84.5t16.5 124.5v114q-135 -105 -329 -105q-116 0 -221 48.5t-175 137.5q-133 162 -133 422q0 259 133 425q71 88 177 135.5t226 47.5q100 0 191 -34.5t161 -97.5v100zM651 183q150 0 234 101q88 99 88 292q0 190 -88 294
q-79 99 -228 99q-166 0 -245 -116q-73 -101 -73 -277q0 -181 68 -275q40 -58 105 -88t139 -30z" />
    <glyph glyph-name="Gdotaccent" unicode="&#x120;" horiz-adv-x="1634" 
d="M943 2016v-250h-250v250h250zM909 806h640v-51q-10 -330 -175 -537q-98 -124 -243.5 -187t-313.5 -63q-171 0 -317 63.5t-238 186.5q-170 207 -177 550q7 339 177 550q92 122 239 186t316 64t314 -64.5t243 -185.5q40 -52 70 -111l-222 -100q-27 48 -40 66
q-61 82 -158.5 125.5t-206.5 41.5q-109 2 -206.5 -41.5t-160.5 -125.5q-107 -144 -111 -405q4 -261 111 -405q63 -82 160.5 -125.5t206.5 -41.5q109 -2 206.5 41.5t158.5 125.5q74 102 98 249h-371v194z" />
    <glyph glyph-name="gdotaccent" unicode="&#x121;" horiz-adv-x="1333" 
d="M823 1632v-250h-249v250h249zM973 1152h211v-1195q0 -281 -201 -407q-145 -92 -339 -92q-74 0 -150 22.5t-131 62.5q-114 60 -175 165l222 106q20 -35 55 -64q34 -32 83.5 -49t97.5 -17q133 0 214 66q48 37 66.5 84.5t16.5 124.5v114q-135 -105 -329 -105
q-116 0 -221 48.5t-175 137.5q-133 162 -133 422q0 259 133 425q71 88 177 135.5t226 47.5q100 0 191 -34.5t161 -97.5v100zM651 183q150 0 234 101q88 99 88 292q0 190 -88 294q-79 99 -228 99q-166 0 -245 -116q-73 -101 -73 -277q0 -181 68 -275q40 -58 105 -88t139 -30z
" />
    <glyph glyph-name="uni0122" unicode="&#x122;" horiz-adv-x="1634" 
d="M909 806h640v-51q-10 -330 -175 -537q-98 -124 -243.5 -187t-313.5 -63q-171 0 -317 63.5t-238 186.5q-170 207 -177 550q7 339 177 550q92 122 239 186t316 64t314 -64.5t243 -185.5q40 -52 70 -111l-222 -100q-27 48 -40 66q-61 82 -158.5 125.5t-206.5 41.5
q-109 2 -206.5 -41.5t-160.5 -125.5q-107 -144 -111 -405q4 -261 111 -405q63 -82 160.5 -125.5t206.5 -41.5q109 -2 206.5 41.5t158.5 125.5q74 102 98 249h-371v194zM695 -382v237h237v-237q0 -97 -67 -156t-170 -59v106q15 0 34 4t42.5 14.5t39 34t15.5 56.5h-131z" />
    <glyph glyph-name="uni0123" unicode="&#x123;" horiz-adv-x="1333" 
d="M826 1517v-237h-237v237q0 97 67 156t170 59v-106q-15 0 -33.5 -4t-42.5 -14t-39.5 -34t-15.5 -57h131zM973 1152h211v-1195q0 -281 -201 -407q-145 -92 -339 -92q-74 0 -150 22.5t-131 62.5q-114 60 -175 165l222 106q20 -35 55 -64q34 -32 83.5 -49t97.5 -17
q133 0 214 66q48 37 66.5 84.5t16.5 124.5v114q-135 -105 -329 -105q-116 0 -221 48.5t-175 137.5q-133 162 -133 422q0 259 133 425q71 88 177 135.5t226 47.5q100 0 191 -34.5t161 -97.5v100zM651 183q150 0 234 101q88 99 88 292q0 190 -88 294q-79 99 -228 99
q-166 0 -245 -116q-73 -101 -73 -277q0 -181 68 -275q40 -58 105 -88t139 -30z" />
    <glyph glyph-name="Hbar" unicode="&#x126;" horiz-adv-x="1570" 
d="M1549 1274v-239h-150v-1035h-241v538h-746v-538h-241v1035h-150v239h150v262h241v-262h746v262h241v-262h150zM1158 777v258h-746v-258h746z" />
    <glyph glyph-name="hbar" unicode="&#x127;" horiz-adv-x="1301" 
d="M1028 1069q101 -88 135 -205.5t32 -291.5v-572h-244v572q0 110 -21 188t-77 127q-71 65 -196 62q-91 -3 -160 -55q-71 -57 -92 -167q-15 -69 -15 -224v-503h-241v1248h-119v190h119v98h214v-98h230v-190h-230v-194l6 6q131 115 318 122q90 5 181 -25.5t160 -87.5z" />
    <glyph glyph-name="Imacron" unicode="&#x12a;" horiz-adv-x="539" 
d="M-13 1982h563v-190h-563v190zM149 1536h241v-1536h-241v1536z" />
    <glyph glyph-name="imacron" unicode="&#x12b;" horiz-adv-x="582" 
d="M9 1598h563v-190h-563v190zM171 1152h241v-1152h-241v1152z" />
    <glyph glyph-name="Iogonek" unicode="&#x12e;" horiz-adv-x="539" 
d="M333 -292l89 -115q-39 -57 -100 -86q-71 -33 -146.5 -13.5t-122.5 79.5q-44 47 -53 119.5t19 143.5q43 105 130 181v1519h241v-1536q-64 -45 -115 -105q-62 -70 -81 -123q-18 -56 7 -81q14 -18 39 -19.5t49 9t44 27.5z" />
    <glyph glyph-name="iogonek" unicode="&#x12f;" horiz-adv-x="582" 
d="M412 1555v-226h-241v226h241zM354 -292l90 -115q-38 -57 -101 -86q-71 -33 -146 -13.5t-122 79.5q-43 48 -52 119.5t18 143.5q43 105 130 181v1135h241v-1152q-64 -45 -115 -105q-64 -72 -82 -123q-18 -56 7 -81q14 -18 39 -19.5t49 9t44 27.5z" />
    <glyph glyph-name="Idotaccent" unicode="&#x130;" horiz-adv-x="539" 
d="M145 2016h250v-250h-250v250zM149 1536h241v-1536h-241v1536z" />
    <glyph glyph-name="dotlessi" unicode="&#x131;" horiz-adv-x="582" 
d="M171 1152h241v-1152h-241v1152z" />
    <glyph glyph-name="uni0136" unicode="&#x136;" horiz-adv-x="1425" 
d="M693 704h-279v-704h-243v1536h243v-642h279l401 642h288l-477 -736l520 -800h-290zM862 -382q0 -97 -67 -156t-170 -59v106q22 0 48.5 6.5t54.5 33t27 69.5h-130v237h237v-237z" />
    <glyph glyph-name="uni0137" unicode="&#x137;" horiz-adv-x="1175" 
d="M393 533v-533h-244v1534h244v-811h164l290 429h275l-358 -525l411 -627h-270l-348 533h-164zM747 -382q0 -97 -67 -156t-170 -59v106q23 0 49.5 6.5t54 33t26.5 69.5h-130v237h237v-237z" />
    <glyph glyph-name="Lacute" unicode="&#x139;" horiz-adv-x="1130" 
d="M235 1675l556 204l-61 178l-559 -205zM412 1536h-241v-1536h928v241h-687v1295z" />
    <glyph glyph-name="lacute" unicode="&#x13a;" horiz-adv-x="539" 
d="M21 1675l557 204l-62 178l-559 -205zM149 0h241v1568h-241v-1568z" />
    <glyph glyph-name="uni013B" unicode="&#x13b;" horiz-adv-x="1130" 
d="M412 1536h-241v-1536h928v241h-687v1295zM753 -382q0 -97 -67 -156t-170 -59v106q22 0 48.5 6.5t54.5 33t27 69.5h-130v237h237v-237z" />
    <glyph glyph-name="uni013C" unicode="&#x13c;" horiz-adv-x="539" 
d="M149 0h241v1568h-241v-1568zM395 -382q0 -97 -67 -156t-170 -59v106q22 0 48.5 6.5t54.5 33t27 69.5h-130v237h237v-237z" />
    <glyph glyph-name="Lcaron" unicode="&#x13d;" horiz-adv-x="1130" 
d="M943 1261q0 -136 -63 -202.5t-187 -45.5l15 105q68 -6 96 38t19 120h-130v266h250v-281zM412 1536h-241v-1536h928v241h-687v1295z" />
    <glyph glyph-name="lcaron" unicode="&#x13e;" horiz-adv-x="898" 
d="M149 0h241v1568h-241v-1568zM834 1261q0 -136 -63.5 -202.5t-185.5 -45.5l14 105q67 -6 96 38.5t20 119.5h-130v266h249v-281z" />
    <glyph glyph-name="Lslash" unicode="&#x141;" horiz-adv-x="1162" 
d="M444 241h687v-241h-928v363l-75 -75l-160 160l235 235v853h241v-614l254 253l160 -160l-414 -411v-363z" />
    <glyph glyph-name="lslash" unicode="&#x142;" horiz-adv-x="804" 
d="M847 1015l-324 -324v-691h-239v454l-167 -166l-160 160l327 326v794h239v-557l164 164z" />
    <glyph glyph-name="Nacute" unicode="&#x143;" horiz-adv-x="1546" 
d="M559 1675l557 204l-62 178l-559 -205zM384 1536l749 -1094v1094h243v-1536h-213l-747 1094v-1094h-245v1536h213z" />
    <glyph glyph-name="nacute" unicode="&#x144;" horiz-adv-x="1303" 
d="M1013 1495l-556 -204l-64 177l558 205zM1028 1069q101 -88 135 -205.5t32 -291.5v-572h-244v572q0 110 -21 188t-77 127q-71 65 -196 62q-91 -3 -160 -55q-71 -57 -92 -167q-15 -69 -15 -224v-503h-241v1152h214v-98l6 6q131 115 318 122q90 5 181 -25.5t160 -87.5z" />
    <glyph glyph-name="uni0145" unicode="&#x145;" horiz-adv-x="1546" 
d="M384 1536l749 -1094v1094h243v-1536h-213l-747 1094v-1094h-245v1536h213zM892 -382q0 -97 -67 -156t-170 -59v106q23 0 49.5 6.5t54 33t26.5 69.5h-130v237h237v-237z" />
    <glyph glyph-name="uni0146" unicode="&#x146;" horiz-adv-x="1303" 
d="M1028 1069q101 -88 135 -205.5t32 -291.5v-572h-244v572q0 110 -21 188t-77 127q-71 65 -196 62q-91 -3 -160 -55q-71 -57 -92 -167q-15 -69 -15 -224v-503h-241v1152h214v-98l6 6q131 115 318 122q90 5 181 -25.5t160 -87.5zM559 -382v237h237v-237q0 -97 -67 -156
t-170 -59v106q23 0 49.5 6.5t54 33t26.5 69.5h-130z" />
    <glyph glyph-name="Ncaron" unicode="&#x147;" horiz-adv-x="1546" 
d="M510 2042l-90 -167l354 -198l355 198l-90 167l-265 -148zM384 1536l749 -1094v1094h243v-1536h-213l-747 1094v-1094h-245v1536h213z" />
    <glyph glyph-name="ncaron" unicode="&#x148;" horiz-adv-x="1303" 
d="M1054 1491l-354 -198l-354 198l89 167l265 -148l264 148zM1028 1069q101 -88 135 -205.5t32 -291.5v-572h-244v572q0 110 -21 188t-77 127q-71 65 -196 62q-91 -3 -160 -55q-71 -57 -92 -167q-15 -69 -15 -224v-503h-241v1152h214v-98l6 6q131 115 318 122
q90 5 181 -25.5t160 -87.5z" />
    <glyph glyph-name="Eng" unicode="&#x14a;" horiz-adv-x="1546" 
d="M1133 1536h243v-1728q0 -116 -48 -188t-135 -89q-121 -22 -248 10v182q20 -3 30 -4t30.5 -2t32 0t29.5 4.5t28.5 10t23 17.5t19.5 26.5t11.5 37t4.5 48.5q0 109 -126 297l-100 153l26 -4l-538 787v-1094h-245v1536h213l749 -1094v1094z" />
    <glyph glyph-name="eng" unicode="&#x14b;" horiz-adv-x="1301" 
d="M1028 1069q101 -88 135 -205.5t32 -291.5v-764q0 -116 -51 -188t-143 -89q-113 -20 -235 10v173q23 -2 37 -3t35.5 0t35.5 6t30 15.5t25 27.5t15.5 44t6.5 62v706q0 110 -21 188t-77 127q-71 65 -196 62q-91 -3 -160 -55q-71 -57 -92 -167q-15 -69 -15 -224v-503h-241
v1152h214v-98l6 6q131 115 318 122q90 5 181 -25.5t160 -87.5z" />
    <glyph glyph-name="Omacron" unicode="&#x14c;" horiz-adv-x="1632" 
d="M518 1982h564v-190h-564v190zM817 -32q-169 0 -315 64t-242 186q-175 217 -175 550q0 336 175 553q95 122 241 184.5t316 62.5q168 -2 313 -64.5t242 -182.5q168 -207 175 -553q-3 -337 -175 -550q-98 -123 -243.5 -186.5t-311.5 -63.5zM817 196q110 -2 206.5 41.5
t156.5 125.5q113 148 113 405q0 260 -113 405q-60 82 -156.5 125.5t-206.5 41.5q-110 2 -208 -41.5t-157 -125.5q-109 -137 -113 -405q0 -261 113 -405q59 -82 157 -125.5t208 -41.5z" />
    <glyph glyph-name="omacron" unicode="&#x14d;" 
d="M373 1598h564v-190h-564v190zM655 -32q-129 0 -242.5 48.5t-190.5 141.5q-137 171 -137 418q0 250 137 418q75 92 189.5 141t243.5 49t243 -48.5t188 -141.5q139 -170 139 -418q0 -242 -139 -418q-77 -94 -188.5 -142t-242.5 -48zM896 305q75 100 75 271q0 173 -75 273
q-40 53 -103.5 81t-137.5 28q-75 0 -138.5 -28t-102.5 -81q-75 -100 -75 -273q0 -171 75 -271q39 -54 102.5 -82.5t138.5 -28.5q73 0 136.5 28.5t104.5 82.5z" />
    <glyph glyph-name="Ohungarumlaut" unicode="&#x150;" horiz-adv-x="1632" 
d="M691 1690l254 249l-115 118l-254 -250zM1033 1690l253 249l-115 118l-254 -250zM817 -32q-169 0 -315 64t-242 186q-175 217 -175 550q0 336 175 553q95 122 241 184.5t316 62.5q168 -2 313 -64.5t242 -182.5q168 -207 175 -553q-3 -337 -175 -550
q-98 -123 -243.5 -186.5t-311.5 -63.5zM817 196q110 -2 206.5 41.5t156.5 125.5q113 148 113 405q0 260 -113 405q-60 82 -156.5 125.5t-206.5 41.5q-110 2 -208 -41.5t-157 -125.5q-109 -137 -113 -405q0 -261 113 -405q59 -82 157 -125.5t208 -41.5z" />
    <glyph glyph-name="ohungarumlaut" unicode="&#x151;" 
d="M486 1306l254 249l-115 118l-254 -250zM828 1306l254 249l-116 118l-253 -250zM655 -32q-129 0 -242.5 48.5t-190.5 141.5q-137 171 -137 418q0 250 137 418q75 92 189.5 141t243.5 49t243 -48.5t188 -141.5q139 -170 139 -418q0 -242 -139 -418q-77 -94 -188.5 -142
t-242.5 -48zM896 305q75 100 75 271q0 173 -75 273q-40 53 -103.5 81t-137.5 28q-75 0 -138.5 -28t-102.5 -81q-75 -100 -75 -273q0 -171 75 -271q39 -54 102.5 -82.5t138.5 -28.5q73 0 136.5 28.5t104.5 82.5z" />
    <glyph glyph-name="OE" unicode="&#x152;" horiz-adv-x="2485" 
d="M2357 1297h-742v-410h614v-238h-614v-408h742v-241h-981v222l-4 -4q-98 -123 -243.5 -186.5t-311.5 -63.5q-169 0 -315 64t-242 186q-175 217 -175 550q0 336 175 553q95 122 241 184.5t316 62.5q168 -2 313 -64.5t242 -182.5q1 -1 2 -3q0 -1 0.5 -1.5t1.5 -0.5v220h981
v-239zM1180 363q113 148 113 405q0 260 -113 405q-60 82 -156.5 125.5t-206.5 41.5q-110 2 -208 -41.5t-157 -125.5q-109 -137 -113 -405q0 -261 113 -405q59 -82 157 -125.5t208 -41.5q110 -2 206.5 41.5t156.5 125.5z" />
    <glyph glyph-name="oe" unicode="&#x153;" horiz-adv-x="2193" 
d="M1229 510q16 -136 70 -205q39 -53 103 -82t136 -29q73 0 136.5 28.5t104.5 82.5l28 47l237 -102q-18 -36 -64 -96q-83 -94 -198.5 -142.5t-243.5 -43.5q-131 5 -244.5 52t-186.5 138l-10 13q-2 -2 -5.5 -6.5t-5.5 -6.5q-77 -94 -188.5 -142t-242.5 -48
q-129 0 -242.5 48.5t-190.5 141.5q-137 171 -137 418q0 250 137 418q75 92 189.5 141t243.5 49t243 -48.5t188 -141.5l11 -13q2 2 5 6.5t5 6.5q78 93 190 141.5t241 48.5q130 0 243 -48t190 -142q134 -163 137 -418q0 -14 -5 -66h-874zM1538 958q-72 2 -136 -27t-103 -84
q-43 -56 -62 -145h604q-19 89 -62 145q-41 55 -104.5 84t-136.5 27zM896 305q71 94 75 260v11q0 173 -75 273q-40 53 -103.5 81t-137.5 28q-75 0 -138.5 -28t-102.5 -81q-75 -100 -75 -273q0 -171 75 -271q39 -54 102.5 -82.5t138.5 -28.5q73 0 136.5 28.5t104.5 82.5z" />
    <glyph glyph-name="Racute" unicode="&#x154;" horiz-adv-x="1373" 
d="M992 1879l-555 -204l-64 177l557 205zM1244 738q-69 -92 -184 -145l290 -593h-273l-264 546h-401v-546h-241v1536h678q83 0 158 -26q143 -47 230 -162q110 -133 113 -307q1 -80 -27 -159.5t-79 -143.5zM412 1310v-538h435q53 0 108.5 28t91.5 75q61 79 58 166
q-3 109 -70 179q-35 39 -86.5 64.5t-101.5 25.5h-435z" />
    <glyph glyph-name="racute" unicode="&#x155;" horiz-adv-x="934" 
d="M770 1495l-557 -204l-64 177l559 205zM702 1182q83 6 179 -28v-224q-89 34 -200 28q-129 -6 -201 -81q-51 -51 -70.5 -121t-19.5 -167v-589h-241v1152h214v-164q43 73 113 121q94 70 226 73z" />
    <glyph glyph-name="uni0156" unicode="&#x156;" horiz-adv-x="1373" 
d="M1244 738q-69 -92 -184 -145l290 -593h-273l-264 546h-401v-546h-241v1536h678q83 0 158 -26q143 -47 230 -162q110 -133 113 -307q1 -80 -27 -159.5t-79 -143.5zM412 1310v-538h435q53 0 108.5 28t91.5 75q61 79 58 166q-3 109 -70 179q-35 39 -86.5 64.5t-101.5 25.5
h-435zM576 -382v237h237v-237q0 -97 -67 -156t-170 -59v106q15 0 33.5 4t42 14.5t39 34t15.5 56.5h-130z" />
    <glyph glyph-name="uni0157" unicode="&#x157;" horiz-adv-x="934" 
d="M702 1182q83 6 179 -28v-224q-89 34 -200 28q-129 -6 -201 -81q-51 -51 -70.5 -121t-19.5 -167v-589h-241v1152h214v-164q43 73 113 121q94 70 226 73zM154 -382v237h236v-237q0 -97 -67 -156t-169 -59v106q15 0 33.5 4t42 14.5t39 34t15.5 56.5h-130z" />
    <glyph glyph-name="Rcaron" unicode="&#x158;" horiz-adv-x="1373" 
d="M1024 1875l-354 -198l-354 198l89 167l265 -148l264 148zM1244 738q-69 -92 -184 -145l290 -593h-273l-264 546h-401v-546h-241v1536h678q83 0 158 -26q143 -47 230 -162q110 -133 113 -307q1 -80 -27 -159.5t-79 -143.5zM412 1310v-538h435q53 0 108.5 28t91.5 75
q61 79 58 166q-3 109 -70 179q-35 39 -86.5 64.5t-101.5 25.5h-435z" />
    <glyph glyph-name="rcaron" unicode="&#x159;" horiz-adv-x="934" 
d="M858 1491l-355 -198l-354 198l90 167l264 -148l265 148zM702 1182q83 6 179 -28v-224q-89 34 -200 28q-129 -6 -201 -81q-51 -51 -70.5 -121t-19.5 -167v-589h-241v1152h214v-164q43 73 113 121q94 70 226 73z" />
    <glyph glyph-name="Sacute" unicode="&#x15a;" horiz-adv-x="1358" 
d="M429 1675l557 204l-62 178l-559 -205zM1282 1148l-243 -66q-31 71 -67.5 119t-92.5 81q-97 60 -203 60q-124 0 -202 -47q-45 -25 -70.5 -67.5t-25.5 -88.5q0 -57 40 -100q45 -48 190 -90l271 -79q180 -51 279 -145q137 -131 137 -311q0 -99 -52 -193.5t-138 -152.5
q-143 -100 -410 -100q-330 0 -499 209q-91 117 -132 292l243 66q25 -134 83 -202q48 -70 133.5 -104.5t180.5 -34.5q71 0 143 18.5t117 52.5q77 57 77 155q0 78 -58 130q-61 56 -160 84l-283 83q-194 56 -290 141q-61 54 -92.5 131t-31.5 157q0 116 67 214t170 146
q130 62 315 62q189 -4 320 -77q95 -52 167.5 -140t116.5 -203z" />
    <glyph glyph-name="sacute" unicode="&#x15b;" horiz-adv-x="1143" 
d="M348 1291l554 204l-61 178l-557 -205zM1060 849l-234 -58q-13 40 -44 77t-69 56q-66 34 -143 34q-85 0 -145 -30q-58 -33 -58 -81q0 -31 17 -51q31 -35 132 -64q26 -8 58.5 -16.5t74.5 -20t66 -17.5q65 -20 87.5 -27.5t63.5 -28t75 -48.5q141 -114 128 -275
q-7 -78 -48.5 -144t-109.5 -110q-118 -77 -320 -77q-254 0 -395 151q-42 48 -78 124.5t-43 129.5l230 56q2 -38 19.5 -82.5t44.5 -71.5q72 -79 220 -79q132 0 190 45q38 29 47 79q0 47 -32 79q-37 34 -141 64q-33 9 -98 26t-94 25q-78 21 -130 44t-96 59q-55 42 -84 103
t-29 123q0 98 56.5 177t145.5 119q111 49 250 45q134 0 243 -58q84 -41 148 -114.5t95 -162.5z" />
    <glyph glyph-name="Scedilla" unicode="&#x15e;" horiz-adv-x="1358" 
d="M1158 725q137 -131 137 -311q0 -99 -52 -193.5t-138 -152.5q-128 -90 -358 -100l-24 -64q72 -33 103 -92q30 -52 26.5 -116.5t-37.5 -113.5q-35 -51 -90 -77t-117 -19q-53 5 -119 36l53 145q47 -15 70 -15q40 0 58 28q20 26 8 53q-5 16 -16 28t-32 21.5t-37 15t-49 14.5
l55 160q-259 27 -403 205q-91 117 -132 292l243 66q25 -134 83 -202q48 -70 133.5 -104.5t180.5 -34.5q71 0 143 18.5t117 52.5q77 57 77 155q0 78 -58 130q-61 56 -160 84l-283 83q-194 56 -290 141q-61 54 -92.5 131t-31.5 157q0 116 67 214t170 146q130 62 315 62
q189 -4 320 -77q95 -52 167.5 -140t116.5 -203l-243 -66q-31 71 -67.5 119t-92.5 81q-97 60 -203 60q-124 0 -202 -47q-45 -25 -70.5 -67.5t-25.5 -88.5q0 -57 40 -100q45 -48 190 -90l271 -79q180 -51 279 -145z" />
    <glyph glyph-name="scedilla" unicode="&#x15f;" horiz-adv-x="1143" 
d="M941 574q141 -114 128 -275q-7 -78 -48.5 -144t-109.5 -110q-98 -63 -237 -73l-23 -68q66 -33 102 -92q29 -51 26 -116.5t-37 -113.5q-35 -51 -90.5 -77t-116.5 -19q-55 5 -121 36l53 145q50 -15 71 -15q41 0 59 28t7 53q-5 16 -16 28t-32.5 21.5t-37.5 15t-49 14.5
l56 158q-208 18 -329 149q-42 48 -78 124.5t-43 129.5l230 56q2 -38 19.5 -82.5t44.5 -71.5q72 -79 220 -79q132 0 190 45q38 29 47 79q0 47 -32 79q-37 34 -141 64q-33 9 -98 26t-94 25q-78 21 -130 44t-96 59q-55 42 -84 103t-29 123q0 98 56.5 177t145.5 119
q111 49 250 45q134 0 243 -58q84 -41 148 -114.5t95 -162.5l-234 -58q-13 40 -44 77t-69 56q-66 34 -143 34q-85 0 -145 -30q-58 -33 -58 -81q0 -31 17 -51q31 -35 132 -64q26 -8 58.5 -16.5t74.5 -20t66 -17.5q65 -20 87.5 -27.5t63.5 -28t75 -48.5z" />
    <glyph glyph-name="Scaron" unicode="&#x160;" horiz-adv-x="1358" 
d="M416 2042l-90 -167l355 -198l352 198l-88 167l-264 -148zM1282 1148l-243 -66q-31 71 -67.5 119t-92.5 81q-97 60 -203 60q-124 0 -202 -47q-45 -25 -70.5 -67.5t-25.5 -88.5q0 -57 40 -100q45 -48 190 -90l271 -79q180 -51 279 -145q137 -131 137 -311q0 -99 -52 -193.5
t-138 -152.5q-143 -100 -410 -100q-330 0 -499 209q-91 117 -132 292l243 66q25 -134 83 -202q48 -70 133.5 -104.5t180.5 -34.5q71 0 143 18.5t117 52.5q77 57 77 155q0 78 -58 130q-61 56 -160 84l-283 83q-194 56 -290 141q-61 54 -92.5 131t-31.5 157q0 116 67 214
t170 146q130 62 315 62q189 -4 320 -77q95 -52 167.5 -140t116.5 -203z" />
    <glyph glyph-name="scaron" unicode="&#x161;" horiz-adv-x="1143" 
d="M329 1658l-88 -167l352 -198l354 198l-89 167l-265 -148zM1060 849l-234 -58q-13 40 -44 77t-69 56q-66 34 -143 34q-85 0 -145 -30q-58 -33 -58 -81q0 -31 17 -51q31 -35 132 -64q26 -8 58.5 -16.5t74.5 -20t66 -17.5q65 -20 87.5 -27.5t63.5 -28t75 -48.5
q141 -114 128 -275q-7 -78 -48.5 -144t-109.5 -110q-118 -77 -320 -77q-254 0 -395 151q-42 48 -78 124.5t-43 129.5l230 56q2 -38 19.5 -82.5t44.5 -71.5q72 -79 220 -79q132 0 190 45q38 29 47 79q0 47 -32 79q-37 34 -141 64q-33 9 -98 26t-94 25q-78 21 -130 44t-96 59
q-55 42 -84 103t-29 123q0 98 56.5 177t145.5 119q111 49 250 45q134 0 243 -58q84 -41 148 -114.5t95 -162.5z" />
    <glyph glyph-name="uni0162" unicode="&#x162;" horiz-adv-x="1290" 
d="M766 0h-45l-32 -96q66 -33 102 -92q29 -51 26.5 -116.5t-36.5 -113.5q-35 -51 -90.5 -77t-116.5 -19q-56 5 -122 36l54 145q50 -15 70 -15q42 0 60 28q17 27 6 53q-5 16 -16 28t-32 21.5t-37 15t-49 14.5l64 188h-47v1297h-504v239h1248v-239h-503v-1297z" />
    <glyph glyph-name="uni0163" unicode="&#x163;" horiz-adv-x="955" 
d="M849 962h-341v-484q0 -61 0.5 -86.5t7 -59t19.5 -53.5q19 -33 52.5 -53t71.5 -23q99 -10 190 6v-209q-64 -17 -153 -20t-150 11l-8 3l-32 -92q66 -33 102 -92q30 -52 26.5 -116.5t-37.5 -113.5q-35 -51 -90 -77t-117 -19q-57 5 -119 36l53 145q47 -15 69 -15q41 0 59 28
q17 26 9 53q-6 21 -28.5 37t-43 22.5t-65.5 19.5l86 241q-63 43 -92 103q-31 59 -40 130.5t-9 178.5v499h-248v190h248v320h239v-320h341v-190z" />
    <glyph glyph-name="Tcaron" unicode="&#x164;" horiz-adv-x="1290" 
d="M956 1875l-352 -198l-354 198l89 167l265 -148l264 148zM1269 1536v-239h-503v-1297h-241v1297h-504v239h1248z" />
    <glyph glyph-name="tcaron" unicode="&#x165;" horiz-adv-x="940" 
d="M715 1820h249v-282q0 -135 -63.5 -201.5t-185.5 -45.5l15 106q67 -6 95.5 38.5t19.5 119.5h-130v265zM508 1472v-320h341v-190h-341v-484q0 -61 0.5 -86.5t7 -59t19.5 -53.5q19 -33 52.5 -53t71.5 -23q99 -10 190 6v-209q-64 -17 -153 -20t-150 11q-165 44 -228 163
q-31 59 -40 130.5t-9 178.5v499h-248v190h248v320h239z" />
    <glyph glyph-name="Tbar" unicode="&#x166;" horiz-adv-x="1290" 
d="M1269 1297h-503v-410h375v-238h-375v-649h-241v649h-376v238h376v410h-504v239h1248v-239z" />
    <glyph glyph-name="tbar" unicode="&#x167;" horiz-adv-x="955" 
d="M849 962h-341v-273h341v-192h-341v-19q0 -61 0.5 -86.5t7 -59t19.5 -53.5q19 -33 52.5 -53t71.5 -23q99 -10 190 6v-209q-64 -17 -153 -20t-150 11q-165 44 -228 163q-31 59 -40 130.5t-9 178.5v34h-248v192h248v273h-248v190h248v320h239v-320h341v-190z" />
    <glyph glyph-name="Umacron" unicode="&#x16a;" horiz-adv-x="1572" 
d="M501 1982h564v-190h-564v190zM1402 1536v-969q0 -212 -135 -381q-83 -106 -209.5 -162t-270.5 -56q-142 0 -269.5 56.5t-210.5 161.5q-64 79 -100 180.5t-36 200.5v967l243 2v-939q0 -79 17 -140.5t60 -121.5q52 -67 131 -104t165 -37t164.5 37.5t130.5 105.5
q44 57 60 117t16 143v939h244z" />
    <glyph glyph-name="umacron" unicode="&#x16b;" horiz-adv-x="1301" 
d="M939 1598v-190h-564v190h564zM911 1152h241v-1152h-211v100l-7 -6q-130 -117 -317 -124q-92 -5 -182.5 25.5t-159.5 89.5q-102 86 -135 202t-33 293v572h243v-572q0 -110 21 -188t77 -125q70 -64 198 -64q94 3 158 57q73 53 94 165q13 60 13 224v2v501z" />
    <glyph glyph-name="Uring" unicode="&#x16e;" horiz-adv-x="1572" 
d="M787 2112q123 0 212 -89t89 -212q0 -124 -89 -212.5t-212 -88.5q-125 0 -213 88t-88 213q0 123 88.5 212t212.5 89zM787 1939q-53 0 -90.5 -37.5t-37.5 -90.5t37.5 -90.5t90.5 -37.5t90.5 37.5t37.5 90.5t-37.5 90.5t-90.5 37.5zM1402 1536v-969q0 -212 -135 -381
q-83 -106 -209.5 -162t-270.5 -56q-142 0 -269.5 56.5t-210.5 161.5q-64 79 -100 180.5t-36 200.5v967l243 2v-939q0 -79 17 -140.5t60 -121.5q52 -67 131 -104t165 -37t164.5 37.5t130.5 105.5q44 57 60 117t16 143v939h244z" />
    <glyph glyph-name="uring" unicode="&#x16f;" horiz-adv-x="1301" 
d="M651 1218q-123 0 -212 89t-89 212t89 212t212 89t211.5 -89t88.5 -212t-88.5 -212t-211.5 -89zM651 1647q-53 0 -90.5 -37.5t-37.5 -90.5t37.5 -90.5t90.5 -37.5t90.5 37.5t37.5 90.5t-37.5 90.5t-90.5 37.5zM911 1152h241v-1152h-211v100l-7 -6q-130 -117 -317 -124
q-92 -5 -182.5 25.5t-159.5 89.5q-102 86 -135 202t-33 293v572h243v-572q0 -110 21 -188t77 -125q70 -64 198 -64q94 3 158 57q73 53 94 165q13 60 13 224v2v501z" />
    <glyph glyph-name="Uhungarumlaut" unicode="&#x170;" horiz-adv-x="1572" 
d="M597 1690l254 249l-115 118l-254 -250zM939 1690l254 249l-116 118l-254 -250zM1402 1536v-969q0 -212 -135 -381q-83 -106 -209.5 -162t-270.5 -56q-142 0 -269.5 56.5t-210.5 161.5q-64 79 -100 180.5t-36 200.5v967l243 2v-939q0 -79 17 -140.5t60 -121.5
q52 -67 131 -104t165 -37t164.5 37.5t130.5 105.5q44 57 60 117t16 143v939h244z" />
    <glyph glyph-name="uhungarumlaut" unicode="&#x171;" horiz-adv-x="1301" 
d="M725 1555l-254 -249l-115 117l254 250zM813 1306l-115 117l253 250l116 -118zM911 1152h241v-1152h-211v100l-7 -6q-130 -117 -317 -124q-92 -5 -182.5 25.5t-159.5 89.5q-102 86 -135 202t-33 293v572h243v-572q0 -110 21 -188t77 -125q70 -64 198 -64q94 3 158 57
q73 53 94 165q13 60 13 224v2v501z" />
    <glyph glyph-name="Uogonek" unicode="&#x172;" horiz-adv-x="1572" 
d="M1158 1536h244v-969q0 -212 -135 -381q-39 -51 -74 -77q-27 -25 -71.5 -66t-65 -60t-43.5 -42.5t-34 -38.5q-62 -87 -79 -130q-17 -55 9 -81q14 -18 39 -19.5t49 9t44 27.5l90 -115q-37 -55 -103 -86q-70 -33 -145 -13.5t-124 79.5q-43 47 -51.5 119.5t17.5 143.5
q24 60 84 132h-22q-142 0 -269.5 56.5t-210.5 161.5q-64 79 -100 180.5t-36 200.5v967l243 2v-939q0 -79 17 -140.5t60 -121.5q52 -67 131 -104t165 -37t164.5 37.5t130.5 105.5q44 57 60 117t16 143v939z" />
    <glyph glyph-name="uogonek" unicode="&#x173;" horiz-adv-x="1301" 
d="M1097 -292l89 -115q-38 -56 -102 -86q-70 -33 -145 -13.5t-124 79.5q-43 47 -51.5 119.5t17.5 143.5q47 116 160 205v59l-7 -6q-130 -117 -317 -124q-92 -5 -182.5 25.5t-159.5 89.5q-102 86 -135 202t-33 293v572h243v-572q0 -110 21 -188t77 -125q70 -64 198 -64
q94 3 158 57q73 53 94 165q13 60 13 224v2v501h241v-1152q-71 -52 -113 -105q-59 -62 -83 -123q-18 -55 8 -81q14 -18 39 -19.5t49.5 9t44.5 27.5z" />
    <glyph glyph-name="Wcircumflex" unicode="&#x174;" horiz-adv-x="2067" 
d="M770 1677l265 149l264 -149l90 166l-354 199l-354 -199zM1788 1536h254l-448 -1536h-239l-322 1105l-320 -1105h-239l-446 1536h251l314 -1120l314 1118l251 2l314 -1120z" />
    <glyph glyph-name="wcircumflex" unicode="&#x175;" horiz-adv-x="1657" 
d="M599 1293l265 149l265 -149l89 166l-354 199l-354 -199zM1399 1152h237l-352 -1152h-237l-219 766l-233 -766h-222l-352 1154l239 -2l233 -764l234 764h205l235 -764z" />
    <glyph glyph-name="Ycircumflex" unicode="&#x176;" horiz-adv-x="1284" 
d="M378 1677l264 149l265 -149l89 166l-354 199l-352 -199zM1005 1536h279l-520 -905v-631h-243v631l-521 905h279l363 -629z" />
    <glyph glyph-name="ycircumflex" unicode="&#x177;" horiz-adv-x="1203" 
d="M358 1293l265 149l264 -149l90 166l-354 199l-352 -199zM943 1152h239l-506 -1335q-71 -193 -173 -265q-50 -40 -107 -52t-140 -12h-21v230l34 -4q75 -8 113 17q52 33 126 235l-465 1186h243l333 -879z" />
    <glyph glyph-name="Ydieresis" unicode="&#x178;" horiz-adv-x="1284" 
d="M314 2016h224v-224h-224v224zM749 2016h224v-224h-224v224zM1005 1536h279l-520 -905v-631h-243v631l-521 905h279l363 -629z" />
    <glyph glyph-name="Zacute" unicode="&#x179;" horiz-adv-x="1376" 
d="M493 1675l557 204l-62 178l-557 -205zM435 226h813v-226h-1120v228l813 1082h-813v226h1120v-226z" />
    <glyph glyph-name="zacute" unicode="&#x17a;" horiz-adv-x="1228" 
d="M378 1291l556 204l-61 178l-559 -205zM1079 213v-213h-930v207l615 734h-615v211h930v-213l-612 -726h612z" />
    <glyph glyph-name="Zdotaccent" unicode="&#x17b;" horiz-adv-x="1376" 
d="M612 2016h250v-250h-250v250zM435 226h813v-226h-1120v228l813 1082h-813v226h1120v-226z" />
    <glyph glyph-name="zdotaccent" unicode="&#x17c;" horiz-adv-x="1228" 
d="M523 1632h249v-250h-249v250zM1079 213v-213h-930v207l615 734h-615v211h930v-213l-612 -726h612z" />
    <glyph glyph-name="Zcaron" unicode="&#x17d;" horiz-adv-x="1376" 
d="M457 2042l-90 -167l354 -198l354 198l-89 167l-265 -148zM435 226h813v-226h-1120v228l813 1082h-813v226h1120v-226z" />
    <glyph glyph-name="zcaron" unicode="&#x17e;" horiz-adv-x="1228" 
d="M380 1658l-88 -167l352 -198l354 198l-89 167l-265 -148zM1079 213v-213h-930v207l615 734h-615v211h930v-213l-612 -726h612z" />
    <glyph glyph-name="florin" unicode="&#x192;" horiz-adv-x="1612" 
d="M1193 1568q152 0 292 -66l-111 -199q-3 3 -21.5 11t-59.5 18t-83 10q-80 0 -149.5 -46t-85.5 -142l-49 -290h405v-190h-435l-43 -252q-36 -223 -154 -338.5t-292 -115.5q-134 0 -279 66l100 203q26 -15 74.5 -28t92.5 -13q84 0 139 65.5t76 195.5l36 217h-320v190h350
l41 241q34 232 158 347.5t318 115.5z" />
    <glyph glyph-name="uni0218" unicode="&#x218;" horiz-adv-x="1358" 
d="M1282 1148l-243 -66q-31 71 -67.5 119t-92.5 81q-97 60 -203 60q-124 0 -202 -47q-45 -25 -70.5 -67.5t-25.5 -88.5q0 -57 40 -100q45 -48 190 -90l271 -79q180 -51 279 -145q137 -131 137 -311q0 -99 -52 -193.5t-138 -152.5q-143 -100 -410 -100q-330 0 -499 209
q-91 117 -132 292l243 66q25 -134 83 -202q48 -70 133.5 -104.5t180.5 -34.5q71 0 143 18.5t117 52.5q77 57 77 155q0 78 -58 130q-61 56 -160 84l-283 83q-194 56 -290 141q-61 54 -92.5 131t-31.5 157q0 116 67 214t170 146q130 62 315 62q189 -4 320 -77
q95 -52 167.5 -140t116.5 -203zM800 -382q0 -97 -67 -156t-170 -59v106q23 0 49.5 6.5t54 33t26.5 69.5h-130v237h237v-237z" />
    <glyph glyph-name="uni0219" unicode="&#x219;" horiz-adv-x="1143" 
d="M1060 849l-234 -58q-13 40 -44 77t-69 56q-66 34 -143 34q-85 0 -145 -30q-58 -33 -58 -81q0 -31 17 -51q31 -35 132 -64q26 -8 58.5 -16.5t74.5 -20t66 -17.5q65 -20 87.5 -27.5t63.5 -28t75 -48.5q141 -114 128 -275q-7 -78 -48.5 -144t-109.5 -110q-118 -77 -320 -77
q-254 0 -395 151q-42 48 -78 124.5t-43 129.5l230 56q2 -38 19.5 -82.5t44.5 -71.5q72 -79 220 -79q132 0 190 45q38 29 47 79q0 47 -32 79q-37 34 -141 64q-33 9 -98 26t-94 25q-78 21 -130 44t-96 59q-55 42 -84 103t-29 123q0 98 56.5 177t145.5 119q111 49 250 45
q134 0 243 -58q84 -41 148 -114.5t95 -162.5zM706 -382q0 -97 -67 -156t-170 -59v106q23 0 49.5 6.5t54 33t26.5 69.5h-130v237h237v-237z" />
    <glyph glyph-name="uni021A" unicode="&#x21a;" horiz-adv-x="1290" 
d="M1269 1536v-239h-503v-1297h-241v1297h-504v239h1248zM484 -382v237h237v-237q0 -97 -67 -156t-170 -59v106q23 0 49.5 6.5t54 33t26.5 69.5h-130z" />
    <glyph glyph-name="uni021B" unicode="&#x21b;" horiz-adv-x="955" 
d="M849 962h-341v-484q0 -61 0.5 -86.5t7 -59t19.5 -53.5q19 -33 52.5 -53t71.5 -23q99 -10 190 6v-209q-64 -17 -153 -20t-150 11q-165 44 -228 163q-31 59 -40 130.5t-9 178.5v499h-248v190h248v320h239v-320h341v-190zM382 -382v237h237v-237q0 -97 -67 -156t-170 -59
v106q23 0 49.5 6.5t54 33t26.5 69.5h-130z" />
    <glyph glyph-name="alpha" unicode="&#x3b1;" horiz-adv-x="1339" 
d="M1225 418q0 -39 3 -64.5t13.5 -55t35 -47t63.5 -23.5v-228q-191 3 -280 128q-157 -160 -405 -160q-129 0 -242.5 48.5t-190.5 141.5q-137 171 -137 418q0 250 137 418q75 92 189.5 141t243.5 49q210 0 356 -115v83h214v-734zM896 305q75 100 75 271q0 173 -75 273
q-40 53 -103.5 81t-137.5 28q-75 0 -138.5 -28t-102.5 -81q-75 -100 -75 -273q0 -171 75 -271q39 -54 102.5 -82.5t138.5 -28.5q73 0 136.5 28.5t104.5 82.5z" />
    <glyph glyph-name="beta" unicode="&#x3b2;" horiz-adv-x="1294" 
d="M149 -512v1645q0 143 81 247q63 88 168 138t219 50q177 0 311 -109q76 -62 118 -147t42 -173q0 -91 -43 -175q-35 -66 -94 -115q115 -56 184 -149q81 -113 81 -256q0 -92 -38.5 -179t-108.5 -150q-157 -147 -395 -147q-80 0 -162 17q-92 21 -151 77v-574h-212zM363 457
q-1 -109 47 -172t151 -89q52 -13 111 -13q148 0 247 96q69 72 69 163q0 66 -39 128q-91 132 -335 143v211q76 8 139.5 48t89.5 95q17 36 17 74q0 82 -66 145q-74 71 -182 71q-62 0 -120.5 -28.5t-90.5 -74.5q-26 -30 -33 -65.5t-7 -89.5z" />
    <glyph glyph-name="uni03BC" unicode="&#x3bc;" horiz-adv-x="1312" 
d="M1195 418q1 -40 4 -64.5t14 -54.5t35.5 -47.5t63.5 -23.5v-228q-169 3 -262 105q-16 -16 -22 -20q-68 -59 -159.5 -89.5t-181.5 -25.5q-188 7 -318 124l-6 6v-484h-214v1536h241v-501q0 -157 15 -226q21 -111 92 -165q68 -54 160 -57q129 0 196 64q56 47 77 125t21 188
v572h244v-572v-47v-115z" />
    <glyph glyph-name="uni0400" unicode="&#x400;" horiz-adv-x="1280" 
d="M956 1852l-64 -177l-557 204l62 178zM1152 1297h-740v-410h612v-238h-612v-408h740v-241h-981v1536h981v-239z" />
    <glyph glyph-name="uni0401" unicode="&#x401;" horiz-adv-x="1280" 
d="M527 2016v-224h-224v224h224zM962 2016v-224h-224v224h224zM1152 1297h-740v-410h612v-238h-612v-408h740v-241h-981v1536h981v-239z" />
    <glyph glyph-name="uni0402" unicode="&#x402;" horiz-adv-x="1299" 
d="M1054 1062q160 -143 160 -435q0 -331 -188 -501q-71 -60 -160.5 -92t-176.5 -34v243q111 3 177 66q105 100 105 303q0 180 -92 269q-67 70 -190 70q-103 0 -171 -51q-77 -57 -98 -177q-13 -53 -13 -141v-582h-241v1323h-166v213h721v-213h-343v-271l12 13q60 56 146 87.5
t168 31.5q213 0 350 -122z" />
    <glyph glyph-name="uni0403" unicode="&#x403;" horiz-adv-x="1179" 
d="M877 1879l-557 -204l-64 177l559 205zM1158 1536v-239h-746v-1297h-241v1536h987z" />
    <glyph glyph-name="uni0404" unicode="&#x404;" horiz-adv-x="1597" 
d="M1184 363q52 71 77 158l239 -69q-44 -131 -126 -234q-100 -124 -245 -187t-310 -63q-170 0 -316 65t-241 185q-177 222 -177 550q3 341 177 553q97 122 242.5 184.5t314.5 62.5q167 0 312.5 -63t242.5 -184q95 -119 139 -278l-248 -42q-27 103 -81 172q-61 81 -158.5 125
t-206.5 44q-110 0 -208 -44t-157 -125q-81 -104 -104 -286h544v-238h-544q22 -179 104 -286q59 -82 157 -125.5t208 -41.5q108 -2 206 42t159 125z" />
    <glyph glyph-name="uni0405" unicode="&#x405;" horiz-adv-x="1358" 
d="M1282 1148l-243 -66q-31 71 -67.5 119t-92.5 81q-97 60 -203 60q-124 0 -202 -47q-45 -25 -70.5 -67.5t-25.5 -88.5q0 -57 40 -100q45 -48 190 -90l271 -79q180 -51 279 -145q137 -131 137 -311q0 -99 -52 -193.5t-138 -152.5q-143 -100 -410 -100q-330 0 -499 209
q-91 117 -132 292l243 66q25 -134 83 -202q48 -70 133.5 -104.5t180.5 -34.5q71 0 143 18.5t117 52.5q77 57 77 155q0 78 -58 130q-61 56 -160 84l-283 83q-194 56 -290 141q-61 54 -92.5 131t-31.5 157q0 116 67 214t170 146q130 62 315 62q189 -4 320 -77
q95 -52 167.5 -140t116.5 -203z" />
    <glyph glyph-name="uni0406" unicode="&#x406;" horiz-adv-x="539" 
d="M149 1536h241v-1536h-241v1536z" />
    <glyph glyph-name="uni0407" unicode="&#x407;" horiz-adv-x="539" 
d="M-62 2016h224v-224h-224v224zM373 2016h224v-224h-224v224zM149 1536h241v-1536h-241v1536z" />
    <glyph glyph-name="uni0408" unicode="&#x408;" horiz-adv-x="1056" 
d="M883 1536h-245v-1039q0 -91 -3 -125.5t-18 -68.5q-23 -50 -73.5 -79.5t-104.5 -29.5q-65 0 -119 41q-66 49 -83 126l-237 -58q25 -87 78.5 -159t130.5 -116q95 -60 230 -60q262 0 387 213q40 74 48.5 132t8.5 184v1039z" />
    <glyph glyph-name="uni0409" unicode="&#x409;" horiz-adv-x="2391" 
d="M2231 800q110 -142 107 -303q0 -177 -113 -309q-81 -113 -228 -162q-78 -26 -158 -26h-678v1310h-564l-102 -862q-14 -117 -45 -202t-84 -145.5t-134 -86t-189 -14.5v215q59 1 101 20t68 57.5t40.5 87.5t22.5 117l126 1039h998v-546h440q117 0 221.5 -51.5t170.5 -138.5z
M2095 497q3 85 -58 164q-37 48 -92.5 76.5t-107.5 28.5h-438v-538h438q50 0 101 24.5t87 63.5q67 73 70 181z" />
    <glyph glyph-name="uni040A" unicode="&#x40a;" horiz-adv-x="2391" 
d="M2231 800q110 -142 107 -303q-2 -83 -31.5 -164t-81.5 -145q-87 -115 -230 -162q-75 -26 -158 -26h-679v766h-746v-766h-241v1536h241v-546h746v546h241v-546h438q117 0 221 -51t173 -139zM2093 497q3 85 -58 164q-36 48 -91 76.5t-109 28.5h-436v-538h436
q50 0 101.5 24.5t85.5 63.5q68 74 71 181z" />
    <glyph glyph-name="uni040B" unicode="&#x40b;" horiz-adv-x="1431" 
d="M1231 815q115 -155 115 -437v-378h-243v329q0 116 -17.5 199.5t-67.5 145.5q-88 117 -259 117q-82 0 -151 -30t-113 -87q-53 -71 -75 -190q-8 -68 -8 -113v-371h-241v1323h-171v213h721v-213h-309v-450q71 72 172 111.5t210 39.5q128 0 246 -55.5t191 -153.5z" />
    <glyph glyph-name="uni040C" unicode="&#x40c;" horiz-adv-x="1425" 
d="M489 1675l556 204l-62 178l-558 -205zM693 704h-279v-704h-243v1536h243v-642h279l401 642h288l-477 -736l520 -800h-290z" />
    <glyph glyph-name="uni040D" unicode="&#x40d;" horiz-adv-x="1546" 
d="M1020 1675l64 177l-559 205l-62 -178zM1163 1536h213v-1536h-245v1094l-747 -1094h-213v1536h243v-1094z" />
    <glyph glyph-name="uni040E" unicode="&#x40e;" horiz-adv-x="1378" 
d="M821 1980h190q0 -131 -92.5 -223.5t-223.5 -92.5t-223 92.5t-92 223.5h190q0 -53 36.5 -89.5t88.5 -36.5q53 0 89.5 37t36.5 89zM1107 1536h250l-595 -1267q-49 -100 -96.5 -161t-115.5 -97q-36 -20 -88 -31.5t-91 -11.5q-80 0 -173 32l79 211q59 -21 94 -21q49 0 83 19
q65 38 128 173l-539 1154h245l410 -905z" />
    <glyph glyph-name="uni040F" unicode="&#x40f;" horiz-adv-x="1627" 
d="M1216 1536h241v-1536h-523v-256h-241v256h-522v1536h241v-1295h804v1295z" />
    <glyph glyph-name="uni0410" unicode="&#x410;" horiz-adv-x="1354" 
d="M1094 0l-85 262h-668l-83 -262h-247l492 1536h348l493 -1536h-250zM414 489h523l-263 810z" />
    <glyph glyph-name="uni0411" unicode="&#x411;" horiz-adv-x="1403" 
d="M1244 800q109 -140 106 -303q-2 -83 -31.5 -164t-81.5 -145q-87 -115 -230 -162q-75 -26 -158 -26h-678v1536h1013v-239h-772v-307h437q117 0 222 -51t173 -139zM1105 497q3 85 -58 164q-36 48 -91 76.5t-109 28.5h-435v-538h435q50 0 102 24.5t86 63.5q67 73 70 181z
" />
    <glyph glyph-name="uni0412" unicode="&#x412;" horiz-adv-x="1361" 
d="M1193 730q89 -117 89 -276q-3 -153 -94 -273q-92 -114 -234 -158q-78 -23 -173 -23h-610v1536h578q99 0 156 -19q136 -37 213 -147q85 -100 92 -252q6 -138 -88 -252q-8 -12 -28 -36q59 -46 99 -100zM774 1312h-360v-395h382q85 18 128 79q43 52 40 122q0 74 -51 128
q-25 31 -63 48.5t-76 17.5zM969 294q67 61 70 160q0 89 -58 158q-68 79 -170 79h-397v-463h365q65 0 109.5 13.5t80.5 52.5z" />
    <glyph glyph-name="uni0413" unicode="&#x413;" horiz-adv-x="1179" 
d="M1158 1536v-239h-746v-1297h-241v1536h987z" />
    <glyph glyph-name="uni0414" unicode="&#x414;" horiz-adv-x="1642" 
d="M1429 228h107v-416h-226v188h-1013v-188h-224v416q190 0 238 403l105 905h1013v-1308zM1203 228v1082h-584l-84 -704q-15 -137 -43 -229t-80 -149h791z" />
    <glyph glyph-name="uni0415" unicode="&#x415;" horiz-adv-x="1280" 
d="M1152 1297h-740v-410h612v-238h-612v-408h740v-241h-981v1536h981v-239z" />
    <glyph glyph-name="uni0416" unicode="&#x416;" horiz-adv-x="2126" 
d="M11 0l520 800l-478 736h288l401 -642h201v642h243v-642h199l401 642h288l-478 -736l520 -800h-290l-441 704h-199v-704h-243v704h-201l-441 -704h-290z" />
    <glyph glyph-name="uni0417" unicode="&#x417;" horiz-adv-x="1299" 
d="M126 1195q11 97 63.5 173.5t134.5 124.5q125 75 322 75q202 0 325 -75q97 -58 149.5 -150t52.5 -204q0 -140 -83 -237q-20 -32 -70 -76q66 -47 115 -124q79 -108 79 -252q0 -120 -52 -221.5t-149 -164.5q-143 -96 -367 -96q-220 0 -364 96q-83 55 -134.5 139t-62.5 183
l250 43q7 -113 90 -171q90 -67 221 -64q141 3 222 64q92 62 92 192q0 131 -92 190q-85 64 -222 64h-102v230h102q123 4 192 52q81 52 81 153q0 102 -81 154q-74 49 -192 49q-116 0 -192 -49q-73 -48 -76 -141z" />
    <glyph glyph-name="uni0418" unicode="&#x418;" horiz-adv-x="1546" 
d="M1163 1536h213v-1536h-245v1094l-747 -1094h-213v1536h243v-1094z" />
    <glyph glyph-name="uni0419" unicode="&#x419;" horiz-adv-x="1546" 
d="M932 1980h190q0 -131 -92.5 -223.5t-223.5 -92.5t-223 92.5t-92 223.5h190q0 -53 36.5 -89.5t88.5 -36.5t89 37t37 89zM1163 1536h213v-1536h-245v1094l-747 -1094h-213v1536h243v-1094z" />
    <glyph glyph-name="uni041A" unicode="&#x41a;" horiz-adv-x="1425" 
d="M693 704h-279v-704h-243v1536h243v-642h279l401 642h288l-477 -736l520 -800h-290z" />
    <glyph glyph-name="uni041B" unicode="&#x41b;" horiz-adv-x="1570" 
d="M1399 1536v-1536h-238v1310h-564l-102 -862q-14 -117 -45 -202t-84 -145.5t-134 -86t-189 -14.5v215q59 1 101 20t68 57.5t40.5 87.5t22.5 117l126 1039h998z" />
    <glyph glyph-name="uni041C" unicode="&#x41c;" horiz-adv-x="1896" 
d="M1726 1536v-1536h-243v1018l-482 -1018h-103l-484 1018v-1018h-243v1536h243l535 -1122l534 1122h243z" />
    <glyph glyph-name="uni041D" unicode="&#x41d;" horiz-adv-x="1570" 
d="M1158 1536h241v-1536h-241v538h-746v-538h-241v1536h241v-759h746v759z" />
    <glyph glyph-name="uni041E" unicode="&#x41e;" horiz-adv-x="1632" 
d="M817 -32q-169 0 -315 64t-242 186q-175 217 -175 550q0 336 175 553q95 122 241 184.5t316 62.5q168 -2 313 -64.5t242 -182.5q168 -207 175 -553q-3 -337 -175 -550q-98 -123 -243.5 -186.5t-311.5 -63.5zM817 196q110 -2 206.5 41.5t156.5 125.5q113 148 113 405
q0 260 -113 405q-60 82 -156.5 125.5t-206.5 41.5q-110 2 -208 -41.5t-157 -125.5q-109 -137 -113 -405q0 -261 113 -405q59 -82 157 -125.5t208 -41.5z" />
    <glyph glyph-name="uni041F" unicode="&#x41f;" horiz-adv-x="1627" 
d="M1457 1536v-1536h-241v1297h-804v-1297h-241v1536h1286z" />
    <glyph glyph-name="uni0420" unicode="&#x420;" horiz-adv-x="1403" 
d="M1350 1041q1 -80 -27 -159.5t-79 -143.5q-68 -89 -173 -140.5t-222 -51.5h-437v-546h-241v1536h678q83 0 158 -26q143 -47 230 -162q110 -133 113 -307zM1047 875q61 79 58 166q-3 109 -70 179q-35 39 -86.5 64.5t-101.5 25.5h-435v-538h435q53 0 108.5 28t91.5 75z" />
    <glyph glyph-name="uni0421" unicode="&#x421;" horiz-adv-x="1597" 
d="M1261 521l237 -69q-40 -129 -124 -234q-100 -123 -246 -186.5t-311 -63.5q-168 0 -314 65t-241 185q-177 218 -177 550q3 341 177 553q97 122 242 184.5t313 62.5t314 -63t243 -184q90 -112 139 -278l-248 -42q-27 103 -81 172q-62 82 -159.5 125.5t-207.5 43.5t-207 -44
t-156 -125q-113 -142 -113 -405q0 -261 113 -405q60 -82 156.5 -125.5t206.5 -41.5q109 -2 206.5 41.5t160.5 125.5q52 71 77 158z" />
    <glyph glyph-name="uni0422" unicode="&#x422;" horiz-adv-x="1290" 
d="M1269 1536v-239h-503v-1297h-241v1297h-504v239h1248z" />
    <glyph glyph-name="uni0423" unicode="&#x423;" horiz-adv-x="1378" 
d="M1107 1536h250l-595 -1267q-49 -100 -96.5 -161t-115.5 -97q-36 -20 -88 -31.5t-91 -11.5q-80 0 -173 32l79 211q59 -21 94 -21q49 0 83 19q65 38 128 173l-539 1154h245l410 -905z" />
    <glyph glyph-name="uni0424" unicode="&#x424;" horiz-adv-x="1649" 
d="M1323 1301q119 -83 181 -211t60 -277q2 -150 -59.5 -275t-181.5 -209q-165 -109 -380 -131v-198h-239v198q-222 22 -375 131q-118 82 -182 208.5t-62 275.5q-2 148 59.5 275.5t179.5 212.5q158 108 380 133v102h239v-102q216 -22 380 -133zM1182 533q128 92 128 280
q0 185 -130 277q-86 65 -237 90v-738q147 21 239 91zM465 533q89 -66 239 -91v738q-149 -25 -235 -90q-130 -90 -130 -277q0 -184 126 -280z" />
    <glyph glyph-name="uni0425" unicode="&#x425;" horiz-adv-x="1390" 
d="M834 777l546 -777h-296l-389 576l-388 -576h-296l548 777l-536 759h295l377 -559l378 559h294z" />
    <glyph glyph-name="uni0426" unicode="&#x426;" horiz-adv-x="1732" 
d="M1457 241h190v-429h-241v188h-1235v1536h241v-1295h804v1295h241v-1295z" />
    <glyph glyph-name="uni0427" unicode="&#x427;" horiz-adv-x="1431" 
d="M1020 1536h241v-1536h-241v663q-71 -73 -171.5 -112t-210.5 -39q-128 0 -245 55.5t-190 153.5q-118 156 -118 437v378h244v-326q0 -118 17.5 -202t67.5 -146q93 -117 258 -117q82 0 152 30t113 87q52 73 74 190q9 51 9 113v371z" />
    <glyph glyph-name="uni0428" unicode="&#x428;" horiz-adv-x="2005" 
d="M1596 1536h239v-1536h-1664v1536h241v-1295h471v1295h239v-1295h474v1295z" />
    <glyph glyph-name="uni0429" unicode="&#x429;" horiz-adv-x="2109" 
d="M1835 241h190v-429h-239v188h-1615v1536h241v-1295h471v1295h239v-1295h474v1295h239v-1295z" />
    <glyph glyph-name="uni042A" unicode="&#x42a;" horiz-adv-x="1373" 
d="M1280 800q110 -142 107 -303q0 -177 -113 -309q-80 -112 -229 -162q-78 -26 -158 -26h-678v1346h-230v190h469v-546h439q117 0 222 -51.5t171 -138.5zM1143 497q3 86 -57 164q-37 48 -93 76.5t-108 28.5h-437v-538h437q50 0 101 24.5t87 63.5q67 73 70 181z" />
    <glyph glyph-name="uni042B" unicode="&#x42b;" horiz-adv-x="1943" 
d="M849 990q117 0 222 -51t173 -139q109 -140 106 -303q-2 -83 -31.5 -164t-81.5 -145q-87 -115 -230 -162q-75 -26 -158 -26h-678v1536h241v-546h437zM1553 1536h241v-1536h-241v1536zM1105 497q3 85 -58 164q-36 48 -91 76.5t-109 28.5h-435v-538h435q50 0 102 24.5
t86 63.5q67 73 70 181z" />
    <glyph glyph-name="uni042C" unicode="&#x42c;" horiz-adv-x="1403" 
d="M1244 800q109 -140 106 -303q-2 -83 -31.5 -164t-81.5 -145q-87 -115 -230 -162q-75 -26 -158 -26h-678v1536h241v-546h437q117 0 222 -51t173 -139zM1105 497q3 85 -58 164q-36 48 -91 76.5t-109 28.5h-435v-538h435q50 0 102 24.5t86 63.5q67 73 70 181z" />
    <glyph glyph-name="uni042D" unicode="&#x42d;" horiz-adv-x="1597" 
d="M1335 1321q175 -214 178 -553q0 -330 -178 -550q-95 -120 -240.5 -185t-313.5 -65q-165 0 -311 63.5t-246 186.5q-84 105 -124 234l237 69q25 -87 77 -158q63 -82 160.5 -125.5t206.5 -41.5q109 -2 205.5 41.5t156.5 125.5q85 107 107 286h-546v238h546q-22 182 -107 286
q-59 82 -155.5 125.5t-206.5 43.5t-207.5 -43.5t-159.5 -125.5q-54 -69 -81 -172l-248 42q49 166 139 278q97 121 243 184t314 63t312.5 -62.5t241.5 -184.5z" />
    <glyph glyph-name="uni042E" unicode="&#x42e;" horiz-adv-x="2250" 
d="M1990 1321q168 -207 175 -553q-3 -337 -175 -550q-98 -124 -243 -187t-311 -63q-169 0 -315 64t-242 186q-142 180 -169 431h-298v-649h-241v1536h241v-649h298q27 258 169 434q95 122 241 184.5t316 62.5q168 -2 312.5 -64.5t241.5 -182.5zM1798 363q113 148 113 405
q0 260 -113 405q-60 82 -156.5 125.5t-205.5 41.5q-110 2 -208 -41.5t-157 -125.5q-109 -137 -113 -405q0 -261 113 -405q59 -82 157 -125.5t208 -41.5q109 -2 205.5 41.5t156.5 125.5z" />
    <glyph glyph-name="uni042F" unicode="&#x42f;" horiz-adv-x="1376" 
d="M1203 1536v-1536h-239v546h-401l-264 -546h-273l288 593q-108 47 -182 145q-51 64 -79 143.5t-27 159.5q0 175 113 307q81 113 228 162q78 26 158 26h678zM964 772v538h-437q-50 0 -101 -25t-87 -65q-67 -70 -70 -179q-3 -88 57 -166q38 -47 93.5 -75t107.5 -28h437z" />
    <glyph glyph-name="uni0430" unicode="&#x430;" horiz-adv-x="1248" 
d="M346 834l-220 105q4 5 13 19t15 21q147 203 439 203q164 0 286 -59t188 -180q53 -102 53 -220v-723h-211v211q-21 -52 -69 -98.5t-100 -74.5q-124 -71 -279 -68q-86 1 -167 40.5t-128 100.5q-43 62 -62 112.5t-19 115.5q0 91 49 172t131 129q31 17 63.5 29.5t57.5 20.5
t65.5 16t62.5 11.5t75 11t79 11.5l207 30q-18 88 -90 137q-76 54 -196 51q-146 0 -218 -90q-19 -24 -25 -34zM881 574q-23 -3 -241 -43q-52 -9 -77 -14t-69.5 -15.5t-68 -22.5t-50 -29.5t-38.5 -41.5t-13 -54q-2 -65 49 -114t130 -50q110 -2 212.5 54.5t137.5 158.5
q28 66 28 171z" />
    <glyph glyph-name="uni0431" unicode="&#x431;" horiz-adv-x="1271" 
d="M661 1082q116 2 220 -42.5t173 -130.5q65 -77 97.5 -178.5t34.5 -209.5q3 -111 -36 -214.5t-113 -182.5q-79 -80 -185.5 -119.5t-224.5 -36.5q-114 0 -221 45.5t-180 129.5q-126 148 -136 392q-9 268 17 448q45 297 243 434q94 69 215 94t273 25q121 0 254 -23v-222
q-138 18 -254 21q-254 8 -360 -68q-114 -81 -139 -297q64 63 147.5 98.5t174.5 36.5zM638 868q-146 0 -224 -94q-71 -80 -71 -236q0 -155 71 -239q78 -94 224 -94q147 0 222 94q72 82 72 236q0 157 -72 239q-75 94 -222 94z" />
    <glyph glyph-name="uni0432" unicode="&#x432;" horiz-adv-x="1241" 
d="M149 1150l570 2q164 0 258 -83q120 -100 120 -254q0 -93 -45 -166q-4 -5 -11.5 -14.5t-14 -17t-13.5 -13.5q63 -49 90 -98q53 -76 53 -171q0 -74 -32.5 -143t-90.5 -115q-43 -35 -102.5 -56t-111.5 -21h-670v1150zM393 960v-290h326q71 0 109 53q28 42 25 92q0 53 -25 92
q-39 53 -109 53h-326zM393 480v-290h381q69 0 109 49q30 43 30 96t-30 96q-23 28 -49.5 38.5t-67.5 10.5h-373z" />
    <glyph glyph-name="uni0433" unicode="&#x433;" horiz-adv-x="1019" 
d="M966 1152v-239h-576v-913h-241v1152h817z" />
    <glyph glyph-name="uni0434" unicode="&#x434;" horiz-adv-x="1350" 
d="M1139 1152v-924h98v-373h-226v145h-740v-145h-228v373q84 0 145 91.5t85 297.5l62 535h804zM911 228v711h-378l-40 -350q-31 -262 -113 -361h531z" />
    <glyph glyph-name="uni0435" unicode="&#x435;" horiz-adv-x="1307" 
d="M343 510q16 -135 71 -205q41 -54 104.5 -82.5t136.5 -28.5q155 0 239 111q6 8 10.5 16t9.5 17t8 14l239 -102q-29 -53 -67 -96q-81 -94 -197 -142.5t-242 -43.5q-283 10 -433 190q-140 175 -137 418q7 259 137 418q77 93 190.5 141.5t242.5 48.5q130 0 242 -48t189 -142
q136 -166 136 -418q0 -24 -4 -66h-875zM655 958q-73 2 -136.5 -27t-104.5 -84q-43 -56 -62 -145h604q-19 89 -62 145q-84 114 -239 111z" />
    <glyph glyph-name="uni0436" unicode="&#x436;" horiz-adv-x="1683" 
d="M1643 1152l-359 -574l378 -578h-269l-299 480h-145v-480h-215v480h-145l-297 -480h-271l378 578l-358 574h268l282 -482h143v482h215v-482h145l280 482h269z" />
    <glyph glyph-name="uni0437" unicode="&#x437;" horiz-adv-x="1186" 
d="M113 892q31 158 181 232q116 60 295 60q181 0 294 -60q178 -93 192 -296q0 -135 -83 -224q109 -83 109 -256q-3 -103 -57 -184t-142 -128q-124 -66 -313 -66q-195 0 -312 66q-148 73 -192 250l237 60q13 -66 75 -105q71 -45 192 -45q113 0 192 45q74 42 74 117
q0 107 -115 126q-52 15 -147 15h-111v190h111q90 0 137 15q58 15 80 42t22 71q0 62 -66 102q-71 39 -177 39q-111 0 -175 -39q-54 -33 -62 -85z" />
    <glyph glyph-name="uni0438" unicode="&#x438;" 
d="M1161 1152v-1152h-244v768l-554 -768h-214v1152h244v-751l556 751h212z" />
    <glyph glyph-name="uni0439" unicode="&#x439;" 
d="M809 1596h187q0 -131 -92 -223.5t-223 -92.5q-130 0 -222 92.5t-92 223.5h188q0 -52 37.5 -89t88.5 -37q53 0 90.5 37t37.5 89zM1161 1152v-1152h-244v768l-554 -768h-214v1152h244v-751l556 751h212z" />
    <glyph glyph-name="uni043A" unicode="&#x43a;" horiz-adv-x="1175" 
d="M1156 1152l-358 -574l377 -578h-270l-314 480h-198v-480h-244v1152h244v-482h196l298 482h269z" />
    <glyph glyph-name="uni043B" unicode="&#x43b;" horiz-adv-x="1273" 
d="M316 1152h808v-1152h-228v939h-382l-70 -549q-27 -217 -119 -316.5t-282 -73.5v215q32 0 57 5.5t42.5 13.5t30.5 25t21 32.5t14.5 43t10 49t7.5 58.5z" />
    <glyph glyph-name="uni043C" unicode="&#x43c;" horiz-adv-x="1529" 
d="M1165 1152h213l2 -1152h-243v634l-303 -497h-139l-302 497v-634h-244v1152h216l399 -653z" />
    <glyph glyph-name="uni043D" unicode="&#x43d;" horiz-adv-x="1318" 
d="M930 1152h239v-1152h-239v484h-540v-484h-241v1152h241v-429h540v429z" />
    <glyph glyph-name="uni043E" unicode="&#x43e;" 
d="M655 -32q-129 0 -242.5 48.5t-190.5 141.5q-137 171 -137 418q0 250 137 418q75 92 189.5 141t243.5 49t243 -48.5t188 -141.5q139 -170 139 -418q0 -242 -139 -418q-77 -94 -188.5 -142t-242.5 -48zM896 305q75 100 75 271q0 173 -75 273q-40 53 -103.5 81t-137.5 28
q-75 0 -138.5 -28t-102.5 -81q-75 -100 -75 -273q0 -171 75 -271q39 -54 102.5 -82.5t138.5 -28.5q73 0 136.5 28.5t104.5 82.5z" />
    <glyph glyph-name="uni043F" unicode="&#x43f;" horiz-adv-x="1318" 
d="M1169 1152v-1152h-239v913h-540v-913h-241v1152h1020z" />
    <glyph glyph-name="uni0440" unicode="&#x440;" horiz-adv-x="1333" 
d="M1118 1001q130 -166 130 -425q0 -261 -130 -422q-72 -89 -176.5 -137.5t-222.5 -48.5q-196 0 -329 107v-587h-241v1664h214v-98q70 61 161 95.5t189 34.5q120 0 227 -47.5t178 -135.5zM926 301q68 94 68 275q0 180 -70 277q-79 116 -248 116q-148 0 -228 -99
q-85 -103 -85 -294q0 -193 85 -292q89 -101 237 -101q73 0 137 30t104 88z" />
    <glyph glyph-name="uni0441" unicode="&#x441;" horiz-adv-x="1222" 
d="M1148 896l-224 -98q-15 29 -30 49q-41 55 -104.5 84t-136.5 27q-73 2 -136.5 -27t-102.5 -84q-71 -95 -75 -271q4 -176 75 -271q39 -53 102 -81t137 -28t137.5 28t103.5 81q11 15 28 47l226 -98q-38 -64 -64 -94q-76 -93 -190.5 -143t-240.5 -47q-126 -3 -239.5 46
t-191.5 144q-137 167 -137 416q0 248 137 418q79 95 191.5 142.5t239.5 47.5q129 0 241 -48.5t190 -141.5q39 -48 64 -98z" />
    <glyph glyph-name="uni0442" unicode="&#x442;" horiz-adv-x="1126" 
d="M1073 1152v-213h-390v-939h-239v939h-391v213h1020z" />
    <glyph glyph-name="uni0443" unicode="&#x443;" horiz-adv-x="1203" 
d="M943 1152h239l-506 -1335q-71 -193 -173 -265q-50 -40 -107 -52t-140 -12h-21v230l34 -4q75 -8 113 17q52 33 126 235l-465 1186h243l333 -879z" />
    <glyph glyph-name="uni0444" unicode="&#x444;" horiz-adv-x="1542" 
d="M1237 1047q211 -170 220 -471q-6 -301 -220 -474q-131 -107 -358 -132v-450h-216v450q-220 22 -360 132q-103 85 -160 207t-58 267q2 141 57 262.5t161 208.5q136 111 360 133v339h216v-339q224 -26 358 -133zM465 275q69 -55 198 -77v753q-129 -19 -198 -76
q-134 -102 -134 -299q0 -194 134 -301zM1077 275q132 108 135 301q-2 92 -35.5 171t-99.5 128q-71 58 -198 76v-750q127 19 198 74z" />
    <glyph glyph-name="uni0445" unicode="&#x445;" horiz-adv-x="1156" 
d="M1124 1152l-418 -567l429 -585h-277l-280 399l-279 -399h-278l429 585l-420 567h275l273 -384l273 384h273z" />
    <glyph glyph-name="uni0446" unicode="&#x446;" horiz-adv-x="1444" 
d="M1169 241h190v-429h-239v188h-971v1152h241v-911h540v911h239v-911z" />
    <glyph glyph-name="uni0447" unicode="&#x447;" horiz-adv-x="1280" 
d="M890 1152h241v-1152h-241v361q-123 -98 -295 -105q-92 -3 -182 27.5t-159 87.5q-102 86 -135.5 202.5t-33.5 292.5v286h244v-286q0 -110 21 -188t77 -125q73 -64 198 -64q98 7 158 57q74 57 94 167q13 60 13 221v3v215z" />
    <glyph glyph-name="uni0448" unicode="&#x448;" horiz-adv-x="1604" 
d="M149 0v1152h216v-911h330v911h216v-911h331v911h213v-1152h-1306z" />
    <glyph glyph-name="uni0449" unicode="&#x449;" horiz-adv-x="1730" 
d="M1455 241h190v-429h-239v188h-1257v1152h216v-911h330v911h216v-911h331v911h213v-911z" />
    <glyph glyph-name="uni044A" unicode="&#x44a;" horiz-adv-x="1158" 
d="M962 655q53 -51 82 -124.5t29 -150.5t-29 -150.5t-82 -124.5t-125 -78t-146 -27h-542v962h-166v190h410v-393h298q167 0 271 -104zM785 275q43 43 43 105q0 58 -41 102q-46 49 -106 49h-288v-305h288q64 3 104 49z" />
    <glyph glyph-name="uni044B" unicode="&#x44b;" horiz-adv-x="1553" 
d="M149 1152h244v-393h266q167 0 271 -104q53 -51 82 -124.5t29 -150.5t-29 -150.5t-82 -124.5t-125 -78t-146 -27h-510v1152zM1165 1152h239v-1152h-239v1152zM393 531v-305h256q64 3 104 49q43 43 43 105q0 58 -41 102q-46 49 -106 49h-256z" />
    <glyph glyph-name="uni044C" unicode="&#x44c;" horiz-adv-x="1158" 
d="M149 1152h244v-393h298q167 0 271 -104q53 -51 82 -124.5t29 -150.5t-29 -150.5t-82 -124.5t-125 -78t-146 -27h-542v1152zM393 531v-305h288q64 3 104 49q43 43 43 105q0 58 -41 102q-46 49 -106 49h-288z" />
    <glyph glyph-name="uni044D" unicode="&#x44d;" horiz-adv-x="1222" 
d="M1001 994q136 -169 136 -418q0 -250 -136 -416q-78 -95 -191.5 -144t-239.5 -46q-126 -3 -240.5 47t-190.5 143q-26 30 -64 94l226 98q17 -32 28 -47q40 -53 103.5 -81t137.5 -28t137 28t102 81q49 63 68 177h-408v190h406q-15 105 -66 175q-39 55 -102.5 84t-136.5 27
q-73 2 -136.5 -27t-104.5 -84q-15 -20 -30 -49l-224 98q25 50 64 98q78 93 190 141.5t241 48.5q127 0 239.5 -47.5t191.5 -142.5z" />
    <glyph glyph-name="uni044E" unicode="&#x44e;" horiz-adv-x="1787" 
d="M1564 994q138 -165 138 -418q0 -243 -138 -418q-77 -94 -188.5 -142t-242.5 -48q-129 0 -242.5 48.5t-190.5 141.5q-102 131 -128 299h-182v-457h-241v1152h241v-457h182q27 176 128 299q75 92 189.5 141t243.5 49q130 0 243 -48t188 -142zM1374 305q75 100 75 271
q0 173 -75 273q-39 53 -103 81t-138 28t-138 -28t-103 -81q-73 -97 -73 -273q0 -174 73 -271q39 -54 103 -82.5t138 -28.5t138 28.5t103 82.5z" />
    <glyph glyph-name="uni044F" unicode="&#x44f;" horiz-adv-x="1222" 
d="M467 1152h606v-1152h-243v393h-282l-190 -393h-273l209 429q-57 27 -98 68q-54 51 -82.5 125t-28.5 152q0 77 28.5 149.5t82.5 123.5q53 51 125 78t146 27zM830 621v305h-352q-63 0 -105 -49q-42 -42 -42 -103q0 -59 40 -102q45 -51 107 -51h352z" />
    <glyph glyph-name="uni0450" unicode="&#x450;" horiz-adv-x="1307" 
d="M1050 1468l-62 -177l-557 204l62 178zM343 510q16 -135 71 -205q41 -54 104.5 -82.5t136.5 -28.5q155 0 239 111q6 8 10.5 16t9.5 17t8 14l239 -102q-29 -53 -67 -96q-81 -94 -197 -142.5t-242 -43.5q-283 10 -433 190q-140 175 -137 418q7 259 137 418
q77 93 190.5 141.5t242.5 48.5q130 0 242 -48t189 -142q136 -166 136 -418q0 -24 -4 -66h-875zM655 958q-73 2 -136.5 -27t-104.5 -84q-43 -56 -62 -145h604q-19 89 -62 145q-84 114 -239 111z" />
    <glyph glyph-name="uni0451" unicode="&#x451;" horiz-adv-x="1307" 
d="M580 1632v-224h-224v224h224zM1015 1632v-224h-224v224h224zM343 510q16 -135 71 -205q41 -54 104.5 -82.5t136.5 -28.5q155 0 239 111q6 8 10.5 16t9.5 17t8 14l239 -102q-29 -53 -67 -96q-81 -94 -197 -142.5t-242 -43.5q-283 10 -433 190q-140 175 -137 418
q7 259 137 418q77 93 190.5 141.5t242.5 48.5q130 0 242 -48t189 -142q136 -166 136 -418q0 -24 -4 -66h-875zM655 958q-73 2 -136.5 -27t-104.5 -84q-43 -56 -62 -145h604q-19 89 -62 145q-84 114 -239 111z" />
    <glyph glyph-name="uni0452" unicode="&#x452;" horiz-adv-x="1301" 
d="M1028 1069q101 -88 135 -205.5t32 -291.5v-764q0 -116 -51 -188t-143 -89q-113 -20 -235 10v173q23 -2 37 -3t35.5 0t35.5 6t30 15.5t25 27.5t15.5 44t6.5 62v706q0 110 -21 188t-77 127q-71 65 -196 62q-91 -3 -160 -55q-71 -57 -92 -167q-15 -69 -15 -224v-503h-241
v1248h-119v190h119v98h214v-98h230v-190h-230v-194l6 6q131 115 318 122q90 5 181 -25.5t160 -87.5z" />
    <glyph glyph-name="uni0453" unicode="&#x453;" horiz-adv-x="1019" 
d="M271 1291l557 204l-62 178l-557 -205zM966 1152v-239h-576v-913h-241v1152h817z" />
    <glyph glyph-name="uni0454" unicode="&#x454;" horiz-adv-x="1222" 
d="M894 305q11 15 28 47l226 -98q-35 -58 -62 -94q-78 -94 -192.5 -143.5t-240.5 -46.5q-126 -3 -239.5 46t-191.5 144q-134 163 -137 416q3 252 137 418q79 95 191.5 142.5t239.5 47.5q129 0 242.5 -48.5t190.5 -141.5q43 -59 62 -98l-224 -98q-15 29 -30 49
q-39 55 -103 84t-138 27q-72 2 -136 -27t-103 -84q-51 -70 -66 -175h407v-190h-409q19 -114 68 -177q39 -53 102.5 -81t136.5 -28q74 0 138 28t103 81z" />
    <glyph glyph-name="uni0455" unicode="&#x455;" horiz-adv-x="1143" 
d="M1060 849l-234 -58q-13 40 -44 77t-69 56q-66 34 -143 34q-85 0 -145 -30q-58 -33 -58 -81q0 -31 17 -51q31 -35 132 -64q26 -8 58.5 -16.5t74.5 -20t66 -17.5q65 -20 87.5 -27.5t63.5 -28t75 -48.5q141 -114 128 -275q-7 -78 -48.5 -144t-109.5 -110q-118 -77 -320 -77
q-254 0 -395 151q-42 48 -78 124.5t-43 129.5l230 56q2 -38 19.5 -82.5t44.5 -71.5q72 -79 220 -79q132 0 190 45q38 29 47 79q0 47 -32 79q-37 34 -141 64q-33 9 -98 26t-94 25q-78 21 -130 44t-96 59q-55 42 -84 103t-29 123q0 98 56.5 177t145.5 119q111 49 250 45
q134 0 243 -58q84 -41 148 -114.5t95 -162.5z" />
    <glyph glyph-name="uni0456" unicode="&#x456;" horiz-adv-x="582" 
d="M171 1555h241v-226h-241v226zM171 1152h241v-1152h-241v1152z" />
    <glyph glyph-name="uni0457" unicode="&#x457;" horiz-adv-x="582" 
d="M-38 1632h224v-224h-224v224zM397 1632h224v-224h-224v224zM171 1152h241v-1152h-241v1152z" />
    <glyph glyph-name="uni0458" unicode="&#x458;" horiz-adv-x="618" 
d="M207 1532h241v-226h-241v226zM49 -299v-245q198 0 307 143q50 65 71 148.5t21 199.5v1205h-241v-1205q0 -81 -10.5 -127t-36.5 -74q-35 -45 -111 -45z" />
    <glyph glyph-name="uni0459" unicode="&#x459;" horiz-adv-x="1905" 
d="M1709 655q53 -51 82 -124.5t29 -150.5t-29 -150.5t-82 -124.5t-125 -78t-146 -27h-542v939h-382l-70 -549q-27 -217 -119 -316.5t-282 -73.5v215q32 0 57 5.5t42.5 13.5t30.5 25t21 32.5t14.5 43t10 49t7.5 58.5l90 710h823v-393h299q167 0 271 -104zM1532 275
q42 42 42 105q0 59 -40 102q-46 49 -107 49h-288v-305h288q65 3 105 49z" />
    <glyph glyph-name="uni045A" unicode="&#x45a;" horiz-adv-x="1930" 
d="M1734 655q53 -51 82 -124.5t29 -150.5t-29 -150.5t-82 -124.5t-125 -78t-146 -27h-541v531h-532v-531h-241v1152h241v-393h532v393h243v-393h298q167 0 271 -104zM1557 275q43 43 43 105q0 58 -41 102q-46 49 -106 49h-288v-305h288q64 3 104 49z" />
    <glyph glyph-name="uni045B" unicode="&#x45b;" horiz-adv-x="1301" 
d="M1028 1069q101 -88 135 -205.5t32 -291.5v-572h-244v572q0 110 -21 188t-77 127q-71 65 -196 62q-91 -3 -160 -55q-71 -57 -92 -167q-15 -69 -15 -224v-503h-241v1248h-119v190h119v98h214v-98h230v-190h-230v-194l6 6q131 115 318 122q90 5 181 -25.5t160 -87.5z" />
    <glyph glyph-name="uni045C" unicode="&#x45c;" horiz-adv-x="1175" 
d="M316 1291l557 204l-62 178l-559 -205zM1156 1152l-358 -574l377 -578h-270l-314 480h-198v-480h-244v1152h244v-482h196l298 482h269z" />
    <glyph glyph-name="uni045D" unicode="&#x45d;" 
d="M954 1291l64 177l-559 205l-62 -178zM1161 1152v-1152h-244v768l-554 -768h-214v1152h244v-751l556 751h212z" />
    <glyph glyph-name="uni045E" unicode="&#x45e;" horiz-adv-x="1203" 
d="M745 1596h189q0 -131 -92 -223.5t-223 -92.5t-223.5 92.5t-92.5 223.5h190q0 -52 36.5 -89t89.5 -37t89.5 37t36.5 89zM943 1152h239l-506 -1335q-71 -193 -173 -265q-50 -40 -107 -52t-140 -12h-21v230l34 -4q75 -8 113 17q52 33 126 235l-465 1186h243l333 -879z" />
    <glyph glyph-name="uni045F" unicode="&#x45f;" horiz-adv-x="1318" 
d="M930 1152h239v-1152h-390v-256h-239v256h-391v1152h241v-911h540v911z" />
    <glyph glyph-name="uni0490" unicode="&#x490;" horiz-adv-x="1179" 
d="M917 1724h241v-427h-746v-1297h-241v1536h746v188z" />
    <glyph glyph-name="uni0491" unicode="&#x491;" horiz-adv-x="1019" 
d="M725 1340h241v-427h-576v-913h-241v1152h576v188z" />
    <glyph glyph-name="uni04AE" unicode="&#x4ae;" horiz-adv-x="1284" 
d="M1005 1536h279l-520 -905v-631h-243v631l-521 905h279l363 -629z" />
    <glyph glyph-name="uni04AF" unicode="&#x4af;" horiz-adv-x="1132" 
d="M866 1152h241l-420 -1152v-384h-239v384h-2l-418 1152h241l298 -853z" />
    <glyph glyph-name="uni04BA" unicode="&#x4ba;" horiz-adv-x="1433" 
d="M412 0h-241v1536h241v-663q71 72 172 111.5t210 39.5q128 0 246 -55.5t191 -153.5q115 -155 115 -437v-378h-243v329q0 116 -17.5 199.5t-67.5 145.5q-88 117 -259 117q-82 0 -151 -30t-113 -87q-53 -71 -75 -190q-8 -68 -8 -113v-371z" />
    <glyph glyph-name="uni04BB" unicode="&#x4bb;" horiz-adv-x="1282" 
d="M1028 781q101 -86 135 -203.5t32 -291.5v-286h-244v286q0 110 -21 188t-77 125q-67 64 -196 64q-92 -3 -160 -57q-71 -54 -92 -164q-15 -69 -15 -227v-215h-241v1152h241v-363q124 100 297 107q91 3 182 -27t159 -88z" />
    <glyph glyph-name="uni04E8" unicode="&#x4e8;" horiz-adv-x="1632" 
d="M1372 1321q168 -207 175 -553q-3 -337 -175 -550q-98 -123 -243.5 -186.5t-311.5 -63.5q-169 0 -315 64t-242 186q-175 217 -175 550q0 336 175 553q95 122 241 184.5t316 62.5q168 -2 313 -64.5t242 -182.5zM817 1340q-110 2 -208 -41.5t-157 -125.5q-83 -103 -106 -286
h940q-22 179 -106 286q-60 82 -156.5 125.5t-206.5 41.5zM817 196q110 -2 206.5 41.5t156.5 125.5q84 110 106 286h-940q22 -180 106 -286q59 -82 157 -125.5t208 -41.5z" />
    <glyph glyph-name="uni04E9" unicode="&#x4e9;" 
d="M1086 994q139 -170 139 -418q0 -242 -139 -418q-77 -94 -188.5 -142t-242.5 -48q-129 0 -242.5 48.5t-190.5 141.5q-137 171 -137 418q0 250 137 418q75 92 189.5 141t243.5 49t243 -48.5t188 -141.5zM655 958q-75 0 -138.5 -28t-102.5 -81q-49 -63 -68 -177h618
q-19 114 -68 177q-40 53 -103.5 81t-137.5 28zM655 194q73 0 136.5 28.5t104.5 82.5q53 69 68 177h-618q15 -108 68 -177q39 -54 102.5 -82.5t138.5 -28.5z" />
    <glyph glyph-name="Wgrave" unicode="&#x1e80;" horiz-adv-x="2067" 
d="M1308 1675l62 177l-557 205l-62 -178zM1788 1536h254l-448 -1536h-239l-322 1105l-320 -1105h-239l-446 1536h251l314 -1120l314 1118l251 2l314 -1120z" />
    <glyph glyph-name="wgrave" unicode="&#x1e81;" horiz-adv-x="1657" 
d="M1086 1291l62 177l-557 205l-62 -178zM1399 1152h237l-352 -1152h-237l-219 766l-233 -766h-222l-352 1154l239 -2l233 -764l234 764h205l235 -764z" />
    <glyph glyph-name="Wacute" unicode="&#x1e82;" horiz-adv-x="2067" 
d="M747 1675l556 204l-61 178l-557 -205zM1788 1536h254l-448 -1536h-239l-322 1105l-320 -1105h-239l-446 1536h251l314 -1120l314 1118l251 2l314 -1120z" />
    <glyph glyph-name="wacute" unicode="&#x1e83;" horiz-adv-x="1657" 
d="M565 1291l555 204l-62 178l-557 -205zM1399 1152h237l-352 -1152h-237l-219 766l-233 -766h-222l-352 1154l239 -2l233 -764l234 764h205l235 -764z" />
    <glyph glyph-name="Wdieresis" unicode="&#x1e84;" horiz-adv-x="2067" 
d="M706 2016h224v-224h-224v224zM1141 2016h224v-224h-224v224zM1788 1536h254l-448 -1536h-239l-322 1105l-320 -1105h-239l-446 1536h251l314 -1120l314 1118l251 2l314 -1120z" />
    <glyph glyph-name="wdieresis" unicode="&#x1e85;" horiz-adv-x="1657" 
d="M495 1632h224v-224h-224v224zM930 1632h224v-224h-224v224zM1399 1152h237l-352 -1152h-237l-219 766l-233 -766h-222l-352 1154l239 -2l233 -764l234 764h205l235 -764z" />
    <glyph glyph-name="Ygrave" unicode="&#x1ef2;" horiz-adv-x="1284" 
d="M928 1675l62 177l-557 205l-62 -178zM1005 1536h279l-520 -905v-631h-243v631l-521 905h279l363 -629z" />
    <glyph glyph-name="ygrave" unicode="&#x1ef3;" horiz-adv-x="1203" 
d="M877 1291l64 177l-559 205l-62 -178zM943 1152h239l-506 -1335q-71 -193 -173 -265q-50 -40 -107 -52t-140 -12h-21v230l34 -4q75 -8 113 17q52 33 126 235l-465 1186h243l333 -879z" />
    <glyph glyph-name="endash" unicode="&#x2013;" horiz-adv-x="1152" 
d="M128 702h896v-192h-896v192z" />
    <glyph glyph-name="emdash" unicode="&#x2014;" horiz-adv-x="1664" 
d="M128 702h1408v-192h-1408v192z" />
    <glyph glyph-name="quoteleft" unicode="&#x2018;" horiz-adv-x="584" 
d="M143 1254v282h250v-265h-131q-9 -75 20 -119.5t96 -40.5l15 -104q-122 -21 -186 46t-64 201z" />
    <glyph glyph-name="quoteright" unicode="&#x2019;" horiz-adv-x="584" 
d="M442 1254q0 -135 -63 -201t-187 -46l15 104q68 -4 96 40t19 120h-130v265h250v-282z" />
    <glyph glyph-name="quotesinglbase" unicode="&#x201a;" horiz-adv-x="633" 
d="M378 -17q0 -135 -63 -201.5t-187 -46.5l15 107q68 -6 96 38t19 120h-130v267h250v-284z" />
    <glyph glyph-name="quotedblleft" unicode="&#x201c;" horiz-adv-x="1056" 
d="M292 1261v281h250v-266h-128q-10 -75 18 -119.5t97 -38.5l13 -105q-122 -21 -186 45.5t-64 202.5zM636 1261v281h249v-266h-130q-9 -75 19.5 -119.5t95.5 -38.5l15 -105q-122 -21 -185.5 45.5t-63.5 202.5z" />
    <glyph glyph-name="quotedblright" unicode="&#x201d;" horiz-adv-x="1056" 
d="M420 1261q0 -136 -62.5 -202.5t-186.5 -45.5l15 105q68 -6 96 38t19 120h-130v266h249v-281zM764 1261q0 -136 -64 -202.5t-186 -45.5l15 105q67 -6 95.5 38.5t19.5 119.5h-130v266h250v-281z" />
    <glyph glyph-name="quotedblbase" unicode="&#x201e;" horiz-adv-x="1152" 
d="M420 243q0 -135 -62.5 -201t-186.5 -46l15 104q69 -4 96.5 39.5t18.5 118.5h-130v267h249v-282zM764 243q0 -134 -64 -201t-186 -46l15 104q67 -4 95.5 39.5t19.5 118.5h-130v267h250v-282z" />
    <glyph glyph-name="bullet" unicode="&#x2022;" horiz-adv-x="1482" 
d="M747 284q-125 0 -212 84t-87 208q0 126 86.5 210t212.5 84q120 0 204 -84.5t84 -209.5q0 -124 -84.5 -208t-203.5 -84z" />
    <glyph glyph-name="ellipsis" unicode="&#x2026;" horiz-adv-x="1486" 
d="M171 250h249v-250h-249v250zM619 250h249v-250h-249v250zM1067 250h249v-250h-249v250z" />
    <glyph glyph-name="guilsinglleft" unicode="&#x2039;" horiz-adv-x="1352" 
d="M809 66l-510 510l510 510l117 -115l-395 -395l395 -393z" />
    <glyph glyph-name="guilsinglright" unicode="&#x203a;" horiz-adv-x="1352" 
d="M544 66l-115 117l392 393l-392 395l115 115l510 -510z" />
    <glyph glyph-name="fraction" unicode="&#x2044;" horiz-adv-x="1506" 
d="M160 15l-160 160l1346 1344l160 -160z" />
    <glyph glyph-name="Euro" unicode="&#x20ac;" horiz-adv-x="1465" 
d="M986 196q152 -3 268 77l126 -196q-172 -109 -394 -109q-168 0 -314 65t-241 185q-96 118 -141 277h-205v190h173q-4 56 -4 83q0 25 4 81h-173v190h205q45 165 141 282q95 122 240.5 184.5t314.5 62.5q225 0 394 -107l-128 -198q-115 79 -266 79q-110 0 -207 -43.5
t-158 -125.5q-48 -61 -73 -134h540v-190h-576q-4 -56 -4 -81q0 -27 4 -83h576v-190h-538q25 -69 71 -132q61 -82 158.5 -125.5t206.5 -41.5z" />
    <glyph glyph-name="uni20B4" unicode="&#x20b4;" horiz-adv-x="1418" 
d="M1178 1018h113v-190h-1161l-2 190h777l4 6q32 42 32 109q0 83 -56 136q-65 71 -168 71q-106 0 -182 -94q-40 -51 -46 -113h-254q13 143 102 254q64 87 164.5 134t215.5 47q97 0 185.5 -31.5t153.5 -90.5q63 -58 101 -143t38 -172q0 -57 -17 -113zM1291 710v-189h-785
q-49 -49 -49 -118q0 -95 70 -149q69 -58 188 -58q63 0 117.5 31t93.5 87q30 37 40 89h248q-13 -118 -83 -220q-67 -103 -180 -159t-247 -56q-79 0 -160 21t-139 56q-94 55 -147 152t-53 200q0 65 17 124h-94v189h1163z" />
    <glyph glyph-name="uni20BD" unicode="&#x20bd;" horiz-adv-x="1574" 
d="M1521 1041q1 -80 -27.5 -159.5t-79.5 -143.5q-68 -89 -172.5 -140.5t-221.5 -51.5h-438v-166h421v-190h-421v-190h-241v190h-170v190h170v166h-170v226h170v764h679q83 0 158 -26q143 -47 230 -162q110 -133 113 -307zM1218 875q61 79 58 166q-3 108 -71 179
q-35 39 -86 64.5t-101 25.5h-436v-538h436q53 0 108.5 28t91.5 75z" />
    <glyph glyph-name="uni2116" unicode="&#x2116;" horiz-adv-x="2406" 
d="M1916 800q-159 0 -271.5 112.5t-112.5 271.5q0 156 115 270t269 114q159 0 271.5 -112.5t112.5 -271.5t-112.5 -271.5t-271.5 -112.5zM384 1536l749 -1094v1094h243v-1536h-213l-747 1094v-1094h-245v1536h213zM1916 983q82 0 141 59t59 142t-59 143t-141 60
q-83 0 -143 -60t-60 -143t60 -142t143 -59zM1596 702h640v-192h-640v192z" />
    <glyph glyph-name="trademark" unicode="&#x2122;" horiz-adv-x="1969" 
d="M128 1380v156h710v-156h-268v-644h-173v644h-269zM1839 1536l2 -800h-175v439l-205 -439h-98l-205 439v-439h-175v800h154l275 -542l273 542h154z" />
    <glyph glyph-name="arrowleft" unicode="&#x2190;" horiz-adv-x="2154" 
d="M1856 689v-190h-1233l301 -298l-115 -118l-512 510l512 510l115 -115l-299 -299h1231z" />
    <glyph glyph-name="arrowup" unicode="&#x2191;" horiz-adv-x="1533" 
d="M1278 1047l-117 -115l-299 297v-1229h-190v1231l-299 -299l-117 115l510 510z" />
    <glyph glyph-name="arrowright" unicode="&#x2192;" horiz-adv-x="2154" 
d="M1346 1103l512 -510l-512 -510l-115 118l301 298h-1233v190h1231l-299 299z" />
    <glyph glyph-name="arrowdown" unicode="&#x2193;" horiz-adv-x="1533" 
d="M1161 604l117 -115l-512 -510l-510 510l117 115l299 -299v1231h190v-1229z" />
    <glyph glyph-name="carriagereturn" unicode="&#x21b5;" horiz-adv-x="1742" 
d="M1423 1536h192v-1037h-992l301 -298l-115 -118l-512 510l512 510l115 -115l-299 -299h798v847z" />
    <glyph glyph-name="minus" unicode="&#x2212;" horiz-adv-x="1152" 
d="M128 702h896v-192h-896v192z" />
    <glyph glyph-name="notequal" unicode="&#x2260;" horiz-adv-x="1600" 
d="M1344 685h-341l-165 -218h506v-190h-649l-172 -228l-154 111l88 117h-201v190h346l162 218h-508v192h653l173 228l153 -113l-87 -115h196v-192z" />
    <glyph glyph-name="i.loclTRK" horiz-adv-x="582" 
d="M171 1555h241v-226h-241v226zM171 1152h241v-1152h-241v1152z" />
    <glyph glyph-name="uni0414.loclBGR" horiz-adv-x="1642" 
d="M1429 228h107v-416h-226v188h-1013v-188h-224v416q190 0 238 403l105 905h1013v-1308zM1203 228v1082h-584l-84 -704q-15 -137 -43 -229t-80 -149h791z" />
    <glyph glyph-name="uni0416.loclBGR" horiz-adv-x="2126" 
d="M11 0l520 800l-478 736h288l401 -642h201v642h243v-642h199l401 642h288l-478 -736l520 -800h-290l-441 704h-199v-704h-243v704h-201l-441 -704h-290z" />
    <glyph glyph-name="uni041A.loclBGR" horiz-adv-x="1425" 
d="M693 704h-279v-704h-243v1536h243v-642h279l401 642h288l-477 -736l520 -800h-290z" />
    <glyph glyph-name="uni041B.loclBGR" horiz-adv-x="1570" 
d="M1399 1536v-1536h-238v1310h-564l-102 -862q-14 -117 -45 -202t-84 -145.5t-134 -86t-189 -14.5v215q59 1 101 20t68 57.5t40.5 87.5t22.5 117l126 1039h998z" />
    <glyph glyph-name="uni0432.loclBGR" horiz-adv-x="1241" 
d="M149 1150l570 2q164 0 258 -83q120 -100 120 -254q0 -93 -45 -166q-4 -5 -11.5 -14.5t-14 -17t-13.5 -13.5q63 -49 90 -98q53 -76 53 -171q0 -74 -32.5 -143t-90.5 -115q-43 -35 -102.5 -56t-111.5 -21h-670v1150zM393 960v-290h326q71 0 109 53q28 42 25 92q0 53 -25 92
q-39 53 -109 53h-326zM393 480v-290h381q69 0 109 49q30 43 30 96t-30 96q-23 28 -49.5 38.5t-67.5 10.5h-373z" />
    <glyph glyph-name="uni0433.loclBGR" horiz-adv-x="1019" 
d="M966 1152v-239h-576v-913h-241v1152h817z" />
    <glyph glyph-name="uni0434.loclBGR" horiz-adv-x="1350" 
d="M1139 1152v-924h98v-373h-226v145h-740v-145h-228v373q84 0 145 91.5t85 297.5l62 535h804zM911 228v711h-378l-40 -350q-31 -262 -113 -361h531z" />
    <glyph glyph-name="uni0436.loclBGR" horiz-adv-x="1683" 
d="M1643 1152l-359 -574l378 -578h-269l-299 480h-145v-480h-215v480h-145l-297 -480h-271l378 578l-358 574h268l282 -482h143v482h215v-482h145l280 482h269z" />
    <glyph glyph-name="uni0437.loclBGR" horiz-adv-x="1186" 
d="M113 892q31 158 181 232q116 60 295 60q181 0 294 -60q178 -93 192 -296q0 -135 -83 -224q109 -83 109 -256q-3 -103 -57 -184t-142 -128q-124 -66 -313 -66q-195 0 -312 66q-148 73 -192 250l237 60q13 -66 75 -105q71 -45 192 -45q113 0 192 45q74 42 74 117
q0 107 -115 126q-52 15 -147 15h-111v190h111q90 0 137 15q58 15 80 42t22 71q0 62 -66 102q-71 39 -177 39q-111 0 -175 -39q-54 -33 -62 -85z" />
    <glyph glyph-name="uni0438.loclBGR" 
d="M1161 1152v-1152h-244v768l-554 -768h-214v1152h244v-751l556 751h212z" />
    <glyph glyph-name="uni0439.loclBGR" 
d="M809 1596h187q0 -131 -92 -223.5t-223 -92.5q-130 0 -222 92.5t-92 223.5h188q0 -52 37.5 -89t88.5 -37q53 0 90.5 37t37.5 89zM1161 1152v-1152h-244v768l-554 -768h-214v1152h244v-751l556 751h212z" />
    <glyph glyph-name="uni043A.loclBGR" horiz-adv-x="1175" 
d="M1156 1152l-358 -574l377 -578h-270l-314 480h-198v-480h-244v1152h244v-482h196l298 482h269z" />
    <glyph glyph-name="uni043B.loclBGR" horiz-adv-x="1273" 
d="M316 1152h808v-1152h-228v939h-382l-70 -549q-27 -217 -119 -316.5t-282 -73.5v215q32 0 57 5.5t42.5 13.5t30.5 25t21 32.5t14.5 43t10 49t7.5 58.5z" />
    <glyph glyph-name="uni043D.loclBGR" horiz-adv-x="1318" 
d="M930 1152h239v-1152h-239v484h-540v-484h-241v1152h241v-429h540v429z" />
    <glyph glyph-name="uni043F.loclBGR" horiz-adv-x="1318" 
d="M1169 1152v-1152h-239v913h-540v-913h-241v1152h1020z" />
    <glyph glyph-name="uni0442.loclBGR" horiz-adv-x="1126" 
d="M1073 1152v-213h-390v-939h-239v939h-391v213h1020z" />
    <glyph glyph-name="uni0447.loclBGR" horiz-adv-x="1280" 
d="M890 1152h241v-1152h-241v361q-123 -98 -295 -105q-92 -3 -182 27.5t-159 87.5q-102 86 -135.5 202.5t-33.5 292.5v286h244v-286q0 -110 21 -188t77 -125q73 -64 198 -64q98 7 158 57q74 57 94 167q13 60 13 221v3v215z" />
    <glyph glyph-name="uni0446.loclBGR" horiz-adv-x="1444" 
d="M1169 241h190v-429h-239v188h-971v1152h241v-911h540v911h239v-911z" />
    <glyph glyph-name="uni0448.loclBGR" horiz-adv-x="1604" 
d="M149 0v1152h216v-911h330v911h216v-911h331v911h213v-1152h-1306z" />
    <glyph glyph-name="uni0449.loclBGR" horiz-adv-x="1730" 
d="M1455 241h190v-429h-239v188h-1257v1152h216v-911h330v911h216v-911h331v911h213v-911z" />
    <glyph glyph-name="uni044C.loclBGR" horiz-adv-x="1158" 
d="M149 1152h244v-393h298q167 0 271 -104q53 -51 82 -124.5t29 -150.5t-29 -150.5t-82 -124.5t-125 -78t-146 -27h-542v1152zM393 531v-305h288q64 3 104 49q43 43 43 105q0 58 -41 102q-46 49 -106 49h-288z" />
    <glyph glyph-name="uni044E.loclBGR" horiz-adv-x="1787" 
d="M1564 994q138 -165 138 -418q0 -243 -138 -418q-77 -94 -188.5 -142t-242.5 -48q-129 0 -242.5 48.5t-190.5 141.5q-102 131 -128 299h-182v-457h-241v1152h241v-457h182q27 176 128 299q75 92 189.5 141t243.5 49q130 0 243 -48t188 -142zM1374 305q75 100 75 271
q0 173 -75 273q-39 53 -103 81t-138 28t-138 -28t-103 -81q-73 -97 -73 -273q0 -174 73 -271q39 -54 103 -82.5t138 -28.5t138 28.5t103 82.5z" />
    <glyph glyph-name="uni0431.loclSRB" horiz-adv-x="1271" 
d="M661 1082q116 2 220 -42.5t173 -130.5q65 -77 97.5 -178.5t34.5 -209.5q3 -111 -36 -214.5t-113 -182.5q-79 -80 -185.5 -119.5t-224.5 -36.5q-114 0 -221 45.5t-180 129.5q-126 148 -136 392q-9 268 17 448q45 297 243 434q94 69 215 94t273 25q121 0 254 -23v-222
q-138 18 -254 21q-254 8 -360 -68q-114 -81 -139 -297q64 63 147.5 98.5t174.5 36.5zM638 868q-146 0 -224 -94q-71 -80 -71 -236q0 -155 71 -239q78 -94 224 -94q147 0 222 94q72 82 72 236q0 157 -72 239q-75 94 -222 94z" />
    <glyph glyph-name="exclamdown.case" horiz-adv-x="753" 
d="M256 1310v226h241v-226h-241zM256 0v1152h241v-1152h-241z" />
    <glyph glyph-name="questiondown.case" horiz-adv-x="1171" 
d="M736 1536v-271h-252v271h252zM107 395q0 186 160 356q23 25 90 85.5t89 95.5q26 46 32 80.5t6 107.5h254q0 -166 -60 -271q-26 -51 -62 -87t-90 -79.5t-93 -85.5q-41 -44 -56.5 -90t-15.5 -106q0 -85 38 -128q60 -77 186 -77q107 0 164 51q65 55 62 152h251
q-10 -105 -55 -193t-120 -142q-123 -94 -294 -94q-257 0 -388 152q-98 115 -98 273z" />
    <glyph glyph-name="periodcentered.case" horiz-adv-x="1322" 
d="M666 619q-64 0 -109 43t-45 106t45 106t109 43q60 0 102.5 -43t42.5 -106t-42.5 -106t-102.5 -43z" />
    <glyph glyph-name="parenleft.case" horiz-adv-x="855" 
d="M465 -145l198 113q-179 314 -179 800q0 489 179 800l-198 113q-209 -365 -209 -913t209 -913z" />
    <glyph glyph-name="parenright.case" horiz-adv-x="855" 
d="M390 -145q209 365 209 913t-209 913l-198 -113q179 -311 179 -800q0 -486 -179 -800z" />
    <glyph glyph-name="braceleft.case" horiz-adv-x="1009" 
d="M817 -258v226h-126q-34 0 -57.5 23.5t-23.5 55.5v480q0 97 -55 175l-47 66l47 66q55 81 55 175v480q0 32 23.5 55.5t57.5 23.5h126v228h-126q-128 0 -217.5 -90t-89.5 -217v-480q0 -20 -15 -45l-94 -132q-19 -28 -19 -64t19 -64l94 -132q15 -22 15 -45v-480
q0 -127 89.5 -216t217.5 -89h126z" />
    <glyph glyph-name="braceright.case" horiz-adv-x="1009" 
d="M192 -258h126q128 0 217.5 89t89.5 216v480q0 23 15 45l94 132q20 28 20 64t-20 64l-94 132q-15 25 -15 45v480q0 127 -89.5 217t-217.5 90h-126v-228h126q34 0 57.5 -23.5t23.5 -55.5v-480q0 -94 55 -175l49 -66l-49 -66q-55 -78 -55 -175v-480q0 -32 -23.5 -55.5
t-57.5 -23.5h-126v-226z" />
    <glyph glyph-name="bracketleft.case" horiz-adv-x="838" 
d="M710 1664h-239v-1792h239v-215h-454v2222h454v-215z" />
    <glyph glyph-name="bracketright.case" horiz-adv-x="840" 
d="M582 1879v-2222h-454v215h241v1792h-241v215h454z" />
    <glyph glyph-name="hyphen.case" horiz-adv-x="896" 
d="M128 864h640v-190h-640v190z" />
    <glyph glyph-name="endash.case" horiz-adv-x="1152" 
d="M128 864h896v-190h-896v190z" />
    <glyph glyph-name="emdash.case" horiz-adv-x="1664" 
d="M128 864h1408v-190h-1408v190z" />
    <glyph glyph-name="guillemotleft.case" horiz-adv-x="1233" 
d="M546 297l130 102l-294 369l294 369l-130 102l-375 -471zM969 297l130 102l-293 369l293 369l-130 102l-374 -471z" />
    <glyph glyph-name="guillemotright.case" horiz-adv-x="1233" 
d="M265 297l373 471l-373 471l-131 -102l295 -369l-295 -369zM689 297l373 471l-373 471l-130 -102l292 -369l-292 -369z" />
    <glyph glyph-name="guilsinglleft.case" horiz-adv-x="1352" 
d="M809 258l-510 510l510 510l117 -115l-395 -395l395 -393z" />
    <glyph glyph-name="guilsinglright.case" horiz-adv-x="1352" 
d="M544 258l-115 117l392 393l-392 395l115 115l510 -510z" />
    <glyph glyph-name="greater.case" horiz-adv-x="1352" 
d="M544 258l-115 117l392 393l-392 395l115 115l510 -510z" />
    <glyph glyph-name="less.case" horiz-adv-x="1352" 
d="M809 258l-510 510l510 510l117 -115l-395 -395l395 -393z" />
    <glyph glyph-name="arrowright.case" horiz-adv-x="2154" 
d="M1346 1278l512 -510l-512 -510l-115 115l299 299l-1231 2v190h1231l-299 297z" />
    <glyph glyph-name="arrowleft.case" horiz-adv-x="2154" 
d="M1856 864v-190l-1231 -2l299 -299l-115 -115l-512 510l512 510l115 -117l-299 -297h1231z" />
    <glyph glyph-name="at.case" horiz-adv-x="2052" 
d="M1028 1568q415 0 655.5 -241t240.5 -657q0 -94 -16 -171t-41 -127.5t-60 -88.5t-69 -58.5t-72.5 -32.5t-64.5 -15.5t-52 -3.5q-101 0 -186 49t-134 132q-83 -53 -201 -53q-168 0 -269.5 100.5t-101.5 268.5q0 167 101.5 269t269.5 102q166 0 267.5 -102t101.5 -269v-120
q0 -62 45 -106.5t107 -44.5q149 0 149 271q0 318 -176.5 495t-493.5 177q-68 0 -132 -8.5t-132.5 -30.5t-126.5 -55.5t-111 -86.5t-90 -121t-58.5 -163t-21.5 -207q0 -156 41.5 -276.5t107.5 -193t157 -119.5t179.5 -64t186.5 -17v-228q-419 0 -659.5 240t-240.5 658
t240.5 658t659.5 240zM1028 527q70 0 106.5 37.5t36.5 105.5q0 69 -36 106t-107 37q-143 0 -143 -143t143 -143z" />
    <glyph glyph-name="copyright.case" horiz-adv-x="1905" 
d="M951 -98q177 0 338 68.5t277 184.5t185 276.5t69 336.5q0 177 -69 337.5t-185 276t-277 184t-338 68.5q-176 0 -336.5 -68.5t-276.5 -184t-184.5 -276t-68.5 -337.5q0 -176 68.5 -336.5t184.5 -276.5t276.5 -184.5t336.5 -68.5zM951 128q-130 0 -248.5 50.5t-204.5 136.5
t-136.5 204.5t-50.5 248.5t50.5 248.5t136.5 204.5t204.5 136.5t248.5 50.5t248.5 -50.5t204.5 -136.5t136.5 -204.5t50.5 -248.5t-50.5 -248.5t-136.5 -204.5t-204.5 -136.5t-248.5 -50.5zM1321 1005l-171 -73q-9 19 -21 34q-28 39 -74.5 60t-98.5 21q-110 0 -173 -81
q-53 -71 -53 -196q0 -122 53 -194q28 -39 75 -60t98 -21q110 0 173 81q13 13 19 32l173 -75q-19 -33 -47 -68q-55 -69 -139 -105t-179 -36q-93 -2 -177.5 35.5t-140.5 105.5q-103 123 -100 305q0 188 100 307q119 141 318 141q95 0 179 -36.5t139 -104.5q34 -41 47 -72z" />
    </font>
</defs>
</svg>
