<?xml version="1.0" standalone="no"?>
<!DOCTYPE svg PUBLIC "-//W3C//DTD SVG 1.1//EN" "http://www.w3.org/Graphics/SVG/1.1/DTD/svg11.dtd" >
<svg xmlns="http://www.w3.org/2000/svg" xmlns:xlink="http://www.w3.org/1999/xlink" version="1.1">
<metadata>
Created by FontForge 20170731 at Thu Sep  2 19:54:33 2021
 By Aleksey,,,
Copyright 2018 the Manrope Font authors (https://github.com/sharanda/manrope)
</metadata>
<defs>
<font id="Manrope-Bold" horiz-adv-x="1335" >
  <font-face 
    font-family="Manrope"
    font-weight="700"
    font-stretch="semi-condensed"
    units-per-em="2048"
    panose-1="0 0 8 6 0 0 0 0 0 0"
    ascent="1638"
    descent="-410"
    x-height="1152"
    cap-height="1536"
    bbox="-81 -640 2385.08 2155"
    underline-thickness="106"
    underline-position="-319"
    unicode-range="U+0020-FB02"
  />
<missing-glyph horiz-adv-x="1578" 
d="M1365 1536v-28h-1152v28h1152zM1365 1419v-34h-1152v34h1152zM1365 1301v-38h-1152v38h1152zM1365 1182v-45h-1152v45h1152zM1365 1062v-47h-1152v47h1152zM1365 945v-51h-1152v51h1152zM1365 828v-60h-1152v60h1152zM1365 710v-64h-1152v64h1152zM1365 593v-70h-1152v70
h1152zM1365 474v-75h-1152v75h1152zM1365 356v-79h-1152v79h1152zM1365 239v-85h-1152v85h1152zM1365 0h-1152v122h1152v-122z" />
    <glyph glyph-name="fl" unicode="fl" horiz-adv-x="1440" 
d="M1001 1568h290v-1568h-290v928h-451v-928h-290v928h-239v224h239q9 190 107 297q84 86 206.5 108.5t284.5 6.5v-250q-92 16 -169 2q-80 -12 -109.5 -52.5t-29.5 -111.5h451v416z" />
    <glyph glyph-name="f_f" unicode="ff" horiz-adv-x="1629" 
d="M1440 1316q-80 -12 -109.5 -52.5t-29.5 -111.5h308v-224h-308v-928h-290v928h-461v-928h-290v928h-239v224h239q9 190 107 297q84 86 206.5 108.5t284.5 6.5v-250q-92 16 -169 2q-80 -12 -109.5 -52.5t-29.5 -111.5h461q9 190 107 297q84 86 206.5 108.5t284.5 6.5v-250
q-92 16 -169 2z" />
    <glyph glyph-name="f_f_l" unicode="ffl" horiz-adv-x="2126" 
d="M1687 1568h291v-1568h-291v928h-450v-928h-290v928h-397v-928h-290v928h-239v224h239q9 190 107 297q84 86 206.5 108.5t284.5 6.5v-250q-92 16 -169 2q-80 -12 -109.5 -52.5t-29.5 -111.5h397q9 190 107 297q84 86 206.5 108.5t284.5 6.5v-250q-92 16 -169 2
q-80 -12 -109.5 -52.5t-29.5 -111.5h450v416z" />
    <glyph glyph-name="hyphen_greater.liga" unicode="&#x2d;&#x3e;" horiz-adv-x="2165" 
d="M1350 1116l517 -517l-517 -516l-134 137l269 269h-1186v224h1184l-267 266z" />
    <glyph glyph-name="parenleft_greater_parenright.liga" unicode="&#x28;&#x3e;&#x29;" horiz-adv-x="2282" 
d="M1141 -288q216 0 411.5 83.5t336.5 224.5t224.5 336.5t83.5 411.5t-83.5 411.5t-224.5 336.5t-336.5 224.5t-411.5 83.5t-411.5 -83.5t-336.5 -224.5t-224.5 -336.5t-83.5 -411.5t83.5 -411.5t224.5 -336.5t336.5 -224.5t411.5 -83.5zM1141 -17q-214 0 -394.5 105
t-285.5 285.5t-105 394.5t105 394.5t285.5 285.5t394.5 105t394.5 -105t285.5 -285.5t105 -394.5t-105 -394.5t-285.5 -285.5t-394.5 -105zM988 1152l461 -384l-461 -384v768z" />
    <glyph glyph-name="parenleft_c_parenright.liga" unicode="&#x28;c&#x29;" horiz-adv-x="1992" 
d="M996 -335q124 0 242 32.5t218 91.5t184 143t143 184t91.5 218t32.5 242t-32.5 242t-91.5 218t-143 184t-184 143t-218 91.5t-242 32.5t-242 -32.5t-218 -91.5t-184 -143t-143 -184t-91.5 -218t-32.5 -242t32.5 -242t91.5 -218t143 -184t184 -143t218 -91.5t242 -32.5z
M996 -64q-130 0 -248.5 50.5t-204.5 136.5t-136.5 204.5t-50.5 248.5t50.5 248.5t136.5 204.5t204.5 136.5t248.5 50.5t248.5 -50.5t204.5 -136.5t136.5 -204.5t50.5 -248.5t-50.5 -248.5t-136.5 -204.5t-204.5 -136.5t-248.5 -50.5zM1370 811l-199 -86q-3 8 -17 28
q-25 35 -67 54t-89 19q-100 0 -153 -73q-49 -64 -49 -177q0 -111 49 -175q51 -70 153 -70q105 0 156 70q10 15 15 26l201 -86q-24 -43 -47 -68q-56 -68 -142.5 -104.5t-182.5 -38.5q-94 -2 -179.5 35.5t-142.5 107.5q-104 118 -104 303q0 183 104 307q59 70 143 105.5
t179 35.5q96 0 182 -36.5t143 -104.5q34 -41 47 -72z" />
    <glyph glyph-name="space_less_three_space.liga" unicode="&#x20;&#x3c;&#x33;&#x20;" horiz-adv-x="2562" 
d="M1487 1184q178 0 309 -139q126 -133 126 -320q0 -176 -126 -313l-352 -374q-67 -70 -164 -70q-93 0 -160 70l-354 374q-126 137 -126 313q0 185 126 318q134 141 309 141q108 0 205 -53q97 53 207 53zM1487 960q-104 0 -207 -113q-103 113 -205 113q-81 0 -145 -70
q-66 -66 -66 -163q0 -96 66 -162l350 -371l354 371q64 67 64 162q0 96 -64 163q-67 70 -147 70z" />
    <glyph glyph-name="less_hyphen.liga" unicode="&#x3c;&#x2d;" horiz-adv-x="2165" 
d="M1867 713v-224h-1186l268 -269l-134 -137l-516 516l516 517l134 -137l-266 -266h1184z" />
    <glyph glyph-name=".notdef" horiz-adv-x="1578" 
d="M1365 1536v-28h-1152v28h1152zM1365 1419v-34h-1152v34h1152zM1365 1301v-38h-1152v38h1152zM1365 1182v-45h-1152v45h1152zM1365 1062v-47h-1152v47h1152zM1365 945v-51h-1152v51h1152zM1365 828v-60h-1152v60h1152zM1365 710v-64h-1152v64h1152zM1365 593v-70h-1152v70
h1152zM1365 474v-75h-1152v75h1152zM1365 356v-79h-1152v79h1152zM1365 239v-85h-1152v85h1152zM1365 0h-1152v122h1152v-122z" />
    <glyph glyph-name=".null" horiz-adv-x="1280" 
 />
    <glyph glyph-name="nonmarkingreturn" horiz-adv-x="682" 
 />
    <glyph glyph-name="space" unicode=" " horiz-adv-x="426" 
 />
    <glyph glyph-name="exclam" unicode="!" horiz-adv-x="802" 
d="M256 1536h290v-1152h-290v1152zM256 256h290v-256h-290v256z" />
    <glyph glyph-name="quotedbl" unicode="&#x22;" horiz-adv-x="1049" 
d="M128 1536h290v-384h-290v384zM546 1536h290v-384h-290v384z" />
    <glyph glyph-name="numbersign" unicode="#" horiz-adv-x="1994" 
d="M1794 896h-371l-60 -220h371l-72 -273h-371l-107 -401h-282l107 401h-230l-107 -401h-282l109 401h-371l73 273h371l57 220h-371l75 271h369l100 369h282l-101 -369h231l100 369h282l-101 -369h372zM1082 676l59 220h-230l-58 -220h229z" />
    <glyph glyph-name="dollar" unicode="$" horiz-adv-x="1297" 
d="M1056 695q113 -116 113 -290q0 -110 -61.5 -214t-166.5 -159q-61 -31 -147 -49v-196h-291v200q-96 24 -173.5 80t-124.5 138q-77 122 -77 269h294q0 -24 8.5 -59t23.5 -57q74 -115 190 -115q94 0 152 43q66 45 66 128q0 39 -15.5 67t-61.5 59q-58 39 -181.5 86t-172.5 76
q-137 74 -209 179q-32 45 -52.5 110t-20.5 127q0 88 38.5 176.5t102.5 147.5q91 80 213 109v196h291v-200q166 -51 258 -184q83 -122 89 -273l-307 -2q0 52 -28 109q-65 96 -164 96q-92 0 -145 -64q-40 -40 -40 -107q0 -50 17 -79q14 -26 44 -49t55.5 -35.5t75.5 -34.5
q22 -10 76 -33.5t69.5 -30.5t54.5 -25t52.5 -26t41.5 -23.5t42.5 -27.5t33.5 -28.5t37 -34.5z" />
    <glyph glyph-name="percent" unicode="%" horiz-adv-x="1920" 
d="M512 800q-159 0 -271.5 112.5t-112.5 271.5q0 156 115 270t269 114q159 0 271.5 -112.5t112.5 -271.5t-112.5 -271.5t-271.5 -112.5zM384 0l-192 192l1344 1344l192 -194zM512 1013q70 0 120.5 50.5t50.5 120.5t-50.5 120.5t-120.5 50.5t-120.5 -50.5t-50.5 -120.5
t50.5 -120.5t120.5 -50.5zM1408 -32q-159 0 -271.5 112.5t-112.5 271.5q0 156 115 270t269 114q159 0 271.5 -112.5t112.5 -271.5t-112.5 -271.5t-271.5 -112.5zM1408 181q70 0 120.5 50.5t50.5 120.5t-50.5 120.5t-120.5 50.5t-120.5 -50.5t-50.5 -120.5t50.5 -120.5
t120.5 -50.5z" />
    <glyph glyph-name="ampersand" unicode="&#x26;" horiz-adv-x="1358" 
d="M1338 260l-165 -198l-126 104q-74 -106 -187 -153q-114 -45 -241 -45q-229 0 -372 132q-69 66 -104.5 158t-35.5 194q0 155 72 273q31 55 86 101q-66 75 -99 153q-29 72 -29 150q0 126 60.5 229.5t173.5 158.5q103 51 243 51q184 0 303 -87q91 -60 135 -163l-233 -104
q-21 49 -75.5 72.5t-116.5 23.5q-79 0 -136 -32q-75 -44 -75 -145q0 -78 49 -141q20 -26 38 -41l355 -292v137h277v-367zM838 343l-367 303q-39 -26 -57 -61q-28 -50 -28 -131q0 -111 51 -162q60 -68 188 -68q72 0 128 28q59 29 85 91z" />
    <glyph glyph-name="quotesingle" unicode="'" horiz-adv-x="588" 
d="M128 1536h290v-384h-290v384z" />
    <glyph glyph-name="parenleft" unicode="(" horiz-adv-x="900" 
d="M471 -358l237 134q-179 314 -179 800q0 489 179 800l-237 134q-215 -376 -215 -934t215 -934z" />
    <glyph glyph-name="parenright" unicode=")" horiz-adv-x="900" 
d="M429 -358q215 376 215 934t-215 934l-237 -134q179 -311 179 -800q0 -486 -179 -800z" />
    <glyph glyph-name="asterisk" unicode="*" horiz-adv-x="1011" 
d="M883 1146l-202 -67l125 -172l-207 -150l-125 173l-126 -173l-207 150l126 172l-203 67l79 243l203 -66v213h256v-213l202 66z" />
    <glyph glyph-name="plus" unicode="+" horiz-adv-x="1280" 
d="M1152 721v-224h-399v-401h-224v401h-401v224h401v399h224v-399h399z" />
    <glyph glyph-name="comma" unicode="," horiz-adv-x="674" 
d="M418 0q0 -158 -73 -234.5t-217 -53.5l17 122q74 -7 109 40t23 126h-149v290h290v-290z" />
    <glyph glyph-name="hyphen" unicode="-" horiz-adv-x="896" 
d="M128 721h640v-224h-640v224z" />
    <glyph glyph-name="period" unicode="." horiz-adv-x="682" 
d="M196 290h290v-290h-290v290z" />
    <glyph glyph-name="slash" unicode="/" horiz-adv-x="955" 
d="M538 1536h290l-410 -1536h-290z" />
    <glyph glyph-name="zero" unicode="0" horiz-adv-x="1309" 
d="M655 -30q278 0 439 186q78 93 104.5 189.5t26.5 234.5v378q0 143 -26.5 237.5t-104.5 186.5q-81 95 -197 142t-242 44q-130 3 -247.5 -47t-192.5 -139q-80 -99 -105 -191t-25 -233v-378q0 -141 26 -233.5t104 -190.5q79 -92 195.5 -139t244.5 -47zM655 1295q73 1 139 -38
t102 -103q7 -13 12 -26.5t8.5 -23.5t5.5 -24.5t3.5 -21t2 -24.5t0.5 -22.5v-26.5v-27v-378q0 -61 -1 -85t-10.5 -59.5t-29.5 -64.5q-37 -60 -99.5 -94.5t-132.5 -33.5q-68 -1 -129.5 33t-100.5 93q-21 31 -31 71.5t-11 64t-1 75.5v378q0 72 6.5 115t29.5 83q36 63 101 101.5
t136 37.5z" />
    <glyph glyph-name="one" unicode="1" horiz-adv-x="925" 
d="M373 1536h297v-1536h-297v1220l-288 -177v320z" />
    <glyph glyph-name="two" unicode="2" horiz-adv-x="1290" 
d="M113 1054q-4 110 43 214.5t130 177.5q139 122 377 122q124 0 229.5 -43.5t174.5 -133.5q59 -69 90 -159t31 -185q0 -64 -13 -119t-33 -97.5t-59 -89.5t-76.5 -83.5t-99.5 -90.5l-340 -292h589v-273h-1049v273l650 551q133 113 133 226q0 88 -54 155q-71 88 -190 88
q-93 0 -160 -64q-77 -74 -74 -177h-299z" />
    <glyph glyph-name="three" unicode="3" horiz-adv-x="1282" 
d="M1090 785q91 -141 85 -301q-3 -105 -46 -203t-118 -168t-172.5 -107t-198.5 -34q-100 -3 -198 34.5t-173 108.5q-101 95 -141 233l282 74q17 -64 59 -106q71 -71 171 -71t171 71q70 70 70 168q0 105 -70 175q-66 66 -171 66q-61 0 -119 -34l-131 228l372 344h-574v273
h960v-284l-312 -290q153 -45 254 -177z" />
    <glyph glyph-name="four" unicode="4" horiz-adv-x="1280" 
d="M1058 510h137v-271h-137v-239h-294v239h-657v271l484 1026h301l-485 -1026h357v384h294v-384z" />
    <glyph glyph-name="five" unicode="5" horiz-adv-x="1256" 
d="M209 1536h806v-271h-550l-19 -335q100 53 213 53q89 0 177.5 -31.5t157.5 -89.5q166 -150 156 -378q-1 -104 -44.5 -202t-117.5 -169q-75 -70 -172.5 -107t-198.5 -34q-99 -3 -198 35t-172 108q-100 94 -140 233l279 74q17 -64 62 -106q71 -71 169 -71t170 69
q71 71 71 170q0 98 -71 169q-70 70 -170 70q-99 0 -169 -70q-21 -21 -36 -49l-250 143z" />
    <glyph glyph-name="six" unicode="6" horiz-adv-x="1284" 
d="M1075 1421l-207 -207q-81 81 -192 81q-82 0 -152.5 -47t-98.5 -122q-11 -25 -16 -55.5t-5.5 -49.5t-0.5 -63v-68q125 96 284 96q89 0 177.5 -32t157.5 -92q162 -149 156 -378q-1 -104 -45 -202t-120 -169q-73 -70 -171.5 -107t-199.5 -34q-100 -3 -198 34.5t-171 108.5
q-99 92 -132.5 199.5t-33.5 265.5v378q0 139 27 236t103 186q162 193 439 186q239 3 399 -145zM813 316q70 67 70 168t-70 171t-169 70q-100 0 -170 -70q-71 -71 -71 -171t71 -168q74 -74 168 -71q97 -3 171 71z" />
    <glyph glyph-name="seven" unicode="7" horiz-adv-x="1224" 
d="M288 0l516 1263h-676v273h969v-273l-515 -1263h-294z" />
    <glyph glyph-name="eight" unicode="8" horiz-adv-x="1286" 
d="M147 1126q10 230 171 346q126 96 324 96q204 0 327 -96q81 -58 124.5 -150t43.5 -196q0 -102 -38 -183q-25 -56 -79 -117q80 -71 121 -169q35 -86 39 -196q-10 -243 -171 -374q-143 -119 -367 -119q-102 0 -199 30.5t-166 88.5q-81 67 -125.5 166t-44.5 208q0 104 38 196
q41 97 122 169q-58 66 -81 117q-35 81 -39 183zM454 1126q0 -82 52 -125q49 -43 136 -43q90 0 139 43q52 46 49 125q3 80 -49 126q-47 42 -139 45q-89 -3 -136 -45q-52 -43 -52 -126zM811 299q62 59 62 162q0 107 -62 162q-60 60 -169 60q-105 0 -168 -60q-60 -53 -60 -162
q0 -105 60 -162q66 -58 168 -58q106 0 169 58z" />
    <glyph glyph-name="nine" unicode="9" horiz-adv-x="1324" 
d="M250 113l207 207q81 -81 192 -81q82 0 152.5 46.5t98.5 121.5q11 25 16 56t5.5 50t0.5 63v68q-125 -96 -284 -96q-89 0 -177.5 32t-157.5 92q-162 149 -156 378q1 104 45 202t119 169q73 70 172 107t200 34q100 3 198 -34.5t171 -108.5q99 -92 132.5 -199.5t33.5 -265.5
v-378q0 -139 -27 -236t-103 -186q-162 -193 -439 -186q-239 -3 -399 145zM512 1218q-70 -67 -70 -168t70 -171t169 -70q100 0 170 70q71 71 71 171t-71 168q-74 74 -168 71q-97 3 -171 -71z" />
    <glyph glyph-name="colon" unicode=":" horiz-adv-x="740" 
d="M215 1024h291v-290h-291v290zM213 418h290v-290h-290v290z" />
    <glyph glyph-name="semicolon" unicode=";" horiz-adv-x="657" 
d="M207 1152h290v-290h-290v290zM354 0q0 -158 -73 -234.5t-217 -53.5l17 122q74 -7 109 40t23 126h-149v290h290v-290z" />
    <glyph glyph-name="less" unicode="&#x3c;" horiz-adv-x="1376" 
d="M815 60l-516 516l516 516l134 -136l-379 -380l379 -380z" />
    <glyph glyph-name="equal" unicode="=" horiz-adv-x="1600" 
d="M256 896v-224h1088v224h-1088zM256 480v-224h1088v224h-1088z" />
    <glyph glyph-name="greater" unicode="&#x3e;" horiz-adv-x="1376" 
d="M561 60l-134 136l379 380l-379 380l134 136l516 -516z" />
    <glyph glyph-name="question" unicode="?" horiz-adv-x="1201" 
d="M1094 1133q0 -195 -181 -388q-18 -20 -55 -57t-55 -58t-33 -43q-29 -47 -36 -77t-7 -94h-307q0 156 66 269q24 49 53.5 80.5t82 75t93.5 87.5q41 46 56.5 91t15.5 105q0 66 -28 103q-48 66 -157 66q-87 0 -131 -36q-60 -44 -57 -133h-307q13 115 65.5 210t134.5 149
q127 83 282 83q275 0 407 -162q46 -54 72 -126.5t26 -144.5zM422 0v307h305v-307h-305z" />
    <glyph glyph-name="at" unicode="@" horiz-adv-x="2097" 
d="M1050 1495q426 0 672.5 -247t246.5 -674q0 -99 -17.5 -180t-44.5 -134t-65.5 -92.5t-74.5 -60.5t-77 -33.5t-68 -15.5t-52 -3q-100 0 -186.5 46t-139.5 125q-84 -43 -194 -43q-178 0 -285.5 107.5t-107.5 283.5q0 178 107.5 286.5t285.5 108.5q176 0 284 -108.5
t108 -286.5v-120q0 -52 38 -90t90 -38q16 0 27 1.5t32 15t34.5 37.5t24 74t10.5 120q0 310 -169.5 480.5t-478.5 170.5q-58 0 -113 -6t-121.5 -24.5t-123.5 -47.5t-112 -79.5t-93.5 -117t-62 -163t-23.5 -213.5t23.5 -213t62 -162t93.5 -116t112 -79t123.5 -47t121.5 -24
t113 -6v-273q-427 0 -674.5 247t-247.5 673q0 427 247 674t675 247zM1050 454q38 0 63.5 10.5t37.5 29.5t16 37.5t4 42.5q0 54 -24.5 87.5t-96.5 33.5q-73 0 -97.5 -33t-24.5 -88q0 -53 24.5 -86.5t97.5 -33.5z" />
    <glyph glyph-name="A" unicode="A" horiz-adv-x="1393" 
d="M1084 0l-75 239h-627l-73 -239h-298l469 1536h433l469 -1536h-298zM465 512h461l-233 751z" />
    <glyph glyph-name="B" unicode="B" horiz-adv-x="1380" 
d="M1203 749q92 -121 92 -280q0 -152 -92 -279q-91 -120 -239 -167q-83 -23 -145 -23h-648v1536h612q72 0 132 -21q142 -41 220 -156q87 -109 90 -260q3 -139 -90 -256q-2 -4 -9 -11q46 -43 77 -83zM781 1265h-316v-326h333q24 5 52 21.5t44 37.5q39 47 36 101
q-3 69 -43 111q-16 21 -48.5 38t-57.5 17zM1003 469q3 81 -56 143q-54 54 -132 54h-350v-393h350q66 0 124 51q61 51 64 145z" />
    <glyph glyph-name="C" unicode="C" horiz-adv-x="1623" 
d="M1235 531l288 -83q-47 -133 -126 -228q-103 -125 -251.5 -188.5t-313.5 -63.5q-170 0 -319.5 66.5t-245.5 185.5q-182 222 -182 548q0 332 182 550q98 124 246 187t319 63q170 0 317 -64t248 -186q93 -117 141 -273l-299 -51q-30 94 -72 147q-57 75 -146 115.5t-189 40.5
q-101 0 -190.5 -40.5t-144.5 -115.5q-100 -127 -104 -373q4 -243 104 -373q55 -75 144.5 -115.5t190.5 -38.5q99 -2 188.5 38.5t146.5 115.5q45 62 68 136z" />
    <glyph glyph-name="D" unicode="D" horiz-adv-x="1514" 
d="M1342 1143q87 -173 87 -375t-87 -375q-94 -178 -271 -285.5t-373 -107.5h-527v1536h527q195 0 372.5 -107t271.5 -286zM1084 525q54 116 51 243q-3 140 -51 243q-57 113 -165.5 182t-235.5 70l-218 2v-994l218 2q120 2 233 70.5t168 181.5z" />
    <glyph glyph-name="E" unicode="E" horiz-adv-x="1301" 
d="M1173 1246h-712v-333h584v-290h-584v-333h712v-290h-1002v1536h1002v-290z" />
    <glyph glyph-name="F" unicode="F" horiz-adv-x="1152" 
d="M1109 1246h-648v-333h520v-290h-520v-623h-290v1536h938v-290z" />
    <glyph glyph-name="G" unicode="G" horiz-adv-x="1661" 
d="M896 819h681v-51q-7 -340 -180 -548q-98 -124 -246 -188t-319 -64t-319.5 64t-245.5 188q-175 207 -182 548q6 333 182 548q97 122 246.5 187t318.5 65q170 0 318 -66t247 -186q40 -50 69 -104l-267 -122q-3 4 -13.5 22.5t-18.5 28.5q-57 75 -146.5 115.5t-188.5 38.5
q-101 2 -190.5 -38.5t-146.5 -115.5q-98 -130 -102 -373q4 -243 102 -373q57 -75 146.5 -115.5t190.5 -38.5q99 -2 188.5 38.5t146.5 115.5q55 70 85 194h-356v230z" />
    <glyph glyph-name="H" unicode="H" horiz-adv-x="1608" 
d="M1148 1536h290v-1536h-290v512h-687v-512h-290v1536h290v-734h687v734z" />
    <glyph glyph-name="I" unicode="I" horiz-adv-x="588" 
d="M149 1536h290v-1536h-290v1536z" />
    <glyph glyph-name="J" unicode="J" horiz-adv-x="1094" 
d="M924 1536h-297v-1024q0 -88 -2.5 -118.5t-14.5 -60.5q-16 -44 -61 -69t-90 -25q-57 0 -107 38q-57 44 -66 107l-286 -68q26 -90 82.5 -165t135.5 -121q101 -62 241 -62q141 0 238.5 55t166.5 167q42 77 51 134.5t9 187.5v1024z" />
    <glyph glyph-name="K" unicode="K" horiz-adv-x="1454" 
d="M678 687h-213v-687h-294v1536h294v-625h213l384 625h350l-478 -736l521 -800h-352z" />
    <glyph glyph-name="L" unicode="L" horiz-adv-x="1154" 
d="M461 1536h-290v-1536h951v290h-661v1246z" />
    <glyph glyph-name="M" unicode="M" horiz-adv-x="1924" 
d="M1754 1536v-1536h-295v917l-446 -917h-102l-446 915v-915h-294v1536h294l497 -1020l497 1020h295z" />
    <glyph glyph-name="N" unicode="N" horiz-adv-x="1597" 
d="M427 1536l706 -1003v1003h294v-1536h-256l-704 1003v-1003h-296v1536h256z" />
    <glyph glyph-name="O" unicode="O" horiz-adv-x="1659" 
d="M830 -32q-169 0 -318.5 65t-246.5 187q-180 216 -180 548q0 334 180 550q98 124 246 187t319 63q170 0 317 -64t248 -186q172 -209 179 -550q-6 -337 -179 -548q-103 -125 -251.5 -188.5t-313.5 -63.5zM830 241q101 -2 189.5 38.5t145.5 115.5q102 135 102 373
q0 241 -102 373q-57 75 -145.5 115.5t-189.5 38.5q-101 2 -190.5 -38.5t-144.5 -115.5q-101 -128 -105 -373q4 -242 105 -373q55 -75 144.5 -115.5t190.5 -38.5z" />
    <glyph glyph-name="P" unicode="P" horiz-adv-x="1429" 
d="M1387 1028q3 -160 -103 -301q-68 -94 -177 -149t-234 -55h-412v-523h-290v1536h702q80 0 155 -23q161 -50 256 -184q100 -133 103 -301zM1045 887q50 68 47 141q-3 93 -55 152q-32 36 -77.5 59.5t-89.5 23.5h-409v-469h409q45 0 93.5 25t81.5 68z" />
    <glyph glyph-name="Q" unicode="Q" horiz-adv-x="1659" 
d="M1574 768q-6 -315 -153 -514l106 -107l-177 -179l-113 113q-179 -113 -407 -113q-169 0 -318.5 65t-246.5 187q-180 216 -180 548q0 334 180 550q98 124 246 187t319 63q170 0 317 -64t248 -186q172 -209 179 -550zM830 241q110 -3 203 45l-131 128l180 179l125 -126
q60 120 60 301q0 241 -102 373q-57 75 -145.5 115.5t-189.5 38.5q-101 2 -190.5 -38.5t-144.5 -115.5q-101 -128 -105 -373q4 -242 105 -373q55 -75 144.5 -115.5t190.5 -38.5z" />
    <glyph glyph-name="R" unicode="R" horiz-adv-x="1412" 
d="M1284 727q-72 -99 -179 -149l282 -578h-329l-254 523h-343v-523h-290v1536h702q80 0 155 -23q161 -50 256 -184q100 -133 103 -301q3 -160 -103 -301zM461 1263v-469h409q45 0 93.5 25t81.5 68q50 68 47 141q-3 93 -55 152q-32 36 -77.5 59.5t-89.5 23.5h-409z" />
    <glyph glyph-name="S" unicode="S" horiz-adv-x="1390" 
d="M1312 1146l-294 -79q-32 65 -62 103.5t-81 68.5q-91 56 -182 56q-111 3 -185 -43q-79 -48 -79 -128q0 -42 30 -72q37 -40 175 -81l266 -77q103 -31 168 -64t116 -81q143 -135 143 -327q0 -101 -53.5 -198.5t-144.5 -157.5q-82 -55 -184.5 -76.5t-236.5 -21.5
q-336 0 -505 207q-98 120 -139 299l294 79q21 -121 77 -190q44 -60 123 -92t161 -32q64 0 132 17.5t107 48.5q62 46 62 126q0 66 -47 107q-49 43 -137 68l-286 83q-192 54 -294 143q-66 55 -99 134.5t-33 164.5q0 123 70 225t179 152q131 60 325 60q190 -4 322 -75
q200 -108 292 -347z" />
    <glyph glyph-name="T" unicode="T" horiz-adv-x="1301" 
d="M1280 1536v-290h-484v-1246h-290v1246h-485v290h1259z" />
    <glyph glyph-name="U" unicode="U" horiz-adv-x="1591" 
d="M1421 1536v-960q0 -219 -137 -388q-84 -108 -211.5 -164t-274.5 -56t-276.5 56.5t-214.5 163.5q-64 82 -100 184t-36 204v958l294 2v-956q0 -116 66 -211q46 -60 118 -94t149 -34q76 0 146 34t116 96q66 87 66 209v956h295z" />
    <glyph glyph-name="V" unicode="V" horiz-adv-x="1393" 
d="M480 0l-469 1536h298l384 -1263l391 1263h298l-469 -1536h-433z" />
    <glyph glyph-name="W" unicode="W" horiz-adv-x="2109" 
d="M1783 1536h306l-451 -1536h-285l-299 1015l-297 -1015h-286l-450 1536h305l288 -1035l286 1033l305 2l288 -1035z" />
    <glyph glyph-name="X" unicode="X" horiz-adv-x="1454" 
d="M894 777l550 -777h-360l-357 533l-358 -533h-358l550 777l-538 759h357l347 -516l346 516h356z" />
    <glyph glyph-name="Y" unicode="Y" horiz-adv-x="1344" 
d="M1005 1536h339l-525 -911v-625h-294v625l-525 911h339l333 -578z" />
    <glyph glyph-name="Z" unicode="Z" horiz-adv-x="1408" 
d="M501 273h779v-273h-1152v273l779 992h-779v271h1152v-273z" />
    <glyph glyph-name="bracketleft" unicode="[" horiz-adv-x="872" 
d="M745 1664h-233v-1792h233v-256h-489v2304h489v-256z" />
    <glyph glyph-name="backslash" unicode="\" horiz-adv-x="955" 
d="M418 1536l410 -1536h-290l-410 1536h290z" />
    <glyph glyph-name="bracketright" unicode="]" horiz-adv-x="872" 
d="M617 1920v-2304h-489v256h233v1792h-233v256h489z" />
    <glyph glyph-name="asciicircum" unicode="^" horiz-adv-x="1459" 
d="M128 1052l516 516l517 -516l-137 -135l-380 380l-379 -380z" />
    <glyph glyph-name="underscore" unicode="_" horiz-adv-x="1408" 
d="M0 -111h1408v-224h-1408v224z" />
    <glyph glyph-name="a" unicode="a" horiz-adv-x="1260" 
d="M384 813l-265 126q17 25 24 34q149 209 452 209q340 0 476 -228q62 -103 62 -231v-723h-254v196q-15 -43 -57 -86t-86 -69q-117 -71 -269 -71q-83 0 -164 36t-128 92q-49 67 -69.5 118.5t-20.5 122.5q0 92 51.5 176.5t134.5 133.5q37 20 70.5 33.5t74.5 23t65.5 14
t83.5 12.5t88 13l185 25q-17 71 -85 107q-66 39 -164 36q-123 0 -182 -70q-15 -15 -23 -30zM845 538l-214 -41q-42 -8 -63 -12.5t-57 -13t-55 -18t-40.5 -23.5t-31.5 -32t-11 -40q-3 -52 40 -89t112 -34q65 2 125.5 22.5t111.5 67t68 112.5q15 54 15 101z" />
    <glyph glyph-name="b" unicode="b" horiz-adv-x="1354" 
d="M1135 1001q134 -168 134 -425q0 -262 -134 -425q-70 -87 -176 -135t-221 -48q-198 0 -333 102v-70h-256v1536h293v-431q131 79 281 79q123 0 231.5 -47t180.5 -136zM905 329q57 83 57 247q0 156 -62 247q-67 103 -219 103q-126 0 -195 -81q-81 -94 -81 -269
q0 -178 81 -269q75 -81 205 -81q147 0 214 103z" />
    <glyph glyph-name="c" unicode="c" horiz-adv-x="1245" 
d="M1171 894l-271 -117q-10 23 -23 38q-35 47 -90.5 72.5t-120.5 25.5q-63 0 -118.5 -25.5t-90.5 -72.5q-63 -83 -67 -239q4 -156 67 -239q71 -96 209 -96q65 0 121 24.5t90 71.5q13 19 21 36l273 -117q-38 -64 -64 -94q-80 -94 -197 -144.5t-244 -47.5q-128 -3 -244.5 47
t-195.5 145q-141 169 -141 414q0 244 141 416q80 96 196 144t244 48q130 0 246 -49.5t195 -142.5q39 -48 64 -98z" />
    <glyph glyph-name="d" unicode="d" horiz-adv-x="1354" 
d="M913 1536h292v-1536h-256v70q-135 -102 -332 -102q-115 0 -221 48t-176 135q-135 164 -135 425q0 256 135 425q72 90 180 136.5t231 46.5q151 0 282 -79v431zM868 307q81 91 81 269q0 175 -81 269q-69 81 -194 81q-153 0 -220 -103q-61 -89 -61 -247q0 -164 57 -247
q67 -103 213 -103q130 0 205 81z" />
    <glyph glyph-name="e" unicode="e" 
d="M399 497q15 -101 60 -160q35 -47 90.5 -72.5t118.5 -25.5q136 0 211 98q4 6 10 18t11 18l288 -126q-27 -46 -68 -93q-86 -96 -204.5 -144.5t-247.5 -41.5q-294 15 -442 192q-147 179 -141 416q6 255 141 416q79 93 195.5 142.5t246.5 49.5q131 0 246.5 -49t194.5 -143
q141 -169 141 -416q0 -27 -4 -79h-847zM668 913q-139 0 -209 -98q-29 -39 -47 -94h512q-17 53 -45 94q-73 98 -211 98z" />
    <glyph glyph-name="f" unicode="f" horiz-adv-x="878" 
d="M689 1316q-80 -12 -109.5 -52.5t-29.5 -111.5h308v-224h-308v-928h-290v928h-239v224h239q9 190 107 297q84 86 206.5 108.5t284.5 6.5v-250q-92 16 -169 2z" />
    <glyph glyph-name="g" unicode="g" horiz-adv-x="1352" 
d="M949 1152h254v-1231q0 -122 -55 -222t-160 -160q-144 -81 -325 -81q-125 0 -241 51q-65 32 -123.5 84t-93.5 113l269 130q22 -40 61 -69q50 -36 131 -36q108 0 177 51q73 56 70 143v120q-125 -77 -296 -77q-115 0 -221 48t-176 135q-135 164 -135 425q0 256 135 425
q72 90 180 136.5t231 46.5q180 0 318 -105v73zM663 226q130 0 205 81q81 91 81 269q0 175 -81 269q-69 81 -194 81q-153 0 -220 -103q-61 -89 -61 -247q0 -164 57 -247q67 -103 213 -103z" />
    <glyph glyph-name="h" unicode="h" 
d="M1073 1056q95 -87 125.5 -197.5t30.5 -282.5v-576h-295v576q0 186 -76 262q-61 64 -182 64q-80 -3 -136 -44q-66 -49 -86 -148q-12 -56 -12 -209v-501h-293v1536h256v-463q131 104 312 111q96 3 191.5 -31.5t164.5 -96.5z" />
    <glyph glyph-name="i" unicode="i" horiz-adv-x="631" 
d="M171 1568h290v-256h-290v256zM171 1152h290v-1152h-290v1152z" />
    <glyph glyph-name="j" unicode="j" horiz-adv-x="663" 
d="M203 1536h290v-256h-290v256zM64 -247v-297q222 0 339 164q90 126 90 316v1216h-290v-1216q0 -95 -39 -143q-31 -40 -100 -40z" />
    <glyph glyph-name="k" unicode="k" horiz-adv-x="1226" 
d="M444 516v-516h-295v1534h295v-794h121l280 412h328l-356 -525l410 -627h-325l-337 516h-121z" />
    <glyph glyph-name="l" unicode="l" horiz-adv-x="588" 
d="M149 0h290v1568h-290v-1568z" />
    <glyph glyph-name="m" unicode="m" horiz-adv-x="1943" 
d="M1711 1071q126 -113 126 -369v-702h-295v702q0 56 -12 90t-43 68q-54 62 -147 62q-91 0 -147 -64q-54 -61 -54 -160v-698h-294v702q0 55 -12.5 89.5t-43.5 68.5q-54 62 -147 62q-91 0 -147 -64q-53 -60 -53 -160v-698h-293v1152h256v-124q61 72 149 112t184 40
q71 0 144.5 -29.5t130.5 -79.5q37 -33 64 -77q59 87 155 136.5t204 49.5q71 0 144.5 -29.5t130.5 -79.5z" />
    <glyph glyph-name="n" unicode="n" 
d="M1073 1056q95 -87 125.5 -197.5t30.5 -282.5v-576h-295v576q0 186 -76 262q-61 64 -182 64q-80 -3 -136 -44q-66 -49 -86 -148q-12 -56 -12 -209v-501h-293v1152h256v-79q131 104 312 111q96 3 191.5 -31.5t164.5 -96.5z" />
    <glyph glyph-name="o" unicode="o" horiz-adv-x="1337" 
d="M668 -32q-130 0 -246.5 49.5t-195.5 142.5q-141 171 -141 416q0 246 141 416q79 93 196 142.5t246 49.5q131 0 246.5 -49t194.5 -143q143 -171 143 -416q0 -238 -143 -416q-80 -94 -194.5 -143t-246.5 -49zM879 337q66 86 66 239q0 155 -66 241q-71 96 -211 96t-211 -96
q-64 -84 -64 -241q0 -155 64 -239q35 -47 90.5 -72.5t120.5 -25.5t120.5 25.5t90.5 72.5z" />
    <glyph glyph-name="p" unicode="p" horiz-adv-x="1354" 
d="M1135 1001q134 -168 134 -425q0 -262 -134 -425q-70 -87 -176 -135t-221 -48q-171 0 -296 77v-557h-293v1664h256v-73q138 105 318 105q123 0 231.5 -47t180.5 -136zM905 329q57 83 57 247q0 156 -62 247q-67 103 -219 103q-126 0 -195 -81q-81 -94 -81 -269
q0 -178 81 -269q75 -81 205 -81q147 0 214 103z" />
    <glyph glyph-name="q" unicode="q" horiz-adv-x="1354" 
d="M949 1152h256v-1664h-292v557q-125 -77 -296 -77q-115 0 -221 48t-176 135q-135 164 -135 425q0 256 135 425q72 90 180 136.5t231 46.5q180 0 318 -105v73zM663 226q130 0 205 81q81 91 81 269q0 175 -81 269q-69 81 -194 81q-153 0 -220 -103q-61 -89 -61 -247
q0 -164 57 -247q67 -103 213 -103z" />
    <glyph glyph-name="r" unicode="r" horiz-adv-x="974" 
d="M730 1182q98 6 192 -32v-269q-101 39 -222 30q-117 -8 -184 -79q-74 -80 -74 -218v-614h-293v1152h256v-158q48 82 124 128q87 53 201 60z" />
    <glyph glyph-name="s" unicode="s" horiz-adv-x="1154" 
d="M1069 847l-282 -68q-10 30 -35 59t-54 43q-54 30 -124 30q-80 0 -126 -26q-38 -25 -38 -53q0 -8 6 -26q23 -28 122 -57q63 -19 181 -49q5 -2 33 -10.5t33 -10t27 -9t28.5 -11t24 -11.5t27.5 -15t24.5 -17t28.5 -21q147 -114 134 -288q-14 -167 -164 -264
q-119 -75 -320 -75q-253 0 -399 154q-40 46 -79 124.5t-42 122.5l275 68q0 -28 15 -67.5t38 -62.5q61 -66 192 -66q116 0 162 38q24 22 30 54q0 32 -19 51q-29 29 -119 55q-69 19 -186 50q-80 21 -132 44t-96 58q-57 43 -88.5 107.5t-31.5 127.5q0 106 58 189t153 124
q115 48 252 45q133 0 245 -58q85 -44 148.5 -116t97.5 -163z" />
    <glyph glyph-name="t" unicode="t" horiz-adv-x="989" 
d="M883 928h-333v-418q0 -79 5 -123.5t23 -72.5q41 -64 117 -71q93 -7 188 7v-250q-69 -20 -171 -21.5t-166 15.5q-167 48 -230 166q-34 63 -45 141t-11 188v439h-239v224h239v320h290v-320h333v-224z" />
    <glyph glyph-name="u" unicode="u" 
d="M894 1152h292v-1152h-256v79q-131 -104 -311 -111q-96 -3 -192 31.5t-165 96.5q-95 87 -125 197t-30 283v576h294v-576q0 -185 77 -262q61 -64 181 -64q81 3 137 44q65 48 85 148q13 60 13 209v501z" />
    <glyph glyph-name="v" unicode="v" horiz-adv-x="1171" 
d="M860 1152h290l-420 -1152h-288l-421 1152h290l276 -798z" />
    <glyph glyph-name="w" unicode="w" horiz-adv-x="1693" 
d="M1389 1152h284l-352 -1152h-284l-190 687l-209 -687h-265l-352 1154l286 -2l209 -687l211 687h242l211 -687z" />
    <glyph glyph-name="x" unicode="x" horiz-adv-x="1179" 
d="M1148 1152l-406 -567l416 -585h-332l-237 358l-237 -358h-331l414 585l-405 567h328l231 -346l230 346h329z" />
    <glyph glyph-name="y" unicode="y" horiz-adv-x="1222" 
d="M913 1152h288l-491 -1308q-77 -205 -183 -283q-57 -44 -121.5 -58.5t-155.5 -14.5h-15v275l32 -4q27 -3 60 0.5t48 12.5q24 14 54 66t57 128l-443 1186h290l286 -817z" />
    <glyph glyph-name="z" unicode="z" horiz-adv-x="1226" 
d="M1077 252v-252h-928v245l549 655h-549v252h928v-252l-546 -648h546z" />
    <glyph glyph-name="braceleft" unicode="{" horiz-adv-x="1043" 
d="M851 -463v271h-130q-25 0 -43.5 18t-18.5 44v459q0 104 -62 192l-40 55l40 55q62 88 62 192v459q0 26 18.5 44t43.5 18h130v273h-130q-139 0 -237 -98.5t-98 -236.5v-459q0 -14 -11 -34l-96 -136q-24 -35 -24 -77t24 -77l96 -136q11 -17 11 -34v-459q0 -138 98 -235.5
t237 -97.5h130z" />
    <glyph glyph-name="bar" unicode="|" horiz-adv-x="674" 
d="M192 1536h290v-1536h-290v1536z" />
    <glyph glyph-name="braceright" unicode="}" horiz-adv-x="1043" 
d="M192 -463h130q139 0 237 97.5t98 235.5v459q0 17 11 34l96 136q24 35 24 77t-24 77l-96 136q-11 20 -11 34v459q0 138 -98 236.5t-237 98.5h-130v-273h130q26 0 44 -18t18 -44v-459q0 -104 62 -192l40 -55l-40 -55q-62 -88 -62 -192v-459q0 -26 -18 -44t-44 -18h-130
v-271z" />
    <glyph glyph-name="asciitilde" unicode="~" horiz-adv-x="1565" 
d="M1299 759q15 -62 7.5 -135.5t-37.5 -120.5q-29 -49 -75 -84t-100 -48q-140 -39 -305 47q-18 8 -70 37t-86.5 41.5t-67.5 9.5q-48 -3 -63.5 -35.5t1.5 -75.5h-238q-14 62 -6.5 135t35.5 121q66 107 175 132q140 38 308 -49q16 -7 69 -35.5t88 -40.5t69 -9q46 3 60.5 36
t-1.5 74h237z" />
    <glyph glyph-name="exclamdown" unicode="&#xa1;" horiz-adv-x="802" 
d="M256 896v256h290v-256h-290zM256 -384v1152h290v-1152h-290z" />
    <glyph glyph-name="cent" unicode="&#xa2;" horiz-adv-x="1245" 
d="M877 497q13 19 21 36l273 -117q-38 -64 -64 -94q-124 -146 -324 -183v-201h-224v199q-99 16 -185 63.5t-148 121.5q-141 169 -141 414q0 244 141 416q123 148 333 183v201h224v-203q202 -37 324 -181q39 -48 64 -98l-271 -117q-10 23 -23 38q-35 47 -90.5 72.5
t-120.5 25.5q-63 0 -118.5 -25.5t-90.5 -72.5q-63 -83 -67 -239q4 -156 67 -239q71 -96 209 -96q65 0 121 24.5t90 71.5z" />
    <glyph glyph-name="sterling" unicode="&#xa3;" horiz-adv-x="1303" 
d="M585 631v-360h475v-271h-932v271h2q65 0 112.5 49t47.5 113v198h-162v274h162v249q0 175 130 294.5t316 119.5q299 0 439 -393l-260 -85q-29 101 -70.5 153t-108.5 52t-108 -44t-41 -112v-234h300v-274h-302z" />
    <glyph glyph-name="yen" unicode="&#xa5;" horiz-adv-x="1344" 
d="M1344 1536l-397 -687h173v-224h-301v-200h301v-224h-301v-201h-294v201h-301v224h301v200h-301v224h173l-397 687h339l333 -578l333 578h339z" />
    <glyph glyph-name="copyright" unicode="&#xa9;" horiz-adv-x="1992" 
d="M996 -335q124 0 242 32.5t218 91.5t184 143t143 184t91.5 218t32.5 242t-32.5 242t-91.5 218t-143 184t-184 143t-218 91.5t-242 32.5t-242 -32.5t-218 -91.5t-184 -143t-143 -184t-91.5 -218t-32.5 -242t32.5 -242t91.5 -218t143 -184t184 -143t218 -91.5t242 -32.5z
M996 -64q-130 0 -248.5 50.5t-204.5 136.5t-136.5 204.5t-50.5 248.5t50.5 248.5t136.5 204.5t204.5 136.5t248.5 50.5t248.5 -50.5t204.5 -136.5t136.5 -204.5t50.5 -248.5t-50.5 -248.5t-136.5 -204.5t-204.5 -136.5t-248.5 -50.5zM1370 811l-199 -86q-3 8 -17 28
q-25 35 -67 54t-89 19q-100 0 -153 -73q-49 -64 -49 -177q0 -111 49 -175q51 -70 153 -70q105 0 156 70q10 15 15 26l201 -86q-24 -43 -47 -68q-56 -68 -142.5 -104.5t-182.5 -38.5q-94 -2 -179.5 35.5t-142.5 107.5q-104 118 -104 303q0 183 104 307q59 70 143 105.5
t179 35.5q96 0 182 -36.5t143 -104.5q34 -41 47 -72z" />
    <glyph glyph-name="guillemotleft" unicode="&#xab;" horiz-adv-x="1286" 
d="M548 100l152 120l-284 356l284 356l-152 120l-377 -476zM1007 100l151 120l-283 356l283 356l-151 120l-378 -476z" />
    <glyph glyph-name="registered" unicode="&#xae;" horiz-adv-x="1418" 
d="M708 1692q114 0 218 -44.5t179 -119.5t119.5 -178.5t44.5 -216.5q0 -114 -44.5 -218t-119.5 -179t-179 -119.5t-218 -44.5q-113 0 -216.5 44.5t-178.5 119.5t-119.5 179t-44.5 218q0 113 44.5 216.5t119.5 178.5t178.5 119.5t216.5 44.5zM710 1506q-155 0 -264 -109
t-109 -264q0 -153 109.5 -263.5t263.5 -110.5q152 0 263 111t111 263q0 154 -110.5 263.5t-263.5 109.5zM512 1391h241q81 0 130 -49.5t49 -123.5q0 -61 -21 -95t-68 -61l89 -183h-145l-79 162h-66v-162h-130v512zM642 1271v-106h107q23 0 38 17.5t15 35.5q0 24 -18 38.5
t-35 14.5h-107z" />
    <glyph glyph-name="degree" unicode="&#xb0;" horiz-adv-x="960" 
d="M448 800q-159 0 -271.5 112.5t-112.5 271.5q0 156 115 270t269 114q159 0 271.5 -112.5t112.5 -271.5t-112.5 -271.5t-271.5 -112.5zM448 1013q70 0 120.5 50.5t50.5 120.5t-50.5 120.5t-120.5 50.5t-120.5 -50.5t-50.5 -120.5t50.5 -120.5t120.5 -50.5z" />
    <glyph glyph-name="plusminus" unicode="&#xb1;" horiz-adv-x="1280" 
d="M753 924h399v-224h-399v-231h-224v231h-401v224h401v228h224v-228zM128 128v224h1024v-224h-1024z" />
    <glyph glyph-name="periodcentered" unicode="&#xb7;" horiz-adv-x="1365" 
d="M687 405q-74 0 -124.5 49t-50.5 122t50.5 122t124.5 49q68 0 117 -49t49 -122t-49 -122t-117 -49z" />
    <glyph glyph-name="guillemotright" unicode="&#xbb;" horiz-adv-x="1286" 
d="M279 100l378 476l-378 476l-151 -120l284 -356l-284 -356zM738 100l378 476l-378 476l-151 -120l283 -356l-283 -356z" />
    <glyph glyph-name="questiondown" unicode="&#xbf;" horiz-adv-x="1201" 
d="M779 1152v-307h-305v307h305zM107 19q0 195 181 388q18 20 55 57t55 58t33 43q29 47 36 77t7 94h307q0 -156 -66 -269q-24 -49 -53.5 -80.5t-82 -75t-93.5 -87.5q-41 -46 -56.5 -91t-15.5 -105q0 -66 28 -103q48 -66 157 -66q87 0 131 36q60 44 57 133h307
q-13 -115 -65.5 -210t-134.5 -149q-127 -83 -282 -83q-275 0 -407 162q-46 54 -72 126.5t-26 144.5z" />
    <glyph glyph-name="Agrave" unicode="&#xc0;" horiz-adv-x="1393" 
d="M1079 1884l-72 -209l-600 204l71 212zM1084 0l-73 239h-627l-75 -239h-298l469 1536h433l469 -1536h-298zM467 512h461l-228 751z" />
    <glyph glyph-name="Aacute" unicode="&#xc1;" horiz-adv-x="1393" 
d="M986 1879l-600 -204l-72 209l601 207zM1084 0l-75 239h-627l-73 -239h-298l469 1536h433l469 -1536h-298zM465 512h461l-233 751z" />
    <glyph glyph-name="Acircumflex" unicode="&#xc2;" horiz-adv-x="1393" 
d="M698 1822l-282 -145l-102 198l384 201l384 -201l-103 -198zM1084 0l-75 239h-627l-73 -239h-298l469 1536h433l469 -1536h-298zM465 512h461l-233 751z" />
    <glyph glyph-name="Atilde" unicode="&#xc3;" horiz-adv-x="1393" 
d="M499 1809h-168q-10 44 -4.5 95.5t25.5 85.5q44 74 124 94q100 26 217 -34q12 -6 38.5 -20.5t42.5 -22.5t38 -14t41 -5q33 3 44 27t-1 52h169q10 -44 4.5 -96t-26.5 -85q-46 -74 -124 -94q-100 -26 -217 34q-13 6 -39 20.5t-41.5 22.5t-37.5 14t-40 5q-68 -6 -45 -79z
M1084 0l-75 239h-627l-73 -239h-298l469 1536h433l469 -1536h-298zM465 512h461l-233 751z" />
    <glyph glyph-name="Adieresis" unicode="&#xc4;" horiz-adv-x="1393" 
d="M599 2048v-256h-256v256h256zM1052 2048v-256h-256v256h256zM1084 0l-75 239h-627l-73 -239h-298l469 1536h433l469 -1536h-298zM465 512h461l-233 751z" />
    <glyph glyph-name="Aring" unicode="&#xc5;" horiz-adv-x="1393" 
d="M1084 0l-75 239h-627l-73 -239h-298l441 1444q-85 93 -85 220q0 136 97.5 233.5t233.5 97.5t233 -97.5t97 -233.5q0 -127 -87 -222l441 -1442h-298zM698 1792q-52 0 -90 -38t-38 -90t38 -90t90 -38t90 38t38 90t-38 90t-90 38zM465 512h461l-233 751z" />
    <glyph glyph-name="AE" unicode="&#xc6;" horiz-adv-x="2026" 
d="M1899 1246h-713v-333h585v-290h-585v-333h713v-290h-1003v239h-514l-73 -239h-298l469 1536h1419v-290zM465 512h431v734h-207z" />
    <glyph glyph-name="Ccedilla" unicode="&#xc7;" horiz-adv-x="1623" 
d="M1167 395q45 62 68 136l288 -83q-47 -133 -126 -228q-92 -112 -222 -175t-277 -75l-15 -47q68 -34 103 -92q32 -55 28.5 -124t-39.5 -121q-39 -55 -96 -81.5t-124 -18.5q-62 5 -124 38l62 167q40 -13 64 -13q34 0 49 21q14 20 9 41q-4 16 -15 28t-34 22t-38 14.5
t-50 14.5l54 155q-142 17 -263 80.5t-202 165.5q-182 222 -182 548q0 332 182 550q98 124 246 187t319 63q170 0 317 -64t248 -186q93 -117 141 -273l-299 -51q-30 94 -72 147q-57 75 -146 115.5t-189 40.5q-101 0 -190.5 -40.5t-144.5 -115.5q-100 -127 -104 -373
q4 -243 104 -373q55 -75 144.5 -115.5t190.5 -38.5q99 -2 188.5 38.5t146.5 115.5z" />
    <glyph glyph-name="Egrave" unicode="&#xc8;" horiz-adv-x="1301" 
d="M1005 1884l-73 -209l-599 204l70 212zM1173 1246h-712v-333h584v-290h-584v-333h712v-290h-1002v1536h1002v-290z" />
    <glyph glyph-name="Eacute" unicode="&#xc9;" horiz-adv-x="1301" 
d="M969 1879l-600 -204l-72 209l601 207zM1173 1246h-712v-333h584v-290h-584v-333h712v-290h-1002v1536h1002v-290z" />
    <glyph glyph-name="Ecircumflex" unicode="&#xca;" horiz-adv-x="1301" 
d="M629 1822l-281 -145l-103 198l384 201l384 -201l-102 -198zM1173 1246h-712v-333h584v-290h-584v-333h712v-290h-1002v1536h1002v-290z" />
    <glyph glyph-name="Edieresis" unicode="&#xcb;" horiz-adv-x="1301" 
d="M550 2048v-256h-256v256h256zM1003 2048v-256h-256v256h256zM1173 1246h-712v-333h584v-290h-584v-333h712v-290h-1002v1536h1002v-290z" />
    <glyph glyph-name="Igrave" unicode="&#xcc;" horiz-adv-x="588" 
d="M567 1675l73 209l-602 207l-70 -212zM149 1536h290v-1536h-290v1536z" />
    <glyph glyph-name="Iacute" unicode="&#xcd;" horiz-adv-x="588" 
d="M38 1675l600 204l-71 212l-601 -207zM149 1536h290v-1536h-290v1536z" />
    <glyph glyph-name="Icircumflex" unicode="&#xce;" horiz-adv-x="588" 
d="M21 1677l282 145l282 -145l102 198l-384 201l-384 -201zM149 1536h290v-1536h-290v1536z" />
    <glyph glyph-name="Idieresis" unicode="&#xcf;" horiz-adv-x="588" 
d="M-62 2048h256v-256h-256v256zM390 2048h256v-256h-256v256zM149 1536h290v-1536h-290v1536z" />
    <glyph glyph-name="Eth" unicode="&#xd0;" horiz-adv-x="1523" 
d="M1350 1143q88 -175 88 -375t-88 -375q-94 -178 -271 -285.5t-373 -107.5h-527v657h-158v224h158v655h527q195 0 372.5 -107t271.5 -286zM1092 525q54 116 51 243q-3 140 -51 243q-57 113 -165.5 182t-235.5 70l-217 2v-384h283v-224h-283v-386l217 2q120 2 233 70.5
t168 181.5z" />
    <glyph glyph-name="Ntilde" unicode="&#xd1;" horiz-adv-x="1597" 
d="M1167 2014q10 -44 4.5 -96t-25.5 -85q-46 -74 -124 -94q-101 -26 -218 34q-13 6 -39 20.5t-41.5 22.5t-37.5 14t-40 5q-67 -5 -44 -79h-169q-10 44 -4.5 95.5t25.5 85.5q44 74 124 94q101 26 218 -34q12 -6 38.5 -20.5t42.5 -22.5t38 -14t41 -5q33 3 43.5 27t-1.5 52h169
zM427 1536l706 -1003v1003h294v-1536h-256l-704 1003v-1003h-296v1536h256z" />
    <glyph glyph-name="Ograve" unicode="&#xd2;" horiz-adv-x="1659" 
d="M1137 1675l73 209l-602 207l-70 -212zM830 -32q-169 0 -318.5 65t-246.5 187q-180 216 -180 548q0 334 180 550q98 124 246 187t319 63q170 0 317 -64t248 -186q172 -209 179 -550q-6 -337 -179 -548q-103 -125 -251.5 -188.5t-313.5 -63.5zM830 241q101 -2 189.5 38.5
t145.5 115.5q102 135 102 373q0 241 -102 373q-57 75 -145.5 115.5t-189.5 38.5q-101 2 -190.5 -38.5t-144.5 -115.5q-101 -128 -105 -373q4 -242 105 -373q55 -75 144.5 -115.5t190.5 -38.5z" />
    <glyph glyph-name="Oacute" unicode="&#xd3;" horiz-adv-x="1659" 
d="M589 1675l599 204l-70 212l-602 -207zM830 -32q-169 0 -318.5 65t-246.5 187q-180 216 -180 548q0 334 180 550q98 124 246 187t319 63q170 0 317 -64t248 -186q172 -209 179 -550q-6 -337 -179 -548q-103 -125 -251.5 -188.5t-313.5 -63.5zM830 241q101 -2 189.5 38.5
t145.5 115.5q102 135 102 373q0 241 -102 373q-57 75 -145.5 115.5t-189.5 38.5q-101 2 -190.5 -38.5t-144.5 -115.5q-101 -128 -105 -373q4 -242 105 -373q55 -75 144.5 -115.5t190.5 -38.5z" />
    <glyph glyph-name="Ocircumflex" unicode="&#xd4;" horiz-adv-x="1659" 
d="M548 1677l282 145l281 -145l103 198l-384 201l-384 -201zM830 -32q-169 0 -318.5 65t-246.5 187q-180 216 -180 548q0 334 180 550q98 124 246 187t319 63q170 0 317 -64t248 -186q172 -209 179 -550q-6 -337 -179 -548q-103 -125 -251.5 -188.5t-313.5 -63.5zM830 241
q101 -2 189.5 38.5t145.5 115.5q102 135 102 373q0 241 -102 373q-57 75 -145.5 115.5t-189.5 38.5q-101 2 -190.5 -38.5t-144.5 -115.5q-101 -128 -105 -373q4 -242 105 -373q55 -75 144.5 -115.5t190.5 -38.5z" />
    <glyph glyph-name="Otilde" unicode="&#xd5;" horiz-adv-x="1659" 
d="M1197 2067q10 -44 4.5 -96t-26.5 -85q-46 -74 -123 -94q-101 -26 -218 34q-13 6 -39 20.5t-41.5 22.5t-37.5 14t-40 5q-68 -6 -45 -79h-168q-10 44 -4.5 95.5t25.5 85.5q44 74 124 94q101 26 218 -34q12 -6 38.5 -20.5t42.5 -22.5t38 -14t41 -5q33 3 43.5 27t-1.5 52h169
zM830 -32q-169 0 -318.5 65t-246.5 187q-180 216 -180 548q0 334 180 550q98 124 246 187t319 63q170 0 317 -64t248 -186q172 -209 179 -550q-6 -337 -179 -548q-103 -125 -251.5 -188.5t-313.5 -63.5zM830 241q101 -2 189.5 38.5t145.5 115.5q102 135 102 373
q0 241 -102 373q-57 75 -145.5 115.5t-189.5 38.5q-101 2 -190.5 -38.5t-144.5 -115.5q-101 -128 -105 -373q4 -242 105 -373q55 -75 144.5 -115.5t190.5 -38.5z" />
    <glyph glyph-name="Odieresis" unicode="&#xd6;" horiz-adv-x="1659" 
d="M476 2048h256v-256h-256v256zM928 2048h256v-256h-256v256zM830 -32q-169 0 -318.5 65t-246.5 187q-180 216 -180 548q0 334 180 550q98 124 246 187t319 63q170 0 317 -64t248 -186q172 -209 179 -550q-6 -337 -179 -548q-103 -125 -251.5 -188.5t-313.5 -63.5zM830 241
q101 -2 189.5 38.5t145.5 115.5q102 135 102 373q0 241 -102 373q-57 75 -145.5 115.5t-189.5 38.5q-101 2 -190.5 -38.5t-144.5 -115.5q-101 -128 -105 -373q4 -242 105 -373q55 -75 144.5 -115.5t190.5 -38.5z" />
    <glyph glyph-name="multiply" unicode="&#xd7;" horiz-adv-x="1141" 
d="M1013 335l-158 -158l-283 284l-284 -284l-160 158l286 286l-284 281l158 158l284 -281l281 281l158 -158l-281 -283z" />
    <glyph glyph-name="Oslash" unicode="&#xd8;" horiz-adv-x="1659" 
d="M1598 1342l-130 -130q99 -175 106 -444q-6 -337 -179 -548q-103 -125 -251.5 -188.5t-313.5 -63.5q-269 0 -461 147l-115 -115l-192 192l132 132q-109 189 -109 444q0 334 180 550q98 124 246 187t319 63q269 0 461 -147l115 115zM390 768q4 -132 30 -218l668 668
q-115 80 -258 77q-101 2 -190.5 -38.5t-144.5 -115.5q-101 -128 -105 -373zM1267 768q0 115 -28 218l-667 -668q115 -80 258 -77q101 -2 189.5 38.5t145.5 115.5q102 135 102 373z" />
    <glyph glyph-name="Ugrave" unicode="&#xd9;" horiz-adv-x="1591" 
d="M1103 1675l72 209l-601 207l-71 -212zM1421 1536v-960q0 -219 -137 -388q-84 -108 -211.5 -164t-274.5 -56t-276.5 56.5t-214.5 163.5q-64 82 -100 184t-36 204v958l294 2v-956q0 -116 66 -211q46 -60 118 -94t149 -34q76 0 146 34t116 96q66 87 66 209v956h295z" />
    <glyph glyph-name="Uacute" unicode="&#xda;" horiz-adv-x="1591" 
d="M555 1675l599 204l-70 212l-602 -207zM1421 1536v-960q0 -219 -137 -388q-84 -108 -211.5 -164t-274.5 -56t-276.5 56.5t-214.5 163.5q-64 82 -100 184t-36 204v958l294 2v-956q0 -116 66 -211q46 -60 118 -94t149 -34q76 0 146 34t116 96q66 87 66 209v956h295z" />
    <glyph glyph-name="Ucircumflex" unicode="&#xdb;" horiz-adv-x="1591" 
d="M538 1677l281 145l282 -145l102 198l-384 201l-384 -201zM1421 1536v-960q0 -219 -137 -388q-84 -108 -211.5 -164t-274.5 -56t-276.5 56.5t-214.5 163.5q-64 82 -100 184t-36 204v958l294 2v-956q0 -116 66 -211q46 -60 118 -94t149 -34q76 0 146 34t116 96
q66 87 66 209v956h295z" />
    <glyph glyph-name="Udieresis" unicode="&#xdc;" horiz-adv-x="1591" 
d="M442 2048h256v-256h-256v256zM894 2048h256v-256h-256v256zM1421 1536v-960q0 -219 -137 -388q-84 -108 -211.5 -164t-274.5 -56t-276.5 56.5t-214.5 163.5q-64 82 -100 184t-36 204v958l294 2v-956q0 -116 66 -211q46 -60 118 -94t149 -34q76 0 146 34t116 96
q66 87 66 209v956h295z" />
    <glyph glyph-name="Yacute" unicode="&#xdd;" horiz-adv-x="1344" 
d="M431 1675l599 204l-70 212l-602 -207zM1005 1536h339l-525 -911v-625h-294v625l-525 911h339l333 -578z" />
    <glyph glyph-name="Thorn" unicode="&#xde;" horiz-adv-x="1369" 
d="M1327 768q3 -162 -102 -301q-69 -94 -178 -149.5t-234 -55.5h-348v-262h-294v1536h294v-260h348q78 0 156 -24q162 -51 256 -183q99 -131 102 -301zM986 627q50 68 47 141q-3 91 -56 151q-32 37 -77 60.5t-89 23.5h-346v-470h346q45 0 93.5 25t81.5 69z" />
    <glyph glyph-name="germandbls" unicode="&#xdf;" horiz-adv-x="1344" 
d="M149 0v1131q0 73 28.5 145.5t80.5 129.5q70 79 168 119.5t203 40.5q128 0 241 -56.5t180 -159.5q67 -104 64 -217q0 -136 -86 -250q-2 -3 -7.5 -8.5t-7.5 -8.5q72 -54 109.5 -93t70.5 -103q44 -88 44 -203q0 -135 -67 -249t-195 -171q-49 -22 -113 -33t-105 -12.5
t-111 -1.5h-87v252h87q121 0 199 38q58 27 86.5 77.5t28.5 110.5q0 95 -83 156q-53 39 -111 53.5t-139 16.5v245q140 16 190 90q28 44 28 94q0 40 -24 77q-30 48 -82.5 74t-113.5 26q-115 0 -179 -73q-43 -49 -43 -106v-1131h-254z" />
    <glyph glyph-name="agrave" unicode="&#xe0;" horiz-adv-x="1260" 
d="M979 1291l73 209l-602 207l-70 -212zM384 813l-265 126q17 25 24 34q149 209 452 209q340 0 476 -228q62 -103 62 -231v-723h-254v196q-15 -43 -57 -86t-86 -69q-117 -71 -269 -71q-83 0 -164 36t-128 92q-49 67 -69.5 118.5t-20.5 122.5q0 92 51.5 176.5t134.5 133.5
q37 20 70.5 33.5t74.5 23t65.5 14t83.5 12.5t88 13l185 25q-17 71 -85 107q-66 39 -164 36q-123 0 -182 -70q-15 -15 -23 -30zM845 538l-214 -41q-42 -8 -63 -12.5t-57 -13t-55 -18t-40.5 -23.5t-31.5 -32t-11 -40q-3 -52 40 -89t112 -34q65 2 125.5 22.5t111.5 67t68 112.5
q15 54 15 101z" />
    <glyph glyph-name="aacute" unicode="&#xe1;" horiz-adv-x="1260" 
d="M399 1291l599 204l-70 212l-602 -207zM384 813l-265 126q17 25 24 34q149 209 452 209q340 0 476 -228q62 -103 62 -231v-723h-254v196q-15 -43 -57 -86t-86 -69q-117 -71 -269 -71q-83 0 -164 36t-128 92q-49 67 -69.5 118.5t-20.5 122.5q0 92 51.5 176.5t134.5 133.5
q37 20 70.5 33.5t74.5 23t65.5 14t83.5 12.5t88 13l185 25q-17 71 -85 107q-66 39 -164 36q-123 0 -182 -70q-15 -15 -23 -30zM845 538l-214 -41q-42 -8 -63 -12.5t-57 -13t-55 -18t-40.5 -23.5t-31.5 -32t-11 -40q-3 -52 40 -89t112 -34q65 2 125.5 22.5t111.5 67t68 112.5
q15 54 15 101z" />
    <glyph glyph-name="acircumflex" unicode="&#xe2;" horiz-adv-x="1260" 
d="M358 1293l282 145l282 -145l102 198l-384 201l-384 -201zM384 813l-265 126q17 25 24 34q149 209 452 209q340 0 476 -228q62 -103 62 -231v-723h-254v196q-15 -43 -57 -86t-86 -69q-117 -71 -269 -71q-83 0 -164 36t-128 92q-49 67 -69.5 118.5t-20.5 122.5
q0 92 51.5 176.5t134.5 133.5q37 20 70.5 33.5t74.5 23t65.5 14t83.5 12.5t88 13l185 25q-17 71 -85 107q-66 39 -164 36q-123 0 -182 -70q-15 -15 -23 -30zM845 538l-214 -41q-42 -8 -63 -12.5t-57 -13t-55 -18t-40.5 -23.5t-31.5 -32t-11 -40q-3 -52 40 -89t112 -34
q65 2 125.5 22.5t111.5 67t68 112.5q15 54 15 101z" />
    <glyph glyph-name="atilde" unicode="&#xe3;" horiz-adv-x="1260" 
d="M1007 1630q10 -44 4.5 -96t-25.5 -85q-46 -74 -124 -94q-101 -26 -218 34q-13 6 -39 20.5t-41.5 22.5t-37.5 14t-40 5q-67 -5 -44 -79h-169q-10 44 -4.5 95.5t25.5 85.5q44 74 124 94q101 26 218 -34q12 -6 38.5 -20.5t42.5 -22.5t38 -14t41 -5q33 3 43.5 27t-1.5 52h169
zM384 813l-265 126q17 25 24 34q149 209 452 209q340 0 476 -228q62 -103 62 -231v-723h-254v196q-15 -43 -57 -86t-86 -69q-117 -71 -269 -71q-83 0 -164 36t-128 92q-49 67 -69.5 118.5t-20.5 122.5q0 92 51.5 176.5t134.5 133.5q37 20 70.5 33.5t74.5 23t65.5 14
t83.5 12.5t88 13l185 25q-17 71 -85 107q-66 39 -164 36q-123 0 -182 -70q-15 -15 -23 -30zM845 538l-214 -41q-42 -8 -63 -12.5t-57 -13t-55 -18t-40.5 -23.5t-31.5 -32t-11 -40q-3 -52 40 -89t112 -34q65 2 125.5 22.5t111.5 67t68 112.5q15 54 15 101z" />
    <glyph glyph-name="adieresis" unicode="&#xe4;" horiz-adv-x="1260" 
d="M297 1664h256v-256h-256v256zM749 1664h256v-256h-256v256zM384 813l-265 126q17 25 24 34q149 209 452 209q340 0 476 -228q62 -103 62 -231v-723h-254v196q-15 -43 -57 -86t-86 -69q-117 -71 -269 -71q-83 0 -164 36t-128 92q-49 67 -69.5 118.5t-20.5 122.5
q0 92 51.5 176.5t134.5 133.5q37 20 70.5 33.5t74.5 23t65.5 14t83.5 12.5t88 13l185 25q-17 71 -85 107q-66 39 -164 36q-123 0 -182 -70q-15 -15 -23 -30zM845 538l-214 -41q-42 -8 -63 -12.5t-57 -13t-55 -18t-40.5 -23.5t-31.5 -32t-11 -40q-3 -52 40 -89t112 -34
q65 2 125.5 22.5t111.5 67t68 112.5q15 54 15 101z" />
    <glyph glyph-name="aring" unicode="&#xe5;" horiz-adv-x="1260" 
d="M1071 954q62 -103 62 -231v-723h-254v196q-15 -43 -57 -86t-86 -69q-117 -71 -269 -71q-83 0 -164 36t-128 92q-49 67 -69.5 118.5t-20.5 122.5q0 92 51.5 176.5t134.5 133.5q37 20 70.5 33.5t74.5 23t65.5 14t83.5 12.5t88 13l185 25q-17 71 -85 107q-66 39 -164 36
q-123 0 -182 -70q-15 -15 -23 -30l-265 126q17 25 24 34q75 109 203 164q-52 83 -52 175q0 136 97.5 233.5t233.5 97.5t233.5 -97.5t97.5 -233.5q0 -106 -62 -192q113 -59 177 -166zM625 1440q-53 0 -90.5 -38t-37.5 -90t37.5 -90t90.5 -38t90.5 38t37.5 90t-37.5 90
t-90.5 38zM830 437q15 54 15 101l-214 -41q-42 -8 -63 -12.5t-57 -13t-55 -18t-40.5 -23.5t-31.5 -32t-11 -40q-3 -52 40 -89t112 -34q65 2 125.5 22.5t111.5 67t68 112.5z" />
    <glyph glyph-name="ae" unicode="&#xe6;" horiz-adv-x="2028" 
d="M1139 497q9 -95 56 -160q33 -47 85.5 -72.5t112.5 -25.5q129 0 198 98q4 6 10.5 18t11.5 18l271 -126q-16 -31 -64 -93q-81 -95 -193.5 -144t-233.5 -42q-280 16 -418 192l-26 34q-5 -10 -10 -15q-88 -113 -203 -164q-91 -40 -214.5 -43.5t-195.5 26.5q-112 45 -172 130
q-53 75 -65 164t24 179q29 64 77.5 114t97.5 74q80 39 155.5 51.5t213.5 12.5h190q0 50 -24.5 91t-67.5 63q-63 36 -170 36q-90 0 -139 -36q-34 -20 -62 -64l-265 126q8 14 24 34q71 104 188.5 156.5t261.5 52.5q166 0 301 -62q61 -31 117 -87q74 74 173.5 112.5t208.5 38.5
q123 0 233 -49t183 -143q134 -168 134 -416q0 -27 -4 -79h-800zM1393 913q-131 0 -198 -98q-30 -44 -43 -94h482q-13 50 -43 94q-67 98 -198 98zM783 346q10 12 18 24t15 28t9.5 22.5t9.5 28.5t8 25h-133q-132 0 -175 -3t-85 -21.5t-62 -44.5q-16 -17 -15.5 -53.5
t22.5 -65.5q39 -47 100 -51q27 -5 76 3t88 24q79 31 124 84z" />
    <glyph glyph-name="ccedilla" unicode="&#xe7;" horiz-adv-x="1245" 
d="M877 337q13 19 21 36l273 -117q-38 -64 -64 -94q-65 -76 -156 -124t-192 -61l-17 -54q68 -34 103 -92q32 -55 28.5 -124t-39.5 -121q-39 -55 -96 -81.5t-124 -18.5q-61 5 -123 38l62 167q40 -13 64 -13q34 0 49 21q13 19 8 41q-5 21 -27.5 37t-43 22.5t-65.5 19.5l53 153
q-107 11 -202 60t-163 130q-141 169 -141 414q0 244 141 416q80 96 196 144t244 48q130 0 246 -49.5t195 -142.5q39 -48 64 -98l-271 -117q-10 23 -23 38q-35 47 -90.5 72.5t-120.5 25.5q-63 0 -118.5 -25.5t-90.5 -72.5q-63 -83 -67 -239q4 -156 67 -239q71 -96 209 -96
q65 0 121 24.5t90 71.5z" />
    <glyph glyph-name="egrave" unicode="&#xe8;" 
d="M1105 1500l-72 -209l-600 204l70 212zM399 497q15 -101 60 -160q35 -47 90.5 -72.5t118.5 -25.5q136 0 211 98q4 6 10 18t11 18l288 -126q-27 -46 -68 -93q-86 -96 -204.5 -144.5t-247.5 -41.5q-294 15 -442 192q-147 179 -141 416q6 255 141 416q79 93 195.5 142.5
t246.5 49.5q131 0 246.5 -49t194.5 -143q141 -169 141 -416q0 -27 -4 -79h-847zM668 913q-139 0 -209 -98q-29 -39 -47 -94h512q-17 53 -45 94q-73 98 -211 98z" />
    <glyph glyph-name="eacute" unicode="&#xe9;" 
d="M1003 1495l-600 -204l-72 209l601 207zM399 497q15 -101 60 -160q35 -47 90.5 -72.5t118.5 -25.5q136 0 211 98q4 6 10 18t11 18l288 -126q-27 -46 -68 -93q-86 -96 -204.5 -144.5t-247.5 -41.5q-294 15 -442 192q-147 179 -141 416q6 255 141 416q79 93 195.5 142.5
t246.5 49.5q131 0 246.5 -49t194.5 -143q141 -169 141 -416q0 -27 -4 -79h-847zM668 913q-139 0 -209 -98q-29 -39 -47 -94h512q-17 53 -45 94q-73 98 -211 98z" />
    <glyph glyph-name="ecircumflex" unicode="&#xea;" 
d="M668 1438l-282 -145l-102 198l384 201l384 -201l-103 -198zM399 497q15 -101 60 -160q35 -47 90.5 -72.5t118.5 -25.5q136 0 211 98q4 6 10 18t11 18l288 -126q-27 -46 -68 -93q-86 -96 -204.5 -144.5t-247.5 -41.5q-294 15 -442 192q-147 179 -141 416q6 255 141 416
q79 93 195.5 142.5t246.5 49.5q131 0 246.5 -49t194.5 -143q141 -169 141 -416q0 -27 -4 -79h-847zM668 913q-139 0 -209 -98q-29 -39 -47 -94h512q-17 53 -45 94q-73 98 -211 98z" />
    <glyph glyph-name="edieresis" unicode="&#xeb;" 
d="M612 1664v-256h-256v256h256zM1065 1664v-256h-256v256h256zM399 497q15 -101 60 -160q35 -47 90.5 -72.5t118.5 -25.5q136 0 211 98q4 6 10 18t11 18l288 -126q-27 -46 -68 -93q-86 -96 -204.5 -144.5t-247.5 -41.5q-294 15 -442 192q-147 179 -141 416q6 255 141 416
q79 93 195.5 142.5t246.5 49.5q131 0 246.5 -49t194.5 -143q141 -169 141 -416q0 -27 -4 -79h-847zM668 913q-139 0 -209 -98q-29 -39 -47 -94h512q-17 53 -45 94q-73 98 -211 98z" />
    <glyph glyph-name="igrave" unicode="&#xec;" horiz-adv-x="631" 
d="M580 1291l73 209l-602 207l-70 -212zM171 1152h290v-1152h-290v1152z" />
    <glyph glyph-name="iacute" unicode="&#xed;" horiz-adv-x="631" 
d="M51 1291l600 204l-71 212l-601 -207zM171 1152h290v-1152h-290v1152z" />
    <glyph glyph-name="icircumflex" unicode="&#xee;" horiz-adv-x="631" 
d="M55 1293l282 145l282 -145l102 198l-384 201l-384 -201zM171 1152h290v-1152h-290v1152z" />
    <glyph glyph-name="idieresis" unicode="&#xef;" horiz-adv-x="631" 
d="M-38 1664h256v-256h-256v256zM414 1664h256v-256h-256v256zM171 1152h290v-1152h-290v1152z" />
    <glyph glyph-name="eth" unicode="&#xf0;" horiz-adv-x="1282" 
d="M1092 1246q43 -102 74 -254t31 -290v-158q0 -249 -143 -405q-75 -84 -182.5 -127.5t-229.5 -43.5q-124 0 -232 44.5t-182 126.5q-143 156 -143 396q0 244 143 397q73 84 182 128.5t232 44.5q115 0 211 -36q5 -1 13.5 -5.5t10.5 -5.5q-15 100 -56 145q-32 37 -42 45
l-92 -115l-177 138l72 92q-65 22 -151 28l43 230q135 -3 268 -53l122 154l177 -139l-102 -130q101 -87 153 -207zM830 333q62 70 62 202t-62 205q-65 77 -188 77q-122 0 -190 -77q-59 -69 -59 -205q0 -135 59 -202q67 -79 190 -79q124 0 188 79z" />
    <glyph glyph-name="ntilde" unicode="&#xf1;" 
d="M525 1372h-169q-10 44 -4.5 95t26.5 86q44 74 123 94q101 26 218 -34q12 -6 38.5 -20.5t42.5 -22.5t38 -14t41 -5q33 3 44 27t-1 52h168q10 -44 4.5 -96t-25.5 -85q-46 -74 -124 -94q-101 -26 -218 34q-13 6 -39 20.5t-41.5 22.5t-37 14t-39.5 5q-68 -6 -45 -79z
M1073 1056q95 -87 125.5 -197.5t30.5 -282.5v-576h-295v576q0 186 -76 262q-61 64 -182 64q-80 -3 -136 -44q-66 -49 -86 -148q-12 -56 -12 -209v-501h-293v1152h256v-79q131 104 312 111q96 3 191.5 -31.5t164.5 -96.5z" />
    <glyph glyph-name="ograve" unicode="&#xf2;" horiz-adv-x="1337" 
d="M954 1291l72 209l-601 207l-71 -212zM670 -32q-132 0 -247 49t-195 143q-143 178 -143 416q0 245 143 416q79 94 195 143t247 49q129 0 245.5 -49.5t195.5 -142.5q141 -170 141 -416q0 -245 -141 -416q-79 -93 -195 -142.5t-246 -49.5zM459 337q35 -47 90.5 -72.5
t120.5 -25.5t120.5 25.5t90.5 72.5q64 84 64 239q0 157 -64 241q-71 96 -211 96t-211 -96q-66 -86 -66 -241q0 -153 66 -239z" />
    <glyph glyph-name="oacute" unicode="&#xf3;" horiz-adv-x="1337" 
d="M384 1291l599 204l-70 212l-602 -207zM668 -32q-130 0 -246.5 49.5t-195.5 142.5q-141 171 -141 416q0 246 141 416q79 93 196 142.5t246 49.5q131 0 246.5 -49t194.5 -143q143 -171 143 -416q0 -238 -143 -416q-80 -94 -194.5 -143t-246.5 -49zM879 337q66 86 66 239
q0 155 -66 241q-71 96 -211 96t-211 -96q-64 -84 -64 -241q0 -155 64 -239q35 -47 90.5 -72.5t120.5 -25.5t120.5 25.5t90.5 72.5z" />
    <glyph glyph-name="ocircumflex" unicode="&#xf4;" horiz-adv-x="1337" 
d="M388 1293l282 145l281 -145l103 198l-384 201l-384 -201zM668 -32q-130 0 -246.5 49.5t-195.5 142.5q-141 171 -141 416q0 246 141 416q79 93 196 142.5t246 49.5q131 0 246.5 -49t194.5 -143q143 -171 143 -416q0 -238 -143 -416q-80 -94 -194.5 -143t-246.5 -49z
M879 337q66 86 66 239q0 155 -66 241q-71 96 -211 96t-211 -96q-64 -84 -64 -241q0 -155 64 -239q35 -47 90.5 -72.5t120.5 -25.5t120.5 25.5t90.5 72.5z" />
    <glyph glyph-name="otilde" unicode="&#xf5;" horiz-adv-x="1337" 
d="M1037 1630q10 -44 4.5 -96t-26.5 -85q-46 -74 -123 -94q-101 -26 -218 34q-13 6 -39 20.5t-41.5 22.5t-37.5 14t-40 5q-68 -6 -45 -79h-168q-10 44 -4.5 95.5t25.5 85.5q44 74 124 94q101 26 218 -34q12 -6 38.5 -20.5t42.5 -22.5t38 -14t41 -5q33 3 43.5 27t-1.5 52h169
zM668 -32q-130 0 -246.5 49.5t-195.5 142.5q-141 171 -141 416q0 246 141 416q79 93 196 142.5t246 49.5q131 0 246.5 -49t194.5 -143q143 -171 143 -416q0 -238 -143 -416q-80 -94 -194.5 -143t-246.5 -49zM879 337q66 86 66 239q0 155 -66 241q-71 96 -211 96t-211 -96
q-64 -84 -64 -241q0 -155 64 -239q35 -47 90.5 -72.5t120.5 -25.5t120.5 25.5t90.5 72.5z" />
    <glyph glyph-name="odieresis" unicode="&#xf6;" horiz-adv-x="1337" 
d="M316 1664h256v-256h-256v256zM768 1664h256v-256h-256v256zM668 -32q-130 0 -246.5 49.5t-195.5 142.5q-141 171 -141 416q0 246 141 416q79 93 196 142.5t246 49.5q131 0 246.5 -49t194.5 -143q143 -171 143 -416q0 -238 -143 -416q-80 -94 -194.5 -143t-246.5 -49z
M879 337q66 86 66 239q0 155 -66 241q-71 96 -211 96t-211 -96q-64 -84 -64 -241q0 -155 64 -239q35 -47 90.5 -72.5t120.5 -25.5t120.5 25.5t90.5 72.5z" />
    <glyph glyph-name="oslash" unicode="&#xf8;" horiz-adv-x="1337" 
d="M1278 990l-100 -98q74 -134 74 -316q0 -238 -143 -416q-80 -94 -194.5 -143t-246.5 -49q-181 0 -325 92l-91 -92l-192 192l100 100q-75 138 -75 316q0 246 141 416q79 93 196 142.5t246 49.5q187 0 326 -92l92 92zM393 576q0 -27 4 -79l392 390q-55 26 -121 26
q-140 0 -211 -96q-64 -84 -64 -241zM945 576q0 25 -4 77l-393 -388q55 -26 120 -26t120.5 25.5t90.5 72.5q66 86 66 239z" />
    <glyph glyph-name="ugrave" unicode="&#xf9;" 
d="M1047 1500l-72 -209l-600 204l71 212zM894 1152h292v-1152h-256v79q-131 -104 -311 -111q-96 -3 -192 31.5t-165 96.5q-95 87 -125 197t-30 283v576h294v-576q0 -185 77 -262q61 -64 181 -64q81 3 137 44q65 48 85 148q13 60 13 209v501z" />
    <glyph glyph-name="uacute" unicode="&#xfa;" 
d="M994 1495l-599 -204l-73 209l602 207zM894 1152h292v-1152h-256v79q-131 -104 -311 -111q-96 -3 -192 31.5t-165 96.5q-95 87 -125 197t-30 283v576h294v-576q0 -185 77 -262q61 -64 181 -64q81 3 137 44q65 48 85 148q13 60 13 209v501z" />
    <glyph glyph-name="ucircumflex" unicode="&#xfb;" 
d="M646 1438l-281 -145l-103 198l384 201l384 -201l-102 -198zM894 1152h292v-1152h-256v79q-131 -104 -311 -111q-96 -3 -192 31.5t-165 96.5q-95 87 -125 197t-30 283v576h294v-576q0 -185 77 -262q61 -64 181 -64q81 3 137 44q65 48 85 148q13 60 13 209v501z" />
    <glyph glyph-name="udieresis" unicode="&#xfc;" 
d="M548 1664v-256h-256v256h256zM1001 1664v-256h-256v256h256zM894 1152h292v-1152h-256v79q-131 -104 -311 -111q-96 -3 -192 31.5t-165 96.5q-95 87 -125 197t-30 283v576h294v-576q0 -185 77 -262q61 -64 181 -64q81 3 137 44q65 48 85 148q13 60 13 209v501z" />
    <glyph glyph-name="yacute" unicode="&#xfd;" horiz-adv-x="1222" 
d="M386 1291l600 204l-71 212l-601 -207zM913 1152h288l-491 -1308q-77 -205 -183 -283q-57 -44 -121.5 -58.5t-155.5 -14.5h-15v275l32 -4q27 -3 60 0.5t48 12.5q24 14 54 66t57 128l-443 1186h290l286 -817z" />
    <glyph glyph-name="thorn" unicode="&#xfe;" horiz-adv-x="1354" 
d="M1135 1001q134 -168 134 -425q0 -262 -134 -425q-70 -87 -176 -135t-221 -48q-171 0 -296 77v-557h-293v2048h293v-431q131 79 281 79q123 0 231.5 -47t180.5 -136zM905 329q57 83 57 247q0 156 -62 247q-67 103 -219 103q-126 0 -195 -81q-81 -94 -81 -269
q0 -178 81 -269q75 -81 205 -81q147 0 214 103z" />
    <glyph glyph-name="ydieresis" unicode="&#xff;" horiz-adv-x="1222" 
d="M269 1664h256v-256h-256v256zM721 1664h256v-256h-256v256zM913 1152h288l-491 -1308q-77 -205 -183 -283q-57 -44 -121.5 -58.5t-155.5 -14.5h-15v275l32 -4q27 -3 60 0.5t48 12.5q24 14 54 66t57 128l-443 1186h290l286 -817z" />
    <glyph glyph-name="Amacron" unicode="&#x100;" horiz-adv-x="1393" 
d="M988 2014v-222h-581v222h581zM1084 0l-75 239h-627l-73 -239h-298l469 1536h433l469 -1536h-298zM465 512h461l-233 751z" />
    <glyph glyph-name="amacron" unicode="&#x101;" horiz-adv-x="1260" 
d="M373 1630h581v-222h-581v222zM384 813l-265 126q17 25 24 34q149 209 452 209q340 0 476 -228q62 -103 62 -231v-723h-254v196q-15 -43 -57 -86t-86 -69q-117 -71 -269 -71q-83 0 -164 36t-128 92q-49 67 -69.5 118.5t-20.5 122.5q0 92 51.5 176.5t134.5 133.5
q37 20 70.5 33.5t74.5 23t65.5 14t83.5 12.5t88 13l185 25q-17 71 -85 107q-66 39 -164 36q-123 0 -182 -70q-15 -15 -23 -30zM845 538l-214 -41q-42 -8 -63 -12.5t-57 -13t-55 -18t-40.5 -23.5t-31.5 -32t-11 -40q-3 -52 40 -89t112 -34q65 2 125.5 22.5t111.5 67t68 112.5
q15 54 15 101z" />
    <glyph glyph-name="Abreve" unicode="&#x102;" horiz-adv-x="1393" 
d="M715 1664q-141 0 -240.5 99t-99.5 240h224q0 -48 34 -81.5t82 -33.5t81.5 33.5t33.5 81.5h224q0 -141 -99 -240t-240 -99zM1084 0l-75 239h-627l-73 -239h-298l469 1536h433l469 -1536h-298zM465 512h461l-233 751z" />
    <glyph glyph-name="abreve" unicode="&#x103;" horiz-adv-x="1260" 
d="M768 1619h224q0 -141 -99 -240t-240 -99t-240 99t-99 240h224q0 -48 33.5 -81.5t81.5 -33.5t81.5 33.5t33.5 81.5zM384 813l-265 126q17 25 24 34q149 209 452 209q340 0 476 -228q62 -103 62 -231v-723h-254v196q-15 -43 -57 -86t-86 -69q-117 -71 -269 -71
q-83 0 -164 36t-128 92q-49 67 -69.5 118.5t-20.5 122.5q0 92 51.5 176.5t134.5 133.5q37 20 70.5 33.5t74.5 23t65.5 14t83.5 12.5t88 13l185 25q-17 71 -85 107q-66 39 -164 36q-123 0 -182 -70q-15 -15 -23 -30zM845 538l-214 -41q-42 -8 -63 -12.5t-57 -13t-55 -18
t-40.5 -23.5t-31.5 -32t-11 -40q-3 -52 40 -89t112 -34q65 2 125.5 22.5t111.5 67t68 112.5q15 54 15 101z" />
    <glyph glyph-name="Aogonek" unicode="&#x104;" horiz-adv-x="1393" 
d="M1308 -267l100 -132q-34 -62 -102 -92q-74 -36 -156.5 -13.5t-134.5 88.5q-45 51 -54 130t22 154q34 76 99 141l-73 230h-627l-73 -239h-298l469 1536h433l469 -1536h-2q-72 -49 -111 -96q-55 -55 -81 -113q-17 -48 5 -70q18 -22 52.5 -16.5t62.5 28.5zM465 512h461
l-233 751z" />
    <glyph glyph-name="aogonek" unicode="&#x105;" horiz-adv-x="1260" 
d="M1060 -267l101 -132q-34 -61 -103 -92q-74 -36 -156 -13.5t-134 88.5q-45 51 -54 130t22 154q44 103 143 181v147q-15 -43 -57 -86t-86 -69q-117 -71 -269 -71q-83 0 -164 36t-128 92q-49 67 -69.5 118.5t-20.5 122.5q0 92 51.5 176.5t134.5 133.5q37 20 70.5 33.5
t74.5 23t65.5 14t83.5 12.5t88 13l185 25q-17 71 -85 107q-66 39 -164 36q-123 0 -182 -70q-15 -15 -23 -30l-265 126q17 25 24 34q149 209 452 209q340 0 476 -228q62 -103 62 -231v-723q-72 -49 -111 -96q-55 -55 -81 -113q-18 -48 4 -70q18 -22 52.5 -16.5t62.5 28.5z
M830 437q15 54 15 101l-214 -41q-42 -8 -63 -12.5t-57 -13t-55 -18t-40.5 -23.5t-31.5 -32t-11 -40q-3 -52 40 -89t112 -34q65 2 125.5 22.5t111.5 67t68 112.5z" />
    <glyph glyph-name="Cacute" unicode="&#x106;" horiz-adv-x="1623" 
d="M580 1675l600 204l-71 212l-601 -207zM1235 531l288 -83q-47 -133 -126 -228q-103 -125 -251.5 -188.5t-313.5 -63.5q-170 0 -319.5 66.5t-245.5 185.5q-182 222 -182 548q0 332 182 550q98 124 246 187t319 63q170 0 317 -64t248 -186q93 -117 141 -273l-299 -51
q-30 94 -72 147q-57 75 -146 115.5t-189 40.5q-101 0 -190.5 -40.5t-144.5 -115.5q-100 -127 -104 -373q4 -243 104 -373q55 -75 144.5 -115.5t190.5 -38.5q99 -2 188.5 38.5t146.5 115.5q45 62 68 136z" />
    <glyph glyph-name="cacute" unicode="&#x107;" horiz-adv-x="1245" 
d="M386 1291l600 204l-71 212l-601 -207zM1171 894l-271 -117q-10 23 -23 38q-35 47 -90.5 72.5t-120.5 25.5q-63 0 -118.5 -25.5t-90.5 -72.5q-63 -83 -67 -239q4 -156 67 -239q71 -96 209 -96q65 0 121 24.5t90 71.5q13 19 21 36l273 -117q-38 -64 -64 -94
q-80 -94 -197 -144.5t-244 -47.5q-128 -3 -244.5 47t-195.5 145q-141 169 -141 414q0 244 141 416q80 96 196 144t244 48q130 0 246 -49.5t195 -142.5q39 -48 64 -98z" />
    <glyph glyph-name="Cdotaccent" unicode="&#x10a;" horiz-adv-x="1623" 
d="M710 2101h291v-290h-291v290zM1235 531l288 -83q-47 -133 -126 -228q-103 -125 -251.5 -188.5t-313.5 -63.5q-170 0 -319.5 66.5t-245.5 185.5q-182 222 -182 548q0 332 182 550q98 124 246 187t319 63q170 0 317 -64t248 -186q93 -117 141 -273l-299 -51q-30 94 -72 147
q-57 75 -146 115.5t-189 40.5q-101 0 -190.5 -40.5t-144.5 -115.5q-100 -127 -104 -373q4 -243 104 -373q55 -75 144.5 -115.5t190.5 -38.5q99 -2 188.5 38.5t146.5 115.5q45 62 68 136z" />
    <glyph glyph-name="cdotaccent" unicode="&#x10b;" horiz-adv-x="1245" 
d="M550 1664h291v-290h-291v290zM1171 894l-271 -117q-10 23 -23 38q-35 47 -90.5 72.5t-120.5 25.5q-63 0 -118.5 -25.5t-90.5 -72.5q-63 -83 -67 -239q4 -156 67 -239q71 -96 209 -96q65 0 121 24.5t90 71.5q13 19 21 36l273 -117q-38 -64 -64 -94q-80 -94 -197 -144.5
t-244 -47.5q-128 -3 -244.5 47t-195.5 145q-141 169 -141 414q0 244 141 416q80 96 196 144t244 48q130 0 246 -49.5t195 -142.5q39 -48 64 -98z" />
    <glyph glyph-name="Ccaron" unicode="&#x10c;" horiz-adv-x="1623" 
d="M563 2076l-102 -199l384 -200l384 200l-103 199l-281 -145zM1235 531l288 -83q-47 -133 -126 -228q-103 -125 -251.5 -188.5t-313.5 -63.5q-170 0 -319.5 66.5t-245.5 185.5q-182 222 -182 548q0 332 182 550q98 124 246 187t319 63q170 0 317 -64t248 -186
q93 -117 141 -273l-299 -51q-30 94 -72 147q-57 75 -146 115.5t-189 40.5q-101 0 -190.5 -40.5t-144.5 -115.5q-100 -127 -104 -373q4 -243 104 -373q55 -75 144.5 -115.5t190.5 -38.5q99 -2 188.5 38.5t146.5 115.5q45 62 68 136z" />
    <glyph glyph-name="ccaron" unicode="&#x10d;" horiz-adv-x="1245" 
d="M397 1692l-103 -199l384 -200l384 200l-102 199l-282 -145zM1171 894l-271 -117q-10 23 -23 38q-35 47 -90.5 72.5t-120.5 25.5q-63 0 -118.5 -25.5t-90.5 -72.5q-63 -83 -67 -239q4 -156 67 -239q71 -96 209 -96q65 0 121 24.5t90 71.5q13 19 21 36l273 -117
q-38 -64 -64 -94q-80 -94 -197 -144.5t-244 -47.5q-128 -3 -244.5 47t-195.5 145q-141 169 -141 414q0 244 141 416q80 96 196 144t244 48q130 0 246 -49.5t195 -142.5q39 -48 64 -98z" />
    <glyph glyph-name="Dcaron" unicode="&#x10e;" horiz-adv-x="1514" 
d="M1105 1877l-384 -200l-384 200l102 199l282 -145l282 145zM1342 1143q87 -173 87 -375t-87 -375q-94 -178 -271 -285.5t-373 -107.5h-527v1536h527q195 0 372.5 -107t271.5 -286zM1084 525q54 116 51 243q-3 140 -51 243q-57 113 -165.5 182t-235.5 70l-218 2v-994l218 2
q120 2 233 70.5t168 181.5z" />
    <glyph glyph-name="dcaron" unicode="&#x10f;" horiz-adv-x="1723" 
d="M913 1105v431h292v-1536h-256v70q-135 -102 -332 -102q-115 0 -221 48t-176 135q-135 164 -135 425q0 256 135 425q72 90 180 136.5t231 46.5q151 0 282 -79zM1344 1536h290v-290q0 -158 -73 -234.5t-217 -53.5l17 121q74 -7 109 40.5t23 126.5h-149v290zM868 307
q81 91 81 269q0 175 -81 269q-69 81 -194 81q-153 0 -220 -103q-61 -89 -61 -247q0 -164 57 -247q67 -103 213 -103q130 0 205 81z" />
    <glyph glyph-name="Dcroat" unicode="&#x110;" horiz-adv-x="1523" 
d="M1350 1143q88 -175 88 -375t-88 -375q-94 -178 -271 -285.5t-373 -107.5h-527v657h-158v224h158v655h527q195 0 372.5 -107t271.5 -286zM1092 525q54 116 51 243q-3 140 -51 243q-57 113 -165.5 182t-235.5 70l-217 2v-384h283v-224h-283v-386l217 2q120 2 233 70.5
t168 181.5z" />
    <glyph glyph-name="dcroat" unicode="&#x111;" horiz-adv-x="1354" 
d="M1316 1459v-222h-111v-1237h-256v70q-135 -102 -332 -102q-115 0 -221 48t-176 135q-135 164 -135 425q0 256 135 425q72 90 180 136.5t231 46.5q151 0 282 -79v132h-177v222h177v77h292v-77h111zM868 307q81 91 81 269q0 175 -81 269q-69 81 -194 81q-153 0 -220 -103
q-61 -89 -61 -247q0 -164 57 -247q67 -103 213 -103q130 0 205 81z" />
    <glyph glyph-name="Emacron" unicode="&#x112;" horiz-adv-x="1301" 
d="M951 2014v-222h-580v222h580zM1173 1246h-712v-333h584v-290h-584v-333h712v-290h-1002v1536h1002v-290z" />
    <glyph glyph-name="emacron" unicode="&#x113;" 
d="M979 1630v-222h-580v222h580zM399 497q15 -101 60 -160q35 -47 90.5 -72.5t118.5 -25.5q136 0 211 98q4 6 10 18t11 18l288 -126q-27 -46 -68 -93q-86 -96 -204.5 -144.5t-247.5 -41.5q-294 15 -442 192q-147 179 -141 416q6 255 141 416q79 93 195.5 142.5t246.5 49.5
q131 0 246.5 -49t194.5 -143q141 -169 141 -416q0 -27 -4 -79h-847zM668 913q-139 0 -209 -98q-29 -39 -47 -94h512q-17 53 -45 94q-73 98 -211 98z" />
    <glyph glyph-name="Edotaccent" unicode="&#x116;" horiz-adv-x="1301" 
d="M836 2048v-290h-290v290h290zM1173 1246h-712v-333h584v-290h-584v-333h712v-290h-1002v1536h1002v-290z" />
    <glyph glyph-name="edotaccent" unicode="&#x117;" 
d="M838 1664v-290h-290v290h290zM399 497q15 -101 60 -160q35 -47 90.5 -72.5t118.5 -25.5q136 0 211 98q4 6 10 18t11 18l288 -126q-27 -46 -68 -93q-86 -96 -204.5 -144.5t-247.5 -41.5q-294 15 -442 192q-147 179 -141 416q6 255 141 416q79 93 195.5 142.5t246.5 49.5
q131 0 246.5 -49t194.5 -143q141 -169 141 -416q0 -27 -4 -79h-847zM668 913q-139 0 -209 -98q-29 -39 -47 -94h512q-17 53 -45 94q-73 98 -211 98z" />
    <glyph glyph-name="Eogonek" unicode="&#x118;" horiz-adv-x="1301" 
d="M1173 1246h-712v-333h584v-290h-584v-333h712v-290h-64q-72 -49 -111 -96q-55 -55 -81 -113q-17 -48 5 -70q18 -22 52.5 -16.5t62.5 28.5l100 -132q-34 -62 -102 -92q-74 -36 -156 -13.5t-134 88.5q-45 51 -54 130t22 154q32 75 89 132h-631v1536h1002v-290z" />
    <glyph glyph-name="eogonek" unicode="&#x119;" 
d="M399 497q15 -101 60 -160q35 -47 90.5 -72.5t118.5 -25.5q136 0 211 98q4 6 10 18t11 18l288 -126q-2 -4 -4.5 -8t-6.5 -9t-6 -8q-86 -135 -156 -260q-52 -93 -76 -169q-15 -49 8 -72q18 -22 52.5 -16.5t62.5 28.5l101 -132q-34 -61 -103 -92q-74 -36 -156 -13.5
t-134 88.5q-45 51 -54 130t22 154q14 34 58 109q-56 -12 -128 -9q-294 15 -442 192q-147 179 -141 416q6 255 141 416q79 93 195.5 142.5t246.5 49.5q131 0 246.5 -49t194.5 -143q141 -169 141 -416q0 -27 -4 -79h-847zM668 913q-139 0 -209 -98q-29 -39 -47 -94h512
q-17 53 -45 94q-73 98 -211 98z" />
    <glyph glyph-name="Ecaron" unicode="&#x11a;" horiz-adv-x="1301" 
d="M1045 1877l-384 -200l-384 200l103 199l281 -145l282 145zM1173 1246h-712v-333h584v-290h-584v-333h712v-290h-1002v1536h1002v-290z" />
    <glyph glyph-name="ecaron" unicode="&#x11b;" 
d="M1088 1493l-384 -200l-384 200l102 199l282 -145l282 145zM399 497q15 -101 60 -160q35 -47 90.5 -72.5t118.5 -25.5q136 0 211 98q4 6 10 18t11 18l288 -126q-27 -46 -68 -93q-86 -96 -204.5 -144.5t-247.5 -41.5q-294 15 -442 192q-147 179 -141 416q6 255 141 416
q79 93 195.5 142.5t246.5 49.5q131 0 246.5 -49t194.5 -143q141 -169 141 -416q0 -27 -4 -79h-847zM668 913q-139 0 -209 -98q-29 -39 -47 -94h512q-17 53 -45 94q-73 98 -211 98z" />
    <glyph glyph-name="Gbreve" unicode="&#x11e;" horiz-adv-x="1661" 
d="M870 1664q-141 0 -240 99t-99 240h224q0 -48 33.5 -81.5t81.5 -33.5t82 33.5t34 81.5h224q0 -141 -99.5 -240t-240.5 -99zM896 819h681v-51q-7 -340 -180 -548q-98 -124 -246 -188t-319 -64t-319.5 64t-245.5 188q-175 207 -182 548q6 333 182 548q97 122 246.5 187
t318.5 65q170 0 318 -66t247 -186q40 -50 69 -104l-267 -122q-3 4 -13.5 22.5t-18.5 28.5q-57 75 -146.5 115.5t-188.5 38.5q-101 2 -190.5 -38.5t-146.5 -115.5q-98 -130 -102 -373q4 -243 102 -373q57 -75 146.5 -115.5t190.5 -38.5q99 -2 188.5 38.5t146.5 115.5
q55 70 85 194h-356v230z" />
    <glyph glyph-name="gbreve" unicode="&#x11f;" horiz-adv-x="1352" 
d="M736 1280q-141 0 -240 99t-99 240h224q0 -48 33.5 -81.5t81.5 -33.5t81.5 33.5t33.5 81.5h224q0 -141 -99 -240t-240 -99zM949 1152h254v-1231q0 -122 -55 -222t-160 -160q-144 -81 -325 -81q-125 0 -241 51q-65 32 -123.5 84t-93.5 113l269 130q22 -40 61 -69
q50 -36 131 -36q108 0 177 51q73 56 70 143v120q-125 -77 -296 -77q-115 0 -221 48t-176 135q-135 164 -135 425q0 256 135 425q72 90 180 136.5t231 46.5q180 0 318 -105v73zM663 226q130 0 205 81q81 91 81 269q0 175 -81 269q-69 81 -194 81q-153 0 -220 -103
q-61 -89 -61 -247q0 -164 57 -247q67 -103 213 -103z" />
    <glyph glyph-name="Gdotaccent" unicode="&#x120;" horiz-adv-x="1661" 
d="M977 2048v-290h-290v290h290zM896 819h681v-51q-7 -340 -180 -548q-98 -124 -246 -188t-319 -64t-319.5 64t-245.5 188q-175 207 -182 548q6 333 182 548q97 122 246.5 187t318.5 65q170 0 318 -66t247 -186q40 -50 69 -104l-267 -122q-3 4 -13.5 22.5t-18.5 28.5
q-57 75 -146.5 115.5t-188.5 38.5q-101 2 -190.5 -38.5t-146.5 -115.5q-98 -130 -102 -373q4 -243 102 -373q57 -75 146.5 -115.5t190.5 -38.5q99 -2 188.5 38.5t146.5 115.5q55 70 85 194h-356v230z" />
    <glyph glyph-name="gdotaccent" unicode="&#x121;" horiz-adv-x="1352" 
d="M862 1664v-290h-290v290h290zM949 1152h254v-1231q0 -122 -55 -222t-160 -160q-144 -81 -325 -81q-125 0 -241 51q-65 32 -123.5 84t-93.5 113l269 130q22 -40 61 -69q50 -36 131 -36q108 0 177 51q73 56 70 143v120q-125 -77 -296 -77q-115 0 -221 48t-176 135
q-135 164 -135 425q0 256 135 425q72 90 180 136.5t231 46.5q180 0 318 -105v73zM663 226q130 0 205 81q81 91 81 269q0 175 -81 269q-69 81 -194 81q-153 0 -220 -103q-61 -89 -61 -247q0 -164 57 -247q67 -103 213 -103z" />
    <glyph glyph-name="uni0122" unicode="&#x122;" horiz-adv-x="1661" 
d="M896 819h681v-51q-7 -340 -180 -548q-98 -124 -246 -188t-319 -64t-319.5 64t-245.5 188q-175 207 -182 548q6 333 182 548q97 122 246.5 187t318.5 65q170 0 318 -66t247 -186q40 -50 69 -104l-267 -122q-3 4 -13.5 22.5t-18.5 28.5q-57 75 -146.5 115.5t-188.5 38.5
q-101 2 -190.5 -38.5t-146.5 -115.5q-98 -130 -102 -373q4 -243 102 -373q57 -75 146.5 -115.5t190.5 -38.5q99 -2 188.5 38.5t146.5 115.5q55 70 85 194h-356v230zM695 -401v273h274v-273q0 -106 -76.5 -172.5t-197.5 -66.5v122q14 0 29.5 1.5t38.5 9t40.5 19t30.5 34.5
t13 53h-152z" />
    <glyph glyph-name="uni0123" unicode="&#x123;" horiz-adv-x="1352" 
d="M868 1553v-273h-273v273q0 106 76 172.5t197 66.5v-122q-18 0 -38.5 -3.5t-48.5 -14t-46 -36.5t-18 -63h151zM949 1152h254v-1231q0 -122 -55 -222t-160 -160q-144 -81 -325 -81q-125 0 -241 51q-65 32 -123.5 84t-93.5 113l269 130q22 -40 61 -69q50 -36 131 -36
q108 0 177 51q73 56 70 143v120q-125 -77 -296 -77q-115 0 -221 48t-176 135q-135 164 -135 425q0 256 135 425q72 90 180 136.5t231 46.5q180 0 318 -105v73zM663 226q130 0 205 81q81 91 81 269q0 175 -81 269q-69 81 -194 81q-153 0 -220 -103q-61 -89 -61 -247
q0 -164 57 -247q67 -103 213 -103z" />
    <glyph glyph-name="Hbar" unicode="&#x126;" horiz-adv-x="1608" 
d="M1587 1314v-290h-149v-1024h-290v512h-687v-512h-290v1024h-150v290h150v222h290v-222h687v222h290v-222h149zM1148 802v222h-687v-222h687z" />
    <glyph glyph-name="hbar" unicode="&#x127;" 
d="M1073 1056q95 -87 125.5 -197.5t30.5 -282.5v-576h-295v576q0 186 -76 262q-61 64 -182 64q-80 -3 -136 -44q-66 -49 -86 -148q-12 -56 -12 -209v-501h-293v1237h-111v222h111v77h256v-77h214v-222h-214v-164q131 104 312 111q96 3 191.5 -31.5t164.5 -96.5z" />
    <glyph glyph-name="Imacron" unicode="&#x12a;" horiz-adv-x="588" 
d="M4 2014h581v-222h-581v222zM149 1536h290v-1536h-290v1536z" />
    <glyph glyph-name="imacron" unicode="&#x12b;" horiz-adv-x="631" 
d="M26 1630h580v-222h-580v222zM171 1152h290v-1152h-290v1152z" />
    <glyph glyph-name="Iogonek" unicode="&#x12e;" horiz-adv-x="588" 
d="M367 -267l100 -132q-34 -62 -102 -92q-74 -36 -156 -13.5t-134 88.5q-45 51 -54 130t22 154q33 79 106 149v1519h290v-1536q-70 -48 -110 -96q-57 -57 -82 -113q-17 -48 5 -70q18 -22 52.5 -16.5t62.5 28.5z" />
    <glyph glyph-name="iogonek" unicode="&#x12f;" horiz-adv-x="631" 
d="M461 1568v-256h-290v256h290zM388 -267l101 -132q-34 -61 -103 -92q-74 -36 -156 -13.5t-134 88.5q-45 51 -54 130t22 154q33 78 107 149v1135h290v-1152q-72 -49 -111 -96q-55 -55 -81 -113q-18 -48 4 -70q18 -22 52.5 -16.5t62.5 28.5z" />
    <glyph glyph-name="Idotaccent" unicode="&#x130;" horiz-adv-x="588" 
d="M149 2048h290v-290h-290v290zM149 1536h290v-1536h-290v1536z" />
    <glyph glyph-name="dotlessi" unicode="&#x131;" horiz-adv-x="631" 
d="M171 1152h290v-1152h-290v1152z" />
    <glyph glyph-name="uni0136" unicode="&#x136;" horiz-adv-x="1454" 
d="M678 687h-213v-687h-294v1536h294v-625h213l384 625h350l-478 -736l521 -800h-352zM898 -401q0 -106 -76 -172.5t-197 -66.5v122q14 0 29.5 1.5t38.5 9t40.5 19t30.5 34.5t13 53h-152v273h273v-273z" />
    <glyph glyph-name="uni0137" unicode="&#x137;" horiz-adv-x="1226" 
d="M444 516v-516h-295v1534h295v-794h121l280 412h328l-356 -525l410 -627h-325l-337 516h-121zM794 -401q0 -106 -76 -172.5t-197 -66.5v122q18 0 38.5 3.5t48.5 14t46 36.5t18 63h-151v273h273v-273z" />
    <glyph glyph-name="Lacute" unicode="&#x139;" horiz-adv-x="1154" 
d="M243 1675l600 204l-71 212l-601 -207zM461 1536h-290v-1536h951v290h-661v1246z" />
    <glyph glyph-name="lacute" unicode="&#x13a;" horiz-adv-x="588" 
d="M30 1675l599 204l-70 212l-602 -207zM149 0h290v1568h-290v-1568z" />
    <glyph glyph-name="uni013B" unicode="&#x13b;" horiz-adv-x="1154" 
d="M461 1536h-290v-1536h951v290h-661v1246zM783 -401q0 -106 -76 -172.5t-197 -66.5v122q18 0 38.5 3.5t48.5 14t46 36.5t18 63h-151v273h273v-273z" />
    <glyph glyph-name="uni013C" unicode="&#x13c;" horiz-adv-x="588" 
d="M149 0h290v1568h-290v-1568zM439 -401q0 -106 -76 -172.5t-197 -66.5v122q14 0 29.5 1.5t38.5 9t40.5 19t30.5 34.5t13 53h-152v273h273v-273z" />
    <glyph glyph-name="Lcaron" unicode="&#x13d;" horiz-adv-x="1154" 
d="M461 1536h-290v-1536h951v290h-661v1246zM990 1246q0 -158 -73 -234.5t-217 -53.5l17 121q74 -7 109 40.5t23 126.5h-149v290h290v-290z" />
    <glyph glyph-name="lcaron" unicode="&#x13e;" horiz-adv-x="1011" 
d="M149 0h290v1568h-290v-1568zM922 1246q0 -158 -73.5 -234.5t-217.5 -53.5l18 121q74 -7 109 40.5t23 126.5h-150v290h291v-290z" />
    <glyph glyph-name="Lslash" unicode="&#x141;" horiz-adv-x="1196" 
d="M503 290h662v-290h-952v320l-64 -64l-192 192l256 256v832h290v-544l192 192l192 -194l-384 -382v-318z" />
    <glyph glyph-name="lslash" unicode="&#x142;" horiz-adv-x="844" 
d="M887 990l-320 -318v-672h-290v384l-128 -128l-192 192l320 320v800h290v-512l128 128z" />
    <glyph glyph-name="Nacute" unicode="&#x143;" horiz-adv-x="1597" 
d="M567 1675l600 204l-70 212l-602 -207zM427 1536l706 -1003v1003h294v-1536h-256l-704 1003v-1003h-296v1536h256z" />
    <glyph glyph-name="nacute" unicode="&#x144;" 
d="M1058 1495l-599 -204l-73 209l602 207zM1073 1056q95 -87 125.5 -197.5t30.5 -282.5v-576h-295v576q0 186 -76 262q-61 64 -182 64q-80 -3 -136 -44q-66 -49 -86 -148q-12 -56 -12 -209v-501h-293v1152h256v-79q131 104 312 111q96 3 191.5 -31.5t164.5 -96.5z" />
    <glyph glyph-name="uni0145" unicode="&#x145;" horiz-adv-x="1597" 
d="M427 1536l706 -1003v1003h294v-1536h-256l-704 1003v-1003h-296v1536h256zM937 -401q0 -106 -76.5 -172.5t-197.5 -66.5v122q14 0 29.5 1.5t38.5 9t40.5 19t30.5 34.5t13 53h-152v273h274v-273z" />
    <glyph glyph-name="uni0146" unicode="&#x146;" 
d="M1073 1056q95 -87 125.5 -197.5t30.5 -282.5v-576h-295v576q0 186 -76 262q-61 64 -182 64q-80 -3 -136 -44q-66 -49 -86 -148q-12 -56 -12 -209v-501h-293v1152h256v-79q131 104 312 111q96 3 191.5 -31.5t164.5 -96.5zM559 -401v273h273v-273q0 -106 -76 -172.5
t-197 -66.5v122q18 0 38.5 3.5t48.5 14t46 36.5t18 63h-151z" />
    <glyph glyph-name="Ncaron" unicode="&#x147;" horiz-adv-x="1597" 
d="M518 2076l-102 -199l384 -200l384 200l-102 199l-282 -145zM427 1536l706 -1003v1003h294v-1536h-256l-704 1003v-1003h-296v1536h256z" />
    <glyph glyph-name="ncaron" unicode="&#x148;" 
d="M1105 1493l-384 -200l-384 200l102 199l282 -145l282 145zM1073 1056q95 -87 125.5 -197.5t30.5 -282.5v-576h-295v576q0 186 -76 262q-61 64 -182 64q-80 -3 -136 -44q-66 -49 -86 -148q-12 -56 -12 -209v-501h-293v1152h256v-79q131 104 312 111q96 3 191.5 -31.5
t164.5 -96.5z" />
    <glyph glyph-name="Eng" unicode="&#x14a;" horiz-adv-x="1597" 
d="M1133 1536h294v-1724q0 -127 -54 -208.5t-153 -102.5q-134 -27 -283 10v214q4 0 28 -3t36 -4t36 0t38 5t33 13.5t29.5 24.5t18 39t7.5 55q0 39 -34.5 123t-115.5 203l-111 165l28 -3l-463 660v-1003h-296v1536h256l706 -1003v1003z" />
    <glyph glyph-name="eng" unicode="&#x14b;" 
d="M1073 1056q95 -87 125.5 -197.5t30.5 -282.5v-764q0 -127 -59 -208.5t-165 -102.5q-125 -25 -267 10v203q3 0 21 -1.5t25 -1.5h25t27 2.5t24.5 7t24 11.5t19.5 18.5t16.5 26.5t9.5 36t4 46v717q0 186 -76 262q-61 64 -182 64q-80 -3 -136 -44q-66 -49 -86 -148
q-12 -56 -12 -209v-501h-293v1152h256v-79q131 104 312 111q96 3 191.5 -31.5t164.5 -96.5z" />
    <glyph glyph-name="Omacron" unicode="&#x14c;" horiz-adv-x="1659" 
d="M518 2014h581v-222h-581v222zM830 -32q-169 0 -318.5 65t-246.5 187q-180 216 -180 548q0 334 180 550q98 124 246 187t319 63q170 0 317 -64t248 -186q172 -209 179 -550q-6 -337 -179 -548q-103 -125 -251.5 -188.5t-313.5 -63.5zM830 241q101 -2 189.5 38.5
t145.5 115.5q102 135 102 373q0 241 -102 373q-57 75 -145.5 115.5t-189.5 38.5q-101 2 -190.5 -38.5t-144.5 -115.5q-101 -128 -105 -373q4 -242 105 -373q55 -75 144.5 -115.5t190.5 -38.5z" />
    <glyph glyph-name="omacron" unicode="&#x14d;" horiz-adv-x="1337" 
d="M380 1630h580v-222h-580v222zM668 -32q-130 0 -246.5 49.5t-195.5 142.5q-141 171 -141 416q0 246 141 416q79 93 196 142.5t246 49.5q131 0 246.5 -49t194.5 -143q143 -171 143 -416q0 -238 -143 -416q-80 -94 -194.5 -143t-246.5 -49zM879 337q66 86 66 239
q0 155 -66 241q-71 96 -211 96t-211 -96q-64 -84 -64 -241q0 -155 64 -239q35 -47 90.5 -72.5t120.5 -25.5t120.5 25.5t90.5 72.5z" />
    <glyph glyph-name="Ohungarumlaut" unicode="&#x150;" horiz-adv-x="1659" 
d="M710 1687l271 267l-134 137l-271 -265zM1069 1687l271 267l-135 137l-271 -265zM830 -32q-169 0 -318.5 65t-246.5 187q-180 216 -180 548q0 334 180 550q98 124 246 187t319 63q170 0 317 -64t248 -186q172 -209 179 -550q-6 -337 -179 -548q-103 -125 -251.5 -188.5
t-313.5 -63.5zM830 241q101 -2 189.5 38.5t145.5 115.5q102 135 102 373q0 241 -102 373q-57 75 -145.5 115.5t-189.5 38.5q-101 2 -190.5 -38.5t-144.5 -115.5q-101 -128 -105 -373q4 -242 105 -373q55 -75 144.5 -115.5t190.5 -38.5z" />
    <glyph glyph-name="ohungarumlaut" unicode="&#x151;" horiz-adv-x="1337" 
d="M497 1303l271 267l-134 137l-271 -265zM855 1303l271 267l-134 137l-271 -265zM668 -32q-130 0 -246.5 49.5t-195.5 142.5q-141 171 -141 416q0 246 141 416q79 93 196 142.5t246 49.5q131 0 246.5 -49t194.5 -143q143 -171 143 -416q0 -238 -143 -416
q-80 -94 -194.5 -143t-246.5 -49zM879 337q66 86 66 239q0 155 -66 241q-71 96 -211 96t-211 -96q-64 -84 -64 -241q0 -155 64 -239q35 -47 90.5 -72.5t120.5 -25.5t120.5 25.5t90.5 72.5z" />
    <glyph glyph-name="OE" unicode="&#x152;" horiz-adv-x="2504" 
d="M2377 1246h-713v-333h585v-290h-585v-333h713v-290h-1003v194q-103 -112 -245 -169t-299 -57q-169 0 -318.5 65t-246.5 187q-180 216 -180 548q0 334 180 550q98 124 246 187t319 63q161 0 302 -57t242 -167v192h1003v-290zM1165 395q102 135 102 373q0 241 -102 373
q-57 75 -145.5 115.5t-189.5 38.5q-101 2 -190.5 -38.5t-144.5 -115.5q-101 -128 -105 -373q4 -242 105 -373q55 -75 144.5 -115.5t190.5 -38.5q101 -2 189.5 38.5t145.5 115.5z" />
    <glyph glyph-name="oe" unicode="&#x153;" horiz-adv-x="2195" 
d="M1259 497q15 -102 59 -160q35 -47 90.5 -72.5t118.5 -25.5q137 0 212 98q4 6 10 18t11 18l288 -126q-27 -46 -68 -93q-86 -96 -205 -144.5t-248 -41.5q-280 15 -430 179q-79 -88 -190.5 -133.5t-238.5 -45.5q-130 0 -246.5 49.5t-195.5 142.5q-141 171 -141 416
q0 246 141 416q79 93 196 142.5t246 49.5q126 0 239 -46t192 -133q79 87 191 133t237 46q131 0 247 -49t195 -143q141 -169 141 -416q0 -27 -4 -79h-847zM668 239q65 0 120.5 25.5t90.5 72.5q63 84 66 220v19q0 155 -66 241q-71 96 -211 96t-211 -96q-64 -84 -64 -241
q0 -155 64 -239q35 -47 90.5 -72.5t120.5 -25.5zM1527 913q-139 0 -209 -98q-29 -39 -47 -94h512q-18 56 -44 94q-73 98 -212 98z" />
    <glyph glyph-name="Racute" unicode="&#x154;" horiz-adv-x="1412" 
d="M1043 1879l-599 -204l-73 209l602 207zM1284 727q-72 -99 -179 -149l282 -578h-329l-254 523h-343v-523h-290v1536h702q80 0 155 -23q161 -50 256 -184q100 -133 103 -301q3 -160 -103 -301zM461 1263v-469h409q45 0 93.5 25t81.5 68q50 68 47 141q-3 93 -55 152
q-32 36 -77.5 59.5t-89.5 23.5h-409z" />
    <glyph glyph-name="racute" unicode="&#x155;" horiz-adv-x="974" 
d="M821 1495l-599 -204l-73 209l602 207zM730 1182q98 6 192 -32v-269q-101 39 -222 30q-117 -8 -184 -79q-74 -80 -74 -218v-614h-293v1152h256v-158q48 82 124 128q87 53 201 60z" />
    <glyph glyph-name="uni0156" unicode="&#x156;" horiz-adv-x="1412" 
d="M1284 727q-72 -99 -179 -149l282 -578h-329l-254 523h-343v-523h-290v1536h702q80 0 155 -23q161 -50 256 -184q100 -133 103 -301q3 -160 -103 -301zM461 1263v-469h409q45 0 93.5 25t81.5 68q50 68 47 141q-3 93 -55 152q-32 36 -77.5 59.5t-89.5 23.5h-409zM578 -401
v273h273v-273q0 -106 -76 -172.5t-197 -66.5v122q14 0 29.5 1.5t38.5 9t40.5 19t30.5 34.5t13 53h-152z" />
    <glyph glyph-name="uni0157" unicode="&#x157;" horiz-adv-x="974" 
d="M730 1182q98 6 192 -32v-269q-101 39 -222 30q-117 -8 -184 -79q-74 -80 -74 -218v-614h-293v1152h256v-158q48 82 124 128q87 53 201 60zM160 -401v273h273v-273q0 -106 -76 -172.5t-197 -66.5v122q18 0 38.5 3.5t48.5 14t46 36.5t18 63h-151z" />
    <glyph glyph-name="Rcaron" unicode="&#x158;" horiz-adv-x="1412" 
d="M1073 1877l-384 -200l-384 200l102 199l282 -145l282 145zM1284 727q-72 -99 -179 -149l282 -578h-329l-254 523h-343v-523h-290v1536h702q80 0 155 -23q161 -50 256 -184q100 -133 103 -301q3 -160 -103 -301zM461 1263v-469h409q45 0 93.5 25t81.5 68q50 68 47 141
q-3 93 -55 152q-32 36 -77.5 59.5t-89.5 23.5h-409z" />
    <glyph glyph-name="rcaron" unicode="&#x159;" horiz-adv-x="974" 
d="M917 1493l-384 -200l-384 200l103 199l281 -145l282 145zM730 1182q98 6 192 -32v-269q-101 39 -222 30q-117 -8 -184 -79q-74 -80 -74 -218v-614h-293v1152h256v-158q48 82 124 128q87 53 201 60z" />
    <glyph glyph-name="Sacute" unicode="&#x15a;" horiz-adv-x="1390" 
d="M425 1675l599 204l-70 212l-602 -207zM1312 1146l-294 -79q-32 65 -62 103.5t-81 68.5q-91 56 -182 56q-111 3 -185 -43q-79 -48 -79 -128q0 -42 30 -72q37 -40 175 -81l266 -77q103 -31 168 -64t116 -81q143 -135 143 -327q0 -101 -53.5 -198.5t-144.5 -157.5
q-82 -55 -184.5 -76.5t-236.5 -21.5q-336 0 -505 207q-98 120 -139 299l294 79q21 -121 77 -190q44 -60 123 -92t161 -32q64 0 132 17.5t107 48.5q62 46 62 126q0 66 -47 107q-49 43 -137 68l-286 83q-192 54 -294 143q-66 55 -99 134.5t-33 164.5q0 123 70 225t179 152
q131 60 325 60q190 -4 322 -75q200 -108 292 -347z" />
    <glyph glyph-name="sacute" unicode="&#x15b;" horiz-adv-x="1154" 
d="M335 1291l599 204l-70 212l-602 -207zM1069 847l-282 -68q-10 30 -35 59t-54 43q-54 30 -124 30q-80 0 -126 -26q-38 -25 -38 -53q0 -8 6 -26q23 -28 122 -57q63 -19 181 -49q5 -2 33 -10.5t33 -10t27 -9t28.5 -11t24 -11.5t27.5 -15t24.5 -17t28.5 -21
q147 -114 134 -288q-14 -167 -164 -264q-119 -75 -320 -75q-253 0 -399 154q-40 46 -79 124.5t-42 122.5l275 68q0 -28 15 -67.5t38 -62.5q61 -66 192 -66q116 0 162 38q24 22 30 54q0 32 -19 51q-29 29 -119 55q-69 19 -186 50q-80 21 -132 44t-96 58q-57 43 -88.5 107.5
t-31.5 127.5q0 106 58 189t153 124q115 48 252 45q133 0 245 -58q85 -44 148.5 -116t97.5 -163z" />
    <glyph glyph-name="Scedilla" unicode="&#x15e;" horiz-adv-x="1390" 
d="M1184 749q143 -135 143 -327q0 -101 -53.5 -198.5t-144.5 -157.5q-137 -91 -372 -98l-15 -45q68 -34 103 -92q32 -55 28.5 -124t-39.5 -121q-39 -55 -96 -81.5t-124 -18.5q-61 5 -123 38l62 167q40 -13 64 -13q34 0 49 21q13 19 8 41q-5 21 -27.5 37t-43 22.5t-65.5 19.5
l53 155q-251 31 -388 201q-98 120 -139 299l294 79q21 -121 77 -190q44 -60 123 -92t161 -32q64 0 132 17.5t107 48.5q62 46 62 126q0 66 -47 107q-49 43 -137 68l-286 83q-192 54 -294 143q-66 55 -99 134.5t-33 164.5q0 123 70 225t179 152q131 60 325 60q190 -4 322 -75
q200 -108 292 -347l-294 -79q-32 65 -62 103.5t-81 68.5q-91 56 -182 56q-111 3 -185 -43q-79 -48 -79 -128q0 -42 30 -72q37 -40 175 -81l266 -77q103 -31 168 -64t116 -81z" />
    <glyph glyph-name="scedilla" unicode="&#x15f;" horiz-adv-x="1154" 
d="M945 595q147 -114 134 -288q-14 -167 -164 -264q-97 -61 -230 -71l-17 -49q66 -33 102 -92q32 -55 28.5 -124t-39.5 -121q-39 -55 -95.5 -81.5t-123.5 -18.5q-62 5 -124 38l62 167q40 -13 64 -13q34 0 49 21q13 19 8 41q-5 21 -27.5 37t-43 22.5t-65.5 19.5l53 153
q-201 21 -320 150q-40 46 -79 124.5t-42 122.5l275 68q0 -28 15 -67.5t38 -62.5q61 -66 192 -66q116 0 162 38q24 22 30 54q0 32 -19 51q-29 29 -119 55q-69 19 -186 50q-80 21 -132 44t-96 58q-57 43 -88.5 107.5t-31.5 127.5q0 106 58 189t153 124q115 48 252 45
q133 0 245 -58q85 -44 148.5 -116t97.5 -163l-282 -68q-10 30 -35 59t-54 43q-54 30 -124 30q-80 0 -126 -26q-38 -25 -38 -53q0 -8 6 -26q23 -28 122 -57q63 -19 181 -49q5 -2 33 -10.5t33 -10t27 -9t28.5 -11t24 -11.5t27.5 -15t24.5 -17t28.5 -21z" />
    <glyph glyph-name="Scaron" unicode="&#x160;" horiz-adv-x="1390" 
d="M405 2076l-102 -199l384 -200l384 200l-102 199l-282 -145zM1312 1146l-294 -79q-32 65 -62 103.5t-81 68.5q-91 56 -182 56q-111 3 -185 -43q-79 -48 -79 -128q0 -42 30 -72q37 -40 175 -81l266 -77q103 -31 168 -64t116 -81q143 -135 143 -327q0 -101 -53.5 -198.5
t-144.5 -157.5q-82 -55 -184.5 -76.5t-236.5 -21.5q-336 0 -505 207q-98 120 -139 299l294 79q21 -121 77 -190q44 -60 123 -92t161 -32q64 0 132 17.5t107 48.5q62 46 62 126q0 66 -47 107q-49 43 -137 68l-286 83q-192 54 -294 143q-66 55 -99 134.5t-33 164.5
q0 123 70 225t179 152q131 60 325 60q190 -4 322 -75q200 -108 292 -347z" />
    <glyph glyph-name="scaron" unicode="&#x161;" horiz-adv-x="1154" 
d="M318 1692l-103 -199l384 -200l384 200l-102 199l-282 -145zM1069 847l-282 -68q-10 30 -35 59t-54 43q-54 30 -124 30q-80 0 -126 -26q-38 -25 -38 -53q0 -8 6 -26q23 -28 122 -57q63 -19 181 -49q5 -2 33 -10.5t33 -10t27 -9t28.5 -11t24 -11.5t27.5 -15t24.5 -17
t28.5 -21q147 -114 134 -288q-14 -167 -164 -264q-119 -75 -320 -75q-253 0 -399 154q-40 46 -79 124.5t-42 122.5l275 68q0 -28 15 -67.5t38 -62.5q61 -66 192 -66q116 0 162 38q24 22 30 54q0 32 -19 51q-29 29 -119 55q-69 19 -186 50q-80 21 -132 44t-96 58
q-57 43 -88.5 107.5t-31.5 127.5q0 106 58 189t153 124q115 48 252 45q133 0 245 -58q85 -44 148.5 -116t97.5 -163z" />
    <glyph glyph-name="uni0162" unicode="&#x162;" horiz-adv-x="1301" 
d="M796 0h-58l-25 -77q66 -33 102 -92q32 -55 28.5 -124t-39.5 -121q-39 -55 -95.5 -81.5t-123.5 -18.5q-62 5 -124 38l62 167q40 -13 64 -13q34 0 49 21q13 19 8 41q-5 21 -27.5 37t-43 22.5t-65.5 19.5l62 181h-64v1246h-485v290h1259v-290h-484v-1246z" />
    <glyph glyph-name="uni0163" unicode="&#x163;" horiz-adv-x="989" 
d="M883 928h-333v-418q0 -79 5 -123.5t23 -72.5q41 -64 117 -71q93 -7 188 7v-250q-69 -20 -169.5 -21.5t-165.5 15.5l-23 -73q66 -33 102 -92q32 -55 29 -124.5t-39 -120.5q-39 -55 -96 -81.5t-124 -18.5q-62 5 -124 38l62 167q40 -13 64 -13q34 0 49 21q14 20 9 41
q-4 16 -15 28t-34 22t-38 14.5t-50 14.5l83 243q-57 41 -87 100q-34 63 -45 141t-11 188v439h-239v224h239v320h290v-320h333v-224z" />
    <glyph glyph-name="Tcaron" unicode="&#x164;" horiz-adv-x="1301" 
d="M992 1877l-384 -200l-384 200l102 199l282 -145l282 145zM1280 1536v-290h-484v-1246h-290v1246h-485v290h1259z" />
    <glyph glyph-name="tcaron" unicode="&#x165;" horiz-adv-x="989" 
d="M747 1858h290v-290q0 -158 -73 -234.5t-217 -53.5l17 122q74 -7 109 40t23 126h-149v290zM550 1472v-320h333v-224h-333v-418q0 -79 5 -123.5t23 -72.5q41 -64 117 -71q93 -7 188 7v-250q-69 -20 -171 -21.5t-166 15.5q-167 48 -230 166q-34 63 -45 141t-11 188v439h-239
v224h239v320h290z" />
    <glyph glyph-name="Tbar" unicode="&#x166;" horiz-adv-x="1301" 
d="M1280 1246h-484v-333h367v-290h-367v-623h-290v623h-367v290h367v333h-485v290h1259v-290z" />
    <glyph glyph-name="tbar" unicode="&#x167;" horiz-adv-x="989" 
d="M883 928h-333v-218h333v-224h-333q0 -128 28 -172q41 -64 117 -71q93 -7 188 7v-250q-69 -20 -171 -21.5t-166 15.5q-167 48 -230 166q-34 63 -45 140t-11 186h-239v224h239v218h-239v224h239v320h290v-320h333v-224z" />
    <glyph glyph-name="Umacron" unicode="&#x16a;" horiz-adv-x="1591" 
d="M501 2014h581v-222h-581v222zM1421 1536v-960q0 -219 -137 -388q-84 -108 -211.5 -164t-274.5 -56t-276.5 56.5t-214.5 163.5q-64 82 -100 184t-36 204v958l294 2v-956q0 -116 66 -211q46 -60 118 -94t149 -34q76 0 146 34t116 96q66 87 66 209v956h295z" />
    <glyph glyph-name="umacron" unicode="&#x16b;" 
d="M964 1630v-222h-580v222h580zM894 1152h292v-1152h-256v79q-131 -104 -311 -111q-96 -3 -192 31.5t-165 96.5q-95 87 -125 197t-30 283v576h294v-576q0 -185 77 -262q61 -64 181 -64q81 3 137 44q65 48 85 148q13 60 13 209v501z" />
    <glyph glyph-name="Uring" unicode="&#x16e;" horiz-adv-x="1591" 
d="M796 2155q136 0 233 -97.5t97 -233.5t-97 -233.5t-233 -97.5t-233.5 97.5t-97.5 233.5t97.5 233.5t233.5 97.5zM796 1952q-52 0 -90 -38t-38 -90t38 -90t90 -38t90 38t38 90t-38 90t-90 38zM1421 1536v-960q0 -219 -137 -388q-84 -108 -211.5 -164t-274.5 -56
t-276.5 56.5t-214.5 163.5q-64 82 -100 184t-36 204v958l294 2v-956q0 -116 66 -211q46 -60 118 -94t149 -34q76 0 146 34t116 96q66 87 66 209v956h295z" />
    <glyph glyph-name="uring" unicode="&#x16f;" 
d="M668 1188q-136 0 -233.5 97.5t-97.5 233.5t97.5 233.5t233.5 97.5t233 -97.5t97 -233.5t-97 -233.5t-233 -97.5zM668 1647q-52 0 -90 -37.5t-38 -90.5t38 -90.5t90 -37.5t90 37.5t38 90.5t-38 90.5t-90 37.5zM894 1152h292v-1152h-256v79q-131 -104 -311 -111
q-96 -3 -192 31.5t-165 96.5q-95 87 -125 197t-30 283v576h294v-576q0 -185 77 -262q61 -64 181 -64q81 3 137 44q65 48 85 148q13 60 13 209v501z" />
    <glyph glyph-name="Uhungarumlaut" unicode="&#x170;" horiz-adv-x="1591" 
d="M602 1687l271 267l-135 137l-271 -265zM960 1687l271 267l-134 137l-271 -265zM1421 1536v-960q0 -219 -137 -388q-84 -108 -211.5 -164t-274.5 -56t-276.5 56.5t-214.5 163.5q-64 82 -100 184t-36 204v958l294 2v-956q0 -116 66 -211q46 -60 118 -94t149 -34
q76 0 146 34t116 96q66 87 66 209v956h295z" />
    <glyph glyph-name="uhungarumlaut" unicode="&#x171;" 
d="M755 1570l-271 -267l-134 139l271 265zM843 1303l-135 139l271 265l135 -137zM894 1152h292v-1152h-256v79q-131 -104 -311 -111q-96 -3 -192 31.5t-165 96.5q-95 87 -125 197t-30 283v576h294v-576q0 -185 77 -262q61 -64 181 -64q81 3 137 44q65 48 85 148
q13 60 13 209v501z" />
    <glyph glyph-name="Uogonek" unicode="&#x172;" horiz-adv-x="1591" 
d="M1126 1536h295v-960q0 -219 -137 -388q-30 -40 -72 -77q-13 -11 -36.5 -31t-35 -30t-31.5 -26.5t-30.5 -26t-25.5 -23t-24 -22t-19 -18t-17 -17t-12 -13.5q-54 -69 -74 -113q-18 -48 4 -70q18 -22 52.5 -16.5t62.5 28.5l100 -132q-34 -62 -102 -92q-74 -36 -156 -13.5
t-134 88.5q-45 51 -54 130t22 154q30 63 62 100q-137 7 -257 63t-200 157q-64 82 -100 184t-36 204v958l294 2v-956q0 -116 66 -211q46 -60 118 -94t149 -34q76 0 146 34t116 96q66 87 66 209v956z" />
    <glyph glyph-name="uogonek" unicode="&#x173;" 
d="M1114 -267l100 -132q-34 -61 -103 -92q-74 -36 -156 -13.5t-134 88.5q-45 51 -54 130t22 154q44 100 141 179v32q-131 -104 -311 -111q-96 -3 -192 31.5t-165 96.5q-95 87 -125 197t-30 283v576h294v-576q0 -185 77 -262q61 -64 181 -64q81 3 137 44q65 48 85 148
q13 60 13 209v501h292v-1152q-72 -49 -111 -96q-55 -55 -81 -113q-18 -48 4 -70q18 -22 53 -16.5t63 28.5z" />
    <glyph glyph-name="Wcircumflex" unicode="&#x174;" horiz-adv-x="2109" 
d="M774 1677l282 145l282 -145l102 198l-384 201l-384 -201zM1783 1536h306l-451 -1536h-285l-299 1015l-297 -1015h-286l-450 1536h305l288 -1035l286 1033l305 2l288 -1035z" />
    <glyph glyph-name="wcircumflex" unicode="&#x175;" horiz-adv-x="1693" 
d="M612 1293l282 145l281 -145l103 198l-384 201l-384 -201zM1389 1152h284l-352 -1152h-284l-190 687l-209 -687h-265l-352 1154l286 -2l209 -687l211 687h242l211 -687z" />
    <glyph glyph-name="Ycircumflex" unicode="&#x176;" horiz-adv-x="1344" 
d="M390 1677l282 145l282 -145l102 198l-384 201l-384 -201zM1005 1536h339l-525 -911v-625h-294v625l-525 911h339l333 -578z" />
    <glyph glyph-name="ycircumflex" unicode="&#x177;" horiz-adv-x="1222" 
d="M350 1293l281 145l282 -145l102 198l-384 201l-384 -201zM913 1152h288l-491 -1308q-77 -205 -183 -283q-57 -44 -121.5 -58.5t-155.5 -14.5h-15v275l32 -4q27 -3 60 0.5t48 12.5q24 14 54 66t57 128l-443 1186h290l286 -817z" />
    <glyph glyph-name="Ydieresis" unicode="&#x178;" horiz-adv-x="1344" 
d="M318 2048h256v-256h-256v256zM770 2048h256v-256h-256v256zM1005 1536h339l-525 -911v-625h-294v625l-525 911h339l333 -578z" />
    <glyph glyph-name="Zacute" unicode="&#x179;" horiz-adv-x="1408" 
d="M495 1675l599 204l-70 212l-602 -207zM501 273h779v-273h-1152v273l779 992h-779v271h1152v-273z" />
    <glyph glyph-name="zacute" unicode="&#x17a;" horiz-adv-x="1226" 
d="M352 1291l599 204l-70 212l-602 -207zM1077 252v-252h-928v245l549 655h-549v252h928v-252l-546 -648h546z" />
    <glyph glyph-name="Zdotaccent" unicode="&#x17b;" horiz-adv-x="1408" 
d="M612 2048h290v-290h-290v290zM501 273h779v-273h-1152v273l779 992h-779v271h1152v-273z" />
    <glyph glyph-name="zdotaccent" unicode="&#x17c;" horiz-adv-x="1226" 
d="M512 1664h290v-290h-290v290zM1077 252v-252h-928v245l549 655h-549v252h928v-252l-546 -648h546z" />
    <glyph glyph-name="Zcaron" unicode="&#x17d;" horiz-adv-x="1408" 
d="M454 2076l-102 -199l384 -200l384 200l-102 199l-282 -145zM501 273h779v-273h-1152v273l779 992h-779v271h1152v-273z" />
    <glyph glyph-name="zcaron" unicode="&#x17e;" horiz-adv-x="1226" 
d="M358 1692l-102 -199l384 -200l384 200l-102 199l-282 -145zM1077 252v-252h-928v245l549 655h-549v252h928v-252l-546 -648h546z" />
    <glyph glyph-name="florin" unicode="&#x192;" horiz-adv-x="1591" 
d="M1167 1568q151 0 296 -68l-132 -239q-1 3 -19 10.5t-53 15.5t-71 8q-72 0 -129 -40t-69 -112l-45 -262h365v-224h-401l-39 -222q-34 -220 -148.5 -343.5t-309.5 -123.5q-133 0 -284 66l122 243q65 -36 145 -36t122 61.5t61 173.5l30 181h-286v224h322l32 194
q34 240 151 366.5t340 126.5z" />
    <glyph glyph-name="uni0218" unicode="&#x218;" horiz-adv-x="1390" 
d="M1312 1146l-294 -79q-32 65 -62 103.5t-81 68.5q-91 56 -182 56q-111 3 -185 -43q-79 -48 -79 -128q0 -42 30 -72q37 -40 175 -81l266 -77q103 -31 168 -64t116 -81q143 -135 143 -327q0 -101 -53.5 -198.5t-144.5 -157.5q-82 -55 -184.5 -76.5t-236.5 -21.5
q-336 0 -505 207q-98 120 -139 299l294 79q21 -121 77 -190q44 -60 123 -92t161 -32q64 0 132 17.5t107 48.5q62 46 62 126q0 66 -47 107q-49 43 -137 68l-286 83q-192 54 -294 143q-66 55 -99 134.5t-33 164.5q0 123 70 225t179 152q131 60 325 60q190 -4 322 -75
q200 -108 292 -347zM834 -401q0 -106 -76 -172.5t-197 -66.5v122q14 0 29.5 1.5t38.5 9t40.5 19t30.5 34.5t13 53h-152v273h273v-273z" />
    <glyph glyph-name="uni0219" unicode="&#x219;" horiz-adv-x="1154" 
d="M1069 847l-282 -68q-10 30 -35 59t-54 43q-54 30 -124 30q-80 0 -126 -26q-38 -25 -38 -53q0 -8 6 -26q23 -28 122 -57q63 -19 181 -49q5 -2 33 -10.5t33 -10t27 -9t28.5 -11t24 -11.5t27.5 -15t24.5 -17t28.5 -21q147 -114 134 -288q-14 -167 -164 -264
q-119 -75 -320 -75q-253 0 -399 154q-40 46 -79 124.5t-42 122.5l275 68q0 -28 15 -67.5t38 -62.5q61 -66 192 -66q116 0 162 38q24 22 30 54q0 32 -19 51q-29 29 -119 55q-69 19 -186 50q-80 21 -132 44t-96 58q-57 43 -88.5 107.5t-31.5 127.5q0 106 58 189t153 124
q115 48 252 45q133 0 245 -58q85 -44 148.5 -116t97.5 -163zM736 -401q0 -106 -76 -172.5t-197 -66.5v122q18 0 38.5 3.5t48.5 14t46 36.5t18 63h-151v273h273v-273z" />
    <glyph glyph-name="uni021A" unicode="&#x21a;" horiz-adv-x="1301" 
d="M1280 1536v-290h-484v-1246h-290v1246h-485v290h1259zM471 -401v273h274v-273q0 -106 -76.5 -172.5t-197.5 -66.5v122q14 0 29.5 1.5t38.5 9t40.5 19t30.5 34.5t13 53h-152z" />
    <glyph glyph-name="uni021B" unicode="&#x21b;" horiz-adv-x="989" 
d="M883 928h-333v-418q0 -79 5 -123.5t23 -72.5q41 -64 117 -71q93 -7 188 7v-250q-69 -20 -171 -21.5t-166 15.5q-167 48 -230 166q-34 63 -45 141t-11 188v439h-239v224h239v320h290v-320h333v-224zM397 -401v273h273v-273q0 -106 -76 -172.5t-197 -66.5v122
q18 0 38.5 3.5t48.5 14t46 36.5t18 63h-151z" />
    <glyph glyph-name="alpha" unicode="&#x3b1;" horiz-adv-x="1369" 
d="M1252 446q0 -20 0.5 -32.5t3.5 -34t11 -36t20.5 -30t33.5 -25t49 -13.5v-275q-195 0 -301 117q-159 -149 -401 -149q-130 0 -246.5 49.5t-195.5 142.5q-141 171 -141 416q0 246 141 416q79 93 196 142.5t246 49.5q186 0 328 -92v60h256v-706zM879 337q66 86 66 239
q0 155 -66 241q-71 96 -211 96t-211 -96q-64 -84 -64 -241q0 -155 64 -239q35 -47 90.5 -72.5t120.5 -25.5t120.5 25.5t90.5 72.5z" />
    <glyph glyph-name="beta" unicode="&#x3b2;" horiz-adv-x="1339" 
d="M149 -512v1638q0 135 77 239q67 95 178.5 149t233.5 54q171 0 311 -98q87 -65 134.5 -156t47.5 -188q0 -90 -43 -179q-21 -41 -64 -94q87 -54 147 -134q83 -116 83 -260q0 -100 -43 -192.5t-121 -157.5q-81 -70 -185.5 -105.5t-215.5 -35.5q-91 0 -168 19q-64 15 -118 45
v-544h-254zM403 457q-1 -91 42.5 -144t134.5 -76q52 -13 107 -13q134 0 228 83q68 62 68 147q0 59 -34 109q-86 126 -313 126v254q69 3 127.5 38.5t81.5 85.5q15 32 15 62q0 74 -69 132q-64 53 -157 53q-59 0 -115 -26t-86 -70q-32 -36 -32 -117z" />
    <glyph glyph-name="uni03BC" unicode="&#x3bc;" horiz-adv-x="1346" 
d="M1346 275v-275q-174 0 -277 94q-69 -62 -163 -95.5t-189 -30.5q-181 7 -312 111v-463h-256v1536h293v-501q0 -153 12 -209q20 -99 86 -148q56 -41 136 -44q121 0 182 64q76 76 76 262v576h295v-706q0 -25 1 -39.5t7 -40.5t17.5 -42t35 -30.5t56.5 -18.5z" />
    <glyph glyph-name="uni0400" unicode="&#x400;" horiz-adv-x="1301" 
d="M1005 1884l-73 -209l-599 204l70 212zM1173 1246h-712v-333h584v-290h-584v-333h712v-290h-1002v1536h1002v-290z" />
    <glyph glyph-name="uni0401" unicode="&#x401;" horiz-adv-x="1301" 
d="M550 2048v-256h-256v256h256zM1003 2048v-256h-256v256h256zM1173 1246h-712v-333h584v-290h-584v-333h712v-290h-1002v1536h1002v-290z" />
    <glyph glyph-name="uni0402" unicode="&#x402;" 
d="M1082 1069q92 -77 130 -186.5t38 -253.5q0 -336 -192 -505q-75 -62 -167 -93t-181 -31v294q93 0 156 52q90 82 90 262q0 74 -21.5 138t-61.5 101q-61 58 -165 58q-89 0 -149 -47q-67 -50 -85 -160q-11 -58 -11 -195v-503h-292v1280h-171v256h768v-256h-341v-205
q63 50 145 79.5t155 29.5q216 0 355 -115z" />
    <glyph glyph-name="uni0403" unicode="&#x403;" horiz-adv-x="1194" 
d="M928 1879l-599 -204l-73 209l602 207zM1173 1536v-290h-712v-1246h-290v1536h1002z" />
    <glyph glyph-name="uni0404" unicode="&#x404;" horiz-adv-x="1623" 
d="M1167 395q45 62 68 136l288 -83q-47 -133 -126 -228q-103 -125 -251.5 -188.5t-313.5 -63.5q-170 0 -319.5 66.5t-245.5 185.5q-182 222 -182 548q0 332 182 550q98 124 246 187t319 63q170 0 317 -64t248 -186q93 -117 141 -273l-299 -51q-30 94 -72 147
q-57 75 -146 115.5t-189 40.5q-101 0 -190.5 -40.5t-144.5 -115.5q-71 -89 -92 -228h534v-290h-534q21 -137 92 -228q55 -75 144.5 -115.5t190.5 -38.5q99 -2 188.5 38.5t146.5 115.5z" />
    <glyph glyph-name="uni0405" unicode="&#x405;" horiz-adv-x="1390" 
d="M1312 1146l-294 -79q-32 65 -62 103.5t-81 68.5q-91 56 -182 56q-111 3 -185 -43q-79 -48 -79 -128q0 -42 30 -72q37 -40 175 -81l266 -77q103 -31 168 -64t116 -81q143 -135 143 -327q0 -101 -53.5 -198.5t-144.5 -157.5q-82 -55 -184.5 -76.5t-236.5 -21.5
q-336 0 -505 207q-98 120 -139 299l294 79q21 -121 77 -190q44 -60 123 -92t161 -32q64 0 132 17.5t107 48.5q62 46 62 126q0 66 -47 107q-49 43 -137 68l-286 83q-192 54 -294 143q-66 55 -99 134.5t-33 164.5q0 123 70 225t179 152q131 60 325 60q190 -4 322 -75
q200 -108 292 -347z" />
    <glyph glyph-name="uni0406" unicode="&#x406;" horiz-adv-x="588" 
d="M149 1536h290v-1536h-290v1536z" />
    <glyph glyph-name="uni0407" unicode="&#x407;" horiz-adv-x="588" 
d="M-62 2048h256v-256h-256v256zM390 2048h256v-256h-256v256zM149 1536h290v-1536h-290v1536z" />
    <glyph glyph-name="uni0408" unicode="&#x408;" horiz-adv-x="1094" 
d="M924 1536h-297v-1024q0 -88 -2.5 -118.5t-14.5 -60.5q-16 -44 -61 -69t-90 -25q-57 0 -107 38q-57 44 -66 107l-286 -68q26 -90 82.5 -165t135.5 -121q101 -62 241 -62q141 0 238.5 55t166.5 167q42 77 51 134.5t9 187.5v1024z" />
    <glyph glyph-name="uni0409" unicode="&#x409;" horiz-adv-x="2397" 
d="M2253 809q105 -139 102 -301q-3 -170 -102 -301q-95 -134 -256 -184q-75 -23 -156 -23h-702v1263h-518l-103 -858q-27 -232 -144 -333.5t-331 -71.5v256q100 3 150.5 56.5t62.5 154.5l130 1069h1043v-523h412q125 0 234.5 -55t177.5 -149zM2061 508q3 73 -47 141
q-33 43 -81.5 68t-93.5 25h-410v-469h410q44 0 89 23.5t77 59.5q53 60 56 152z" />
    <glyph glyph-name="uni040A" unicode="&#x40a;" horiz-adv-x="2427" 
d="M2283 809q105 -139 102 -301q-3 -170 -102 -301q-95 -134 -256 -184q-75 -23 -156 -23h-702v742h-708v-742h-290v1536h290v-523h708v523h290v-523h412q125 0 234.5 -55t177.5 -149zM2091 508q3 73 -47 141q-33 43 -81.5 68t-93.5 25h-410v-469h410q44 0 89 23.5t77 59.5
q53 60 56 152z" />
    <glyph glyph-name="uni040B" unicode="&#x40b;" horiz-adv-x="1463" 
d="M1269 802q109 -156 109 -395v-407h-294v341q0 193 -75 293q-82 108 -235 108q-71 0 -134 -26t-100 -76q-49 -64 -71 -175q-6 -51 -6 -102v-363h-292v1280h-171v256h768v-256h-305v-373q71 56 165.5 86.5t190.5 30.5q132 0 255 -59.5t195 -162.5z" />
    <glyph glyph-name="uni040C" unicode="&#x40c;" horiz-adv-x="1454" 
d="M486 1675l600 204l-71 212l-601 -207zM678 687h-213v-687h-294v1536h294v-625h213l384 625h350l-478 -736l521 -800h-352z" />
    <glyph glyph-name="uni040D" unicode="&#x40d;" horiz-adv-x="1597" 
d="M1062 1675l73 209l-602 207l-70 -212zM1171 1536h256v-1536h-296v1003l-704 -1003h-256v1536h294v-1003z" />
    <glyph glyph-name="uni040E" unicode="&#x40e;" horiz-adv-x="1410" 
d="M832 2003h224q0 -141 -99 -240t-240 -99t-240 99t-99 240h224q0 -48 33.5 -81.5t81.5 -33.5t81.5 33.5t33.5 81.5zM1090 1536h299l-593 -1257q-53 -107 -99.5 -167.5t-116.5 -98.5q-36 -20 -92 -32.5t-95 -12.5q-82 0 -180 32l94 256q52 -19 86 -19q45 0 72 17
q24 14 51 49.5t40.5 59t19.5 36.5l-533 1137h294l378 -836z" />
    <glyph glyph-name="uni040F" unicode="&#x40f;" horiz-adv-x="1664" 
d="M1203 1536h290v-1536h-516v-256h-290v256h-516v1536h290v-1246h742v1246z" />
    <glyph glyph-name="uni0410" unicode="&#x410;" horiz-adv-x="1393" 
d="M1084 0l-75 239h-627l-73 -239h-298l469 1536h433l469 -1536h-298zM465 512h461l-233 751z" />
    <glyph glyph-name="uni0411" unicode="&#x411;" horiz-adv-x="1429" 
d="M1284 809q106 -141 103 -301q-3 -168 -103 -301q-95 -134 -256 -184q-75 -23 -155 -23h-702v1536h1036v-290h-746v-233h412q125 0 234 -55t177 -149zM1092 508q3 73 -47 141q-33 43 -81.5 68t-93.5 25h-409v-469h409q44 0 89.5 23.5t77.5 59.5q52 59 55 152z" />
    <glyph glyph-name="uni0412" unicode="&#x412;" horiz-adv-x="1380" 
d="M1203 749q92 -121 92 -280q0 -152 -92 -279q-91 -120 -239 -167q-83 -23 -145 -23h-648v1536h612q72 0 132 -21q142 -41 220 -156q87 -109 90 -260q3 -139 -90 -256q-2 -4 -9 -11q46 -43 77 -83zM781 1265h-316v-326h333q24 5 52 21.5t44 37.5q39 47 36 101
q-3 69 -43 111q-16 21 -48.5 38t-57.5 17zM1003 469q3 81 -56 143q-54 54 -132 54h-350v-393h350q66 0 124 51q61 51 64 145z" />
    <glyph glyph-name="uni0413" unicode="&#x413;" horiz-adv-x="1194" 
d="M1173 1536v-290h-712v-1246h-290v1536h1002z" />
    <glyph glyph-name="uni0414" unicode="&#x414;" horiz-adv-x="1653" 
d="M1451 273h96v-465h-273v192h-922v-192h-271v465q161 0 203 365l104 898h1063v-1263zM1180 273v992h-549l-76 -659q-15 -125 -35.5 -202.5t-62.5 -130.5h723z" />
    <glyph glyph-name="uni0415" unicode="&#x415;" horiz-adv-x="1301" 
d="M1173 1246h-712v-333h584v-290h-584v-333h712v-290h-1002v1536h1002v-290z" />
    <glyph glyph-name="uni0416" unicode="&#x416;" horiz-adv-x="2210" 
d="M11 0l520 800l-478 736h350l384 -625h171v625h294v-625h171l384 625h350l-478 -736l520 -800h-352l-424 687h-171v-687h-294v687h-171l-424 -687h-352z" />
    <glyph glyph-name="uni0417" unicode="&#x417;" horiz-adv-x="1324" 
d="M128 1184q12 103 68 184t143 130q61 35 149 52.5t171 17.5q87 0 175 -17.5t147 -52.5q101 -58 158.5 -155.5t57.5 -213.5q0 -121 -56 -214q-24 -43 -68 -87q68 -55 115 -147q51 -98 51 -220q0 -124 -55.5 -230t-157.5 -171q-145 -92 -367 -92q-221 0 -365 92
q-87 56 -141.5 144t-67.5 193l303 51q3 -103 77 -154q78 -58 194 -55q125 4 194 55q79 55 79 167t-79 164q-75 56 -194 56h-96v277h96q105 4 162 43q69 43 69 128q0 82 -69 125q-62 43 -162 43t-162 -43q-63 -41 -66 -121z" />
    <glyph glyph-name="uni0418" unicode="&#x418;" horiz-adv-x="1597" 
d="M1171 1536h256v-1536h-296v1003l-704 -1003h-256v1536h294v-1003z" />
    <glyph glyph-name="uni0419" unicode="&#x419;" horiz-adv-x="1597" 
d="M947 2003h224q0 -141 -99 -240t-240 -99t-240 99t-99 240h224q0 -48 33.5 -81.5t81.5 -33.5t81.5 33.5t33.5 81.5zM1171 1536h256v-1536h-296v1003l-704 -1003h-256v1536h294v-1003z" />
    <glyph glyph-name="uni041A" unicode="&#x41a;" horiz-adv-x="1454" 
d="M678 687h-213v-687h-294v1536h294v-625h213l384 625h350l-478 -736l521 -800h-352z" />
    <glyph glyph-name="uni041B" unicode="&#x41b;" horiz-adv-x="1600" 
d="M1429 1536v-1536h-290v1263h-518l-103 -858q-27 -232 -144 -333.5t-331 -71.5v256q100 3 150.5 56.5t62.5 154.5l130 1069h1043z" />
    <glyph glyph-name="uni041C" unicode="&#x41c;" horiz-adv-x="1924" 
d="M1754 1536v-1536h-295v917l-446 -917h-102l-446 915v-915h-294v1536h294l497 -1020l497 1020h295z" />
    <glyph glyph-name="uni041D" unicode="&#x41d;" horiz-adv-x="1608" 
d="M1148 1536h290v-1536h-290v512h-687v-512h-290v1536h290v-734h687v734z" />
    <glyph glyph-name="uni041E" unicode="&#x41e;" horiz-adv-x="1659" 
d="M830 -32q-169 0 -318.5 65t-246.5 187q-180 216 -180 548q0 334 180 550q98 124 246 187t319 63q170 0 317 -64t248 -186q172 -209 179 -550q-6 -337 -179 -548q-103 -125 -251.5 -188.5t-313.5 -63.5zM830 241q101 -2 189.5 38.5t145.5 115.5q102 135 102 373
q0 241 -102 373q-57 75 -145.5 115.5t-189.5 38.5q-101 2 -190.5 -38.5t-144.5 -115.5q-101 -128 -105 -373q4 -242 105 -373q55 -75 144.5 -115.5t190.5 -38.5z" />
    <glyph glyph-name="uni041F" unicode="&#x41f;" horiz-adv-x="1664" 
d="M1493 1536v-1536h-290v1246h-742v-1246h-290v1536h1322z" />
    <glyph glyph-name="uni0420" unicode="&#x420;" horiz-adv-x="1429" 
d="M1387 1028q3 -160 -103 -301q-68 -94 -177 -149t-234 -55h-412v-523h-290v1536h702q80 0 155 -23q161 -50 256 -184q100 -133 103 -301zM1045 887q50 68 47 141q-3 93 -55 152q-32 36 -77.5 59.5t-89.5 23.5h-409v-469h409q45 0 93.5 25t81.5 68z" />
    <glyph glyph-name="uni0421" unicode="&#x421;" horiz-adv-x="1623" 
d="M1235 531l288 -83q-47 -133 -126 -228q-103 -125 -251.5 -188.5t-313.5 -63.5q-170 0 -319.5 66.5t-245.5 185.5q-182 222 -182 548q0 332 182 550q98 124 246 187t319 63q170 0 317 -64t248 -186q93 -117 141 -273l-299 -51q-30 94 -72 147q-57 75 -146 115.5t-189 40.5
q-101 0 -190.5 -40.5t-144.5 -115.5q-100 -127 -104 -373q4 -243 104 -373q55 -75 144.5 -115.5t190.5 -38.5q99 -2 188.5 38.5t146.5 115.5q45 62 68 136z" />
    <glyph glyph-name="uni0422" unicode="&#x422;" horiz-adv-x="1301" 
d="M1280 1536v-290h-484v-1246h-290v1246h-485v290h1259z" />
    <glyph glyph-name="uni0423" unicode="&#x423;" horiz-adv-x="1410" 
d="M1090 1536h299l-593 -1257q-53 -107 -99.5 -167.5t-116.5 -98.5q-36 -20 -92 -32.5t-95 -12.5q-82 0 -180 32l94 256q52 -19 86 -19q45 0 72 17q24 14 51 49.5t40.5 59t19.5 36.5l-533 1137h294l378 -836z" />
    <glyph glyph-name="uni0424" unicode="&#x424;" horiz-adv-x="1664" 
d="M1327 1306q123 -84 187.5 -212.5t64.5 -282.5q0 -321 -254 -491q-144 -96 -350 -122v-198h-288v201q-206 23 -348 119q-121 82 -187.5 209.5t-66.5 281.5q0 153 64 281t186 214q149 99 352 125v105h288v-102q197 -25 352 -128zM1156 567q115 78 115 244q0 163 -117 241
q-63 46 -179 68v-625q110 20 181 72zM506 567q72 -50 181 -70v623q-113 -22 -177 -68q-117 -77 -117 -241q0 -165 113 -244z" />
    <glyph glyph-name="uni0425" unicode="&#x425;" horiz-adv-x="1454" 
d="M894 777l550 -777h-360l-357 533l-358 -533h-358l550 777l-538 759h357l347 -516l346 516h356z" />
    <glyph glyph-name="uni0426" unicode="&#x426;" horiz-adv-x="1772" 
d="M1493 290h194v-482h-290v192h-1226v1536h290v-1246h742v1246h290v-1246z" />
    <glyph glyph-name="uni0427" unicode="&#x427;" horiz-adv-x="1463" 
d="M1001 1536h292v-1536h-292v629q-71 -56 -166 -86.5t-191 -30.5q-132 0 -255 59.5t-195 162.5q-109 156 -109 395v407h295v-341q0 -195 74 -293q82 -108 235 -108q72 0 135 26.5t100 75.5q48 62 70 175q7 59 7 102v363z" />
    <glyph glyph-name="uni0428" unicode="&#x428;" horiz-adv-x="2048" 
d="M1587 1536h290v-1536h-1706v1536h290v-1246h418v1246h290v-1246h418v1246z" />
    <glyph glyph-name="uni0429" unicode="&#x429;" horiz-adv-x="2156" 
d="M1877 290h194v-482h-290v192h-1610v1536h290v-1246h418v1246h290v-1246h418v1246h290v-1246z" />
    <glyph glyph-name="uni042A" unicode="&#x42a;" horiz-adv-x="1412" 
d="M1327 809q105 -139 102 -301q-3 -170 -102 -301q-95 -134 -256 -184q-75 -23 -156 -23h-702v1312h-234v224h524v-523h412q125 0 234.5 -55t177.5 -149zM1135 508q3 73 -47 141q-33 43 -81.5 68t-93.5 25h-410v-469h410q44 0 89 23.5t77 59.5q53 60 56 152z" />
    <glyph glyph-name="uni042B" unicode="&#x42b;" horiz-adv-x="2018" 
d="M873 1013q125 0 234 -55t177 -149q106 -141 103 -301q-3 -168 -103 -301q-95 -134 -256 -184q-75 -23 -155 -23h-702v1536h290v-523h412zM1579 1536h290v-1536h-290v1536zM1092 508q3 73 -47 141q-33 43 -81.5 68t-93.5 25h-409v-469h409q44 0 89.5 23.5t77.5 59.5
q52 59 55 152z" />
    <glyph glyph-name="uni042C" unicode="&#x42c;" horiz-adv-x="1429" 
d="M1284 809q106 -141 103 -301q-3 -168 -103 -301q-95 -134 -256 -184q-75 -23 -155 -23h-702v1536h290v-523h412q125 0 234 -55t177 -149zM1092 508q3 73 -47 141q-33 43 -81.5 68t-93.5 25h-409v-469h409q44 0 89.5 23.5t77.5 59.5q52 59 55 152z" />
    <glyph glyph-name="uni042D" unicode="&#x42d;" horiz-adv-x="1623" 
d="M1357 1318q181 -217 181 -550q0 -327 -181 -548q-95 -119 -245.5 -185.5t-320.5 -66.5q-165 0 -313.5 63.5t-251.5 188.5q-79 95 -126 228l288 83q22 -72 69 -136q57 -75 146 -115.5t188 -38.5q101 -2 190.5 38.5t144.5 115.5q71 91 92 228h-533v290h533q-21 139 -92 228
q-55 75 -144.5 115.5t-190.5 40.5q-100 0 -188.5 -40.5t-145.5 -115.5q-43 -55 -73 -147l-299 51q48 156 141 273q101 122 248 186t317 64q172 0 320 -63t246 -187z" />
    <glyph glyph-name="uni042E" unicode="&#x42e;" horiz-adv-x="2278" 
d="M2014 1318q172 -209 179 -550q-6 -337 -179 -548q-103 -125 -251.5 -188.5t-313.5 -63.5q-169 0 -319 65t-247 187q-138 166 -168 403h-254v-623h-290v1536h290v-623h254q30 239 168 405q98 124 246 187t320 63q170 0 317 -64t248 -186zM1783 395q103 136 103 373
q0 239 -103 373q-57 75 -145.5 115.5t-188.5 38.5q-101 2 -190.5 -38.5t-144.5 -115.5q-101 -128 -105 -373q4 -242 105 -373q55 -75 144.5 -115.5t190.5 -38.5q100 -2 188.5 38.5t145.5 115.5z" />
    <glyph glyph-name="uni042F" unicode="&#x42f;" horiz-adv-x="1412" 
d="M1242 1536v-1536h-291v523h-343l-254 -523h-328l281 578q-107 50 -179 149q-105 139 -102 301q3 170 102 301q95 134 256 184q75 23 156 23h702zM951 794v469h-409q-44 0 -89.5 -23.5t-77.5 -59.5q-52 -59 -55 -152q-3 -73 47 -141q33 -43 81.5 -68t93.5 -25h409z" />
    <glyph glyph-name="uni0430" unicode="&#x430;" horiz-adv-x="1260" 
d="M384 813l-265 126q17 25 24 34q149 209 452 209q340 0 476 -228q62 -103 62 -231v-723h-254v196q-15 -43 -57 -86t-86 -69q-117 -71 -269 -71q-83 0 -164 36t-128 92q-49 67 -69.5 118.5t-20.5 122.5q0 92 51.5 176.5t134.5 133.5q37 20 70.5 33.5t74.5 23t65.5 14
t83.5 12.5t88 13l185 25q-17 71 -85 107q-66 39 -164 36q-123 0 -182 -70q-15 -15 -23 -30zM845 538l-214 -41q-42 -8 -63 -12.5t-57 -13t-55 -18t-40.5 -23.5t-31.5 -32t-11 -40q-3 -52 40 -89t112 -34q65 2 125.5 22.5t111.5 67t68 112.5q15 54 15 101z" />
    <glyph glyph-name="uni0431" unicode="&#x431;" horiz-adv-x="1286" 
d="M678 1073q118 0 221 -45.5t172 -131.5q63 -75 96.5 -176t33.5 -206q4 -112 -37 -214t-117 -181q-163 -157 -413 -151q-117 0 -223.5 46.5t-180.5 132.5q-125 144 -140 388q-15 227 17 444q46 303 247 440q167 117 491 117q130 0 260 -26v-266q-141 18 -260 21
q-249 8 -337 -55q-59 -42 -84.5 -105.5t-35.5 -146.5q59 51 136 81.5t154 33.5zM646 817q-122 0 -189 -79q-60 -68 -60 -203q0 -134 60 -202q67 -79 189 -79q124 0 188 79q62 70 62 202q0 133 -62 203q-64 79 -188 79z" />
    <glyph glyph-name="uni0432" unicode="&#x432;" horiz-adv-x="1271" 
d="M149 1148l578 4q166 0 267 -79q132 -102 132 -267q0 -82 -34 -151q-25 -39 -34 -49q62 -49 92 -113q36 -70 36 -150q0 -76 -35.5 -148t-96.5 -120q-40 -31 -99.5 -53t-105.5 -22h-700v1148zM444 926v-241h283q61 0 90 47q20 35 17 74q-4 51 -17 73q-17 27 -37 37t-53 10
h-283zM444 463v-241h345q57 0 88 47q17 29 17 74q0 44 -17 73q-31 47 -88 47h-345z" />
    <glyph glyph-name="uni0433" unicode="&#x433;" horiz-adv-x="1034" 
d="M981 1152v-290h-542v-862h-290v1152h832z" />
    <glyph glyph-name="uni0434" unicode="&#x434;" horiz-adv-x="1354" 
d="M1152 1152v-879h96v-410h-273v137h-659v-137h-273v410q178 0 226 395l55 484h828zM879 273v623h-318l-30 -260q-29 -266 -106 -363h454z" />
    <glyph glyph-name="uni0435" unicode="&#x435;" 
d="M399 497q15 -101 60 -160q35 -47 90.5 -72.5t118.5 -25.5q136 0 211 98q4 6 10 18t11 18l288 -126q-27 -46 -68 -93q-86 -96 -204.5 -144.5t-247.5 -41.5q-294 15 -442 192q-147 179 -141 416q6 255 141 416q79 93 195.5 142.5t246.5 49.5q131 0 246.5 -49t194.5 -143
q141 -169 141 -416q0 -27 -4 -79h-847zM668 913q-139 0 -209 -98q-29 -39 -47 -94h512q-17 53 -45 94q-73 98 -211 98z" />
    <glyph glyph-name="uni0436" unicode="&#x436;" horiz-adv-x="1779" 
d="M1739 1152l-359 -574l378 -578h-324l-282 463h-134v-463h-256v463h-135l-281 -463h-325l378 578l-358 574h322l266 -465h133v465h256v-465h132l267 465h322z" />
    <glyph glyph-name="uni0437" unicode="&#x437;" horiz-adv-x="1205" 
d="M111 879q33 169 192 247q115 58 296 58q77 0 160.5 -16t136.5 -42q184 -92 201 -309q0 -117 -64 -211q90 -90 87 -250q-3 -106 -59 -189.5t-148 -132.5q-128 -64 -314 -64q-192 0 -313 64q-158 78 -201 263l284 70q14 -55 60 -85q57 -39 170 -39q99 0 169 39q32 18 45 37
t13 52q0 89 -116 103q-68 8 -111 8h-110v224h110q55 0 103 9q59 12 79.5 33t20.5 56q0 47 -49 75q-62 34 -154 34q-98 0 -153 -34q-24 -16 -34 -30t-13 -38z" />
    <glyph glyph-name="uni0438" unicode="&#x438;" horiz-adv-x="1361" 
d="M1212 1152v-1152h-295v693l-512 -693h-256v1152h295v-670l512 670h256z" />
    <glyph glyph-name="uni0439" unicode="&#x439;" horiz-adv-x="1361" 
d="M828 1619h224q0 -141 -99 -240t-240 -99t-240.5 99t-99.5 240h224q0 -48 34 -81.5t82 -33.5t81.5 33.5t33.5 81.5zM1212 1152v-1152h-295v693l-512 -693h-256v1152h295v-670l512 670h256z" />
    <glyph glyph-name="uni043A" unicode="&#x43a;" horiz-adv-x="1226" 
d="M1207 1152l-358 -574l378 -578h-325l-303 463h-155v-463h-295v1152h295v-465h153l288 465h322z" />
    <glyph glyph-name="uni043B" unicode="&#x43b;" horiz-adv-x="1316" 
d="M311 1152h856v-1152h-273v896h-346l-68 -521q-29 -223 -133 -316.5t-304 -58.5v256q37 0 64 5t45 17t29.5 25t19 37.5t11 44t8.5 54.5z" />
    <glyph glyph-name="uni043C" unicode="&#x43c;" horiz-adv-x="1561" 
d="M1156 1152h256v-1152h-294v531l-260 -403h-154l-260 403v-531h-295v1152h256l376 -580z" />
    <glyph glyph-name="uni043D" unicode="&#x43d;" horiz-adv-x="1352" 
d="M913 1152h290v-1152h-290v450h-474v-450h-290v1152h290v-412h474v412z" />
    <glyph glyph-name="uni043E" unicode="&#x43e;" horiz-adv-x="1337" 
d="M668 -32q-130 0 -246.5 49.5t-195.5 142.5q-141 171 -141 416q0 246 141 416q79 93 196 142.5t246 49.5q131 0 246.5 -49t194.5 -143q143 -171 143 -416q0 -238 -143 -416q-80 -94 -194.5 -143t-246.5 -49zM879 337q66 86 66 239q0 155 -66 241q-71 96 -211 96t-211 -96
q-64 -84 -64 -241q0 -155 64 -239q35 -47 90.5 -72.5t120.5 -25.5t120.5 25.5t90.5 72.5z" />
    <glyph glyph-name="uni043F" unicode="&#x43f;" horiz-adv-x="1352" 
d="M1203 1152v-1152h-290v862h-474v-862h-290v1152h1054z" />
    <glyph glyph-name="uni0440" unicode="&#x440;" horiz-adv-x="1354" 
d="M1135 1001q134 -168 134 -425q0 -262 -134 -425q-70 -87 -176 -135t-221 -48q-171 0 -296 77v-557h-293v1664h256v-73q138 105 318 105q123 0 231.5 -47t180.5 -136zM905 329q57 83 57 247q0 156 -62 247q-67 103 -219 103q-126 0 -195 -81q-81 -94 -81 -269
q0 -178 81 -269q75 -81 205 -81q147 0 214 103z" />
    <glyph glyph-name="uni0441" unicode="&#x441;" horiz-adv-x="1245" 
d="M1171 894l-271 -117q-10 23 -23 38q-35 47 -90.5 72.5t-120.5 25.5q-63 0 -118.5 -25.5t-90.5 -72.5q-63 -83 -67 -239q4 -156 67 -239q71 -96 209 -96q65 0 121 24.5t90 71.5q13 19 21 36l273 -117q-38 -64 -64 -94q-80 -94 -197 -144.5t-244 -47.5q-128 -3 -244.5 47
t-195.5 145q-141 169 -141 414q0 244 141 416q80 96 196 144t244 48q130 0 246 -49.5t195 -142.5q39 -48 64 -98z" />
    <glyph glyph-name="uni0442" unicode="&#x442;" horiz-adv-x="1152" 
d="M1099 1152v-256h-378v-896h-290v896h-378v256h1046z" />
    <glyph glyph-name="uni0443" unicode="&#x443;" horiz-adv-x="1222" 
d="M913 1152h288l-491 -1308q-77 -205 -183 -283q-57 -44 -121.5 -58.5t-155.5 -14.5h-15v275l32 -4q27 -3 60 0.5t48 12.5q24 14 54 66t57 128l-443 1186h290l286 -817z" />
    <glyph glyph-name="uni0444" unicode="&#x444;" horiz-adv-x="1544" 
d="M1237 1047q213 -170 222 -471q-6 -303 -222 -474q-128 -103 -337 -128v-454h-256v454q-208 26 -337 128q-105 84 -163.5 207.5t-58.5 266.5q0 140 57.5 262.5t164.5 208.5q127 103 337 128v340h256v-340q207 -25 337 -128zM501 309q52 -41 143 -59v650q-86 -15 -143 -59
q-58 -41 -89.5 -110.5t-31.5 -154.5q0 -171 121 -267zM1043 309q122 97 122 267q0 81 -31.5 152t-90.5 113q-50 40 -143 59v-648q90 15 143 57z" />
    <glyph glyph-name="uni0445" unicode="&#x445;" horiz-adv-x="1179" 
d="M1148 1152l-406 -567l416 -585h-332l-237 358l-237 -358h-331l414 585l-405 567h328l231 -346l230 346h329z" />
    <glyph glyph-name="uni0446" unicode="&#x446;" horiz-adv-x="1482" 
d="M1203 290h194v-482h-290v192h-958v1152h290v-862h474v862h290v-862z" />
    <glyph glyph-name="uni0447" unicode="&#x447;" horiz-adv-x="1314" 
d="M873 1152h292v-1152h-292v341q-121 -78 -276 -85q-96 -3 -191.5 31.5t-164.5 96.5q-95 87 -125.5 197.5t-30.5 282.5v288h295v-288q0 -185 77 -262q61 -64 181 -64q80 3 136 44q66 49 86 148q13 60 13 209v213z" />
    <glyph glyph-name="uni0448" unicode="&#x448;" horiz-adv-x="1614" 
d="M149 0v1152h256v-862h276v862h256v-862h273v862h256v-1152h-1317z" />
    <glyph glyph-name="uni0449" unicode="&#x449;" horiz-adv-x="1745" 
d="M1466 290h194v-482h-290v192h-1221v1152h256v-862h276v862h256v-862h273v862h256v-862z" />
    <glyph glyph-name="uni044A" unicode="&#x44a;" horiz-adv-x="1179" 
d="M979 681q56 -53 85.5 -130.5t29.5 -160.5q0 -81 -29.5 -156.5t-85.5 -128.5q-108 -105 -286 -105h-544v928h-170v224h465v-367h249q179 0 286 -104zM766 309q34 34 34 81q0 44 -32 79q-33 41 -85 41h-239v-239h239q51 3 83 38z" />
    <glyph glyph-name="uni044B" unicode="&#x44b;" horiz-adv-x="1627" 
d="M149 1152h295v-367h228q179 0 286 -104q56 -53 85.5 -130.5t29.5 -160.5q0 -81 -29.5 -156.5t-85.5 -128.5q-108 -105 -286 -105h-523v1152zM1188 1152h290v-1152h-290v1152zM444 510v-239h217q52 3 84 38q34 34 34 81q0 44 -32 79q-33 41 -86 41h-217z" />
    <glyph glyph-name="uni044C" unicode="&#x44c;" horiz-adv-x="1179" 
d="M149 1152h295v-367h249q179 0 286 -104q56 -53 85.5 -130.5t29.5 -160.5q0 -81 -29.5 -156.5t-85.5 -128.5q-108 -105 -286 -105h-544v1152zM444 510v-239h239q51 3 83 38q34 34 34 81q0 44 -32 79q-33 41 -85 41h-239z" />
    <glyph glyph-name="uni044D" unicode="&#x44d;" horiz-adv-x="1245" 
d="M1020 992q141 -172 141 -416q0 -245 -141 -414q-79 -95 -195.5 -145t-244.5 -47q-127 -3 -244 47.5t-197 144.5q-26 30 -64 94l273 117q8 -17 21 -36q34 -47 90 -71.5t121 -24.5q138 0 209 96q37 48 56 128h-342v224h340q-14 75 -54 126q-35 47 -90.5 72.5t-118.5 25.5
q-65 0 -120.5 -25.5t-90.5 -72.5q-13 -15 -23 -38l-271 117q25 50 64 98q79 93 195 142.5t246 49.5q128 0 244 -48t196 -144z" />
    <glyph glyph-name="uni044E" unicode="&#x44e;" horiz-adv-x="1849" 
d="M1621 992q143 -171 143 -416q0 -238 -143 -416q-80 -94 -194.5 -143t-246.5 -49q-130 0 -246.5 49.5t-195.5 142.5q-100 122 -128 271h-171v-431h-290v1152h290v-431h173q29 154 126 271q79 93 196 142.5t246 49.5q131 0 246.5 -49t194.5 -143zM1391 337q66 86 66 239
q0 155 -66 241q-71 96 -211 96t-211 -96q-64 -84 -64 -241q0 -155 64 -239q35 -47 90.5 -72.5t120.5 -25.5t120.5 25.5t90.5 72.5z" />
    <glyph glyph-name="uni044F" unicode="&#x44f;" horiz-adv-x="1243" 
d="M486 1152h608v-1152h-294v367h-209l-177 -367h-329l201 412q-52 26 -85 59q-56 53 -86 130.5t-30 160.5q0 81 30 156.5t86 128.5q108 105 285 105zM800 642v239h-303q-51 -3 -83 -38q-34 -34 -34 -81q0 -44 32 -79q33 -41 85 -41h303z" />
    <glyph glyph-name="uni0450" unicode="&#x450;" 
d="M1105 1500l-72 -209l-600 204l70 212zM399 497q15 -101 60 -160q35 -47 90.5 -72.5t118.5 -25.5q136 0 211 98q4 6 10 18t11 18l288 -126q-27 -46 -68 -93q-86 -96 -204.5 -144.5t-247.5 -41.5q-294 15 -442 192q-147 179 -141 416q6 255 141 416q79 93 195.5 142.5
t246.5 49.5q131 0 246.5 -49t194.5 -143q141 -169 141 -416q0 -27 -4 -79h-847zM668 913q-139 0 -209 -98q-29 -39 -47 -94h512q-17 53 -45 94q-73 98 -211 98z" />
    <glyph glyph-name="uni0451" unicode="&#x451;" 
d="M612 1664v-256h-256v256h256zM1065 1664v-256h-256v256h256zM399 497q15 -101 60 -160q35 -47 90.5 -72.5t118.5 -25.5q136 0 211 98q4 6 10 18t11 18l288 -126q-27 -46 -68 -93q-86 -96 -204.5 -144.5t-247.5 -41.5q-294 15 -442 192q-147 179 -141 416q6 255 141 416
q79 93 195.5 142.5t246.5 49.5q131 0 246.5 -49t194.5 -143q141 -169 141 -416q0 -27 -4 -79h-847zM668 913q-139 0 -209 -98q-29 -39 -47 -94h512q-17 53 -45 94q-73 98 -211 98z" />
    <glyph glyph-name="uni0452" unicode="&#x452;" 
d="M1073 1056q95 -87 125.5 -197.5t30.5 -282.5v-764q0 -127 -59 -208.5t-165 -102.5q-125 -25 -267 10v203q3 0 21 -1.5t25 -1.5h25t27 2.5t24.5 7t24 11.5t19.5 18.5t16.5 26.5t9.5 36t4 46v717q0 186 -76 262q-61 64 -182 64q-80 -3 -136 -44q-66 -49 -86 -148
q-12 -56 -12 -209v-501h-293v1237h-111v222h111v77h256v-77h214v-222h-214v-164q131 104 312 111q96 3 191.5 -31.5t164.5 -96.5z" />
    <glyph glyph-name="uni0453" unicode="&#x453;" horiz-adv-x="1034" 
d="M286 1291l599 204l-70 212l-602 -207zM981 1152v-290h-542v-862h-290v1152h832z" />
    <glyph glyph-name="uni0454" unicode="&#x454;" horiz-adv-x="1245" 
d="M877 337q13 19 21 36l273 -117q-38 -64 -64 -94q-80 -94 -197 -144.5t-244 -47.5q-128 -3 -244.5 47t-195.5 145q-141 169 -141 414q0 244 141 416q80 96 196 144t244 48q130 0 246 -49.5t195 -142.5q39 -48 64 -98l-271 -117q-10 23 -23 38q-35 47 -90.5 72.5
t-120.5 25.5q-63 0 -118.5 -25.5t-90.5 -72.5q-40 -51 -54 -126h339v-224h-341q19 -80 56 -128q71 -96 209 -96q65 0 121 24.5t90 71.5z" />
    <glyph glyph-name="uni0455" unicode="&#x455;" horiz-adv-x="1154" 
d="M1069 847l-282 -68q-10 30 -35 59t-54 43q-54 30 -124 30q-80 0 -126 -26q-38 -25 -38 -53q0 -8 6 -26q23 -28 122 -57q63 -19 181 -49q5 -2 33 -10.5t33 -10t27 -9t28.5 -11t24 -11.5t27.5 -15t24.5 -17t28.5 -21q147 -114 134 -288q-14 -167 -164 -264
q-119 -75 -320 -75q-253 0 -399 154q-40 46 -79 124.5t-42 122.5l275 68q0 -28 15 -67.5t38 -62.5q61 -66 192 -66q116 0 162 38q24 22 30 54q0 32 -19 51q-29 29 -119 55q-69 19 -186 50q-80 21 -132 44t-96 58q-57 43 -88.5 107.5t-31.5 127.5q0 106 58 189t153 124
q115 48 252 45q133 0 245 -58q85 -44 148.5 -116t97.5 -163z" />
    <glyph glyph-name="uni0456" unicode="&#x456;" horiz-adv-x="631" 
d="M171 1568h290v-256h-290v256zM171 1152h290v-1152h-290v1152z" />
    <glyph glyph-name="uni0457" unicode="&#x457;" horiz-adv-x="631" 
d="M-38 1664h256v-256h-256v256zM414 1664h256v-256h-256v256zM171 1152h290v-1152h-290v1152z" />
    <glyph glyph-name="uni0458" unicode="&#x458;" horiz-adv-x="663" 
d="M203 1536h290v-256h-290v256zM64 -247v-297q222 0 339 164q90 126 90 316v1216h-290v-1216q0 -95 -39 -143q-31 -40 -100 -40z" />
    <glyph glyph-name="uni0459" unicode="&#x459;" horiz-adv-x="1924" 
d="M1724 681q56 -53 85.5 -130.5t29.5 -160.5q0 -81 -29.5 -156.5t-85.5 -128.5q-108 -105 -286 -105h-544v896h-346l-68 -521q-29 -223 -133 -316.5t-304 -58.5v256q37 0 64 5t45 17t29.5 25t19 37.5t11 44t8.5 54.5l91 713h877v-367h250q179 0 286 -104zM1510 309
q35 35 35 81q0 44 -32 79q-33 41 -86 41h-239v-239h239q51 3 83 38z" />
    <glyph glyph-name="uni045A" unicode="&#x45a;" horiz-adv-x="1952" 
d="M1751 681q56 -53 86 -130.5t30 -160.5q0 -81 -30 -156.5t-86 -128.5q-108 -105 -285 -105h-544v510h-483v-510h-290v1152h290v-367h483v367h294v-367h250q178 0 285 -104zM1538 309q34 34 34 81q0 44 -32 79q-33 41 -85 41h-239v-239h239q51 3 83 38z" />
    <glyph glyph-name="uni045B" unicode="&#x45b;" 
d="M1073 1056q95 -87 125.5 -197.5t30.5 -282.5v-576h-295v576q0 186 -76 262q-61 64 -182 64q-80 -3 -136 -44q-66 -49 -86 -148q-12 -56 -12 -209v-501h-293v1237h-111v222h111v77h256v-77h214v-222h-214v-164q131 104 312 111q96 3 191.5 -31.5t164.5 -96.5z" />
    <glyph glyph-name="uni045C" unicode="&#x45c;" horiz-adv-x="1226" 
d="M329 1291l599 204l-70 212l-602 -207zM1207 1152l-358 -574l378 -578h-325l-303 463h-155v-463h-295v1152h295v-465h153l288 465h322z" />
    <glyph glyph-name="uni045D" unicode="&#x45d;" horiz-adv-x="1361" 
d="M998 1291l73 209l-602 207l-70 -212zM1212 1152v-1152h-295v693l-512 -693h-256v1152h295v-670l512 670h256z" />
    <glyph glyph-name="uni045E" unicode="&#x45e;" horiz-adv-x="1222" 
d="M740 1619h224q0 -141 -99 -240t-240 -99t-240 99t-99 240h224q0 -48 33.5 -81.5t81.5 -33.5t81.5 33.5t33.5 81.5zM913 1152h288l-491 -1308q-77 -205 -183 -283q-57 -44 -121.5 -58.5t-155.5 -14.5h-15v275l32 -4q27 -3 60 0.5t48 12.5q24 14 54 66t57 128l-443 1186
h290l286 -817z" />
    <glyph glyph-name="uni045F" unicode="&#x45f;" horiz-adv-x="1352" 
d="M913 1152h290v-1152h-382v-256h-290v256h-382v1152h290v-862h474v862z" />
    <glyph glyph-name="uni0490" unicode="&#x490;" horiz-adv-x="1194" 
d="M883 1728h290v-482h-712v-1246h-290v1536h712v192z" />
    <glyph glyph-name="uni0491" unicode="&#x491;" horiz-adv-x="1034" 
d="M691 1344h290v-482h-542v-862h-290v1152h542v192z" />
    <glyph glyph-name="uni04AE" unicode="&#x4ae;" horiz-adv-x="1344" 
d="M1005 1536h339l-525 -911v-625h-294v625l-525 911h339l333 -578z" />
    <glyph glyph-name="uni04AF" unicode="&#x4af;" horiz-adv-x="1171" 
d="M860 1152h290l-420 -1152v-384h-288v384l-421 1152h290l276 -798z" />
    <glyph glyph-name="uni04BA" unicode="&#x4ba;" horiz-adv-x="1463" 
d="M463 0h-292v1536h292v-629q71 56 165.5 86.5t190.5 30.5q132 0 255 -59.5t195 -162.5q109 -156 109 -395v-407h-294v341q0 193 -75 293q-82 108 -235 108q-71 0 -134 -26t-100 -76q-49 -64 -71 -175q-6 -51 -6 -102v-363z" />
    <glyph glyph-name="uni04BB" unicode="&#x4bb;" horiz-adv-x="1314" 
d="M1073 768q95 -87 125.5 -197.5t30.5 -282.5v-288h-295v288q0 186 -76 262q-61 64 -182 64q-80 -3 -136 -44q-66 -49 -86 -148q-12 -56 -12 -209v-213h-293v1152h293v-341q121 78 275 85q96 3 191.5 -31.5t164.5 -96.5z" />
    <glyph glyph-name="uni04E8" unicode="&#x4e8;" horiz-adv-x="1659" 
d="M1395 1318q172 -209 179 -550q-6 -337 -179 -548q-103 -125 -251.5 -188.5t-313.5 -63.5q-169 0 -318.5 65t-246.5 187q-180 216 -180 548q0 334 180 550q98 124 246 187t319 63q170 0 317 -64t248 -186zM830 1295q-101 2 -190.5 -38.5t-144.5 -115.5q-71 -89 -92 -228
h854q-25 140 -92 228q-57 75 -145.5 115.5t-189.5 38.5zM830 241q101 -2 189.5 38.5t145.5 115.5q67 90 92 228h-854q21 -137 92 -228q55 -75 144.5 -115.5t190.5 -38.5z" />
    <glyph glyph-name="uni04E9" unicode="&#x4e9;" horiz-adv-x="1337" 
d="M1109 992q143 -171 143 -416q0 -238 -143 -416q-80 -94 -194.5 -143t-246.5 -49q-130 0 -246.5 49.5t-195.5 142.5q-141 171 -141 416q0 246 141 416q79 93 196 142.5t246 49.5q131 0 246.5 -49t194.5 -143zM668 913q-140 0 -211 -96q-39 -50 -54 -128h531
q-19 82 -55 128q-71 96 -211 96zM668 239q65 0 120.5 25.5t90.5 72.5q36 46 55 128h-531q15 -78 54 -128q35 -47 90.5 -72.5t120.5 -25.5z" />
    <glyph glyph-name="Wgrave" unicode="&#x1e80;" horiz-adv-x="2109" 
d="M1361 1675l73 209l-602 207l-70 -212zM1783 1536h306l-451 -1536h-285l-299 1015l-297 -1015h-286l-450 1536h305l288 -1035l286 1033l305 2l288 -1035z" />
    <glyph glyph-name="wgrave" unicode="&#x1e81;" horiz-adv-x="1693" 
d="M1131 1291l72 209l-601 207l-71 -212zM1389 1152h284l-352 -1152h-284l-190 687l-209 -687h-265l-352 1154l286 -2l209 -687l211 687h242l211 -687z" />
    <glyph glyph-name="Wacute" unicode="&#x1e82;" horiz-adv-x="2109" 
d="M749 1675l599 204l-70 212l-602 -207zM1783 1536h306l-451 -1536h-285l-299 1015l-297 -1015h-286l-450 1536h305l288 -1035l286 1033l305 2l288 -1035z" />
    <glyph glyph-name="wacute" unicode="&#x1e83;" horiz-adv-x="1693" 
d="M563 1291l600 204l-71 212l-601 -207zM1389 1152h284l-352 -1152h-284l-190 687l-209 -687h-265l-352 1154l286 -2l209 -687l211 687h242l211 -687z" />
    <glyph glyph-name="Wdieresis" unicode="&#x1e84;" horiz-adv-x="2109" 
d="M702 2048h256v-256h-256v256zM1154 2048h256v-256h-256v256zM1783 1536h306l-451 -1536h-285l-299 1015l-297 -1015h-286l-450 1536h305l288 -1035l286 1033l305 2l288 -1035z" />
    <glyph glyph-name="wdieresis" unicode="&#x1e85;" horiz-adv-x="1693" 
d="M493 1664h256v-256h-256v256zM945 1664h256v-256h-256v256zM1389 1152h284l-352 -1152h-284l-190 687l-209 -687h-265l-352 1154l286 -2l209 -687l211 687h242l211 -687z" />
    <glyph glyph-name="Ygrave" unicode="&#x1ef2;" horiz-adv-x="1344" 
d="M979 1675l73 209l-602 207l-70 -212zM1005 1536h339l-525 -911v-625h-294v625l-525 911h339l333 -578z" />
    <glyph glyph-name="ygrave" unicode="&#x1ef3;" horiz-adv-x="1222" 
d="M902 1291l73 209l-602 207l-70 -212zM913 1152h288l-491 -1308q-77 -205 -183 -283q-57 -44 -121.5 -58.5t-155.5 -14.5h-15v275l32 -4q27 -3 60 0.5t48 12.5q24 14 54 66t57 128l-443 1186h290l286 -817z" />
    <glyph glyph-name="endash" unicode="&#x2013;" horiz-adv-x="1152" 
d="M128 721h896v-224h-896v224z" />
    <glyph glyph-name="emdash" unicode="&#x2014;" horiz-adv-x="1664" 
d="M128 721h1408v-224h-1408v224z" />
    <glyph glyph-name="quoteleft" unicode="&#x2018;" horiz-adv-x="650" 
d="M169 1246v290h290v-290h-150q-12 -79 23.5 -126.5t109.5 -40.5l17 -121q-144 -23 -217 53.5t-73 234.5z" />
    <glyph glyph-name="quoteright" unicode="&#x2019;" horiz-adv-x="650" 
d="M482 1246q0 -158 -73 -234.5t-217 -53.5l17 121q74 -7 109 40.5t23 126.5h-149v290h290v-290z" />
    <glyph glyph-name="quotesinglbase" unicode="&#x201a;" horiz-adv-x="674" 
d="M418 0q0 -158 -73 -234.5t-217 -53.5l17 122q74 -7 109 40t23 126h-149v290h290v-290z" />
    <glyph glyph-name="quotedblleft" unicode="&#x201c;" horiz-adv-x="1149" 
d="M303 1246v290h290v-290h-149q-12 -79 23 -126.5t109 -40.5l17 -121q-144 -23 -217 53.5t-73 234.5zM689 1246v290h290v-290h-149q-12 -79 23 -126.5t109 -40.5l17 -121q-144 -23 -217 53.5t-73 234.5z" />
    <glyph glyph-name="quotedblright" unicode="&#x201d;" horiz-adv-x="1149" 
d="M461 1246q0 -158 -73 -234.5t-217 -53.5l17 121q74 -7 109 40.5t23 126.5h-149v290h290v-290zM847 1246q0 -158 -73 -234.5t-217 -53.5l17 121q74 -7 109 40.5t23 126.5h-149v290h290v-290z" />
    <glyph glyph-name="quotedblbase" unicode="&#x201e;" horiz-adv-x="1280" 
d="M461 288q0 -158 -73 -234.5t-217 -53.5l17 122q74 -7 109 40t23 126h-149v290h290v-290zM847 288q0 -158 -73 -234.5t-217 -53.5l17 122q74 -7 109 40t23 126h-149v290h290v-290z" />
    <glyph glyph-name="bullet" unicode="&#x2022;" horiz-adv-x="1536" 
d="M774 256q-136 0 -231 92.5t-95 227.5q0 136 94.5 228t231.5 92q130 0 222 -92t92 -228q0 -135 -92.5 -227.5t-221.5 -92.5z" />
    <glyph glyph-name="ellipsis" unicode="&#x2026;" horiz-adv-x="1570" 
d="M171 290h290v-290h-290v290zM640 290h290v-290h-290v290zM1109 290h290v-290h-290v290z" />
    <glyph glyph-name="guilsinglleft" unicode="&#x2039;" horiz-adv-x="1376" 
d="M815 60l-516 516l516 516l134 -136l-379 -380l379 -380z" />
    <glyph glyph-name="guilsinglright" unicode="&#x203a;" horiz-adv-x="1376" 
d="M561 60l-134 136l379 380l-379 380l134 136l516 -516z" />
    <glyph glyph-name="fraction" unicode="&#x2044;" horiz-adv-x="1536" 
d="M192 0l-192 192l1344 1344l192 -194z" />
    <glyph glyph-name="Euro" unicode="&#x20ac;" horiz-adv-x="1501" 
d="M1003 241q147 -3 262 81l152 -237q-181 -117 -414 -117q-170 0 -320.5 66.5t-245.5 185.5q-92 110 -136 256h-216v224h175q-4 46 -4 68q0 10 1 33t1 33h-173v224h214q47 151 138 260q98 124 246 187t320 63q236 0 414 -115l-154 -239q-110 83 -260 83
q-101 0 -190.5 -40.5t-144.5 -115.5q-32 -44 -49 -83h490v-224h-544q0 -10 -1 -33t-1 -33q0 -12 1 -34.5t1 -33.5h544v-224h-490q18 -38 49 -81q55 -75 144.5 -115.5t190.5 -38.5z" />
    <glyph glyph-name="uni20B4" unicode="&#x20b4;" horiz-adv-x="1450" 
d="M1218 1037h105v-224h-1193l-2 224h770l4 6q17 29 17 79q0 67 -40 107q-53 64 -145 64q-99 0 -164 -96q-19 -36 -26 -75h-307q13 129 87 241q68 98 177 151.5t235 53.5q99 0 190.5 -32.5t159.5 -93.5q64 -59 102.5 -147.5t38.5 -176.5q0 -39 -9 -81zM1323 725v-224h-779
q-30 -37 -30 -87q0 -83 66 -128q58 -43 152 -43q116 0 190 115q9 13 23 56h299q-9 -109 -73 -209q-66 -114 -187 -175.5t-267 -61.5q-69 0 -147.5 18t-134.5 46q-105 55 -166.5 159t-61.5 214q0 56 8 96h-87v224h1195z" />
    <glyph glyph-name="uni20BD" unicode="&#x20bd;" horiz-adv-x="1600" 
d="M1557 1028q3 -162 -102 -301q-68 -94 -177.5 -149t-234.5 -55h-412v-139h393v-224h-393v-160h-290v160h-170v224h170v139h-170v271h170v742h702q81 0 156 -23q161 -50 256 -184q99 -131 102 -301zM1216 887q50 68 47 141q-3 92 -56 152q-32 36 -77 59.5t-89 23.5h-410
v-469h410q45 0 93.5 25t81.5 68z" />
    <glyph glyph-name="uni2116" unicode="&#x2116;" horiz-adv-x="2432" 
d="M1941 800q-159 0 -271.5 112.5t-112.5 271.5q0 156 115 270t269 114q159 0 271.5 -112.5t112.5 -271.5t-112.5 -271.5t-271.5 -112.5zM427 1536l706 -1003v1003h294v-1536h-256l-704 1003v-1003h-296v1536h256zM1941 1013q71 0 121 50.5t50 120.5t-50 120.5t-121 50.5
q-70 0 -120 -50t-50 -121t50 -121t120 -50zM1621 721h640v-224h-640v224z" />
    <glyph glyph-name="trademark" unicode="&#x2122;" horiz-adv-x="1998" 
d="M128 1357v179h725v-179h-262v-621h-201v621h-262zM1871 1536v-800h-203v384l-181 -384h-107l-181 384v-384h-205v800h179l261 -493l260 493h177z" />
    <glyph glyph-name="arrowleft" unicode="&#x2190;" horiz-adv-x="2165" 
d="M1867 713v-224h-1186l268 -269l-134 -137l-516 516l516 517l134 -137l-266 -266h1184z" />
    <glyph glyph-name="arrowup" unicode="&#x2191;" horiz-adv-x="1544" 
d="M1289 1052l-137 -135l-267 267v-1184h-224v1186l-268 -269l-137 135l516 516z" />
    <glyph glyph-name="arrowright" unicode="&#x2192;" horiz-adv-x="2165" 
d="M1350 1116l517 -517l-517 -516l-134 137l269 269h-1186v224h1184l-267 266z" />
    <glyph glyph-name="arrowdown" unicode="&#x2193;" horiz-adv-x="1544" 
d="M1152 619l137 -135l-517 -516l-516 516l137 135l268 -269v1186h224v-1184z" />
    <glyph glyph-name="carriagereturn" unicode="&#x21b5;" horiz-adv-x="1757" 
d="M1406 1536h224v-1047h-949l268 -269l-134 -137l-516 516l516 517l134 -137l-266 -266h723v823z" />
    <glyph glyph-name="minus" unicode="&#x2212;" horiz-adv-x="1152" 
d="M128 721h896v-224h-896v224z" />
    <glyph glyph-name="notequal" unicode="&#x2260;" horiz-adv-x="1600" 
d="M1344 672h-339l-135 -192h474v-224h-629l-180 -256l-183 128l90 128h-186v224h343l135 192h-478v224h634l179 256l181 -128l-89 -128h183v-224z" />
    <glyph glyph-name="i.loclTRK" horiz-adv-x="631" 
d="M171 1568h290v-256h-290v256zM171 1152h290v-1152h-290v1152z" />
    <glyph glyph-name="uni0414.loclBGR" horiz-adv-x="1653" 
d="M1451 273h96v-465h-273v192h-922v-192h-271v465q161 0 203 365l104 898h1063v-1263zM1180 273v992h-549l-76 -659q-15 -125 -35.5 -202.5t-62.5 -130.5h723z" />
    <glyph glyph-name="uni0416.loclBGR" horiz-adv-x="2210" 
d="M11 0l520 800l-478 736h350l384 -625h171v625h294v-625h171l384 625h350l-478 -736l520 -800h-352l-424 687h-171v-687h-294v687h-171l-424 -687h-352z" />
    <glyph glyph-name="uni041A.loclBGR" horiz-adv-x="1454" 
d="M678 687h-213v-687h-294v1536h294v-625h213l384 625h350l-478 -736l521 -800h-352z" />
    <glyph glyph-name="uni041B.loclBGR" horiz-adv-x="1600" 
d="M1429 1536v-1536h-290v1263h-518l-103 -858q-27 -232 -144 -333.5t-331 -71.5v256q100 3 150.5 56.5t62.5 154.5l130 1069h1043z" />
    <glyph glyph-name="uni0432.loclBGR" horiz-adv-x="1271" 
d="M149 1148l578 4q166 0 267 -79q132 -102 132 -267q0 -82 -34 -151q-25 -39 -34 -49q62 -49 92 -113q36 -70 36 -150q0 -76 -35.5 -148t-96.5 -120q-40 -31 -99.5 -53t-105.5 -22h-700v1148zM444 926v-241h283q61 0 90 47q20 35 17 74q-4 51 -17 73q-17 27 -37 37t-53 10
h-283zM444 463v-241h345q57 0 88 47q17 29 17 74q0 44 -17 73q-31 47 -88 47h-345z" />
    <glyph glyph-name="uni0433.loclBGR" horiz-adv-x="1034" 
d="M981 1152v-290h-542v-862h-290v1152h832z" />
    <glyph glyph-name="uni0434.loclBGR" horiz-adv-x="1354" 
d="M1152 1152v-879h96v-410h-273v137h-659v-137h-273v410q178 0 226 395l55 484h828zM879 273v623h-318l-30 -260q-29 -266 -106 -363h454z" />
    <glyph glyph-name="uni0436.loclBGR" horiz-adv-x="1779" 
d="M1739 1152l-359 -574l378 -578h-324l-282 463h-134v-463h-256v463h-135l-281 -463h-325l378 578l-358 574h322l266 -465h133v465h256v-465h132l267 465h322z" />
    <glyph glyph-name="uni0437.loclBGR" horiz-adv-x="1205" 
d="M111 879q33 169 192 247q115 58 296 58q77 0 160.5 -16t136.5 -42q184 -92 201 -309q0 -117 -64 -211q90 -90 87 -250q-3 -106 -59 -189.5t-148 -132.5q-128 -64 -314 -64q-192 0 -313 64q-158 78 -201 263l284 70q14 -55 60 -85q57 -39 170 -39q99 0 169 39q32 18 45 37
t13 52q0 89 -116 103q-68 8 -111 8h-110v224h110q55 0 103 9q59 12 79.5 33t20.5 56q0 47 -49 75q-62 34 -154 34q-98 0 -153 -34q-24 -16 -34 -30t-13 -38z" />
    <glyph glyph-name="uni0438.loclBGR" horiz-adv-x="1361" 
d="M1212 1152v-1152h-295v693l-512 -693h-256v1152h295v-670l512 670h256z" />
    <glyph glyph-name="uni0439.loclBGR" horiz-adv-x="1361" 
d="M828 1619h224q0 -141 -99 -240t-240 -99t-240.5 99t-99.5 240h224q0 -48 34 -81.5t82 -33.5t81.5 33.5t33.5 81.5zM1212 1152v-1152h-295v693l-512 -693h-256v1152h295v-670l512 670h256z" />
    <glyph glyph-name="uni043A.loclBGR" horiz-adv-x="1226" 
d="M1207 1152l-358 -574l378 -578h-325l-303 463h-155v-463h-295v1152h295v-465h153l288 465h322z" />
    <glyph glyph-name="uni043B.loclBGR" horiz-adv-x="1316" 
d="M311 1152h856v-1152h-273v896h-346l-68 -521q-29 -223 -133 -316.5t-304 -58.5v256q37 0 64 5t45 17t29.5 25t19 37.5t11 44t8.5 54.5z" />
    <glyph glyph-name="uni043D.loclBGR" horiz-adv-x="1352" 
d="M913 1152h290v-1152h-290v450h-474v-450h-290v1152h290v-412h474v412z" />
    <glyph glyph-name="uni043F.loclBGR" horiz-adv-x="1352" 
d="M1203 1152v-1152h-290v862h-474v-862h-290v1152h1054z" />
    <glyph glyph-name="uni0442.loclBGR" horiz-adv-x="1152" 
d="M1099 1152v-256h-378v-896h-290v896h-378v256h1046z" />
    <glyph glyph-name="uni0447.loclBGR" horiz-adv-x="1314" 
d="M873 1152h292v-1152h-292v341q-121 -78 -276 -85q-96 -3 -191.5 31.5t-164.5 96.5q-95 87 -125.5 197.5t-30.5 282.5v288h295v-288q0 -185 77 -262q61 -64 181 -64q80 3 136 44q66 49 86 148q13 60 13 209v213z" />
    <glyph glyph-name="uni0446.loclBGR" horiz-adv-x="1482" 
d="M1203 290h194v-482h-290v192h-958v1152h290v-862h474v862h290v-862z" />
    <glyph glyph-name="uni0448.loclBGR" horiz-adv-x="1614" 
d="M149 0v1152h256v-862h276v862h256v-862h273v862h256v-1152h-1317z" />
    <glyph glyph-name="uni0449.loclBGR" horiz-adv-x="1745" 
d="M1466 290h194v-482h-290v192h-1221v1152h256v-862h276v862h256v-862h273v862h256v-862z" />
    <glyph glyph-name="uni044C.loclBGR" horiz-adv-x="1179" 
d="M149 1152h295v-367h249q179 0 286 -104q56 -53 85.5 -130.5t29.5 -160.5q0 -81 -29.5 -156.5t-85.5 -128.5q-108 -105 -286 -105h-544v1152zM444 510v-239h239q51 3 83 38q34 34 34 81q0 44 -32 79q-33 41 -85 41h-239z" />
    <glyph glyph-name="uni044E.loclBGR" horiz-adv-x="1849" 
d="M1621 992q143 -171 143 -416q0 -238 -143 -416q-80 -94 -194.5 -143t-246.5 -49q-130 0 -246.5 49.5t-195.5 142.5q-100 122 -128 271h-171v-431h-290v1152h290v-431h173q29 154 126 271q79 93 196 142.5t246 49.5q131 0 246.5 -49t194.5 -143zM1391 337q66 86 66 239
q0 155 -66 241q-71 96 -211 96t-211 -96q-64 -84 -64 -241q0 -155 64 -239q35 -47 90.5 -72.5t120.5 -25.5t120.5 25.5t90.5 72.5z" />
    <glyph glyph-name="uni0431.loclSRB" horiz-adv-x="1286" 
d="M678 1073q118 0 221 -45.5t172 -131.5q63 -75 96.5 -176t33.5 -206q4 -112 -37 -214t-117 -181q-163 -157 -413 -151q-117 0 -223.5 46.5t-180.5 132.5q-125 144 -140 388q-15 227 17 444q46 303 247 440q167 117 491 117q130 0 260 -26v-266q-141 18 -260 21
q-249 8 -337 -55q-59 -42 -84.5 -105.5t-35.5 -146.5q59 51 136 81.5t154 33.5zM646 817q-122 0 -189 -79q-60 -68 -60 -203q0 -134 60 -202q67 -79 189 -79q124 0 188 79q62 70 62 202q0 133 -62 203q-64 79 -188 79z" />
    <glyph glyph-name="exclamdown.case" horiz-adv-x="802" 
d="M256 1280v256h290v-256h-290zM256 0v1152h290v-1152h-290z" />
    <glyph glyph-name="questiondown.case" horiz-adv-x="1201" 
d="M779 1536v-307h-305v307h305zM107 403q0 195 181 388q18 20 55 57t55 58t33 43q29 47 36 77t7 94h307q0 -156 -66 -269q-24 -49 -53.5 -80.5t-82 -75t-93.5 -87.5q-41 -46 -56.5 -91t-15.5 -105q0 -66 28 -103q48 -66 157 -66q87 0 131 36q60 44 57 133h307
q-13 -115 -65.5 -210t-134.5 -149q-127 -83 -282 -83q-275 0 -407 162q-46 54 -72 126.5t-26 144.5z" />
    <glyph glyph-name="periodcentered.case" horiz-adv-x="1365" 
d="M687 597q-74 0 -124.5 49t-50.5 122t50.5 122t124.5 49q68 0 117 -49t49 -122t-49 -122t-117 -49z" />
    <glyph glyph-name="parenleft.case" horiz-adv-x="900" 
d="M471 -166l237 134q-179 314 -179 800q0 489 179 800l-237 134q-215 -376 -215 -934t215 -934z" />
    <glyph glyph-name="parenright.case" horiz-adv-x="900" 
d="M429 -166q215 376 215 934t-215 934l-237 -134q179 -311 179 -800q0 -486 -179 -800z" />
    <glyph glyph-name="braceleft.case" horiz-adv-x="1043" 
d="M851 -271v271h-130q-25 0 -43.5 18t-18.5 44v459q0 104 -62 192l-40 55l40 55q62 88 62 192v459q0 26 18.5 44t43.5 18h130v273h-130q-139 0 -237 -98.5t-98 -236.5v-459q0 -14 -11 -34l-96 -136q-24 -35 -24 -77t24 -77l96 -136q11 -17 11 -34v-459q0 -138 98 -235.5
t237 -97.5h130z" />
    <glyph glyph-name="braceright.case" horiz-adv-x="1043" 
d="M192 -271h130q139 0 237 97.5t98 235.5v459q0 17 11 34l96 136q24 35 24 77t-24 77l-96 136q-11 20 -11 34v459q0 138 -98 236.5t-237 98.5h-130v-273h130q26 0 44 -18t18 -44v-459q0 -104 62 -192l40 -55l-40 -55q-62 -88 -62 -192v-459q0 -26 -18 -44t-44 -18h-130
v-271z" />
    <glyph glyph-name="bracketleft.case" horiz-adv-x="872" 
d="M745 1664h-233v-1792h233v-256h-489v2304h489v-256z" />
    <glyph glyph-name="bracketright.case" horiz-adv-x="872" 
d="M617 1920v-2304h-489v256h233v1792h-233v256h489z" />
    <glyph glyph-name="hyphen.case" horiz-adv-x="896" 
d="M128 881h640v-224h-640v224z" />
    <glyph glyph-name="endash.case" horiz-adv-x="1152" 
d="M128 881h896v-224h-896v224z" />
    <glyph glyph-name="emdash.case" horiz-adv-x="1664" 
d="M128 881h1408v-224h-1408v224z" />
    <glyph glyph-name="guillemotleft.case" horiz-adv-x="1286" 
d="M548 292l152 120l-284 356l284 356l-152 120l-377 -476zM1007 292l151 120l-283 356l283 356l-151 120l-378 -476z" />
    <glyph glyph-name="guillemotright.case" horiz-adv-x="1286" 
d="M279 292l378 476l-378 476l-151 -120l284 -356l-284 -356zM738 292l378 476l-378 476l-151 -120l283 -356l-283 -356z" />
    <glyph glyph-name="guilsinglleft.case" horiz-adv-x="1376" 
d="M815 252l-516 516l516 516l134 -136l-379 -380l379 -380z" />
    <glyph glyph-name="guilsinglright.case" horiz-adv-x="1376" 
d="M561 252l-134 136l379 380l-379 380l134 136l516 -516z" />
    <glyph glyph-name="greater.case" horiz-adv-x="1376" 
d="M561 252l-134 136l379 380l-379 380l134 136l516 -516z" />
    <glyph glyph-name="less.case" horiz-adv-x="1376" 
d="M815 252l-516 516l516 516l134 -136l-379 -380l379 -380z" />
    <glyph glyph-name="arrowright.case" horiz-adv-x="2165" 
d="M1350 1284l517 -516l-517 -516l-134 136l269 269h-1186v224h1184l-267 267z" />
    <glyph glyph-name="arrowleft.case" horiz-adv-x="2165" 
d="M1867 881v-224h-1186l268 -269l-134 -136l-516 516l516 516l134 -136l-266 -267h1184z" />
    <glyph glyph-name="at.case" horiz-adv-x="2097" 
d="M1050 1568q425 0 672 -247.5t247 -674.5q0 -99 -17.5 -180t-44.5 -133.5t-65.5 -92.5t-74.5 -60.5t-77 -33t-67.5 -15.5t-52.5 -3q-100 0 -186.5 46t-139.5 125q-84 -43 -194 -43q-178 0 -285.5 107t-107.5 283q0 178 107.5 286.5t285.5 108.5q176 0 284 -108.5
t108 -286.5v-119q0 -53 38 -90.5t90 -37.5q16 0 27 1.5t32 14.5t34.5 37t24 74t10.5 120q0 310 -169.5 480.5t-478.5 170.5q-58 0 -113 -6t-121.5 -24.5t-123.5 -47.5t-112 -79.5t-93.5 -117t-62 -163t-23.5 -213.5t23.5 -213t62 -161.5t93.5 -115.5t112 -79t123.5 -47
t121.5 -24t113 -6v-273q-427 0 -674.5 247t-247.5 672q0 212 64 384t183 291t291 183t384 64zM1050 527q38 0 63.5 10.5t37.5 29t16 37t4 42.5q0 55 -24.5 88.5t-96.5 33.5q-73 0 -97.5 -33.5t-24.5 -88.5q0 -53 24.5 -86t97.5 -33z" />
    <glyph glyph-name="copyright.case" horiz-adv-x="1992" 
d="M996 -143q124 0 242 32.5t218 91.5t184 143t143 184t91.5 218t32.5 242t-32.5 242t-91.5 218t-143 184t-184 143t-218 91.5t-242 32.5t-242 -32.5t-218 -91.5t-184 -143t-143 -184t-91.5 -218t-32.5 -242t32.5 -242t91.5 -218t143 -184t184 -143t218 -91.5t242 -32.5z
M996 128q-130 0 -248.5 50.5t-204.5 136.5t-136.5 204.5t-50.5 248.5t50.5 248.5t136.5 204.5t204.5 136.5t248.5 50.5t248.5 -50.5t204.5 -136.5t136.5 -204.5t50.5 -248.5t-50.5 -248.5t-136.5 -204.5t-204.5 -136.5t-248.5 -50.5zM1370 1003l-199 -86q-3 7 -17 28
q-25 35 -67 54t-89 19q-100 0 -153 -73q-49 -64 -49 -177q0 -111 49 -175q51 -70 153 -70q105 0 156 70q10 15 15 26l201 -86q-24 -43 -47 -68q-56 -68 -142.5 -104.5t-182.5 -38.5q-94 -2 -179.5 35.5t-142.5 107.5q-104 118 -104 303q0 183 104 307q59 70 143 105.5
t179 35.5q96 0 182 -36.5t143 -104.5q34 -41 47 -72z" />
    </font>
</defs>
</svg>
